<?xml version="1.0" encoding="UTF-8" standalone="no"?>
<!DOCTYPE svg PUBLIC "-//W3C//DTD SVG 1.1//EN"
 "http://www.w3.org/Graphics/SVG/1.1/DTD/svg11.dtd">
<!-- Generated by graphviz version 2.40.1 (20161225.0304)
 -->
<!-- Title: %0 Pages: 1 -->
<svg width="524pt" height="826pt"
 viewBox="0.00 0.00 524.00 825.88" xmlns="http://www.w3.org/2000/svg" xmlns:xlink="http://www.w3.org/1999/xlink">
<g id="graph0" class="graph" transform="scale(1 1) rotate(0) translate(4 821.8817)">
<title>%0</title>
<g id="a_graph0"><a xlink:title="ERD">
<polygon fill="#ffffff" stroke="transparent" points="-4,4 -4,-821.8817 520,-821.8817 520,4 -4,4"/>
</a>
</g>
<!-- calibrations -->
<g id="calibrations" class="node">
<title>calibrations</title>
<polygon fill="#efebdd" stroke="transparent" points="179,-164.8817 179,-182.8817 244,-182.8817 244,-164.8817 179,-164.8817"/>
<text text-anchor="start" x="183.5094" y="-170.0817" font-family="Times,serif" font-size="12.00" fill="#000000">calibrations</text>
<polygon fill="#ffffff" stroke="transparent" points="179,-146.8817 179,-164.8817 244,-164.8817 244,-146.8817 179,-146.8817"/>
<text text-anchor="start" x="181" y="-152.0817" font-family="Times,serif" font-size="12.00" fill="#444444">sensor_id</text>
<polygon fill="#ffffff" stroke="transparent" points="179,-128.8817 179,-146.8817 244,-146.8817 244,-128.8817 179,-128.8817"/>
<text text-anchor="start" x="181" y="-134.0817" font-family="Times,serif" font-size="12.00" fill="#444444">cal_dt</text>
<polygon fill="#ffffff" stroke="transparent" points="179,-110.8817 179,-128.8817 244,-128.8817 244,-110.8817 179,-110.8817"/>
<text text-anchor="start" x="181" y="-116.0817" font-family="Times,serif" font-size="12.00" fill="#444444">cal_tp</text>
<polygon fill="#ffffff" stroke="transparent" points="179,-92.8817 179,-110.8817 244,-110.8817 244,-92.8817 179,-92.8817"/>
<text text-anchor="start" x="181" y="-98.0817" font-family="Times,serif" font-size="12.00" fill="#444444">ref_temp_va</text>
<polygon fill="#ffffff" stroke="transparent" points="179,-74.8817 179,-92.8817 244,-92.8817 244,-74.8817 179,-74.8817"/>
<text text-anchor="start" x="181" y="-80.0817" font-family="Times,serif" font-size="12.00" fill="#444444">ts_dt</text>
<polygon fill="#ffffff" stroke="transparent" points="179,-56.8817 179,-74.8817 244,-74.8817 244,-56.8817 179,-56.8817"/>
<text text-anchor="start" x="180.8442" y="-62.0817" font-family="Times,serif" font-size="12.00" fill="#444444">lab_standard</text>
<polygon fill="#ffffff" stroke="transparent" points="179,-38.8817 179,-56.8817 244,-56.8817 244,-38.8817 179,-38.8817"/>
<text text-anchor="start" x="181" y="-44.0817" font-family="Times,serif" font-size="12.00" fill="#444444">r2</text>
<polygon fill="#ffffff" stroke="transparent" points="179,-20.8817 179,-38.8817 244,-38.8817 244,-20.8817 179,-20.8817"/>
<text text-anchor="start" x="181" y="-26.0817" font-family="Times,serif" font-size="12.00" fill="#444444">p_value</text>
<polygon fill="none" stroke="#555555" points="177.5,-19.8817 177.5,-183.8817 244.5,-183.8817 244.5,-19.8817 177.5,-19.8817"/>
</g>
<!-- sensors -->
<g id="sensors" class="node">
<title>sensors</title>
<polygon fill="#efebdd" stroke="transparent" points="293.5,-336.8817 293.5,-354.8817 396.5,-354.8817 396.5,-336.8817 293.5,-336.8817"/>
<text text-anchor="start" x="327.339" y="-342.0817" font-family="Times,serif" font-size="12.00" fill="#000000">sensors</text>
<polygon fill="#ffffff" stroke="transparent" points="293.5,-318.8817 293.5,-336.8817 396.5,-336.8817 396.5,-318.8817 293.5,-318.8817"/>
<text text-anchor="start" x="295.5" y="-325.0817" font-family="Times,serif" text-decoration="underline" font-size="12.00" fill="#444444">sensor_id</text>
<polygon fill="#ffffff" stroke="transparent" points="293.5,-300.8817 293.5,-318.8817 396.5,-318.8817 396.5,-300.8817 293.5,-300.8817"/>
<text text-anchor="start" x="295.5" y="-306.0817" font-family="Times,serif" font-size="12.00" fill="#444444">sensor_nu</text>
<polygon fill="#ffffff" stroke="transparent" points="293.5,-282.8817 293.5,-300.8817 396.5,-300.8817 396.5,-282.8817 293.5,-282.8817"/>
<text text-anchor="start" x="295.5" y="-288.0817" font-family="Times,serif" font-size="12.00" fill="#444444">sensor_brand_nm</text>
<polygon fill="#ffffff" stroke="transparent" points="293.5,-264.8817 293.5,-282.8817 396.5,-282.8817 396.5,-264.8817 293.5,-264.8817"/>
<text text-anchor="start" x="295.5" y="-270.0817" font-family="Times,serif" font-size="12.00" fill="#444444">sensor_model_cd</text>
<polygon fill="#ffffff" stroke="transparent" points="293.5,-246.8817 293.5,-264.8817 396.5,-264.8817 396.5,-246.8817 293.5,-246.8817"/>
<text text-anchor="start" x="295.5" y="-252.0817" font-family="Times,serif" font-size="12.00" fill="#444444">press_unit_cd</text>
<polygon fill="#ffffff" stroke="transparent" points="293.5,-228.8817 293.5,-246.8817 396.5,-246.8817 396.5,-228.8817 293.5,-228.8817"/>
<text text-anchor="start" x="295.5" y="-234.0817" font-family="Times,serif" font-size="12.00" fill="#444444">temp_unit_cd</text>
<polygon fill="#ffffff" stroke="transparent" points="293.5,-210.8817 293.5,-228.8817 396.5,-228.8817 396.5,-210.8817 293.5,-210.8817"/>
<text text-anchor="start" x="295.5" y="-216.0817" font-family="Times,serif" font-size="12.00" fill="#444444">sensor_tp</text>
<polygon fill="#ffffff" stroke="transparent" points="293.5,-192.8817 293.5,-210.8817 396.5,-210.8817 396.5,-192.8817 293.5,-192.8817"/>
<text text-anchor="start" x="295.5" y="-198.0817" font-family="Times,serif" font-size="12.00" fill="#444444">temp_lower_va</text>
<polygon fill="#ffffff" stroke="transparent" points="293.5,-174.8817 293.5,-192.8817 396.5,-192.8817 396.5,-174.8817 293.5,-174.8817"/>
<text text-anchor="start" x="295.5" y="-180.0817" font-family="Times,serif" font-size="12.00" fill="#444444">temp_upper_va</text>
<polygon fill="#ffffff" stroke="transparent" points="293.5,-156.8817 293.5,-174.8817 396.5,-174.8817 396.5,-156.8817 293.5,-156.8817"/>
<text text-anchor="start" x="295.5" y="-162.0817" font-family="Times,serif" font-size="12.00" fill="#444444">press_lower_va</text>
<polygon fill="#ffffff" stroke="transparent" points="293.5,-138.8817 293.5,-156.8817 396.5,-156.8817 396.5,-138.8817 293.5,-138.8817"/>
<text text-anchor="start" x="295.5" y="-144.0817" font-family="Times,serif" font-size="12.00" fill="#444444">press_upper_va</text>
<polygon fill="#ffffff" stroke="transparent" points="293.5,-120.8817 293.5,-138.8817 396.5,-138.8817 396.5,-120.8817 293.5,-120.8817"/>
<text text-anchor="start" x="295.5" y="-126.0817" font-family="Times,serif" font-size="12.00" fill="#444444">press_res_va</text>
<polygon fill="#ffffff" stroke="transparent" points="293.5,-102.8817 293.5,-120.8817 396.5,-120.8817 396.5,-102.8817 293.5,-102.8817"/>
<text text-anchor="start" x="295.5" y="-108.0817" font-family="Times,serif" font-size="12.00" fill="#444444">press_acc_va</text>
<polygon fill="#ffffff" stroke="transparent" points="293.5,-84.8817 293.5,-102.8817 396.5,-102.8817 396.5,-84.8817 293.5,-84.8817"/>
<text text-anchor="start" x="295.3638" y="-90.0817" font-family="Times,serif" font-size="12.00" fill="#444444">press_repeat_acc_va</text>
<polygon fill="#ffffff" stroke="transparent" points="293.5,-66.8817 293.5,-84.8817 396.5,-84.8817 396.5,-66.8817 293.5,-66.8817"/>
<text text-anchor="start" x="295.3572" y="-72.0817" font-family="Times,serif" font-size="12.00" fill="#444444">press_hyster_acc_va</text>
<polygon fill="#ffffff" stroke="transparent" points="293.5,-48.8817 293.5,-66.8817 396.5,-66.8817 396.5,-48.8817 293.5,-48.8817"/>
<text text-anchor="start" x="295.5" y="-54.0817" font-family="Times,serif" font-size="12.00" fill="#444444">response_time_tx</text>
<polygon fill="none" stroke="#555555" points="292,-47.8817 292,-355.8817 397,-355.8817 397,-47.8817 292,-47.8817"/>
</g>
<!-- calibrations&#45;&gt;sensors -->
<g id="calibrations_1" class="edge">
<title>calibrations:sensor_id&#45;&gt;sensors:sensor_id</title>
<path fill="none" stroke="#555555" d="M244,-155.8817C319.8184,-155.8817 223.8117,-312.1347 283.5215,-326.7834"/>
<polygon fill="#555555" stroke="#555555" points="283.1771,-330.2665 293.5,-327.8817 283.943,-323.3085 283.1771,-330.2665"/>
</g>
<!-- heads -->
<g id="heads" class="node">
<title>heads</title>
<polygon fill="#efebdd" stroke="transparent" points="23,-490.8817 23,-508.8817 107,-508.8817 107,-490.8817 23,-490.8817"/>
<text text-anchor="start" x="51.3398" y="-496.0817" font-family="Times,serif" font-size="12.00" fill="#000000">heads</text>
<polygon fill="#ffffff" stroke="transparent" points="23,-472.8817 23,-490.8817 107,-490.8817 107,-472.8817 23,-472.8817"/>
<text text-anchor="start" x="25" y="-478.0817" font-family="Times,serif" font-size="12.00" fill="#444444">site_nm</text>
<polygon fill="#ffffff" stroke="transparent" points="23,-454.8817 23,-472.8817 107,-472.8817 107,-454.8817 23,-454.8817"/>
<text text-anchor="start" x="25" y="-460.0817" font-family="Times,serif" font-size="12.00" fill="#444444">port_nu</text>
<polygon fill="#ffffff" stroke="transparent" points="23,-436.8817 23,-454.8817 107,-454.8817 107,-436.8817 23,-436.8817"/>
<text text-anchor="start" x="25" y="-442.0817" font-family="Times,serif" font-size="12.00" fill="#444444">site_no</text>
<polygon fill="#ffffff" stroke="transparent" points="23,-418.8817 23,-436.8817 107,-436.8817 107,-418.8817 23,-418.8817"/>
<text text-anchor="start" x="25" y="-424.0817" font-family="Times,serif" font-size="12.00" fill="#444444">stime_dt</text>
<polygon fill="#ffffff" stroke="transparent" points="23,-400.8817 23,-418.8817 107,-418.8817 107,-400.8817 23,-400.8817"/>
<text text-anchor="start" x="25" y="-406.0817" font-family="Times,serif" font-size="12.00" fill="#444444">press_dt</text>
<polygon fill="#ffffff" stroke="transparent" points="23,-382.8817 23,-400.8817 107,-400.8817 107,-382.8817 23,-382.8817"/>
<text text-anchor="start" x="25" y="-388.0817" font-family="Times,serif" font-size="12.00" fill="#444444">temp_va</text>
<polygon fill="#ffffff" stroke="transparent" points="23,-364.8817 23,-382.8817 107,-382.8817 107,-364.8817 23,-364.8817"/>
<text text-anchor="start" x="25" y="-370.0817" font-family="Times,serif" font-size="12.00" fill="#444444">baro_va</text>
<polygon fill="#ffffff" stroke="transparent" points="23,-346.8817 23,-364.8817 107,-364.8817 107,-346.8817 23,-346.8817"/>
<text text-anchor="start" x="25" y="-352.0817" font-family="Times,serif" font-size="12.00" fill="#444444">press_va</text>
<polygon fill="#ffffff" stroke="transparent" points="23,-328.8817 23,-346.8817 107,-346.8817 107,-328.8817 23,-328.8817"/>
<text text-anchor="start" x="25" y="-334.0817" font-family="Times,serif" font-size="12.00" fill="#444444">press_head_va</text>
<polygon fill="#ffffff" stroke="transparent" points="23,-310.8817 23,-328.8817 107,-328.8817 107,-310.8817 23,-310.8817"/>
<text text-anchor="start" x="25" y="-316.0817" font-family="Times,serif" font-size="12.00" fill="#444444">total_head_va</text>
<polygon fill="#ffffff" stroke="transparent" points="23,-292.8817 23,-310.8817 107,-310.8817 107,-292.8817 23,-292.8817"/>
<text text-anchor="start" x="25" y="-298.0817" font-family="Times,serif" font-size="12.00" fill="#444444">press_in_1_va</text>
<polygon fill="#ffffff" stroke="transparent" points="23,-274.8817 23,-292.8817 107,-292.8817 107,-274.8817 23,-274.8817"/>
<text text-anchor="start" x="25" y="-280.0817" font-family="Times,serif" font-size="12.00" fill="#444444">press_in_2_va</text>
<polygon fill="#ffffff" stroke="transparent" points="23,-256.8817 23,-274.8817 107,-274.8817 107,-256.8817 23,-256.8817"/>
<text text-anchor="start" x="24.6794" y="-262.0817" font-family="Times,serif" font-size="12.00" fill="#444444">press_in_diff_va</text>
<polygon fill="#ffffff" stroke="transparent" points="23,-238.8817 23,-256.8817 107,-256.8817 107,-238.8817 23,-238.8817"/>
<text text-anchor="start" x="25" y="-244.0817" font-family="Times,serif" font-size="12.00" fill="#444444">replicate_fl</text>
<polygon fill="#ffffff" stroke="transparent" points="23,-220.8817 23,-238.8817 107,-238.8817 107,-220.8817 23,-220.8817"/>
<text text-anchor="start" x="25" y="-226.0817" font-family="Times,serif" font-size="12.00" fill="#444444">comment_tx</text>
<polygon fill="#ffffff" stroke="transparent" points="23,-202.8817 23,-220.8817 107,-220.8817 107,-202.8817 23,-202.8817"/>
<text text-anchor="start" x="24.6734" y="-209.0817" font-family="Times,serif" text-decoration="underline" font-size="12.00" fill="#444444">site_no, press_dt</text>
<polygon fill="none" stroke="#555555" points="22,-201.8817 22,-509.8817 108,-509.8817 108,-201.8817 22,-201.8817"/>
</g>
<!-- ports -->
<g id="ports" class="node">
<title>ports</title>
<polygon fill="#efebdd" stroke="transparent" points="167,-780.8817 167,-798.8817 255,-798.8817 255,-780.8817 167,-780.8817"/>
<text text-anchor="start" x="199.0018" y="-786.0817" font-family="Times,serif" font-size="12.00" fill="#000000">ports</text>
<polygon fill="#ffffff" stroke="transparent" points="167,-762.8817 167,-780.8817 255,-780.8817 255,-762.8817 167,-762.8817"/>
<text text-anchor="start" x="169" y="-768.0817" font-family="Times,serif" font-size="12.00" fill="#444444">site_nm</text>
<polygon fill="#ffffff" stroke="transparent" points="167,-744.8817 167,-762.8817 255,-762.8817 255,-744.8817 167,-744.8817"/>
<text text-anchor="start" x="169" y="-750.0817" font-family="Times,serif" font-size="12.00" fill="#444444">port_nu</text>
<polygon fill="#ffffff" stroke="transparent" points="167,-726.8817 167,-744.8817 255,-744.8817 255,-726.8817 167,-726.8817"/>
<text text-anchor="start" x="169" y="-733.0817" font-family="Times,serif" text-decoration="underline" font-size="12.00" fill="#444444">site_no</text>
<polygon fill="#ffffff" stroke="transparent" points="167,-708.8817 167,-726.8817 255,-726.8817 255,-708.8817 167,-708.8817"/>
<text text-anchor="start" x="169" y="-714.0817" font-family="Times,serif" font-size="12.00" fill="#444444">mp_a_va</text>
<polygon fill="#ffffff" stroke="transparent" points="167,-690.8817 167,-708.8817 255,-708.8817 255,-690.8817 167,-690.8817"/>
<text text-anchor="start" x="169" y="-696.0817" font-family="Times,serif" font-size="12.00" fill="#444444">wl_depth_va</text>
<polygon fill="#ffffff" stroke="transparent" points="167,-672.8817 167,-690.8817 255,-690.8817 255,-672.8817 167,-672.8817"/>
<text text-anchor="start" x="169" y="-678.0817" font-family="Times,serif" font-size="12.00" fill="#444444">baro_compl_va</text>
<polygon fill="#ffffff" stroke="transparent" points="167,-654.8817 167,-672.8817 255,-672.8817 255,-654.8817 167,-654.8817"/>
<text text-anchor="start" x="169" y="-660.0817" font-family="Times,serif" font-size="12.00" fill="#444444">temp_compl_va</text>
<polygon fill="#ffffff" stroke="transparent" points="167,-636.8817 167,-654.8817 255,-654.8817 255,-636.8817 167,-636.8817"/>
<text text-anchor="start" x="169" y="-642.0817" font-family="Times,serif" font-size="12.00" fill="#444444">press_compl_va</text>
<polygon fill="#ffffff" stroke="transparent" points="167,-618.8817 167,-636.8817 255,-636.8817 255,-618.8817 167,-618.8817"/>
<text text-anchor="start" x="169" y="-624.0817" font-family="Times,serif" font-size="12.00" fill="#444444">tp_depth_va</text>
<polygon fill="#ffffff" stroke="transparent" points="167,-600.8817 167,-618.8817 255,-618.8817 255,-600.8817 167,-600.8817"/>
<text text-anchor="start" x="169" y="-606.0817" font-family="Times,serif" font-size="12.00" fill="#444444">port_depth_va</text>
<polygon fill="#ffffff" stroke="transparent" points="167,-582.8817 167,-600.8817 255,-600.8817 255,-582.8817 167,-582.8817"/>
<text text-anchor="start" x="169" y="-588.0817" font-family="Times,serif" font-size="12.00" fill="#444444">port_alt_va</text>
<polygon fill="#ffffff" stroke="transparent" points="167,-564.8817 167,-582.8817 255,-582.8817 255,-564.8817 167,-564.8817"/>
<text text-anchor="start" x="169" y="-570.0817" font-family="Times,serif" font-size="12.00" fill="#444444">zone_nu</text>
<polygon fill="#ffffff" stroke="transparent" points="167,-546.8817 167,-564.8817 255,-564.8817 255,-546.8817 167,-546.8817"/>
<text text-anchor="start" x="169" y="-552.0817" font-family="Times,serif" font-size="12.00" fill="#444444">npress</text>
<polygon fill="#ffffff" stroke="transparent" points="167,-528.8817 167,-546.8817 255,-546.8817 255,-528.8817 167,-528.8817"/>
<text text-anchor="start" x="169" y="-534.0817" font-family="Times,serif" font-size="12.00" fill="#444444">nsamples</text>
<polygon fill="#ffffff" stroke="transparent" points="167,-510.8817 167,-528.8817 255,-528.8817 255,-510.8817 167,-510.8817"/>
<text text-anchor="start" x="168.6742" y="-516.0817" font-family="Times,serif" font-size="12.00" fill="#444444">site_nm, zone_nu</text>
<polygon fill="none" stroke="#555555" points="166,-509.8817 166,-799.8817 256,-799.8817 256,-509.8817 166,-509.8817"/>
</g>
<!-- heads&#45;&gt;ports -->
<g id="heads_1" class="edge">
<title>heads:site_no&#45;&gt;ports:site_no</title>
<path fill="none" stroke="#555555" d="M107,-445.8817C169.0818,-445.8817 108.8629,-703.9605 157.0903,-733.196"/>
<polygon fill="#555555" stroke="#555555" points="156.4326,-736.644 167,-735.8817 158.2637,-729.8877 156.4326,-736.644"/>
</g>
<!-- visits -->
<g id="visits" class="node">
<title>visits</title>
<polygon fill="#efebdd" stroke="transparent" points="169,-472.8817 169,-490.8817 254,-490.8817 254,-472.8817 169,-472.8817"/>
<text text-anchor="start" x="198.831" y="-478.0817" font-family="Times,serif" font-size="12.00" fill="#000000">visits</text>
<polygon fill="#ffffff" stroke="transparent" points="169,-454.8817 169,-472.8817 254,-472.8817 254,-454.8817 169,-454.8817"/>
<text text-anchor="start" x="171" y="-460.0817" font-family="Times,serif" font-size="12.00" fill="#444444">site_nm</text>
<polygon fill="#ffffff" stroke="transparent" points="169,-436.8817 169,-454.8817 254,-454.8817 254,-436.8817 169,-436.8817"/>
<text text-anchor="start" x="171" y="-443.0817" font-family="Times,serif" text-decoration="underline" font-size="12.00" fill="#444444">stime_dt</text>
<polygon fill="#ffffff" stroke="transparent" points="169,-418.8817 169,-436.8817 254,-436.8817 254,-418.8817 169,-418.8817"/>
<text text-anchor="start" x="171" y="-424.0817" font-family="Times,serif" font-size="12.00" fill="#444444">etime_dt</text>
<polygon fill="#ffffff" stroke="transparent" points="169,-400.8817 169,-418.8817 254,-418.8817 254,-400.8817 169,-400.8817"/>
<text text-anchor="start" x="171" y="-406.0817" font-family="Times,serif" font-size="12.00" fill="#444444">baro_id</text>
<polygon fill="#ffffff" stroke="transparent" points="169,-382.8817 169,-400.8817 254,-400.8817 254,-382.8817 169,-382.8817"/>
<text text-anchor="start" x="171" y="-388.0817" font-family="Times,serif" font-size="12.00" fill="#444444">baro_start_va</text>
<polygon fill="#ffffff" stroke="transparent" points="169,-364.8817 169,-382.8817 254,-382.8817 254,-364.8817 169,-364.8817"/>
<text text-anchor="start" x="171" y="-370.0817" font-family="Times,serif" font-size="12.00" fill="#444444">baro_end_va</text>
<polygon fill="#ffffff" stroke="transparent" points="169,-346.8817 169,-364.8817 254,-364.8817 254,-346.8817 169,-346.8817"/>
<text text-anchor="start" x="171" y="-352.0817" font-family="Times,serif" font-size="12.00" fill="#444444">sensor_id</text>
<polygon fill="#ffffff" stroke="transparent" points="169,-328.8817 169,-346.8817 254,-346.8817 254,-328.8817 169,-328.8817"/>
<text text-anchor="start" x="171" y="-334.0817" font-family="Times,serif" font-size="12.00" fill="#444444">press_start_va</text>
<polygon fill="#ffffff" stroke="transparent" points="169,-310.8817 169,-328.8817 254,-328.8817 254,-310.8817 169,-310.8817"/>
<text text-anchor="start" x="171" y="-316.0817" font-family="Times,serif" font-size="12.00" fill="#444444">press_end_va</text>
<polygon fill="#ffffff" stroke="transparent" points="169,-292.8817 169,-310.8817 254,-310.8817 254,-292.8817 169,-292.8817"/>
<text text-anchor="start" x="171" y="-298.0817" font-family="Times,serif" font-size="12.00" fill="#444444">temp_start_va</text>
<polygon fill="#ffffff" stroke="transparent" points="169,-274.8817 169,-292.8817 254,-292.8817 254,-274.8817 169,-274.8817"/>
<text text-anchor="start" x="171" y="-280.0817" font-family="Times,serif" font-size="12.00" fill="#444444">temp_end_va</text>
<polygon fill="#ffffff" stroke="transparent" points="169,-256.8817 169,-274.8817 254,-274.8817 254,-256.8817 169,-256.8817"/>
<text text-anchor="start" x="171" y="-262.0817" font-family="Times,serif" font-size="12.00" fill="#444444">operators</text>
<polygon fill="#ffffff" stroke="transparent" points="169,-238.8817 169,-256.8817 254,-256.8817 254,-238.8817 169,-238.8817"/>
<text text-anchor="start" x="170.8434" y="-244.0817" font-family="Times,serif" font-size="12.00" fill="#444444">sheet_version_tx</text>
<polygon fill="#ffffff" stroke="transparent" points="169,-220.8817 169,-238.8817 254,-238.8817 254,-220.8817 169,-220.8817"/>
<text text-anchor="start" x="171" y="-226.0817" font-family="Times,serif" font-size="12.00" fill="#444444">weather</text>
<polygon fill="#ffffff" stroke="transparent" points="169,-202.8817 169,-220.8817 254,-220.8817 254,-202.8817 169,-202.8817"/>
<text text-anchor="start" x="171" y="-208.0817" font-family="Times,serif" font-size="12.00" fill="#444444">comment_tx</text>
<polygon fill="none" stroke="#555555" points="167.5,-201.8817 167.5,-491.8817 254.5,-491.8817 254.5,-201.8817 167.5,-201.8817"/>
</g>
<!-- heads&#45;&gt;visits -->
<g id="heads_2" class="edge">
<title>heads:stime_dt&#45;&gt;visits:stime_dt</title>
<path fill="none" stroke="#555555" d="M107,-427.8817C131.9946,-427.8817 138.7171,-441.5402 159.001,-445.0615"/>
<polygon fill="#555555" stroke="#555555" points="158.7473,-448.5524 169,-445.8817 159.3196,-441.5758 158.7473,-448.5524"/>
</g>
<!-- wells -->
<g id="wells" class="node">
<title>wells</title>
<polygon fill="#efebdd" stroke="transparent" points="434.5,-672.8817 434.5,-690.8817 515.5,-690.8817 515.5,-672.8817 434.5,-672.8817"/>
<text text-anchor="start" x="462.337" y="-678.0817" font-family="Times,serif" font-size="12.00" fill="#000000">wells</text>
<polygon fill="#ffffff" stroke="transparent" points="434.5,-654.8817 434.5,-672.8817 515.5,-672.8817 515.5,-654.8817 434.5,-654.8817"/>
<text text-anchor="start" x="436.5" y="-661.0817" font-family="Times,serif" text-decoration="underline" font-size="12.00" fill="#444444">site_nm</text>
<polygon fill="#ffffff" stroke="transparent" points="434.5,-636.8817 434.5,-654.8817 515.5,-654.8817 515.5,-636.8817 434.5,-636.8817"/>
<text text-anchor="start" x="436.5" y="-642.0817" font-family="Times,serif" font-size="12.00" fill="#444444">coord_acy_va</text>
<polygon fill="#ffffff" stroke="transparent" points="434.5,-618.8817 434.5,-636.8817 515.5,-636.8817 515.5,-618.8817 434.5,-618.8817"/>
<text text-anchor="start" x="436.5" y="-624.0817" font-family="Times,serif" font-size="12.00" fill="#444444">alt_va</text>
<polygon fill="#ffffff" stroke="transparent" points="434.5,-600.8817 434.5,-618.8817 515.5,-618.8817 515.5,-600.8817 434.5,-600.8817"/>
<text text-anchor="start" x="436.5" y="-606.0817" font-family="Times,serif" font-size="12.00" fill="#444444">alt_acy_va</text>
<polygon fill="#ffffff" stroke="transparent" points="434.5,-582.8817 434.5,-600.8817 515.5,-600.8817 515.5,-582.8817 434.5,-582.8817"/>
<text text-anchor="start" x="436.5" y="-588.0817" font-family="Times,serif" font-size="12.00" fill="#444444">etape_cf_va</text>
<polygon fill="#ffffff" stroke="transparent" points="434.5,-564.8817 434.5,-582.8817 515.5,-582.8817 515.5,-564.8817 434.5,-564.8817"/>
<text text-anchor="start" x="436.3468" y="-570.0817" font-family="Times,serif" font-size="12.00" fill="#444444">deviation_cf_va</text>
<polygon fill="#ffffff" stroke="transparent" points="434.5,-546.8817 434.5,-564.8817 515.5,-564.8817 515.5,-546.8817 434.5,-546.8817"/>
<text text-anchor="start" x="436.5" y="-552.0817" font-family="Times,serif" font-size="12.00" fill="#444444">stickup_va</text>
<polygon fill="#ffffff" stroke="transparent" points="434.5,-528.8817 434.5,-546.8817 515.5,-546.8817 515.5,-528.8817 434.5,-528.8817"/>
<text text-anchor="start" x="436.5" y="-534.0817" font-family="Times,serif" font-size="12.00" fill="#444444">mp_b_va</text>
<polygon fill="#ffffff" stroke="transparent" points="434.5,-510.8817 434.5,-528.8817 515.5,-528.8817 515.5,-510.8817 434.5,-510.8817"/>
<text text-anchor="start" x="436.5" y="-516.0817" font-family="Times,serif" font-size="12.00" fill="#444444">mp_c_va</text>
<polygon fill="#ffffff" stroke="transparent" points="434.5,-492.8817 434.5,-510.8817 515.5,-510.8817 515.5,-492.8817 434.5,-492.8817"/>
<text text-anchor="start" x="436.5" y="-498.0817" font-family="Times,serif" font-size="12.00" fill="#444444">hole_depth_va</text>
<polygon fill="#ffffff" stroke="transparent" points="434.5,-474.8817 434.5,-492.8817 515.5,-492.8817 515.5,-474.8817 434.5,-474.8817"/>
<text text-anchor="start" x="436.5" y="-480.0817" font-family="Times,serif" font-size="12.00" fill="#444444">well_depth_va</text>
<polygon fill="#ffffff" stroke="transparent" points="434.5,-456.8817 434.5,-474.8817 515.5,-474.8817 515.5,-456.8817 434.5,-456.8817"/>
<text text-anchor="start" x="436.5" y="-462.0817" font-family="Times,serif" font-size="12.00" fill="#444444">construction_dt</text>
<polygon fill="#ffffff" stroke="transparent" points="434.5,-438.8817 434.5,-456.8817 515.5,-456.8817 515.5,-438.8817 434.5,-438.8817"/>
<text text-anchor="start" x="436.5" y="-444.0817" font-family="Times,serif" font-size="12.00" fill="#444444">install_dt</text>
<polygon fill="#ffffff" stroke="transparent" points="434.5,-420.8817 434.5,-438.8817 515.5,-438.8817 515.5,-420.8817 434.5,-420.8817"/>
<text text-anchor="start" x="436.5" y="-426.0817" font-family="Times,serif" font-size="12.00" fill="#444444">system_tp</text>
<polygon fill="#ffffff" stroke="transparent" points="434.5,-402.8817 434.5,-420.8817 515.5,-420.8817 515.5,-402.8817 434.5,-402.8817"/>
<text text-anchor="start" x="436.5" y="-408.0817" font-family="Times,serif" font-size="12.00" fill="#444444">geometry</text>
<polygon fill="#ffffff" stroke="transparent" points="434.5,-384.8817 434.5,-402.8817 515.5,-402.8817 515.5,-384.8817 434.5,-384.8817"/>
<text text-anchor="start" x="436.5" y="-390.0817" font-family="Times,serif" font-size="12.00" fill="#444444">nzones</text>
<polygon fill="#ffffff" stroke="transparent" points="434.5,-366.8817 434.5,-384.8817 515.5,-384.8817 515.5,-366.8817 434.5,-366.8817"/>
<text text-anchor="start" x="436.5" y="-372.0817" font-family="Times,serif" font-size="12.00" fill="#444444">nports</text>
<polygon fill="#ffffff" stroke="transparent" points="434.5,-348.8817 434.5,-366.8817 515.5,-366.8817 515.5,-348.8817 434.5,-348.8817"/>
<text text-anchor="start" x="436.5" y="-354.0817" font-family="Times,serif" font-size="12.00" fill="#444444">nvisits</text>
<polygon fill="none" stroke="#555555" points="433,-347.8817 433,-691.8817 516,-691.8817 516,-347.8817 433,-347.8817"/>
</g>
<!-- heads&#45;&gt;wells -->
<g id="heads_3" class="edge">
<title>heads:site_nm&#45;&gt;wells:site_nm</title>
<path fill="none" stroke="#555555" d="M107,-481.8817C212.4847,-481.8817 86.9113,-80.6814 166,-10.8817 203.443,22.1636 390.3197,-31.2242 397,-38.8817 440.4116,-88.6437 372.514,-607.0708 425.0062,-659.5953"/>
<polygon fill="#555555" stroke="#555555" points="423.9456,-662.9566 434.5,-663.8817 426.8262,-656.5767 423.9456,-662.9566"/>
</g>
<!-- ports&#45;&gt;wells -->
<g id="ports_1" class="edge">
<title>ports:site_nm&#45;&gt;wells:site_nm</title>
<path fill="none" stroke="#555555" d="M255,-771.8817C325.5604,-771.8817 339.6203,-741.9468 397,-700.8817 412.7675,-689.5974 412.0804,-671.6285 424.6755,-665.785"/>
<polygon fill="#555555" stroke="#555555" points="425.3482,-669.2198 434.5,-663.8817 424.0168,-662.3476 425.3482,-669.2198"/>
</g>
<!-- zones -->
<g id="zones" class="node">
<title>zones</title>
<polygon fill="#efebdd" stroke="transparent" points="300.5,-672.8817 300.5,-690.8817 388.5,-690.8817 388.5,-672.8817 300.5,-672.8817"/>
<text text-anchor="start" x="330.8398" y="-678.0817" font-family="Times,serif" font-size="12.00" fill="#000000">zones</text>
<polygon fill="#ffffff" stroke="transparent" points="300.5,-654.8817 300.5,-672.8817 388.5,-672.8817 388.5,-654.8817 300.5,-654.8817"/>
<text text-anchor="start" x="302.5" y="-660.0817" font-family="Times,serif" font-size="12.00" fill="#444444">site_nm</text>
<polygon fill="#ffffff" stroke="transparent" points="300.5,-636.8817 300.5,-654.8817 388.5,-654.8817 388.5,-636.8817 300.5,-636.8817"/>
<text text-anchor="start" x="302.5" y="-642.0817" font-family="Times,serif" font-size="12.00" fill="#444444">zone_nu</text>
<polygon fill="#ffffff" stroke="transparent" points="300.5,-618.8817 300.5,-636.8817 388.5,-636.8817 388.5,-618.8817 300.5,-618.8817"/>
<text text-anchor="start" x="302.5" y="-624.0817" font-family="Times,serif" font-size="12.00" fill="#444444">zone_top_va</text>
<polygon fill="#ffffff" stroke="transparent" points="300.5,-600.8817 300.5,-618.8817 388.5,-618.8817 388.5,-600.8817 300.5,-600.8817"/>
<text text-anchor="start" x="302.5" y="-606.0817" font-family="Times,serif" font-size="12.00" fill="#444444">zone_bot_va</text>
<polygon fill="#ffffff" stroke="transparent" points="300.5,-582.8817 300.5,-600.8817 388.5,-600.8817 388.5,-582.8817 300.5,-582.8817"/>
<text text-anchor="start" x="302.5" y="-588.0817" font-family="Times,serif" font-size="12.00" fill="#444444">zone_top_alt_va</text>
<polygon fill="#ffffff" stroke="transparent" points="300.5,-564.8817 300.5,-582.8817 388.5,-582.8817 388.5,-564.8817 300.5,-564.8817"/>
<text text-anchor="start" x="302.5" y="-570.0817" font-family="Times,serif" font-size="12.00" fill="#444444">zone_bot_alt_va</text>
<polygon fill="#ffffff" stroke="transparent" points="300.5,-546.8817 300.5,-564.8817 388.5,-564.8817 388.5,-546.8817 300.5,-546.8817"/>
<text text-anchor="start" x="302.5" y="-552.0817" font-family="Times,serif" font-size="12.00" fill="#444444">zone_len_va</text>
<polygon fill="#ffffff" stroke="transparent" points="300.5,-528.8817 300.5,-546.8817 388.5,-546.8817 388.5,-528.8817 300.5,-528.8817"/>
<text text-anchor="start" x="302.5" y="-534.0817" font-family="Times,serif" font-size="12.00" fill="#444444">nports</text>
<polygon fill="#ffffff" stroke="transparent" points="300.5,-510.8817 300.5,-528.8817 388.5,-528.8817 388.5,-510.8817 300.5,-510.8817"/>
<text text-anchor="start" x="302.1742" y="-517.0817" font-family="Times,serif" text-decoration="underline" font-size="12.00" fill="#444444">site_nm, zone_nu</text>
<polygon fill="none" stroke="#555555" points="299.5,-509.8817 299.5,-691.8817 389.5,-691.8817 389.5,-509.8817 299.5,-509.8817"/>
</g>
<!-- ports&#45;&gt;zones -->
<g id="ports_2" class="edge">
<title>ports:site_nm, zone_nu&#45;&gt;zones:site_nm, zone_nu</title>
<path fill="none" stroke="#555555" d="M255,-519.8817C271.2726,-519.8817 277.7244,-519.8817 290.1607,-519.8817"/>
<polygon fill="#555555" stroke="#555555" points="290.5,-523.3818 300.5,-519.8817 290.5,-516.3818 290.5,-523.3818"/>
</g>
<!-- samples -->
<g id="samples" class="node">
<title>samples</title>
<polygon fill="#efebdd" stroke="transparent" points="1,-798.8817 1,-816.8817 129,-816.8817 129,-798.8817 1,-798.8817"/>
<text text-anchor="start" x="45.6716" y="-804.0817" font-family="Times,serif" font-size="12.00" fill="#000000">samples</text>
<polygon fill="#ffffff" stroke="transparent" points="1,-780.8817 1,-798.8817 129,-798.8817 129,-780.8817 1,-780.8817"/>
<text text-anchor="start" x="3" y="-786.0817" font-family="Times,serif" font-size="12.00" fill="#444444">site_nm</text>
<polygon fill="#ffffff" stroke="transparent" points="1,-762.8817 1,-780.8817 129,-780.8817 129,-762.8817 1,-762.8817"/>
<text text-anchor="start" x="3" y="-768.0817" font-family="Times,serif" font-size="12.00" fill="#444444">port_nu</text>
<polygon fill="#ffffff" stroke="transparent" points="1,-744.8817 1,-762.8817 129,-762.8817 129,-744.8817 1,-744.8817"/>
<text text-anchor="start" x="3" y="-750.0817" font-family="Times,serif" font-size="12.00" fill="#444444">site_no</text>
<polygon fill="#ffffff" stroke="transparent" points="1,-726.8817 1,-744.8817 129,-744.8817 129,-726.8817 1,-726.8817"/>
<text text-anchor="start" x="3" y="-732.0817" font-family="Times,serif" font-size="12.00" fill="#444444">stime_dt</text>
<polygon fill="#ffffff" stroke="transparent" points="1,-708.8817 1,-726.8817 129,-726.8817 129,-708.8817 1,-708.8817"/>
<text text-anchor="start" x="3" y="-714.0817" font-family="Times,serif" font-size="12.00" fill="#444444">sample_dt</text>
<polygon fill="#ffffff" stroke="transparent" points="1,-690.8817 1,-708.8817 129,-708.8817 129,-690.8817 1,-690.8817"/>
<text text-anchor="start" x="3" y="-696.0817" font-family="Times,serif" font-size="12.00" fill="#444444">parm_short_nm</text>
<polygon fill="#ffffff" stroke="transparent" points="1,-672.8817 1,-690.8817 129,-690.8817 129,-672.8817 1,-672.8817"/>
<text text-anchor="start" x="3" y="-678.0817" font-family="Times,serif" font-size="12.00" fill="#444444">unit_cd</text>
<polygon fill="#ffffff" stroke="transparent" points="1,-654.8817 1,-672.8817 129,-672.8817 129,-654.8817 1,-654.8817"/>
<text text-anchor="start" x="3" y="-660.0817" font-family="Times,serif" font-size="12.00" fill="#444444">pcode</text>
<polygon fill="#ffffff" stroke="transparent" points="1,-636.8817 1,-654.8817 129,-654.8817 129,-636.8817 1,-636.8817"/>
<text text-anchor="start" x="3" y="-642.0817" font-family="Times,serif" font-size="12.00" fill="#444444">remark_cd</text>
<polygon fill="#ffffff" stroke="transparent" points="1,-618.8817 1,-636.8817 129,-636.8817 129,-618.8817 1,-618.8817"/>
<text text-anchor="start" x="3" y="-624.0817" font-family="Times,serif" font-size="12.00" fill="#444444">result_va</text>
<polygon fill="#ffffff" stroke="transparent" points="1,-600.8817 1,-618.8817 129,-618.8817 129,-600.8817 1,-600.8817"/>
<text text-anchor="start" x="3" y="-606.0817" font-family="Times,serif" font-size="12.00" fill="#444444">lab_li_va</text>
<polygon fill="#ffffff" stroke="transparent" points="1,-582.8817 1,-600.8817 129,-600.8817 129,-582.8817 1,-582.8817"/>
<text text-anchor="start" x="3" y="-588.0817" font-family="Times,serif" font-size="12.00" fill="#444444">lab_ui_va</text>
<polygon fill="#ffffff" stroke="transparent" points="1,-564.8817 1,-582.8817 129,-582.8817 129,-564.8817 1,-564.8817"/>
<text text-anchor="start" x="3" y="-570.0817" font-family="Times,serif" font-size="12.00" fill="#444444">dqi_cd</text>
<polygon fill="#ffffff" stroke="transparent" points="1,-546.8817 1,-564.8817 129,-564.8817 129,-546.8817 1,-546.8817"/>
<text text-anchor="start" x="3" y="-552.0817" font-family="Times,serif" font-size="12.00" fill="#444444">sample_type_cd</text>
<polygon fill="#ffffff" stroke="transparent" points="1,-528.8817 1,-546.8817 129,-546.8817 129,-528.8817 1,-528.8817"/>
<text text-anchor="start" x="2.6792" y="-535.0817" font-family="Times,serif" text-decoration="underline" font-size="12.00" fill="#444444">site_no, sample_dt, pcode</text>
<polygon fill="none" stroke="#555555" points="0,-527.8817 0,-817.8817 130,-817.8817 130,-527.8817 0,-527.8817"/>
</g>
<!-- samples&#45;&gt;ports -->
<g id="samples_1" class="edge">
<title>samples:site_no&#45;&gt;ports:site_no</title>
<path fill="none" stroke="#555555" d="M129,-753.8817C143.5999,-753.8817 147.1747,-742.8954 156.9511,-738.0889"/>
<polygon fill="#555555" stroke="#555555" points="157.9837,-741.4456 167,-735.8817 156.4819,-734.6086 157.9837,-741.4456"/>
</g>
<!-- samples&#45;&gt;visits -->
<g id="samples_2" class="edge">
<title>samples:stime_dt&#45;&gt;visits:stime_dt</title>
<path fill="none" stroke="#555555" d="M129,-735.8817C190.2428,-735.8817 113.9724,-478.8705 159.1003,-448.752"/>
<polygon fill="#555555" stroke="#555555" points="160.3702,-452.028 169,-445.8817 158.4209,-445.3049 160.3702,-452.028"/>
</g>
<!-- samples&#45;&gt;wells -->
<g id="samples_3" class="edge">
<title>samples:site_nm&#45;&gt;wells:site_nm</title>
<path fill="none" stroke="#555555" d="M129,-789.8817C147.4859,-789.8817 148.0317,-804.5379 166,-808.8817 204.88,-818.281 216.8307,-816.9913 256,-808.8817 322.8618,-795.0387 348.4404,-795.8827 397,-747.8817 423.2371,-721.9465 399.3686,-674.4214 424.4949,-665.3865"/>
<polygon fill="#555555" stroke="#555555" points="425.1318,-668.8302 434.5,-663.8817 424.0906,-661.908 425.1318,-668.8302"/>
</g>
<!-- visits&#45;&gt;sensors -->
<g id="visits_1" class="edge">
<title>visits:sensor_id&#45;&gt;sensors:sensor_id</title>
<path fill="none" stroke="#555555" d="M254,-355.8817C271.4841,-355.8817 272.4269,-337.3973 283.708,-330.4657"/>
<polygon fill="#555555" stroke="#555555" points="284.724,-333.8175 293.5,-327.8817 282.9379,-327.0492 284.724,-333.8175"/>
</g>
<!-- visits&#45;&gt;wells -->
<g id="visits_2" class="edge">
<title>visits:site_nm&#45;&gt;wells:site_nm</title>
<path fill="none" stroke="#555555" d="M254,-463.8817C319.6485,-463.8817 351.2118,-453.8374 397,-500.8817 446.2152,-551.4471 368.8078,-652.8829 424.3967,-663.0546"/>
<polygon fill="#555555" stroke="#555555" points="424.2477,-666.554 434.5,-663.8817 424.819,-659.5774 424.2477,-666.554"/>
</g>
<!-- zones&#45;&gt;wells -->
<g id="zones_1" class="edge">
<title>zones:site_nm&#45;&gt;wells:site_nm</title>
<path fill="none" stroke="#555555" d="M388.5,-663.8817C405.1111,-663.8817 411.5998,-663.8817 424.415,-663.8817"/>
<polygon fill="#555555" stroke="#555555" points="424.5,-667.3818 434.5,-663.8817 424.5,-660.3818 424.5,-667.3818"/>
</g>
</g>
</svg>
