<?xml version="1.0" encoding="utf-8"?>
<!-- Generator: Adobe Illustrator 27.8.1, SVG Export Plug-In . SVG Version: 6.00 Build 0)  -->
<svg version="1.1" xmlns="http://www.w3.org/2000/svg" xmlns:xlink="http://www.w3.org/1999/xlink" x="0px" y="0px"
	 viewBox="0 0 511 590.1" style="enable-background:new 0 0 511 590.1;" xml:space="preserve">
<style type="text/css">
	.st0{fill:#BAE4E5;}
	.st1{fill:url(#SVGID_1_);}
	.st2{fill:#CE8A13;}
	.st3{fill:#F7FDFA;}
	.st4{fill:#333333;}
	.st5{fill:#9061C2;}
	.st6{opacity:0.3;fill:none;stroke:#FFFFFF;stroke-width:17.0079;stroke-miterlimit:11.3386;}
	.st7{fill:none;stroke:#9061C2;stroke-width:17.0079;stroke-miterlimit:11.3386;}
	.st8{fill:none;stroke:#FFFFFF;stroke-width:4;stroke-miterlimit:10;}
</style>
<g id="Backgound">
	<path class="st0" d="M255.5,580.3L8.5,437.7V152.5l247-142.7l247,142.6v285.2L255.5,580.3z"/>
	<linearGradient id="SVGID_1_" gradientUnits="userSpaceOnUse" x1="255.5039" y1="260.6344" x2="255.5039" y2="9.8203">
		<stop  offset="0" style="stop-color:#FAFAEC"/>
		<stop  offset="1" style="stop-color:#FCF7C3"/>
	</linearGradient>
	<polygon class="st1" points="8.5,152.5 8.5,260.6 502.5,260.6 502.5,152.4 255.5,9.8 	"/>
</g>
<g id="Lithology">
	<path class="st2" d="M351.8,242.9c-21.6,0-34.4,11.1-34.4,26.2c0,15.7,0,198.8,0,218.8s-11.1,51.2-60.4,51.2s-63.4-31.2-63.4-51.2
		s0-203.1,0-218.8c0-15.1-12.8-26.2-34.4-26.2H8.5v194.8l247,142.6l247-142.7V242.9H351.8z"/>
	<path class="st0" d="M426.6,341.2c-19.6,0-36.9-3-57-6.4c-13.6-2.3-27.6-4.8-43.8-6.5c-3.1-0.3-6.1-0.6-9.1-0.8c0,4.2,0,8.5,0,13
		c2.5,0.2,5.1,0.4,7.7,0.7c1.3,0.1,2.5,0.3,3.7,0.4l-11.4,8c0,5.2,0,10.5,0,15.9l30.4-21.3c6.3,1,12.4,2,18.3,3l-48.8,34.1
		c0,5.3,0,10.6,0,15.9l67-46.9c6.3,1,12.6,1.9,19,2.6l-86,60.3c0,5.4,0,10.7,0,15.9l106.8-74.8c1,0,2,0,3.1,0c6.1,0,13.2-0.4,21-1
		l-113.7,79.6c-5.5-0.2-11.2-0.3-17.2-0.4c0,4.5,0,8.8,0,13c40.4,0.2,68.8,5.3,93.9,9.9c19.6,3.5,38.2,6.9,59.8,7.6l28.4-16.4v-2.2
		l-8.7,6.1c-4.8-0.1-10-0.2-15.8-0.3c-2.1,0-4.1-0.1-6.1-0.2l30.6-21.4v-15.9L448,448.1c-6.3-0.8-12.6-1.7-18.8-2.7l69.6-48.7v-15.9
		l-87.7,61.4c-5.8-1.1-11.8-2.1-18.1-3.2l105.8-74.1V349l-124.6,87.2c-6.2-0.8-12.7-1.5-19.6-2.1l119.1-83.4
		c2.6-0.3,5.3-0.6,7.9-0.8c5.7-0.6,11.5-1.2,17.2-1.8V335c-6,0.6-12.3,1.3-18.6,1.9C460.7,339,440.4,341.2,426.6,341.2z"/>
	<path class="st0" d="M57.2,434.9l0.2-0.1c6.5,0.9,12.4,1.9,18.1,2.9c16,2.7,31.1,5.3,53.7,5.3c18.1,0,37.1-1.3,56.1-3.2l1.2-0.1
		c3-0.3,6.1-0.6,9.1-1c0-6.6,0-13.7,0-21.3l-13.8,9.6c-8.6,0.8-17.1,1.6-25.6,2.1l39.4-27.6c0-5.2,0-10.5,0-15.9l-63.3,44.3
		c-1,0-2.1,0-3.1,0c-6.9,0-13-0.2-18.6-0.7l85-59.5c0-5.3,0-10.6,0-15.9L91.1,427c-4.4-0.7-8.8-1.4-13.4-2.2c-1.6-0.3-3.3-0.6-5-0.8
		l122.8-86c0-5.9,0-11.6,0-17.2c-37.4-0.6-61.8-4.8-87.6-9.3c-26.8-4.6-54.2-9.4-97.5-10.3v13c5,0.1,9.8,0.3,14.4,0.5l-14.4,10.1
		v15.9L45.7,316c7,0.6,13.5,1.3,19.7,2l-54.9,38.4v15.9l73.8-51.7c6.3,1,12.3,2,18.3,3.1l-92.1,64.5v15.9l110.3-77.2
		c6.1,1,12.2,2,18.6,2.8L13.7,417.8c-1,0-2.1-0.1-3.2-0.1V431l9.6,0.2c14.9,0.8,26.7,2.1,36.9,3.6L57.2,434.9z M34.5,419.1
		l124.4-87.1c6.5,0.6,13.3,1.1,20.6,1.4L54.1,421.2C48.2,420.4,41.7,419.7,34.5,419.1z"/>
	<g>
		<rect x="328.3" y="452.6" class="st3" width="14.6" height="14.6"/>
		<rect x="354.3" y="466.2" class="st3" width="14.6" height="14.6"/>
		<rect x="326.3" y="490.3" class="st3" width="14.6" height="14.6"/>
		<rect x="382.8" y="480.8" class="st3" width="14.6" height="14.6"/>
		<rect x="410.7" y="463.2" class="st3" width="14.6" height="14.6"/>
		<rect x="232.1" y="543.5" class="st3" width="14.6" height="14.6"/>
		<rect x="275.9" y="543.5" class="st3" width="14.6" height="14.6"/>
		<rect x="172.6" y="461.2" class="st3" width="14.6" height="14.6"/>
		<rect x="158.7" y="492.3" class="st3" width="14.6" height="14.6"/>
		<rect x="97.7" y="457.6" class="st3" width="14.6" height="14.6"/>
		<rect x="55.3" y="445.3" class="st3" width="14.6" height="14.6"/>
		<rect x="178.8" y="518.3" class="st3" width="14.6" height="14.6"/>
		<rect x="317.7" y="521.2" class="st3" width="14.6" height="14.6"/>
		<rect x="120.9" y="483.5" class="st3" width="14.6" height="14.6"/>
		<rect x="132.8" y="449.9" class="st3" width="14.6" height="14.6"/>
	</g>
	<g>
		<circle class="st3" cx="83.1" cy="256.7" r="8.6"/>
		<circle class="st3" cx="119.6" cy="260.6" r="8.6"/>
		<circle class="st3" cx="105" cy="295.1" r="8.6"/>
		<circle class="st3" cx="71.1" cy="282.7" r="8.6"/>
		<circle class="st3" cx="150.6" cy="282.7" r="8.6"/>
		<circle class="st3" cx="19.1" cy="256.7" r="8.6"/>
		<circle class="st3" cx="32.5" cy="289.2" r="8.6"/>
		<circle class="st3" cx="171.3" cy="260.6" r="8.6"/>
		<circle class="st3" cx="140.1" cy="305.1" r="8.6"/>
		<circle class="st3" cx="49.6" cy="260.6" r="8.6"/>
		<circle class="st3" cx="177.6" cy="304.7" r="8.6"/>
		<circle class="st3" cx="395.7" cy="256.7" r="8.6"/>
		<circle class="st3" cx="432.5" cy="258.5" r="8.6"/>
		<circle class="st3" cx="412.8" cy="326.1" r="8.6"/>
		<circle class="st3" cx="438.7" cy="297.8" r="8.6"/>
		<circle class="st3" cx="395.7" cy="301.2" r="8.6"/>
		<circle class="st3" cx="462.2" cy="280.7" r="8.6"/>
		<circle class="st3" cx="367.9" cy="316" r="8.6"/>
		<circle class="st3" cx="342.2" cy="258.5" r="8.6"/>
		<circle class="st3" cx="333.6" cy="304.5" r="8.6"/>
		<circle class="st3" cx="475.4" cy="254" r="8.6"/>
		<circle class="st3" cx="458.2" cy="321.8" r="8.6"/>
		<circle class="st3" cx="352.2" cy="285" r="8.6"/>
		<circle class="st3" cx="416.4" cy="286.3" r="8.6"/>
		<circle class="st3" cx="487.3" cy="305.1" r="8.6"/>
		<circle class="st3" cx="377.5" cy="276.4" r="8.6"/>
	</g>
</g>
<g id="MLMS">
	<rect x="232.1" y="255.1" class="st0" width="46.5" height="6.9"/>
	<g>
		<polygon class="st4" points="287.7,519.9 223.3,519.9 223.3,237.1 237.3,237.1 237.3,505.9 273.7,505.9 273.7,237.1 287.7,237.1 
					"/>
	</g>
	<g>
		<path class="st5" d="M213,463.2h-9.3c-5.6,0-10.2-4.6-10.2-10.2v-25.6c0-5.6,4.6-10.2,10.2-10.2h9.3c5.6,0,10.2,4.6,10.2,10.2V453
			C223.2,458.6,218.6,463.2,213,463.2z"/>
		<path class="st5" d="M307.2,463.2h-9.3c-5.6,0-10.2-4.6-10.2-10.2v-25.6c0-5.6,4.6-10.2,10.2-10.2h9.3c5.6,0,10.2,4.6,10.2,10.2
			V453C317.4,458.6,312.8,463.2,307.2,463.2z"/>
	</g>
	<g>
		<path class="st5" d="M213,350.4h-9.3c-5.6,0-10.2-4.6-10.2-10.2v-25.6c0-5.6,4.6-10.2,10.2-10.2h9.3c5.6,0,10.2,4.6,10.2,10.2
			v25.6C223.2,345.8,218.6,350.4,213,350.4z"/>
		<path class="st5" d="M307.2,350.4h-9.3c-5.6,0-10.2-4.6-10.2-10.2v-25.6c0-5.6,4.6-10.2,10.2-10.2h9.3c5.6,0,10.2,4.6,10.2,10.2
			v25.6C317.4,345.8,312.8,350.4,307.2,350.4z"/>
	</g>
	<rect x="214.3" y="378.5" class="st0" width="35.6" height="6.9"/>
</g>
<g id="Border">
	<path class="st6" d="M255.5,578l-245-141.4V153.7l245-141.5l245,141.4v282.9L255.5,578z"/>
	<path class="st7" d="M255.5,580.3L8.5,437.7V152.5l247-142.7l247,142.6v285.2L255.5,580.3z"/>
</g>
<g id="Text_00000041283610292869131430000002032744997821668490_">
	<g>
		<path class="st8" d="M146.4,181.7v24.8c0,3.9-0.9,6.9-2.7,8.8s-4.1,2.9-7,2.9c-2.8,0-5.1-1-6.9-2.9c-1.8-2-2.6-4.9-2.6-8.8v-29.7
			c0-4.7-0.2-8.3-0.5-10.9c-0.3-2.6-1.2-4.7-2.6-6.4c-1.4-1.7-3.6-2.5-6.7-2.5c-6.1,0-10.1,2.1-12.1,6.3c-1.9,4.2-2.9,10.2-2.9,18
			v25.2c0,3.9-0.9,6.8-2.6,8.8c-1.8,2-4.1,3-6.9,3c-2.8,0-5.1-1-6.9-3c-1.8-2-2.7-4.9-2.7-8.8v-53.4c0-3.5,0.8-6.2,2.4-8
			c1.6-1.8,3.7-2.7,6.4-2.7c2.6,0,4.7,0.9,6.4,2.6c1.7,1.7,2.6,4.1,2.6,7.1v1.8c3.2-3.9,6.7-6.7,10.4-8.5c3.7-1.8,7.8-2.7,12.3-2.7
			c4.7,0,8.7,0.9,12.1,2.8c3.4,1.9,6.2,4.7,8.3,8.5c3.1-3.8,6.5-6.7,10.1-8.5c3.6-1.8,7.6-2.8,12-2.8c5.1,0,9.5,1,13.2,3
			c3.7,2,6.4,4.9,8.3,8.6c1.6,3.4,2.4,8.7,2.4,15.9v36.4c0,3.9-0.9,6.9-2.7,8.8s-4.1,2.9-7,2.9c-2.8,0-5.1-1-6.9-3
			c-1.8-2-2.7-4.9-2.7-8.8v-31.4c0-4-0.2-7.2-0.5-9.6c-0.3-2.4-1.3-4.4-2.8-6.1s-3.8-2.5-6.8-2.5c-2.5,0-4.8,0.7-7,2.2
			c-2.2,1.5-3.9,3.4-5.2,5.9C147.1,168.1,146.4,173.7,146.4,181.7z"/>
		<path class="st8" d="M208.2,206.9v-80.9c0-3.7,0.8-6.6,2.5-8.5c1.7-1.9,3.9-2.9,6.7-2.9c2.8,0,5.1,0.9,6.8,2.8
			c1.7,1.9,2.6,4.7,2.6,8.5v80.9c0,3.8-0.9,6.6-2.6,8.5c-1.8,1.9-4,2.8-6.8,2.8c-2.7,0-5-1-6.7-2.9S208.2,210.5,208.2,206.9z"/>
		<path class="st8" d="M308.2,181.7v24.8c0,3.9-0.9,6.9-2.7,8.8s-4.1,2.9-7,2.9c-2.8,0-5.1-1-6.9-2.9c-1.8-2-2.6-4.9-2.6-8.8v-29.7
			c0-4.7-0.2-8.3-0.5-10.9c-0.3-2.6-1.2-4.7-2.6-6.4c-1.4-1.7-3.6-2.5-6.7-2.5c-6.1,0-10.1,2.1-12.1,6.3c-1.9,4.2-2.9,10.2-2.9,18
			v25.2c0,3.9-0.9,6.8-2.6,8.8c-1.8,2-4.1,3-6.9,3c-2.8,0-5.1-1-6.9-3c-1.8-2-2.7-4.9-2.7-8.8v-53.4c0-3.5,0.8-6.2,2.4-8
			c1.6-1.8,3.7-2.7,6.4-2.7c2.6,0,4.7,0.9,6.4,2.6s2.6,4.1,2.6,7.1v1.8c3.2-3.9,6.7-6.7,10.4-8.5c3.7-1.8,7.8-2.7,12.3-2.7
			c4.7,0,8.7,0.9,12.1,2.8c3.4,1.9,6.2,4.7,8.3,8.5c3.1-3.8,6.5-6.7,10.1-8.5c3.6-1.8,7.6-2.8,12-2.8c5.1,0,9.5,1,13.2,3
			c3.7,2,6.4,4.9,8.3,8.6c1.6,3.4,2.4,8.7,2.4,15.9v36.4c0,3.9-0.9,6.9-2.7,8.8s-4.1,2.9-7,2.9c-2.8,0-5.1-1-6.9-3
			c-1.8-2-2.7-4.9-2.7-8.8v-31.4c0-4-0.2-7.2-0.5-9.6c-0.3-2.4-1.3-4.4-2.8-6.1s-3.8-2.5-6.8-2.5c-2.5,0-4.8,0.7-7,2.2
			c-2.2,1.5-3.9,3.4-5.2,5.9C308.9,168.1,308.2,173.7,308.2,181.7z"/>
		<path class="st8" d="M430.1,193.8c0,5.2-1.3,9.6-3.8,13.2c-2.5,3.7-6.2,6.4-11.1,8.3c-4.9,1.9-10.9,2.8-17.9,2.8
			c-6.7,0-12.4-1-17.2-3.1s-8.3-4.6-10.6-7.7c-2.3-3.1-3.4-6.2-3.4-9.3c0-2.1,0.7-3.8,2.2-5.3c1.5-1.5,3.3-2.2,5.5-2.2
			c2,0,3.5,0.5,4.5,1.4c1,1,2.1,2.3,3,4c1.9,3.3,4.2,5.8,6.9,7.5s6.3,2.5,10.9,2.5c3.7,0,6.8-0.8,9.2-2.5c2.4-1.7,3.6-3.6,3.6-5.7
			c0-3.3-1.2-5.7-3.7-7.2c-2.5-1.5-6.6-2.9-12.3-4.3c-6.4-1.6-11.7-3.3-15.7-5c-4-1.8-7.3-4.1-9.7-6.9c-2.4-2.9-3.6-6.4-3.6-10.6
			c0-3.7,1.1-7.3,3.3-10.6c2.2-3.3,5.5-6,9.9-8c4.4-2,9.6-3,15.8-3c4.8,0,9.2,0.5,13,1.5c3.9,1,7.1,2.3,9.6,4
			c2.6,1.7,4.5,3.6,5.9,5.6c1.3,2.1,2,4.1,2,6c0,2.1-0.7,3.9-2.2,5.3s-3.5,2.1-6.1,2.1c-1.9,0-3.5-0.5-4.9-1.6
			c-1.3-1.1-2.9-2.7-4.6-4.9c-1.4-1.8-3.1-3.3-5-4.4s-4.5-1.6-7.8-1.6c-3.4,0-6.2,0.7-8.4,2.2c-2.2,1.4-3.3,3.2-3.3,5.4
			c0,2,0.8,3.6,2.5,4.8c1.6,1.3,3.9,2.3,6.6,3.1c2.8,0.8,6.6,1.8,11.5,3c5.8,1.4,10.5,3.1,14.2,5.1c3.7,2,6.4,4.3,8.3,6.9
			C429.2,187.4,430.1,190.4,430.1,193.8z"/>
	</g>
	<g>
		<path class="st4" d="M146.4,181.7v24.8c0,3.9-0.9,6.9-2.7,8.8s-4.1,2.9-7,2.9c-2.8,0-5.1-1-6.9-2.9c-1.8-2-2.6-4.9-2.6-8.8v-29.7
			c0-4.7-0.2-8.3-0.5-10.9c-0.3-2.6-1.2-4.7-2.6-6.4c-1.4-1.7-3.6-2.5-6.7-2.5c-6.1,0-10.1,2.1-12.1,6.3c-1.9,4.2-2.9,10.2-2.9,18
			v25.2c0,3.9-0.9,6.8-2.6,8.8c-1.8,2-4.1,3-6.9,3c-2.8,0-5.1-1-6.9-3c-1.8-2-2.7-4.9-2.7-8.8v-53.4c0-3.5,0.8-6.2,2.4-8
			c1.6-1.8,3.7-2.7,6.4-2.7c2.6,0,4.7,0.9,6.4,2.6c1.7,1.7,2.6,4.1,2.6,7.1v1.8c3.2-3.9,6.7-6.7,10.4-8.5c3.7-1.8,7.8-2.7,12.3-2.7
			c4.7,0,8.7,0.9,12.1,2.8c3.4,1.9,6.2,4.7,8.3,8.5c3.1-3.8,6.5-6.7,10.1-8.5c3.6-1.8,7.6-2.8,12-2.8c5.1,0,9.5,1,13.2,3
			c3.7,2,6.4,4.9,8.3,8.6c1.6,3.4,2.4,8.7,2.4,15.9v36.4c0,3.9-0.9,6.9-2.7,8.8s-4.1,2.9-7,2.9c-2.8,0-5.1-1-6.9-3
			c-1.8-2-2.7-4.9-2.7-8.8v-31.4c0-4-0.2-7.2-0.5-9.6c-0.3-2.4-1.3-4.4-2.8-6.1s-3.8-2.5-6.8-2.5c-2.5,0-4.8,0.7-7,2.2
			c-2.2,1.5-3.9,3.4-5.2,5.9C147.1,168.1,146.4,173.7,146.4,181.7z"/>
		<path class="st4" d="M208.2,206.9v-80.9c0-3.7,0.8-6.6,2.5-8.5c1.7-1.9,3.9-2.9,6.7-2.9c2.8,0,5.1,0.9,6.8,2.8
			c1.7,1.9,2.6,4.7,2.6,8.5v80.9c0,3.8-0.9,6.6-2.6,8.5c-1.8,1.9-4,2.8-6.8,2.8c-2.7,0-5-1-6.7-2.9S208.2,210.5,208.2,206.9z"/>
		<path class="st4" d="M308.2,181.7v24.8c0,3.9-0.9,6.9-2.7,8.8s-4.1,2.9-7,2.9c-2.8,0-5.1-1-6.9-2.9c-1.8-2-2.6-4.9-2.6-8.8v-29.7
			c0-4.7-0.2-8.3-0.5-10.9c-0.3-2.6-1.2-4.7-2.6-6.4c-1.4-1.7-3.6-2.5-6.7-2.5c-6.1,0-10.1,2.1-12.1,6.3c-1.9,4.2-2.9,10.2-2.9,18
			v25.2c0,3.9-0.9,6.8-2.6,8.8c-1.8,2-4.1,3-6.9,3c-2.8,0-5.1-1-6.9-3c-1.8-2-2.7-4.9-2.7-8.8v-53.4c0-3.5,0.8-6.2,2.4-8
			c1.6-1.8,3.7-2.7,6.4-2.7c2.6,0,4.7,0.9,6.4,2.6s2.6,4.1,2.6,7.1v1.8c3.2-3.9,6.7-6.7,10.4-8.5c3.7-1.8,7.8-2.7,12.3-2.7
			c4.7,0,8.7,0.9,12.1,2.8c3.4,1.9,6.2,4.7,8.3,8.5c3.1-3.8,6.5-6.7,10.1-8.5c3.6-1.8,7.6-2.8,12-2.8c5.1,0,9.5,1,13.2,3
			c3.7,2,6.4,4.9,8.3,8.6c1.6,3.4,2.4,8.7,2.4,15.9v36.4c0,3.9-0.9,6.9-2.7,8.8s-4.1,2.9-7,2.9c-2.8,0-5.1-1-6.9-3
			c-1.8-2-2.7-4.9-2.7-8.8v-31.4c0-4-0.2-7.2-0.5-9.6c-0.3-2.4-1.3-4.4-2.8-6.1s-3.8-2.5-6.8-2.5c-2.5,0-4.8,0.7-7,2.2
			c-2.2,1.5-3.9,3.4-5.2,5.9C308.9,168.1,308.2,173.7,308.2,181.7z"/>
		<path class="st4" d="M430.1,193.8c0,5.2-1.3,9.6-3.8,13.2c-2.5,3.7-6.2,6.4-11.1,8.3c-4.9,1.9-10.9,2.8-17.9,2.8
			c-6.7,0-12.4-1-17.2-3.1s-8.3-4.6-10.6-7.7c-2.3-3.1-3.4-6.2-3.4-9.3c0-2.1,0.7-3.8,2.2-5.3c1.5-1.5,3.3-2.2,5.5-2.2
			c2,0,3.5,0.5,4.5,1.4c1,1,2.1,2.3,3,4c1.9,3.3,4.2,5.8,6.9,7.5s6.3,2.5,10.9,2.5c3.7,0,6.8-0.8,9.2-2.5c2.4-1.7,3.6-3.6,3.6-5.7
			c0-3.3-1.2-5.7-3.7-7.2c-2.5-1.5-6.6-2.9-12.3-4.3c-6.4-1.6-11.7-3.3-15.7-5c-4-1.8-7.3-4.1-9.7-6.9c-2.4-2.9-3.6-6.4-3.6-10.6
			c0-3.7,1.1-7.3,3.3-10.6c2.2-3.3,5.5-6,9.9-8c4.4-2,9.6-3,15.8-3c4.8,0,9.2,0.5,13,1.5c3.9,1,7.1,2.3,9.6,4
			c2.6,1.7,4.5,3.6,5.9,5.6c1.3,2.1,2,4.1,2,6c0,2.1-0.7,3.9-2.2,5.3s-3.5,2.1-6.1,2.1c-1.9,0-3.5-0.5-4.9-1.6
			c-1.3-1.1-2.9-2.7-4.6-4.9c-1.4-1.8-3.1-3.3-5-4.4s-4.5-1.6-7.8-1.6c-3.4,0-6.2,0.7-8.4,2.2c-2.2,1.4-3.3,3.2-3.3,5.4
			c0,2,0.8,3.6,2.5,4.8c1.6,1.3,3.9,2.3,6.6,3.1c2.8,0.8,6.6,1.8,11.5,3c5.8,1.4,10.5,3.1,14.2,5.1c3.7,2,6.4,4.3,8.3,6.9
			C429.2,187.4,430.1,190.4,430.1,193.8z"/>
	</g>
</g>
</svg>
