<?xml version="1.0" encoding="UTF-8"?><svg xmlns="http://www.w3.org/2000/svg" xmlns:xlink="http://www.w3.org/1999/xlink" viewBox="0 0 516.25 612.25"><defs><style>.cls-1,.cls-2,.cls-3,.cls-4,.cls-5,.cls-6,.cls-7,.cls-8,.cls-9,.cls-10,.cls-11,.cls-12,.cls-13,.cls-14{fill-rule:evenodd;}.cls-1,.cls-15,.cls-16,.cls-17{opacity:.4;}.cls-1,.cls-18,.cls-16{fill:#70cddd;}.cls-19,.cls-20,.cls-21,.cls-22,.cls-23,.cls-24,.cls-7,.cls-25,.cls-26,.cls-27,.cls-28,.cls-29{fill:#231f20;}.cls-19,.cls-3,.cls-30,.cls-31,.cls-6,.cls-32,.cls-9,.cls-33,.cls-10,.cls-11,.cls-12,.cls-34,.cls-35,.cls-36,.cls-37,.cls-38,.cls-39,.cls-40,.cls-41,.cls-42,.cls-43{stroke:#231f20;}.cls-20,.cls-21,.cls-23,.cls-24,.cls-27,.cls-29,.cls-44{font-size:8px;}.cls-20,.cls-23,.cls-24,.cls-29{font-style:italic;}.cls-20,.cls-24{font-family:Arial-BoldItalicMT, Arial;}.cls-20,.cls-24,.cls-28{font-weight:700;}.cls-21,.cls-22,.cls-25{font-family:TimesNewRomanPSMT, 'Times New Roman';}.cls-2{opacity:.03;}.cls-22{letter-spacing:0em;}.cls-22,.cls-45{font-size:6.4px;}.cls-23,.cls-46{letter-spacing:-.02em;}.cls-23,.cls-29{font-family:TimesNewRomanPS-ItalicMT, 'Times New Roman';}.cls-3,.cls-30,.cls-5,.cls-6,.cls-32,.cls-47{fill:#808285;}.cls-4,.cls-48,.cls-17{fill:#71ccdc;}.cls-30{stroke-width:.5px;}.cls-49,.cls-8,.cls-12,.cls-34,.cls-40{fill:#fff;}.cls-50{fill:#c1282d;}.cls-24,.cls-51{letter-spacing:-.04em;}.cls-31,.cls-9,.cls-11,.cls-36,.cls-13,.cls-37,.cls-52,.cls-38,.cls-41,.cls-53{fill:none;}.cls-31,.cls-33,.cls-34,.cls-35,.cls-42,.cls-43{stroke-linejoin:round;}.cls-6,.cls-33,.cls-34,.cls-35,.cls-36,.cls-52,.cls-38,.cls-41,.cls-42{stroke-width:.75px;}.cls-54{letter-spacing:-.11em;}.cls-55{fill:url(#linear-gradient-4);}.cls-33{fill:url(#linear-gradient-3);}.cls-56{letter-spacing:-.06em;}.cls-10,.cls-57{fill:#d1d3d4;}.cls-11,.cls-13,.cls-53{stroke-width:1.5px;}.cls-58,.cls-39{fill:#808285;}.cls-35{fill:url(#linear-gradient-5);}.cls-27{font-family:ArialMT, Arial;}.cls-59,.cls-14{fill:#c6a187;}.cls-13,.cls-53{stroke:#c1282d;}.cls-28{font-family:Arial-BoldMT, Arial;font-size:9px;}.cls-52{stroke:#000;}.cls-38,.cls-53{stroke-dasharray:2 2;}.cls-41{stroke-dasharray:4 4;}.cls-60{fill:url(#linear-gradient);}.cls-42{fill:#1172ba;}.cls-43{fill:url(#linear-gradient-2);}</style><linearGradient id="linear-gradient" x1="82.38" y1="467.04" x2="96.76" y2="467.04" gradientUnits="userSpaceOnUse"><stop offset="0" stop-color="#6d6e70"/><stop offset=".16" stop-color="#bcbec0"/><stop offset=".33" stop-color="#e6e7e8"/><stop offset=".58" stop-color="#bcbec0"/><stop offset=".74" stop-color="#6d6e70"/><stop offset=".88" stop-color="#bcbec0"/></linearGradient><linearGradient id="linear-gradient-2" x1="71.59" y1="385.99" x2="107.55" y2="385.99" gradientUnits="userSpaceOnUse"><stop offset="0" stop-color="#055085"/><stop offset=".05" stop-color="#075892"/><stop offset=".14" stop-color="#0f6eb4"/><stop offset=".15" stop-color="#1172ba"/><stop offset=".17" stop-color="#0e77be"/><stop offset=".22" stop-color="#0689cc"/><stop offset=".28" stop-color="#0193d4"/><stop offset=".35" stop-color="#0097d7"/><stop offset=".42" stop-color="#0290d2"/><stop offset=".51" stop-color="#0a7fc4"/><stop offset=".56" stop-color="#1172ba"/><stop offset=".57" stop-color="#106fb6"/><stop offset=".63" stop-color="#0a5e9b"/><stop offset=".68" stop-color="#06538a"/><stop offset=".72" stop-color="#055085"/><stop offset=".78" stop-color="#06558d"/><stop offset=".87" stop-color="#0b63a3"/><stop offset=".94" stop-color="#1172ba"/></linearGradient><linearGradient id="linear-gradient-3" x1="80.84" y1="450.12" x2="98.3" y2="450.12" gradientUnits="userSpaceOnUse"><stop offset="0" stop-color="#58595b"/><stop offset=".17" stop-color="#808285"/><stop offset=".34" stop-color="#b1b3b5"/><stop offset=".6" stop-color="#808285"/><stop offset=".74" stop-color="#58595b"/><stop offset=".88" stop-color="#808285"/></linearGradient><linearGradient id="linear-gradient-4" y1="585.43" y2="585.43" xlink:href="#linear-gradient-2"/><linearGradient id="linear-gradient-5" y1="538.12" y2="538.12" xlink:href="#linear-gradient-3"/></defs><g id="Borehole"><polygon class="cls-8" points="161.81 89.75 161.81 85.3 151.25 85.3 151.25 89.75 118.56 89.75 118.56 314.22 194.51 314.22 194.51 89.75 161.81 89.75"/><polygon class="cls-1" points="161.81 89.75 161.81 85.3 151.25 85.3 151.25 89.75 118.56 89.75 118.56 314.22 194.51 314.22 194.51 89.75 161.81 89.75"/><polygon class="cls-14" points="167.22 38.27 167.22 304.18 145.85 304.18 145.85 38.27 118.56 38.27 118.56 314.22 194.51 314.22 194.51 38.27 167.22 38.27"/><polyline class="cls-11" points="161.81 23.77 161.81 291.95 151.25 291.95 151.25 23.77"/><line class="cls-36" x1="145.85" y1="38.27" x2="118.56" y2="38.27"/><line class="cls-36" x1="194.51" y1="38.27" x2="167.22" y2="38.27"/><path class="cls-13" d="M156.53,172.98V26.67c0-9.37-6.42-7.83-14.9-7.83"/><line class="cls-53" x1="139.19" y1="18.74" x2="128.77" y2="18.74"/><polygon class="cls-18" points="153.51 82.45 156.53 85.3 159.56 82.45 153.51 82.45"/><line class="cls-36" x1="109.92" y1="89.6" x2="118.56" y2="89.6"/><line class="cls-36" x1="194.51" y1="38.27" x2="230.5" y2="38.27"/><line class="cls-36" x1="109.92" y1="38.27" x2="118.56" y2="38.27"/><line class="cls-36" x1="109.92" y1="177.85" x2="118.56" y2="177.85"/><text class="cls-27" transform="translate(38.67 32.67)"><tspan x="0" y="0">Measurement point</tspan><tspan x="16" y="8">at land surface</tspan></text><text class="cls-27" transform="translate(39.42 94.57)"><tspan class="cls-51" x="0" y="0">W</tspan><tspan x="7.25" y="0">ater level outside</tspan><tspan x="11.71" y="8">multiport casing</tspan></text><text class="cls-27" transform="translate(44.31 76.99)"><tspan class="cls-51" x="0" y="0">W</tspan><tspan x="7.25" y="0">ater level inside</tspan><tspan x="6.82" y="8">multiport casing</tspan></text><text class="cls-27" transform="translate(26.12 179.83)"><tspan x="0" y="0">Pressure transducer at</tspan><tspan x="-16.02" y="8">measurement port coupling</tspan><tspan x="2.67" y="16" xml:space="preserve">(transducer plane)      </tspan></text><rect class="cls-47" x="153.67" y="163.39" width="4.96" height="26.61"/><rect class="cls-30" x="159.91" y="173.68" width="1.34" height="5.54"/><polygon class="cls-30" points="159.91 175 158.63 176.34 158.63 171.63 151.85 171.63 151.85 180.59 158.63 180.59 158.63 178.97 159.91 177.63 159.91 175"/><rect class="cls-36" x="153.67" y="163.39" width="4.96" height="26.61"/><polygon class="cls-18" points="178.87 86.34 181.9 89.2 184.93 86.34 178.87 86.34"/><line class="cls-36" x1="194.51" y1="177.85" x2="249.12" y2="177.85"/><polygon class="cls-34" points="149.67 280.14 152.39 277.52 149.67 274.9 149.67 280.14"/><polygon class="cls-34" points="149.67 233.31 152.39 230.68 149.67 228.06 149.67 233.31"/><polygon class="cls-34" points="149.67 178.47 152.39 175.85 149.67 173.23 149.67 178.47"/><polygon class="cls-34" points="149.67 130.64 152.39 128.02 149.67 125.4 149.67 130.64"/><line class="cls-36" x1="110.06" y1="128.02" x2="148.79" y2="128.02"/><polygon class="cls-26" points="146.8 130.47 146.39 130.03 148.56 128.02 146.39 126 146.8 125.56 149.44 128.02 146.8 130.47"/><text class="cls-27" transform="translate(58.24 121.68)"><tspan x="0" y="0">Measurement</tspan><tspan x="-2.67" y="8">port inlet valve</tspan></text><line class="cls-36" x1="109.92" y1="142.13" x2="150.02" y2="142.13"/><polygon class="cls-26" points="148.03 144.59 147.62 144.15 149.78 142.13 147.62 140.12 148.03 139.68 150.67 142.13 148.03 144.59"/><text class="cls-27" transform="translate(51.13 144.29)"><tspan x="0" y="0">Multiport casing</tspan></text><text class="cls-27" transform="translate(19.38 21.38)"><tspan x="0" y="0">Wireline-communication cable</tspan></text><line class="cls-41" x1="109.92" y1="200.66" x2="143.87" y2="200.66"/><line class="cls-41" x1="109.92" y1="259.42" x2="143.87" y2="259.42"/><text class="cls-24" transform="translate(100.48 203.94)"><tspan x="0" y="0">A</tspan></text><text class="cls-20" transform="translate(99.89 262.24)"><tspan class="cls-56" x="0" y="0">A</tspan><tspan class="cls-51" x="5.34" y="0">’</tspan></text><line class="cls-36" x1="109.92" y1="304.21" x2="118.56" y2="304.21"/><text class="cls-27" transform="translate(39.56 306.77)"><tspan x="0" y="0">Bottom of borehole</tspan></text><text class="cls-27" transform="translate(191.93 25.7)"><tspan class="cls-54" x="0" y="0">T</tspan><tspan x="4" y="0">op of well casing</tspan></text><line class="cls-36" x1="109.92" y1="85.3" x2="118.56" y2="85.3"/><line class="cls-36" x1="173.42" y1="23.77" x2="189.51" y2="23.77"/><line class="cls-36" x1="181.9" y1="27.42" x2="181.89" y2="34.55"/><polygon class="cls-26" points="179.64 33.89 181.87 37.78 184.12 33.9 179.64 33.89"/><polygon class="cls-26" points="184.15 28.08 181.91 24.19 179.66 28.08 184.15 28.08"/><text class="cls-29" transform="translate(186.41 32.02)"><tspan x="0" y="0">s</tspan></text><line class="cls-36" x1="109.92" y1="290.95" x2="118.56" y2="290.95"/><text class="cls-27" transform="translate(20 293.26)"><tspan x="0" y="0">Multiport-casing end cap</tspan></text><rect x="150.49" y="289.82" width="12.06" height="2.93"/><polygon class="cls-34" points="149.67 246.1 152.39 243.48 149.67 240.86 149.67 246.1"/><text class="cls-21" transform="translate(219.16 132.19) scale(.8 1)"><tspan x="0" y="0">Ψ</tspan></text><text class="cls-22" transform="translate(223.89 134.59)"><tspan x="0" y="0">in</tspan></text><text class="cls-23" transform="translate(219.52 64.25)"><tspan x="0" y="0">L</tspan></text><line class="cls-36" x1="213.42" y1="85.3" x2="229.5" y2="85.3"/><line class="cls-36" x1="221.67" y1="42.3" x2="221.65" y2="56.03"/><polygon class="cls-26" points="223.92 42.97 221.69 39.07 219.44 42.96 223.92 42.97"/><line class="cls-36" x1="221.65" y1="81.48" x2="221.67" y2="66.76"/><polygon class="cls-26" points="219.4 80.82 221.63 84.71 223.88 80.83 219.4 80.82"/><line class="cls-36" x1="221.67" y1="88.94" x2="221.65" y2="122.67"/><polygon class="cls-26" points="223.92 89.6 221.68 85.72 219.44 89.6 223.92 89.6"/><line class="cls-36" x1="221.65" y1="174.39" x2="221.67" y2="135.66"/><polygon class="cls-26" points="219.4 173.73 221.64 177.62 223.88 173.73 219.4 173.73"/><line class="cls-36" x1="231.15" y1="70.6" x2="246.93" y2="70.6"/><text class="cls-25" transform="translate(237.82 122.19) scale(.8 1)"><tspan class="cls-44" x="0" y="0">Ψ</tspan><tspan class="cls-45" x="5.9" y="2.4">out</tspan></text><line class="cls-36" x1="239.63" y1="74.4" x2="239.6" y2="113.13"/><polygon class="cls-26" points="241.88 75.06 239.64 71.17 237.39 75.06 241.88 75.06"/><line class="cls-36" x1="239.6" y1="174.39" x2="239.63" y2="125.66"/><polygon class="cls-26" points="237.35 173.73 239.59 177.62 241.84 173.73 237.35 173.73"/><text class="cls-27" transform="translate(66.4 52.94)"><tspan class="cls-46" x="0" y="0">W</tspan><tspan x="7.41" y="0">ell casing</tspan></text><line class="cls-36" x1="109.92" y1="51.22" x2="141.98" y2="51.22"/><polygon class="cls-26" points="139.99 53.68 139.58 53.24 141.75 51.23 139.58 49.21 139.99 48.77 142.63 51.23 139.99 53.68"/><polygon class="cls-34" points="149.67 98.48 152.39 95.86 149.67 93.24 149.67 98.48"/><line class="cls-36" x1="109.92" y1="158.65" x2="145.02" y2="158.65"/><polygon class="cls-26" points="143.03 161.11 142.62 160.67 144.78 158.65 142.62 156.64 143.03 156.2 145.67 158.65 143.03 161.11"/><text class="cls-27" transform="translate(82.26 160.81)"><tspan x="0" y="0">Packer</tspan></text><polygon class="cls-6" points="142.82 23.77 142.82 81.39 145.85 81.39 145.85 26.81 148.86 26.81 148.86 23.77 142.82 23.77"/><polygon class="cls-6" points="164.21 23.77 164.21 26.81 167.22 26.81 167.22 81.39 170.25 81.39 170.25 23.77 164.21 23.77"/><text class="cls-29" transform="translate(200.94 111.39)"><tspan x="0" y="0">D</tspan></text><line class="cls-36" x1="204.01" y1="42.31" x2="203.99" y2="102.03"/><polygon class="cls-26" points="206.26 42.96 204.02 39.08 201.78 42.96 206.26 42.96"/><line class="cls-36" x1="203.99" y1="174.39" x2="204.01" y2="114.66"/><polygon class="cls-26" points="201.74 173.73 203.98 177.62 206.22 173.73 201.74 173.73"/><path class="cls-42" d="M151.25,53.34v22.04c-3.15-.68-5.4-2.4-5.4-3.71v-14.61c0-1.32,2.25-3.04,5.4-3.72Z"/><path class="cls-42" d="M167.22,57.06v14.61c0,1.31-2.25,3.04-5.41,3.72v-22.06c3.16.68,5.41,2.41,5.41,3.73Z"/><path class="cls-42" d="M151.25,250.68v22.04c-3.15-.68-5.4-2.4-5.4-3.72v-14.61c0-1.31,2.25-3.03,5.4-3.71Z"/><path class="cls-42" d="M167.22,254.39v14.61c0,1.32-2.25,3.05-5.41,3.73v-22.06c3.16.68,5.41,2.41,5.41,3.72Z"/><path class="cls-42" d="M151.25,203.84v22.04c-3.15-.68-5.4-2.4-5.4-3.71v-14.61c0-1.32,2.25-3.04,5.4-3.72Z"/><path class="cls-42" d="M167.22,207.56v14.61c0,1.31-2.25,3.04-5.41,3.72v-22.06c3.16.68,5.41,2.41,5.41,3.73Z"/><path class="cls-42" d="M151.25,149.01v22.04c-3.15-.68-5.4-2.4-5.4-3.72v-14.6c0-1.32,2.25-3.04,5.4-3.72Z"/><path class="cls-42" d="M167.22,152.73v14.6c0,1.32-2.25,3.05-5.41,3.73v-22.06c3.16.68,5.41,2.41,5.41,3.73Z"/><path class="cls-42" d="M151.25,101.18v22.04c-3.15-.68-5.4-2.41-5.4-3.72v-14.61c0-1.31,2.25-3.03,5.4-3.71Z"/><path class="cls-42" d="M167.22,104.89v14.61c0,1.31-2.25,3.04-5.41,3.72v-22.05c3.16.68,5.41,2.41,5.41,3.72Z"/><line class="cls-38" x1="151.25" y1="89.6" x2="118.56" y2="89.6"/><line class="cls-38" x1="194.51" y1="89.6" x2="161.08" y2="89.6"/></g><g id="Zone"><rect class="cls-59" x="62.83" y="333.47" width="53.48" height="267.14"/><rect class="cls-49" x="71.09" y="333.47" width="36.95" height="267.14"/><rect class="cls-16" x="71.09" y="333.47" width="36.95" height="267.14"/><rect class="cls-60" x="82.38" y="333.47" width="14.38" height="267.14"/><line class="cls-31" x1="96.76" y1="333.47" x2="96.76" y2="600.61"/><line class="cls-31" x1="82.38" y1="600.61" x2="82.38" y2="333.47"/><path class="cls-43" d="M107.55,420.1c0,4.75-6.44,6.96-14.38,6.96h-7.19c-7.94,0-14.38-2.21-14.38-6.96v-68.21c0-4.75,6.44-6.96,14.38-6.96h7.19c7.94,0,14.38,2.21,14.38,6.96v68.21Z"/><rect class="cls-34" x="80.84" y="342.62" width="17.47" height="3.01"/><rect class="cls-42" x="80.84" y="342.62" width="17.47" height="1.4"/><rect class="cls-34" x="80.84" y="426.35" width="17.47" height="3.01"/><rect class="cls-42" x="80.84" y="427.96" width="17.47" height="1.4"/><rect class="cls-33" x="80.84" y="443.86" width="17.47" height="12.52"/><line class="cls-36" x1="116.19" y1="451.86" x2="135.24" y2="451.86"/><line class="cls-36" x1="116.19" y1="423.19" x2="143.8" y2="423.19"/><line class="cls-36" x1="116.19" y1="350.94" x2="143.8" y2="350.94"/><text class="cls-29" transform="translate(136.08 389.64)"><tspan x="0" y="0">b</tspan></text><text class="cls-29" transform="translate(124.02 439.13)"><tspan x="0" y="0">a</tspan></text><text class="cls-27" transform="translate(146.88 407.68)"><tspan x="0" y="0">Bottom of packer</tspan><tspan x="0" y="8.8">and top of</tspan><tspan x="0" y="17.6">monitoring zone</tspan></text><text class="cls-27" transform="translate(146.88 353.35)"><tspan class="cls-54" x="0" y="0">T</tspan><tspan x="4" y="0">op of packer</tspan><tspan x="0" y="8.8">and bottom of</tspan><tspan x="0" y="17.6">monitoring zone</tspan></text><polyline class="cls-52" points="89.32 384.1 60.26 397.86 56.48 397.86"/><path d="M90.05,385.63c.84-.4,1.2-1.41.81-2.25s-1.41-1.2-2.25-.81-1.2,1.41-.81,2.25,1.41,1.2,2.25.81Z"/><text class="cls-27" transform="translate(28.75 400.23)"><tspan x="0" y="0">Packer</tspan></text><text class="cls-24" transform="translate(42.42 336.58)"><tspan x="0" y="0">A</tspan></text><text class="cls-20" transform="translate(39.76 602.27)"><tspan class="cls-56" x="0" y="0">A</tspan><tspan class="cls-51" x="5.34" y="0">’</tspan></text><line class="cls-41" x1="51.54" y1="333.84" x2="62.83" y2="333.84"/><line class="cls-41" x1="51.54" y1="600.23" x2="62.83" y2="600.23"/><path class="cls-55" d="M107.55,600.61v-23.4c0-4.75-6.44-6.96-14.38-6.96h-7.19c-7.94,0-14.38,2.21-14.38,6.96v23.4h35.95Z"/><path class="cls-31" d="M107.55,600.61v-23.4c0-4.75-6.44-6.96-14.38-6.96h-7.19c-7.94,0-14.38,2.21-14.38,6.96v23.4"/><rect class="cls-34" x="80.84" y="567.95" width="17.47" height="3.01"/><rect class="cls-42" x="80.84" y="567.95" width="17.47" height="1.4"/><line class="cls-36" x1="116.19" y1="575.64" x2="143.8" y2="575.64"/><line class="cls-36" x1="137.52" y1="426.97" x2="137.5" y2="493.59"/><polygon class="cls-26" points="139.77 427.63 137.53 423.74 135.29 427.63 139.77 427.63"/><text class="cls-29" transform="translate(134.01 502.29)"><tspan x="0" y="0">M</tspan></text><rect class="cls-35" x="80.84" y="531.86" width="17.47" height="12.52"/><text class="cls-27" transform="translate(15.97 465.98)"><tspan x="0" y="0">Upper port</tspan><tspan x="8" y="7">coupling</tspan></text><polyline class="cls-52" points="89.32 450.28 60.26 464.04 56.48 464.04"/><path d="M90.05,451.81c.84-.4,1.2-1.41.81-2.25s-1.41-1.2-2.25-.81-1.2,1.41-.81,2.25,1.41,1.2,2.25.81Z"/><text class="cls-27" transform="translate(15.97 554.28)"><tspan x="0" y="0">Lower port</tspan><tspan x="8" y="7">coupling</tspan></text><polyline class="cls-52" points="89.32 538.58 60.26 552.34 56.48 552.34"/><path d="M90.05,540.11c.84-.4,1.2-1.41.81-2.25s-1.41-1.2-2.25-.81-1.2,1.41-.81,2.25,1.41,1.2,2.25.81Z"/><text class="cls-27" transform="translate(146.88 578.25)"><tspan class="cls-54" x="0" y="0">T</tspan><tspan x="4" y="0">op of packer</tspan><tspan x="0" y="8.8">and bottom of</tspan><tspan x="0" y="17.6">monitoring zone</tspan></text><text class="cls-27" transform="translate(23.09 495.61)"><tspan x="0" y="0">Multiport</tspan><tspan x="7.55" y="7">casing</tspan></text><polyline class="cls-52" points="76.59 515.18 60.26 522.91 56.48 522.91"/><path d="M77.31,516.71c.84-.4,1.2-1.41.81-2.25s-1.41-1.2-2.25-.81-1.2,1.41-.81,2.25,1.41,1.2,2.25.81Z"/><line class="cls-36" x1="137.5" y1="571.93" x2="137.52" y2="505.31"/><polygon class="cls-26" points="135.25 571.27 137.49 575.16 139.73 571.27 135.25 571.27"/><line class="cls-36" x1="125.79" y1="426.97" x2="125.76" y2="433.79"/><polygon class="cls-26" points="128.04 427.64 125.81 423.74 123.55 427.62 128.04 427.64"/><line class="cls-36" x1="125.76" y1="448.25" x2="125.79" y2="441.43"/><polygon class="cls-26" points="123.51 447.58 125.74 451.48 128 447.6 123.51 447.58"/><line class="cls-36" x1="137.52" y1="354.86" x2="137.5" y2="381.68"/><polygon class="cls-26" points="139.77 355.52 137.53 351.63 135.29 355.52 139.77 355.52"/><line class="cls-36" x1="137.5" y1="419.47" x2="137.52" y2="392.65"/><polygon class="cls-26" points="135.25 418.81 137.49 422.7 139.73 418.81 135.25 418.81"/><text class="cls-27" transform="translate(146.88 454.37)"><tspan class="cls-51" x="0" y="0">T</tspan><tspan x="4.59" y="0">ransducer plane</tspan></text><line class="cls-36" x1="139.68" y1="451.86" x2="143.8" y2="451.86"/><text class="cls-27" transform="translate(26.19 524.98)"><tspan x="0" y="0">Outside</tspan><tspan x="-3.11" y="7">multiport</tspan><tspan x="4.45" y="14">casing</tspan></text><polyline class="cls-52" points="89.32 479.71 60.26 493.47 56.48 493.47"/><path d="M90.05,481.24c.84-.4,1.2-1.41.81-2.25s-1.41-1.2-2.25-.81-1.2,1.41-.81,2.25,1.41,1.2,2.25.81Z"/></g><g id="Projection"><polygon class="cls-2" points="162.53 172.01 344.18 288.21 341.18 421.39 162.44 182.2 162.53 172.01"/><line class="cls-41" x1="163.53" y1="173.01" x2="344.18" y2="288.21"/><line class="cls-41" x1="163.44" y1="183.2" x2="341.18" y2="421.39"/></g><g id="Transducer"><rect class="cls-49" x="347.25" y="195.67" width="41.54" height="332.36"/><rect class="cls-16" x="347.25" y="195.81" width="41.54" height="332.22"/><polygon class="cls-47" points="366.26 252.4 366.26 195.4 363.23 195.4 363.23 252.4 355.65 271.63 355.65 293.1 373.84 293.1 373.84 271.63 366.26 252.4"/><polyline class="cls-37" points="363.23 195.4 363.23 252.4 355.65 271.63 355.65 293.1 373.84 293.1 373.84 271.63 366.26 252.4 366.26 195.4"/><rect class="cls-57" x="344.04" y="195.8" width="6.77" height="332.22"/><rect class="cls-57" x="384.77" y="195.8" width="6.77" height="332.22"/><line class="cls-37" x1="350.8" y1="195.8" x2="350.8" y2="528.03"/><line class="cls-37" x1="344.04" y1="528.03" x2="344.04" y2="195.8"/><line class="cls-37" x1="391.54" y1="195.8" x2="391.54" y2="528.03"/><line class="cls-37" x1="384.77" y1="528.03" x2="384.77" y2="195.8"/><path class="cls-58" d="M374.33,337.44v-22.7h15.14v3.02h-4.7c0,7.02-10.44,19.67-10.44,19.67h0Z"/><path class="cls-9" d="M374.23,337.77s10.55-13.13,10.55-20"/><line class="cls-37" x1="374.33" y1="314.74" x2="389.48" y2="314.74"/><polygon class="cls-10" points="394.39 358.52 394.39 290.85 391.79 288.45 389.18 288.45 389.18 317.77 384.77 317.77 384.77 397.17 389.18 397.17 389.18 423.79 391.79 423.79 394.39 421.39 394.39 387.98 391.48 387.98 391.48 384.89 394.39 384.89 394.39 382.7 391.48 382.7 391.48 379.62 394.39 379.62 394.39 377.43 391.48 377.43 391.48 374.35 394.39 374.35 394.39 372.16 391.48 372.16 391.48 369.07 394.39 369.07 394.39 366.88 391.48 366.88 391.48 363.8 394.39 363.8 394.39 361.61 391.48 361.61 391.48 358.52 394.39 358.52"/><rect class="cls-40" x="388.38" y="412.92" width="1.6" height="2.4"/><line class="cls-37" x1="387.72" y1="413.46" x2="387.72" y2="414.78"/><rect class="cls-19" x="389.56" y="403.61" width="2.92" height="3.12"/><rect class="cls-19" x="389.56" y="305.21" width="2.92" height="3.12"/><rect class="cls-40" x="388.38" y="296.52" width="1.6" height="2.4"/><line class="cls-37" x1="387.72" y1="297.06" x2="387.72" y2="298.38"/><polygon class="cls-58" points="343.94 355.22 343.94 314.74 359.08 314.74 359.08 334.77 348.87 355.22 343.94 355.22 343.94 355.22"/><line class="cls-37" x1="343.93" y1="314.74" x2="359.08" y2="314.74"/><rect class="cls-26" x="339.94" y="342.95" width="27" height="4.6" transform="translate(-111.05 513.68) rotate(-64.26)"/><path class="cls-5" d="M370.09,468.72c-.37.41-1.11.75-1.66.75h-8.4c-.55,0-1.3-.34-1.66-.75l-3.47-3.91c-.37-.41-.21-.75.34-.75h18c.55,0,.7.34.34.75l-3.47,3.91Z"/><path class="cls-37" d="M370.09,468.72c-.37.41-1.11.75-1.66.75h-8.4c-.55,0-1.3-.34-1.66-.75l-3.47-3.91c-.37-.41-.21-.75.34-.75h18c.55,0,.7.34.34.75l-3.47,3.91Z"/><rect class="cls-47" x="354.23" y="290.32" width="20" height="173.75" rx="1" ry="1"/><rect class="cls-37" x="354.23" y="290.32" width="20" height="173.75" rx="1" ry="1"/><rect class="cls-47" x="354.23" y="277.27" width="20" height="10.99" rx="1" ry="1"/><rect class="cls-37" x="354.23" y="277.27" width="20" height="10.99" rx="1" ry="1"/><rect class="cls-39" x="372.15" y="357.78" width="2.07" height="31.71"/><rect class="cls-39" x="372.15" y="366.71" width="12.62" height="11.33"/><rect class="cls-39" x="382.7" y="357.78" width="2.07" height="31.71"/><polygon class="cls-3" points="350.8 386.97 353.69 392.57 356.57 392.57 356.57 355.6 353.69 355.6 350.8 361.2 350.8 386.97"/><path class="cls-7" d="M351.35,379.86c-.19,0-.37.02-.55.04v2.51c.18.03.36.04.55.04,1.27,0,2.31-.58,2.31-1.3,0-.72-1.03-1.3-2.31-1.3ZM353.41,365.7c-.51-.51-1.65-.19-2.55.71-.02.02-.04.05-.06.07v2.71c.56,0,1.28-.33,1.9-.95.9-.9,1.22-2.04.71-2.55Z"/><polygon class="cls-8" points="366 395.93 366 371.73 350.8 371.73 350.8 374.03 363.7 374.03 363.7 395.93 358.74 395.93 358.74 398.98 370.96 398.98 370.96 395.93 366 395.93"/><rect class="cls-32" x="358.74" y="398.98" width="12.23" height="29.07"/><polygon class="cls-10" points="341.18 290.85 343.79 288.45 346.39 288.45 346.39 355.6 350.8 355.6 350.8 397.17 346.39 397.17 346.39 423.79 343.79 423.79 341.18 421.39 341.18 290.85"/><rect class="cls-40" x="345.59" y="412.92" width="1.6" height="2.4"/><line class="cls-37" x1="347.85" y1="413.46" x2="347.85" y2="414.78"/><rect class="cls-19" x="343.1" y="403.61" width="2.92" height="3.12"/><rect class="cls-19" x="343.1" y="305.21" width="2.92" height="3.12"/><rect class="cls-40" x="345.59" y="296.52" width="1.6" height="2.4"/><line class="cls-37" x1="347.85" y1="297.06" x2="347.85" y2="298.38"/><polygon class="cls-12" points="350.8 370.38 348.24 370.38 343.25 365.58 343.25 356.99 341.18 356.99 341.18 388.7 343.25 388.7 343.25 380.1 348.24 375.3 350.8 375.3 350.8 370.38"/><line class="cls-37" x1="341.92" y1="358.95" x2="341.92" y2="386.73"/><polygon class="cls-49" points="350.8 371.9 344.33 371.9 344.33 368.88 342.72 368.88 342.72 376.8 344.33 376.8 344.33 373.78 350.8 373.78 350.8 371.9"/><rect class="cls-19" x="344.88" y="370.29" width="1.13" height="1.13"/><rect class="cls-19" x="344.88" y="374.25" width="1.13" height="1.13"/><text class="cls-27" transform="translate(414.64 402.2)"><tspan class="cls-51" x="0" y="0">T</tspan><tspan x="4.59" y="0">ransducer plane,</tspan><tspan x="0" y="8">a pressure mapping</tspan><tspan x="0" y="16">force sensor</tspan></text><text class="cls-27" transform="translate(242.39 375.39)"><tspan x="0" y="0">Measurement</tspan><tspan x="0" y="8" xml:space="preserve"> port inlet valve</tspan></text><text class="cls-27" transform="translate(404.73 291.33)"><tspan class="cls-54" x="0" y="0">T</tspan><tspan x="4" y="0">op of port coupling</tspan></text><line class="cls-36" x1="396.35" y1="288.61" x2="402.54" y2="288.61"/><line class="cls-36" x1="396.35" y1="399.38" x2="412.45" y2="399.38"/><line class="cls-36" x1="396.35" y1="372.92" x2="412.45" y2="372.92"/><polyline class="cls-52" points="325.47 403.67 320.77 406.26 316.99 406.26"/><line class="cls-52" x1="345.83" y1="392.49" x2="328.72" y2="401.89"/><path d="M346.65,393.98c.82-.45,1.12-1.48.67-2.3s-1.48-1.12-2.3-.67-1.12,1.48-.67,2.3,1.48,1.12,2.3.67Z"/><text class="cls-27" transform="translate(260.49 400.62)"><tspan x="0" y="0" xml:space="preserve">Measurement  </tspan><tspan x="3.1" y="8" xml:space="preserve">  port coupling</tspan></text><rect class="cls-50" x="362.63" y="195.4" width="4.15" height="47.09"/><line class="cls-52" x1="308.74" y1="372.72" x2="339.18" y2="372.72"/><polygon points="337.2 375.18 336.79 374.74 338.95 372.72 336.79 370.71 337.2 370.27 339.84 372.72 337.2 375.18"/><text class="cls-27" transform="translate(259.82 495.43)"><tspan x="0" y="0">Multiport casing</tspan></text><polyline class="cls-52" points="347.46 479.45 322.79 492.99 319.01 492.99"/><path d="M348.28,480.93c.82-.45,1.12-1.48.67-2.3s-1.48-1.12-2.3-.67-1.12,1.48-.67,2.3,1.48,1.12,2.3.67Z"/><line class="cls-52" x1="293.56" y1="372.72" x2="301.22" y2="372.72"/><g class="cls-15"><polygon class="cls-4" points="366 395.93 366 371.73 350.8 371.73 350.8 374.03 363.7 374.03 363.7 395.93 358.74 395.93 358.74 398.98 370.96 398.98 370.96 395.93 366 395.93"/><polygon class="cls-48" points="350.8 371.9 344.33 371.9 344.33 368.88 342.72 368.88 342.72 376.8 344.33 376.8 344.33 373.78 350.8 373.78 350.8 371.9"/></g><polygon class="cls-9" points="366 395.93 366 371.73 350.8 371.73 350.8 374.03 363.7 374.03 363.7 395.93 358.74 395.93 358.74 398.98 370.96 398.98 370.96 395.93 366 395.93"/><polygon class="cls-37" points="350.8 371.9 344.33 371.9 344.33 368.88 342.72 368.88 342.72 376.8 344.33 376.8 344.33 373.78 350.8 373.78 350.8 371.9"/><rect class="cls-49" x="350.16" y="372.23" width="1.45" height="1.31"/><rect class="cls-17" x="350.16" y="372.23" width="1.45" height="1.31"/><rect class="cls-49" x="340.68" y="369.38" width="3.16" height="6.91"/><rect class="cls-17" x="340.68" y="369.38" width="3.16" height="6.91"/><text class="cls-27" transform="translate(414.64 375.64)"><tspan x="0" y="0">Center of inlet valve</tspan></text><line class="cls-36" x1="324.23" y1="423.79" x2="338.84" y2="423.79"/><text class="cls-27" transform="translate(238.69 426.26)"><tspan x="0" y="0">Bottom of port coupling</tspan></text><polyline class="cls-52" points="364.74 437.06 398.46 456.66 402.41 456.66"/><path d="M365.59,435.6c-.81-.47-1.84-.2-2.31.61s-.2,1.84.61,2.31,1.84.2,2.31-.61.2-1.84-.61-2.31Z"/><text class="cls-27" transform="translate(404.73 459.23)"><tspan x="0" y="0">Submersible absolute</tspan><tspan x="0" y="9.6">pressure transducer with</tspan><tspan x="0" y="19.2">integrated temperature</tspan><tspan x="0" y="28.8">sensor</tspan></text><polyline class="cls-52" points="364.94 217.65 399.54 233.09 402.54 233.09"/><path d="M365.63,216.11c-.85-.38-1.85,0-2.23.86s0,1.85.86,2.23,1.85,0,2.23-.86,0-1.85-.86-2.23Z"/><text class="cls-27" transform="translate(404.73 235.27)"><tspan x="0" y="0">Wireline-communication</tspan><tspan x="0" y="8.8">suspension cable</tspan><tspan x="0" y="17.6">connecting the transducer</tspan><tspan x="0" y="26.4">to a data logger</tspan></text><polyline class="cls-52" points="368.02 499.66 398.5 513.26 402.41 513.26"/><path d="M368.71,498.11c-.85-.38-1.85,0-2.23.86s0,1.85.86,2.23,1.85,0,2.23-.86,0-1.85-.86-2.23Z"/><text class="cls-27" transform="translate(404.73 515.43)"><tspan x="0" y="0">Inside multiport casing</tspan></text><text class="cls-27" transform="translate(414.64 360.89)"><tspan x="0" y="0">Retractable backing shoe</tspan></text><polyline class="cls-52" points="378.06 372.26 408.54 358.66 412.45 358.66"/><path d="M377.37,370.72c-.85.38-1.24,1.38-.86,2.23s1.38,1.24,2.23.86,1.24-1.38.86-2.23-1.38-1.24-2.23-.86Z"/><polyline class="cls-52" points="378.46 323.94 409.45 337.77 412.45 337.77"/><path d="M379.15,322.4c-.85-.38-1.85,0-2.23.86s0,1.85.86,2.23,1.85,0,2.23-.86,0-1.85-.86-2.23Z"/><text class="cls-27" transform="translate(414.64 339.97)"><tspan x="0" y="0">Retractable arm</tspan></text><line class="cls-36" x1="404.55" y1="376.6" x2="404.53" y2="382.42"/><polygon class="cls-26" points="406.8 377.27 404.58 373.37 402.31 377.25 406.8 377.27"/><line class="cls-36" x1="404.55" y1="395.76" x2="404.53" y2="389.93"/><polygon class="cls-26" points="402.3 395.11 404.56 398.99 406.79 395.09 402.3 395.11"/><text class="cls-29" transform="translate(402.71 387.8)"><tspan x="0" y="0">c</tspan></text></g><g id="Terms"><text class="cls-28" transform="translate(270.05 17.24)"><tspan x="0" y="0">Definition of terms</tspan></text><text class="cls-29" transform="translate(270.29 32.82)"><tspan x="0" y="0">D</tspan></text><text class="cls-27" transform="translate(295.17 32.82)"><tspan x="0" y="0">Depth to the pressure transducer plane of a measurement</tspan><tspan x="0" y="9.6">port coupling in feet below land surface (ft bls)</tspan></text><text class="cls-21" transform="translate(270.05 88.61) scale(.8 1)"><tspan x="0" y="0">Ψ</tspan></text><text class="cls-22" transform="translate(274.78 91.01)"><tspan x="0" y="0">in</tspan></text><text class="cls-27" transform="translate(295.17 88.61)"><tspan x="0" y="0">Pressure head measured inside the multiport casing in feet</tspan></text><text class="cls-21" transform="translate(270.77 101.01) scale(.8 1)"><tspan x="0" y="0">Ψ</tspan></text><text class="cls-22" transform="translate(275.5 103.41)"><tspan x="0" y="0">out</tspan></text><text class="cls-27" transform="translate(295.17 101.01)"><tspan x="0" y="0">Pressure head measured outside the multiport casing in feet</tspan></text><text class="cls-27" transform="translate(295.17 66.51)"><tspan x="0" y="0">Stickup distance, the height of the well casing that extends</tspan><tspan x="0" y="9.6">above the land surface measurement point, in feet</tspan></text><text class="cls-29" transform="translate(270.12 66.51)"><tspan x="0" y="0">s</tspan></text><text class="cls-27" transform="translate(295.17 127.01)"><tspan x="0" y="0">Distance between the transducer plane and the</tspan><tspan x="0" y="9.6">bottom of the adjacent upper packer in feet</tspan></text><text class="cls-29" transform="translate(270.05 127.01)"><tspan x="0" y="0">a</tspan></text><text class="cls-23" transform="translate(270.31 54.32)"><tspan x="0" y="0">L</tspan></text><text class="cls-27" transform="translate(295.17 54.32)"><tspan x="0" y="0">Depth to water inside the multiport casing in ft bls</tspan></text><text class="cls-27" transform="translate(295.17 148.13)"><tspan x="0" y="0">Packer seal thickness in feet</tspan></text><text class="cls-29" transform="translate(270.05 148.13)"><tspan x="0" y="0">b</tspan></text><text class="cls-27" transform="translate(295.17 114.23)"><tspan x="0" y="0">Distance between packer seals or zone length in feet</tspan></text><text class="cls-29" transform="translate(270.05 114.23)"><tspan x="0" y="0">M</tspan></text><text class="cls-27" transform="translate(295.17 159.81)"><tspan x="0" y="0">Distance between the transducer plane and the</tspan><tspan x="0" y="9.6">measurement port inlet valve in feet</tspan></text><text class="cls-29" transform="translate(270.5 159.81)"><tspan x="0" y="0">c</tspan></text></g></svg>
