<?xml version="1.0" encoding="UTF-8"?><svg xmlns="http://www.w3.org/2000/svg" viewBox="0 0 252 645"><defs><style>.cls-1{letter-spacing:.02em;}.cls-2{letter-spacing:-.04em;}.cls-3{letter-spacing:.02em;}.cls-4,.cls-5,.cls-6,.cls-7,.cls-8{fill:#231f20;}.cls-4,.cls-9,.cls-10,.cls-6,.cls-8,.cls-11,.cls-12{font-family:ArialMT, Arial;}.cls-4,.cls-9,.cls-10,.cls-11,.cls-13{font-size:6px;}.cls-14{letter-spacing:.01em;}.cls-5,.cls-7{font-family:Arial-BoldMT, Arial;font-weight:700;}.cls-5,.cls-8{font-size:7px;}.cls-15{letter-spacing:.02em;}.cls-16{letter-spacing:.03em;}.cls-17{letter-spacing:.01em;}.cls-18{letter-spacing:.01em;}.cls-19{letter-spacing:.02em;}.cls-20,.cls-21,.cls-22,.cls-23,.cls-24,.cls-25,.cls-26,.cls-27,.cls-28,.cls-29,.cls-30,.cls-31,.cls-32,.cls-33,.cls-34,.cls-35{fill:none;}.cls-20,.cls-21,.cls-23,.cls-24,.cls-25,.cls-36,.cls-37,.cls-38{stroke-width:.35px;}.cls-20,.cls-21,.cls-39,.cls-26,.cls-27,.cls-40{stroke:#241f20;}.cls-20,.cls-36,.cls-29,.cls-37,.cls-38{stroke-miterlimit:90;}.cls-41{letter-spacing:.03em;}.cls-42{letter-spacing:.02em;}.cls-21,.cls-22,.cls-23,.cls-24,.cls-25,.cls-26,.cls-28,.cls-30,.cls-31,.cls-32,.cls-34,.cls-35{stroke-linejoin:round;}.cls-21,.cls-22,.cls-23,.cls-24,.cls-28,.cls-30,.cls-31,.cls-32,.cls-34,.cls-35{stroke-linecap:round;}.cls-43{letter-spacing:.01em;}.cls-44{letter-spacing:.02em;}.cls-45{letter-spacing:.01em;}.cls-46{letter-spacing:.01em;}.cls-47{letter-spacing:.01em;}.cls-48{letter-spacing:0em;}.cls-22{stroke-dasharray:2.06 2.06;}.cls-22,.cls-23,.cls-36,.cls-28,.cls-29,.cls-30,.cls-31,.cls-37,.cls-32,.cls-38{stroke:#000;}.cls-22,.cls-26,.cls-27,.cls-29,.cls-30,.cls-31,.cls-32{stroke-width:.5px;}.cls-9{fill:#212121;}.cls-24,.cls-25,.cls-33,.cls-34,.cls-35{stroke:#231f20;}.cls-49{letter-spacing:-.06em;}.cls-50{letter-spacing:.01em;}.cls-51{letter-spacing:.01em;}.cls-10,.cls-12{fill:#241f20;}.cls-36{fill:#bcbdc0;}.cls-52{letter-spacing:.02em;}.cls-53{font-size:5px;}.cls-54{letter-spacing:.02em;}.cls-39{fill:red;}.cls-39,.cls-40{stroke-width:.53px;}.cls-55{letter-spacing:.01em;}.cls-56{letter-spacing:-.07em;}.cls-57{letter-spacing:.01em;}.cls-58{letter-spacing:-.02em;}.cls-59{letter-spacing:.02em;}.cls-27{stroke-miterlimit:10;}.cls-60{letter-spacing:.01em;}.cls-61{letter-spacing:.01em;}.cls-62{fill:#1072ba;}.cls-63{letter-spacing:0em;}.cls-64{letter-spacing:.02em;}.cls-65{letter-spacing:.01em;}.cls-66{letter-spacing:.02em;}.cls-67{letter-spacing:0em;}.cls-68{letter-spacing:.02em;}.cls-69{letter-spacing:0em;}.cls-70{letter-spacing:.01em;}.cls-71{letter-spacing:.01em;}.cls-6,.cls-7{font-size:8px;}.cls-72{letter-spacing:.05em;}.cls-73{letter-spacing:.05em;}.cls-74{letter-spacing:.02em;}.cls-75{letter-spacing:0em;}.cls-76{letter-spacing:.03em;}.cls-30{stroke-dasharray:2.16 2.16;}.cls-77{letter-spacing:.01em;}.cls-78{letter-spacing:.03em;}.cls-79{letter-spacing:.05em;}.cls-80{letter-spacing:.03em;}.cls-81{letter-spacing:.02em;}.cls-82{letter-spacing:.02em;}.cls-83{letter-spacing:0em;}.cls-84{fill:#70cddd;stroke:#70cddd;}.cls-84,.cls-34{stroke-width:.25px;}.cls-85{letter-spacing:.02em;}.cls-37{fill:#fbb041;}.cls-86{letter-spacing:.02em;}.cls-87{letter-spacing:.02em;}.cls-88{letter-spacing:.02em;}.cls-32{stroke-dasharray:2.11 2.11;}.cls-89{letter-spacing:0em;}.cls-90{fill:#f4ea0f;}.cls-91{letter-spacing:.01em;}.cls-92{letter-spacing:0em;}.cls-93{letter-spacing:.02em;}.cls-33{stroke-width:2px;}.cls-94{letter-spacing:.01em;}.cls-95{letter-spacing:.02em;}.cls-40{fill:#fff;}.cls-96{letter-spacing:.02em;}.cls-97{fill:#bbbcbf;}.cls-98{letter-spacing:.02em;}.cls-99{letter-spacing:0em;}.cls-100{letter-spacing:.02em;}.cls-101{letter-spacing:0em;}.cls-102{letter-spacing:.01em;}.cls-103{letter-spacing:.01em;}.cls-104{letter-spacing:.02em;}.cls-105{letter-spacing:-.07em;}.cls-106{fill:#faaf41;}.cls-107{letter-spacing:.02em;}.cls-38{fill:#f5eb12;}</style></defs><g id="Completions"><g id="MIDDLE_2050A"><text class="cls-4" transform="translate(60.25 25.97) scale(1.07 1)"><tspan x="0" y="0">MIDDLE 2050</tspan><tspan class="cls-49" x="37.68" y="0">A</tspan><tspan x="2.67" y="7.01">MU</tspan><tspan class="cls-105" x="12" y="7.01">L</tspan><tspan x="14.89" y="7.01">TILEVE</tspan><tspan class="cls-2" x="35.57" y="7.01">L</tspan><tspan x=".84" y="14.01">COMPLETION</tspan></text><rect class="cls-106" x="41.82" y="57.3" width="12.61" height="19.52"/><rect class="cls-34" x="41.82" y="57.3" width="12.61" height="19.52"/><rect class="cls-97" x="41.82" y="76.82" width="12.61" height="13.43"/><rect class="cls-34" x="41.82" y="76.82" width="12.61" height="13.43"/><rect class="cls-106" x="41.82" y="90.25" width="12.61" height="8.55"/><rect class="cls-34" x="41.82" y="90.25" width="12.61" height="8.55"/><rect class="cls-97" x="41.82" y="98.8" width="12.61" height="15.26"/><rect class="cls-34" x="41.82" y="98.8" width="12.61" height="15.26"/><rect class="cls-106" x="41.82" y="114.06" width="12.61" height="1.22"/><rect class="cls-34" x="41.82" y="114.06" width="12.61" height="1.22"/><rect class="cls-90" x="41.82" y="115.28" width="12.61" height="2.45"/><rect class="cls-34" x="41.82" y="115.28" width="12.61" height="2.45"/><rect class="cls-97" x="41.82" y="117.73" width="12.61" height="18.91"/><rect class="cls-34" x="41.82" y="117.73" width="12.61" height="18.91"/><rect class="cls-106" x="41.82" y="136.64" width="12.61" height="12.2"/><rect class="cls-34" x="41.82" y="136.64" width="12.61" height="12.2"/><rect class="cls-97" x="41.82" y="148.84" width="12.61" height="34.79"/><rect class="cls-34" x="41.82" y="148.84" width="12.61" height="34.79"/><rect class="cls-106" x="41.82" y="183.65" width="12.61" height="4.26"/><rect class="cls-34" x="41.82" y="183.65" width="12.61" height="4.26"/><rect class="cls-97" x="41.82" y="187.91" width="12.61" height="14.65"/><rect class="cls-34" x="41.82" y="187.91" width="12.61" height="14.65"/><rect class="cls-106" x="41.82" y="202.56" width="12.61" height="7.32"/><rect class="cls-34" x="41.82" y="202.56" width="12.61" height="7.32"/><rect class="cls-97" x="41.82" y="209.88" width="12.61" height="25.64"/><rect class="cls-34" x="41.82" y="209.88" width="12.61" height="25.64"/><rect class="cls-90" x="41.82" y="235.53" width="12.61" height="6.71"/><rect class="cls-34" x="41.82" y="235.53" width="12.61" height="6.71"/><rect class="cls-106" x="41.82" y="242.24" width="12.61" height="2.45"/><rect class="cls-34" x="41.82" y="242.24" width="12.61" height="2.45"/><rect class="cls-97" x="41.82" y="244.69" width="12.61" height="3.67"/><rect class="cls-34" x="41.82" y="244.69" width="12.61" height="3.67"/><rect class="cls-106" x="41.82" y="248.34" width="12.61" height="10.38"/><rect class="cls-34" x="41.82" y="248.34" width="12.61" height="10.38"/><rect class="cls-97" x="41.82" y="258.72" width="12.61" height="8.55"/><rect class="cls-34" x="41.82" y="258.72" width="12.61" height="8.55"/><rect class="cls-106" x="41.82" y="267.27" width="12.61" height="7.32"/><rect class="cls-34" x="41.82" y="267.27" width="12.61" height="7.32"/><rect class="cls-97" x="41.82" y="274.59" width="12.61" height="3.67"/><rect class="cls-34" x="41.82" y="274.59" width="12.61" height="3.67"/><rect class="cls-106" x="41.82" y="278.25" width="12.61" height="11.59"/><rect class="cls-34" x="41.82" y="278.25" width="12.61" height="11.59"/><rect class="cls-97" x="41.82" y="289.86" width="12.61" height="16.48"/><rect class="cls-34" x="41.82" y="289.86" width="12.61" height="16.48"/><rect class="cls-106" x="41.82" y="306.32" width="12.61" height="4.27"/><rect class="cls-34" x="41.82" y="306.32" width="12.61" height="4.27"/><rect class="cls-97" x="41.82" y="310.6" width="12.61" height="3.06"/><rect class="cls-34" x="41.82" y="310.6" width="12.61" height="3.06"/><rect class="cls-106" x="41.82" y="313.64" width="12.61" height="18.32"/><rect class="cls-34" x="41.82" y="313.64" width="12.61" height="18.32"/><rect class="cls-97" x="41.82" y="331.96" width="12.61" height="3.67"/><rect class="cls-34" x="41.82" y="331.96" width="12.61" height="3.67"/><rect class="cls-90" x="41.82" y="335.64" width="12.61" height="1.22"/><rect class="cls-34" x="41.82" y="335.64" width="12.61" height="1.22"/><rect class="cls-106" x="41.82" y="336.84" width="12.61" height="3.67"/><rect class="cls-34" x="41.82" y="336.84" width="12.61" height="3.67"/><rect class="cls-97" x="41.82" y="340.51" width="12.61" height="3.67"/><rect class="cls-34" x="41.82" y="340.51" width="12.61" height="3.67"/><rect class="cls-106" x="41.82" y="344.16" width="12.61" height="2.45"/><rect class="cls-34" x="41.82" y="344.16" width="12.61" height="2.45"/><rect class="cls-97" x="41.82" y="346.62" width="12.61" height="7.94"/><rect class="cls-34" x="41.82" y="346.62" width="12.61" height="7.94"/><rect class="cls-106" x="41.82" y="354.55" width="12.61" height="9.77"/><rect class="cls-34" x="41.82" y="354.55" width="12.61" height="9.77"/><rect class="cls-97" x="41.82" y="364.32" width="12.61" height="4.27"/><rect class="cls-34" x="41.82" y="364.32" width="12.61" height="4.27"/><rect class="cls-106" x="41.82" y="368.59" width="12.61" height="1.83"/><rect class="cls-34" x="41.82" y="368.59" width="12.61" height="1.83"/><rect class="cls-97" x="41.82" y="370.42" width="12.61" height="13.43"/><rect class="cls-34" x="41.82" y="370.42" width="12.61" height="13.43"/><rect class="cls-106" x="41.82" y="383.84" width="12.61" height="1.84"/><rect class="cls-34" x="41.82" y="383.84" width="12.61" height="1.84"/><rect class="cls-97" x="41.82" y="385.68" width="12.61" height="6.71"/><rect class="cls-34" x="41.82" y="385.68" width="12.61" height="6.71"/><rect class="cls-106" x="41.82" y="392.4" width="12.61" height="5.48"/><rect class="cls-34" x="41.82" y="392.4" width="12.61" height="5.48"/><rect class="cls-97" x="41.82" y="397.88" width="12.61" height="26.25"/><rect class="cls-34" x="41.82" y="397.88" width="12.61" height="26.25"/><rect class="cls-90" x="41.82" y="424.13" width="12.61" height="6.11"/><rect class="cls-34" x="41.82" y="424.13" width="12.61" height="6.11"/><rect class="cls-97" x="41.82" y="430.24" width="12.61" height="32.97"/><rect class="cls-34" x="41.82" y="430.24" width="12.61" height="32.97"/><rect class="cls-90" x="41.82" y="463.21" width="12.61" height="2.45"/><rect class="cls-34" x="41.82" y="463.21" width="12.61" height="2.45"/><rect class="cls-106" x="41.82" y="465.64" width="12.61" height="18.91"/><rect class="cls-34" x="41.82" y="465.64" width="12.61" height="18.91"/><rect class="cls-97" x="41.82" y="527.9" width="12.61" height="6.1"/><rect class="cls-34" x="41.82" y="527.9" width="12.61" height="6.1"/><rect class="cls-106" x="41.82" y="534" width="12.61" height="12.2"/><rect class="cls-34" x="41.82" y="534" width="12.61" height="12.2"/><rect class="cls-97" x="41.82" y="546.2" width="12.61" height="9.77"/><rect class="cls-34" x="41.82" y="546.2" width="12.61" height="9.77"/><rect class="cls-106" x="41.82" y="555.97" width="12.61" height="7.94"/><rect class="cls-34" x="41.82" y="555.97" width="12.61" height="7.94"/><rect class="cls-90" x="41.82" y="563.91" width="12.61" height="61.04"/><rect class="cls-34" x="41.82" y="563.91" width="12.61" height="61.04"/><rect class="cls-106" x="41.82" y="624.95" width="12.61" height="12.2"/><rect class="cls-34" x="41.82" y="624.95" width="12.61" height="12.2"/><rect class="cls-90" x="41.82" y="508.68" width="12.61" height="1.09"/><rect class="cls-34" x="41.82" y="508.68" width="12.61" height="1.09"/><rect class="cls-97" x="41.82" y="484.65" width="12.61" height="24.04"/><rect class="cls-34" x="41.82" y="484.65" width="12.61" height="24.04"/><polygon class="cls-106" points="41.92 509.96 41.73 527.29 54.33 527.29 54.53 509.96 41.92 509.96"/><polygon class="cls-34" points="41.92 509.96 41.73 527.29 54.33 527.29 54.53 509.96 41.92 509.96"/><rect x="80.34" y="622.88" width="7.35" height="3.17"/><text class="cls-10" transform="translate(94.52 101.78) scale(.89 1)"><tspan x="0" y="0">P15</tspan></text><text class="cls-10" transform="translate(94.52 117.22) scale(.89 1)"><tspan x="0" y="0">P14</tspan></text><text class="cls-10" transform="translate(94.52 167.27) scale(.89 1)"><tspan x="0" y="0">P13</tspan></text><text class="cls-10" transform="translate(94.52 179.3) scale(.89 1)"><tspan x="0" y="0">P12</tspan></text><text class="cls-10" transform="translate(94.52 217.74) scale(.89 1)"><tspan x="0" y="0">P11</tspan></text><text class="cls-10" transform="translate(94.52 225.75) scale(.89 1)"><tspan x="0" y="0">P10</tspan></text><text class="cls-10" transform="translate(94.52 269.85) scale(.89 1)"><tspan x="0" y="0">P9</tspan></text><text class="cls-10" transform="translate(94.52 281.28) scale(.89 1)"><tspan x="0" y="0">P8</tspan></text><text class="cls-10" transform="translate(94.52 302.17) scale(.89 1)"><tspan x="0" y="0">P7</tspan></text><text class="cls-10" transform="translate(94.52 396.41) scale(.89 1)"><tspan x="0" y="0">P6</tspan></text><text class="cls-10" transform="translate(94.52 423.87) scale(.89 1)"><tspan x="0" y="0">P5</tspan></text><text class="cls-10" transform="translate(94.52 446.88) scale(.89 1)"><tspan x="0" y="0">P4</tspan></text><text class="cls-10" transform="translate(94.52 506.89) scale(.89 1)"><tspan x="0" y="0">P3</tspan></text><text class="cls-10" transform="translate(94.52 537.47) scale(.89 1)"><tspan x="0" y="0">P2</tspan></text><text class="cls-10" transform="translate(94.52 560.53) scale(.89 1)"><tspan x="0" y="0">P1</tspan></text><text class="cls-10" transform="translate(65.01 519.47) scale(.89 1)"><tspan x="0" y="0">Z3</tspan></text><text class="cls-10" transform="translate(65.01 546) scale(.89 1)"><tspan x="0" y="0">Z2</tspan></text><text class="cls-10" transform="translate(65.01 599.64) scale(.89 1)"><tspan x="0" y="0">Z1</tspan></text><text class="cls-10" transform="translate(65.01 474.03) scale(.89 1)"><tspan x="0" y="0">Z4</tspan></text><text class="cls-10" transform="translate(65.01 432.34) scale(.89 1)"><tspan x="0" y="0">Z5</tspan></text><text class="cls-10" transform="translate(65.01 407.22) scale(.89 1)"><tspan x="0" y="0">Z6</tspan></text><text class="cls-10" transform="translate(65.01 288.59) scale(.89 1)"><tspan x="0" y="0">Z8</tspan></text><text class="cls-10" transform="translate(65.01 272.41) scale(.89 1)"><tspan x="0" y="0">Z9</tspan></text><text class="cls-10" transform="translate(62.04 244.85) scale(.89 1)"><tspan x="0" y="0">Z10</tspan></text><text class="cls-10" transform="translate(62.04 219.95) scale(.89 1)"><tspan x="0" y="0">Z11</tspan></text><text class="cls-10" transform="translate(62.04 196.06) scale(.89 1)"><tspan x="0" y="0">Z12</tspan></text><text class="cls-10" transform="translate(62.04 170.72) scale(.89 1)"><tspan x="0" y="0">Z13</tspan></text><text class="cls-10" transform="translate(62.04 139.8) scale(.89 1)"><tspan x="0" y="0">Z14</tspan></text><text class="cls-10" transform="translate(62.04 90.46) scale(.89 1)"><tspan x="0" y="0">Z15</tspan></text><text class="cls-10" transform="translate(65.01 346.33) scale(.89 1)"><tspan x="0" y="0">Z7</tspan></text><path class="cls-62" d="M77.88,66.26c0,.76.62,1.38,1.38,1.38h9.52c.76,0,1.38-.62,1.38-1.38s-.62-1.38-1.38-1.38h-9.52c-.76,0-1.38.62-1.38,1.38,0,0,0-.76,0,0Z"/><path class="cls-26" d="M77.88,66.26c0,.76.62,1.38,1.38,1.38h9.52c.76,0,1.38-.62,1.38-1.38s-.62-1.38-1.38-1.38h-9.52c-.76,0-1.38.62-1.38,1.38,0,0,0-.76,0,0Z"/><polyline class="cls-25" points="75.8 67.64 73.64 67.64 73.64 68.3 73.64 69.24 73.64 69.94 73.64 74.96 73.64 78.85 73.64 88.94 73.64 94.13 73.64 95.04 73.64 97.13 73.64 97.53 73.64 107.89 73.64 110.52 73.64 111.24 73.64 111.68 75.8 111.68"/><path class="cls-62" d="M77.88,556.11c0,.76.62,1.38,1.38,1.38h9.51c.76,0,1.38-.62,1.38-1.38s-.62-1.38-1.38-1.38h-9.51c-.76,0-1.38.62-1.38,1.38,0,0,0-.76,0,0Z"/><path class="cls-26" d="M77.88,556.11c0,.76.62,1.38,1.38,1.38h9.51c.76,0,1.38-.62,1.38-1.38s-.62-1.38-1.38-1.38h-9.51c-.76,0-1.38.62-1.38,1.38,0,0,0-.76,0,0Z"/><polyline class="cls-24" points="75.8 557.49 73.64 557.49 73.64 559.85 73.64 559.95 73.64 561.6 73.64 562.45 73.64 563.29 73.64 564.79 73.64 566.73 73.64 572.15 73.64 573.67 73.64 576.39 73.64 582.27 73.64 584.47 73.64 584.87 73.64 585.66 73.64 588.17 73.64 588.46 73.64 590.79 73.64 597.11 73.64 598.42 73.64 599.54 73.64 599.63 73.64 601.27 73.64 601.55 73.64 601.7 73.64 604.49 73.64 607.1 73.64 611.92 73.64 613.84 73.64 615.27 73.64 615.65 73.64 618.66 73.64 627.19 73.64 628.11 73.64 637.81 73.64 637.82 75.8 637.82"/><path class="cls-62" d="M77.88,533.07c0,.76.62,1.38,1.38,1.38h9.51c.76,0,1.38-.62,1.38-1.38s-.62-1.38-1.38-1.38h-9.51c-.76,0-1.38.62-1.38,1.38,0,0,0-.76,0,0Z"/><path class="cls-26" d="M77.88,533.07c0,.76.62,1.38,1.38,1.38h9.51c.76,0,1.38-.62,1.38-1.38s-.62-1.38-1.38-1.38h-9.51c-.76,0-1.38.62-1.38,1.38,0,0,0-.76,0,0Z"/><polyline class="cls-24" points="75.8 534.45 73.64 534.45 73.64 536.46 73.64 538.1 73.64 540.45 73.64 540.7 73.64 543.5 73.64 546.58 73.64 549.21 73.64 549.44 73.64 552.34 73.64 554.73 75.8 554.73"/><path class="cls-62" d="M77.88,502.71c0,.76.62,1.38,1.38,1.38h9.51c.76,0,1.38-.62,1.38-1.38s-.62-1.38-1.38-1.38h-9.51c-.76,0-1.38.62-1.38,1.38,0,0,0-.76,0,0Z"/><path class="cls-26" d="M77.88,502.71c0,.76.62,1.38,1.38,1.38h9.51c.76,0,1.38-.62,1.38-1.38s-.62-1.38-1.38-1.38h-9.51c-.76,0-1.38.62-1.38,1.38,0,0,0-.76,0,0Z"/><polyline class="cls-24" points="75.8 504.09 73.64 504.09 73.64 504.58 73.64 504.63 73.64 506.08 73.64 507.65 73.64 509.5 73.64 510.35 73.64 512.68 73.64 512.72 73.64 512.89 73.64 515.07 73.64 517.14 73.64 521.72 73.64 524.19 73.64 527.05 73.64 529.41 73.64 530.74 73.64 531.69 75.8 531.69"/><path class="cls-62" d="M77.88,442.28c0,.76.62,1.38,1.38,1.38h9.52c.76,0,1.38-.62,1.38-1.38s-.62-1.38-1.38-1.38h-9.52c-.76,0-1.38.62-1.38,1.38,0,0,0-.76,0,0Z"/><path class="cls-26" d="M77.88,442.28c0,.76.62,1.38,1.38,1.38h9.52c.76,0,1.38-.62,1.38-1.38s-.62-1.38-1.38-1.38h-9.52c-.76,0-1.38.62-1.38,1.38,0,0,0-.76,0,0Z"/><polyline class="cls-24" points="75.8 443.66 73.64 443.66 73.64 447.43 73.64 451.21 73.64 458.48 73.64 458.9 73.64 459.66 73.64 460.39 73.64 461.38 73.64 461.64 73.64 461.75 73.64 463.25 73.64 469.68 73.64 471.17 73.64 471.62 73.64 472.11 73.64 473.39 73.64 474.19 73.64 488.95 73.64 491.58 73.64 499.17 73.64 501.33 75.8 501.33"/><path class="cls-62" d="M77.88,297.24c0,.76.62,1.38,1.38,1.38h9.52c.76,0,1.38-.62,1.38-1.38s-.62-1.38-1.38-1.38h-9.52c-.76,0-1.38.62-1.38,1.38,0,0,0-.76,0,0Z"/><path class="cls-26" d="M77.88,297.24c0,.76.62,1.38,1.38,1.38h9.52c.76,0,1.38-.62,1.38-1.38s-.62-1.38-1.38-1.38h-9.52c-.76,0-1.38.62-1.38,1.38,0,0,0-.76,0,0Z"/><polyline class="cls-25" points="75.8 298.43 73.64 298.43 73.64 298.54 73.64 299.67 73.64 301.48 73.64 301.59 73.64 303.9 73.64 305.98 73.64 308.96 73.64 311.29 73.64 313.57 73.64 316.88 73.64 318.02 73.64 318.22 73.64 319.22 73.64 320.24 73.64 321.43 73.64 321.69 73.64 321.79 73.64 324.47 73.64 325.32 73.64 329.45 73.64 330.44 73.64 331.95 73.64 333.23 73.64 336.18 73.64 337.13 73.64 338.35 73.64 340.48 73.64 341.8 73.64 344.68 73.64 349.12 73.64 350.37 73.64 352 73.64 352.39 73.64 353.65 73.64 354.25 73.64 362.1 73.64 364.8 73.64 369.15 73.64 370.84 73.64 372.03 73.64 374.25 73.64 375.89 73.64 377.87 73.64 379.04 73.64 380.62 73.64 381.63 73.64 382.05 73.64 382.91 73.64 384.59 73.64 385.89 73.64 386.71 73.64 390.72 75.8 390.72"/><path class="cls-62" d="M77.88,419.22c0,.76.62,1.38,1.38,1.38h9.52c.76,0,1.38-.62,1.38-1.38s-.62-1.38-1.38-1.38h-9.52c-.76,0-1.38.62-1.38,1.38,0,0,0-.76,0,0Z"/><path class="cls-26" d="M77.88,419.22c0,.76.62,1.38,1.38,1.38h9.52c.76,0,1.38-.62,1.38-1.38s-.62-1.38-1.38-1.38h-9.52c-.76,0-1.38.62-1.38,1.38,0,0,0-.76,0,0Z"/><path class="cls-62" d="M77.88,392.1c0,.76.62,1.38,1.38,1.38h9.51c.76,0,1.38-.62,1.38-1.38s-.62-1.38-1.38-1.38h-9.51c-.76,0-1.38.62-1.38,1.38,0,0,0-.76,0,0Z"/><path class="cls-26" d="M77.88,392.1c0,.76.62,1.38,1.38,1.38h9.51c.76,0,1.38-.62,1.38-1.38s-.62-1.38-1.38-1.38h-9.51c-.76,0-1.38.62-1.38,1.38,0,0,0-.76,0,0Z"/><path class="cls-62" d="M77.88,276.95c0,.76.62,1.38,1.38,1.38h9.51c.76,0,1.38-.62,1.38-1.38s-.62-1.38-1.38-1.38h-9.51c-.76,0-1.38.62-1.38,1.38,0,0,0-.76,0,0Z"/><path class="cls-26" d="M77.88,276.95c0,.76.62,1.38,1.38,1.38h9.51c.76,0,1.38-.62,1.38-1.38s-.62-1.38-1.38-1.38h-9.51c-.76,0-1.38.62-1.38,1.38,0,0,0-.76,0,0Z"/><path class="cls-62" d="M77.88,264.66c0,.76.62,1.38,1.38,1.38h9.51c.76,0,1.38-.62,1.38-1.38s-.62-1.38-1.38-1.38h-9.51c-.76,0-1.38.62-1.38,1.38,0,0,0-.76,0,0Z"/><path class="cls-26" d="M77.88,264.66c0,.76.62,1.38,1.38,1.38h9.51c.76,0,1.38-.62,1.38-1.38s-.62-1.38-1.38-1.38h-9.51c-.76,0-1.38.62-1.38,1.38,0,0,0-.76,0,0Z"/><path class="cls-62" d="M77.88,221.66c0,.76.62,1.38,1.38,1.38h9.51c.76,0,1.38-.62,1.38-1.38s-.62-1.38-1.38-1.38h-9.51c-.76,0-1.38.62-1.38,1.38,0,0,0-.76,0,0Z"/><path class="cls-26" d="M77.88,221.66c0,.76.62,1.38,1.38,1.38h9.51c.76,0,1.38-.62,1.38-1.38s-.62-1.38-1.38-1.38h-9.51c-.76,0-1.38.62-1.38,1.38,0,0,0-.76,0,0Z"/><path class="cls-62" d="M77.88,175.01c0,.76.62,1.38,1.38,1.38h9.51c.76,0,1.38-.62,1.38-1.38s-.62-1.38-1.38-1.38h-9.51c-.76,0-1.38.62-1.38,1.38,0,0,0-.76,0,0Z"/><path class="cls-26" d="M77.88,175.01c0,.76.62,1.38,1.38,1.38h9.51c.76,0,1.38-.62,1.38-1.38s-.62-1.38-1.38-1.38h-9.51c-.76,0-1.38.62-1.38,1.38,0,0,0-.76,0,0Z"/><path class="cls-62" d="M77.88,113.06c0,.76.62,1.38,1.38,1.38h9.51c.76,0,1.38-.62,1.38-1.38s-.62-1.38-1.38-1.38h-9.51c-.76,0-1.38.62-1.38,1.38,0,0,0-.76,0,0Z"/><path class="cls-26" d="M77.88,113.06c0,.76.62,1.38,1.38,1.38h9.51c.76,0,1.38-.62,1.38-1.38s-.62-1.38-1.38-1.38h-9.51c-.76,0-1.38.62-1.38,1.38,0,0,0-.76,0,0Z"/><path class="cls-62" d="M77.88,213.68c0,.76.62,1.38,1.38,1.38h9.52c.76,0,1.38-.62,1.38-1.38s-.62-1.38-1.38-1.38h-9.52c-.76,0-1.38.62-1.38,1.38,0,0,0-.76,0,0Z"/><path class="cls-26" d="M77.88,213.68c0,.76.62,1.38,1.38,1.38h9.52c.76,0,1.38-.62,1.38-1.38s-.62-1.38-1.38-1.38h-9.52c-.76,0-1.38.62-1.38,1.38,0,0,0-.76,0,0Z"/><path class="cls-62" d="M77.88,163.23c0,.76.62,1.38,1.38,1.38h9.51c.76,0,1.38-.62,1.38-1.38s-.62-1.38-1.38-1.38h-9.51c-.76,0-1.38.62-1.38,1.38,0,0,0-.76,0,0Z"/><path class="cls-26" d="M77.88,163.23c0,.76.62,1.38,1.38,1.38h9.51c.76,0,1.38-.62,1.38-1.38s-.62-1.38-1.38-1.38h-9.51c-.76,0-1.38.62-1.38,1.38,0,0,0-.76,0,0Z"/><line class="cls-35" x1="87.44" y1="625.55" x2="87.44" y2="57.47"/><line class="cls-35" x1="80.23" y1="57.47" x2="80.23" y2="625.55"/><polyline class="cls-24" points="75.8 420.6 73.64 420.6 73.64 421.41 73.64 423.16 73.64 424.6 73.64 425.11 73.64 427.56 73.64 440.12 73.64 440.91 75.8 440.91"/><polyline class="cls-24" points="75.8 393.48 73.64 393.48 73.64 395.54 73.64 402.32 73.64 404.19 73.64 405.73 73.64 407.2 73.64 408.93 73.64 411.79 73.64 417.18 73.64 417.85 75.8 417.85"/><polyline class="cls-25" points="75.8 278.33 73.64 278.33 73.64 279.03 73.64 280.53 73.64 280.89 73.64 283.1 73.64 288.67 73.64 291.95 73.64 295.87 75.8 295.87"/><polyline class="cls-25" points="75.8 266.04 73.64 266.04 73.64 269.08 73.64 271.2 73.64 271.43 73.64 273.91 73.64 274.35 73.64 274.45 73.64 274.8 73.64 275.57 75.8 275.57"/><polyline class="cls-25" points="75.8 223.04 73.64 223.04 73.64 223.44 73.64 227.39 73.64 227.88 73.64 228.55 73.64 230.51 73.64 231.79 73.64 231.89 73.64 232.16 73.64 234.78 73.64 235.28 73.64 237.79 73.64 238.19 73.64 239.92 73.64 240.9 73.64 242.33 73.64 244.8 73.64 245.38 73.64 246.82 73.64 248.05 73.64 248.08 73.64 248.25 73.64 249.8 73.64 249.85 73.64 254.95 73.64 256.91 73.64 257.53 73.64 257.55 73.64 259.44 73.64 260.93 73.64 263.28 75.8 263.28"/><polyline class="cls-25" points="75.8 176.39 73.64 176.39 73.64 178.08 73.64 182.08 73.64 183.07 73.64 184.09 73.64 184.91 73.64 185.64 73.64 188.51 73.64 199.37 73.64 200.77 73.64 202.13 73.64 204.81 73.64 212.31 75.8 212.31"/><polyline class="cls-25" points="75.8 114.44 73.64 114.44 73.64 114.45 73.64 120.23 73.64 123.36 73.64 125.41 73.64 126.67 73.64 128.31 73.64 130.13 73.64 132.12 73.64 132.57 73.64 133.88 73.64 135.07 73.64 136.64 73.64 141.44 73.64 144.06 73.64 145.51 73.64 148.51 73.64 159.81 73.64 161.75 73.64 161.85 75.8 161.85"/><polyline class="cls-25" points="75.8 215.06 73.64 215.06 73.64 215.95 73.64 218.9 73.64 219.1 73.64 220.28 75.8 220.28"/><polyline class="cls-25" points="75.8 164.61 73.64 164.61 73.64 169.97 73.64 172.55 73.64 173.2 73.64 173.63 75.8 173.63"/><path class="cls-62" d="M77.88,66.26c0,.76.62,1.38,1.38,1.38h9.52c.76,0,1.38-.62,1.38-1.38s-.62-1.38-1.38-1.38h-9.52c-.76,0-1.38.62-1.38,1.38,0,0,0-.76,0,0Z"/><path class="cls-27" d="M77.88,66.26c0,.76.62,1.38,1.38,1.38h9.52c.76,0,1.38-.62,1.38-1.38s-.62-1.38-1.38-1.38h-9.52c-.76,0-1.38.62-1.38,1.38,0,0,0-.76,0,0Z"/><path class="cls-62" d="M77.88,556.11c0,.76.62,1.38,1.38,1.38h9.51c.76,0,1.38-.62,1.38-1.38s-.62-1.38-1.38-1.38h-9.51c-.76,0-1.38.62-1.38,1.38,0,0,0-.76,0,0Z"/><path class="cls-27" d="M77.88,556.11c0,.76.62,1.38,1.38,1.38h9.51c.76,0,1.38-.62,1.38-1.38s-.62-1.38-1.38-1.38h-9.51c-.76,0-1.38.62-1.38,1.38,0,0,0-.76,0,0Z"/><path class="cls-62" d="M77.88,533.07c0,.76.62,1.38,1.38,1.38h9.51c.76,0,1.38-.62,1.38-1.38s-.62-1.38-1.38-1.38h-9.51c-.76,0-1.38.62-1.38,1.38,0,0,0-.76,0,0Z"/><path class="cls-27" d="M77.88,533.07c0,.76.62,1.38,1.38,1.38h9.51c.76,0,1.38-.62,1.38-1.38s-.62-1.38-1.38-1.38h-9.51c-.76,0-1.38.62-1.38,1.38,0,0,0-.76,0,0Z"/><path class="cls-62" d="M77.88,502.71c0,.76.62,1.38,1.38,1.38h9.51c.76,0,1.38-.62,1.38-1.38s-.62-1.38-1.38-1.38h-9.51c-.76,0-1.38.62-1.38,1.38,0,0,0-.76,0,0Z"/><path class="cls-27" d="M77.88,502.71c0,.76.62,1.38,1.38,1.38h9.51c.76,0,1.38-.62,1.38-1.38s-.62-1.38-1.38-1.38h-9.51c-.76,0-1.38.62-1.38,1.38,0,0,0-.76,0,0Z"/><path class="cls-62" d="M77.88,442.28c0,.76.62,1.38,1.38,1.38h9.52c.76,0,1.38-.62,1.38-1.38s-.62-1.38-1.38-1.38h-9.52c-.76,0-1.38.62-1.38,1.38,0,0,0-.76,0,0Z"/><path class="cls-27" d="M77.88,442.28c0,.76.62,1.38,1.38,1.38h9.52c.76,0,1.38-.62,1.38-1.38s-.62-1.38-1.38-1.38h-9.52c-.76,0-1.38.62-1.38,1.38,0,0,0-.76,0,0Z"/><path class="cls-62" d="M77.88,297.24c0,.76.62,1.38,1.38,1.38h9.52c.76,0,1.38-.62,1.38-1.38s-.62-1.38-1.38-1.38h-9.52c-.76,0-1.38.62-1.38,1.38,0,0,0-.76,0,0Z"/><path class="cls-27" d="M77.88,297.24c0,.76.62,1.38,1.38,1.38h9.52c.76,0,1.38-.62,1.38-1.38s-.62-1.38-1.38-1.38h-9.52c-.76,0-1.38.62-1.38,1.38,0,0,0-.76,0,0Z"/><path class="cls-62" d="M77.88,419.22c0,.76.62,1.38,1.38,1.38h9.52c.76,0,1.38-.62,1.38-1.38s-.62-1.38-1.38-1.38h-9.52c-.76,0-1.38.62-1.38,1.38,0,0,0-.76,0,0Z"/><path class="cls-27" d="M77.88,419.22c0,.76.62,1.38,1.38,1.38h9.52c.76,0,1.38-.62,1.38-1.38s-.62-1.38-1.38-1.38h-9.52c-.76,0-1.38.62-1.38,1.38,0,0,0-.76,0,0Z"/><path class="cls-62" d="M77.88,392.1c0,.76.62,1.38,1.38,1.38h9.51c.76,0,1.38-.62,1.38-1.38s-.62-1.38-1.38-1.38h-9.51c-.76,0-1.38.62-1.38,1.38,0,0,0-.76,0,0Z"/><path class="cls-27" d="M77.88,392.1c0,.76.62,1.38,1.38,1.38h9.51c.76,0,1.38-.62,1.38-1.38s-.62-1.38-1.38-1.38h-9.51c-.76,0-1.38.62-1.38,1.38,0,0,0-.76,0,0Z"/><path class="cls-62" d="M77.88,276.95c0,.76.62,1.38,1.38,1.38h9.51c.76,0,1.38-.62,1.38-1.38s-.62-1.38-1.38-1.38h-9.51c-.76,0-1.38.62-1.38,1.38,0,0,0-.76,0,0Z"/><path class="cls-27" d="M77.88,276.95c0,.76.62,1.38,1.38,1.38h9.51c.76,0,1.38-.62,1.38-1.38s-.62-1.38-1.38-1.38h-9.51c-.76,0-1.38.62-1.38,1.38,0,0,0-.76,0,0Z"/><path class="cls-62" d="M77.88,264.66c0,.76.62,1.38,1.38,1.38h9.51c.76,0,1.38-.62,1.38-1.38s-.62-1.38-1.38-1.38h-9.51c-.76,0-1.38.62-1.38,1.38,0,0,0-.76,0,0Z"/><path class="cls-27" d="M77.88,264.66c0,.76.62,1.38,1.38,1.38h9.51c.76,0,1.38-.62,1.38-1.38s-.62-1.38-1.38-1.38h-9.51c-.76,0-1.38.62-1.38,1.38,0,0,0-.76,0,0Z"/><path class="cls-62" d="M77.88,221.66c0,.76.62,1.38,1.38,1.38h9.51c.76,0,1.38-.62,1.38-1.38s-.62-1.38-1.38-1.38h-9.51c-.76,0-1.38.62-1.38,1.38,0,0,0-.76,0,0Z"/><path class="cls-27" d="M77.88,221.66c0,.76.62,1.38,1.38,1.38h9.51c.76,0,1.38-.62,1.38-1.38s-.62-1.38-1.38-1.38h-9.51c-.76,0-1.38.62-1.38,1.38,0,0,0-.76,0,0Z"/><path class="cls-62" d="M77.88,175.01c0,.76.62,1.38,1.38,1.38h9.51c.76,0,1.38-.62,1.38-1.38s-.62-1.38-1.38-1.38h-9.51c-.76,0-1.38.62-1.38,1.38,0,0,0-.76,0,0Z"/><path class="cls-27" d="M77.88,175.01c0,.76.62,1.38,1.38,1.38h9.51c.76,0,1.38-.62,1.38-1.38s-.62-1.38-1.38-1.38h-9.51c-.76,0-1.38.62-1.38,1.38,0,0,0-.76,0,0Z"/><path class="cls-62" d="M77.88,113.06c0,.76.62,1.38,1.38,1.38h9.51c.76,0,1.38-.62,1.38-1.38s-.62-1.38-1.38-1.38h-9.51c-.76,0-1.38.62-1.38,1.38,0,0,0-.76,0,0Z"/><path class="cls-27" d="M77.88,113.06c0,.76.62,1.38,1.38,1.38h9.51c.76,0,1.38-.62,1.38-1.38s-.62-1.38-1.38-1.38h-9.51c-.76,0-1.38.62-1.38,1.38,0,0,0-.76,0,0Z"/><path class="cls-62" d="M77.88,213.68c0,.76.62,1.38,1.38,1.38h9.52c.76,0,1.38-.62,1.38-1.38s-.62-1.38-1.38-1.38h-9.52c-.76,0-1.38.62-1.38,1.38,0,0,0-.76,0,0Z"/><path class="cls-27" d="M77.88,213.68c0,.76.62,1.38,1.38,1.38h9.52c.76,0,1.38-.62,1.38-1.38s-.62-1.38-1.38-1.38h-9.52c-.76,0-1.38.62-1.38,1.38,0,0,0-.76,0,0Z"/><path class="cls-62" d="M77.88,163.23c0,.76.62,1.38,1.38,1.38h9.51c.76,0,1.38-.62,1.38-1.38s-.62-1.38-1.38-1.38h-9.51c-.76,0-1.38.62-1.38,1.38,0,0,0-.76,0,0Z"/><path class="cls-27" d="M77.88,163.23c0,.76.62,1.38,1.38,1.38h9.51c.76,0,1.38-.62,1.38-1.38s-.62-1.38-1.38-1.38h-9.51c-.76,0-1.38.62-1.38,1.38,0,0,0-.76,0,0Z"/><text class="cls-9" transform="translate(19.87 90.42) scale(.89 1)"><tspan x="0" y="0">500</tspan></text><text class="cls-9" transform="translate(19.87 120.95) scale(.89 1)"><tspan x="0" y="0">550</tspan></text><text class="cls-9" transform="translate(19.87 151.49) scale(.89 1)"><tspan x="0" y="0">600</tspan></text><text class="cls-9" transform="translate(19.87 182.03) scale(.89 1)"><tspan x="0" y="0">650</tspan></text><text class="cls-9" transform="translate(19.87 212.57) scale(.89 1)"><tspan x="0" y="0">700</tspan></text><text class="cls-9" transform="translate(19.87 243.11) scale(.89 1)"><tspan x="0" y="0">750</tspan></text><text class="cls-9" transform="translate(19.87 273.65) scale(.89 1)"><tspan x="0" y="0">800</tspan></text><text class="cls-9" transform="translate(19.87 304.19) scale(.89 1)"><tspan x="0" y="0">850</tspan></text><text class="cls-9" transform="translate(19.87 334.73) scale(.89 1)"><tspan x="0" y="0">900</tspan></text><text class="cls-9" transform="translate(19.87 365.27) scale(.89 1)"><tspan x="0" y="0">950</tspan></text><text class="cls-9" transform="translate(15.07 395.81) scale(.89 1)"><tspan x="0" y="0">1,000</tspan></text><text class="cls-9" transform="translate(15.07 426.35) scale(.89 1)"><tspan x="0" y="0">1,050</tspan></text><text class="cls-9" transform="translate(15.07 456.89) scale(.89 1)"><tspan x="0" y="0">1,100</tspan></text><text class="cls-9" transform="translate(15.07 487.43) scale(.89 1)"><tspan x="0" y="0">1,150</tspan></text><text class="cls-9" transform="translate(15.07 517.97) scale(.89 1)"><tspan x="0" y="0">1,200</tspan></text><text class="cls-9" transform="translate(15.07 548.51) scale(.89 1)"><tspan x="0" y="0">1,250</tspan></text><text class="cls-9" transform="translate(15.07 579.05) scale(.89 1)"><tspan x="0" y="0">1,300</tspan></text><text class="cls-9" transform="translate(15.07 609.59) scale(.89 1)"><tspan x="0" y="0">1,350</tspan></text><text class="cls-9" transform="translate(19.87 59.88) scale(.89 1)"><tspan x="0" y="0">450</tspan></text><text class="cls-9" transform="translate(15.07 637.72) scale(.89 1)"><tspan x="0" y="0">1,400</tspan></text><line class="cls-31" x1="31.04" y1="57.23" x2="38.24" y2="57.23"/><line class="cls-31" x1="31.04" y1="87.78" x2="38.24" y2="87.78"/><line class="cls-31" x1="31.04" y1="118.34" x2="38.24" y2="118.34"/><line class="cls-31" x1="31.04" y1="148.9" x2="38.24" y2="148.9"/><line class="cls-31" x1="31.04" y1="179.46" x2="38.24" y2="179.46"/><line class="cls-31" x1="31.04" y1="210.01" x2="38.24" y2="210.01"/><line class="cls-31" x1="31.04" y1="240.57" x2="38.24" y2="240.57"/><line class="cls-31" x1="31.04" y1="271.13" x2="38.24" y2="271.13"/><line class="cls-31" x1="31.04" y1="301.69" x2="38.24" y2="301.69"/><line class="cls-31" x1="31.04" y1="332.24" x2="38.24" y2="332.24"/><line class="cls-31" x1="31.04" y1="362.8" x2="38.24" y2="362.8"/><line class="cls-31" x1="31.04" y1="393.36" x2="38.24" y2="393.36"/><line class="cls-31" x1="31.04" y1="423.92" x2="38.24" y2="423.92"/><line class="cls-31" x1="31.04" y1="454.48" x2="38.24" y2="454.48"/><line class="cls-31" x1="31.04" y1="485.03" x2="38.24" y2="485.03"/><line class="cls-31" x1="31.04" y1="515.59" x2="38.24" y2="515.59"/><line class="cls-31" x1="31.04" y1="546.15" x2="38.24" y2="546.15"/><line class="cls-31" x1="31.04" y1="576.7" x2="38.24" y2="576.7"/><line class="cls-31" x1="31.04" y1="607.26" x2="38.24" y2="607.26"/><line class="cls-31" x1="31.04" y1="637.82" x2="38.24" y2="637.82"/><polygon class="cls-39" points="91.47 174.64 87.82 177.02 91.47 179.39 91.47 174.64"/><polygon class="cls-40" points="91.47 213.32 87.82 215.69 91.47 218.07 91.47 213.32"/><polygon class="cls-40" points="91.47 221.29 87.82 223.67 91.47 226.04 91.47 221.29"/><polygon class="cls-39" points="91.47 502.35 87.82 504.72 91.47 507.09 91.47 502.35"/><polygon class="cls-40" points="91.47 441.92 87.82 444.29 91.47 446.67 91.47 441.92"/><polygon class="cls-40" points="91.47 112.69 87.82 115.06 91.47 117.44 91.47 112.69"/><polygon class="cls-40" points="91.47 162.87 87.82 165.24 91.47 167.61 91.47 162.87"/><polygon class="cls-40" points="91.47 276.58 87.82 278.95 91.47 281.33 91.47 276.58"/><polygon class="cls-40" points="91.47 296.88 87.82 299.25 91.47 301.63 91.47 296.88"/><polygon class="cls-39" points="91.47 391.73 87.82 394.11 91.47 396.48 91.47 391.73"/><polygon class="cls-40" points="91.47 418.86 87.82 421.23 91.47 423.61 91.47 418.86"/><polygon class="cls-39" points="91.47 97.27 87.82 99.64 91.47 102.01 91.47 97.27"/><polygon class="cls-39" points="91.47 264.29 87.82 266.67 91.47 269.04 91.47 264.29"/><polygon class="cls-40" points="91.47 532.7 87.82 535.08 91.47 537.45 91.47 532.7"/><polygon class="cls-40" points="91.47 555.74 87.82 558.12 91.47 560.49 91.47 555.74"/><polygon class="cls-84" points="95.15 72.94 98.18 75.79 101.2 72.94 95.15 72.94"/><line class="cls-31" x1="59.29" y1="76.17" x2="60.29" y2="76.17"/><line class="cls-22" x1="62.35" y1="76.17" x2="77.78" y2="76.17"/><line class="cls-31" x1="78.81" y1="76.17" x2="79.81" y2="76.17"/><line class="cls-31" x1="87.44" y1="76.17" x2="88.44" y2="76.17"/><line class="cls-32" x1="90.55" y1="76.17" x2="106.39" y2="76.17"/><line class="cls-31" x1="107.44" y1="76.17" x2="108.44" y2="76.17"/><text class="cls-12" transform="translate(112.5 67.55) scale(.89 1)"><tspan class="cls-13"><tspan x="0" y="0">WATER LEVEL</tspan></tspan><tspan class="cls-53"><tspan x="0" y="6">481 ft on 2005-07-19</tspan></tspan></text><text class="cls-12" transform="translate(112.5 632.05) scale(.89 1)"><tspan class="cls-13"><tspan x="0" y="0">HOLE DEPTH</tspan></tspan><tspan class="cls-53"><tspan x="0" y="6">1,427 ft</tspan></tspan></text></g></g><g id="Explanation"><text class="cls-7" transform="translate(134.16 104.68)"><tspan x="0" y="0">EXPLAN</tspan><tspan class="cls-56" x="32.45" y="0">A</tspan><tspan x="37.63" y="0">TION</tspan></text><text class="cls-5" transform="translate(127.83 120.81)"><tspan x="0" y="0">Lithology</tspan></text><text class="cls-8" transform="translate(151.46 175.96)"><tspan class="cls-85" x="0" y="0">Se</tspan><tspan class="cls-102" x="8.82" y="0">d</tspan><tspan class="cls-17" x="12.79" y="0">i</tspan><tspan class="cls-86" x="14.44" y="0">m</tspan><tspan class="cls-66" x="20.4" y="0">e</tspan><tspan class="cls-83" x="24.4" y="0">n</tspan><tspan class="cls-67" x="28.34" y="0">t</tspan></text><text class="cls-8" transform="translate(151.46 136.8)"><tspan class="cls-19" x="0" y="0">D</tspan><tspan class="cls-98" x="5.21" y="0">e</tspan><tspan class="cls-51" x="9.21" y="0">n</tspan><tspan class="cls-98" x="13.2" y="0">s</tspan><tspan class="cls-75" x="16.81" y="0">e </tspan><tspan class="cls-46" x="22.65" y="0">ba</tspan><tspan class="cls-107" x="30.62" y="0">s</tspan><tspan class="cls-70" x="34.25" y="0">a</tspan><tspan class="cls-94" x="38.25" y="0">l</tspan><tspan class="cls-67" x="39.89" y="0">t</tspan></text><rect class="cls-36" x="135.03" y="127.47" width="12.8" height="13.62"/><text class="cls-8" transform="translate(151.46 156.38)"><tspan class="cls-58" x="0" y="0">F</tspan><tspan class="cls-85" x="4.17" y="0">r</tspan><tspan class="cls-60" x="6.63" y="0">a</tspan><tspan class="cls-42" x="10.6" y="0">c</tspan><tspan class="cls-55" x="14.27" y="0">t</tspan><tspan class="cls-94" x="16.32" y="0">u</tspan><tspan class="cls-59" x="20.3" y="0">r</tspan><tspan class="cls-15" x="22.74" y="0">e</tspan><tspan class="cls-75" x="26.76" y="0">d </tspan><tspan class="cls-14" x="32.6" y="0">ba</tspan><tspan class="cls-107" x="40.58" y="0">s</tspan><tspan class="cls-18" x="44.21" y="0">a</tspan><tspan class="cls-43" x="48.2" y="0">l</tspan><tspan class="cls-67" x="49.84" y="0">t</tspan></text><rect class="cls-37" x="135.03" y="147.05" width="12.8" height="13.62"/><rect class="cls-38" x="135.03" y="166.63" width="12.8" height="13.62"/><line class="cls-20" x1="145.97" y1="231.31" x2="163.89" y2="231.31"/><text class="cls-5" transform="translate(127.83 196.56)"><tspan x="0" y="0">Completion</tspan></text><line class="cls-20" x1="163.89" y1="244.23" x2="160.3" y2="244.23"/><polyline class="cls-20" points="163.89 256.7 158.64 256.7 134.68 249.75"/><polygon class="cls-40" points="150.25 241.97 146.6 244.34 150.25 246.72 150.25 241.97"/><polyline class="cls-21" points="135.45 287.35 133.29 287.35 133.29 232.69 135.45 232.69"/><text class="cls-4" transform="translate(152.35 246.43) scale(.89 1)"><tspan x="0" y="0">P2</tspan></text><text class="cls-4" transform="translate(125.67 250.93) scale(.89 1)"><tspan x="0" y="0">Z1</tspan></text><text class="cls-10" transform="translate(125.67 250.93) scale(.89 1)"><tspan x="0" y="0">Z1</tspan></text><line class="cls-20" x1="145.97" y1="218.82" x2="163.89" y2="218.82"/><line class="cls-20" x1="150.59" y1="207.2" x2="163.89" y2="207.2"/><text class="cls-8" transform="translate(165.88 234.1)"><tspan class="cls-99" x="0" y="0">P</tspan><tspan class="cls-60" x="4.7" y="0">a</tspan><tspan class="cls-1" x="8.68" y="0">c</tspan><tspan class="cls-101" x="12.34" y="0">k</tspan><tspan class="cls-82" x="15.8" y="0">e</tspan><tspan x="19.81" y="0">r</tspan></text><text class="cls-8" transform="translate(165.88 246.67)"><tspan class="cls-41" x="0" y="0">M</tspan><tspan class="cls-66" x="6.01" y="0">e</tspan><tspan class="cls-91" x="10.02" y="0">a</tspan><tspan class="cls-65" x="14" y="0">s</tspan><tspan class="cls-94" x="17.58" y="0">u</tspan><tspan class="cls-59" x="21.57" y="0">r</tspan><tspan class="cls-66" x="24" y="0">e</tspan><tspan class="cls-86" x="28.01" y="0">m</tspan><tspan class="cls-66" x="33.96" y="0">e</tspan><tspan class="cls-83" x="37.96" y="0">n</tspan><tspan class="cls-67" x="41.91" y="0">t </tspan><tspan class="cls-74" x="45.8" y="0">p</tspan><tspan class="cls-107" x="49.83" y="0">o</tspan><tspan class="cls-72" x="53.85" y="0">r</tspan><tspan x="56.54" y="0">t </tspan><tspan class="cls-57" x="60.43" y="0">nu</tspan><tspan class="cls-104" x="68.38" y="0">m</tspan><tspan class="cls-44" x="74.32" y="0">b</tspan><tspan class="cls-82" x="78.34" y="0">e</tspan><tspan x="82.35" y="0">r</tspan></text><text class="cls-8" transform="translate(165.88 259.24)"><tspan class="cls-80" x="0" y="0">M</tspan><tspan class="cls-15" x="6.02" y="0">o</tspan><tspan class="cls-43" x="10.04" y="0">n</tspan><tspan class="cls-70" x="14.02" y="0">i</tspan><tspan class="cls-50" x="15.68" y="0">t</tspan><tspan class="cls-107" x="17.69" y="0">o</tspan><tspan class="cls-76" x="21.72" y="0">r</tspan><tspan class="cls-45" x="24.25" y="0">i</tspan><tspan class="cls-96" x="25.91" y="0">n</tspan><tspan x="29.91" y="0">g </tspan><tspan class="cls-89" x="35.75" y="0">z</tspan><tspan class="cls-85" x="39.31" y="0">o</tspan><tspan class="cls-104" x="43.33" y="0">n</tspan><tspan class="cls-75" x="47.33" y="0">e </tspan><tspan class="cls-65" x="53.17" y="0">nu</tspan><tspan class="cls-88" x="61.12" y="0">m</tspan><tspan class="cls-44" x="67.05" y="0">b</tspan><tspan class="cls-82" x="71.07" y="0">e</tspan><tspan x="75.08" y="0">r</tspan></text><text class="cls-8" transform="translate(165.88 221.53)"><tspan class="cls-52" x="0" y="0">M</tspan><tspan class="cls-91" x="5.99" y="0">ul</tspan><tspan class="cls-3" x="11.62" y="0">t</tspan><tspan class="cls-17" x="13.7" y="0">i</tspan><tspan class="cls-74" x="15.36" y="0">p</tspan><tspan class="cls-107" x="19.39" y="0">o</tspan><tspan class="cls-72" x="23.41" y="0">r</tspan><tspan x="26.1" y="0">t </tspan><tspan class="cls-16" x="29.99" y="0">c</tspan><tspan class="cls-91" x="33.71" y="0">a</tspan><tspan class="cls-71" x="37.7" y="0">s</tspan><tspan class="cls-45" x="41.3" y="0">i</tspan><tspan class="cls-66" x="42.95" y="0">n</tspan><tspan x="46.96" y="0">g</tspan></text><text class="cls-8" transform="translate(165.88 271.81)"><tspan class="cls-54" x="0" y="0">S</tspan><tspan class="cls-61" x="4.79" y="0">a</tspan><tspan class="cls-104" x="8.79" y="0">m</tspan><tspan class="cls-86" x="14.72" y="0">pl</tspan><tspan x="20.41" y="0">e </tspan><tspan class="cls-78" x="26.25" y="0">c</tspan><tspan class="cls-107" x="29.97" y="0">o</tspan><tspan class="cls-14" x="33.99" y="0">l</tspan><tspan class="cls-100" x="35.64" y="0">l</tspan><tspan class="cls-93" x="37.32" y="0">e</tspan><tspan class="cls-42" x="41.33" y="0">c</tspan><tspan class="cls-3" x="45.01" y="0">ti</tspan><tspan class="cls-85" x="48.78" y="0">o</tspan><tspan x="52.8" y="0">n </tspan><tspan class="cls-48" x="58.64" y="0">a</tspan><tspan x="62.59" y="0">t </tspan><tspan class="cls-74" x="66.48" y="0">p</tspan><tspan class="cls-64" x="70.51" y="0">o</tspan><tspan class="cls-79" x="74.54" y="0">r</tspan><tspan class="cls-75" x="77.23" y="0">t</tspan></text><text class="cls-8" transform="translate(165.88 208.96)"><tspan class="cls-69" x="0" y="0">W</tspan><tspan class="cls-44" x="6.58" y="0">e</tspan><tspan class="cls-14" x="10.59" y="0">l</tspan><tspan class="cls-75" x="12.24" y="0">l </tspan><tspan class="cls-16" x="15.74" y="0">c</tspan><tspan class="cls-51" x="19.46" y="0">a</tspan><tspan class="cls-47" x="23.45" y="0">si</tspan><tspan class="cls-96" x="28.71" y="0">n</tspan><tspan x="32.71" y="0">g</tspan></text><line class="cls-33" x1="135.23" y1="202.46" x2="135.23" y2="214.96"/><line class="cls-33" x1="149.72" y1="202.46" x2="149.72" y2="214.96"/><rect x="138.94" y="280.41" width="7.09" height="2.65"/><line class="cls-28" x1="146.03" y1="282.57" x2="145.92" y2="202.46"/><line class="cls-28" x1="138.82" y1="202.46" x2="138.94" y2="282.57"/><path class="cls-62" d="M136.34,231.31c0,.76.62,1.38,1.38,1.38h9.52c.76,0,1.38-.62,1.38-1.38s-.62-1.38-1.38-1.38h-9.52c-.76,0-1.38.62-1.38,1.38,0,0,0-.76,0,0Z"/><path class="cls-27" d="M136.34,231.31c0,.76.62,1.38,1.38,1.38h9.52c.76,0,1.38-.62,1.38-1.38s-.62-1.38-1.38-1.38h-9.52c-.76,0-1.38.62-1.38,1.38,0,0,0-.76,0,0Z"/><text class="cls-5" transform="translate(127.83 303.87)"><tspan x="0" y="0">Borehole</tspan></text><line class="cls-23" x1="147.83" y1="335.05" x2="139.74" y2="343.14"/><line class="cls-23" x1="147.83" y1="340.27" x2="144.96" y2="343.14"/><line class="cls-23" x1="142.92" y1="329.52" x2="135.03" y2="337.41"/><line class="cls-23" x1="147.83" y1="329.83" x2="135.03" y2="342.63"/><line class="cls-23" x1="137.7" y1="329.52" x2="135.03" y2="332.19"/><rect class="cls-29" x="135.03" y="329.52" width="12.8" height="13.62"/><text class="cls-8" transform="translate(151.46 338.2)"><tspan class="cls-74" x="0" y="0">B</tspan><tspan class="cls-44" x="4.81" y="0">el</tspan><tspan class="cls-77" x="10.5" y="0">o</tspan><tspan class="cls-75" x="14.47" y="0">w </tspan><tspan class="cls-95" x="21.47" y="0">h</tspan><tspan class="cls-107" x="25.48" y="0">o</tspan><tspan class="cls-100" x="29.51" y="0">l</tspan><tspan class="cls-75" x="31.18" y="0">e </tspan><tspan class="cls-59" x="37.02" y="0">d</tspan><tspan class="cls-98" x="41.01" y="0">e</tspan><tspan class="cls-92" x="45.02" y="0">p</tspan><tspan class="cls-68" x="48.97" y="0">t</tspan><tspan x="51.05" y="0">h</tspan></text><polygon class="cls-84" points="138.4 312.05 141.43 314.9 144.45 312.05 138.4 312.05"/><line class="cls-31" x1="135.03" y1="315.28" x2="136.03" y2="315.28"/><line class="cls-30" x1="138.19" y1="315.28" x2="145.75" y2="315.28"/><line class="cls-31" x1="146.83" y1="315.28" x2="147.83" y2="315.28"/><text class="cls-8" transform="translate(151.46 316.53)"><tspan class="cls-69" x="0" y="0">W</tspan><tspan class="cls-48" x="6.58" y="0">at</tspan><tspan class="cls-82" x="12.54" y="0">e</tspan><tspan x="16.55" y="0">r </tspan><tspan class="cls-100" x="20.83" y="0">l</tspan><tspan class="cls-75" x="22.5" y="0">e</tspan><tspan class="cls-63" x="26.39" y="0">v</tspan><tspan class="cls-54" x="29.9" y="0">e</tspan><tspan x="33.92" y="0">l </tspan><tspan class="cls-86" x="37.42" y="0">m</tspan><tspan class="cls-96" x="43.37" y="0">e</tspan><tspan class="cls-51" x="47.37" y="0">a</tspan><tspan class="cls-65" x="51.36" y="0">s</tspan><tspan class="cls-94" x="54.94" y="0">u</tspan><tspan class="cls-59" x="58.93" y="0">r</tspan><tspan class="cls-15" x="61.36" y="0">e</tspan><tspan x="65.38" y="0">d</tspan><tspan class="cls-81" x="0" y="8.4">o</tspan><tspan class="cls-103" x="4.01" y="8.4">u</tspan><tspan class="cls-87" x="7.99" y="8.4">t</tspan><tspan class="cls-71" x="10.08" y="8.4">s</tspan><tspan class="cls-3" x="13.68" y="8.4">i</tspan><tspan class="cls-59" x="15.37" y="8.4">d</tspan><tspan x="19.37" y="8.4">e </tspan><tspan class="cls-14" x="25.21" y="8.4">mul</tspan><tspan class="cls-3" x="36.77" y="8.4">t</tspan><tspan class="cls-45" x="38.85" y="8.4">i</tspan><tspan class="cls-74" x="40.5" y="8.4">p</tspan><tspan class="cls-64" x="44.53" y="8.4">o</tspan><tspan class="cls-79" x="48.56" y="8.4">r</tspan><tspan class="cls-75" x="51.25" y="8.4">t </tspan><tspan class="cls-16" x="55.13" y="8.4">c</tspan><tspan class="cls-51" x="58.86" y="8.4">a</tspan><tspan class="cls-47" x="62.84" y="8.4">si</tspan><tspan class="cls-96" x="68.1" y="8.4">n</tspan><tspan x="72.1" y="8.4">g</tspan></text><text class="cls-8" transform="translate(165.88 284.38)"><tspan class="cls-52" x="0" y="0">M</tspan><tspan class="cls-91" x="5.99" y="0">ul</tspan><tspan class="cls-3" x="11.62" y="0">t</tspan><tspan class="cls-17" x="13.7" y="0">i</tspan><tspan class="cls-74" x="15.36" y="0">p</tspan><tspan class="cls-107" x="19.39" y="0">o</tspan><tspan class="cls-72" x="23.41" y="0">r</tspan><tspan class="cls-46" x="26.1" y="0">t</tspan><tspan class="cls-73" x="28.14" y="0">-</tspan><tspan class="cls-16" x="30.79" y="0">c</tspan><tspan class="cls-94" x="34.51" y="0">a</tspan><tspan class="cls-71" x="38.49" y="0">s</tspan><tspan class="cls-45" x="42.1" y="0">i</tspan><tspan class="cls-96" x="43.75" y="0">n</tspan><tspan class="cls-75" x="47.75" y="0">g </tspan><tspan class="cls-98" x="53.59" y="0">en</tspan><tspan class="cls-75" x="61.6" y="0">d </tspan><tspan class="cls-16" x="67.44" y="0">c</tspan><tspan class="cls-45" x="71.16" y="0">a</tspan><tspan x="75.15" y="0">p</tspan></text><line class="cls-20" x1="145.97" y1="281.92" x2="163.89" y2="281.92"/><line class="cls-20" x1="163.89" y1="269.35" x2="152.3" y2="269.35"/><polygon class="cls-39" points="150.25 266.98 146.6 269.35 150.25 271.72 150.25 266.98"/></g><g id="Grid"><text class="cls-6" transform="translate(9.42 394.03) rotate(-90) scale(1.26 1)"><tspan x="0" y="0">Depth, in feet below land surface</tspan></text><text class="cls-11" transform="translate(51.33 52.08) rotate(-90) scale(1.16 1)"><tspan x="0" y="0">LITHOLOGY</tspan></text><text class="cls-4" transform="translate(63.14 52.54) scale(.93 1)"><tspan x="0" y="0">Zone</tspan></text><text class="cls-4" transform="translate(94.11 52.54) scale(.93 1)"><tspan x="0" y="0">Port</tspan></text><polyline class="cls-31" points="38.23 57.23 108.44 57.23 38.23 57.23"/><line class="cls-31" x1="58" y1="6.97" x2="58" y2="637.82"/><polygon class="cls-31" points="108.44 637.82 108.44 6.97 38.23 6.97 38.23 6.97 38.23 637.82 108.44 637.82"/></g></svg>