<?xml version="1.0" encoding="UTF-8"?><svg xmlns="http://www.w3.org/2000/svg" viewBox="0 0 252 645"><defs><style>.cls-1{letter-spacing:.02em;}.cls-2{letter-spacing:-.04em;}.cls-3{letter-spacing:.02em;}.cls-4,.cls-5,.cls-6,.cls-7,.cls-8{fill:#231f20;}.cls-4,.cls-9,.cls-10,.cls-6,.cls-8,.cls-11,.cls-12{font-family:ArialMT, Arial;}.cls-4,.cls-9,.cls-10,.cls-11,.cls-13{font-size:6px;}.cls-14{letter-spacing:.01em;}.cls-5,.cls-7{font-family:Arial-BoldMT, Arial;font-weight:700;}.cls-5,.cls-8{font-size:7px;}.cls-15{letter-spacing:.02em;}.cls-16{letter-spacing:.03em;}.cls-17{letter-spacing:.01em;}.cls-18{letter-spacing:.01em;}.cls-19{letter-spacing:.02em;}.cls-20,.cls-21,.cls-22,.cls-23,.cls-24,.cls-25,.cls-26,.cls-27{stroke-width:.35px;}.cls-20,.cls-21,.cls-22,.cls-23,.cls-24,.cls-28,.cls-29,.cls-30,.cls-31,.cls-32,.cls-33,.cls-34,.cls-35,.cls-36{fill:none;}.cls-20,.cls-21,.cls-37,.cls-28,.cls-29,.cls-38{stroke:#241f20;}.cls-20,.cls-25,.cls-31,.cls-26,.cls-27{stroke-miterlimit:90;}.cls-39{letter-spacing:.03em;}.cls-40{letter-spacing:.02em;}.cls-21,.cls-22,.cls-23,.cls-24,.cls-41,.cls-28,.cls-42,.cls-30,.cls-32,.cls-33,.cls-34,.cls-35,.cls-43{stroke-linejoin:round;}.cls-21,.cls-22,.cls-23,.cls-41,.cls-42,.cls-30,.cls-32,.cls-33,.cls-34,.cls-35,.cls-43{stroke-linecap:round;}.cls-44{letter-spacing:.01em;}.cls-45{letter-spacing:.02em;}.cls-46{letter-spacing:-.07em;}.cls-47{letter-spacing:.01em;}.cls-48{letter-spacing:.01em;}.cls-49{letter-spacing:.01em;}.cls-50{letter-spacing:0em;}.cls-22,.cls-25,.cls-41,.cls-42,.cls-30,.cls-31,.cls-32,.cls-33,.cls-34,.cls-26,.cls-35,.cls-43,.cls-27{stroke:#000;}.cls-9{fill:#212121;}.cls-23,.cls-24,.cls-36{stroke:#231f20;}.cls-51{letter-spacing:.01em;}.cls-52{letter-spacing:.01em;}.cls-10,.cls-12{fill:#241f20;}.cls-25{fill:#bcbdc0;}.cls-53{letter-spacing:.02em;}.cls-54{font-size:5px;}.cls-55{letter-spacing:.02em;}.cls-37{fill:red;}.cls-37,.cls-38{stroke-width:.53px;}.cls-56{letter-spacing:.01em;}.cls-57{letter-spacing:-.07em;}.cls-58{letter-spacing:.01em;}.cls-41{fill:#faaf41;}.cls-41,.cls-42,.cls-59,.cls-43{stroke-width:.25px;}.cls-60{letter-spacing:-.02em;}.cls-28,.cls-29,.cls-31,.cls-32,.cls-33,.cls-34,.cls-35{stroke-width:.5px;}.cls-61{letter-spacing:.02em;}.cls-42{fill:#b2b2b2;}.cls-29{stroke-miterlimit:10;}.cls-62{letter-spacing:.01em;}.cls-63{letter-spacing:.01em;}.cls-64{fill:#1072ba;}.cls-65{letter-spacing:0em;}.cls-66{letter-spacing:.02em;}.cls-67{letter-spacing:.01em;}.cls-68{letter-spacing:.02em;}.cls-69{letter-spacing:0em;}.cls-70{letter-spacing:.02em;}.cls-71{letter-spacing:0em;}.cls-72{letter-spacing:.01em;}.cls-73{letter-spacing:.01em;}.cls-6,.cls-7{font-size:8px;}.cls-74{letter-spacing:-.07em;}.cls-75{letter-spacing:.05em;}.cls-76{letter-spacing:.05em;}.cls-77{letter-spacing:.02em;}.cls-78{letter-spacing:0em;}.cls-79{letter-spacing:.03em;}.cls-32{stroke-dasharray:2.16 2.16;}.cls-80{letter-spacing:.01em;}.cls-81{letter-spacing:.03em;}.cls-82{letter-spacing:.05em;}.cls-83{letter-spacing:.03em;}.cls-84{letter-spacing:.02em;}.cls-34{stroke-dasharray:2.07 2.07;}.cls-85{letter-spacing:.02em;}.cls-86{letter-spacing:0em;}.cls-59{fill:#70cddd;stroke:#70cddd;}.cls-87{letter-spacing:.02em;}.cls-26{fill:#fbb041;}.cls-88{letter-spacing:.02em;}.cls-89{letter-spacing:.02em;}.cls-90{letter-spacing:.02em;}.cls-91{letter-spacing:0em;}.cls-92{letter-spacing:.01em;}.cls-93{letter-spacing:0em;}.cls-35{stroke-dasharray:2.11 2.11;}.cls-94{letter-spacing:.02em;}.cls-36{stroke-width:2px;}.cls-95{letter-spacing:.01em;}.cls-96{letter-spacing:.02em;}.cls-97{letter-spacing:0em;}.cls-38{fill:#fff;}.cls-98{letter-spacing:.02em;}.cls-99{letter-spacing:.02em;}.cls-100{letter-spacing:0em;}.cls-101{letter-spacing:.02em;}.cls-102{letter-spacing:0em;}.cls-103{letter-spacing:.01em;}.cls-104{letter-spacing:.01em;}.cls-43{fill:#f4ea0f;}.cls-105{letter-spacing:.02em;}.cls-106{letter-spacing:-.07em;}.cls-107{letter-spacing:.02em;}.cls-27{fill:#f5eb12;}</style></defs><g id="Completions"><g id="MIDDLE_2051"><line class="cls-22" x1="108.45" y1="629.83" x2="100.46" y2="637.82"/><line class="cls-22" x1="108.45" y1="635.05" x2="105.68" y2="637.82"/><line class="cls-22" x1="108.45" y1="619.39" x2="90.02" y2="637.82"/><line class="cls-22" x1="108.45" y1="624.61" x2="95.24" y2="637.82"/><line class="cls-22" x1="98.22" y1="619.18" x2="79.58" y2="637.82"/><line class="cls-22" x1="103.44" y1="619.18" x2="84.8" y2="637.82"/><line class="cls-22" x1="87.78" y1="619.18" x2="69.14" y2="637.82"/><line class="cls-22" x1="93" y1="619.18" x2="74.36" y2="637.82"/><line class="cls-22" x1="77.34" y1="619.18" x2="58.7" y2="637.82"/><line class="cls-22" x1="82.56" y1="619.18" x2="63.92" y2="637.82"/><line class="cls-22" x1="66.9" y1="619.18" x2="48.26" y2="637.82"/><line class="cls-22" x1="72.12" y1="619.18" x2="53.48" y2="637.82"/><line class="cls-22" x1="56.46" y1="619.18" x2="38.24" y2="637.4"/><line class="cls-22" x1="61.68" y1="619.18" x2="43.04" y2="637.82"/><line class="cls-22" x1="46.02" y1="619.18" x2="38.24" y2="626.96"/><line class="cls-22" x1="51.24" y1="619.18" x2="38.24" y2="632.18"/><line class="cls-22" x1="40.8" y1="619.18" x2="38.24" y2="621.74"/><rect class="cls-33" x="38.24" y="619.18" width="70.21" height="18.64"/><text class="cls-4" transform="translate(62.4 25.97) scale(1.07 1)"><tspan x="0" y="0">MIDDLE 2051</tspan><tspan x=".84" y="7.01">MU</tspan><tspan class="cls-106" x="10.17" y="7.01">L</tspan><tspan x="13.06" y="7.01">TILEVE</tspan><tspan class="cls-2" x="33.73" y="7.01">L</tspan><tspan x="-.99" y="14.01">COMPLETION</tspan></text><rect class="cls-42" x="41.73" y="57.47" width="12.8" height="16.96"/><rect class="cls-41" x="41.73" y="74.43" width="12.8" height="30.36"/><rect class="cls-42" x="41.73" y="104.79" width="12.8" height="12.51"/><rect class="cls-43" x="41.73" y="117.28" width="12.8" height="6.25"/><rect class="cls-42" x="41.73" y="123.53" width="12.8" height="5.36"/><rect class="cls-43" x="41.73" y="128.9" width="12.8" height="4.47"/><rect class="cls-42" x="41.73" y="133.35" width="12.8" height="24.11"/><rect class="cls-41" x="41.73" y="157.46" width="12.8" height="9.69"/><rect class="cls-43" x="41.73" y="167.23" width="12.8" height="1.07"/><rect class="cls-42" x="41.73" y="168.31" width="12.8" height="11.6"/><rect class="cls-41" x="41.73" y="179.78" width="12.8" height="9.82"/><rect class="cls-42" x="41.73" y="189.6" width="12.8" height="3.56"/><rect class="cls-43" x="41.73" y="193.18" width="12.8" height="1.78"/><rect class="cls-41" x="41.73" y="194.96" width="12.8" height="6.25"/><rect class="cls-43" x="41.73" y="201.21" width="12.8" height="1.78"/><rect class="cls-42" x="41.73" y="203" width="12.8" height="57.14"/><rect class="cls-41" x="41.73" y="260.13" width="12.8" height="4.47"/><rect class="cls-42" x="41.73" y="264.61" width="12.8" height="42.85"/><rect class="cls-41" x="41.73" y="307.46" width="12.8" height="15.18"/><rect class="cls-42" x="41.73" y="322.64" width="12.8" height="13.4"/><rect class="cls-41" x="41.73" y="336.03" width="12.8" height="6.26"/><rect class="cls-42" x="41.73" y="342.27" width="12.8" height="10.71"/><rect class="cls-41" x="41.73" y="352.99" width="12.8" height="7.15"/><rect class="cls-42" x="41.73" y="360.14" width="12.8" height="15.18"/><rect class="cls-41" x="41.73" y="375.3" width="12.8" height="4.47"/><rect class="cls-42" x="41.73" y="379.77" width="12.8" height="8.93"/><rect class="cls-41" x="41.73" y="388.7" width="12.8" height="8.04"/><rect class="cls-42" x="41.73" y="396.74" width="12.8" height="66.95"/><rect class="cls-41" x="41.73" y="463.71" width="12.8" height=".89"/><rect class="cls-43" x="41.73" y="464.6" width="12.8" height="4.47"/><rect class="cls-41" x="41.73" y="469.06" width="12.8" height="11.6"/><rect class="cls-42" x="41.73" y="480.67" width="12.8" height="3.56"/><rect class="cls-41" x="41.73" y="484.24" width="12.8" height="29.47"/><rect class="cls-42" x="41.73" y="513.7" width="12.8" height="2.67"/><rect class="cls-41" x="41.73" y="516.38" width="12.8" height="12.5"/><rect class="cls-42" x="41.73" y="528.88" width="12.8" height=".89"/><rect class="cls-41" x="41.73" y="529.77" width="12.8" height="8.04"/><rect class="cls-42" x="41.73" y="537.81" width="12.8" height="6.25"/><rect class="cls-41" x="41.73" y="544.06" width="12.8" height="25.89"/><rect class="cls-42" x="41.73" y="569.95" width="12.8" height="49.22"/><text class="cls-10" transform="translate(94.52 108.49) scale(.84 1)"><tspan x="0" y="0">P12</tspan></text><text class="cls-10" transform="translate(94.52 116.96) scale(.84 1)"><tspan x="0" y="0">P</tspan><tspan class="cls-74" x="4" y="0">1</tspan><tspan class="cls-97" x="6.89" y="0">1</tspan></text><text class="cls-10" transform="translate(94.52 260.93) scale(.84 1)"><tspan x="0" y="0">P8</tspan></text><text class="cls-10" transform="translate(94.52 276.95) scale(.84 1)"><tspan x="0" y="0">P7</tspan></text><text class="cls-10" transform="translate(94.52 307.56) scale(.84 1)"><tspan x="0" y="0">P6</tspan></text><text class="cls-10" transform="translate(94.52 354.91) scale(.84 1)"><tspan x="0" y="0">P5</tspan></text><text class="cls-10" transform="translate(94.52 464.44) scale(.84 1)"><tspan x="0" y="0">P4</tspan></text><text class="cls-10" transform="translate(94.52 543.23) scale(.84 1)"><tspan x="0" y="0">P3</tspan></text><text class="cls-10" transform="translate(94.52 578.92) scale(.84 1)"><tspan x="0" y="0">P2</tspan></text><text class="cls-10" transform="translate(94.52 587.73) scale(.84 1)"><tspan x="0" y="0">P1</tspan></text><text class="cls-10" transform="translate(94.52 238.44) scale(.84 1)"><tspan x="0" y="0">P9</tspan></text><text class="cls-10" transform="translate(94.52 148.04) scale(.84 1)"><tspan x="0" y="0">P10</tspan></text><line class="cls-30" x1="87.44" y1="617.97" x2="87.44" y2="57.47"/><line class="cls-30" x1="80.23" y1="57.47" x2="80.23" y2="617.97"/><path class="cls-64" d="M77.88,539.44c0,.75.61,1.36,1.36,1.36h9.55c.75,0,1.36-.61,1.36-1.36s-.61-1.36-1.36-1.36h-9.55c-.75,0-1.36.61-1.36,1.36,0,0,0-.75,0,0Z"/><path class="cls-28" d="M77.88,539.44c0,.75.61,1.36,1.36,1.36h9.55c.75,0,1.36-.61,1.36-1.36s-.61-1.36-1.36-1.36h-9.55c-.75,0-1.36.61-1.36,1.36,0,0,0-.75,0,0Z"/><path class="cls-64" d="M77.88,303.18c0,.75.61,1.36,1.36,1.36h9.55c.75,0,1.36-.61,1.36-1.36s-.61-1.36-1.36-1.36h-9.55c-.75,0-1.36.61-1.36,1.36,0,0,0-.75,0,0Z"/><path class="cls-28" d="M77.88,303.18c0,.75.61,1.36,1.36,1.36h9.55c.75,0,1.36-.61,1.36-1.36s-.61-1.36-1.36-1.36h-9.55c-.75,0-1.36.61-1.36,1.36,0,0,0-.75,0,0Z"/><path class="cls-64" d="M77.88,272.5c0,.75.61,1.36,1.36,1.36h9.55c.75,0,1.36-.61,1.36-1.36s-.61-1.36-1.36-1.36h-9.55c-.75,0-1.36.61-1.36,1.36,0,0,0-.75,0,0Z"/><path class="cls-28" d="M77.88,272.5c0,.75.61,1.36,1.36,1.36h9.55c.75,0,1.36-.61,1.36-1.36s-.61-1.36-1.36-1.36h-9.55c-.75,0-1.36.61-1.36,1.36,0,0,0-.75,0,0Z"/><path class="cls-64" d="M77.88,112.11c0,.75.61,1.36,1.36,1.36h9.55c.75,0,1.36-.61,1.36-1.36s-.61-1.36-1.36-1.36h-9.55c-.75,0-1.36.61-1.36,1.36,0,0,0-.75,0,0Z"/><path class="cls-28" d="M77.88,112.11c0,.75.61,1.36,1.36,1.36h9.55c.75,0,1.36-.61,1.36-1.36s-.61-1.36-1.36-1.36h-9.55c-.75,0-1.36.61-1.36,1.36,0,0,0-.75,0,0Z"/><path class="cls-64" d="M77.88,67.2c0,.75.61,1.36,1.36,1.36h9.56c.75,0,1.36-.61,1.36-1.36s-.61-1.36-1.36-1.36h-9.56c-.75,0-1.36.61-1.36,1.36,0,0,0-.75,0,0Z"/><path class="cls-28" d="M77.88,67.2c0,.75.61,1.36,1.36,1.36h9.56c.75,0,1.36-.61,1.36-1.36s-.61-1.36-1.36-1.36h-9.56c-.75,0-1.36.61-1.36,1.36,0,0,0-.75,0,0Z"/><path class="cls-64" d="M77.88,256.46c0,.75.61,1.36,1.36,1.36h9.55c.75,0,1.36-.61,1.36-1.36s-.61-1.36-1.36-1.36h-9.55c-.75,0-1.36.61-1.36,1.36,0,0,0-.75,0,0Z"/><path class="cls-28" d="M77.88,256.46c0,.75.61,1.36,1.36,1.36h9.55c.75,0,1.36-.61,1.36-1.36s-.61-1.36-1.36-1.36h-9.55c-.75,0-1.36.61-1.36,1.36,0,0,0-.75,0,0Z"/><path class="cls-64" d="M77.88,233.86c0,.75.61,1.35,1.35,1.35h9.56c.75,0,1.35-.61,1.35-1.35s-.61-1.35-1.35-1.35h-9.56c-.75,0-1.35.61-1.35,1.35,0,0,0-.75,0,0Z"/><path class="cls-28" d="M77.88,233.86c0,.75.61,1.35,1.35,1.35h9.56c.75,0,1.35-.61,1.35-1.35s-.61-1.35-1.35-1.35h-9.56c-.75,0-1.35.61-1.35,1.35,0,0,0-.75,0,0Z"/><path class="cls-64" d="M77.88,142.93c0,.75.61,1.36,1.36,1.36h9.56c.75,0,1.36-.61,1.36-1.36s-.61-1.36-1.36-1.36h-9.56c-.75,0-1.36.61-1.36,1.36,0,0,0-.75,0,0Z"/><path class="cls-28" d="M77.88,142.93c0,.75.61,1.36,1.36,1.36h9.56c.75,0,1.36-.61,1.36-1.36s-.61-1.36-1.36-1.36h-9.56c-.75,0-1.36.61-1.36,1.36,0,0,0-.75,0,0Z"/><rect x="80.27" y="615.34" width="7.3" height="3.12"/><path class="cls-64" d="M77.88,583.6c0,.75.61,1.35,1.35,1.35h9.56c.75,0,1.35-.61,1.35-1.35s-.61-1.35-1.35-1.35h-9.56c-.75,0-1.35.61-1.35,1.35,0,0,0-.75,0,0Z"/><path class="cls-28" d="M77.88,583.6c0,.75.61,1.35,1.35,1.35h9.56c.75,0,1.35-.61,1.35-1.35s-.61-1.35-1.35-1.35h-9.56c-.75,0-1.35.61-1.35,1.35,0,0,0-.75,0,0Z"/><path class="cls-64" d="M77.88,460.28c0,.75.61,1.35,1.35,1.35h9.56c.75,0,1.35-.61,1.35-1.35s-.61-1.35-1.35-1.35h-9.56c-.75,0-1.35.61-1.35,1.35,0,0,0-.75,0,0Z"/><path class="cls-28" d="M77.88,460.28c0,.75.61,1.35,1.35,1.35h9.56c.75,0,1.35-.61,1.35-1.35s-.61-1.35-1.35-1.35h-9.56c-.75,0-1.35.61-1.35,1.35,0,0,0-.75,0,0Z"/><path class="cls-64" d="M77.88,350.66c0,.75.61,1.35,1.35,1.35h9.56c.75,0,1.35-.61,1.35-1.35s-.61-1.35-1.35-1.35h-9.56c-.75,0-1.35.61-1.35,1.35,0,0,0-.75,0,0Z"/><path class="cls-28" d="M77.88,350.66c0,.75.61,1.35,1.35,1.35h9.56c.75,0,1.35-.61,1.35-1.35s-.61-1.35-1.35-1.35h-9.56c-.75,0-1.35.61-1.35,1.35,0,0,0-.75,0,0Z"/><path class="cls-64" d="M77.88,575.01c0,.75.61,1.36,1.36,1.36h9.56c.75,0,1.36-.61,1.36-1.36s-.61-1.36-1.36-1.36h-9.56c-.75,0-1.36.61-1.36,1.36,0,0,0-.75,0,0Z"/><path class="cls-28" d="M77.88,575.01c0,.75.61,1.36,1.36,1.36h9.56c.75,0,1.36-.61,1.36-1.36s-.61-1.36-1.36-1.36h-9.56c-.75,0-1.36.61-1.36,1.36,0,0,0-.75,0,0Z"/><polyline class="cls-23" points="75.8 540.68 73.64 540.68 73.64 543.48 73.64 546.57 73.64 549.19 73.64 549.42 73.64 552.32 73.64 554.7 73.64 557.03 73.64 557.37 73.64 559.75 73.64 559.85 73.64 561.51 73.64 562.36 73.64 563.21 73.64 564.72 73.64 566.67 73.64 572.12 73.64 573.66 75.8 573.66"/><polyline class="cls-24" points="75.8 304.54 73.64 304.54 73.64 306.6 73.64 309.55 73.64 311.86 73.64 314.12 73.64 317.39 73.64 318.52 73.64 318.71 73.64 319.71 73.64 320.72 73.64 321.9 73.64 322.16 73.64 322.25 73.64 324.91 73.64 325.75 73.64 329.83 73.64 330.82 73.64 332.31 73.64 333.58 73.64 336.5 73.64 337.44 73.64 338.65 73.64 340.76 73.64 342.07 73.64 344.91 73.64 349.31 75.8 349.31"/><polyline class="cls-24" points="75.8 273.86 73.64 273.86 73.64 274.28 73.64 274.38 73.64 274.72 73.64 275.47 73.64 276.94 73.64 277.75 73.64 278.52 73.64 279.2 73.64 280.65 73.64 281 73.64 283.14 73.64 288.52 73.64 291.69 73.64 295.48 73.64 297.07 73.64 298.79 73.64 298.9 73.64 300.02 73.64 301.82 75.8 301.82"/><polyline class="cls-24" points="75.8 113.47 73.64 113.47 73.64 114.94 73.64 114.95 73.64 120.66 73.64 123.74 73.64 125.76 73.64 127 73.64 128.62 73.64 130.42 73.64 132.38 73.64 132.83 73.64 134.12 73.64 135.3 73.64 136.85 73.64 141.58 75.8 141.58"/><polyline class="cls-24" points="75.8 68.56 73.64 68.56 73.64 69.5 73.64 70.2 73.64 75.22 73.64 79.1 73.64 89.19 73.64 94.37 73.64 95.28 73.64 97.37 73.64 97.77 73.64 108.12 73.64 110.75 75.8 110.75"/><polyline class="cls-24" points="75.8 257.82 73.64 257.82 73.64 259.65 73.64 261.09 73.64 263.38 73.64 265.07 73.64 266.23 73.64 269.13 73.64 271.14 75.8 271.14"/><polyline class="cls-24" points="75.8 235.22 73.64 235.22 73.64 235.71 73.64 238.19 73.64 238.58 73.64 240.29 73.64 241.25 73.64 242.66 73.64 245.1 73.64 245.67 73.64 247.08 73.64 248.29 73.64 248.32 73.64 248.49 73.64 250.02 73.64 250.07 73.64 255.1 75.8 255.1"/><polyline class="cls-24" points="75.8 144.29 73.64 144.29 73.64 145.73 73.64 148.7 73.64 159.91 73.64 161.83 73.64 161.93 73.64 162.91 73.64 163.25 73.64 165.02 73.64 170.14 73.64 172.61 73.64 173.23 73.64 173.64 73.64 174.98 73.64 176.11 73.64 176.83 73.64 178.51 73.64 182.48 73.64 183.46 73.64 184.48 73.64 185.29 73.64 186.02 73.64 188.86 73.64 199.64 73.64 201.03 73.64 202.38 73.64 205.04 73.64 212.49 73.64 215.49 73.64 216.27 73.64 218.84 73.64 219.02 73.64 220.05 73.64 220.96 73.64 221.51 73.64 223.45 73.64 223.85 73.64 227.77 73.64 228.26 73.64 228.93 73.64 230.87 73.64 232.15 73.64 232.25 73.64 232.51 75.8 232.51"/><polyline class="cls-23" points="75.8 584.96 73.64 584.96 73.64 585.47 73.64 587.1 73.64 587.28 73.64 588.79 73.64 592.87 73.64 593.72 73.64 594.44 73.64 594.5 73.64 595.56 73.64 595.74 73.64 595.84 73.64 597.64 73.64 599.33 73.64 602.44 73.64 603.69 73.64 604.61 73.64 604.85 73.64 606.8 73.64 612.31 73.64 612.91 73.64 619.18 75.8 619.18"/><polyline class="cls-23" points="75.8 461.64 73.64 461.64 73.64 463.14 73.64 469.58 73.64 471.08 73.64 471.53 73.64 472.02 73.64 473.3 73.64 474.11 73.64 488.89 73.64 491.53 73.64 499.13 73.64 501.29 73.64 503.14 73.64 503.2 73.64 504.1 73.64 504.59 73.64 504.64 73.64 506.11 73.64 507.68 73.64 509.55 73.64 510.4 73.64 512.75 73.64 512.79 73.64 512.96 73.64 515.15 73.64 517.23 73.64 521.84 73.64 524.33 73.64 527.21 73.64 529.58 73.64 530.92 73.64 531.87 73.64 533.16 73.64 533.36 73.64 534.42 73.64 536.43 73.64 538.08 75.8 538.08"/><polyline class="cls-23" points="75.8 352.02 73.64 352.02 73.64 352.41 73.64 353.66 73.64 354.26 73.64 362.09 73.64 364.78 73.64 369.12 73.64 370.8 73.64 371.99 73.64 374.21 73.64 375.84 73.64 377.81 73.64 378.98 73.64 380.56 73.64 381.56 73.64 381.98 73.64 382.84 73.64 384.51 73.64 385.81 73.64 386.63 73.64 390.62 73.64 392.83 73.64 393.51 73.64 395.55 73.64 402.29 73.64 404.15 73.64 405.68 73.64 407.14 73.64 408.86 73.64 411.7 73.64 417.06 73.64 417.72 73.64 419.32 73.64 419.48 73.64 420.62 73.64 421.43 73.64 423.18 73.64 424.62 73.64 425.13 73.64 427.59 73.64 440.16 73.64 440.95 73.64 443.13 73.64 443.68 73.64 447.46 73.64 451.24 73.64 458.51 73.64 458.93 75.8 458.93"/><text class="cls-4" transform="translate(65.33 602.97) scale(.84 1)"><tspan x="0" y="0">Z1</tspan></text><text class="cls-10" transform="translate(65.33 602.97) scale(.84 1)"><tspan x="0" y="0">Z1</tspan></text><text class="cls-10" transform="translate(65.33 558.82) scale(.84 1)"><tspan x="0" y="0">Z3</tspan></text><text class="cls-10" transform="translate(65.33 581.46) scale(.84 1)"><tspan x="0" y="0">Z2</tspan></text><text class="cls-10" transform="translate(65.33 501.79) scale(.84 1)"><tspan x="0" y="0">Z4</tspan></text><text class="cls-10" transform="translate(65.33 407.72) scale(.84 1)"><tspan x="0" y="0">Z5</tspan></text><text class="cls-10" transform="translate(65.33 329.19) scale(.84 1)"><tspan x="0" y="0">Z6</tspan></text><text class="cls-10" transform="translate(65.33 290.38) scale(.84 1)"><tspan x="0" y="0">Z7</tspan></text><text class="cls-10" transform="translate(65.33 267) scale(.84 1)"><tspan x="0" y="0">Z8</tspan></text><text class="cls-10" transform="translate(65.33 247.78) scale(.84 1)"><tspan x="0" y="0">Z9</tspan></text><text class="cls-10" transform="translate(62.52 191.02) scale(.84 1)"><tspan x="0" y="0">Z10</tspan></text><text class="cls-10" transform="translate(62.89 130.34) scale(.84 1)"><tspan x="0" y="0">Z</tspan><tspan class="cls-46" x="3.67" y="0">1</tspan><tspan x="6.56" y="0">1</tspan></text><text class="cls-10" transform="translate(62.52 90.73) scale(.84 1)"><tspan x="0" y="0">Z12</tspan></text><polyline class="cls-23" points="75.8 576.37 73.64 576.37 73.64 582.25 75.8 582.25"/><text class="cls-9" transform="translate(20.33 104.53) scale(.84 1)"><tspan x="0" y="0">600</tspan></text><text class="cls-9" transform="translate(20.33 149.18) scale(.84 1)"><tspan x="0" y="0">650</tspan></text><text class="cls-9" transform="translate(20.33 193.83) scale(.84 1)"><tspan x="0" y="0">700</tspan></text><text class="cls-9" transform="translate(20.33 238.48) scale(.84 1)"><tspan x="0" y="0">750</tspan></text><text class="cls-9" transform="translate(20.33 283.13) scale(.84 1)"><tspan x="0" y="0">800</tspan></text><text class="cls-9" transform="translate(20.33 327.78) scale(.84 1)"><tspan x="0" y="0">850</tspan></text><text class="cls-9" transform="translate(20.33 372.43) scale(.84 1)"><tspan x="0" y="0">900</tspan></text><text class="cls-9" transform="translate(20.33 417.08) scale(.84 1)"><tspan x="0" y="0">950</tspan></text><text class="cls-9" transform="translate(16.12 461.73) scale(.84 1)"><tspan x="0" y="0">1,000</tspan></text><text class="cls-9" transform="translate(16.12 506.39) scale(.84 1)"><tspan x="0" y="0">1,050</tspan></text><text class="cls-9" transform="translate(16.12 551.04) scale(.84 1)"><tspan x="0" y="0">1,100</tspan></text><text class="cls-9" transform="translate(16.12 595.69) scale(.84 1)"><tspan x="0" y="0">1,150</tspan></text><text class="cls-9" transform="translate(20.33 59.88) scale(.84 1)"><tspan x="0" y="0">550</tspan></text><text class="cls-9" transform="translate(16.12 637.72) scale(.84 1)"><tspan x="0" y="0">1,200</tspan></text><line class="cls-33" x1="31.04" y1="57.23" x2="38.24" y2="57.23"/><line class="cls-33" x1="31.04" y1="101.85" x2="38.24" y2="101.85"/><line class="cls-33" x1="31.04" y1="146.47" x2="38.24" y2="146.47"/><line class="cls-33" x1="31.04" y1="191.36" x2="38.24" y2="191.36"/><line class="cls-33" x1="31.04" y1="235.97" x2="38.24" y2="235.97"/><line class="cls-33" x1="31.04" y1="280.59" x2="38.24" y2="280.59"/><line class="cls-33" x1="31.04" y1="325.21" x2="38.24" y2="325.21"/><line class="cls-33" x1="31.04" y1="369.83" x2="38.24" y2="369.83"/><line class="cls-33" x1="31.04" y1="414.45" x2="38.24" y2="414.45"/><line class="cls-33" x1="31.04" y1="459.34" x2="38.24" y2="459.34"/><line class="cls-33" x1="31.04" y1="503.96" x2="38.24" y2="503.96"/><line class="cls-33" x1="31.04" y1="548.58" x2="38.24" y2="548.58"/><line class="cls-33" x1="31.04" y1="593.2" x2="38.24" y2="593.2"/><line class="cls-33" x1="31.04" y1="637.82" x2="38.24" y2="637.82"/><polygon class="cls-38" points="91.47 143.03 87.82 145.4 91.47 147.78 91.47 143.03"/><polygon class="cls-37" points="91.47 233.59 87.82 235.97 91.47 238.34 91.47 233.59"/><polygon class="cls-38" points="91.47 256.12 87.82 258.5 91.47 260.87 91.47 256.12"/><polygon class="cls-37" points="91.47 103.56 87.82 105.93 91.47 108.31 91.47 103.56"/><polygon class="cls-38" points="91.47 112.18 87.82 114.56 91.47 116.93 91.47 112.18"/><polygon class="cls-37" points="91.47 538.31 87.82 540.68 91.47 543.06 91.47 538.31"/><polygon class="cls-38" points="91.47 272.12 87.82 274.49 91.47 276.87 91.47 272.12"/><polygon class="cls-37" points="91.47 302.71 87.82 305.09 91.47 307.46 91.47 302.71"/><polygon class="cls-38" points="91.47 350.06 87.82 352.44 91.47 354.81 91.47 350.06"/><polygon class="cls-38" points="91.47 459.27 87.82 461.64 91.47 464.01 91.47 459.27"/><polygon class="cls-38" points="91.47 573.79 87.82 576.16 91.47 578.54 91.47 573.79"/><polygon class="cls-37" points="91.47 582.35 87.82 584.73 91.47 587.1 91.47 582.35"/><polygon class="cls-59" points="95.15 72.73 98.18 75.59 101.2 72.73 95.15 72.73"/><line class="cls-33" x1="59.29" y1="75.97" x2="60.29" y2="75.97"/><line class="cls-34" x1="62.36" y1="75.97" x2="77.9" y2="75.97"/><line class="cls-33" x1="78.93" y1="75.97" x2="79.93" y2="75.97"/><line class="cls-33" x1="87.44" y1="75.97" x2="88.44" y2="75.97"/><line class="cls-35" x1="90.55" y1="75.97" x2="106.39" y2="75.97"/><line class="cls-33" x1="107.44" y1="75.97" x2="108.44" y2="75.97"/><text class="cls-12" transform="translate(112.5 67.34) scale(.89 1)"><tspan class="cls-13"><tspan x="0" y="0">WATER LEVEL</tspan></tspan><tspan class="cls-54"><tspan x="0" y="6">571 ft on 2005-08-18</tspan></tspan></text><text class="cls-12" transform="translate(112.5 615.05) scale(.89 1)"><tspan class="cls-13"><tspan x="0" y="0">HOLE DEPTH</tspan></tspan><tspan class="cls-54"><tspan x="0" y="6">1,179 ft</tspan></tspan></text></g></g><g id="Explanation"><text class="cls-7" transform="translate(134.16 104.68)"><tspan x="0" y="0">EXPLAN</tspan><tspan class="cls-57" x="32.45" y="0">A</tspan><tspan x="37.63" y="0">TION</tspan></text><text class="cls-5" transform="translate(127.83 120.81)"><tspan x="0" y="0">Lithology</tspan></text><text class="cls-8" transform="translate(151.46 175.96)"><tspan class="cls-87" x="0" y="0">Se</tspan><tspan class="cls-103" x="8.82" y="0">d</tspan><tspan class="cls-17" x="12.79" y="0">i</tspan><tspan class="cls-88" x="14.44" y="0">m</tspan><tspan class="cls-68" x="20.4" y="0">e</tspan><tspan class="cls-86" x="24.4" y="0">n</tspan><tspan class="cls-69" x="28.34" y="0">t</tspan></text><text class="cls-8" transform="translate(151.46 136.8)"><tspan class="cls-19" x="0" y="0">D</tspan><tspan class="cls-99" x="5.21" y="0">e</tspan><tspan class="cls-52" x="9.21" y="0">n</tspan><tspan class="cls-99" x="13.2" y="0">s</tspan><tspan class="cls-78" x="16.81" y="0">e </tspan><tspan class="cls-48" x="22.65" y="0">ba</tspan><tspan class="cls-107" x="30.62" y="0">s</tspan><tspan class="cls-72" x="34.25" y="0">a</tspan><tspan class="cls-95" x="38.25" y="0">l</tspan><tspan class="cls-69" x="39.89" y="0">t</tspan></text><rect class="cls-25" x="135.03" y="127.47" width="12.8" height="13.62"/><text class="cls-8" transform="translate(151.46 156.38)"><tspan class="cls-60" x="0" y="0">F</tspan><tspan class="cls-87" x="4.17" y="0">r</tspan><tspan class="cls-62" x="6.63" y="0">a</tspan><tspan class="cls-40" x="10.6" y="0">c</tspan><tspan class="cls-56" x="14.27" y="0">t</tspan><tspan class="cls-95" x="16.32" y="0">u</tspan><tspan class="cls-61" x="20.3" y="0">r</tspan><tspan class="cls-15" x="22.74" y="0">e</tspan><tspan class="cls-78" x="26.76" y="0">d </tspan><tspan class="cls-14" x="32.6" y="0">ba</tspan><tspan class="cls-107" x="40.58" y="0">s</tspan><tspan class="cls-18" x="44.21" y="0">a</tspan><tspan class="cls-44" x="48.2" y="0">l</tspan><tspan class="cls-69" x="49.84" y="0">t</tspan></text><rect class="cls-26" x="135.03" y="147.05" width="12.8" height="13.62"/><rect class="cls-27" x="135.03" y="166.63" width="12.8" height="13.62"/><line class="cls-20" x1="145.97" y1="231.31" x2="163.89" y2="231.31"/><text class="cls-5" transform="translate(127.83 196.56)"><tspan x="0" y="0">Completion</tspan></text><line class="cls-20" x1="163.89" y1="244.23" x2="160.3" y2="244.23"/><polyline class="cls-20" points="163.89 256.7 158.64 256.7 134.68 249.75"/><polygon class="cls-38" points="150.25 241.97 146.6 244.34 150.25 246.72 150.25 241.97"/><polyline class="cls-21" points="135.45 287.35 133.29 287.35 133.29 232.69 135.45 232.69"/><text class="cls-4" transform="translate(152.35 246.43) scale(.89 1)"><tspan x="0" y="0">P2</tspan></text><text class="cls-4" transform="translate(125.67 250.93) scale(.89 1)"><tspan x="0" y="0">Z1</tspan></text><text class="cls-10" transform="translate(125.67 250.93) scale(.89 1)"><tspan x="0" y="0">Z1</tspan></text><line class="cls-20" x1="145.97" y1="218.82" x2="163.89" y2="218.82"/><line class="cls-20" x1="150.59" y1="207.2" x2="163.89" y2="207.2"/><text class="cls-8" transform="translate(165.88 234.1)"><tspan class="cls-100" x="0" y="0">P</tspan><tspan class="cls-62" x="4.7" y="0">a</tspan><tspan class="cls-1" x="8.68" y="0">c</tspan><tspan class="cls-102" x="12.34" y="0">k</tspan><tspan class="cls-85" x="15.8" y="0">e</tspan><tspan x="19.81" y="0">r</tspan></text><text class="cls-8" transform="translate(165.88 246.67)"><tspan class="cls-39" x="0" y="0">M</tspan><tspan class="cls-68" x="6.01" y="0">e</tspan><tspan class="cls-92" x="10.02" y="0">a</tspan><tspan class="cls-67" x="14" y="0">s</tspan><tspan class="cls-95" x="17.58" y="0">u</tspan><tspan class="cls-61" x="21.57" y="0">r</tspan><tspan class="cls-68" x="24" y="0">e</tspan><tspan class="cls-88" x="28.01" y="0">m</tspan><tspan class="cls-68" x="33.96" y="0">e</tspan><tspan class="cls-86" x="37.96" y="0">n</tspan><tspan class="cls-69" x="41.91" y="0">t </tspan><tspan class="cls-77" x="45.8" y="0">p</tspan><tspan class="cls-107" x="49.83" y="0">o</tspan><tspan class="cls-75" x="53.85" y="0">r</tspan><tspan x="56.54" y="0">t </tspan><tspan class="cls-58" x="60.43" y="0">nu</tspan><tspan class="cls-105" x="68.38" y="0">m</tspan><tspan class="cls-45" x="74.32" y="0">b</tspan><tspan class="cls-85" x="78.34" y="0">e</tspan><tspan x="82.35" y="0">r</tspan></text><text class="cls-8" transform="translate(165.88 259.24)"><tspan class="cls-83" x="0" y="0">M</tspan><tspan class="cls-15" x="6.02" y="0">o</tspan><tspan class="cls-44" x="10.04" y="0">n</tspan><tspan class="cls-72" x="14.02" y="0">i</tspan><tspan class="cls-51" x="15.68" y="0">t</tspan><tspan class="cls-107" x="17.69" y="0">o</tspan><tspan class="cls-79" x="21.72" y="0">r</tspan><tspan class="cls-47" x="24.25" y="0">i</tspan><tspan class="cls-98" x="25.91" y="0">n</tspan><tspan x="29.91" y="0">g </tspan><tspan class="cls-91" x="35.75" y="0">z</tspan><tspan class="cls-87" x="39.31" y="0">o</tspan><tspan class="cls-105" x="43.33" y="0">n</tspan><tspan class="cls-78" x="47.33" y="0">e </tspan><tspan class="cls-67" x="53.17" y="0">nu</tspan><tspan class="cls-90" x="61.12" y="0">m</tspan><tspan class="cls-45" x="67.05" y="0">b</tspan><tspan class="cls-85" x="71.07" y="0">e</tspan><tspan x="75.08" y="0">r</tspan></text><text class="cls-8" transform="translate(165.88 221.53)"><tspan class="cls-53" x="0" y="0">M</tspan><tspan class="cls-92" x="5.99" y="0">ul</tspan><tspan class="cls-3" x="11.62" y="0">t</tspan><tspan class="cls-17" x="13.7" y="0">i</tspan><tspan class="cls-77" x="15.36" y="0">p</tspan><tspan class="cls-107" x="19.39" y="0">o</tspan><tspan class="cls-75" x="23.41" y="0">r</tspan><tspan x="26.1" y="0">t </tspan><tspan class="cls-16" x="29.99" y="0">c</tspan><tspan class="cls-92" x="33.71" y="0">a</tspan><tspan class="cls-73" x="37.7" y="0">s</tspan><tspan class="cls-47" x="41.3" y="0">i</tspan><tspan class="cls-68" x="42.95" y="0">n</tspan><tspan x="46.96" y="0">g</tspan></text><text class="cls-8" transform="translate(165.88 271.81)"><tspan class="cls-55" x="0" y="0">S</tspan><tspan class="cls-63" x="4.79" y="0">a</tspan><tspan class="cls-105" x="8.79" y="0">m</tspan><tspan class="cls-88" x="14.72" y="0">pl</tspan><tspan x="20.41" y="0">e </tspan><tspan class="cls-81" x="26.25" y="0">c</tspan><tspan class="cls-107" x="29.97" y="0">o</tspan><tspan class="cls-14" x="33.99" y="0">l</tspan><tspan class="cls-101" x="35.64" y="0">l</tspan><tspan class="cls-94" x="37.32" y="0">e</tspan><tspan class="cls-40" x="41.33" y="0">c</tspan><tspan class="cls-3" x="45.01" y="0">ti</tspan><tspan class="cls-87" x="48.78" y="0">o</tspan><tspan x="52.8" y="0">n </tspan><tspan class="cls-50" x="58.64" y="0">a</tspan><tspan x="62.59" y="0">t </tspan><tspan class="cls-77" x="66.48" y="0">p</tspan><tspan class="cls-66" x="70.51" y="0">o</tspan><tspan class="cls-82" x="74.54" y="0">r</tspan><tspan class="cls-78" x="77.23" y="0">t</tspan></text><text class="cls-8" transform="translate(165.88 208.96)"><tspan class="cls-71" x="0" y="0">W</tspan><tspan class="cls-45" x="6.58" y="0">e</tspan><tspan class="cls-14" x="10.59" y="0">l</tspan><tspan class="cls-78" x="12.24" y="0">l </tspan><tspan class="cls-16" x="15.74" y="0">c</tspan><tspan class="cls-52" x="19.46" y="0">a</tspan><tspan class="cls-49" x="23.45" y="0">si</tspan><tspan class="cls-98" x="28.71" y="0">n</tspan><tspan x="32.71" y="0">g</tspan></text><line class="cls-36" x1="135.23" y1="202.46" x2="135.23" y2="214.96"/><line class="cls-36" x1="149.72" y1="202.46" x2="149.72" y2="214.96"/><rect x="138.94" y="280.41" width="7.09" height="2.65"/><line class="cls-30" x1="146.03" y1="282.57" x2="145.92" y2="202.46"/><line class="cls-30" x1="138.82" y1="202.46" x2="138.94" y2="282.57"/><path class="cls-64" d="M136.34,231.31c0,.76.62,1.38,1.38,1.38h9.52c.76,0,1.38-.62,1.38-1.38s-.62-1.38-1.38-1.38h-9.52c-.76,0-1.38.62-1.38,1.38,0,0,0-.76,0,0Z"/><path class="cls-29" d="M136.34,231.31c0,.76.62,1.38,1.38,1.38h9.52c.76,0,1.38-.62,1.38-1.38s-.62-1.38-1.38-1.38h-9.52c-.76,0-1.38.62-1.38,1.38,0,0,0-.76,0,0Z"/><text class="cls-5" transform="translate(127.83 303.87)"><tspan x="0" y="0">Borehole</tspan></text><line class="cls-22" x1="147.83" y1="335.05" x2="139.74" y2="343.14"/><line class="cls-22" x1="147.83" y1="340.27" x2="144.96" y2="343.14"/><line class="cls-22" x1="142.92" y1="329.52" x2="135.03" y2="337.41"/><line class="cls-22" x1="147.83" y1="329.83" x2="135.03" y2="342.63"/><line class="cls-22" x1="137.7" y1="329.52" x2="135.03" y2="332.19"/><rect class="cls-31" x="135.03" y="329.52" width="12.8" height="13.62"/><text class="cls-8" transform="translate(151.46 338.2)"><tspan class="cls-77" x="0" y="0">B</tspan><tspan class="cls-45" x="4.81" y="0">el</tspan><tspan class="cls-80" x="10.5" y="0">o</tspan><tspan class="cls-78" x="14.47" y="0">w </tspan><tspan class="cls-96" x="21.47" y="0">h</tspan><tspan class="cls-107" x="25.48" y="0">o</tspan><tspan class="cls-101" x="29.51" y="0">l</tspan><tspan class="cls-78" x="31.18" y="0">e </tspan><tspan class="cls-61" x="37.02" y="0">d</tspan><tspan class="cls-99" x="41.01" y="0">e</tspan><tspan class="cls-93" x="45.02" y="0">p</tspan><tspan class="cls-70" x="48.97" y="0">t</tspan><tspan x="51.05" y="0">h</tspan></text><polygon class="cls-59" points="138.4 312.05 141.43 314.9 144.45 312.05 138.4 312.05"/><line class="cls-33" x1="135.03" y1="315.28" x2="136.03" y2="315.28"/><line class="cls-32" x1="138.19" y1="315.28" x2="145.75" y2="315.28"/><line class="cls-33" x1="146.83" y1="315.28" x2="147.83" y2="315.28"/><text class="cls-8" transform="translate(151.46 316.53)"><tspan class="cls-71" x="0" y="0">W</tspan><tspan class="cls-50" x="6.58" y="0">at</tspan><tspan class="cls-85" x="12.54" y="0">e</tspan><tspan x="16.55" y="0">r </tspan><tspan class="cls-101" x="20.83" y="0">l</tspan><tspan class="cls-78" x="22.5" y="0">e</tspan><tspan class="cls-65" x="26.39" y="0">v</tspan><tspan class="cls-55" x="29.9" y="0">e</tspan><tspan x="33.92" y="0">l </tspan><tspan class="cls-88" x="37.42" y="0">m</tspan><tspan class="cls-98" x="43.37" y="0">e</tspan><tspan class="cls-52" x="47.37" y="0">a</tspan><tspan class="cls-67" x="51.36" y="0">s</tspan><tspan class="cls-95" x="54.94" y="0">u</tspan><tspan class="cls-61" x="58.93" y="0">r</tspan><tspan class="cls-15" x="61.36" y="0">e</tspan><tspan x="65.38" y="0">d</tspan><tspan class="cls-84" x="0" y="8.4">o</tspan><tspan class="cls-104" x="4.01" y="8.4">u</tspan><tspan class="cls-89" x="7.99" y="8.4">t</tspan><tspan class="cls-73" x="10.08" y="8.4">s</tspan><tspan class="cls-3" x="13.68" y="8.4">i</tspan><tspan class="cls-61" x="15.37" y="8.4">d</tspan><tspan x="19.37" y="8.4">e </tspan><tspan class="cls-14" x="25.21" y="8.4">mul</tspan><tspan class="cls-3" x="36.77" y="8.4">t</tspan><tspan class="cls-47" x="38.85" y="8.4">i</tspan><tspan class="cls-77" x="40.5" y="8.4">p</tspan><tspan class="cls-66" x="44.53" y="8.4">o</tspan><tspan class="cls-82" x="48.56" y="8.4">r</tspan><tspan class="cls-78" x="51.25" y="8.4">t </tspan><tspan class="cls-16" x="55.13" y="8.4">c</tspan><tspan class="cls-52" x="58.86" y="8.4">a</tspan><tspan class="cls-49" x="62.84" y="8.4">si</tspan><tspan class="cls-98" x="68.1" y="8.4">n</tspan><tspan x="72.1" y="8.4">g</tspan></text><text class="cls-8" transform="translate(165.88 284.38)"><tspan class="cls-53" x="0" y="0">M</tspan><tspan class="cls-92" x="5.99" y="0">ul</tspan><tspan class="cls-3" x="11.62" y="0">t</tspan><tspan class="cls-17" x="13.7" y="0">i</tspan><tspan class="cls-77" x="15.36" y="0">p</tspan><tspan class="cls-107" x="19.39" y="0">o</tspan><tspan class="cls-75" x="23.41" y="0">r</tspan><tspan class="cls-48" x="26.1" y="0">t</tspan><tspan class="cls-76" x="28.14" y="0">-</tspan><tspan class="cls-16" x="30.79" y="0">c</tspan><tspan class="cls-95" x="34.51" y="0">a</tspan><tspan class="cls-73" x="38.49" y="0">s</tspan><tspan class="cls-47" x="42.1" y="0">i</tspan><tspan class="cls-98" x="43.75" y="0">n</tspan><tspan class="cls-78" x="47.75" y="0">g </tspan><tspan class="cls-99" x="53.59" y="0">en</tspan><tspan class="cls-78" x="61.6" y="0">d </tspan><tspan class="cls-16" x="67.44" y="0">c</tspan><tspan class="cls-47" x="71.16" y="0">a</tspan><tspan x="75.15" y="0">p</tspan></text><line class="cls-20" x1="145.97" y1="281.92" x2="163.89" y2="281.92"/><line class="cls-20" x1="163.89" y1="269.35" x2="152.3" y2="269.35"/><polygon class="cls-37" points="150.25 266.98 146.6 269.35 150.25 271.72 150.25 266.98"/></g><g id="Grid"><text class="cls-6" transform="translate(9.42 394.03) rotate(-90) scale(1.26 1)"><tspan x="0" y="0">Depth, in feet below land surface</tspan></text><text class="cls-11" transform="translate(51.33 52.08) rotate(-90) scale(1.16 1)"><tspan x="0" y="0">LITHOLOGY</tspan></text><text class="cls-4" transform="translate(63.14 52.54) scale(.93 1)"><tspan x="0" y="0">Zone</tspan></text><text class="cls-4" transform="translate(94.11 52.54) scale(.93 1)"><tspan x="0" y="0">Port</tspan></text><polyline class="cls-33" points="38.23 57.23 108.44 57.23 38.23 57.23"/><line class="cls-33" x1="58" y1="6.97" x2="58" y2="637.82"/><polygon class="cls-33" points="108.44 637.82 108.44 6.97 38.23 6.97 38.23 6.97 38.23 637.82 108.44 637.82"/></g></svg>