<?xml version="1.0" encoding="UTF-8"?><svg xmlns="http://www.w3.org/2000/svg" viewBox="0 0 252 645"><defs><style>.cls-1{letter-spacing:.02em;}.cls-2,.cls-3,.cls-4,.cls-5,.cls-6,.cls-7,.cls-8,.cls-9,.cls-10,.cls-11{stroke-linejoin:round;}.cls-2,.cls-3,.cls-4,.cls-5,.cls-7,.cls-8,.cls-9,.cls-10{stroke-linecap:round;}.cls-2,.cls-4,.cls-12,.cls-7,.cls-13,.cls-8,.cls-9,.cls-10,.cls-14,.cls-15{stroke:#000;}.cls-2,.cls-12{fill:#bcbdc0;}.cls-2,.cls-8,.cls-16{stroke-width:.25px;}.cls-17{letter-spacing:-.04em;}.cls-18{letter-spacing:.02em;}.cls-19,.cls-20,.cls-21,.cls-22,.cls-23{fill:#231f20;}.cls-19,.cls-24,.cls-25,.cls-21,.cls-23,.cls-26,.cls-27{font-family:ArialMT, Arial;}.cls-19,.cls-24,.cls-25,.cls-26,.cls-28{font-size:6px;}.cls-29{letter-spacing:.01em;}.cls-20,.cls-22{font-family:Arial-BoldMT, Arial;font-weight:700;}.cls-20,.cls-23{font-size:7px;}.cls-30{letter-spacing:.02em;}.cls-31{letter-spacing:.03em;}.cls-32{letter-spacing:.01em;}.cls-33{letter-spacing:.01em;}.cls-34{letter-spacing:.02em;}.cls-35,.cls-3,.cls-4,.cls-5,.cls-12,.cls-14,.cls-11,.cls-15{stroke-width:.35px;}.cls-35,.cls-3,.cls-4,.cls-5,.cls-6,.cls-36,.cls-7,.cls-13,.cls-9,.cls-10,.cls-11,.cls-37{fill:none;}.cls-35,.cls-3,.cls-38,.cls-6,.cls-36,.cls-11,.cls-39{stroke:#241f20;}.cls-35,.cls-12,.cls-13,.cls-14,.cls-15{stroke-miterlimit:90;}.cls-40{letter-spacing:.03em;}.cls-41{letter-spacing:.02em;}.cls-42{letter-spacing:.01em;}.cls-43{letter-spacing:.02em;}.cls-44{letter-spacing:.01em;}.cls-45{letter-spacing:-.07em;}.cls-46{letter-spacing:.01em;}.cls-47{letter-spacing:.01em;}.cls-48{letter-spacing:0em;}.cls-24{fill:#212121;}.cls-5,.cls-37{stroke:#231f20;}.cls-49{letter-spacing:.01em;}.cls-50{letter-spacing:.01em;}.cls-25,.cls-27{fill:#241f20;}.cls-51{letter-spacing:.02em;}.cls-52{font-size:5px;}.cls-53{letter-spacing:.02em;}.cls-38{fill:red;}.cls-38,.cls-39{stroke-width:.53px;}.cls-54{letter-spacing:.01em;}.cls-55{letter-spacing:-.07em;}.cls-56{letter-spacing:.01em;}.cls-57{letter-spacing:-.02em;}.cls-6,.cls-36,.cls-13,.cls-9,.cls-10{stroke-width:.5px;}.cls-58{letter-spacing:.02em;}.cls-36{stroke-miterlimit:10;}.cls-59{letter-spacing:.01em;}.cls-60{letter-spacing:.01em;}.cls-61{fill:#1072ba;}.cls-62{letter-spacing:0em;}.cls-63{letter-spacing:.02em;}.cls-64{letter-spacing:.01em;}.cls-65{letter-spacing:.02em;}.cls-66{letter-spacing:0em;}.cls-67{letter-spacing:.02em;}.cls-68{letter-spacing:0em;}.cls-69{letter-spacing:.01em;}.cls-70{letter-spacing:.01em;}.cls-21,.cls-22{font-size:8px;}.cls-71{letter-spacing:.05em;}.cls-72{letter-spacing:.05em;}.cls-73{letter-spacing:.02em;}.cls-74{letter-spacing:0em;}.cls-8{fill:#f2ad47;}.cls-75{letter-spacing:.03em;}.cls-9{stroke-dasharray:2.16 2.16;}.cls-76{letter-spacing:.01em;}.cls-77{letter-spacing:.03em;}.cls-78{letter-spacing:.05em;}.cls-79{letter-spacing:.03em;}.cls-80{letter-spacing:.02em;}.cls-81{letter-spacing:.02em;}.cls-82{letter-spacing:0em;}.cls-16{fill:#70cddd;stroke:#70cddd;}.cls-83{letter-spacing:.02em;}.cls-14{fill:#fbb041;}.cls-84{letter-spacing:.02em;}.cls-85{letter-spacing:.02em;}.cls-86{letter-spacing:.02em;}.cls-87{letter-spacing:0em;}.cls-88{letter-spacing:.01em;}.cls-89{letter-spacing:0em;}.cls-90{letter-spacing:.02em;}.cls-37{stroke-width:2px;}.cls-91{letter-spacing:.01em;}.cls-92{letter-spacing:.02em;}.cls-39{fill:#fff;}.cls-93{letter-spacing:.02em;}.cls-94{letter-spacing:.02em;}.cls-95{letter-spacing:0em;}.cls-96{letter-spacing:0em;}.cls-97{letter-spacing:.02em;}.cls-98{letter-spacing:0em;}.cls-99{letter-spacing:.01em;}.cls-100{letter-spacing:.01em;}.cls-101{letter-spacing:.02em;}.cls-102{letter-spacing:-.07em;}.cls-103{letter-spacing:.02em;}.cls-15{fill:#f5eb12;}</style></defs><g id="Completions"><g id="USGS_149"><line class="cls-4" x1="108.44" y1="628.03" x2="98.65" y2="637.82"/><line class="cls-4" x1="108.44" y1="633.25" x2="103.87" y2="637.82"/><line class="cls-4" x1="108.44" y1="617.59" x2="88.21" y2="637.82"/><line class="cls-4" x1="108.44" y1="622.81" x2="93.43" y2="637.82"/><line class="cls-4" x1="108.44" y1="607.15" x2="77.77" y2="637.82"/><line class="cls-4" x1="108.44" y1="612.37" x2="82.99" y2="637.82"/><line class="cls-4" x1="108.44" y1="596.71" x2="67.33" y2="637.82"/><line class="cls-4" x1="108.44" y1="601.93" x2="72.55" y2="637.82"/><line class="cls-4" x1="100.02" y1="594.69" x2="56.89" y2="637.82"/><line class="cls-4" x1="105.24" y1="594.69" x2="62.11" y2="637.82"/><line class="cls-4" x1="89.58" y1="594.69" x2="46.45" y2="637.82"/><line class="cls-4" x1="94.8" y1="594.69" x2="51.67" y2="637.82"/><line class="cls-4" x1="79.14" y1="594.69" x2="38.23" y2="635.6"/><line class="cls-4" x1="84.36" y1="594.69" x2="41.23" y2="637.82"/><line class="cls-4" x1="68.7" y1="594.69" x2="38.23" y2="625.16"/><line class="cls-4" x1="73.92" y1="594.69" x2="38.23" y2="630.38"/><line class="cls-4" x1="58.26" y1="594.69" x2="38.23" y2="614.72"/><line class="cls-4" x1="63.48" y1="594.69" x2="38.23" y2="619.94"/><line class="cls-4" x1="47.82" y1="594.69" x2="38.23" y2="604.28"/><line class="cls-4" x1="53.04" y1="594.69" x2="38.23" y2="609.5"/><line class="cls-4" x1="42.6" y1="594.69" x2="38.23" y2="599.06"/><line class="cls-7" x1="87.44" y1="570.51" x2="87.44" y2="57.63"/><line class="cls-7" x1="80.23" y1="57.63" x2="80.23" y2="570.51"/><rect x="80.36" y="567.75" width="7.08" height="3.26"/><path class="cls-61" d="M77.88,515.4c0,.59.48,1.07,1.07,1.07h10.13c.59,0,1.07-.48,1.07-1.07s-.48-1.07-1.07-1.07h-10.13c-.59,0-1.07.48-1.07,1.07,0,0,0-.59,0,0Z"/><path class="cls-6" d="M77.88,515.4c0,.59.48,1.07,1.07,1.07h10.13c.59,0,1.07-.48,1.07-1.07s-.48-1.07-1.07-1.07h-10.13c-.59,0-1.07.48-1.07,1.07,0,0,0-.59,0,0Z"/><path class="cls-61" d="M77.88,501.36c0,.59.48,1.07,1.07,1.07h10.13c.59,0,1.07-.48,1.07-1.07s-.48-1.07-1.07-1.07h-10.13c-.59,0-1.07.48-1.07,1.07,0,0,0-.59,0,0Z"/><path class="cls-6" d="M77.88,501.36c0,.59.48,1.07,1.07,1.07h10.13c.59,0,1.07-.48,1.07-1.07s-.48-1.07-1.07-1.07h-10.13c-.59,0-1.07.48-1.07,1.07,0,0,0-.59,0,0Z"/><path class="cls-61" d="M77.88,403.16c0,.59.48,1.07,1.07,1.07h10.13c.59,0,1.07-.48,1.07-1.07s-.48-1.07-1.07-1.07h-10.13c-.59,0-1.07.48-1.07,1.07,0,0,0-.59,0,0Z"/><path class="cls-6" d="M77.88,403.16c0,.59.48,1.07,1.07,1.07h10.13c.59,0,1.07-.48,1.07-1.07s-.48-1.07-1.07-1.07h-10.13c-.59,0-1.07.48-1.07,1.07,0,0,0-.59,0,0Z"/><path class="cls-61" d="M77.88,385.33c0,.59.48,1.07,1.07,1.07h10.13c.59,0,1.07-.48,1.07-1.07s-.48-1.07-1.07-1.07h-10.13c-.59,0-1.07.48-1.07,1.07,0,0,0-.59,0,0Z"/><path class="cls-6" d="M77.88,385.33c0,.59.48,1.07,1.07,1.07h10.13c.59,0,1.07-.48,1.07-1.07s-.48-1.07-1.07-1.07h-10.13c-.59,0-1.07.48-1.07,1.07,0,0,0-.59,0,0Z"/><path class="cls-61" d="M77.88,229.95c0,.59.48,1.07,1.07,1.07h10.12c.59,0,1.07-.48,1.07-1.07s-.48-1.07-1.07-1.07h-10.12c-.59,0-1.07.48-1.07,1.07,0,0,0-.59,0,0Z"/><path class="cls-6" d="M77.88,229.95c0,.59.48,1.07,1.07,1.07h10.12c.59,0,1.07-.48,1.07-1.07s-.48-1.07-1.07-1.07h-10.12c-.59,0-1.07.48-1.07,1.07,0,0,0-.59,0,0Z"/><path class="cls-61" d="M77.88,267.7c0,.59.48,1.07,1.07,1.07h10.13c.59,0,1.07-.48,1.07-1.07s-.48-1.07-1.07-1.07h-10.13c-.59,0-1.07.48-1.07,1.07,0,0,0-.59,0,0Z"/><path class="cls-6" d="M77.88,267.7c0,.59.48,1.07,1.07,1.07h10.13c.59,0,1.07-.48,1.07-1.07s-.48-1.07-1.07-1.07h-10.13c-.59,0-1.07.48-1.07,1.07,0,0,0-.59,0,0Z"/><path class="cls-61" d="M77.88,187.75c0,.59.48,1.07,1.07,1.07h10.13c.59,0,1.07-.48,1.07-1.07s-.48-1.07-1.07-1.07h-10.13c-.59,0-1.07.48-1.07,1.07,0,0,0-.59,0,0Z"/><path class="cls-6" d="M77.88,187.75c0,.59.48,1.07,1.07,1.07h10.13c.59,0,1.07-.48,1.07-1.07s-.48-1.07-1.07-1.07h-10.13c-.59,0-1.07.48-1.07,1.07,0,0,0-.59,0,0Z"/><path class="cls-61" d="M77.88,67.14c0,.59.48,1.07,1.07,1.07h10.13c.59,0,1.07-.48,1.07-1.07s-.48-1.07-1.07-1.07h-10.13c-.59,0-1.07.48-1.07,1.07,0,0,0-.59,0,0Z"/><path class="cls-6" d="M77.88,67.14c0,.59.48,1.07,1.07,1.07h10.13c.59,0,1.07-.48,1.07-1.07s-.48-1.07-1.07-1.07h-10.13c-.59,0-1.07.48-1.07,1.07,0,0,0-.59,0,0Z"/><rect class="cls-2" x="41.73" y="57.44" width="12.8" height="17.22"/><rect class="cls-8" x="41.73" y="89.95" width="12.8" height="24.94"/><rect class="cls-8" x="41.73" y="75.17" width="12.8" height="5.58"/><rect class="cls-2" x="41.73" y="80.75" width="12.8" height="9.03"/><rect class="cls-2" x="41.73" y="115" width="12.8" height="18.67"/><rect class="cls-8" x="41.73" y="159.38" width="12.8" height="17.21"/><rect class="cls-8" x="41.73" y="133.97" width="12.8" height="2.61"/><rect class="cls-2" x="41.73" y="136.14" width="12.8" height="23.13"/><rect class="cls-8" x="41.73" y="277.61" width="12.8" height="44.25"/><rect class="cls-8" x="41.73" y="233.72" width="12.8" height="28.46"/><rect class="cls-2" x="41.73" y="322.27" width="12.8" height="15.75"/><rect class="cls-2" x="41.73" y="395.46" width="12.8" height="18.15"/><rect class="cls-8" x="41.73" y="449.22" width="12.8" height="42.92"/><rect class="cls-2" x="41.73" y="440.78" width="12.8" height="8.2"/><rect class="cls-8" x="41.73" y="387.76" width="12.8" height="8.05"/><rect class="cls-2" x="41.73" y="528.96" width="12.8" height="8.05"/><rect class="cls-8" x="41.73" y="414.14" width="12.8" height="12.16"/><rect class="cls-8" x="41.73" y="507.69" width="12.8" height="5.42"/><rect class="cls-2" x="41.73" y="492.58" width="12.8" height="14.67"/><rect class="cls-8" x="41.73" y="522.16" width="12.8" height="6.31"/><rect class="cls-2" x="41.73" y="176.48" width="12.8" height="24.98"/><rect class="cls-8" x="41.73" y="201.74" width="12.8" height="11.67"/><rect class="cls-2" x="41.73" y="213.19" width="12.8" height="20.46"/><rect class="cls-2" x="41.73" y="262.45" width="12.8" height="14.61"/><rect class="cls-8" x="41.73" y="338" width="12.8" height="18.8"/><rect class="cls-8" x="41.73" y="432.02" width="12.8" height="9.15"/><rect class="cls-2" x="41.73" y="426" width="12.8" height="5.66"/><rect class="cls-8" x="41.73" y="537.36" width="12.8" height="11.83"/><rect class="cls-2" x="41.73" y="513.5" width="12.8" height="9.11"/><rect class="cls-8" x="41.73" y="567.33" width="12.8" height="4.1"/><rect class="cls-2" x="41.73" y="549.24" width="12.8" height="17.52"/><rect class="cls-2" x="41.73" y="357.18" width="12.8" height="30.35"/><polyline class="cls-5" points="75.8 516.47 73.64 516.47 73.64 521.09 73.64 523.59 73.64 526.47 73.64 528.85 73.64 530.19 73.64 531.15 73.64 532.43 73.64 532.64 73.64 533.7 73.64 535.72 73.64 537.37 73.64 539.73 73.64 539.99 73.64 542.8 73.64 545.91 73.64 548.55 73.64 548.78 73.64 551.7 73.64 554.1 73.64 556.44 73.64 556.78 73.64 559.18 73.64 559.28 73.64 560.95 73.64 561.81 73.64 562.67 73.64 564.18 73.64 566.14 73.64 594.69 75.8 594.69"/><polyline class="cls-5" points="75.8 514.33 73.64 514.33 73.64 514.12 73.64 514.07 73.64 511.2 73.64 510.16 73.64 507.88 73.64 505.95 73.64 504.16 73.64 504.1 73.64 503.5 73.64 502.39 75.8 502.39"/><polyline class="cls-5" points="75.8 500.29 73.64 500.29 73.64 492.49 73.64 489.79 73.64 474.63 73.64 473.8 73.64 472.49 73.64 471.98 73.64 471.52 73.64 469.99 73.64 463.38 73.64 461.84 73.64 461.73 73.64 461.46 73.64 460.44 73.64 459.69 73.64 458.91 73.64 458.48 73.64 451.01 73.64 447.13 73.64 443.25 73.64 442.69 73.64 440.45 73.64 439.63 73.64 426.73 73.64 424.2 73.64 423.68 73.64 422.2 73.64 420.4 73.64 419.57 73.64 418.4 73.64 418.24 73.64 416.59 73.64 415.91 73.64 410.41 73.64 407.49 73.64 405.73 73.64 404.23 75.8 404.23"/><polyline class="cls-5" points="75.8 402.09 73.64 402.09 73.64 395.34 73.64 393.29 73.64 392.61 73.64 390.4 73.64 386.4 75.8 386.4"/><polyline class="cls-11" points="75.8 268.77 73.64 268.77 73.64 270.88 73.64 271.1 73.64 273.58 73.64 274.01 73.64 274.11 73.64 274.46 73.64 275.22 73.64 276.73 73.64 277.57 73.64 278.35 73.64 279.05 73.64 280.53 73.64 280.89 73.64 283.08 73.64 288.59 73.64 291.85 73.64 295.72 73.64 297.35 73.64 299.12 73.64 299.23 73.64 300.38 73.64 302.22 73.64 302.33 73.64 304.69 73.64 306.8 73.64 309.84 73.64 312.21 73.64 314.54 73.64 317.9 73.64 319.07 73.64 319.26 73.64 320.29 73.64 321.33 73.64 322.54 73.64 322.8 73.64 322.9 73.64 325.64 73.64 326.49 73.64 330.7 73.64 331.71 73.64 333.25 73.64 334.56 73.64 337.55 73.64 338.52 73.64 339.76 73.64 341.93 73.64 343.28 73.64 346.21 73.64 350.73 73.64 352.01 73.64 353.66 73.64 354.06 73.64 355.34 73.64 355.95 73.64 363.94 73.64 366.7 73.64 371.13 73.64 372.84 73.64 374.06 73.64 376.32 73.64 377.99 73.64 380 73.64 381.19 73.64 382.81 73.64 383.83 73.64 384.26 75.8 384.26"/><polyline class="cls-11" points="75.8 231.03 73.64 231.03 73.64 231.31 73.64 234.13 73.64 234.66 73.64 237.37 73.64 237.8 73.64 239.66 73.64 240.71 73.64 242.24 73.64 244.9 73.64 245.52 73.64 247.07 73.64 248.39 73.64 248.42 73.64 248.6 73.64 250.27 73.64 250.32 73.64 255.8 73.64 257.91 73.64 258.58 73.64 258.61 73.64 260.63 73.64 262.23 73.64 264.76 73.64 266.63 75.8 266.63"/><polyline class="cls-11" points="75.8 68.21 73.64 68.21 73.64 73.42 73.64 77.46 73.64 87.93 73.64 93.32 73.64 94.27 73.64 96.44 73.64 96.85 73.64 107.61 73.64 110.34 73.64 111.08 73.64 111.54 73.64 111.83 73.64 112.9 73.64 114.44 73.64 114.45 73.64 120.41 73.64 123.62 73.64 125.73 73.64 127.03 73.64 128.72 73.64 130.6 73.64 132.65 73.64 133.11 73.64 134.46 73.64 135.69 73.64 137.31 73.64 142.25 73.64 144.95 73.64 146.44 73.64 149.53 73.64 161.17 73.64 163.17 73.64 163.27 73.64 164.29 73.64 164.64 73.64 166.48 73.64 171.79 73.64 174.36 73.64 175 73.64 175.43 73.64 176.82 73.64 177.99 73.64 178.74 73.64 180.48 73.64 184.6 73.64 185.62 73.64 186.68 75.8 186.68"/><polyline class="cls-11" points="75.8 188.82 73.64 188.82 73.64 199.78 73.64 201.19 73.64 202.56 73.64 205.27 73.64 212.84 73.64 215.89 73.64 216.68 73.64 219.3 73.64 219.49 73.64 220.53 73.64 221.46 73.64 222.02 73.64 223.99 73.64 224.4 73.64 228.38 73.64 228.88 75.8 228.88"/><text class="cls-19" transform="translate(67.23 25.97) scale(1.07 1)"><tspan x="0" y="0">USGS 149</tspan><tspan x="-3.67" y="7.01">MU</tspan><tspan class="cls-102" x="5.67" y="7.01">L</tspan><tspan x="8.56" y="7.01">TILEVE</tspan><tspan class="cls-17" x="29.23" y="7.01">L</tspan><tspan x="-5.49" y="14.01">COMPLETION</tspan></text><text class="cls-25" transform="translate(94.52 538.59) scale(.88 1)"><tspan x="0" y="0">P1</tspan></text><text class="cls-25" transform="translate(94.52 391.18) scale(.88 1)"><tspan x="0" y="0">P6</tspan></text><text class="cls-25" transform="translate(94.52 318.64) scale(.88 1)"><tspan x="0" y="0">P7</tspan></text><text class="cls-25" transform="translate(94.52 408.61) scale(.88 1)"><tspan x="0" y="0">P5</tspan></text><text class="cls-25" transform="translate(94.52 273.59) scale(.88 1)"><tspan x="0" y="0">P8</tspan></text><text class="cls-25" transform="translate(94.52 236.21) scale(.88 1)"><tspan x="0" y="0">P9</tspan></text><text class="cls-25" transform="translate(94.52 193.44) scale(.88 1)"><tspan x="0" y="0">P10</tspan></text><text class="cls-25" transform="translate(94.52 177.71) scale(.88 1)"><tspan x="0" y="0">P</tspan><tspan class="cls-45" x="4" y="0">1</tspan><tspan class="cls-95" x="6.89" y="0">1</tspan></text><text class="cls-25" transform="translate(94.52 72.51) scale(.88 1)"><tspan x="0" y="0">P12</tspan></text><text class="cls-25" transform="translate(94.52 520.98) scale(.88 1)"><tspan x="0" y="0">P2</tspan></text><text class="cls-25" transform="translate(94.52 506.71) scale(.88 1)"><tspan x="0" y="0">P3</tspan></text><text class="cls-25" transform="translate(94.52 463.35) scale(.88 1)"><tspan x="0" y="0">P4</tspan></text><text class="cls-19" transform="translate(65.06 452.93) scale(.88 1)"><tspan x="0" y="0">Z3</tspan></text><text class="cls-25" transform="translate(65.06 452.93) scale(.88 1)"><tspan x="0" y="0">Z3</tspan></text><text class="cls-19" transform="translate(65.06 510.02) scale(.88 1)"><tspan x="0" y="0">Z2</tspan></text><text class="cls-25" transform="translate(65.06 510.02) scale(.88 1)"><tspan x="0" y="0">Z2</tspan></text><text class="cls-19" transform="translate(65.06 555.06) scale(.88 1)"><tspan x="0" y="0">Z1</tspan></text><text class="cls-25" transform="translate(65.06 555.06) scale(.88 1)"><tspan x="0" y="0">Z1</tspan></text><text class="cls-19" transform="translate(65.06 322.83) scale(.88 1)"><tspan x="0" y="0">Z5</tspan></text><text class="cls-25" transform="translate(65.06 322.83) scale(.88 1)"><tspan x="0" y="0">Z5</tspan></text><text class="cls-19" transform="translate(65.06 249.45) scale(.88 1)"><tspan x="0" y="0">Z6</tspan></text><text class="cls-25" transform="translate(65.06 249.45) scale(.88 1)"><tspan x="0" y="0">Z6</tspan></text><text class="cls-19" transform="translate(65.06 208.76) scale(.88 1)"><tspan x="0" y="0">Z7</tspan></text><text class="cls-25" transform="translate(65.06 208.76) scale(.88 1)"><tspan x="0" y="0">Z7</tspan></text><text class="cls-19" transform="translate(65.06 124.31) scale(.88 1)"><tspan x="0" y="0">Z8</tspan></text><text class="cls-25" transform="translate(65.06 124.31) scale(.88 1)"><tspan x="0" y="0">Z8</tspan></text><text class="cls-19" transform="translate(65.06 396.32) scale(.88 1)"><tspan x="0" y="0">Z4</tspan></text><text class="cls-25" transform="translate(65.06 396.32) scale(.88 1)"><tspan x="0" y="0">Z4</tspan></text><text class="cls-24" transform="translate(19.66 59.88) scale(.91 1)"><tspan x="0" y="0">650</tspan></text><text class="cls-24" transform="translate(19.66 143.16) scale(.91 1)"><tspan x="0" y="0">700</tspan></text><text class="cls-24" transform="translate(19.66 225.98) scale(.91 1)"><tspan x="0" y="0">750</tspan></text><text class="cls-24" transform="translate(19.66 308.79) scale(.91 1)"><tspan x="0" y="0">800</tspan></text><text class="cls-24" transform="translate(19.66 391.61) scale(.91 1)"><tspan x="0" y="0">850</tspan></text><text class="cls-24" transform="translate(16.62 474.43) scale(.91 1)"><tspan x="0" y="0" xml:space="preserve">  900</tspan></text><text class="cls-24" transform="translate(15.11 557.25) scale(.91 1)"><tspan x="0" y="0" xml:space="preserve">   950</tspan></text><text class="cls-24" transform="translate(12.07 637.72) scale(.91 1)"><tspan x="0" y="0" xml:space="preserve">  1,000</tspan></text><line class="cls-10" x1="30.89" y1="57.23" x2="38.09" y2="57.23"/><line class="cls-10" x1="30.89" y1="140.17" x2="38.09" y2="140.17"/><line class="cls-10" x1="30.89" y1="223.11" x2="38.09" y2="223.11"/><line class="cls-10" x1="30.89" y1="306.05" x2="38.09" y2="306.05"/><line class="cls-10" x1="30.89" y1="388.99" x2="38.09" y2="388.99"/><line class="cls-10" x1="30.89" y1="471.94" x2="38.09" y2="471.94"/><line class="cls-10" x1="30.89" y1="554.88" x2="38.09" y2="554.88"/><line class="cls-10" x1="30.89" y1="637.82" x2="38.09" y2="637.82"/><line class="cls-10" x1="34.49" y1="98.7" x2="38.09" y2="98.7"/><line class="cls-10" x1="34.49" y1="181.64" x2="38.09" y2="181.64"/><line class="cls-10" x1="34.49" y1="264.58" x2="38.09" y2="264.58"/><line class="cls-10" x1="34.49" y1="347.52" x2="38.09" y2="347.52"/><line class="cls-10" x1="34.49" y1="430.47" x2="38.09" y2="430.47"/><line class="cls-10" x1="34.49" y1="513.41" x2="38.09" y2="513.41"/><line class="cls-10" x1="34.49" y1="596.35" x2="38.09" y2="596.35"/><polygon class="cls-39" points="91.47 68.03 87.82 70.4 91.47 72.78 91.47 68.03"/><polygon class="cls-38" points="91.47 173.23 87.82 175.6 91.47 177.97 91.47 173.23"/><polygon class="cls-38" points="91.47 188.96 87.82 191.33 91.47 193.71 91.47 188.96"/><polygon class="cls-39" points="91.47 231.73 87.82 234.1 91.47 236.47 91.47 231.73"/><polygon class="cls-39" points="91.47 269.11 87.82 271.48 91.47 273.85 91.47 269.11"/><polygon class="cls-38" points="91.47 314.03 87.82 316.41 91.47 318.78 91.47 314.03"/><polygon class="cls-39" points="91.47 386.7 87.82 389.08 91.47 391.45 91.47 386.7"/><polygon class="cls-39" points="91.47 404.13 87.82 406.51 91.47 408.88 91.47 404.13"/><polygon class="cls-38" points="91.47 457.85 87.82 460.22 91.47 462.59 91.47 457.85"/><polygon class="cls-39" points="91.47 502.22 87.82 504.6 91.47 506.97 91.47 502.22"/><polygon class="cls-39" points="91.47 516.5 87.82 518.88 91.47 521.25 91.47 516.5"/><polygon class="cls-38" points="91.47 534.11 87.82 536.48 91.47 538.85 91.47 534.11"/><text class="cls-27" transform="translate(112.5 590.07) scale(.89 1)"><tspan class="cls-28"><tspan x="0" y="0">HOLE DEPTH</tspan></tspan><tspan class="cls-52"><tspan x="0" y="6">974 ft</tspan></tspan></text><line class="cls-10" x1="108.44" y1="594.69" x2="38.23" y2="594.69"/></g></g><g id="Explanation"><text class="cls-22" transform="translate(134.16 104.68)"><tspan x="0" y="0">EXPLAN</tspan><tspan class="cls-55" x="32.45" y="0">A</tspan><tspan x="37.63" y="0">TION</tspan></text><text class="cls-20" transform="translate(127.83 120.81)"><tspan x="0" y="0">Lithology</tspan></text><text class="cls-23" transform="translate(151.46 175.96)"><tspan class="cls-83" x="0" y="0">Se</tspan><tspan class="cls-99" x="8.82" y="0">d</tspan><tspan class="cls-32" x="12.79" y="0">i</tspan><tspan class="cls-84" x="14.44" y="0">m</tspan><tspan class="cls-65" x="20.4" y="0">e</tspan><tspan class="cls-82" x="24.4" y="0">n</tspan><tspan class="cls-66" x="28.34" y="0">t</tspan></text><text class="cls-23" transform="translate(151.46 136.8)"><tspan class="cls-34" x="0" y="0">D</tspan><tspan class="cls-94" x="5.21" y="0">e</tspan><tspan class="cls-50" x="9.21" y="0">n</tspan><tspan class="cls-94" x="13.2" y="0">s</tspan><tspan class="cls-74" x="16.81" y="0">e </tspan><tspan class="cls-46" x="22.65" y="0">ba</tspan><tspan class="cls-103" x="30.62" y="0">s</tspan><tspan class="cls-69" x="34.25" y="0">a</tspan><tspan class="cls-91" x="38.25" y="0">l</tspan><tspan class="cls-66" x="39.89" y="0">t</tspan></text><rect class="cls-12" x="135.03" y="127.47" width="12.8" height="13.62"/><text class="cls-23" transform="translate(151.46 156.38)"><tspan class="cls-57" x="0" y="0">F</tspan><tspan class="cls-83" x="4.17" y="0">r</tspan><tspan class="cls-59" x="6.63" y="0">a</tspan><tspan class="cls-41" x="10.6" y="0">c</tspan><tspan class="cls-54" x="14.27" y="0">t</tspan><tspan class="cls-91" x="16.32" y="0">u</tspan><tspan class="cls-58" x="20.3" y="0">r</tspan><tspan class="cls-30" x="22.74" y="0">e</tspan><tspan class="cls-74" x="26.76" y="0">d </tspan><tspan class="cls-29" x="32.6" y="0">ba</tspan><tspan class="cls-103" x="40.58" y="0">s</tspan><tspan class="cls-33" x="44.21" y="0">a</tspan><tspan class="cls-42" x="48.2" y="0">l</tspan><tspan class="cls-66" x="49.84" y="0">t</tspan></text><rect class="cls-14" x="135.03" y="147.05" width="12.8" height="13.62"/><rect class="cls-15" x="135.03" y="166.63" width="12.8" height="13.62"/><line class="cls-35" x1="145.97" y1="231.31" x2="163.89" y2="231.31"/><text class="cls-20" transform="translate(127.83 196.56)"><tspan x="0" y="0">Completion</tspan></text><line class="cls-35" x1="163.89" y1="244.23" x2="160.3" y2="244.23"/><polyline class="cls-35" points="163.89 256.7 158.64 256.7 134.68 249.75"/><polygon class="cls-39" points="150.25 241.97 146.6 244.34 150.25 246.72 150.25 241.97"/><polyline class="cls-3" points="135.45 287.35 133.29 287.35 133.29 232.69 135.45 232.69"/><text class="cls-19" transform="translate(152.35 246.43) scale(.89 1)"><tspan x="0" y="0">P2</tspan></text><text class="cls-19" transform="translate(125.67 250.93) scale(.89 1)"><tspan x="0" y="0">Z1</tspan></text><text class="cls-25" transform="translate(125.67 250.93) scale(.89 1)"><tspan x="0" y="0">Z1</tspan></text><line class="cls-35" x1="145.97" y1="218.82" x2="163.89" y2="218.82"/><line class="cls-35" x1="150.59" y1="207.2" x2="163.89" y2="207.2"/><text class="cls-23" transform="translate(165.88 234.1)"><tspan class="cls-96" x="0" y="0">P</tspan><tspan class="cls-59" x="4.7" y="0">a</tspan><tspan class="cls-1" x="8.68" y="0">c</tspan><tspan class="cls-98" x="12.34" y="0">k</tspan><tspan class="cls-81" x="15.8" y="0">e</tspan><tspan x="19.81" y="0">r</tspan></text><text class="cls-23" transform="translate(165.88 246.67)"><tspan class="cls-40" x="0" y="0">M</tspan><tspan class="cls-65" x="6.01" y="0">e</tspan><tspan class="cls-88" x="10.02" y="0">a</tspan><tspan class="cls-64" x="14" y="0">s</tspan><tspan class="cls-91" x="17.58" y="0">u</tspan><tspan class="cls-58" x="21.57" y="0">r</tspan><tspan class="cls-65" x="24" y="0">e</tspan><tspan class="cls-84" x="28.01" y="0">m</tspan><tspan class="cls-65" x="33.96" y="0">e</tspan><tspan class="cls-82" x="37.96" y="0">n</tspan><tspan class="cls-66" x="41.91" y="0">t </tspan><tspan class="cls-73" x="45.8" y="0">p</tspan><tspan class="cls-103" x="49.83" y="0">o</tspan><tspan class="cls-71" x="53.85" y="0">r</tspan><tspan x="56.54" y="0">t </tspan><tspan class="cls-56" x="60.43" y="0">nu</tspan><tspan class="cls-101" x="68.38" y="0">m</tspan><tspan class="cls-43" x="74.32" y="0">b</tspan><tspan class="cls-81" x="78.34" y="0">e</tspan><tspan x="82.35" y="0">r</tspan></text><text class="cls-23" transform="translate(165.88 259.24)"><tspan class="cls-79" x="0" y="0">M</tspan><tspan class="cls-30" x="6.02" y="0">o</tspan><tspan class="cls-42" x="10.04" y="0">n</tspan><tspan class="cls-69" x="14.02" y="0">i</tspan><tspan class="cls-49" x="15.68" y="0">t</tspan><tspan class="cls-103" x="17.69" y="0">o</tspan><tspan class="cls-75" x="21.72" y="0">r</tspan><tspan class="cls-44" x="24.25" y="0">i</tspan><tspan class="cls-93" x="25.91" y="0">n</tspan><tspan x="29.91" y="0">g </tspan><tspan class="cls-87" x="35.75" y="0">z</tspan><tspan class="cls-83" x="39.31" y="0">o</tspan><tspan class="cls-101" x="43.33" y="0">n</tspan><tspan class="cls-74" x="47.33" y="0">e </tspan><tspan class="cls-64" x="53.17" y="0">nu</tspan><tspan class="cls-86" x="61.12" y="0">m</tspan><tspan class="cls-43" x="67.05" y="0">b</tspan><tspan class="cls-81" x="71.07" y="0">e</tspan><tspan x="75.08" y="0">r</tspan></text><text class="cls-23" transform="translate(165.88 221.53)"><tspan class="cls-51" x="0" y="0">M</tspan><tspan class="cls-88" x="5.99" y="0">ul</tspan><tspan class="cls-18" x="11.62" y="0">t</tspan><tspan class="cls-32" x="13.7" y="0">i</tspan><tspan class="cls-73" x="15.36" y="0">p</tspan><tspan class="cls-103" x="19.39" y="0">o</tspan><tspan class="cls-71" x="23.41" y="0">r</tspan><tspan x="26.1" y="0">t </tspan><tspan class="cls-31" x="29.99" y="0">c</tspan><tspan class="cls-88" x="33.71" y="0">a</tspan><tspan class="cls-70" x="37.7" y="0">s</tspan><tspan class="cls-44" x="41.3" y="0">i</tspan><tspan class="cls-65" x="42.95" y="0">n</tspan><tspan x="46.96" y="0">g</tspan></text><text class="cls-23" transform="translate(165.88 271.81)"><tspan class="cls-53" x="0" y="0">S</tspan><tspan class="cls-60" x="4.79" y="0">a</tspan><tspan class="cls-101" x="8.79" y="0">m</tspan><tspan class="cls-84" x="14.72" y="0">pl</tspan><tspan x="20.41" y="0">e </tspan><tspan class="cls-77" x="26.25" y="0">c</tspan><tspan class="cls-103" x="29.97" y="0">o</tspan><tspan class="cls-29" x="33.99" y="0">l</tspan><tspan class="cls-97" x="35.64" y="0">l</tspan><tspan class="cls-90" x="37.32" y="0">e</tspan><tspan class="cls-41" x="41.33" y="0">c</tspan><tspan class="cls-18" x="45.01" y="0">ti</tspan><tspan class="cls-83" x="48.78" y="0">o</tspan><tspan x="52.8" y="0">n </tspan><tspan class="cls-48" x="58.64" y="0">a</tspan><tspan x="62.59" y="0">t </tspan><tspan class="cls-73" x="66.48" y="0">p</tspan><tspan class="cls-63" x="70.51" y="0">o</tspan><tspan class="cls-78" x="74.54" y="0">r</tspan><tspan class="cls-74" x="77.23" y="0">t</tspan></text><text class="cls-23" transform="translate(165.88 208.96)"><tspan class="cls-68" x="0" y="0">W</tspan><tspan class="cls-43" x="6.58" y="0">e</tspan><tspan class="cls-29" x="10.59" y="0">l</tspan><tspan class="cls-74" x="12.24" y="0">l </tspan><tspan class="cls-31" x="15.74" y="0">c</tspan><tspan class="cls-50" x="19.46" y="0">a</tspan><tspan class="cls-47" x="23.45" y="0">si</tspan><tspan class="cls-93" x="28.71" y="0">n</tspan><tspan x="32.71" y="0">g</tspan></text><line class="cls-37" x1="135.23" y1="202.46" x2="135.23" y2="214.96"/><line class="cls-37" x1="149.72" y1="202.46" x2="149.72" y2="214.96"/><rect x="138.94" y="280.41" width="7.09" height="2.65"/><line class="cls-7" x1="146.03" y1="282.57" x2="145.92" y2="202.46"/><line class="cls-7" x1="138.82" y1="202.46" x2="138.94" y2="282.57"/><path class="cls-61" d="M136.34,231.31c0,.76.62,1.38,1.38,1.38h9.52c.76,0,1.38-.62,1.38-1.38s-.62-1.38-1.38-1.38h-9.52c-.76,0-1.38.62-1.38,1.38,0,0,0-.76,0,0Z"/><path class="cls-36" d="M136.34,231.31c0,.76.62,1.38,1.38,1.38h9.52c.76,0,1.38-.62,1.38-1.38s-.62-1.38-1.38-1.38h-9.52c-.76,0-1.38.62-1.38,1.38,0,0,0-.76,0,0Z"/><text class="cls-20" transform="translate(127.83 303.87)"><tspan x="0" y="0">Borehole</tspan></text><line class="cls-4" x1="147.83" y1="335.05" x2="139.74" y2="343.14"/><line class="cls-4" x1="147.83" y1="340.27" x2="144.96" y2="343.14"/><line class="cls-4" x1="142.92" y1="329.52" x2="135.03" y2="337.41"/><line class="cls-4" x1="147.83" y1="329.83" x2="135.03" y2="342.63"/><line class="cls-4" x1="137.7" y1="329.52" x2="135.03" y2="332.19"/><rect class="cls-13" x="135.03" y="329.52" width="12.8" height="13.62"/><text class="cls-23" transform="translate(151.46 338.2)"><tspan class="cls-73" x="0" y="0">B</tspan><tspan class="cls-43" x="4.81" y="0">el</tspan><tspan class="cls-76" x="10.5" y="0">o</tspan><tspan class="cls-74" x="14.47" y="0">w </tspan><tspan class="cls-92" x="21.47" y="0">h</tspan><tspan class="cls-103" x="25.48" y="0">o</tspan><tspan class="cls-97" x="29.51" y="0">l</tspan><tspan class="cls-74" x="31.18" y="0">e </tspan><tspan class="cls-58" x="37.02" y="0">d</tspan><tspan class="cls-94" x="41.01" y="0">e</tspan><tspan class="cls-89" x="45.02" y="0">p</tspan><tspan class="cls-67" x="48.97" y="0">t</tspan><tspan x="51.05" y="0">h</tspan></text><polygon class="cls-16" points="138.4 312.05 141.43 314.9 144.45 312.05 138.4 312.05"/><line class="cls-10" x1="135.03" y1="315.28" x2="136.03" y2="315.28"/><line class="cls-9" x1="138.19" y1="315.28" x2="145.75" y2="315.28"/><line class="cls-10" x1="146.83" y1="315.28" x2="147.83" y2="315.28"/><text class="cls-23" transform="translate(151.46 316.53)"><tspan class="cls-68" x="0" y="0">W</tspan><tspan class="cls-48" x="6.58" y="0">at</tspan><tspan class="cls-81" x="12.54" y="0">e</tspan><tspan x="16.55" y="0">r </tspan><tspan class="cls-97" x="20.83" y="0">l</tspan><tspan class="cls-74" x="22.5" y="0">e</tspan><tspan class="cls-62" x="26.39" y="0">v</tspan><tspan class="cls-53" x="29.9" y="0">e</tspan><tspan x="33.92" y="0">l </tspan><tspan class="cls-84" x="37.42" y="0">m</tspan><tspan class="cls-93" x="43.37" y="0">e</tspan><tspan class="cls-50" x="47.37" y="0">a</tspan><tspan class="cls-64" x="51.36" y="0">s</tspan><tspan class="cls-91" x="54.94" y="0">u</tspan><tspan class="cls-58" x="58.93" y="0">r</tspan><tspan class="cls-30" x="61.36" y="0">e</tspan><tspan x="65.38" y="0">d</tspan><tspan class="cls-80" x="0" y="8.4">o</tspan><tspan class="cls-100" x="4.01" y="8.4">u</tspan><tspan class="cls-85" x="7.99" y="8.4">t</tspan><tspan class="cls-70" x="10.08" y="8.4">s</tspan><tspan class="cls-18" x="13.68" y="8.4">i</tspan><tspan class="cls-58" x="15.37" y="8.4">d</tspan><tspan x="19.37" y="8.4">e </tspan><tspan class="cls-29" x="25.21" y="8.4">mul</tspan><tspan class="cls-18" x="36.77" y="8.4">t</tspan><tspan class="cls-44" x="38.85" y="8.4">i</tspan><tspan class="cls-73" x="40.5" y="8.4">p</tspan><tspan class="cls-63" x="44.53" y="8.4">o</tspan><tspan class="cls-78" x="48.56" y="8.4">r</tspan><tspan class="cls-74" x="51.25" y="8.4">t </tspan><tspan class="cls-31" x="55.13" y="8.4">c</tspan><tspan class="cls-50" x="58.86" y="8.4">a</tspan><tspan class="cls-47" x="62.84" y="8.4">si</tspan><tspan class="cls-93" x="68.1" y="8.4">n</tspan><tspan x="72.1" y="8.4">g</tspan></text><text class="cls-23" transform="translate(165.88 284.38)"><tspan class="cls-51" x="0" y="0">M</tspan><tspan class="cls-88" x="5.99" y="0">ul</tspan><tspan class="cls-18" x="11.62" y="0">t</tspan><tspan class="cls-32" x="13.7" y="0">i</tspan><tspan class="cls-73" x="15.36" y="0">p</tspan><tspan class="cls-103" x="19.39" y="0">o</tspan><tspan class="cls-71" x="23.41" y="0">r</tspan><tspan class="cls-46" x="26.1" y="0">t</tspan><tspan class="cls-72" x="28.14" y="0">-</tspan><tspan class="cls-31" x="30.79" y="0">c</tspan><tspan class="cls-91" x="34.51" y="0">a</tspan><tspan class="cls-70" x="38.49" y="0">s</tspan><tspan class="cls-44" x="42.1" y="0">i</tspan><tspan class="cls-93" x="43.75" y="0">n</tspan><tspan class="cls-74" x="47.75" y="0">g </tspan><tspan class="cls-94" x="53.59" y="0">en</tspan><tspan class="cls-74" x="61.6" y="0">d </tspan><tspan class="cls-31" x="67.44" y="0">c</tspan><tspan class="cls-44" x="71.16" y="0">a</tspan><tspan x="75.15" y="0">p</tspan></text><line class="cls-35" x1="145.97" y1="281.92" x2="163.89" y2="281.92"/><line class="cls-35" x1="163.89" y1="269.35" x2="152.3" y2="269.35"/><polygon class="cls-38" points="150.25 266.98 146.6 269.35 150.25 271.72 150.25 266.98"/></g><g id="Grid"><text class="cls-21" transform="translate(9.42 394.03) rotate(-90) scale(1.26 1)"><tspan x="0" y="0">Depth, in feet below land surface</tspan></text><text class="cls-26" transform="translate(51.33 52.08) rotate(-90) scale(1.16 1)"><tspan x="0" y="0">LITHOLOGY</tspan></text><text class="cls-19" transform="translate(63.14 52.54) scale(.93 1)"><tspan x="0" y="0">Zone</tspan></text><text class="cls-19" transform="translate(94.11 52.54) scale(.93 1)"><tspan x="0" y="0">Port</tspan></text><polyline class="cls-10" points="38.23 57.23 108.44 57.23 38.23 57.23"/><line class="cls-10" x1="58" y1="6.97" x2="58" y2="637.82"/><polygon class="cls-10" points="108.44 637.82 108.44 6.97 38.23 6.97 38.23 6.97 38.23 637.82 108.44 637.82"/></g></svg>