<?xml version="1.0" encoding="UTF-8"?><svg xmlns="http://www.w3.org/2000/svg" viewBox="0 0 252 645"><defs><style>.cls-1{letter-spacing:.02em;}.cls-2,.cls-3,.cls-4,.cls-5,.cls-6,.cls-7,.cls-8,.cls-9,.cls-10,.cls-11,.cls-12{stroke-linejoin:round;}.cls-2,.cls-3,.cls-4,.cls-5,.cls-7,.cls-9,.cls-10,.cls-11,.cls-12{stroke-linecap:round;}.cls-2,.cls-4,.cls-13,.cls-7,.cls-9,.cls-14,.cls-10,.cls-11,.cls-15,.cls-12,.cls-16{stroke:#000;}.cls-2,.cls-13{fill:#bcbdc0;}.cls-2,.cls-7,.cls-17,.cls-12{stroke-width:.25px;}.cls-18{letter-spacing:-.04em;}.cls-19{letter-spacing:.02em;}.cls-20,.cls-21,.cls-22,.cls-23,.cls-24{fill:#231f20;}.cls-20,.cls-25,.cls-26,.cls-27,.cls-22,.cls-24,.cls-28,.cls-29{font-family:ArialMT, Arial;}.cls-20,.cls-25,.cls-26,.cls-27,.cls-28,.cls-30{font-size:6px;}.cls-31{letter-spacing:.01em;}.cls-21,.cls-23{font-family:Arial-BoldMT, Arial;font-weight:700;}.cls-21,.cls-24{font-size:7px;}.cls-32{letter-spacing:.02em;}.cls-33{letter-spacing:.03em;}.cls-34{letter-spacing:.01em;}.cls-35{letter-spacing:.01em;}.cls-36{letter-spacing:.02em;}.cls-37,.cls-3,.cls-4,.cls-5,.cls-6,.cls-13,.cls-15,.cls-16{stroke-width:.35px;}.cls-37,.cls-3,.cls-4,.cls-5,.cls-6,.cls-8,.cls-38,.cls-9,.cls-14,.cls-10,.cls-11,.cls-39{fill:none;}.cls-37,.cls-3,.cls-40,.cls-8,.cls-38,.cls-41{stroke:#241f20;}.cls-37,.cls-13,.cls-14,.cls-15,.cls-16{stroke-miterlimit:90;}.cls-42{letter-spacing:.03em;}.cls-43{letter-spacing:0em;}.cls-44{letter-spacing:.02em;}.cls-45{letter-spacing:.01em;}.cls-46{letter-spacing:.02em;}.cls-47{letter-spacing:.01em;}.cls-48{letter-spacing:.01em;}.cls-49{letter-spacing:.01em;}.cls-50{letter-spacing:0em;}.cls-25{stroke:#fff;}.cls-25,.cls-27,.cls-29{fill:#241f20;}.cls-26{fill:#212121;}.cls-5,.cls-6,.cls-39{stroke:#231f20;}.cls-51{letter-spacing:.01em;}.cls-52{letter-spacing:.01em;}.cls-53{letter-spacing:.02em;}.cls-54{font-size:5px;}.cls-55{letter-spacing:.02em;}.cls-40{fill:red;}.cls-40,.cls-41{stroke-width:.53px;}.cls-56{letter-spacing:.01em;}.cls-57{letter-spacing:-.07em;}.cls-58{letter-spacing:.01em;}.cls-7,.cls-15{fill:#fbb041;}.cls-59{letter-spacing:-.02em;}.cls-8,.cls-38,.cls-14,.cls-10,.cls-11{stroke-width:.5px;}.cls-60{letter-spacing:.02em;}.cls-38{stroke-miterlimit:10;}.cls-61{letter-spacing:.01em;}.cls-62{letter-spacing:.01em;}.cls-63{fill:#1072ba;}.cls-64{letter-spacing:0em;}.cls-65{letter-spacing:.02em;}.cls-66{letter-spacing:.01em;}.cls-67{letter-spacing:.02em;}.cls-68{letter-spacing:0em;}.cls-69{letter-spacing:.02em;}.cls-70{letter-spacing:0em;}.cls-71{letter-spacing:.01em;}.cls-72{letter-spacing:-.07em;}.cls-73{letter-spacing:.01em;}.cls-22,.cls-23{font-size:8px;}.cls-74{letter-spacing:.05em;}.cls-75{letter-spacing:.05em;}.cls-76{letter-spacing:.02em;}.cls-77{letter-spacing:0em;}.cls-78{letter-spacing:.03em;}.cls-10{stroke-dasharray:2.16 2.16;}.cls-79{letter-spacing:.01em;}.cls-80{letter-spacing:.03em;}.cls-81{letter-spacing:.05em;}.cls-82{letter-spacing:.03em;}.cls-83{letter-spacing:.02em;}.cls-84{letter-spacing:.02em;}.cls-85{letter-spacing:0em;}.cls-17{fill:#70cddd;stroke:#70cddd;}.cls-86{letter-spacing:.02em;}.cls-87{letter-spacing:.02em;}.cls-88{letter-spacing:.02em;}.cls-89{letter-spacing:.02em;}.cls-90{letter-spacing:0em;}.cls-91{letter-spacing:.01em;}.cls-92{letter-spacing:0em;}.cls-93{letter-spacing:.02em;}.cls-39{stroke-width:2px;}.cls-94{letter-spacing:.01em;}.cls-12,.cls-16{fill:#f5eb12;}.cls-95{letter-spacing:.02em;}.cls-41{fill:#fff;}.cls-96{letter-spacing:.02em;}.cls-97{letter-spacing:.02em;}.cls-98{letter-spacing:0em;}.cls-99{letter-spacing:.02em;}.cls-100{letter-spacing:0em;}.cls-101{letter-spacing:.01em;}.cls-102{letter-spacing:.01em;}.cls-103{letter-spacing:.02em;}.cls-104{letter-spacing:-.07em;}.cls-105{letter-spacing:.02em;}</style></defs><g id="Completions"><g id="USGS_103"><text class="cls-26" transform="translate(20.06 104.53) scale(.87 1)"><tspan x="0" y="0">700</tspan></text><text class="cls-26" transform="translate(20.06 149.18) scale(.87 1)"><tspan x="0" y="0">750</tspan></text><text class="cls-26" transform="translate(20.06 193.83) scale(.87 1)"><tspan x="0" y="0">800</tspan></text><text class="cls-26" transform="translate(20.06 238.48) scale(.87 1)"><tspan x="0" y="0">850</tspan></text><text class="cls-26" transform="translate(20.06 283.13) scale(.87 1)"><tspan x="0" y="0">900</tspan></text><text class="cls-26" transform="translate(20.06 327.78) scale(.87 1)"><tspan x="0" y="0">950</tspan></text><text class="cls-26" transform="translate(15.7 372.43) scale(.87 1)"><tspan x="0" y="0">1,000</tspan></text><text class="cls-26" transform="translate(15.85 417.08) scale(.86 1)"><tspan x="0" y="0">1,050</tspan></text><text class="cls-26" transform="translate(15.7 461.73) scale(.87 1)"><tspan x="0" y="0">1,100</tspan></text><text class="cls-26" transform="translate(15.7 506.39) scale(.87 1)"><tspan x="0" y="0">1,150</tspan></text><text class="cls-26" transform="translate(15.7 551.04) scale(.87 1)"><tspan x="0" y="0">1,200</tspan></text><text class="cls-26" transform="translate(15.7 595.69) scale(.87 1)"><tspan x="0" y="0">1,250</tspan></text><text class="cls-26" transform="translate(20.06 59.88) scale(.87 1)"><tspan x="0" y="0">650</tspan></text><text class="cls-26" transform="translate(15.7 637.72) scale(.87 1)"><tspan x="0" y="0">1,300</tspan></text><text class="cls-20" transform="translate(64.96 562.84) scale(.87 1)"><tspan x="0" y="0">Z3</tspan></text><text class="cls-27" transform="translate(64.96 562.84) scale(.87 1)"><tspan x="0" y="0">Z3</tspan></text><text class="cls-20" transform="translate(64.96 595.16) scale(.87 1)"><tspan x="0" y="0">Z2</tspan></text><text class="cls-27" transform="translate(64.96 595.16) scale(.87 1)"><tspan x="0" y="0">Z2</tspan></text><text class="cls-20" transform="translate(64.96 618.97) scale(.87 1)"><tspan x="0" y="0">Z1</tspan></text><text class="cls-27" transform="translate(64.96 618.97) scale(.87 1)"><tspan x="0" y="0">Z1</tspan></text><text class="cls-20" transform="translate(64.96 505.24) scale(.87 1)"><tspan x="0" y="0">Z4</tspan></text><text class="cls-27" transform="translate(64.96 505.24) scale(.87 1)"><tspan x="0" y="0">Z4</tspan></text><text class="cls-20" transform="translate(64.96 466.78) scale(.87 1)"><tspan x="0" y="0">Z5</tspan></text><text class="cls-27" transform="translate(64.96 466.78) scale(.87 1)"><tspan x="0" y="0">Z5</tspan></text><text class="cls-20" transform="translate(64.96 443.5) scale(.87 1)"><tspan x="0" y="0">Z6</tspan></text><text class="cls-27" transform="translate(64.96 443.5) scale(.87 1)"><tspan x="0" y="0">Z6</tspan></text><text class="cls-20" transform="translate(64.96 419.6) scale(.87 1)"><tspan x="0" y="0">Z7</tspan></text><text class="cls-27" transform="translate(64.96 419.6) scale(.87 1)"><tspan x="0" y="0">Z7</tspan></text><text class="cls-20" transform="translate(64.96 398.78) scale(.87 1)"><tspan x="0" y="0">Z8</tspan></text><text class="cls-27" transform="translate(64.96 398.78) scale(.87 1)"><tspan x="0" y="0">Z8</tspan></text><text class="cls-20" transform="translate(62.21 328.63) scale(.87 1)"><tspan x="0" y="0">Z10</tspan></text><text class="cls-27" transform="translate(62.21 328.63) scale(.87 1)"><tspan x="0" y="0">Z10</tspan></text><text class="cls-20" transform="translate(62.41 313.9) scale(.87 1)"><tspan x="0" y="0">Z</tspan><tspan class="cls-72" x="3.66" y="0">1</tspan><tspan class="cls-43" x="6.56" y="0">1</tspan></text><text class="cls-27" transform="translate(62.41 313.9) scale(.87 1)"><tspan x="0" y="0">Z</tspan><tspan class="cls-72" x="3.66" y="0">1</tspan><tspan class="cls-43" x="6.56" y="0">1</tspan></text><text class="cls-20" transform="translate(62.21 288.04) scale(.87 1)"><tspan x="0" y="0">Z12</tspan></text><text class="cls-27" transform="translate(62.21 288.04) scale(.87 1)"><tspan x="0" y="0">Z12</tspan></text><text class="cls-20" transform="translate(62.21 260.66) scale(.87 1)"><tspan x="0" y="0">Z13</tspan></text><text class="cls-27" transform="translate(62.21 260.66) scale(.87 1)"><tspan x="0" y="0">Z13</tspan></text><text class="cls-20" transform="translate(62.21 235.68) scale(.87 1)"><tspan x="0" y="0">Z14</tspan></text><text class="cls-27" transform="translate(62.21 235.68) scale(.87 1)"><tspan x="0" y="0">Z14</tspan></text><text class="cls-20" transform="translate(62.21 193.29) scale(.87 1)"><tspan x="0" y="0">Z15</tspan></text><text class="cls-27" transform="translate(62.21 193.29) scale(.87 1)"><tspan x="0" y="0">Z15</tspan></text><text class="cls-20" transform="translate(62.21 130.17) scale(.87 1)"><tspan x="0" y="0">Z16</tspan></text><text class="cls-27" transform="translate(62.21 130.17) scale(.87 1)"><tspan x="0" y="0">Z16</tspan></text><text class="cls-20" transform="translate(62.21 87.15) scale(.87 1)"><tspan x="0" y="0">Z17</tspan></text><text class="cls-27" transform="translate(62.21 87.15) scale(.87 1)"><tspan x="0" y="0">Z17</tspan></text><text class="cls-20" transform="translate(64.96 360.14) scale(.87 1)"><tspan x="0" y="0">Z9</tspan></text><text class="cls-27" transform="translate(64.96 360.14) scale(.87 1)"><tspan x="0" y="0">Z9</tspan></text><rect class="cls-7" x="41.73" y="57.47" width="12.8" height="41.08"/><rect class="cls-2" x="41.73" y="98.53" width="12.8" height="31.25"/><rect class="cls-7" x="41.73" y="129.8" width="12.8" height="8.93"/><rect class="cls-2" x="41.73" y="138.71" width="12.8" height="25.9"/><rect class="cls-7" x="41.73" y="164.61" width="12.8" height="7.15"/><rect class="cls-2" x="41.73" y="171.75" width="12.8" height="6.26"/><rect class="cls-7" x="41.73" y="178.01" width="12.8" height="6.26"/><rect class="cls-2" x="41.73" y="184.25" width="12.8" height="4.46"/><rect class="cls-7" x="41.73" y="188.72" width="12.8" height="3.56"/><rect class="cls-2" x="41.73" y="192.29" width="12.8" height="8.93"/><rect class="cls-7" x="41.73" y="201.22" width="12.8" height="8.04"/><rect class="cls-2" x="41.73" y="209.26" width="12.8" height="23.21"/><rect class="cls-12" x="41.73" y="232.46" width="12.8" height="5.36"/><rect class="cls-7" x="41.73" y="237.83" width="12.8" height="5.36"/><rect class="cls-2" x="41.73" y="243.17" width="12.8" height="37.5"/><rect class="cls-7" x="41.73" y="280.68" width="12.8" height="13.39"/><rect class="cls-2" x="41.73" y="294.08" width="12.8" height="9.82"/><rect class="cls-12" x="41.73" y="303.9" width="12.8" height="8.93"/><rect class="cls-7" x="41.73" y="312.83" width="12.8" height="4.46"/><rect class="cls-2" x="41.73" y="317.29" width="12.8" height="17.86"/><rect class="cls-7" x="41.73" y="335.15" width="12.8" height="40.17"/><rect class="cls-2" x="41.73" y="375.32" width="12.8" height="18.74"/><rect class="cls-12" x="41.73" y="394.06" width="12.8" height="6.25"/><rect class="cls-7" x="41.73" y="400.31" width="12.8" height="6.26"/><rect class="cls-2" x="41.73" y="406.57" width="12.8" height="8.04"/><rect class="cls-7" x="41.73" y="414.59" width="12.8" height="8.04"/><rect class="cls-2" x="41.73" y="422.63" width="12.8" height="7.15"/><rect class="cls-7" x="41.73" y="429.78" width="12.8" height="22.32"/><rect class="cls-2" x="41.73" y="452.09" width="12.8" height="8.04"/><rect class="cls-7" x="41.73" y="460.13" width="12.8" height="6.25"/><rect class="cls-2" x="41.73" y="466.39" width="12.8" height="6.26"/><rect class="cls-7" x="41.73" y="472.64" width="12.8" height="7.15"/><rect class="cls-2" x="41.73" y="479.77" width="12.8" height="6.26"/><rect class="cls-7" x="41.73" y="486.03" width="12.8" height="4.46"/><rect class="cls-2" x="41.73" y="490.49" width="12.8" height="48.21"/><rect class="cls-7" x="41.73" y="538.7" width="12.8" height="7.15"/><rect class="cls-2" x="41.73" y="545.85" width="12.8" height="4.45"/><rect class="cls-7" x="41.73" y="550.32" width="12.8" height="5.37"/><rect class="cls-2" x="41.73" y="555.67" width="12.8" height="11.6"/><rect class="cls-7" x="41.73" y="567.27" width="12.8" height="8.04"/><rect class="cls-2" x="41.73" y="575.31" width="12.8" height="27.68"/><rect class="cls-7" x="41.73" y="602.99" width="12.8" height="34.83"/><text class="cls-20" transform="translate(67.23 25.97) scale(1.07 1)"><tspan x="0" y="0">USGS 103</tspan><tspan x="-3.67" y="7.01">MU</tspan><tspan class="cls-104" x="5.67" y="7.01">L</tspan><tspan x="8.56" y="7.01">TILEVE</tspan><tspan class="cls-18" x="29.23" y="7.01">L</tspan><tspan x="-5.49" y="14.01">COMPLETION</tspan></text><line class="cls-11" x1="31.04" y1="57.23" x2="38.24" y2="57.23"/><line class="cls-11" x1="31.04" y1="101.89" x2="38.24" y2="101.89"/><line class="cls-11" x1="31.04" y1="146.55" x2="38.24" y2="146.55"/><line class="cls-11" x1="31.04" y1="191.21" x2="38.24" y2="191.21"/><line class="cls-11" x1="31.04" y1="235.87" x2="38.24" y2="235.87"/><line class="cls-11" x1="31.04" y1="280.53" x2="38.24" y2="280.53"/><line class="cls-11" x1="31.04" y1="325.19" x2="38.24" y2="325.19"/><line class="cls-11" x1="31.04" y1="369.85" x2="38.24" y2="369.85"/><line class="cls-11" x1="31.04" y1="414.52" x2="38.24" y2="414.52"/><line class="cls-11" x1="31.04" y1="459.18" x2="38.24" y2="459.18"/><line class="cls-11" x1="31.04" y1="503.84" x2="38.24" y2="503.84"/><line class="cls-11" x1="31.04" y1="548.5" x2="38.24" y2="548.5"/><line class="cls-11" x1="31.04" y1="593.16" x2="38.24" y2="593.16"/><line class="cls-11" x1="31.04" y1="637.82" x2="38.24" y2="637.82"/><line class="cls-39" x1="76.75" y1="57.47" x2="76.75" y2="156.03"/><line class="cls-39" x1="91.25" y1="57.47" x2="91.25" y2="156.03"/><line class="cls-9" x1="87.44" y1="622.29" x2="87.44" y2="57.47"/><line class="cls-9" x1="80.23" y1="57.47" x2="80.23" y2="622.29"/><rect x="80.22" y="619.49" width="7.3" height="3.3"/><path class="cls-63" d="M77.88,73.78c0,.82.66,1.48,1.48,1.48h9.31c.82,0,1.48-.66,1.48-1.48s-.66-1.48-1.48-1.48h-9.31c-.82,0-1.48.66-1.48,1.48,0,0,0-.82,0,0Z"/><path class="cls-8" d="M77.88,73.78c0,.82.66,1.48,1.48,1.48h9.31c.82,0,1.48-.66,1.48-1.48s-.66-1.48-1.48-1.48h-9.31c-.82,0-1.48.66-1.48,1.48,0,0,0-.82,0,0Z"/><path class="cls-63" d="M77.88,73.78c0,.82.66,1.48,1.48,1.48h9.31c.82,0,1.48-.66,1.48-1.48s-.66-1.48-1.48-1.48h-9.31c-.82,0-1.48.66-1.48,1.48,0,0,0-.82,0,0Z"/><path class="cls-8" d="M77.88,73.78c0,.82.66,1.48,1.48,1.48h9.31c.82,0,1.48-.66,1.48-1.48s-.66-1.48-1.48-1.48h-9.31c-.82,0-1.48.66-1.48,1.48,0,0,0-.82,0,0Z"/><path class="cls-63" d="M77.88,96.07c0,.81.66,1.48,1.48,1.48h9.32c.81,0,1.48-.66,1.48-1.48s-.66-1.48-1.48-1.48h-9.32c-.81,0-1.48.66-1.48,1.48,0,0,0-.81,0,0Z"/><path class="cls-8" d="M77.88,96.07c0,.81.66,1.48,1.48,1.48h9.32c.81,0,1.48-.66,1.48-1.48s-.66-1.48-1.48-1.48h-9.32c-.81,0-1.48.66-1.48,1.48,0,0,0-.81,0,0Z"/><path class="cls-63" d="M77.88,161.2c0,.82.66,1.48,1.48,1.48h9.31c.82,0,1.48-.66,1.48-1.48s-.66-1.48-1.48-1.48h-9.31c-.82,0-1.48.66-1.48,1.48,0,0,0-.82,0,0Z"/><path class="cls-8" d="M77.88,161.2c0,.82.66,1.48,1.48,1.48h9.31c.82,0,1.48-.66,1.48-1.48s-.66-1.48-1.48-1.48h-9.31c-.82,0-1.48.66-1.48,1.48,0,0,0-.82,0,0Z"/><path class="cls-63" d="M77.88,222.31c0,.81.66,1.48,1.48,1.48h9.32c.81,0,1.48-.66,1.48-1.48s-.66-1.48-1.48-1.48h-9.32c-.81,0-1.48.66-1.48,1.48,0,0,0-.81,0,0Z"/><path class="cls-8" d="M77.88,222.31c0,.81.66,1.48,1.48,1.48h9.32c.81,0,1.48-.66,1.48-1.48s-.66-1.48-1.48-1.48h-9.32c-.81,0-1.48.66-1.48,1.48,0,0,0-.81,0,0Z"/><path class="cls-63" d="M77.88,246.69c0,.81.66,1.48,1.48,1.48h9.32c.81,0,1.48-.66,1.48-1.48s-.66-1.48-1.48-1.48h-9.32c-.81,0-1.48.66-1.48,1.48,0,0,0-.81,0,0Z"/><path class="cls-8" d="M77.88,246.69c0,.81.66,1.48,1.48,1.48h9.32c.81,0,1.48-.66,1.48-1.48s-.66-1.48-1.48-1.48h-9.32c-.81,0-1.48.66-1.48,1.48,0,0,0-.81,0,0Z"/><path class="cls-63" d="M77.88,272.84c0,.81.66,1.48,1.48,1.48h9.32c.81,0,1.48-.66,1.48-1.48s-.66-1.48-1.48-1.48h-9.32c-.81,0-1.48.66-1.48,1.48,0,0,0-.81,0,0Z"/><path class="cls-8" d="M77.88,272.84c0,.81.66,1.48,1.48,1.48h9.32c.81,0,1.48-.66,1.48-1.48s-.66-1.48-1.48-1.48h-9.32c-.81,0-1.48.66-1.48,1.48,0,0,0-.81,0,0Z"/><path class="cls-63" d="M77.88,300.59c0,.81.66,1.48,1.48,1.48h9.32c.81,0,1.48-.66,1.48-1.48s-.66-1.48-1.48-1.48h-9.32c-.81,0-1.48.66-1.48,1.48,0,0,0-.81,0,0Z"/><path class="cls-8" d="M77.88,300.59c0,.81.66,1.48,1.48,1.48h9.32c.81,0,1.48-.66,1.48-1.48s-.66-1.48-1.48-1.48h-9.32c-.81,0-1.48.66-1.48,1.48,0,0,0-.81,0,0Z"/><path class="cls-63" d="M77.88,323.53c0,.82.66,1.48,1.48,1.48h9.31c.82,0,1.48-.66,1.48-1.48s-.66-1.48-1.48-1.48h-9.31c-.82,0-1.48.66-1.48,1.48,0,0,0-.82,0,0Z"/><path class="cls-8" d="M77.88,323.53c0,.82.66,1.48,1.48,1.48h9.31c.82,0,1.48-.66,1.48-1.48s-.66-1.48-1.48-1.48h-9.31c-.82,0-1.48.66-1.48,1.48,0,0,0-.82,0,0Z"/><path class="cls-63" d="M77.88,332.03c0,.82.66,1.48,1.48,1.48h9.31c.82,0,1.48-.66,1.48-1.48s-.66-1.48-1.48-1.48h-9.31c-.82,0-1.48.66-1.48,1.48,0,0,0-.82,0,0Z"/><path class="cls-8" d="M77.88,332.03c0,.82.66,1.48,1.48,1.48h9.31c.82,0,1.48-.66,1.48-1.48s-.66-1.48-1.48-1.48h-9.31c-.82,0-1.48.66-1.48,1.48,0,0,0-.82,0,0Z"/><path class="cls-63" d="M77.88,384.48c0,.81.66,1.47,1.47,1.47h9.32c.81,0,1.47-.66,1.47-1.47s-.66-1.47-1.47-1.47h-9.32c-.81,0-1.47.66-1.47,1.47,0,0,0-.81,0,0Z"/><path class="cls-8" d="M77.88,384.48c0,.81.66,1.47,1.47,1.47h9.32c.81,0,1.47-.66,1.47-1.47s-.66-1.47-1.47-1.47h-9.32c-.81,0-1.47.66-1.47,1.47,0,0,0-.81,0,0Z"/><path class="cls-63" d="M77.88,410.31c0,.82.66,1.48,1.48,1.48h9.31c.82,0,1.48-.66,1.48-1.48s-.66-1.48-1.48-1.48h-9.31c-.82,0-1.48.66-1.48,1.48,0,0,0-.82,0,0Z"/><path class="cls-8" d="M77.88,410.31c0,.82.66,1.48,1.48,1.48h9.31c.82,0,1.48-.66,1.48-1.48s-.66-1.48-1.48-1.48h-9.31c-.82,0-1.48.66-1.48,1.48,0,0,0-.82,0,0Z"/><path class="cls-63" d="M77.88,426.19c0,.82.66,1.48,1.48,1.48h9.31c.82,0,1.48-.66,1.48-1.48s-.66-1.48-1.48-1.48h-9.31c-.82,0-1.48.66-1.48,1.48,0,0,0-.82,0,0Z"/><path class="cls-8" d="M77.88,426.19c0,.82.66,1.48,1.48,1.48h9.31c.82,0,1.48-.66,1.48-1.48s-.66-1.48-1.48-1.48h-9.31c-.82,0-1.48.66-1.48,1.48,0,0,0-.82,0,0Z"/><path class="cls-63" d="M77.88,459.87c0,.81.66,1.48,1.48,1.48h9.32c.81,0,1.48-.66,1.48-1.48s-.66-1.48-1.48-1.48h-9.32c-.81,0-1.48.66-1.48,1.48,0,0,0-.81,0,0Z"/><path class="cls-8" d="M77.88,459.87c0,.81.66,1.48,1.48,1.48h9.32c.81,0,1.48-.66,1.48-1.48s-.66-1.48-1.48-1.48h-9.32c-.81,0-1.48.66-1.48,1.48,0,0,0-.81,0,0Z"/><path class="cls-63" d="M77.88,472.7c0,.81.66,1.48,1.48,1.48h9.32c.81,0,1.48-.66,1.48-1.48s-.66-1.48-1.48-1.48h-9.32c-.81,0-1.48.66-1.48,1.48,0,0,0-.81,0,0Z"/><path class="cls-8" d="M77.88,472.7c0,.81.66,1.48,1.48,1.48h9.32c.81,0,1.48-.66,1.48-1.48s-.66-1.48-1.48-1.48h-9.32c-.81,0-1.48.66-1.48,1.48,0,0,0-.81,0,0Z"/><path class="cls-63" d="M77.88,534.78c0,.81.66,1.48,1.48,1.48h9.32c.81,0,1.48-.66,1.48-1.48s-.66-1.48-1.48-1.48h-9.32c-.81,0-1.48.66-1.48,1.48,0,0,0-.81,0,0Z"/><path class="cls-8" d="M77.88,534.78c0,.81.66,1.48,1.48,1.48h9.32c.81,0,1.48-.66,1.48-1.48s-.66-1.48-1.48-1.48h-9.32c-.81,0-1.48.66-1.48,1.48,0,0,0-.81,0,0Z"/><path class="cls-63" d="M77.88,587.07c0,.81.66,1.48,1.48,1.48h9.32c.81,0,1.48-.66,1.48-1.48s-.66-1.48-1.48-1.48h-9.32c-.81,0-1.48.66-1.48,1.48,0,0,0-.81,0,0Z"/><path class="cls-8" d="M77.88,587.07c0,.81.66,1.48,1.48,1.48h9.32c.81,0,1.48-.66,1.48-1.48s-.66-1.48-1.48-1.48h-9.32c-.81,0-1.48.66-1.48,1.48,0,0,0-.81,0,0Z"/><path class="cls-63" d="M77.88,600.07c0,.82.66,1.48,1.48,1.48h9.31c.82,0,1.48-.66,1.48-1.48s-.66-1.48-1.48-1.48h-9.31c-.82,0-1.48.66-1.48,1.48,0,0,0-.82,0,0Z"/><path class="cls-8" d="M77.88,600.07c0,.82.66,1.48,1.48,1.48h9.31c.82,0,1.48-.66,1.48-1.48s-.66-1.48-1.48-1.48h-9.31c-.82,0-1.48.66-1.48,1.48,0,0,0-.82,0,0Z"/><polyline class="cls-6" points="75.8 94.6 73.64 94.6 73.64 89.36 73.64 79.18 73.64 75.26 75.8 75.26"/><polyline class="cls-6" points="75.8 159.72 73.64 159.72 73.64 148.46 73.64 145.48 73.64 144.04 73.64 141.43 73.64 136.65 73.64 135.09 73.64 133.9 73.64 132.6 73.64 132.15 73.64 130.17 73.64 128.35 73.64 126.72 73.64 125.46 73.64 123.43 73.64 120.32 73.64 114.56 73.64 114.55 73.64 113.06 73.64 112.03 73.64 111.75 73.64 111.31 73.64 110.58 73.64 107.94 73.64 97.55 75.8 97.55"/><polyline class="cls-6" points="75.8 220.84 73.64 220.84 73.64 219.93 73.64 218.9 73.64 218.72 73.64 216.13 73.64 215.35 73.64 212.35 73.64 204.89 73.64 202.22 73.64 200.87 73.64 199.48 73.64 188.68 73.64 185.83 73.64 185.09 73.64 184.28 73.64 183.26 73.64 182.28 73.64 178.3 73.64 176.62 73.64 175.9 73.64 174.77 73.64 173.43 73.64 173.02 73.64 172.39 73.64 169.92 73.64 164.79 73.64 163.02 73.64 162.68 75.8 162.68"/><polyline class="cls-6" points="75.8 223.79 73.64 223.79 73.64 227.75 73.64 228.24 73.64 228.92 73.64 230.88 73.64 232.17 73.64 232.27 73.64 232.53 73.64 235.17 73.64 235.66 73.64 238.18 73.64 238.59 73.64 240.32 73.64 241.3 73.64 242.74 73.64 245.22 75.8 245.22"/><polyline class="cls-6" points="75.8 248.17 73.64 248.17 73.64 248.2 73.64 248.37 73.64 249.9 73.64 249.95 73.64 255 73.64 256.94 73.64 257.56 73.64 257.58 73.64 259.44 73.64 260.91 73.64 263.24 73.64 264.97 73.64 266.15 73.64 269.1 73.64 271.15 73.64 271.37 75.8 271.37"/><polyline class="cls-6" points="75.8 274.32 73.64 274.32 73.64 274.66 73.64 275.42 73.64 276.9 73.64 277.73 73.64 278.51 73.64 279.2 73.64 280.66 73.64 281.01 73.64 283.18 73.64 288.62 73.64 291.83 73.64 295.66 73.64 297.26 73.64 299.01 73.64 299.12 75.8 299.12"/><polyline class="cls-6" points="75.8 302.07 73.64 302.07 73.64 304.35 73.64 306.41 73.64 309.36 73.64 311.67 73.64 313.92 73.64 317.19 73.64 318.32 73.64 318.51 73.64 319.51 73.64 320.52 73.64 321.69 73.64 321.95 73.64 322.05 75.8 322.05"/><polyline class="cls-6" points="75.8 325.01 73.64 325.01 73.64 325.79 73.64 329.63 73.64 330.55 75.8 330.55"/><polyline class="cls-6" points="75.8 333.51 73.64 333.51 73.64 336.44 73.64 337.39 73.64 338.6 73.64 340.73 73.64 342.05 73.64 344.91 73.64 349.34 73.64 350.59 73.64 352.21 73.64 352.6 73.64 353.85 73.64 354.45 73.64 362.27 73.64 364.96 73.64 369.3 73.64 370.98 73.64 372.17 73.64 374.38 73.64 376.01 73.64 377.98 73.64 379.15 73.64 380.73 73.64 381.73 73.64 382.15 73.64 383.01 75.8 383.01"/><polyline class="cls-5" points="75.8 385.96 73.64 385.96 73.64 386.77 73.64 390.74 73.64 392.93 73.64 393.6 73.64 395.63 73.64 402.32 73.64 404.16 73.64 405.68 73.64 407.13 73.64 408.83 75.8 408.83"/><polyline class="cls-5" points="75.8 411.79 73.64 411.79 73.64 417.15 73.64 417.81 73.64 419.41 73.64 419.57 73.64 420.7 73.64 421.51 73.64 423.27 73.64 424.71 75.8 424.71"/><polyline class="cls-5" points="75.8 461.35 73.64 461.35 73.64 461.61 73.64 461.72 73.64 463.24 73.64 469.72 73.64 471.23 75.8 471.23"/><polyline class="cls-5" points="75.8 474.18 73.64 474.18 73.64 488.93 73.64 491.56 73.64 499.15 73.64 501.31 73.64 503.15 73.64 503.21 73.64 504.12 73.64 504.61 73.64 504.66 73.64 506.12 73.64 507.69 73.64 509.55 73.64 510.4 73.64 512.74 73.64 512.78 73.64 512.95 73.64 515.14 73.64 517.22 73.64 521.82 73.64 524.3 73.64 527.17 73.64 529.54 73.64 530.88 73.64 531.83 73.64 533.11 73.64 533.31 75.8 533.31"/><polyline class="cls-5" points="75.8 536.26 73.64 536.26 73.64 537.9 73.64 540.25 73.64 540.5 73.64 543.3 73.64 546.39 73.64 549.02 73.64 549.25 73.64 552.15 73.64 554.54 73.64 556.87 73.64 557.21 73.64 559.59 73.64 559.69 73.64 561.35 73.64 562.21 73.64 563.06 73.64 564.57 73.64 566.52 73.64 571.98 73.64 573.52 73.64 576.26 73.64 582.18 73.64 584.4 73.64 584.8 73.64 585.6 75.8 585.6"/><polyline class="cls-5" points="75.8 588.55 73.64 588.55 73.64 590.9 73.64 597.27 73.64 598.59 75.8 598.59"/><polyline class="cls-5" points="75.8 601.55 73.64 601.55 73.64 601.83 73.64 601.97 73.64 604.75 73.64 607.34 73.64 612.11 73.64 614.03 73.64 615.44 73.64 615.82 73.64 618.81 73.64 627.27 73.64 628.18 73.64 637.81 75.8 637.81"/><polyline class="cls-5" points="75.8 427.67 73.64 427.67 73.64 440.16 73.64 440.95 73.64 443.12 73.64 443.67 73.64 447.42 73.64 451.17 73.64 458.4 75.8 458.4"/><text class="cls-27" transform="translate(94.52 78.96) scale(.87 1)"><tspan x="0" y="0">P23</tspan></text><text class="cls-27" transform="translate(94.52 87.48) scale(.87 1)"><tspan x="0" y="0">P22</tspan></text><text class="cls-27" transform="translate(94.52 100.2) scale(.87 1)"><tspan x="0" y="0">P21</tspan></text><text class="cls-27" transform="translate(94.52 165.97) scale(.87 1)"><tspan x="0" y="0">P20</tspan></text><text class="cls-25" transform="translate(94.52 196.71) scale(.87 1)"><tspan x="0" y="0">P19</tspan></text><text class="cls-27" transform="translate(94.52 196.71) scale(.87 1)"><tspan x="0" y="0">P19</tspan></text><text class="cls-27" transform="translate(94.52 226.94) scale(.87 1)"><tspan x="0" y="0">P18</tspan></text><text class="cls-27" transform="translate(94.52 251.55) scale(.87 1)"><tspan x="0" y="0">P17</tspan></text><text class="cls-27" transform="translate(94.52 277.77) scale(.87 1)"><tspan x="0" y="0">P16</tspan></text><text class="cls-27" transform="translate(94.52 292.24) scale(.87 1)"><tspan x="0" y="0">P15</tspan></text><text class="cls-27" transform="translate(94.52 305.03) scale(.87 1)"><tspan x="0" y="0">P14</tspan></text><text class="cls-25" transform="translate(94.52 327.4) scale(.87 1)"><tspan x="0" y="0">P13</tspan></text><text class="cls-27" transform="translate(94.52 328.28) scale(.87 1)"><tspan x="0" y="0">P13</tspan></text><text class="cls-27" transform="translate(94.52 336.81) scale(.87 1)"><tspan x="0" y="0">P12</tspan></text><text class="cls-27" transform="translate(94.52 367.62) scale(.87 1)"><tspan x="0" y="0">P</tspan><tspan class="cls-72" x="4" y="0">1</tspan><tspan class="cls-43" x="6.89" y="0">1</tspan></text><text class="cls-27" transform="translate(94.52 389.13) scale(.87 1)"><tspan x="0" y="0">P10</tspan></text><text class="cls-27" transform="translate(94.52 415.09) scale(.87 1)"><tspan x="0" y="0">P9</tspan></text><text class="cls-27" transform="translate(94.52 430.79) scale(.87 1)"><tspan x="0" y="0">P8</tspan></text><text class="cls-27" transform="translate(94.52 451.52) scale(.87 1)"><tspan x="0" y="0">P7</tspan></text><text class="cls-27" transform="translate(94.52 464.31) scale(.87 1)"><tspan x="0" y="0">P6</tspan></text><text class="cls-27" transform="translate(94.52 477.49) scale(.87 1)"><tspan x="0" y="0">P5</tspan></text><text class="cls-27" transform="translate(94.52 539.11) scale(.87 1)"><tspan x="0" y="0">P4</tspan></text><text class="cls-27" transform="translate(94.52 561.39) scale(.87 1)"><tspan x="0" y="0">P3</tspan></text><text class="cls-27" transform="translate(94.52 591.62) scale(.87 1)"><tspan x="0" y="0">P2</tspan></text><text class="cls-27" transform="translate(94.52 604.6) scale(.87 1)"><tspan x="0" y="0">P1</tspan></text><polygon class="cls-41" points="91.47 95.77 87.82 98.15 91.47 100.52 91.47 95.77"/><polygon class="cls-40" points="91.47 82.79 87.82 85.16 91.47 87.54 91.47 82.79"/><polygon class="cls-41" points="91.47 73.68 87.82 76.06 91.47 78.43 91.47 73.68"/><polygon class="cls-41" points="91.47 246.26 87.82 248.64 91.47 251.01 91.47 246.26"/><polygon class="cls-41" points="91.47 221.42 87.82 223.79 91.47 226.16 91.47 221.42"/><polygon class="cls-40" points="91.47 191.53 87.82 193.9 91.47 196.27 91.47 191.53"/><polygon class="cls-41" points="91.47 160.68 87.82 163.06 91.47 165.43 91.47 160.68"/><polygon class="cls-41" points="91.47 331.52 87.82 333.9 91.47 336.27 91.47 331.52"/><polygon class="cls-41" points="91.47 322.82 87.82 325.19 91.47 327.57 91.47 322.82"/><polygon class="cls-41" points="91.47 299.7 87.82 302.07 91.47 304.44 91.47 299.7"/><polygon class="cls-40" points="91.47 286.96 87.82 289.33 91.47 291.7 91.47 286.96"/><polygon class="cls-41" points="91.47 271.95 87.82 274.32 91.47 276.69 91.47 271.95"/><polygon class="cls-41" points="91.47 472.21 87.82 474.58 91.47 476.96 91.47 472.21"/><polygon class="cls-41" points="91.47 459.03 87.82 461.4 91.47 463.78 91.47 459.03"/><polygon class="cls-40" points="91.47 446.24 87.82 448.61 91.47 450.99 91.47 446.24"/><polygon class="cls-41" points="91.47 425.5 87.82 427.88 91.47 430.25 91.47 425.5"/><polygon class="cls-41" points="91.47 409.81 87.82 412.18 91.47 414.56 91.47 409.81"/><polygon class="cls-41" points="91.47 383.84 87.82 386.22 91.47 388.59 91.47 383.84"/><polygon class="cls-40" points="91.47 362.33 87.82 364.71 91.47 367.08 91.47 362.33"/><polygon class="cls-40" points="91.47 599.32 87.82 601.7 91.47 604.07 91.47 599.32"/><polygon class="cls-41" points="91.47 586.18 87.82 588.55 91.47 590.92 91.47 586.18"/><polygon class="cls-40" points="91.47 556.15 87.82 558.53 91.47 560.9 91.47 556.15"/><polygon class="cls-41" points="91.47 533.89 87.82 536.26 91.47 538.63 91.47 533.89"/><text class="cls-29" transform="translate(112.5 632.05) scale(.89 1)"><tspan class="cls-30"><tspan x="0" y="0">HOLE DEPTH</tspan></tspan><tspan class="cls-54"><tspan x="0" y="6">1,307 ft</tspan></tspan></text></g></g><g id="Explanation"><text class="cls-23" transform="translate(134.16 104.68)"><tspan x="0" y="0">EXPLAN</tspan><tspan class="cls-57" x="32.45" y="0">A</tspan><tspan x="37.63" y="0">TION</tspan></text><text class="cls-21" transform="translate(127.83 120.81)"><tspan x="0" y="0">Lithology</tspan></text><text class="cls-24" transform="translate(151.46 175.96)"><tspan class="cls-86" x="0" y="0">Se</tspan><tspan class="cls-101" x="8.82" y="0">d</tspan><tspan class="cls-34" x="12.79" y="0">i</tspan><tspan class="cls-87" x="14.44" y="0">m</tspan><tspan class="cls-67" x="20.4" y="0">e</tspan><tspan class="cls-85" x="24.4" y="0">n</tspan><tspan class="cls-68" x="28.34" y="0">t</tspan></text><text class="cls-24" transform="translate(151.46 136.8)"><tspan class="cls-36" x="0" y="0">D</tspan><tspan class="cls-97" x="5.21" y="0">e</tspan><tspan class="cls-52" x="9.21" y="0">n</tspan><tspan class="cls-97" x="13.2" y="0">s</tspan><tspan class="cls-77" x="16.81" y="0">e </tspan><tspan class="cls-48" x="22.65" y="0">ba</tspan><tspan class="cls-105" x="30.62" y="0">s</tspan><tspan class="cls-71" x="34.25" y="0">a</tspan><tspan class="cls-94" x="38.25" y="0">l</tspan><tspan class="cls-68" x="39.89" y="0">t</tspan></text><rect class="cls-13" x="135.03" y="127.47" width="12.8" height="13.62"/><text class="cls-24" transform="translate(151.46 156.38)"><tspan class="cls-59" x="0" y="0">F</tspan><tspan class="cls-86" x="4.17" y="0">r</tspan><tspan class="cls-61" x="6.63" y="0">a</tspan><tspan class="cls-44" x="10.6" y="0">c</tspan><tspan class="cls-56" x="14.27" y="0">t</tspan><tspan class="cls-94" x="16.32" y="0">u</tspan><tspan class="cls-60" x="20.3" y="0">r</tspan><tspan class="cls-32" x="22.74" y="0">e</tspan><tspan class="cls-77" x="26.76" y="0">d </tspan><tspan class="cls-31" x="32.6" y="0">ba</tspan><tspan class="cls-105" x="40.58" y="0">s</tspan><tspan class="cls-35" x="44.21" y="0">a</tspan><tspan class="cls-45" x="48.2" y="0">l</tspan><tspan class="cls-68" x="49.84" y="0">t</tspan></text><rect class="cls-15" x="135.03" y="147.05" width="12.8" height="13.62"/><rect class="cls-16" x="135.03" y="166.63" width="12.8" height="13.62"/><line class="cls-37" x1="145.97" y1="231.31" x2="163.89" y2="231.31"/><text class="cls-21" transform="translate(127.83 196.56)"><tspan x="0" y="0">Completion</tspan></text><line class="cls-37" x1="163.89" y1="244.23" x2="160.3" y2="244.23"/><polyline class="cls-37" points="163.89 256.7 158.64 256.7 134.68 249.75"/><polygon class="cls-41" points="150.25 241.97 146.6 244.34 150.25 246.72 150.25 241.97"/><polyline class="cls-3" points="135.45 287.35 133.29 287.35 133.29 232.69 135.45 232.69"/><text class="cls-20" transform="translate(152.35 246.43) scale(.89 1)"><tspan x="0" y="0">P2</tspan></text><text class="cls-20" transform="translate(125.67 250.93) scale(.89 1)"><tspan x="0" y="0">Z1</tspan></text><text class="cls-27" transform="translate(125.67 250.93) scale(.89 1)"><tspan x="0" y="0">Z1</tspan></text><line class="cls-37" x1="145.97" y1="218.82" x2="163.89" y2="218.82"/><line class="cls-37" x1="150.59" y1="207.2" x2="163.89" y2="207.2"/><text class="cls-24" transform="translate(165.88 234.1)"><tspan class="cls-98" x="0" y="0">P</tspan><tspan class="cls-61" x="4.7" y="0">a</tspan><tspan class="cls-1" x="8.68" y="0">c</tspan><tspan class="cls-100" x="12.34" y="0">k</tspan><tspan class="cls-84" x="15.8" y="0">e</tspan><tspan x="19.81" y="0">r</tspan></text><text class="cls-24" transform="translate(165.88 246.67)"><tspan class="cls-42" x="0" y="0">M</tspan><tspan class="cls-67" x="6.01" y="0">e</tspan><tspan class="cls-91" x="10.02" y="0">a</tspan><tspan class="cls-66" x="14" y="0">s</tspan><tspan class="cls-94" x="17.58" y="0">u</tspan><tspan class="cls-60" x="21.57" y="0">r</tspan><tspan class="cls-67" x="24" y="0">e</tspan><tspan class="cls-87" x="28.01" y="0">m</tspan><tspan class="cls-67" x="33.96" y="0">e</tspan><tspan class="cls-85" x="37.96" y="0">n</tspan><tspan class="cls-68" x="41.91" y="0">t </tspan><tspan class="cls-76" x="45.8" y="0">p</tspan><tspan class="cls-105" x="49.83" y="0">o</tspan><tspan class="cls-74" x="53.85" y="0">r</tspan><tspan x="56.54" y="0">t </tspan><tspan class="cls-58" x="60.43" y="0">nu</tspan><tspan class="cls-103" x="68.38" y="0">m</tspan><tspan class="cls-46" x="74.32" y="0">b</tspan><tspan class="cls-84" x="78.34" y="0">e</tspan><tspan x="82.35" y="0">r</tspan></text><text class="cls-24" transform="translate(165.88 259.24)"><tspan class="cls-82" x="0" y="0">M</tspan><tspan class="cls-32" x="6.02" y="0">o</tspan><tspan class="cls-45" x="10.04" y="0">n</tspan><tspan class="cls-71" x="14.02" y="0">i</tspan><tspan class="cls-51" x="15.68" y="0">t</tspan><tspan class="cls-105" x="17.69" y="0">o</tspan><tspan class="cls-78" x="21.72" y="0">r</tspan><tspan class="cls-47" x="24.25" y="0">i</tspan><tspan class="cls-96" x="25.91" y="0">n</tspan><tspan x="29.91" y="0">g </tspan><tspan class="cls-90" x="35.75" y="0">z</tspan><tspan class="cls-86" x="39.31" y="0">o</tspan><tspan class="cls-103" x="43.33" y="0">n</tspan><tspan class="cls-77" x="47.33" y="0">e </tspan><tspan class="cls-66" x="53.17" y="0">nu</tspan><tspan class="cls-89" x="61.12" y="0">m</tspan><tspan class="cls-46" x="67.05" y="0">b</tspan><tspan class="cls-84" x="71.07" y="0">e</tspan><tspan x="75.08" y="0">r</tspan></text><text class="cls-24" transform="translate(165.88 221.53)"><tspan class="cls-53" x="0" y="0">M</tspan><tspan class="cls-91" x="5.99" y="0">ul</tspan><tspan class="cls-19" x="11.62" y="0">t</tspan><tspan class="cls-34" x="13.7" y="0">i</tspan><tspan class="cls-76" x="15.36" y="0">p</tspan><tspan class="cls-105" x="19.39" y="0">o</tspan><tspan class="cls-74" x="23.41" y="0">r</tspan><tspan x="26.1" y="0">t </tspan><tspan class="cls-33" x="29.99" y="0">c</tspan><tspan class="cls-91" x="33.71" y="0">a</tspan><tspan class="cls-73" x="37.7" y="0">s</tspan><tspan class="cls-47" x="41.3" y="0">i</tspan><tspan class="cls-67" x="42.95" y="0">n</tspan><tspan x="46.96" y="0">g</tspan></text><text class="cls-24" transform="translate(165.88 271.81)"><tspan class="cls-55" x="0" y="0">S</tspan><tspan class="cls-62" x="4.79" y="0">a</tspan><tspan class="cls-103" x="8.79" y="0">m</tspan><tspan class="cls-87" x="14.72" y="0">pl</tspan><tspan x="20.41" y="0">e </tspan><tspan class="cls-80" x="26.25" y="0">c</tspan><tspan class="cls-105" x="29.97" y="0">o</tspan><tspan class="cls-31" x="33.99" y="0">l</tspan><tspan class="cls-99" x="35.64" y="0">l</tspan><tspan class="cls-93" x="37.32" y="0">e</tspan><tspan class="cls-44" x="41.33" y="0">c</tspan><tspan class="cls-19" x="45.01" y="0">ti</tspan><tspan class="cls-86" x="48.78" y="0">o</tspan><tspan x="52.8" y="0">n </tspan><tspan class="cls-50" x="58.64" y="0">a</tspan><tspan x="62.59" y="0">t </tspan><tspan class="cls-76" x="66.48" y="0">p</tspan><tspan class="cls-65" x="70.51" y="0">o</tspan><tspan class="cls-81" x="74.54" y="0">r</tspan><tspan class="cls-77" x="77.23" y="0">t</tspan></text><text class="cls-24" transform="translate(165.88 208.96)"><tspan class="cls-70" x="0" y="0">W</tspan><tspan class="cls-46" x="6.58" y="0">e</tspan><tspan class="cls-31" x="10.59" y="0">l</tspan><tspan class="cls-77" x="12.24" y="0">l </tspan><tspan class="cls-33" x="15.74" y="0">c</tspan><tspan class="cls-52" x="19.46" y="0">a</tspan><tspan class="cls-49" x="23.45" y="0">si</tspan><tspan class="cls-96" x="28.71" y="0">n</tspan><tspan x="32.71" y="0">g</tspan></text><line class="cls-39" x1="135.23" y1="202.46" x2="135.23" y2="214.96"/><line class="cls-39" x1="149.72" y1="202.46" x2="149.72" y2="214.96"/><rect x="138.94" y="280.41" width="7.09" height="2.65"/><line class="cls-9" x1="146.03" y1="282.57" x2="145.92" y2="202.46"/><line class="cls-9" x1="138.82" y1="202.46" x2="138.94" y2="282.57"/><path class="cls-63" d="M136.34,231.31c0,.76.62,1.38,1.38,1.38h9.52c.76,0,1.38-.62,1.38-1.38s-.62-1.38-1.38-1.38h-9.52c-.76,0-1.38.62-1.38,1.38,0,0,0-.76,0,0Z"/><path class="cls-38" d="M136.34,231.31c0,.76.62,1.38,1.38,1.38h9.52c.76,0,1.38-.62,1.38-1.38s-.62-1.38-1.38-1.38h-9.52c-.76,0-1.38.62-1.38,1.38,0,0,0-.76,0,0Z"/><text class="cls-21" transform="translate(127.83 303.87)"><tspan x="0" y="0">Borehole</tspan></text><line class="cls-4" x1="147.83" y1="335.05" x2="139.74" y2="343.14"/><line class="cls-4" x1="147.83" y1="340.27" x2="144.96" y2="343.14"/><line class="cls-4" x1="142.92" y1="329.52" x2="135.03" y2="337.41"/><line class="cls-4" x1="147.83" y1="329.83" x2="135.03" y2="342.63"/><line class="cls-4" x1="137.7" y1="329.52" x2="135.03" y2="332.19"/><rect class="cls-14" x="135.03" y="329.52" width="12.8" height="13.62"/><text class="cls-24" transform="translate(151.46 338.2)"><tspan class="cls-76" x="0" y="0">B</tspan><tspan class="cls-46" x="4.81" y="0">el</tspan><tspan class="cls-79" x="10.5" y="0">o</tspan><tspan class="cls-77" x="14.47" y="0">w </tspan><tspan class="cls-95" x="21.47" y="0">h</tspan><tspan class="cls-105" x="25.48" y="0">o</tspan><tspan class="cls-99" x="29.51" y="0">l</tspan><tspan class="cls-77" x="31.18" y="0">e </tspan><tspan class="cls-60" x="37.02" y="0">d</tspan><tspan class="cls-97" x="41.01" y="0">e</tspan><tspan class="cls-92" x="45.02" y="0">p</tspan><tspan class="cls-69" x="48.97" y="0">t</tspan><tspan x="51.05" y="0">h</tspan></text><polygon class="cls-17" points="138.4 312.05 141.43 314.9 144.45 312.05 138.4 312.05"/><line class="cls-11" x1="135.03" y1="315.28" x2="136.03" y2="315.28"/><line class="cls-10" x1="138.19" y1="315.28" x2="145.75" y2="315.28"/><line class="cls-11" x1="146.83" y1="315.28" x2="147.83" y2="315.28"/><text class="cls-24" transform="translate(151.46 316.53)"><tspan class="cls-70" x="0" y="0">W</tspan><tspan class="cls-50" x="6.58" y="0">at</tspan><tspan class="cls-84" x="12.54" y="0">e</tspan><tspan x="16.55" y="0">r </tspan><tspan class="cls-99" x="20.83" y="0">l</tspan><tspan class="cls-77" x="22.5" y="0">e</tspan><tspan class="cls-64" x="26.39" y="0">v</tspan><tspan class="cls-55" x="29.9" y="0">e</tspan><tspan x="33.92" y="0">l </tspan><tspan class="cls-87" x="37.42" y="0">m</tspan><tspan class="cls-96" x="43.37" y="0">e</tspan><tspan class="cls-52" x="47.37" y="0">a</tspan><tspan class="cls-66" x="51.36" y="0">s</tspan><tspan class="cls-94" x="54.94" y="0">u</tspan><tspan class="cls-60" x="58.93" y="0">r</tspan><tspan class="cls-32" x="61.36" y="0">e</tspan><tspan x="65.38" y="0">d</tspan><tspan class="cls-83" x="0" y="8.4">o</tspan><tspan class="cls-102" x="4.01" y="8.4">u</tspan><tspan class="cls-88" x="7.99" y="8.4">t</tspan><tspan class="cls-73" x="10.08" y="8.4">s</tspan><tspan class="cls-19" x="13.68" y="8.4">i</tspan><tspan class="cls-60" x="15.37" y="8.4">d</tspan><tspan x="19.37" y="8.4">e </tspan><tspan class="cls-31" x="25.21" y="8.4">mul</tspan><tspan class="cls-19" x="36.77" y="8.4">t</tspan><tspan class="cls-47" x="38.85" y="8.4">i</tspan><tspan class="cls-76" x="40.5" y="8.4">p</tspan><tspan class="cls-65" x="44.53" y="8.4">o</tspan><tspan class="cls-81" x="48.56" y="8.4">r</tspan><tspan class="cls-77" x="51.25" y="8.4">t </tspan><tspan class="cls-33" x="55.13" y="8.4">c</tspan><tspan class="cls-52" x="58.86" y="8.4">a</tspan><tspan class="cls-49" x="62.84" y="8.4">si</tspan><tspan class="cls-96" x="68.1" y="8.4">n</tspan><tspan x="72.1" y="8.4">g</tspan></text><text class="cls-24" transform="translate(165.88 284.38)"><tspan class="cls-53" x="0" y="0">M</tspan><tspan class="cls-91" x="5.99" y="0">ul</tspan><tspan class="cls-19" x="11.62" y="0">t</tspan><tspan class="cls-34" x="13.7" y="0">i</tspan><tspan class="cls-76" x="15.36" y="0">p</tspan><tspan class="cls-105" x="19.39" y="0">o</tspan><tspan class="cls-74" x="23.41" y="0">r</tspan><tspan class="cls-48" x="26.1" y="0">t</tspan><tspan class="cls-75" x="28.14" y="0">-</tspan><tspan class="cls-33" x="30.79" y="0">c</tspan><tspan class="cls-94" x="34.51" y="0">a</tspan><tspan class="cls-73" x="38.49" y="0">s</tspan><tspan class="cls-47" x="42.1" y="0">i</tspan><tspan class="cls-96" x="43.75" y="0">n</tspan><tspan class="cls-77" x="47.75" y="0">g </tspan><tspan class="cls-97" x="53.59" y="0">en</tspan><tspan class="cls-77" x="61.6" y="0">d </tspan><tspan class="cls-33" x="67.44" y="0">c</tspan><tspan class="cls-47" x="71.16" y="0">a</tspan><tspan x="75.15" y="0">p</tspan></text><line class="cls-37" x1="145.97" y1="281.92" x2="163.89" y2="281.92"/><line class="cls-37" x1="163.89" y1="269.35" x2="152.3" y2="269.35"/><polygon class="cls-40" points="150.25 266.98 146.6 269.35 150.25 271.72 150.25 266.98"/></g><g id="Grid"><text class="cls-22" transform="translate(9.42 394.03) rotate(-90) scale(1.26 1)"><tspan x="0" y="0">Depth, in feet below land surface</tspan></text><text class="cls-28" transform="translate(51.33 52.08) rotate(-90) scale(1.16 1)"><tspan x="0" y="0">LITHOLOGY</tspan></text><text class="cls-20" transform="translate(63.14 52.54) scale(.93 1)"><tspan x="0" y="0">Zone</tspan></text><text class="cls-20" transform="translate(94.11 52.54) scale(.93 1)"><tspan x="0" y="0">Port</tspan></text><polyline class="cls-11" points="38.23 57.23 108.44 57.23 38.23 57.23"/><line class="cls-11" x1="58" y1="6.97" x2="58" y2="637.82"/><polygon class="cls-11" points="108.44 637.82 108.44 6.97 38.23 6.97 38.23 6.97 38.23 637.82 108.44 637.82"/></g></svg>