<?xml version="1.0" encoding="UTF-8"?><svg xmlns="http://www.w3.org/2000/svg" viewBox="0 0 252 645"><defs><style>.cls-1{letter-spacing:.02em;}.cls-2,.cls-3,.cls-4,.cls-5,.cls-6,.cls-7,.cls-8,.cls-9,.cls-10,.cls-11{stroke-linejoin:round;}.cls-2,.cls-3,.cls-4,.cls-6,.cls-7,.cls-8,.cls-9,.cls-11{stroke-linecap:round;}.cls-2,.cls-4,.cls-12,.cls-6,.cls-13,.cls-7,.cls-8,.cls-9,.cls-14,.cls-11,.cls-15{stroke:#000;}.cls-2,.cls-12{fill:#bcbdc0;}.cls-2,.cls-7,.cls-16,.cls-11{stroke-width:.25px;}.cls-17{letter-spacing:-.04em;}.cls-18{letter-spacing:.02em;}.cls-19,.cls-20,.cls-21,.cls-22,.cls-23,.cls-24{fill:#231f20;}.cls-19,.cls-25,.cls-26,.cls-22,.cls-24,.cls-27,.cls-28{font-family:ArialMT, Arial;}.cls-19,.cls-25,.cls-26,.cls-27,.cls-29{font-size:6px;}.cls-30{letter-spacing:.01em;}.cls-20,.cls-23{font-family:Arial-BoldMT, Arial;font-weight:700;}.cls-20,.cls-24{font-size:7px;}.cls-31{letter-spacing:.02em;}.cls-32{letter-spacing:.03em;}.cls-33{letter-spacing:.01em;}.cls-34{letter-spacing:.01em;}.cls-35{letter-spacing:.02em;}.cls-36,.cls-3,.cls-4,.cls-12,.cls-14,.cls-10,.cls-15{stroke-width:.35px;}.cls-36,.cls-3,.cls-4,.cls-37,.cls-5,.cls-38,.cls-6,.cls-13,.cls-8,.cls-9,.cls-39,.cls-10,.cls-40{fill:none;}.cls-36,.cls-3,.cls-41,.cls-5,.cls-38,.cls-10,.cls-42{stroke:#241f20;}.cls-36,.cls-12,.cls-13,.cls-14,.cls-15{stroke-miterlimit:90;}.cls-43{letter-spacing:.03em;}.cls-44{letter-spacing:.02em;}.cls-45{letter-spacing:.01em;}.cls-46{letter-spacing:.02em;}.cls-47{letter-spacing:.01em;}.cls-48{letter-spacing:.01em;}.cls-49{letter-spacing:.01em;}.cls-50{letter-spacing:0em;}.cls-51,.cls-5,.cls-38,.cls-13,.cls-8,.cls-9{stroke-width:.5px;}.cls-51,.cls-52{fill:#c6a187;}.cls-51,.cls-39,.cls-40{stroke:#231f20;}.cls-25{fill:#212121;}.cls-53{letter-spacing:-.06em;}.cls-54{letter-spacing:.01em;}.cls-55{letter-spacing:.01em;}.cls-26,.cls-28{fill:#241f20;}.cls-56{letter-spacing:.02em;}.cls-57{font-size:5px;}.cls-58{letter-spacing:.02em;}.cls-41{fill:red;}.cls-41,.cls-42{stroke-width:.53px;}.cls-59{letter-spacing:.01em;}.cls-60{letter-spacing:-.07em;}.cls-61{letter-spacing:.01em;}.cls-62{letter-spacing:-.02em;}.cls-63{letter-spacing:.02em;}.cls-38{stroke-miterlimit:10;}.cls-64{letter-spacing:.01em;}.cls-65{letter-spacing:.01em;}.cls-66{fill:#1072ba;}.cls-67{letter-spacing:0em;}.cls-68{letter-spacing:.02em;}.cls-69{letter-spacing:.01em;}.cls-70{letter-spacing:.02em;}.cls-71{letter-spacing:0em;}.cls-72{letter-spacing:.02em;}.cls-73{letter-spacing:0em;}.cls-74{letter-spacing:.01em;}.cls-75{letter-spacing:.01em;}.cls-22,.cls-23{font-size:8px;}.cls-76{letter-spacing:.05em;}.cls-77{letter-spacing:.05em;}.cls-78{letter-spacing:.02em;}.cls-79{letter-spacing:0em;}.cls-7{fill:#f2ad47;}.cls-80{letter-spacing:.03em;}.cls-8{stroke-dasharray:2.16 2.16;}.cls-81{letter-spacing:.01em;}.cls-82{letter-spacing:.03em;}.cls-83{letter-spacing:.05em;}.cls-84{letter-spacing:.03em;}.cls-85{letter-spacing:.02em;}.cls-86{letter-spacing:.02em;}.cls-87{letter-spacing:0em;}.cls-16{fill:#70cddd;stroke:#70cddd;}.cls-88{letter-spacing:.02em;}.cls-14{fill:#fbb041;}.cls-89{letter-spacing:.02em;}.cls-90{letter-spacing:.02em;}.cls-91{letter-spacing:.02em;}.cls-92{letter-spacing:0em;}.cls-93{letter-spacing:.01em;}.cls-94{letter-spacing:0em;}.cls-11{fill:#ece340;}.cls-95{letter-spacing:.02em;}.cls-40{stroke-width:2px;}.cls-96{letter-spacing:.01em;}.cls-97{letter-spacing:.02em;}.cls-42{fill:#fff;}.cls-98{letter-spacing:.02em;}.cls-99{letter-spacing:.02em;}.cls-100{letter-spacing:0em;}.cls-101{letter-spacing:.02em;}.cls-102{letter-spacing:0em;}.cls-103{letter-spacing:.01em;}.cls-104{letter-spacing:.01em;}.cls-105{letter-spacing:.02em;}.cls-106{letter-spacing:-.07em;}.cls-107{letter-spacing:.02em;}.cls-15{fill:#f5eb12;}</style></defs><g id="Completions"><g id="USGS_137A"><line class="cls-4" x1="108.44" y1="516.36" x2="38.24" y2="586.55"/><line class="cls-4" x1="108.44" y1="521.58" x2="38.24" y2="591.77"/><line class="cls-4" x1="108.44" y1="505.92" x2="38.24" y2="576.11"/><line class="cls-4" x1="108.44" y1="511.14" x2="38.24" y2="581.33"/><line class="cls-4" x1="103.39" y1="500.53" x2="38.24" y2="565.67"/><line class="cls-4" x1="108.44" y1="500.7" x2="38.24" y2="570.89"/><line class="cls-4" x1="92.95" y1="500.53" x2="38.24" y2="555.23"/><line class="cls-4" x1="98.17" y1="500.53" x2="38.24" y2="560.45"/><line class="cls-4" x1="82.51" y1="500.53" x2="38.24" y2="544.79"/><line class="cls-4" x1="87.73" y1="500.53" x2="38.24" y2="550.01"/><line class="cls-4" x1="72.07" y1="500.53" x2="38.24" y2="534.35"/><line class="cls-4" x1="77.29" y1="500.53" x2="38.24" y2="539.57"/><line class="cls-4" x1="61.63" y1="500.53" x2="38.24" y2="523.91"/><line class="cls-4" x1="66.85" y1="500.53" x2="38.24" y2="529.13"/><line class="cls-4" x1="51.19" y1="500.53" x2="38.24" y2="513.47"/><line class="cls-4" x1="56.41" y1="500.53" x2="38.24" y2="518.69"/><line class="cls-4" x1="40.75" y1="500.53" x2="38.24" y2="503.04"/><line class="cls-4" x1="45.97" y1="500.53" x2="38.24" y2="508.26"/><line class="cls-4" x1="108.44" y1="620.75" x2="91.38" y2="637.81"/><line class="cls-4" x1="108.44" y1="625.97" x2="96.6" y2="637.81"/><line class="cls-4" x1="108.44" y1="610.31" x2="80.94" y2="637.81"/><line class="cls-4" x1="108.44" y1="615.53" x2="86.16" y2="637.81"/><line class="cls-4" x1="108.44" y1="599.87" x2="70.5" y2="637.81"/><line class="cls-4" x1="108.44" y1="605.09" x2="75.72" y2="637.81"/><line class="cls-4" x1="108.44" y1="589.43" x2="60.06" y2="637.81"/><line class="cls-4" x1="108.44" y1="594.65" x2="65.28" y2="637.81"/><line class="cls-4" x1="108.44" y1="578.99" x2="49.62" y2="637.81"/><line class="cls-4" x1="108.44" y1="584.21" x2="54.84" y2="637.81"/><line class="cls-4" x1="108.44" y1="568.55" x2="39.18" y2="637.81"/><line class="cls-4" x1="108.44" y1="573.77" x2="44.4" y2="637.81"/><line class="cls-4" x1="108.44" y1="558.12" x2="38.24" y2="628.31"/><line class="cls-4" x1="108.44" y1="563.34" x2="38.24" y2="633.53"/><line class="cls-4" x1="108.44" y1="547.68" x2="38.24" y2="617.87"/><line class="cls-4" x1="108.44" y1="552.9" x2="38.24" y2="623.09"/><line class="cls-4" x1="108.44" y1="537.24" x2="38.24" y2="607.43"/><line class="cls-4" x1="108.44" y1="542.46" x2="38.24" y2="612.65"/><line class="cls-4" x1="108.44" y1="526.8" x2="38.24" y2="596.99"/><line class="cls-4" x1="108.44" y1="532.02" x2="38.24" y2="602.21"/><line class="cls-4" x1="108.44" y1="631.19" x2="101.82" y2="637.81"/><line class="cls-4" x1="108.44" y1="636.41" x2="107.04" y2="637.81"/><rect class="cls-9" x="38.24" y="500.53" width="70.21" height="137.28"/><text class="cls-19" transform="translate(65.8 278.26) scale(.78 1)"><tspan x="0" y="0">Z3</tspan></text><text class="cls-26" transform="translate(65.8 278.26) scale(.78 1)"><tspan x="0" y="0">Z3</tspan></text><text class="cls-19" transform="translate(65.8 319.31) scale(.78 1)"><tspan x="0" y="0">Z2</tspan></text><text class="cls-26" transform="translate(65.8 319.31) scale(.78 1)"><tspan x="0" y="0">Z2</tspan></text><text class="cls-19" transform="translate(65.26 25.97) scale(1.07 1)"><tspan x="0" y="0">USGS 137</tspan><tspan class="cls-53" x="28.68" y="0">A</tspan><tspan x="-1.83" y="7.01">MU</tspan><tspan class="cls-106" x="7.5" y="7.01">L</tspan><tspan x="10.39" y="7.01">TILEVE</tspan><tspan class="cls-17" x="31.07" y="7.01">L</tspan><tspan x="-3.66" y="14.01">COMPLETION</tspan></text><text class="cls-19" transform="translate(65.8 205.52) scale(.78 1)"><tspan x="0" y="0">Z4</tspan></text><text class="cls-26" transform="translate(65.8 205.52) scale(.78 1)"><tspan x="0" y="0">Z4</tspan></text><text class="cls-19" transform="translate(65.8 137.25) scale(.78 1)"><tspan x="0" y="0">Z5</tspan></text><text class="cls-26" transform="translate(65.8 137.25) scale(.78 1)"><tspan x="0" y="0">Z5</tspan></text><text class="cls-19" transform="translate(65.8 414.15) scale(.78 1)"><tspan x="0" y="0">Z1</tspan></text><text class="cls-26" transform="translate(65.8 414.15) scale(.78 1)"><tspan x="0" y="0">Z1</tspan></text><text class="cls-26" transform="translate(94.52 326.7) scale(.78 1)"><tspan x="0" y="0">P1</tspan></text><text class="cls-26" transform="translate(94.52 202.89) scale(.78 1)"><tspan x="0" y="0">P5</tspan></text><text class="cls-26" transform="translate(94.52 316.69) scale(.78 1)"><tspan x="0" y="0">P2</tspan></text><text class="cls-26" transform="translate(94.52 292.99) scale(.78 1)"><tspan x="0" y="0">P3</tspan></text><text class="cls-26" transform="translate(94.52 241.7) scale(.78 1)"><tspan x="0" y="0">P4</tspan></text><text class="cls-26" transform="translate(94.52 178.12) scale(.78 1)"><tspan x="0" y="0">P6</tspan></text><text class="cls-26" transform="translate(94.52 119.08) scale(.78 1)"><tspan x="0" y="0">P7</tspan></text><text class="cls-26" transform="translate(94.52 99.76) scale(.78 1)"><tspan x="0" y="0">P8</tspan></text><text class="cls-25" transform="translate(20.04 108.21) scale(.87 1)"><tspan x="0" y="0">650</tspan></text><text class="cls-25" transform="translate(20.04 156.54) scale(.87 1)"><tspan x="0" y="0">700</tspan></text><text class="cls-25" transform="translate(20.04 204.87) scale(.87 1)"><tspan x="0" y="0">750</tspan></text><text class="cls-25" transform="translate(20.04 253.2) scale(.87 1)"><tspan x="0" y="0">800</tspan></text><text class="cls-25" transform="translate(20.04 301.53) scale(.87 1)"><tspan x="0" y="0">850</tspan></text><text class="cls-25" transform="translate(20.04 349.86) scale(.87 1)"><tspan x="0" y="0">900</tspan></text><text class="cls-25" transform="translate(20.04 398.19) scale(.87 1)"><tspan x="0" y="0">950</tspan></text><text class="cls-25" transform="translate(15.68 446.52) scale(.87 1)"><tspan x="0" y="0">1,000</tspan></text><text class="cls-25" transform="translate(15.68 494.85) scale(.87 1)"><tspan x="0" y="0">1,050</tspan></text><text class="cls-25" transform="translate(15.68 543.18) scale(.87 1)"><tspan x="0" y="0">1,100</tspan></text><text class="cls-25" transform="translate(15.68 591.51) scale(.87 1)"><tspan x="0" y="0">1,150</tspan></text><text class="cls-25" transform="translate(15.68 637.72) scale(.87 1)"><tspan x="0" y="0">1,200</tspan></text><rect class="cls-37" x="41.85" y="86.61" width=".4" height="412.75"/><rect class="cls-2" x="41.73" y="86.61" width="12.26" height="9.07"/><rect class="cls-7" x="41.73" y="248.01" width="12.26" height="4.82"/><rect class="cls-7" x="41.73" y="282.87" width="12.26" height="2.62"/><rect class="cls-2" x="41.73" y="99.07" width="12.26" height="8.79"/><rect class="cls-2" x="41.73" y="229.17" width="12.26" height="18.66"/><rect class="cls-2" x="41.73" y="132.12" width="12.26" height="15.98"/><rect class="cls-7" x="41.73" y="130.13" width="12.26" height="1.93"/><rect class="cls-7" x="41.73" y="147.75" width="12.26" height="21.89"/><rect class="cls-7" x="41.73" y="180.95" width="12.26" height="6.99"/><rect class="cls-7" x="41.73" y="192.82" width="12.26" height="9.55"/><rect class="cls-2" x="41.73" y="169.01" width="12.26" height="12.35"/><rect class="cls-2" x="41.73" y="209.39" width="12.26" height="2.51"/><rect class="cls-7" x="41.73" y="211.48" width="12.26" height="5.58"/><rect class="cls-7" x="41.73" y="266.78" width="12.26" height="3.05"/><rect class="cls-7" x="41.73" y="274.71" width="12.26" height="5.98"/><rect class="cls-2" x="41.73" y="252.25" width="12.26" height="2.18"/><rect class="cls-2" x="41.73" y="269.82" width="12.26" height="4.87"/><rect class="cls-2" x="41.73" y="280.69" width="12.26" height="2.59"/><rect class="cls-7" x="41.73" y="290.94" width="12.26" height="12.88"/><rect class="cls-7" x="41.73" y="307.48" width="12.26" height="13.94"/><rect class="cls-2" x="41.73" y="303.64" width="12.26" height="4.22"/><rect class="cls-7" x="41.73" y="344.11" width="12.26" height="12.2"/><rect class="cls-2" x="41.73" y="339.73" width="12.26" height="4.77"/><rect class="cls-7" x="41.73" y="411.42" width="12.26" height="6.65"/><rect class="cls-2" x="41.73" y="355.93" width="12.26" height="9.66"/><rect class="cls-2" x="41.73" y="383.76" width="12.26" height="27.67"/><rect class="cls-7" x="41.73" y="431.12" width="12.26" height="8.17"/><rect class="cls-7" x="41.73" y="567.59" width="12.26" height="4.87"/><rect class="cls-2" x="41.73" y="438.73" width="12.26" height="4.6"/><rect class="cls-7" x="41.73" y="442.94" width="12.26" height="10.87"/><rect class="cls-2" x="41.73" y="537.85" width="12.26" height="7.77"/><rect class="cls-7" x="41.73" y="580.86" width="12.26" height="2.29"/><rect class="cls-2" x="41.73" y="453.42" width="12.26" height="20.12"/><rect class="cls-7" x="41.73" y="549.89" width="12.26" height="7.49"/><rect class="cls-2" x="41.73" y="572.14" width="12.26" height="9.41"/><rect class="cls-2" x="41.73" y="513.94" width="12.26" height="11.04"/><rect class="cls-7" x="41.73" y="498.02" width="12.26" height="6.23"/><rect class="cls-7" x="41.73" y="545.41" width="12.26" height="3.43"/><rect class="cls-2" x="41.73" y="548.76" width="12.26" height="1.47"/><rect class="cls-7" x="41.73" y="558.1" width="12.26" height="6.19"/><rect class="cls-2" x="41.73" y="564.07" width="12.26" height="4.04"/><rect class="cls-11" x="41.73" y="95.63" width="12.26" height="3.22"/><rect class="cls-7" x="41.73" y="106.94" width="12.26" height="16.13"/><rect class="cls-2" x="41.73" y="187.66" width="12.26" height="4.81"/><rect class="cls-7" x="41.73" y="205.42" width="12.26" height="4.38"/><rect class="cls-2" x="41.73" y="202.23" width="12.26" height="3.02"/><rect class="cls-2" x="41.73" y="216.17" width="12.26" height="3.11"/><rect class="cls-7" x="41.73" y="219.28" width="12.26" height="9.88"/><rect class="cls-11" x="41.73" y="261.49" width="12.26" height="5.65"/><rect class="cls-7" x="41.73" y="254.14" width="12.26" height="3.03"/><rect class="cls-2" x="41.73" y="257.52" width="12.26" height="2.57"/><rect class="cls-7" x="41.73" y="259.98" width="12.26" height="2.09"/><rect class="cls-2" x="41.73" y="284.95" width="12.26" height="6.46"/><rect class="cls-2" x="41.73" y="321.55" width="12.26" height="2.59"/><rect class="cls-7" x="41.73" y="324.21" width="12.26" height="6.69"/><rect class="cls-2" x="41.73" y="330.43" width="12.26" height="2.55"/><rect class="cls-7" x="41.73" y="332.99" width="12.26" height="6.81"/><rect class="cls-11" x="41.73" y="426.95" width="12.26" height="4.17"/><rect class="cls-7" x="41.73" y="365.17" width="12.26" height="18.59"/><rect class="cls-2" x="41.73" y="418.08" width="12.26" height="9.05"/><rect class="cls-7" x="41.73" y="472.93" width="12.26" height="6.48"/><rect class="cls-2" x="41.73" y="479.1" width="12.26" height="19.22"/><rect class="cls-7" x="41.73" y="532.97" width="12.26" height="4.76"/><rect class="cls-2" x="41.73" y="528.96" width="12.26" height="4.24"/><rect class="cls-2" x="41.73" y="504.12" width="12.26" height="7.58"/><rect class="cls-7" x="41.73" y="511.39" width="12.26" height="2.92"/><rect class="cls-7" x="41.73" y="524.7" width="12.26" height="4.61"/><rect class="cls-2" x="41.73" y="556.66" width="12.26" height="1.85"/><rect class="cls-11" x="41.73" y="123.32" width="12.26" height="6.9"/><rect class="cls-2" x="41.73" y="582.77" width="12.26" height="3.02"/><rect class="cls-7" x="41.73" y="601.95" width="12.26" height="7.79"/><rect class="cls-2" x="41.73" y="596.74" width="12.26" height="5.62"/><rect class="cls-7" x="41.73" y="585.79" width="12.26" height="3.49"/><rect class="cls-2" x="41.73" y="588.67" width="12.26" height="1.81"/><rect class="cls-7" x="41.73" y="590.21" width="12.26" height="6.94"/><rect class="cls-2" x="41.73" y="609.94" width="12.26" height="27.87"/><line class="cls-6" x1="87.44" y1="345.57" x2="87.44" y2="57.6"/><line class="cls-6" x1="80.23" y1="57.6" x2="80.23" y2="345.57"/><rect x="80.49" y="343.35" width="7" height="2.72"/><path class="cls-66" d="M77.88,322.02c0,.56.45,1.01,1.01,1.01h10.26c.56,0,1.01-.45,1.01-1.01s-.45-1.01-1.01-1.01h-10.26c-.56,0-1.01.45-1.01,1.01,0,0,0-.56,0,0Z"/><path class="cls-5" d="M77.88,322.02c0,.56.45,1.01,1.01,1.01h10.26c.56,0,1.01-.45,1.01-1.01s-.45-1.01-1.01-1.01h-10.26c-.56,0-1.01.45-1.01,1.01,0,0,0-.56,0,0Z"/><path class="cls-66" d="M77.88,312.55c0,.56.45,1.01,1.01,1.01h10.25c.56,0,1.01-.45,1.01-1.01s-.45-1.01-1.01-1.01h-10.25c-.56,0-1.01.45-1.01,1.01,0,0,0-.56,0,0Z"/><path class="cls-5" d="M77.88,312.55c0,.56.45,1.01,1.01,1.01h10.25c.56,0,1.01-.45,1.01-1.01s-.45-1.01-1.01-1.01h-10.25c-.56,0-1.01.45-1.01,1.01,0,0,0-.56,0,0Z"/><path class="cls-66" d="M77.88,236.5c0,.56.45,1.01,1.01,1.01h10.25c.56,0,1.01-.45,1.01-1.01s-.45-1.01-1.01-1.01h-10.25c-.56,0-1.01.45-1.01,1.01,0,0,0-.56,0,0Z"/><path class="cls-5" d="M77.88,236.5c0,.56.45,1.01,1.01,1.01h10.25c.56,0,1.01-.45,1.01-1.01s-.45-1.01-1.01-1.01h-10.25c-.56,0-1.01.45-1.01,1.01,0,0,0-.56,0,0Z"/><path class="cls-66" d="M77.88,95.13c0,.56.45,1,1,1h10.26c.56,0,1-.45,1-1s-.45-1-1-1h-10.26c-.56,0-1,.45-1,1,0,0,0-.56,0,0Z"/><path class="cls-5" d="M77.88,95.13c0,.56.45,1,1,1h10.26c.56,0,1-.45,1-1s-.45-1-1-1h-10.26c-.56,0-1,.45-1,1,0,0,0-.56,0,0Z"/><path class="cls-66" d="M77.88,173.47c0,.56.45,1.01,1.01,1.01h10.26c.56,0,1.01-.45,1.01-1.01s-.45-1.01-1.01-1.01h-10.26c-.56,0-1.01.45-1.01,1.01,0,0,0-.56,0,0Z"/><path class="cls-5" d="M77.88,173.47c0,.56.45,1.01,1.01,1.01h10.26c.56,0,1.01-.45,1.01-1.01s-.45-1.01-1.01-1.01h-10.26c-.56,0-1.01.45-1.01,1.01,0,0,0-.56,0,0Z"/><polyline class="cls-10" points="75.8 237.51 73.64 237.51 73.64 239.25 73.64 240.23 73.64 241.66 73.64 244.15 73.64 244.72 73.64 246.17 73.64 247.4 73.64 247.43 73.64 247.6 73.64 249.16 73.64 249.21 73.64 254.33 73.64 256.3 73.64 256.93 73.64 256.95 73.64 258.84 73.64 260.33 73.64 262.69 73.64 264.44 73.64 265.64 73.64 268.64 73.64 270.72 73.64 270.94 73.64 273.38 73.64 273.81 73.64 273.91 73.64 274.25 73.64 275.01 73.64 276.49 73.64 277.32 73.64 278.1 73.64 278.79 73.64 280.25 73.64 280.61 73.64 282.77 73.64 288.21 73.64 291.43 73.64 295.25 73.64 296.86 73.64 298.61 73.64 298.72 73.64 299.85 73.64 301.67 73.64 301.78 73.64 304.1 73.64 306.2 73.64 309.2 73.64 311.54 75.8 311.54"/><polyline class="cls-10" points="75.8 323.03 73.64 323.03 73.64 325.36 73.64 325.93 73.64 326.78 73.64 327.5 73.64 329.17 73.64 329.71 73.64 330.39 73.64 331.6 73.64 332.35 73.64 333.97 73.64 336.48 73.64 337.19 73.64 338.11 73.64 338.33 73.64 339.04 73.64 339.38 73.64 343.82 73.64 345.34 73.64 347.8 73.64 348.76 73.64 349.43 73.64 350.69 73.64 351.61 73.64 352.73 73.64 353.39 73.64 354.29 73.64 354.85 73.64 355.09 73.64 355.58 73.64 356.53 73.64 357.26 73.64 357.73 73.64 359.99 73.64 361.24 73.64 361.63 73.64 362.79 73.64 366.61 73.64 367.66 73.64 368.53 73.64 369.36 73.64 370.33 73.64 371.94 73.64 374.98 73.64 375.35 73.64 376.26 73.64 376.35 73.64 376.99 73.64 377.45 73.64 378.45 73.64 379.26 73.64 379.55 73.64 380.94 73.64 388.07 73.64 388.52 73.64 389.76 73.64 390.07 73.64 392.21 73.64 394.35 73.64 398.47 73.64 398.71 73.64 399.14 73.64 399.56 73.64 400.12 73.64 400.27 73.64 400.33 73.64 401.18 73.64 404.82 73.64 405.67 73.64 405.93 73.64 406.2 73.64 406.93 73.64 407.39 73.64 415.75 73.64 417.25 73.64 421.55 73.64 422.78 73.64 423.82 73.64 423.86 73.64 424.37 73.64 424.65 73.64 424.67 73.64 425.5 73.64 426.39 73.64 427.45 73.64 427.93 73.64 429.26 73.64 429.28 73.64 429.38 73.64 430.62 73.64 431.8 73.64 434.41 73.64 435.82 73.64 437.45 73.64 438.79 73.64 439.55 73.64 440.09 73.64 440.82 73.64 440.93 73.64 441.53 73.64 442.67 73.64 443.6 73.64 444.94 73.64 445.08 73.64 446.67 73.64 448.42 73.64 449.92 73.64 450.05 73.64 451.7 73.64 453.05 73.64 454.38 73.64 454.57 73.64 455.92 73.64 455.98 73.64 456.92 73.64 457.41 73.64 457.89 73.64 458.75 73.64 459.85 73.64 462.95 73.64 463.83 73.64 465.38 73.64 468.75 73.64 470.01 73.64 470.23 73.64 470.69 73.64 472.12 73.64 472.29 73.64 473.62 73.64 477.24 73.64 477.99 73.64 478.63 73.64 478.68 73.64 479.62 73.64 479.78 73.64 479.86 73.64 481.46 73.64 482.96 73.64 485.71 73.64 486.81 73.64 487.63 73.64 487.85 73.64 489.57 73.64 494.45 73.64 494.98 73.64 500.53 75.8 500.53"/><polyline class="cls-10" points="75.8 174.48 73.64 174.48 73.64 175.62 73.64 176.34 73.64 178.03 73.64 182.02 73.64 183.01 73.64 184.04 73.64 184.85 73.64 185.59 73.64 188.45 73.64 199.3 73.64 200.69 73.64 202.05 73.64 204.73 73.64 212.22 73.64 215.24 73.64 216.02 73.64 218.62 73.64 218.8 73.64 219.84 73.64 220.75 73.64 221.31 73.64 223.26 73.64 223.66 73.64 227.6 73.64 228.1 73.64 228.77 73.64 230.72 73.64 232.01 73.64 232.11 73.64 232.37 73.64 235 73.64 235.49 75.8 235.49"/><polyline class="cls-10" points="75.8 96.14 73.64 96.14 73.64 98.21 73.64 98.6 73.64 108.85 73.64 111.46 73.64 112.17 73.64 112.6 73.64 112.88 73.64 113.9 73.64 115.36 73.64 115.37 73.64 121.05 73.64 124.12 73.64 126.13 73.64 127.36 73.64 128.98 73.64 130.77 73.64 132.72 73.64 133.16 73.64 134.45 73.64 135.62 73.64 137.16 73.64 141.87 73.64 144.44 73.64 145.87 73.64 148.8 73.64 159.9 73.64 161.8 73.64 161.9 73.64 162.87 73.64 163.21 73.64 164.96 73.64 170.03 73.64 172.47 75.8 172.47"/><polyline class="cls-10" points="75.8 313.56 73.64 313.56 73.64 316.6 73.64 317.65 73.64 317.83 73.64 318.75 73.64 319.69 73.64 320.78 73.64 321.02 75.8 321.02"/><line class="cls-9" x1="31.04" y1="105.61" x2="38.24" y2="105.61"/><line class="cls-9" x1="31.04" y1="153.99" x2="38.24" y2="153.99"/><line class="cls-9" x1="31.04" y1="202.52" x2="38.24" y2="202.52"/><line class="cls-9" x1="31.04" y1="250.86" x2="38.24" y2="250.86"/><line class="cls-9" x1="31.04" y1="299.19" x2="38.24" y2="299.19"/><line class="cls-9" x1="31.04" y1="347.52" x2="38.24" y2="347.52"/><line class="cls-9" x1="31.04" y1="395.9" x2="38.24" y2="395.9"/><line class="cls-9" x1="31.04" y1="444.44" x2="38.24" y2="444.44"/><line class="cls-9" x1="31.04" y1="492.77" x2="38.24" y2="492.77"/><line class="cls-9" x1="31.04" y1="541.1" x2="38.24" y2="541.1"/><line class="cls-9" x1="31.04" y1="589.43" x2="38.24" y2="589.43"/><line class="cls-9" x1="31.04" y1="637.81" x2="38.24" y2="637.81"/><line class="cls-9" x1="31.04" y1="57.23" x2="38.24" y2="57.23"/><text class="cls-25" transform="translate(20.04 59.88) scale(.87 1)"><tspan x="0" y="0">600</tspan></text><polygon class="cls-42" points="91.47 95.41 87.82 97.78 91.47 100.15 91.47 95.41"/><polygon class="cls-41" points="91.47 114.73 87.82 117.1 91.47 119.47 91.47 114.73"/><polygon class="cls-42" points="91.47 173.77 87.82 176.14 91.47 178.52 91.47 173.77"/><polygon class="cls-41" points="91.47 198.54 87.82 200.91 91.47 203.29 91.47 198.54"/><polygon class="cls-42" points="91.47 237.34 87.82 239.72 91.47 242.09 91.47 237.34"/><polygon class="cls-41" points="91.47 288.55 87.82 290.92 91.47 293.3 91.47 288.55"/><polygon class="cls-42" points="91.47 312.34 87.82 314.71 91.47 317.08 91.47 312.34"/><polygon class="cls-41" points="91.47 322.34 87.82 324.72 91.47 327.09 91.47 322.34"/><text class="cls-28" transform="translate(112.5 492.05) scale(.89 1)"><tspan class="cls-29"><tspan x="0" y="0">HOLE DEPTH</tspan></tspan><tspan class="cls-57"><tspan x="0" y="6">1,058 ft</tspan></tspan></text><text class="cls-28" transform="translate(112.5 568.61) scale(.89 1)"><tspan class="cls-29"><tspan x="0" y="0">Hole abandoned</tspan></tspan><tspan class="cls-57"><tspan x="0" y="6">1,058 to 1,317 ft</tspan></tspan></text><line class="cls-51" x1="108.42" y1="500.53" x2="126.5" y2="500.53"/><line class="cls-51" x1="108.42" y1="637.81" x2="126.5" y2="637.81"/><line class="cls-52" x1="118.44" y1="633.27" x2="118.47" y2="576.84"/><polygon class="cls-52" points="115.44 632.39 118.43 637.57 121.43 632.39 115.44 632.39"/><line class="cls-39" x1="118.44" y1="633.27" x2="118.47" y2="576.84"/><polygon class="cls-21" points="115.44 632.39 118.43 637.57 121.43 632.39 115.44 632.39"/><line class="cls-52" x1="118.47" y1="505.38" x2="118.44" y2="561.81"/><polygon class="cls-52" points="121.47 506.26 118.48 501.08 115.49 506.26 121.47 506.26"/><line class="cls-39" x1="118.47" y1="505.38" x2="118.44" y2="561.81"/><polygon class="cls-21" points="121.47 506.26 118.48 501.08 115.49 506.26 121.47 506.26"/></g></g><g id="Explanation"><text class="cls-23" transform="translate(134.16 104.68)"><tspan x="0" y="0">EXPLAN</tspan><tspan class="cls-60" x="32.45" y="0">A</tspan><tspan x="37.63" y="0">TION</tspan></text><text class="cls-20" transform="translate(127.83 120.81)"><tspan x="0" y="0">Lithology</tspan></text><text class="cls-24" transform="translate(151.46 175.96)"><tspan class="cls-88" x="0" y="0">Se</tspan><tspan class="cls-103" x="8.82" y="0">d</tspan><tspan class="cls-33" x="12.79" y="0">i</tspan><tspan class="cls-89" x="14.44" y="0">m</tspan><tspan class="cls-70" x="20.4" y="0">e</tspan><tspan class="cls-87" x="24.4" y="0">n</tspan><tspan class="cls-71" x="28.34" y="0">t</tspan></text><text class="cls-24" transform="translate(151.46 136.8)"><tspan class="cls-35" x="0" y="0">D</tspan><tspan class="cls-99" x="5.21" y="0">e</tspan><tspan class="cls-55" x="9.21" y="0">n</tspan><tspan class="cls-99" x="13.2" y="0">s</tspan><tspan class="cls-79" x="16.81" y="0">e </tspan><tspan class="cls-48" x="22.65" y="0">ba</tspan><tspan class="cls-107" x="30.62" y="0">s</tspan><tspan class="cls-74" x="34.25" y="0">a</tspan><tspan class="cls-96" x="38.25" y="0">l</tspan><tspan class="cls-71" x="39.89" y="0">t</tspan></text><rect class="cls-12" x="135.03" y="127.47" width="12.8" height="13.62"/><text class="cls-24" transform="translate(151.46 156.38)"><tspan class="cls-62" x="0" y="0">F</tspan><tspan class="cls-88" x="4.17" y="0">r</tspan><tspan class="cls-64" x="6.63" y="0">a</tspan><tspan class="cls-44" x="10.6" y="0">c</tspan><tspan class="cls-59" x="14.27" y="0">t</tspan><tspan class="cls-96" x="16.32" y="0">u</tspan><tspan class="cls-63" x="20.3" y="0">r</tspan><tspan class="cls-31" x="22.74" y="0">e</tspan><tspan class="cls-79" x="26.76" y="0">d </tspan><tspan class="cls-30" x="32.6" y="0">ba</tspan><tspan class="cls-107" x="40.58" y="0">s</tspan><tspan class="cls-34" x="44.21" y="0">a</tspan><tspan class="cls-45" x="48.2" y="0">l</tspan><tspan class="cls-71" x="49.84" y="0">t</tspan></text><rect class="cls-14" x="135.03" y="147.05" width="12.8" height="13.62"/><rect class="cls-15" x="135.03" y="166.63" width="12.8" height="13.62"/><line class="cls-36" x1="145.97" y1="231.31" x2="163.89" y2="231.31"/><text class="cls-20" transform="translate(127.83 196.56)"><tspan x="0" y="0">Completion</tspan></text><line class="cls-36" x1="163.89" y1="244.23" x2="160.3" y2="244.23"/><polyline class="cls-36" points="163.89 256.7 158.64 256.7 134.68 249.75"/><polygon class="cls-42" points="150.25 241.97 146.6 244.34 150.25 246.72 150.25 241.97"/><polyline class="cls-3" points="135.45 287.35 133.29 287.35 133.29 232.69 135.45 232.69"/><text class="cls-19" transform="translate(152.35 246.43) scale(.89 1)"><tspan x="0" y="0">P2</tspan></text><text class="cls-19" transform="translate(125.67 250.93) scale(.89 1)"><tspan x="0" y="0">Z1</tspan></text><text class="cls-26" transform="translate(125.67 250.93) scale(.89 1)"><tspan x="0" y="0">Z1</tspan></text><line class="cls-36" x1="145.97" y1="218.82" x2="163.89" y2="218.82"/><line class="cls-36" x1="150.59" y1="207.2" x2="163.89" y2="207.2"/><text class="cls-24" transform="translate(165.88 234.1)"><tspan class="cls-100" x="0" y="0">P</tspan><tspan class="cls-64" x="4.7" y="0">a</tspan><tspan class="cls-1" x="8.68" y="0">c</tspan><tspan class="cls-102" x="12.34" y="0">k</tspan><tspan class="cls-86" x="15.8" y="0">e</tspan><tspan x="19.81" y="0">r</tspan></text><text class="cls-24" transform="translate(165.88 246.67)"><tspan class="cls-43" x="0" y="0">M</tspan><tspan class="cls-70" x="6.01" y="0">e</tspan><tspan class="cls-93" x="10.02" y="0">a</tspan><tspan class="cls-69" x="14" y="0">s</tspan><tspan class="cls-96" x="17.58" y="0">u</tspan><tspan class="cls-63" x="21.57" y="0">r</tspan><tspan class="cls-70" x="24" y="0">e</tspan><tspan class="cls-89" x="28.01" y="0">m</tspan><tspan class="cls-70" x="33.96" y="0">e</tspan><tspan class="cls-87" x="37.96" y="0">n</tspan><tspan class="cls-71" x="41.91" y="0">t </tspan><tspan class="cls-78" x="45.8" y="0">p</tspan><tspan class="cls-107" x="49.83" y="0">o</tspan><tspan class="cls-76" x="53.85" y="0">r</tspan><tspan x="56.54" y="0">t </tspan><tspan class="cls-61" x="60.43" y="0">nu</tspan><tspan class="cls-105" x="68.38" y="0">m</tspan><tspan class="cls-46" x="74.32" y="0">b</tspan><tspan class="cls-86" x="78.34" y="0">e</tspan><tspan x="82.35" y="0">r</tspan></text><text class="cls-24" transform="translate(165.88 259.24)"><tspan class="cls-84" x="0" y="0">M</tspan><tspan class="cls-31" x="6.02" y="0">o</tspan><tspan class="cls-45" x="10.04" y="0">n</tspan><tspan class="cls-74" x="14.02" y="0">i</tspan><tspan class="cls-54" x="15.68" y="0">t</tspan><tspan class="cls-107" x="17.69" y="0">o</tspan><tspan class="cls-80" x="21.72" y="0">r</tspan><tspan class="cls-47" x="24.25" y="0">i</tspan><tspan class="cls-98" x="25.91" y="0">n</tspan><tspan x="29.91" y="0">g </tspan><tspan class="cls-92" x="35.75" y="0">z</tspan><tspan class="cls-88" x="39.31" y="0">o</tspan><tspan class="cls-105" x="43.33" y="0">n</tspan><tspan class="cls-79" x="47.33" y="0">e </tspan><tspan class="cls-69" x="53.17" y="0">nu</tspan><tspan class="cls-91" x="61.12" y="0">m</tspan><tspan class="cls-46" x="67.05" y="0">b</tspan><tspan class="cls-86" x="71.07" y="0">e</tspan><tspan x="75.08" y="0">r</tspan></text><text class="cls-24" transform="translate(165.88 221.53)"><tspan class="cls-56" x="0" y="0">M</tspan><tspan class="cls-93" x="5.99" y="0">ul</tspan><tspan class="cls-18" x="11.62" y="0">t</tspan><tspan class="cls-33" x="13.7" y="0">i</tspan><tspan class="cls-78" x="15.36" y="0">p</tspan><tspan class="cls-107" x="19.39" y="0">o</tspan><tspan class="cls-76" x="23.41" y="0">r</tspan><tspan x="26.1" y="0">t </tspan><tspan class="cls-32" x="29.99" y="0">c</tspan><tspan class="cls-93" x="33.71" y="0">a</tspan><tspan class="cls-75" x="37.7" y="0">s</tspan><tspan class="cls-47" x="41.3" y="0">i</tspan><tspan class="cls-70" x="42.95" y="0">n</tspan><tspan x="46.96" y="0">g</tspan></text><text class="cls-24" transform="translate(165.88 271.81)"><tspan class="cls-58" x="0" y="0">S</tspan><tspan class="cls-65" x="4.79" y="0">a</tspan><tspan class="cls-105" x="8.79" y="0">m</tspan><tspan class="cls-89" x="14.72" y="0">pl</tspan><tspan x="20.41" y="0">e </tspan><tspan class="cls-82" x="26.25" y="0">c</tspan><tspan class="cls-107" x="29.97" y="0">o</tspan><tspan class="cls-30" x="33.99" y="0">l</tspan><tspan class="cls-101" x="35.64" y="0">l</tspan><tspan class="cls-95" x="37.32" y="0">e</tspan><tspan class="cls-44" x="41.33" y="0">c</tspan><tspan class="cls-18" x="45.01" y="0">ti</tspan><tspan class="cls-88" x="48.78" y="0">o</tspan><tspan x="52.8" y="0">n </tspan><tspan class="cls-50" x="58.64" y="0">a</tspan><tspan x="62.59" y="0">t </tspan><tspan class="cls-78" x="66.48" y="0">p</tspan><tspan class="cls-68" x="70.51" y="0">o</tspan><tspan class="cls-83" x="74.54" y="0">r</tspan><tspan class="cls-79" x="77.23" y="0">t</tspan></text><text class="cls-24" transform="translate(165.88 208.96)"><tspan class="cls-73" x="0" y="0">W</tspan><tspan class="cls-46" x="6.58" y="0">e</tspan><tspan class="cls-30" x="10.59" y="0">l</tspan><tspan class="cls-79" x="12.24" y="0">l </tspan><tspan class="cls-32" x="15.74" y="0">c</tspan><tspan class="cls-55" x="19.46" y="0">a</tspan><tspan class="cls-49" x="23.45" y="0">si</tspan><tspan class="cls-98" x="28.71" y="0">n</tspan><tspan x="32.71" y="0">g</tspan></text><line class="cls-40" x1="135.23" y1="202.46" x2="135.23" y2="214.96"/><line class="cls-40" x1="149.72" y1="202.46" x2="149.72" y2="214.96"/><rect x="138.94" y="280.41" width="7.09" height="2.65"/><line class="cls-6" x1="146.03" y1="282.57" x2="145.92" y2="202.46"/><line class="cls-6" x1="138.82" y1="202.46" x2="138.94" y2="282.57"/><path class="cls-66" d="M136.34,231.31c0,.76.62,1.38,1.38,1.38h9.52c.76,0,1.38-.62,1.38-1.38s-.62-1.38-1.38-1.38h-9.52c-.76,0-1.38.62-1.38,1.38,0,0,0-.76,0,0Z"/><path class="cls-38" d="M136.34,231.31c0,.76.62,1.38,1.38,1.38h9.52c.76,0,1.38-.62,1.38-1.38s-.62-1.38-1.38-1.38h-9.52c-.76,0-1.38.62-1.38,1.38,0,0,0-.76,0,0Z"/><text class="cls-20" transform="translate(127.83 303.87)"><tspan x="0" y="0">Borehole</tspan></text><line class="cls-4" x1="147.83" y1="335.05" x2="139.74" y2="343.14"/><line class="cls-4" x1="147.83" y1="340.27" x2="144.96" y2="343.14"/><line class="cls-4" x1="142.92" y1="329.52" x2="135.03" y2="337.41"/><line class="cls-4" x1="147.83" y1="329.83" x2="135.03" y2="342.63"/><line class="cls-4" x1="137.7" y1="329.52" x2="135.03" y2="332.19"/><rect class="cls-13" x="135.03" y="329.52" width="12.8" height="13.62"/><text class="cls-24" transform="translate(151.46 338.2)"><tspan class="cls-78" x="0" y="0">B</tspan><tspan class="cls-46" x="4.81" y="0">el</tspan><tspan class="cls-81" x="10.5" y="0">o</tspan><tspan class="cls-79" x="14.47" y="0">w </tspan><tspan class="cls-97" x="21.47" y="0">h</tspan><tspan class="cls-107" x="25.48" y="0">o</tspan><tspan class="cls-101" x="29.51" y="0">l</tspan><tspan class="cls-79" x="31.18" y="0">e </tspan><tspan class="cls-63" x="37.02" y="0">d</tspan><tspan class="cls-99" x="41.01" y="0">e</tspan><tspan class="cls-94" x="45.02" y="0">p</tspan><tspan class="cls-72" x="48.97" y="0">t</tspan><tspan x="51.05" y="0">h</tspan></text><polygon class="cls-16" points="138.4 312.05 141.43 314.9 144.45 312.05 138.4 312.05"/><line class="cls-9" x1="135.03" y1="315.28" x2="136.03" y2="315.28"/><line class="cls-8" x1="138.19" y1="315.28" x2="145.75" y2="315.28"/><line class="cls-9" x1="146.83" y1="315.28" x2="147.83" y2="315.28"/><text class="cls-24" transform="translate(151.46 316.53)"><tspan class="cls-73" x="0" y="0">W</tspan><tspan class="cls-50" x="6.58" y="0">at</tspan><tspan class="cls-86" x="12.54" y="0">e</tspan><tspan x="16.55" y="0">r </tspan><tspan class="cls-101" x="20.83" y="0">l</tspan><tspan class="cls-79" x="22.5" y="0">e</tspan><tspan class="cls-67" x="26.39" y="0">v</tspan><tspan class="cls-58" x="29.9" y="0">e</tspan><tspan x="33.92" y="0">l </tspan><tspan class="cls-89" x="37.42" y="0">m</tspan><tspan class="cls-98" x="43.37" y="0">e</tspan><tspan class="cls-55" x="47.37" y="0">a</tspan><tspan class="cls-69" x="51.36" y="0">s</tspan><tspan class="cls-96" x="54.94" y="0">u</tspan><tspan class="cls-63" x="58.93" y="0">r</tspan><tspan class="cls-31" x="61.36" y="0">e</tspan><tspan x="65.38" y="0">d</tspan><tspan class="cls-85" x="0" y="8.4">o</tspan><tspan class="cls-104" x="4.01" y="8.4">u</tspan><tspan class="cls-90" x="7.99" y="8.4">t</tspan><tspan class="cls-75" x="10.08" y="8.4">s</tspan><tspan class="cls-18" x="13.68" y="8.4">i</tspan><tspan class="cls-63" x="15.37" y="8.4">d</tspan><tspan x="19.37" y="8.4">e </tspan><tspan class="cls-30" x="25.21" y="8.4">mul</tspan><tspan class="cls-18" x="36.77" y="8.4">t</tspan><tspan class="cls-47" x="38.85" y="8.4">i</tspan><tspan class="cls-78" x="40.5" y="8.4">p</tspan><tspan class="cls-68" x="44.53" y="8.4">o</tspan><tspan class="cls-83" x="48.56" y="8.4">r</tspan><tspan class="cls-79" x="51.25" y="8.4">t </tspan><tspan class="cls-32" x="55.13" y="8.4">c</tspan><tspan class="cls-55" x="58.86" y="8.4">a</tspan><tspan class="cls-49" x="62.84" y="8.4">si</tspan><tspan class="cls-98" x="68.1" y="8.4">n</tspan><tspan x="72.1" y="8.4">g</tspan></text><text class="cls-24" transform="translate(165.88 284.38)"><tspan class="cls-56" x="0" y="0">M</tspan><tspan class="cls-93" x="5.99" y="0">ul</tspan><tspan class="cls-18" x="11.62" y="0">t</tspan><tspan class="cls-33" x="13.7" y="0">i</tspan><tspan class="cls-78" x="15.36" y="0">p</tspan><tspan class="cls-107" x="19.39" y="0">o</tspan><tspan class="cls-76" x="23.41" y="0">r</tspan><tspan class="cls-48" x="26.1" y="0">t</tspan><tspan class="cls-77" x="28.14" y="0">-</tspan><tspan class="cls-32" x="30.79" y="0">c</tspan><tspan class="cls-96" x="34.51" y="0">a</tspan><tspan class="cls-75" x="38.49" y="0">s</tspan><tspan class="cls-47" x="42.1" y="0">i</tspan><tspan class="cls-98" x="43.75" y="0">n</tspan><tspan class="cls-79" x="47.75" y="0">g </tspan><tspan class="cls-99" x="53.59" y="0">en</tspan><tspan class="cls-79" x="61.6" y="0">d </tspan><tspan class="cls-32" x="67.44" y="0">c</tspan><tspan class="cls-47" x="71.16" y="0">a</tspan><tspan x="75.15" y="0">p</tspan></text><line class="cls-36" x1="145.97" y1="281.92" x2="163.89" y2="281.92"/><line class="cls-36" x1="163.89" y1="269.35" x2="152.3" y2="269.35"/><polygon class="cls-41" points="150.25 266.98 146.6 269.35 150.25 271.72 150.25 266.98"/></g><g id="Grid"><text class="cls-22" transform="translate(9.42 394.03) rotate(-90) scale(1.26 1)"><tspan x="0" y="0">Depth, in feet below land surface</tspan></text><text class="cls-27" transform="translate(51.33 52.08) rotate(-90) scale(1.16 1)"><tspan x="0" y="0">LITHOLOGY</tspan></text><text class="cls-19" transform="translate(63.14 52.54) scale(.93 1)"><tspan x="0" y="0">Zone</tspan></text><text class="cls-19" transform="translate(94.11 52.54) scale(.93 1)"><tspan x="0" y="0">Port</tspan></text><polyline class="cls-9" points="38.23 57.23 108.44 57.23 38.23 57.23"/><line class="cls-9" x1="58" y1="6.97" x2="58" y2="637.82"/><polygon class="cls-9" points="108.44 637.82 108.44 6.97 38.23 6.97 38.23 6.97 38.23 637.82 108.44 637.82"/></g></svg>