<?xml version="1.0" encoding="UTF-8"?><svg xmlns="http://www.w3.org/2000/svg" viewBox="0 0 252 645"><defs><style>.cls-1{letter-spacing:.02em;}.cls-2{letter-spacing:-.04em;}.cls-3{letter-spacing:.02em;}.cls-4,.cls-5,.cls-6,.cls-7,.cls-8{fill:#231f20;}.cls-4,.cls-9,.cls-10,.cls-6,.cls-8,.cls-11,.cls-12{font-family:ArialMT, Arial;}.cls-4,.cls-9,.cls-10,.cls-11,.cls-13{font-size:6px;}.cls-14{letter-spacing:.01em;}.cls-5,.cls-7{font-family:Arial-BoldMT, Arial;font-weight:700;}.cls-5,.cls-8{font-size:7px;}.cls-15{letter-spacing:.02em;}.cls-16,.cls-17,.cls-18,.cls-19,.cls-20,.cls-21,.cls-22,.cls-23{stroke:#241f20;}.cls-16,.cls-19,.cls-21,.cls-22,.cls-24,.cls-25,.cls-26{stroke-width:.5px;}.cls-16,.cls-23{fill:#fff;}.cls-27{letter-spacing:.03em;}.cls-28{letter-spacing:.01em;}.cls-29{letter-spacing:.01em;}.cls-30{letter-spacing:.02em;}.cls-17,.cls-18,.cls-31,.cls-32,.cls-33,.cls-34,.cls-35,.cls-36{stroke-width:.35px;}.cls-17,.cls-18,.cls-31,.cls-32,.cls-33,.cls-21,.cls-22,.cls-37,.cls-24,.cls-25,.cls-26,.cls-38{fill:none;}.cls-17,.cls-34,.cls-24,.cls-35,.cls-36{stroke-miterlimit:90;}.cls-39{letter-spacing:.03em;}.cls-40{letter-spacing:.02em;}.cls-18,.cls-31,.cls-32,.cls-33,.cls-41,.cls-21,.cls-42,.cls-37,.cls-25,.cls-26,.cls-43{stroke-linejoin:round;}.cls-18,.cls-31,.cls-32,.cls-41,.cls-42,.cls-37,.cls-25,.cls-26,.cls-43{stroke-linecap:round;}.cls-44{letter-spacing:.01em;}.cls-45{letter-spacing:.02em;}.cls-46{letter-spacing:.01em;}.cls-19,.cls-20{fill:red;}.cls-47{letter-spacing:.01em;}.cls-48{letter-spacing:.01em;}.cls-49{letter-spacing:0em;}.cls-31,.cls-34,.cls-41,.cls-42,.cls-37,.cls-24,.cls-25,.cls-26,.cls-35,.cls-43,.cls-36{stroke:#000;}.cls-9{fill:#212121;}.cls-32,.cls-33,.cls-38{stroke:#231f20;}.cls-50{letter-spacing:.01em;}.cls-51{letter-spacing:.01em;}.cls-10,.cls-12{fill:#241f20;}.cls-34{fill:#bcbdc0;}.cls-52{letter-spacing:.02em;}.cls-53{font-size:5px;}.cls-54{letter-spacing:.02em;}.cls-55{letter-spacing:-.07em;}.cls-20,.cls-23{stroke-width:.53px;}.cls-56{letter-spacing:.01em;}.cls-57{letter-spacing:-.07em;}.cls-58{letter-spacing:.01em;}.cls-41{fill:#faaf41;}.cls-41,.cls-42,.cls-59,.cls-43{stroke-width:.25px;}.cls-60{letter-spacing:-.02em;}.cls-61{letter-spacing:.02em;}.cls-42{fill:#b2b2b2;}.cls-22{stroke-miterlimit:10;}.cls-62{letter-spacing:.01em;}.cls-63{letter-spacing:.01em;}.cls-64{fill:#1072ba;}.cls-65{letter-spacing:0em;}.cls-66{letter-spacing:.02em;}.cls-67{letter-spacing:.01em;}.cls-68{letter-spacing:.02em;}.cls-69{letter-spacing:0em;}.cls-70{letter-spacing:.02em;}.cls-71{letter-spacing:0em;}.cls-72{letter-spacing:.01em;}.cls-73{letter-spacing:.01em;}.cls-6,.cls-7{font-size:8px;}.cls-74{letter-spacing:.05em;}.cls-75{letter-spacing:.05em;}.cls-76{letter-spacing:.02em;}.cls-77{letter-spacing:0em;}.cls-78{letter-spacing:.03em;}.cls-25{stroke-dasharray:2.16 2.16;}.cls-79{letter-spacing:.01em;}.cls-80{letter-spacing:.03em;}.cls-81{letter-spacing:.05em;}.cls-82{letter-spacing:.03em;}.cls-83{letter-spacing:.02em;}.cls-84{letter-spacing:.02em;}.cls-85{letter-spacing:0em;}.cls-59{fill:#70cddd;stroke:#70cddd;}.cls-86{letter-spacing:.02em;}.cls-35{fill:#fbb041;}.cls-87{letter-spacing:.02em;}.cls-88{letter-spacing:.02em;}.cls-89{letter-spacing:.02em;}.cls-90{letter-spacing:0em;}.cls-91{letter-spacing:.01em;}.cls-92{letter-spacing:0em;}.cls-93{letter-spacing:.02em;}.cls-38{stroke-width:2px;}.cls-94{letter-spacing:.01em;}.cls-95{letter-spacing:.02em;}.cls-96{letter-spacing:.02em;}.cls-97{letter-spacing:.02em;}.cls-98{letter-spacing:0em;}.cls-99{letter-spacing:.02em;}.cls-100{letter-spacing:0em;}.cls-101{letter-spacing:.01em;}.cls-102{letter-spacing:.01em;}.cls-43{fill:#f4ea0f;}.cls-103{letter-spacing:.02em;}.cls-104{letter-spacing:-.07em;}.cls-105{letter-spacing:.02em;}.cls-36{fill:#f5eb12;}</style></defs><g id="Completions"><g id="USGS_133"><text class="cls-4" transform="translate(67.23 25.97) scale(1.07 1)"><tspan x="0" y="0">USGS 133</tspan><tspan x="-3.67" y="7.01">MU</tspan><tspan class="cls-104" x="5.67" y="7.01">L</tspan><tspan x="8.56" y="7.01">TILEVE</tspan><tspan class="cls-2" x="29.23" y="7.01">L</tspan><tspan x="-5.49" y="14.01">COMPLETION</tspan></text><text class="cls-10" transform="translate(94.52 129.95) scale(.86 1)"><tspan x="0" y="0">P13</tspan></text><text class="cls-10" transform="translate(94.52 160.96) scale(.86 1)"><tspan x="0" y="0">P12</tspan></text><text class="cls-10" transform="translate(94.52 181.5) scale(.86 1)"><tspan x="0" y="0">P</tspan><tspan class="cls-55" x="4" y="0">1</tspan><tspan x="6.89" y="0">1</tspan></text><text class="cls-10" transform="translate(94.52 262.57) scale(.86 1)"><tspan x="0" y="0">P10</tspan></text><text class="cls-10" transform="translate(94.52 286.26) scale(.86 1)"><tspan x="0" y="0">P9</tspan></text><text class="cls-10" transform="translate(94.52 306.53) scale(.86 1)"><tspan x="0" y="0">P8</tspan></text><text class="cls-10" transform="translate(94.52 341.73) scale(.86 1)"><tspan x="0" y="0">P7</tspan></text><text class="cls-10" transform="translate(94.52 377.47) scale(.86 1)"><tspan x="0" y="0">P6</tspan></text><text class="cls-10" transform="translate(94.52 475.25) scale(.86 1)"><tspan x="0" y="0">P5</tspan></text><text class="cls-10" transform="translate(94.52 494.7) scale(.86 1)"><tspan x="0" y="0">P4</tspan></text><text class="cls-10" transform="translate(94.52 532.63) scale(.86 1)"><tspan x="0" y="0">P2</tspan></text><text class="cls-10" transform="translate(94.52 518.25) scale(.86 1)"><tspan x="0" y="0">P3</tspan></text><text class="cls-10" transform="translate(94.52 562.08) scale(.86 1)"><tspan x="0" y="0">P1</tspan></text><text class="cls-10" transform="translate(65.2 503) scale(.86 1)"><tspan x="0" y="0">Z3</tspan></text><text class="cls-10" transform="translate(65.2 521.96) scale(.86 1)"><tspan x="0" y="0">Z2</tspan></text><text class="cls-10" transform="translate(65.2 481.98) scale(.86 1)"><tspan x="0" y="0">Z4</tspan></text><text class="cls-10" transform="translate(65.2 420.64) scale(.86 1)"><tspan x="0" y="0">Z5</tspan></text><text class="cls-10" transform="translate(65.2 310.3) scale(.86 1)"><tspan x="0" y="0">Z7</tspan></text><text class="cls-10" transform="translate(65.2 271.53) scale(.86 1)"><tspan x="0" y="0">Z8</tspan></text><text class="cls-10" transform="translate(65.2 218.3) scale(.86 1)"><tspan x="0" y="0">Z9</tspan></text><text class="cls-10" transform="translate(62.33 153.38) scale(.86 1)"><tspan x="0" y="0">Z10</tspan></text><text class="cls-10" transform="translate(65.2 356.05) scale(.86 1)"><tspan x="0" y="0">Z6</tspan></text><text class="cls-4" transform="translate(65.2 586.41) scale(.86 1)"><tspan x="0" y="0">Z1</tspan></text><text class="cls-10" transform="translate(65.2 586.41) scale(.86 1)"><tspan x="0" y="0">Z1</tspan></text><rect class="cls-42" x="41.73" y="93.59" width="12.8" height="31.93"/><rect class="cls-41" x="41.73" y="125.49" width="12.8" height="37.72"/><rect class="cls-42" x="41.73" y="163.22" width="12.8" height="14.52"/><rect class="cls-41" x="41.73" y="177.73" width="12.8" height="58.04"/><rect class="cls-42" x="41.73" y="235.77" width="12.8" height="47.89"/><rect class="cls-41" x="41.73" y="283.66" width="12.8" height="29.02"/><rect class="cls-42" x="41.73" y="312.68" width="12.8" height="78.35"/><rect class="cls-43" x="41.73" y="391.03" width="12.8" height="47.89"/><rect class="cls-41" x="41.73" y="438.9" width="12.8" height="10.15"/><rect class="cls-43" x="41.73" y="449.07" width="12.8" height="1.45"/><rect class="cls-42" x="41.73" y="450.51" width="12.8" height="24.67"/><rect class="cls-41" x="41.73" y="475.18" width="12.8" height="8.7"/><rect class="cls-42" x="41.73" y="483.88" width="12.8" height="5.8"/><rect class="cls-43" x="41.73" y="489.68" width="12.8" height="2.91"/><rect class="cls-41" x="41.73" y="492.59" width="12.8" height="8.7"/><rect class="cls-42" x="41.73" y="501.29" width="12.8" height="24.67"/><rect class="cls-41" x="41.73" y="525.95" width="12.8" height="10.15"/><rect class="cls-42" x="41.73" y="536.12" width="12.8" height="18.87"/><rect class="cls-41" x="41.73" y="554.97" width="12.8" height="10.15"/><rect class="cls-42" x="41.73" y="565.14" width="12.8" height="36.28"/><text class="cls-9" transform="translate(20.15 132.43) scale(.86 1)"><tspan x="0" y="0">450</tspan></text><text class="cls-9" transform="translate(20.15 204.93) scale(.86 1)"><tspan x="0" y="0">500</tspan></text><text class="cls-9" transform="translate(20.15 277.43) scale(.86 1)"><tspan x="0" y="0">550</tspan></text><text class="cls-9" transform="translate(20.15 349.93) scale(.86 1)"><tspan x="0" y="0">600</tspan></text><text class="cls-9" transform="translate(20.15 422.43) scale(.86 1)"><tspan x="0" y="0">650</tspan></text><text class="cls-9" transform="translate(20.15 494.94) scale(.86 1)"><tspan x="0" y="0">700</tspan></text><text class="cls-9" transform="translate(20.15 567.44) scale(.86 1)"><tspan x="0" y="0">750</tspan></text><text class="cls-9" transform="translate(20.15 59.88) scale(.86 1)"><tspan x="0" y="0">400</tspan></text><text class="cls-9" transform="translate(20.15 637.72) scale(.86 1)"><tspan x="0" y="0">800</tspan></text><polyline class="cls-32" points="75.8 529.56 73.64 529.56 73.64 530.89 73.64 531.83 73.64 533.11 73.64 533.3 73.64 534.36 73.64 536.35 73.64 537.98 73.64 540.32 73.64 540.57 73.64 543.35 73.64 546.42 73.64 549.03 73.64 549.26 73.64 552.14 73.64 554.51 73.64 556.83 73.64 557.16 73.64 559.53 73.64 559.63 73.64 561.28 73.64 562.13 73.64 562.97 73.64 564.47 73.64 566.41 73.64 571.83 73.64 573.36 73.64 576.09 73.64 581.97 73.64 584.17 73.64 584.57 73.64 585.36 73.64 587.88 73.64 588.16 73.64 590.5 73.64 596.82 73.64 598.14 73.64 599.26 73.64 599.35 73.64 600.99 73.64 601.26 73.64 637.82 75.8 637.82"/><polyline class="cls-32" points="75.8 515.17 73.64 515.17 73.64 517.21 73.64 521.76 73.64 524.21 73.64 527.04 75.8 527.04"/><polyline class="cls-32" points="75.8 491.61 73.64 491.61 73.64 499.13 73.64 501.28 73.64 503.1 73.64 503.16 73.64 504.06 73.64 504.54 73.64 504.59 73.64 506.04 73.64 507.6 73.64 509.44 73.64 510.29 73.64 512.61 73.64 512.65 75.8 512.65"/><polyline class="cls-32" points="75.8 472.15 73.64 472.15 73.64 473.44 73.64 474.24 73.64 489.08 75.8 489.08"/><polyline class="cls-32" points="75.8 374.32 73.64 374.32 73.64 375.95 73.64 377.92 73.64 379.08 73.64 380.66 73.64 381.66 73.64 382.08 73.64 382.94 73.64 384.61 73.64 385.89 73.64 386.71 73.64 390.7 73.64 392.9 73.64 393.58 73.64 395.62 73.64 402.35 73.64 404.2 73.64 405.73 73.64 407.19 73.64 408.9 73.64 411.73 73.64 417.08 73.64 417.74 73.64 419.34 73.64 419.5 73.64 420.63 73.64 421.44 73.64 423.19 73.64 424.63 73.64 425.14 73.64 427.59 73.64 440.13 73.64 440.92 73.64 443.1 73.64 443.65 73.64 447.42 73.64 451.19 73.64 458.44 73.64 458.86 73.64 459.62 73.64 460.35 73.64 461.34 73.64 461.6 73.64 461.71 73.64 463.21 73.64 469.63 75.8 469.63"/><polyline class="cls-33" points="75.8 178.25 73.64 178.25 73.64 182.22 73.64 183.2 73.64 184.22 73.64 185.03 73.64 185.76 73.64 188.61 73.64 199.38 73.64 200.77 73.64 202.12 73.64 204.78 73.64 212.23 73.64 215.23 73.64 216.01 73.64 218.58 73.64 218.76 73.64 219.79 73.64 220.7 73.64 221.25 73.64 223.19 73.64 223.59 73.64 227.51 73.64 228 73.64 228.67 73.64 230.61 73.64 231.89 73.64 231.99 73.64 232.25 73.64 234.86 73.64 235.35 73.64 237.85 73.64 238.25 73.64 239.97 73.64 240.94 73.64 242.36 73.64 244.81 73.64 245.38 73.64 246.81 73.64 248.03 73.64 248.06 73.64 248.23 73.64 249.77 73.64 249.82 73.64 254.89 73.64 256.84 75.8 256.84"/><polyline class="cls-33" points="75.8 126.73 73.64 126.73 73.64 128.36 73.64 130.16 73.64 132.13 73.64 132.58 73.64 133.88 73.64 135.05 73.64 136.61 73.64 141.36 73.64 143.96 73.64 145.4 73.64 148.36 73.64 159.56 73.64 161.48 73.64 161.58 73.64 162.55 73.64 162.89 73.64 164.66 73.64 169.77 73.64 172.24 73.64 172.86 73.64 173.26 73.64 174.6 73.64 175.73 75.8 175.73"/><polyline class="cls-33" points="75.8 338.56 73.64 338.56 73.64 340.66 73.64 341.97 73.64 344.81 73.64 349.19 73.64 350.43 73.64 352.03 73.64 352.42 73.64 353.66 73.64 354.25 73.64 362 73.64 364.66 73.64 368.95 73.64 370.62 73.64 371.8 75.8 371.8"/><polyline class="cls-33" points="75.8 283.07 73.64 283.07 73.64 288.43 73.64 291.59 73.64 295.36 73.64 296.95 73.64 298.67 73.64 298.78 73.64 299.89 73.64 301.68 73.64 301.79 73.64 304.08 73.64 306.14 73.64 309.09 73.64 311.4 73.64 313.66 73.64 316.93 73.64 318.06 73.64 318.25 73.64 319.25 73.64 320.26 73.64 321.44 73.64 321.7 73.64 321.8 73.64 324.45 73.64 325.29 73.64 329.37 73.64 330.36 73.64 331.85 73.64 333.13 73.64 336.04 75.8 336.04"/><polyline class="cls-33" points="75.8 259.36 73.64 259.36 73.64 260.84 73.64 263.18 73.64 264.91 73.64 266.1 73.64 269.06 73.64 271.11 73.64 271.33 73.64 273.75 73.64 274.17 73.64 274.27 73.64 274.61 73.64 275.36 73.64 276.83 73.64 277.65 73.64 278.42 73.64 279.1 73.64 280.55 75.8 280.55"/><rect x="80.35" y="587.41" width="7.35" height="2.93"/><line class="cls-37" x1="87.44" y1="589.85" x2="87.44" y2="57.23"/><line class="cls-37" x1="80.23" y1="57.23" x2="80.23" y2="589.85"/><path class="cls-64" d="M77.88,528.3c0,.7.56,1.26,1.26,1.26h9.75c.7,0,1.26-.56,1.26-1.26s-.56-1.26-1.26-1.26h-9.75c-.7,0-1.26.56-1.26,1.26,0,0,0-.7,0,0Z"/><path class="cls-21" d="M77.88,528.3c0,.7.56,1.26,1.26,1.26h9.75c.7,0,1.26-.56,1.26-1.26s-.56-1.26-1.26-1.26h-9.75c-.7,0-1.26.56-1.26,1.26,0,0,0-.7,0,0Z"/><path class="cls-64" d="M77.88,513.91c0,.7.56,1.26,1.26,1.26h9.75c.7,0,1.26-.56,1.26-1.26s-.56-1.26-1.26-1.26h-9.75c-.7,0-1.26.56-1.26,1.26,0,0,0-.7,0,0Z"/><path class="cls-21" d="M77.88,513.91c0,.7.56,1.26,1.26,1.26h9.75c.7,0,1.26-.56,1.26-1.26s-.56-1.26-1.26-1.26h-9.75c-.7,0-1.26.56-1.26,1.26,0,0,0-.7,0,0Z"/><path class="cls-64" d="M77.88,490.34c0,.7.57,1.27,1.27,1.27h9.74c.7,0,1.27-.57,1.27-1.27s-.57-1.27-1.27-1.27h-9.74c-.7,0-1.27.57-1.27,1.27,0,0,0-.7,0,0Z"/><path class="cls-21" d="M77.88,490.34c0,.7.57,1.27,1.27,1.27h9.74c.7,0,1.27-.57,1.27-1.27s-.57-1.27-1.27-1.27h-9.74c-.7,0-1.27.57-1.27,1.27,0,0,0-.7,0,0Z"/><path class="cls-64" d="M77.88,470.89c0,.7.56,1.26,1.26,1.26h9.75c.7,0,1.26-.56,1.26-1.26s-.56-1.26-1.26-1.26h-9.75c-.7,0-1.26.56-1.26,1.26,0,0,0-.7,0,0Z"/><path class="cls-21" d="M77.88,470.89c0,.7.56,1.26,1.26,1.26h9.75c.7,0,1.26-.56,1.26-1.26s-.56-1.26-1.26-1.26h-9.75c-.7,0-1.26.56-1.26,1.26,0,0,0-.7,0,0Z"/><path class="cls-64" d="M77.88,373.06c0,.7.56,1.26,1.26,1.26h9.75c.7,0,1.26-.56,1.26-1.26s-.56-1.26-1.26-1.26h-9.75c-.7,0-1.26.56-1.26,1.26,0,0,0-.7,0,0Z"/><path class="cls-21" d="M77.88,373.06c0,.7.56,1.26,1.26,1.26h9.75c.7,0,1.26-.56,1.26-1.26s-.56-1.26-1.26-1.26h-9.75c-.7,0-1.26.56-1.26,1.26,0,0,0-.7,0,0Z"/><path class="cls-64" d="M77.88,176.99c0,.7.56,1.26,1.26,1.26h9.75c.7,0,1.26-.56,1.26-1.26s-.56-1.26-1.26-1.26h-9.75c-.7,0-1.26.56-1.26,1.26,0,0,0-.7,0,0Z"/><path class="cls-21" d="M77.88,176.99c0,.7.56,1.26,1.26,1.26h9.75c.7,0,1.26-.56,1.26-1.26s-.56-1.26-1.26-1.26h-9.75c-.7,0-1.26.56-1.26,1.26,0,0,0-.7,0,0Z"/><path class="cls-64" d="M77.88,125.47c0,.7.56,1.26,1.26,1.26h9.75c.7,0,1.26-.56,1.26-1.26s-.56-1.26-1.26-1.26h-9.75c-.7,0-1.26.56-1.26,1.26,0,0,0-.7,0,0Z"/><path class="cls-21" d="M77.88,125.47c0,.7.56,1.26,1.26,1.26h9.75c.7,0,1.26-.56,1.26-1.26s-.56-1.26-1.26-1.26h-9.75c-.7,0-1.26.56-1.26,1.26,0,0,0-.7,0,0Z"/><path class="cls-64" d="M77.88,337.3c0,.7.56,1.26,1.26,1.26h9.75c.7,0,1.26-.56,1.26-1.26s-.56-1.26-1.26-1.26h-9.75c-.7,0-1.26.56-1.26,1.26,0,0,0-.7,0,0Z"/><path class="cls-21" d="M77.88,337.3c0,.7.56,1.26,1.26,1.26h9.75c.7,0,1.26-.56,1.26-1.26s-.56-1.26-1.26-1.26h-9.75c-.7,0-1.26.56-1.26,1.26,0,0,0-.7,0,0Z"/><path class="cls-64" d="M77.88,281.81c0,.7.56,1.26,1.26,1.26h9.75c.7,0,1.26-.56,1.26-1.26s-.56-1.26-1.26-1.26h-9.75c-.7,0-1.26.56-1.26,1.26,0,0,0-.7,0,0Z"/><path class="cls-21" d="M77.88,281.81c0,.7.56,1.26,1.26,1.26h9.75c.7,0,1.26-.56,1.26-1.26s-.56-1.26-1.26-1.26h-9.75c-.7,0-1.26.56-1.26,1.26,0,0,0-.7,0,0Z"/><path class="cls-64" d="M77.88,258.1c0,.7.56,1.26,1.26,1.26h9.75c.7,0,1.26-.56,1.26-1.26s-.56-1.26-1.26-1.26h-9.75c-.7,0-1.26.56-1.26,1.26,0,0,0-.7,0,0Z"/><path class="cls-21" d="M77.88,258.1c0,.7.56,1.26,1.26,1.26h9.75c.7,0,1.26-.56,1.26-1.26s-.56-1.26-1.26-1.26h-9.75c-.7,0-1.26.56-1.26,1.26,0,0,0-.7,0,0Z"/><line class="cls-26" x1="31.04" y1="129.8" x2="38.24" y2="129.8"/><line class="cls-26" x1="31.04" y1="202.37" x2="38.24" y2="202.37"/><line class="cls-26" x1="31.04" y1="274.95" x2="38.24" y2="274.95"/><line class="cls-26" x1="31.04" y1="347.52" x2="38.24" y2="347.52"/><line class="cls-26" x1="31.04" y1="420.09" x2="38.24" y2="420.09"/><line class="cls-26" x1="31.04" y1="492.67" x2="38.24" y2="492.67"/><line class="cls-26" x1="31.04" y1="565.24" x2="38.24" y2="565.24"/><line class="cls-26" x1="31.04" y1="637.81" x2="38.24" y2="637.81"/><line class="cls-26" x1="31.04" y1="57.23" x2="38.24" y2="57.23"/><line class="cls-26" x1="34.64" y1="166.09" x2="38.24" y2="166.09"/><line class="cls-26" x1="34.64" y1="238.66" x2="38.24" y2="238.66"/><line class="cls-26" x1="34.64" y1="311.23" x2="38.24" y2="311.23"/><line class="cls-26" x1="34.64" y1="383.81" x2="38.24" y2="383.81"/><line class="cls-26" x1="34.64" y1="456.38" x2="38.24" y2="456.38"/><line class="cls-26" x1="34.64" y1="528.95" x2="38.24" y2="528.95"/><line class="cls-26" x1="34.64" y1="601.53" x2="38.24" y2="601.53"/><line class="cls-26" x1="34.64" y1="93.51" x2="38.24" y2="93.51"/><polygon class="cls-16" points="91.78 125.04 87.82 127.52 91.78 130.01 91.78 125.04"/><polygon class="cls-19" points="91.78 155.99 87.82 158.47 91.78 160.96 91.78 155.99"/><polygon class="cls-16" points="91.78 176.53 87.82 179.02 91.78 181.5 91.78 176.53"/><polygon class="cls-16" points="91.78 257.61 87.82 260.09 91.78 262.57 91.78 257.61"/><polygon class="cls-16" points="91.78 281.3 87.82 283.78 91.78 286.26 91.78 281.3"/><polygon class="cls-19" points="91.78 301.57 87.82 304.05 91.78 306.53 91.78 301.57"/><polygon class="cls-16" points="91.78 336.76 87.82 339.25 91.78 341.73 91.78 336.76"/><polygon class="cls-16" points="91.78 372.51 87.82 374.99 91.78 377.47 91.78 372.51"/><polygon class="cls-19" points="91.78 470.29 87.82 472.77 91.78 475.25 91.78 470.29"/><polygon class="cls-16" points="91.78 489.73 87.82 492.22 91.78 494.7 91.78 489.73"/><polygon class="cls-16" points="91.78 513.29 87.82 515.77 91.78 518.25 91.78 513.29"/><polygon class="cls-16" points="91.78 527.67 87.82 530.15 91.78 532.63 91.78 527.67"/><polygon class="cls-19" points="91.78 557.11 87.82 559.59 91.78 562.08 91.78 557.11"/><text class="cls-12" transform="translate(112.5 632.05) scale(.89 1)"><tspan class="cls-13"><tspan x="0" y="0">HOLE DEPTH</tspan></tspan><tspan class="cls-53"><tspan x="0" y="6">818 ft</tspan></tspan></text></g></g><g id="Explanation"><text class="cls-7" transform="translate(134.16 104.68)"><tspan x="0" y="0">EXPLAN</tspan><tspan class="cls-57" x="32.45" y="0">A</tspan><tspan x="37.63" y="0">TION</tspan></text><text class="cls-5" transform="translate(127.83 120.81)"><tspan x="0" y="0">Lithology</tspan></text><text class="cls-8" transform="translate(151.46 175.96)"><tspan class="cls-86" x="0" y="0">Se</tspan><tspan class="cls-101" x="8.82" y="0">d</tspan><tspan class="cls-28" x="12.79" y="0">i</tspan><tspan class="cls-87" x="14.44" y="0">m</tspan><tspan class="cls-68" x="20.4" y="0">e</tspan><tspan class="cls-85" x="24.4" y="0">n</tspan><tspan class="cls-69" x="28.34" y="0">t</tspan></text><text class="cls-8" transform="translate(151.46 136.8)"><tspan class="cls-30" x="0" y="0">D</tspan><tspan class="cls-97" x="5.21" y="0">e</tspan><tspan class="cls-51" x="9.21" y="0">n</tspan><tspan class="cls-97" x="13.2" y="0">s</tspan><tspan class="cls-77" x="16.81" y="0">e </tspan><tspan class="cls-47" x="22.65" y="0">ba</tspan><tspan class="cls-105" x="30.62" y="0">s</tspan><tspan class="cls-72" x="34.25" y="0">a</tspan><tspan class="cls-94" x="38.25" y="0">l</tspan><tspan class="cls-69" x="39.89" y="0">t</tspan></text><rect class="cls-34" x="135.03" y="127.47" width="12.8" height="13.62"/><text class="cls-8" transform="translate(151.46 156.38)"><tspan class="cls-60" x="0" y="0">F</tspan><tspan class="cls-86" x="4.17" y="0">r</tspan><tspan class="cls-62" x="6.63" y="0">a</tspan><tspan class="cls-40" x="10.6" y="0">c</tspan><tspan class="cls-56" x="14.27" y="0">t</tspan><tspan class="cls-94" x="16.32" y="0">u</tspan><tspan class="cls-61" x="20.3" y="0">r</tspan><tspan class="cls-15" x="22.74" y="0">e</tspan><tspan class="cls-77" x="26.76" y="0">d </tspan><tspan class="cls-14" x="32.6" y="0">ba</tspan><tspan class="cls-105" x="40.58" y="0">s</tspan><tspan class="cls-29" x="44.21" y="0">a</tspan><tspan class="cls-44" x="48.2" y="0">l</tspan><tspan class="cls-69" x="49.84" y="0">t</tspan></text><rect class="cls-35" x="135.03" y="147.05" width="12.8" height="13.62"/><rect class="cls-36" x="135.03" y="166.63" width="12.8" height="13.62"/><line class="cls-17" x1="145.97" y1="231.31" x2="163.89" y2="231.31"/><text class="cls-5" transform="translate(127.83 196.56)"><tspan x="0" y="0">Completion</tspan></text><line class="cls-17" x1="163.89" y1="244.23" x2="160.3" y2="244.23"/><polyline class="cls-17" points="163.89 256.7 158.64 256.7 134.68 249.75"/><polygon class="cls-23" points="150.25 241.97 146.6 244.34 150.25 246.72 150.25 241.97"/><polyline class="cls-18" points="135.45 287.35 133.29 287.35 133.29 232.69 135.45 232.69"/><text class="cls-4" transform="translate(152.35 246.43) scale(.89 1)"><tspan x="0" y="0">P2</tspan></text><text class="cls-4" transform="translate(125.67 250.93) scale(.89 1)"><tspan x="0" y="0">Z1</tspan></text><text class="cls-10" transform="translate(125.67 250.93) scale(.89 1)"><tspan x="0" y="0">Z1</tspan></text><line class="cls-17" x1="145.97" y1="218.82" x2="163.89" y2="218.82"/><line class="cls-17" x1="150.59" y1="207.2" x2="163.89" y2="207.2"/><text class="cls-8" transform="translate(165.88 234.1)"><tspan class="cls-98" x="0" y="0">P</tspan><tspan class="cls-62" x="4.7" y="0">a</tspan><tspan class="cls-1" x="8.68" y="0">c</tspan><tspan class="cls-100" x="12.34" y="0">k</tspan><tspan class="cls-84" x="15.8" y="0">e</tspan><tspan x="19.81" y="0">r</tspan></text><text class="cls-8" transform="translate(165.88 246.67)"><tspan class="cls-39" x="0" y="0">M</tspan><tspan class="cls-68" x="6.01" y="0">e</tspan><tspan class="cls-91" x="10.02" y="0">a</tspan><tspan class="cls-67" x="14" y="0">s</tspan><tspan class="cls-94" x="17.58" y="0">u</tspan><tspan class="cls-61" x="21.57" y="0">r</tspan><tspan class="cls-68" x="24" y="0">e</tspan><tspan class="cls-87" x="28.01" y="0">m</tspan><tspan class="cls-68" x="33.96" y="0">e</tspan><tspan class="cls-85" x="37.96" y="0">n</tspan><tspan class="cls-69" x="41.91" y="0">t </tspan><tspan class="cls-76" x="45.8" y="0">p</tspan><tspan class="cls-105" x="49.83" y="0">o</tspan><tspan class="cls-74" x="53.85" y="0">r</tspan><tspan x="56.54" y="0">t </tspan><tspan class="cls-58" x="60.43" y="0">nu</tspan><tspan class="cls-103" x="68.38" y="0">m</tspan><tspan class="cls-45" x="74.32" y="0">b</tspan><tspan class="cls-84" x="78.34" y="0">e</tspan><tspan x="82.35" y="0">r</tspan></text><text class="cls-8" transform="translate(165.88 259.24)"><tspan class="cls-82" x="0" y="0">M</tspan><tspan class="cls-15" x="6.02" y="0">o</tspan><tspan class="cls-44" x="10.04" y="0">n</tspan><tspan class="cls-72" x="14.02" y="0">i</tspan><tspan class="cls-50" x="15.68" y="0">t</tspan><tspan class="cls-105" x="17.69" y="0">o</tspan><tspan class="cls-78" x="21.72" y="0">r</tspan><tspan class="cls-46" x="24.25" y="0">i</tspan><tspan class="cls-96" x="25.91" y="0">n</tspan><tspan x="29.91" y="0">g </tspan><tspan class="cls-90" x="35.75" y="0">z</tspan><tspan class="cls-86" x="39.31" y="0">o</tspan><tspan class="cls-103" x="43.33" y="0">n</tspan><tspan class="cls-77" x="47.33" y="0">e </tspan><tspan class="cls-67" x="53.17" y="0">nu</tspan><tspan class="cls-89" x="61.12" y="0">m</tspan><tspan class="cls-45" x="67.05" y="0">b</tspan><tspan class="cls-84" x="71.07" y="0">e</tspan><tspan x="75.08" y="0">r</tspan></text><text class="cls-8" transform="translate(165.88 221.53)"><tspan class="cls-52" x="0" y="0">M</tspan><tspan class="cls-91" x="5.99" y="0">ul</tspan><tspan class="cls-3" x="11.62" y="0">t</tspan><tspan class="cls-28" x="13.7" y="0">i</tspan><tspan class="cls-76" x="15.36" y="0">p</tspan><tspan class="cls-105" x="19.39" y="0">o</tspan><tspan class="cls-74" x="23.41" y="0">r</tspan><tspan x="26.1" y="0">t </tspan><tspan class="cls-27" x="29.99" y="0">c</tspan><tspan class="cls-91" x="33.71" y="0">a</tspan><tspan class="cls-73" x="37.7" y="0">s</tspan><tspan class="cls-46" x="41.3" y="0">i</tspan><tspan class="cls-68" x="42.95" y="0">n</tspan><tspan x="46.96" y="0">g</tspan></text><text class="cls-8" transform="translate(165.88 271.81)"><tspan class="cls-54" x="0" y="0">S</tspan><tspan class="cls-63" x="4.79" y="0">a</tspan><tspan class="cls-103" x="8.79" y="0">m</tspan><tspan class="cls-87" x="14.72" y="0">pl</tspan><tspan x="20.41" y="0">e </tspan><tspan class="cls-80" x="26.25" y="0">c</tspan><tspan class="cls-105" x="29.97" y="0">o</tspan><tspan class="cls-14" x="33.99" y="0">l</tspan><tspan class="cls-99" x="35.64" y="0">l</tspan><tspan class="cls-93" x="37.32" y="0">e</tspan><tspan class="cls-40" x="41.33" y="0">c</tspan><tspan class="cls-3" x="45.01" y="0">ti</tspan><tspan class="cls-86" x="48.78" y="0">o</tspan><tspan x="52.8" y="0">n </tspan><tspan class="cls-49" x="58.64" y="0">a</tspan><tspan x="62.59" y="0">t </tspan><tspan class="cls-76" x="66.48" y="0">p</tspan><tspan class="cls-66" x="70.51" y="0">o</tspan><tspan class="cls-81" x="74.54" y="0">r</tspan><tspan class="cls-77" x="77.23" y="0">t</tspan></text><text class="cls-8" transform="translate(165.88 208.96)"><tspan class="cls-71" x="0" y="0">W</tspan><tspan class="cls-45" x="6.58" y="0">e</tspan><tspan class="cls-14" x="10.59" y="0">l</tspan><tspan class="cls-77" x="12.24" y="0">l </tspan><tspan class="cls-27" x="15.74" y="0">c</tspan><tspan class="cls-51" x="19.46" y="0">a</tspan><tspan class="cls-48" x="23.45" y="0">si</tspan><tspan class="cls-96" x="28.71" y="0">n</tspan><tspan x="32.71" y="0">g</tspan></text><line class="cls-38" x1="135.23" y1="202.46" x2="135.23" y2="214.96"/><line class="cls-38" x1="149.72" y1="202.46" x2="149.72" y2="214.96"/><rect x="138.94" y="280.41" width="7.09" height="2.65"/><line class="cls-37" x1="146.03" y1="282.57" x2="145.92" y2="202.46"/><line class="cls-37" x1="138.82" y1="202.46" x2="138.94" y2="282.57"/><path class="cls-64" d="M136.34,231.31c0,.76.62,1.38,1.38,1.38h9.52c.76,0,1.38-.62,1.38-1.38s-.62-1.38-1.38-1.38h-9.52c-.76,0-1.38.62-1.38,1.38,0,0,0-.76,0,0Z"/><path class="cls-22" d="M136.34,231.31c0,.76.62,1.38,1.38,1.38h9.52c.76,0,1.38-.62,1.38-1.38s-.62-1.38-1.38-1.38h-9.52c-.76,0-1.38.62-1.38,1.38,0,0,0-.76,0,0Z"/><text class="cls-5" transform="translate(127.83 303.87)"><tspan x="0" y="0">Borehole</tspan></text><line class="cls-31" x1="147.83" y1="335.05" x2="139.74" y2="343.14"/><line class="cls-31" x1="147.83" y1="340.27" x2="144.96" y2="343.14"/><line class="cls-31" x1="142.92" y1="329.52" x2="135.03" y2="337.41"/><line class="cls-31" x1="147.83" y1="329.83" x2="135.03" y2="342.63"/><line class="cls-31" x1="137.7" y1="329.52" x2="135.03" y2="332.19"/><rect class="cls-24" x="135.03" y="329.52" width="12.8" height="13.62"/><text class="cls-8" transform="translate(151.46 338.2)"><tspan class="cls-76" x="0" y="0">B</tspan><tspan class="cls-45" x="4.81" y="0">el</tspan><tspan class="cls-79" x="10.5" y="0">o</tspan><tspan class="cls-77" x="14.47" y="0">w </tspan><tspan class="cls-95" x="21.47" y="0">h</tspan><tspan class="cls-105" x="25.48" y="0">o</tspan><tspan class="cls-99" x="29.51" y="0">l</tspan><tspan class="cls-77" x="31.18" y="0">e </tspan><tspan class="cls-61" x="37.02" y="0">d</tspan><tspan class="cls-97" x="41.01" y="0">e</tspan><tspan class="cls-92" x="45.02" y="0">p</tspan><tspan class="cls-70" x="48.97" y="0">t</tspan><tspan x="51.05" y="0">h</tspan></text><polygon class="cls-59" points="138.4 312.05 141.43 314.9 144.45 312.05 138.4 312.05"/><line class="cls-26" x1="135.03" y1="315.28" x2="136.03" y2="315.28"/><line class="cls-25" x1="138.19" y1="315.28" x2="145.75" y2="315.28"/><line class="cls-26" x1="146.83" y1="315.28" x2="147.83" y2="315.28"/><text class="cls-8" transform="translate(151.46 316.53)"><tspan class="cls-71" x="0" y="0">W</tspan><tspan class="cls-49" x="6.58" y="0">at</tspan><tspan class="cls-84" x="12.54" y="0">e</tspan><tspan x="16.55" y="0">r </tspan><tspan class="cls-99" x="20.83" y="0">l</tspan><tspan class="cls-77" x="22.5" y="0">e</tspan><tspan class="cls-65" x="26.39" y="0">v</tspan><tspan class="cls-54" x="29.9" y="0">e</tspan><tspan x="33.92" y="0">l </tspan><tspan class="cls-87" x="37.42" y="0">m</tspan><tspan class="cls-96" x="43.37" y="0">e</tspan><tspan class="cls-51" x="47.37" y="0">a</tspan><tspan class="cls-67" x="51.36" y="0">s</tspan><tspan class="cls-94" x="54.94" y="0">u</tspan><tspan class="cls-61" x="58.93" y="0">r</tspan><tspan class="cls-15" x="61.36" y="0">e</tspan><tspan x="65.38" y="0">d</tspan><tspan class="cls-83" x="0" y="8.4">o</tspan><tspan class="cls-102" x="4.01" y="8.4">u</tspan><tspan class="cls-88" x="7.99" y="8.4">t</tspan><tspan class="cls-73" x="10.08" y="8.4">s</tspan><tspan class="cls-3" x="13.68" y="8.4">i</tspan><tspan class="cls-61" x="15.37" y="8.4">d</tspan><tspan x="19.37" y="8.4">e </tspan><tspan class="cls-14" x="25.21" y="8.4">mul</tspan><tspan class="cls-3" x="36.77" y="8.4">t</tspan><tspan class="cls-46" x="38.85" y="8.4">i</tspan><tspan class="cls-76" x="40.5" y="8.4">p</tspan><tspan class="cls-66" x="44.53" y="8.4">o</tspan><tspan class="cls-81" x="48.56" y="8.4">r</tspan><tspan class="cls-77" x="51.25" y="8.4">t </tspan><tspan class="cls-27" x="55.13" y="8.4">c</tspan><tspan class="cls-51" x="58.86" y="8.4">a</tspan><tspan class="cls-48" x="62.84" y="8.4">si</tspan><tspan class="cls-96" x="68.1" y="8.4">n</tspan><tspan x="72.1" y="8.4">g</tspan></text><text class="cls-8" transform="translate(165.88 284.38)"><tspan class="cls-52" x="0" y="0">M</tspan><tspan class="cls-91" x="5.99" y="0">ul</tspan><tspan class="cls-3" x="11.62" y="0">t</tspan><tspan class="cls-28" x="13.7" y="0">i</tspan><tspan class="cls-76" x="15.36" y="0">p</tspan><tspan class="cls-105" x="19.39" y="0">o</tspan><tspan class="cls-74" x="23.41" y="0">r</tspan><tspan class="cls-47" x="26.1" y="0">t</tspan><tspan class="cls-75" x="28.14" y="0">-</tspan><tspan class="cls-27" x="30.79" y="0">c</tspan><tspan class="cls-94" x="34.51" y="0">a</tspan><tspan class="cls-73" x="38.49" y="0">s</tspan><tspan class="cls-46" x="42.1" y="0">i</tspan><tspan class="cls-96" x="43.75" y="0">n</tspan><tspan class="cls-77" x="47.75" y="0">g </tspan><tspan class="cls-97" x="53.59" y="0">en</tspan><tspan class="cls-77" x="61.6" y="0">d </tspan><tspan class="cls-27" x="67.44" y="0">c</tspan><tspan class="cls-46" x="71.16" y="0">a</tspan><tspan x="75.15" y="0">p</tspan></text><line class="cls-17" x1="145.97" y1="281.92" x2="163.89" y2="281.92"/><line class="cls-17" x1="163.89" y1="269.35" x2="152.3" y2="269.35"/><polygon class="cls-20" points="150.25 266.98 146.6 269.35 150.25 271.72 150.25 266.98"/></g><g id="Grid"><text class="cls-6" transform="translate(9.42 394.03) rotate(-90) scale(1.26 1)"><tspan x="0" y="0">Depth, in feet below land surface</tspan></text><text class="cls-11" transform="translate(51.33 52.08) rotate(-90) scale(1.16 1)"><tspan x="0" y="0">LITHOLOGY</tspan></text><text class="cls-4" transform="translate(63.14 52.54) scale(.93 1)"><tspan x="0" y="0">Zone</tspan></text><text class="cls-4" transform="translate(94.11 52.54) scale(.93 1)"><tspan x="0" y="0">Port</tspan></text><polyline class="cls-26" points="38.23 57.23 108.44 57.23 38.23 57.23"/><line class="cls-26" x1="58" y1="6.97" x2="58" y2="637.82"/><polygon class="cls-26" points="108.44 637.82 108.44 6.97 38.23 6.97 38.23 6.97 38.23 637.82 108.44 637.82"/></g></svg>