<?xml version="1.0" encoding="UTF-8"?><svg xmlns="http://www.w3.org/2000/svg" viewBox="0 0 252 645"><defs><style>.cls-1{letter-spacing:.02em;}.cls-2,.cls-3,.cls-4,.cls-5,.cls-6,.cls-7,.cls-8,.cls-9,.cls-10,.cls-11,.cls-12{stroke-linejoin:round;}.cls-2,.cls-3,.cls-4,.cls-5,.cls-7,.cls-9,.cls-10,.cls-11,.cls-12{stroke-linecap:round;}.cls-2,.cls-4,.cls-13,.cls-7,.cls-9,.cls-14,.cls-10,.cls-11,.cls-15,.cls-12,.cls-16{stroke:#000;}.cls-2,.cls-13{fill:#bcbdc0;}.cls-2,.cls-7,.cls-17,.cls-12{stroke-width:.25px;}.cls-18{letter-spacing:-.04em;}.cls-19{letter-spacing:.02em;}.cls-20,.cls-21,.cls-22,.cls-23,.cls-24{fill:#231f20;}.cls-20,.cls-25,.cls-26,.cls-22,.cls-24,.cls-27,.cls-28{font-family:ArialMT, Arial;}.cls-20,.cls-25,.cls-26,.cls-27,.cls-29{font-size:6px;}.cls-30{letter-spacing:.01em;}.cls-21,.cls-23{font-family:Arial-BoldMT, Arial;font-weight:700;}.cls-21,.cls-24{font-size:7px;}.cls-31{letter-spacing:.02em;}.cls-32{letter-spacing:.03em;}.cls-33{letter-spacing:.01em;}.cls-34{letter-spacing:.01em;}.cls-35{letter-spacing:.02em;}.cls-36,.cls-3,.cls-4,.cls-5,.cls-6,.cls-13,.cls-15,.cls-16{stroke-width:.35px;}.cls-36,.cls-3,.cls-4,.cls-5,.cls-6,.cls-8,.cls-37,.cls-9,.cls-14,.cls-10,.cls-11,.cls-38{fill:none;}.cls-36,.cls-3,.cls-39,.cls-8,.cls-37,.cls-40{stroke:#241f20;}.cls-36,.cls-13,.cls-14,.cls-15,.cls-16{stroke-miterlimit:90;}.cls-41{letter-spacing:.03em;}.cls-42{letter-spacing:.02em;}.cls-43{letter-spacing:.01em;}.cls-44{letter-spacing:.02em;}.cls-45{letter-spacing:.01em;}.cls-46{letter-spacing:.01em;}.cls-47{letter-spacing:-.07em;}.cls-48{letter-spacing:.01em;}.cls-49{letter-spacing:0em;}.cls-50{letter-spacing:0em;}.cls-25{fill:#212121;}.cls-5,.cls-6,.cls-38{stroke:#231f20;}.cls-51{letter-spacing:.01em;}.cls-52{letter-spacing:.01em;}.cls-26,.cls-28{fill:#241f20;}.cls-53{letter-spacing:.02em;}.cls-54{font-size:5px;}.cls-55{letter-spacing:.02em;}.cls-39{fill:red;}.cls-39,.cls-40{stroke-width:.53px;}.cls-56{letter-spacing:.01em;}.cls-57{letter-spacing:-.07em;}.cls-58{letter-spacing:.01em;}.cls-7,.cls-15{fill:#fbb041;}.cls-59{letter-spacing:-.02em;}.cls-8,.cls-37,.cls-14,.cls-10,.cls-11{stroke-width:.5px;}.cls-60{letter-spacing:.02em;}.cls-37{stroke-miterlimit:10;}.cls-61{letter-spacing:.01em;}.cls-62{letter-spacing:.01em;}.cls-63{fill:#1072ba;}.cls-64{letter-spacing:0em;}.cls-65{letter-spacing:.02em;}.cls-66{letter-spacing:.01em;}.cls-67{letter-spacing:.02em;}.cls-68{letter-spacing:0em;}.cls-69{letter-spacing:.02em;}.cls-70{letter-spacing:0em;}.cls-71{letter-spacing:.01em;}.cls-72{letter-spacing:.01em;}.cls-22,.cls-23{font-size:8px;}.cls-73{letter-spacing:.05em;}.cls-74{letter-spacing:.05em;}.cls-75{letter-spacing:.02em;}.cls-76{letter-spacing:0em;}.cls-77{letter-spacing:.03em;}.cls-10{stroke-dasharray:2.16 2.16;}.cls-78{letter-spacing:.01em;}.cls-79{letter-spacing:.03em;}.cls-80{letter-spacing:.05em;}.cls-81{letter-spacing:.03em;}.cls-82{letter-spacing:.02em;}.cls-83{letter-spacing:.02em;}.cls-84{letter-spacing:0em;}.cls-17{fill:#70cddd;stroke:#70cddd;}.cls-85{letter-spacing:.02em;}.cls-86{letter-spacing:-.07em;}.cls-87{letter-spacing:.02em;}.cls-88{letter-spacing:.02em;}.cls-89{letter-spacing:.02em;}.cls-90{letter-spacing:0em;}.cls-91{letter-spacing:.01em;}.cls-92{letter-spacing:0em;}.cls-93{letter-spacing:.02em;}.cls-38{stroke-width:2px;}.cls-94{letter-spacing:.01em;}.cls-12,.cls-16{fill:#f5eb12;}.cls-95{letter-spacing:.02em;}.cls-40{fill:#fff;}.cls-96{letter-spacing:.02em;}.cls-97{letter-spacing:.02em;}.cls-98{letter-spacing:0em;}.cls-99{letter-spacing:.02em;}.cls-100{letter-spacing:0em;}.cls-101{letter-spacing:.01em;}.cls-102{letter-spacing:.01em;}.cls-103{letter-spacing:.02em;}.cls-104{letter-spacing:-.07em;}.cls-105{letter-spacing:.02em;}</style></defs><g id="Completions"><g id="USGS_132"><text class="cls-20" transform="translate(67.23 25.97) scale(1.07 1)"><tspan x="0" y="0">USGS 132</tspan><tspan x="-3.67" y="7.01">MU</tspan><tspan class="cls-104" x="5.67" y="7.01">L</tspan><tspan x="8.56" y="7.01">TILEVE</tspan><tspan class="cls-18" x="29.23" y="7.01">L</tspan><tspan x="-5.49" y="14.01">COMPLETION</tspan></text><text class="cls-26" transform="translate(94.52 466.41) scale(.86 1)"><tspan x="0" y="0">P5</tspan></text><text class="cls-26" transform="translate(94.52 410.23) scale(.86 1)"><tspan x="0" y="0">P7</tspan></text><text class="cls-26" transform="translate(94.52 381.95) scale(.86 1)"><tspan x="0" y="0">P8</tspan></text><text class="cls-26" transform="translate(94.52 368.53) scale(.86 1)"><tspan x="0" y="0">P9</tspan></text><text class="cls-26" transform="translate(94.52 434.4) scale(.86 1)"><tspan x="0" y="0">P6</tspan></text><text class="cls-26" transform="translate(94.52 581.12) scale(.86 1)"><tspan x="0" y="0">P1</tspan></text><text class="cls-26" transform="translate(94.52 343.68) scale(.86 1)"><tspan x="0" y="0">P</tspan><tspan class="cls-86" x="4" y="0">1</tspan><tspan x="6.89" y="0">1</tspan></text><text class="cls-26" transform="translate(94.52 267.14) scale(.86 1)"><tspan x="0" y="0">P14</tspan></text><text class="cls-26" transform="translate(94.52 350.01) scale(.86 1)"><tspan x="0" y="0">P10</tspan></text><text class="cls-26" transform="translate(94.52 312.43) scale(.86 1)"><tspan x="0" y="0">P12</tspan></text><text class="cls-26" transform="translate(94.52 303.43) scale(.86 1)"><tspan x="0" y="0">P13</tspan></text><text class="cls-26" transform="translate(94.52 253.12) scale(.86 1)"><tspan x="0" y="0">P15</tspan></text><text class="cls-26" transform="translate(94.52 244.2) scale(.86 1)"><tspan x="0" y="0">P16</tspan></text><text class="cls-26" transform="translate(94.52 233.75) scale(.86 1)"><tspan x="0" y="0">P17</tspan></text><text class="cls-26" transform="translate(94.52 210.81) scale(.86 1)"><tspan x="0" y="0">P18</tspan></text><text class="cls-26" transform="translate(94.52 176.12) scale(.86 1)"><tspan x="0" y="0">P19</tspan></text><text class="cls-26" transform="translate(94.52 126.8) scale(.86 1)"><tspan x="0" y="0">P20</tspan></text><text class="cls-26" transform="translate(94.52 117.81) scale(.86 1)"><tspan x="0" y="0">P21</tspan></text><text class="cls-26" transform="translate(94.52 82.36) scale(.86 1)"><tspan x="0" y="0">P23</tspan></text><text class="cls-26" transform="translate(94.52 94.63) scale(.86 1)"><tspan x="0" y="0">P22</tspan></text><text class="cls-26" transform="translate(94.52 562.98) scale(.86 1)"><tspan x="0" y="0">P2</tspan></text><text class="cls-26" transform="translate(94.52 555.5) scale(.86 1)"><tspan x="0" y="0">P3</tspan></text><text class="cls-26" transform="translate(94.52 546.6) scale(.86 1)"><tspan x="0" y="0">P4</tspan></text><text class="cls-20" transform="translate(65.23 548.02) scale(.86 1)"><tspan x="0" y="0">Z3</tspan></text><text class="cls-26" transform="translate(65.23 548.02) scale(.86 1)"><tspan x="0" y="0">Z3</tspan></text><text class="cls-20" transform="translate(65.23 556.41) scale(.86 1)"><tspan x="0" y="0">Z2</tspan></text><text class="cls-26" transform="translate(65.23 556.41) scale(.86 1)"><tspan x="0" y="0">Z2</tspan></text><text class="cls-20" transform="translate(65.23 594) scale(.86 1)"><tspan x="0" y="0">Z1</tspan></text><text class="cls-26" transform="translate(65.23 594) scale(.86 1)"><tspan x="0" y="0">Z1</tspan></text><text class="cls-20" transform="translate(65.23 501.92) scale(.86 1)"><tspan x="0" y="0">Z4</tspan></text><text class="cls-26" transform="translate(65.23 501.92) scale(.86 1)"><tspan x="0" y="0">Z4</tspan></text><text class="cls-20" transform="translate(65.23 434.41) scale(.86 1)"><tspan x="0" y="0">Z5</tspan></text><text class="cls-26" transform="translate(65.23 434.41) scale(.86 1)"><tspan x="0" y="0">Z5</tspan></text><text class="cls-20" transform="translate(65.23 392.6) scale(.86 1)"><tspan x="0" y="0">Z6</tspan></text><text class="cls-26" transform="translate(65.23 392.6) scale(.86 1)"><tspan x="0" y="0">Z6</tspan></text><text class="cls-20" transform="translate(65.23 372.17) scale(.86 1)"><tspan x="0" y="0">Z7</tspan></text><text class="cls-26" transform="translate(65.23 372.17) scale(.86 1)"><tspan x="0" y="0">Z7</tspan></text><text class="cls-20" transform="translate(65.23 324.86) scale(.86 1)"><tspan x="0" y="0">Z9</tspan></text><text class="cls-26" transform="translate(65.23 324.86) scale(.86 1)"><tspan x="0" y="0">Z9</tspan></text><text class="cls-20" transform="translate(62.37 304.68) scale(.86 1)"><tspan x="0" y="0">Z10</tspan></text><text class="cls-26" transform="translate(62.37 304.68) scale(.86 1)"><tspan x="0" y="0">Z10</tspan></text><text class="cls-20" transform="translate(62.75 274.42) scale(.86 1)"><tspan x="0" y="0">Z</tspan><tspan class="cls-47" x="3.67" y="0">1</tspan><tspan class="cls-50" x="6.56" y="0">1</tspan></text><text class="cls-26" transform="translate(62.75 274.42) scale(.86 1)"><tspan x="0" y="0">Z</tspan><tspan class="cls-47" x="3.67" y="0">1</tspan><tspan class="cls-50" x="6.56" y="0">1</tspan></text><text class="cls-20" transform="translate(62.37 246.02) scale(.86 1)"><tspan x="0" y="0">Z12</tspan></text><text class="cls-26" transform="translate(62.37 246.02) scale(.86 1)"><tspan x="0" y="0">Z12</tspan></text><text class="cls-20" transform="translate(62.37 236.12) scale(.86 1)"><tspan x="0" y="0">Z13</tspan></text><text class="cls-26" transform="translate(62.37 236.12) scale(.86 1)"><tspan x="0" y="0">Z13</tspan></text><text class="cls-20" transform="translate(62.37 201.66) scale(.86 1)"><tspan x="0" y="0">Z14</tspan></text><text class="cls-26" transform="translate(62.37 201.66) scale(.86 1)"><tspan x="0" y="0">Z14</tspan></text><text class="cls-20" transform="translate(62.37 148.18) scale(.86 1)"><tspan x="0" y="0">Z15</tspan></text><text class="cls-26" transform="translate(62.37 148.18) scale(.86 1)"><tspan x="0" y="0">Z15</tspan></text><text class="cls-20" transform="translate(62.37 119.7) scale(.86 1)"><tspan x="0" y="0">Z16</tspan></text><text class="cls-26" transform="translate(62.37 119.7) scale(.86 1)"><tspan x="0" y="0">Z16</tspan></text><text class="cls-20" transform="translate(62.37 98.27) scale(.86 1)"><tspan x="0" y="0">Z17</tspan></text><text class="cls-26" transform="translate(62.37 98.27) scale(.86 1)"><tspan x="0" y="0">Z17</tspan></text><text class="cls-20" transform="translate(65.23 353.3) scale(.86 1)"><tspan x="0" y="0">Z8</tspan></text><text class="cls-26" transform="translate(65.23 353.3) scale(.86 1)"><tspan x="0" y="0">Z8</tspan></text><line class="cls-11" x1="31.04" y1="57.23" x2="38.24" y2="57.23"/><line class="cls-11" x1="31.04" y1="101.89" x2="38.24" y2="101.89"/><line class="cls-11" x1="31.04" y1="146.55" x2="38.24" y2="146.55"/><line class="cls-11" x1="31.04" y1="191.21" x2="38.24" y2="191.21"/><line class="cls-11" x1="31.04" y1="235.87" x2="38.24" y2="235.87"/><line class="cls-11" x1="31.04" y1="280.53" x2="38.24" y2="280.53"/><line class="cls-11" x1="31.04" y1="325.19" x2="38.24" y2="325.19"/><line class="cls-11" x1="31.04" y1="369.85" x2="38.24" y2="369.85"/><line class="cls-11" x1="31.04" y1="414.51" x2="38.24" y2="414.51"/><line class="cls-11" x1="31.04" y1="459.17" x2="38.24" y2="459.17"/><line class="cls-11" x1="31.04" y1="503.83" x2="38.24" y2="503.83"/><line class="cls-11" x1="31.04" y1="548.49" x2="38.24" y2="548.49"/><line class="cls-11" x1="31.04" y1="637.81" x2="38.24" y2="637.81"/><line class="cls-11" x1="31.04" y1="593.15" x2="38.24" y2="593.15"/><text class="cls-25" transform="translate(20.19 104.53) scale(.86 1)"><tspan x="0" y="0">650</tspan></text><text class="cls-25" transform="translate(20.19 149.14) scale(.86 1)"><tspan x="0" y="0">700</tspan></text><text class="cls-25" transform="translate(20.19 193.75) scale(.86 1)"><tspan x="0" y="0">750</tspan></text><text class="cls-25" transform="translate(20.19 238.35) scale(.86 1)"><tspan x="0" y="0">800</tspan></text><text class="cls-25" transform="translate(20.19 282.96) scale(.86 1)"><tspan x="0" y="0">850</tspan></text><text class="cls-25" transform="translate(20.19 327.57) scale(.86 1)"><tspan x="0" y="0">900</tspan></text><text class="cls-25" transform="translate(20.19 372.18) scale(.86 1)"><tspan x="0" y="0">950</tspan></text><text class="cls-25" transform="translate(15.9 416.78) scale(.86 1)"><tspan x="0" y="0">1,000</tspan></text><text class="cls-25" transform="translate(15.9 461.39) scale(.86 1)"><tspan x="0" y="0">1,050</tspan></text><text class="cls-25" transform="translate(15.9 506) scale(.86 1)"><tspan x="0" y="0">1,100</tspan></text><text class="cls-25" transform="translate(15.9 550.61) scale(.86 1)"><tspan x="0" y="0">1,150</tspan></text><text class="cls-25" transform="translate(15.9 595.22) scale(.86 1)"><tspan x="0" y="0">1,200</tspan></text><text class="cls-25" transform="translate(20.19 59.88) scale(.86 1)"><tspan x="0" y="0">600</tspan></text><text class="cls-25" transform="translate(15.9 637.72) scale(.86 1)"><tspan x="0" y="0">1,250</tspan></text><rect class="cls-2" x="41.73" y="57.75" width="12.8" height="24.6"/><rect class="cls-12" x="41.73" y="82.26" width="12.8" height="1.11"/><rect class="cls-2" x="41.73" y="83.34" width="12.8" height="6.33"/><rect class="cls-7" x="41.73" y="89.67" width="12.8" height="25.5"/><rect class="cls-2" x="41.73" y="115.17" width="12.8" height="10.92"/><rect class="cls-12" x="41.73" y="126.1" width="12.8" height="2.73"/><rect class="cls-7" x="41.73" y="128.83" width="12.8" height="36.43"/><rect class="cls-2" x="41.73" y="165.28" width="12.8" height="6.37"/><rect class="cls-7" x="41.73" y="171.65" width="12.8" height="10.01"/><rect class="cls-12" x="41.73" y="181.68" width="12.8" height="1.82"/><rect class="cls-7" x="41.73" y="183.5" width="12.8" height="45.55"/><rect class="cls-12" x="41.73" y="229.03" width="12.8" height="3.64"/><rect class="cls-7" x="41.73" y="232.69" width="12.8" height="52.83"/><rect class="cls-2" x="41.73" y="285.52" width="12.8" height="22.77"/><rect class="cls-7" x="41.73" y="308.29" width="12.8" height="22.78"/><rect class="cls-2" x="41.73" y="331.07" width="12.8" height="7.28"/><rect class="cls-7" x="41.73" y="338.35" width="12.8" height="6.37"/><rect class="cls-2" x="41.73" y="344.72" width="12.8" height="20.04"/><rect class="cls-7" x="41.73" y="364.77" width="12.8" height="34.61"/><rect class="cls-2" x="41.73" y="399.38" width="12.8" height="12.76"/><rect class="cls-7" x="41.73" y="412.14" width="12.8" height="6.37"/><rect class="cls-2" x="41.73" y="418.51" width="12.8" height="6.37"/><rect class="cls-7" x="41.73" y="424.88" width="12.8" height="22.78"/><rect class="cls-2" x="41.73" y="447.66" width="12.8" height="45.55"/><rect class="cls-7" x="41.73" y="493.21" width="12.8" height="25.5"/><rect class="cls-2" x="41.73" y="518.71" width="12.8" height="9.1"/><rect class="cls-7" x="41.73" y="527.81" width="12.8" height="14.58"/><rect class="cls-2" x="41.73" y="542.39" width="12.8" height="14.59"/><rect class="cls-7" x="41.73" y="556.98" width="12.8" height="7.28"/><rect class="cls-2" x="41.73" y="564.26" width="12.8" height="9.1"/><rect class="cls-7" x="41.73" y="573.36" width="12.8" height="11.83"/><rect class="cls-2" x="41.73" y="585.22" width="12.8" height="7.28"/><rect class="cls-7" x="41.73" y="592.5" width="12.8" height="34.61"/><polyline class="cls-5" points="75.8 559.8 73.64 559.8 73.64 559.9 73.64 561.55 73.64 562.4 73.64 563.24 73.64 564.74 73.64 566.67 73.64 572.09 73.64 573.62 73.64 576.33 73.64 582.2 73.64 584.41 73.64 584.8 73.64 585.6 73.64 588.11 73.64 588.39 73.64 590.72 73.64 597.04 73.64 598.35 73.64 599.47 73.64 599.56 73.64 601.2 73.64 601.48 73.64 601.62 73.64 604.42 73.64 607.03 73.64 611.84 73.64 613.76 73.64 615.19 73.64 615.57 73.64 618.58 73.64 627.1 75.8 627.1"/><polyline class="cls-5" points="75.8 556.92 73.64 556.92 73.64 554.65 73.64 552.33 75.8 552.33"/><polyline class="cls-5" points="75.8 549.44 73.64 549.44 73.64 549.21 73.64 546.55 73.64 543.42 75.8 543.42"/><polyline class="cls-5" points="75.8 540.54 73.64 540.54 73.64 538.18 73.64 536.54 73.64 534.52 73.64 533.46 73.64 533.26 73.64 531.97 73.64 531.02 73.64 529.68 73.64 527.31 73.64 524.43 73.64 521.94 73.64 517.33 73.64 515.25 73.64 513.05 73.64 512.88 73.64 512.84 73.64 510.5 73.64 509.64 73.64 507.78 73.64 506.2 73.64 504.74 73.64 504.69 73.64 504.2 73.64 503.29 73.64 503.23 73.64 501.39 73.64 499.22 73.64 491.62 73.64 488.98 73.64 474.19 73.64 473.39 73.64 472.11 73.64 471.62 73.64 471.16 73.64 469.67 73.64 463.23 75.8 463.23"/><polyline class="cls-5" points="75.8 407.05 73.64 407.05 73.64 408.76 73.64 411.61 73.64 416.97 73.64 417.63 73.64 419.23 73.64 419.39 73.64 420.53 73.64 421.34 73.64 423.09 73.64 424.53 73.64 425.04 73.64 427.5 73.64 440.07 73.64 440.86 73.64 443.05 73.64 443.6 73.64 447.38 73.64 451.15 73.64 458.43 73.64 458.85 73.64 459.61 73.64 460.34 75.8 460.34"/><polyline class="cls-5" points="75.8 404.16 73.64 404.16 73.64 402.29 73.64 395.49 73.64 393.43 73.64 392.74 73.64 390.51 73.64 386.48 73.64 385.65 73.64 384.35 73.64 382.66 73.64 381.79 73.64 381.37 73.64 380.36 73.64 378.76 75.8 378.76"/><polyline class="cls-6" points="75.8 365.35 73.64 365.35 73.64 369.55 73.64 371.18 73.64 372.33 73.64 374.47 73.64 376.05 75.8 376.05"/><polyline class="cls-6" points="75.8 340.5 73.64 340.5 73.64 341.85 73.64 344.77 73.64 349.28 73.64 350.55 73.64 352.2 73.64 352.6 73.64 353.88 73.64 354.49 73.64 362.46 75.8 362.46"/><polyline class="cls-6" points="75.8 309.24 73.64 309.24 73.64 311.59 73.64 313.88 73.64 317.21 73.64 318.37 73.64 318.56 73.64 319.57 73.64 320.6 73.64 321.8 73.64 322.06 73.64 322.16 73.64 324.86 73.64 325.71 73.64 329.87 73.64 330.87 73.64 332.39 73.64 333.68 73.64 336.65 73.64 337.61 75.8 337.61"/><polyline class="cls-6" points="75.8 249.93 73.64 249.93 73.64 249.98 73.64 255.07 73.64 257.03 73.64 257.65 73.64 257.67 73.64 259.55 73.64 261.04 73.64 263.39 73.64 265.13 73.64 266.32 73.64 269.3 73.64 271.36 73.64 271.59 73.64 274.02 73.64 274.44 73.64 274.54 73.64 274.88 73.64 275.63 73.64 277.11 73.64 277.93 73.64 278.71 73.64 279.39 73.64 280.85 73.64 281.2 73.64 283.35 73.64 288.76 73.64 291.96 73.64 295.76 73.64 297.36 75.8 297.36"/><polyline class="cls-6" points="75.8 172.94 73.64 172.94 73.64 173.35 73.64 174.7 73.64 175.83 73.64 176.55 73.64 178.24 73.64 182.22 73.64 183.2 73.64 184.23 73.64 185.04 73.64 185.77 73.64 188.63 73.64 199.45 73.64 200.84 73.64 202.2 73.64 204.86 73.64 212.34 73.64 215.35 73.64 216.13 73.64 218.72 73.64 218.9 73.64 219.93 73.64 220.85 73.64 221.4 73.64 223.35 73.64 223.75 73.64 227.68 75.8 227.68"/><polyline class="cls-6" points="75.8 123.62 73.64 123.62 73.64 125.65 73.64 126.9 73.64 128.53 73.64 130.34 73.64 132.32 73.64 132.77 73.64 134.07 73.64 135.25 73.64 136.81 73.64 141.57 73.64 144.17 73.64 145.61 73.64 148.59 73.64 159.81 73.64 161.73 73.64 161.83 73.64 162.82 73.64 163.16 73.64 164.93 73.64 170.05 75.8 170.05"/><polyline class="cls-6" points="75.8 79.17 73.64 79.17 73.64 89.32 73.64 94.53 73.64 95.45 73.64 97.55 73.64 97.95 73.64 108.37 73.64 111.02 73.64 111.74 75.8 111.74"/><polyline class="cls-6" points="75.8 114.62 73.64 114.62 73.64 120.73 75.8 120.73"/><polyline class="cls-6" points="75.8 241.01 73.64 241.01 73.64 242.47 73.64 245 73.64 245.58 73.64 247.05 75.8 247.05"/><polyline class="cls-6" points="75.8 230.57 73.64 230.57 73.64 231.91 73.64 232.01 73.64 232.28 73.64 235.01 73.64 235.52 73.64 238.13 75.8 238.13"/><polyline class="cls-6" points="75.8 300.25 73.64 300.25 73.64 302 73.64 302.11 73.64 304.35 73.64 306.36 75.8 306.36"/><line class="cls-9" x1="87.44" y1="616.2" x2="87.44" y2="57.75"/><line class="cls-9" x1="80.23" y1="57.75" x2="80.23" y2="616.2"/><rect x="79.96" y="613.41" width="7.34" height="3.26"/><path class="cls-63" d="M77.88,558.36c0,.8.64,1.44,1.44,1.44h9.39c.8,0,1.44-.64,1.44-1.44s-.64-1.44-1.44-1.44h-9.39c-.8,0-1.44.64-1.44,1.44,0,0,0-.8,0,0Z"/><path class="cls-8" d="M77.88,558.36c0,.8.64,1.44,1.44,1.44h9.39c.8,0,1.44-.64,1.44-1.44s-.64-1.44-1.44-1.44h-9.39c-.8,0-1.44.64-1.44,1.44,0,0,0-.8,0,0Z"/><path class="cls-63" d="M77.88,550.88c0,.8.65,1.44,1.44,1.44h9.38c.8,0,1.44-.65,1.44-1.44s-.65-1.44-1.44-1.44h-9.38c-.8,0-1.44.65-1.44,1.44,0,0,0-.8,0,0Z"/><path class="cls-8" d="M77.88,550.88c0,.8.65,1.44,1.44,1.44h9.38c.8,0,1.44-.65,1.44-1.44s-.65-1.44-1.44-1.44h-9.38c-.8,0-1.44.65-1.44,1.44,0,0,0-.8,0,0Z"/><path class="cls-63" d="M77.88,541.98c0,.8.64,1.44,1.44,1.44h9.39c.8,0,1.44-.64,1.44-1.44s-.64-1.44-1.44-1.44h-9.39c-.8,0-1.44.64-1.44,1.44,0,0,0-.8,0,0Z"/><path class="cls-8" d="M77.88,541.98c0,.8.64,1.44,1.44,1.44h9.39c.8,0,1.44-.64,1.44-1.44s-.64-1.44-1.44-1.44h-9.39c-.8,0-1.44.64-1.44,1.44,0,0,0-.8,0,0Z"/><path class="cls-63" d="M77.88,461.78c0,.8.65,1.45,1.45,1.45h9.38c.8,0,1.45-.65,1.45-1.45s-.65-1.45-1.45-1.45h-9.38c-.8,0-1.45.65-1.45,1.45,0,0,0-.8,0,0Z"/><path class="cls-8" d="M77.88,461.78c0,.8.65,1.45,1.45,1.45h9.38c.8,0,1.45-.65,1.45-1.45s-.65-1.45-1.45-1.45h-9.38c-.8,0-1.45.65-1.45,1.45,0,0,0-.8,0,0Z"/><path class="cls-63" d="M77.88,405.6c0,.8.65,1.45,1.45,1.45h9.38c.8,0,1.45-.65,1.45-1.45s-.65-1.45-1.45-1.45h-9.38c-.8,0-1.45.65-1.45,1.45,0,0,0-.8,0,0Z"/><path class="cls-8" d="M77.88,405.6c0,.8.65,1.45,1.45,1.45h9.38c.8,0,1.45-.65,1.45-1.45s-.65-1.45-1.45-1.45h-9.38c-.8,0-1.45.65-1.45,1.45,0,0,0-.8,0,0Z"/><path class="cls-63" d="M77.88,377.32c0,.8.64,1.44,1.44,1.44h9.39c.8,0,1.44-.64,1.44-1.44s-.64-1.44-1.44-1.44h-9.39c-.8,0-1.44.64-1.44,1.44,0,0,0-.8,0,0Z"/><path class="cls-8" d="M77.88,377.32c0,.8.64,1.44,1.44,1.44h9.39c.8,0,1.44-.64,1.44-1.44s-.64-1.44-1.44-1.44h-9.39c-.8,0-1.44.64-1.44,1.44,0,0,0-.8,0,0Z"/><path class="cls-63" d="M77.88,363.9c0,.8.65,1.45,1.45,1.45h9.38c.8,0,1.45-.65,1.45-1.45s-.65-1.45-1.45-1.45h-9.38c-.8,0-1.45.65-1.45,1.45,0,0,0-.8,0,0Z"/><path class="cls-8" d="M77.88,363.9c0,.8.65,1.45,1.45,1.45h9.38c.8,0,1.45-.65,1.45-1.45s-.65-1.45-1.45-1.45h-9.38c-.8,0-1.45.65-1.45,1.45,0,0,0-.8,0,0Z"/><path class="cls-63" d="M77.88,339.05c0,.8.65,1.45,1.45,1.45h9.38c.8,0,1.45-.65,1.45-1.45s-.65-1.45-1.45-1.45h-9.38c-.8,0-1.45.65-1.45,1.45,0,0,0-.8,0,0Z"/><path class="cls-8" d="M77.88,339.05c0,.8.65,1.45,1.45,1.45h9.38c.8,0,1.45-.65,1.45-1.45s-.65-1.45-1.45-1.45h-9.38c-.8,0-1.45.65-1.45,1.45,0,0,0-.8,0,0Z"/><path class="cls-63" d="M77.88,307.8c0,.8.64,1.44,1.44,1.44h9.39c.8,0,1.44-.64,1.44-1.44s-.64-1.44-1.44-1.44h-9.39c-.8,0-1.44.64-1.44,1.44,0,0,0-.8,0,0Z"/><path class="cls-8" d="M77.88,307.8c0,.8.64,1.44,1.44,1.44h9.39c.8,0,1.44-.64,1.44-1.44s-.64-1.44-1.44-1.44h-9.39c-.8,0-1.44.64-1.44,1.44,0,0,0-.8,0,0Z"/><path class="cls-63" d="M77.88,298.8c0,.8.65,1.45,1.45,1.45h9.38c.8,0,1.45-.65,1.45-1.45s-.65-1.45-1.45-1.45h-9.38c-.8,0-1.45.65-1.45,1.45,0,0,0-.8,0,0Z"/><path class="cls-8" d="M77.88,298.8c0,.8.65,1.45,1.45,1.45h9.38c.8,0,1.45-.65,1.45-1.45s-.65-1.45-1.45-1.45h-9.38c-.8,0-1.45.65-1.45,1.45,0,0,0-.8,0,0Z"/><path class="cls-63" d="M77.88,248.49c0,.8.64,1.44,1.44,1.44h9.39c.8,0,1.44-.64,1.44-1.44s-.64-1.44-1.44-1.44h-9.39c-.8,0-1.44.64-1.44,1.44,0,0,0-.8,0,0Z"/><path class="cls-8" d="M77.88,248.49c0,.8.64,1.44,1.44,1.44h9.39c.8,0,1.44-.64,1.44-1.44s-.64-1.44-1.44-1.44h-9.39c-.8,0-1.44.64-1.44,1.44,0,0,0-.8,0,0Z"/><path class="cls-63" d="M77.88,239.57c0,.8.64,1.44,1.44,1.44h9.39c.8,0,1.44-.64,1.44-1.44s-.64-1.44-1.44-1.44h-9.39c-.8,0-1.44.64-1.44,1.44,0,0,0-.8,0,0Z"/><path class="cls-8" d="M77.88,239.57c0,.8.64,1.44,1.44,1.44h9.39c.8,0,1.44-.64,1.44-1.44s-.64-1.44-1.44-1.44h-9.39c-.8,0-1.44.64-1.44,1.44,0,0,0-.8,0,0Z"/><path class="cls-63" d="M77.88,229.12c0,.8.65,1.45,1.45,1.45h9.38c.8,0,1.45-.65,1.45-1.45s-.65-1.45-1.45-1.45h-9.38c-.8,0-1.45.65-1.45,1.45,0,0,0-.8,0,0Z"/><path class="cls-8" d="M77.88,229.12c0,.8.65,1.45,1.45,1.45h9.38c.8,0,1.45-.65,1.45-1.45s-.65-1.45-1.45-1.45h-9.38c-.8,0-1.45.65-1.45,1.45,0,0,0-.8,0,0Z"/><path class="cls-63" d="M77.88,171.49c0,.8.65,1.45,1.45,1.45h9.38c.8,0,1.45-.65,1.45-1.45s-.65-1.45-1.45-1.45h-9.38c-.8,0-1.45.65-1.45,1.45,0,0,0-.8,0,0Z"/><path class="cls-8" d="M77.88,171.49c0,.8.65,1.45,1.45,1.45h9.38c.8,0,1.45-.65,1.45-1.45s-.65-1.45-1.45-1.45h-9.38c-.8,0-1.45.65-1.45,1.45,0,0,0-.8,0,0Z"/><path class="cls-63" d="M77.88,122.17c0,.8.65,1.45,1.45,1.45h9.38c.8,0,1.45-.65,1.45-1.45s-.65-1.45-1.45-1.45h-9.38c-.8,0-1.45.65-1.45,1.45,0,0,0-.8,0,0Z"/><path class="cls-8" d="M77.88,122.17c0,.8.65,1.45,1.45,1.45h9.38c.8,0,1.45-.65,1.45-1.45s-.65-1.45-1.45-1.45h-9.38c-.8,0-1.45.65-1.45,1.45,0,0,0-.8,0,0Z"/><path class="cls-63" d="M77.88,113.18c0,.8.64,1.44,1.44,1.44h9.39c.8,0,1.44-.64,1.44-1.44s-.64-1.44-1.44-1.44h-9.39c-.8,0-1.44.64-1.44,1.44,0,0,0-.8,0,0Z"/><path class="cls-8" d="M77.88,113.18c0,.8.64,1.44,1.44,1.44h9.39c.8,0,1.44-.64,1.44-1.44s-.64-1.44-1.44-1.44h-9.39c-.8,0-1.44.64-1.44,1.44,0,0,0-.8,0,0Z"/><path class="cls-63" d="M77.88,77.73c0,.8.64,1.44,1.44,1.44h9.39c.8,0,1.44-.64,1.44-1.44s-.64-1.44-1.44-1.44h-9.39c-.8,0-1.44.64-1.44,1.44,0,0,0-.8,0,0Z"/><path class="cls-8" d="M77.88,77.73c0,.8.64,1.44,1.44,1.44h9.39c.8,0,1.44-.64,1.44-1.44s-.64-1.44-1.44-1.44h-9.39c-.8,0-1.44.64-1.44,1.44,0,0,0-.8,0,0Z"/><polygon class="cls-40" points="91.47 77.48 87.82 79.85 91.47 82.22 91.47 77.48"/><polygon class="cls-39" points="91.47 89.75 87.82 92.13 91.47 94.5 91.47 89.75"/><polygon class="cls-40" points="91.47 112.92 87.82 115.3 91.47 117.67 91.47 112.92"/><polygon class="cls-40" points="91.47 121.92 87.82 124.29 91.47 126.67 91.47 121.92"/><polygon class="cls-40" points="91.47 171.24 87.82 173.62 91.47 175.99 91.47 171.24"/><polygon class="cls-39" points="91.47 205.93 87.82 208.3 91.47 210.68 91.47 205.93"/><polygon class="cls-40" points="91.47 228.87 87.82 231.25 91.47 233.62 91.47 228.87"/><polygon class="cls-40" points="91.47 239.32 87.82 241.69 91.47 244.06 91.47 239.32"/><polygon class="cls-40" points="91.47 248.24 87.82 250.61 91.47 252.98 91.47 248.24"/><polygon class="cls-39" points="91.47 262.26 87.82 264.64 91.47 267.01 91.47 262.26"/><polygon class="cls-40" points="91.47 298.55 87.82 300.93 91.47 303.3 91.47 298.55"/><polygon class="cls-40" points="91.47 307.55 87.82 309.92 91.47 312.29 91.47 307.55"/><polygon class="cls-40" points="91.47 338.8 87.82 341.18 91.47 343.55 91.47 338.8"/><polygon class="cls-39" points="91.47 345.13 87.82 347.5 91.47 349.88 91.47 345.13"/><polygon class="cls-40" points="91.47 363.65 87.82 366.03 91.47 368.4 91.47 363.65"/><polygon class="cls-40" points="91.47 377.07 87.82 379.44 91.47 381.82 91.47 377.07"/><polygon class="cls-40" points="91.47 405.35 87.82 407.73 91.47 410.1 91.47 405.35"/><polygon class="cls-39" points="91.47 429.52 87.82 431.89 91.47 434.26 91.47 429.52"/><polygon class="cls-40" points="91.47 461.53 87.82 463.91 91.47 466.28 91.47 461.53"/><polygon class="cls-40" points="91.47 541.73 87.82 544.1 91.47 546.48 91.47 541.73"/><polygon class="cls-40" points="91.47 550.63 87.82 553.01 91.47 555.38 91.47 550.63"/><polygon class="cls-40" points="91.47 558.1 87.82 560.48 91.47 562.85 91.47 558.1"/><polygon class="cls-39" points="91.47 576.39 87.82 578.76 91.47 581.14 91.47 576.39"/><text class="cls-28" transform="translate(112.5 623.05) scale(.89 1)"><tspan class="cls-29"><tspan x="0" y="0">HOLE DEPTH</tspan></tspan><tspan class="cls-54"><tspan x="0" y="6">1,238 ft</tspan></tspan></text><rect class="cls-11" x="38.24" y="627.1" width="70.21" height="10.72"/><line class="cls-4" x1="108.44" y1="637.11" x2="107.73" y2="637.82"/><line class="cls-4" x1="108.01" y1="627.1" x2="97.29" y2="637.82"/><line class="cls-4" x1="108.44" y1="631.89" x2="102.51" y2="637.82"/><line class="cls-4" x1="97.57" y1="627.1" x2="86.85" y2="637.82"/><line class="cls-4" x1="102.79" y1="627.1" x2="92.07" y2="637.82"/><line class="cls-4" x1="87.13" y1="627.1" x2="76.41" y2="637.82"/><line class="cls-4" x1="92.35" y1="627.1" x2="81.63" y2="637.82"/><line class="cls-4" x1="76.69" y1="627.1" x2="65.97" y2="637.82"/><line class="cls-4" x1="81.91" y1="627.1" x2="71.19" y2="637.82"/><line class="cls-4" x1="66.25" y1="627.1" x2="55.53" y2="637.82"/><line class="cls-4" x1="71.47" y1="627.1" x2="60.75" y2="637.82"/><line class="cls-4" x1="55.81" y1="627.1" x2="45.09" y2="637.82"/><line class="cls-4" x1="61.03" y1="627.1" x2="50.31" y2="637.82"/><line class="cls-4" x1="45.37" y1="627.1" x2="38.23" y2="634.24"/><line class="cls-4" x1="50.59" y1="627.1" x2="39.87" y2="637.82"/><line class="cls-4" x1="40.15" y1="627.1" x2="38.23" y2="629.02"/></g></g><g id="Explanation"><text class="cls-23" transform="translate(134.16 104.68)"><tspan x="0" y="0">EXPLAN</tspan><tspan class="cls-57" x="32.45" y="0">A</tspan><tspan x="37.63" y="0">TION</tspan></text><text class="cls-21" transform="translate(127.83 120.81)"><tspan x="0" y="0">Lithology</tspan></text><text class="cls-24" transform="translate(151.46 175.96)"><tspan class="cls-85" x="0" y="0">Se</tspan><tspan class="cls-101" x="8.82" y="0">d</tspan><tspan class="cls-33" x="12.79" y="0">i</tspan><tspan class="cls-87" x="14.44" y="0">m</tspan><tspan class="cls-67" x="20.4" y="0">e</tspan><tspan class="cls-84" x="24.4" y="0">n</tspan><tspan class="cls-68" x="28.34" y="0">t</tspan></text><text class="cls-24" transform="translate(151.46 136.8)"><tspan class="cls-35" x="0" y="0">D</tspan><tspan class="cls-97" x="5.21" y="0">e</tspan><tspan class="cls-52" x="9.21" y="0">n</tspan><tspan class="cls-97" x="13.2" y="0">s</tspan><tspan class="cls-76" x="16.81" y="0">e </tspan><tspan class="cls-46" x="22.65" y="0">ba</tspan><tspan class="cls-105" x="30.62" y="0">s</tspan><tspan class="cls-71" x="34.25" y="0">a</tspan><tspan class="cls-94" x="38.25" y="0">l</tspan><tspan class="cls-68" x="39.89" y="0">t</tspan></text><rect class="cls-13" x="135.03" y="127.47" width="12.8" height="13.62"/><text class="cls-24" transform="translate(151.46 156.38)"><tspan class="cls-59" x="0" y="0">F</tspan><tspan class="cls-85" x="4.17" y="0">r</tspan><tspan class="cls-61" x="6.63" y="0">a</tspan><tspan class="cls-42" x="10.6" y="0">c</tspan><tspan class="cls-56" x="14.27" y="0">t</tspan><tspan class="cls-94" x="16.32" y="0">u</tspan><tspan class="cls-60" x="20.3" y="0">r</tspan><tspan class="cls-31" x="22.74" y="0">e</tspan><tspan class="cls-76" x="26.76" y="0">d </tspan><tspan class="cls-30" x="32.6" y="0">ba</tspan><tspan class="cls-105" x="40.58" y="0">s</tspan><tspan class="cls-34" x="44.21" y="0">a</tspan><tspan class="cls-43" x="48.2" y="0">l</tspan><tspan class="cls-68" x="49.84" y="0">t</tspan></text><rect class="cls-15" x="135.03" y="147.05" width="12.8" height="13.62"/><rect class="cls-16" x="135.03" y="166.63" width="12.8" height="13.62"/><line class="cls-36" x1="145.97" y1="231.31" x2="163.89" y2="231.31"/><text class="cls-21" transform="translate(127.83 196.56)"><tspan x="0" y="0">Completion</tspan></text><line class="cls-36" x1="163.89" y1="244.23" x2="160.3" y2="244.23"/><polyline class="cls-36" points="163.89 256.7 158.64 256.7 134.68 249.75"/><polygon class="cls-40" points="150.25 241.97 146.6 244.34 150.25 246.72 150.25 241.97"/><polyline class="cls-3" points="135.45 287.35 133.29 287.35 133.29 232.69 135.45 232.69"/><text class="cls-20" transform="translate(152.35 246.43) scale(.89 1)"><tspan x="0" y="0">P2</tspan></text><text class="cls-20" transform="translate(125.67 250.93) scale(.89 1)"><tspan x="0" y="0">Z1</tspan></text><text class="cls-26" transform="translate(125.67 250.93) scale(.89 1)"><tspan x="0" y="0">Z1</tspan></text><line class="cls-36" x1="145.97" y1="218.82" x2="163.89" y2="218.82"/><line class="cls-36" x1="150.59" y1="207.2" x2="163.89" y2="207.2"/><text class="cls-24" transform="translate(165.88 234.1)"><tspan class="cls-98" x="0" y="0">P</tspan><tspan class="cls-61" x="4.7" y="0">a</tspan><tspan class="cls-1" x="8.68" y="0">c</tspan><tspan class="cls-100" x="12.34" y="0">k</tspan><tspan class="cls-83" x="15.8" y="0">e</tspan><tspan x="19.81" y="0">r</tspan></text><text class="cls-24" transform="translate(165.88 246.67)"><tspan class="cls-41" x="0" y="0">M</tspan><tspan class="cls-67" x="6.01" y="0">e</tspan><tspan class="cls-91" x="10.02" y="0">a</tspan><tspan class="cls-66" x="14" y="0">s</tspan><tspan class="cls-94" x="17.58" y="0">u</tspan><tspan class="cls-60" x="21.57" y="0">r</tspan><tspan class="cls-67" x="24" y="0">e</tspan><tspan class="cls-87" x="28.01" y="0">m</tspan><tspan class="cls-67" x="33.96" y="0">e</tspan><tspan class="cls-84" x="37.96" y="0">n</tspan><tspan class="cls-68" x="41.91" y="0">t </tspan><tspan class="cls-75" x="45.8" y="0">p</tspan><tspan class="cls-105" x="49.83" y="0">o</tspan><tspan class="cls-73" x="53.85" y="0">r</tspan><tspan x="56.54" y="0">t </tspan><tspan class="cls-58" x="60.43" y="0">nu</tspan><tspan class="cls-103" x="68.38" y="0">m</tspan><tspan class="cls-44" x="74.32" y="0">b</tspan><tspan class="cls-83" x="78.34" y="0">e</tspan><tspan x="82.35" y="0">r</tspan></text><text class="cls-24" transform="translate(165.88 259.24)"><tspan class="cls-81" x="0" y="0">M</tspan><tspan class="cls-31" x="6.02" y="0">o</tspan><tspan class="cls-43" x="10.04" y="0">n</tspan><tspan class="cls-71" x="14.02" y="0">i</tspan><tspan class="cls-51" x="15.68" y="0">t</tspan><tspan class="cls-105" x="17.69" y="0">o</tspan><tspan class="cls-77" x="21.72" y="0">r</tspan><tspan class="cls-45" x="24.25" y="0">i</tspan><tspan class="cls-96" x="25.91" y="0">n</tspan><tspan x="29.91" y="0">g </tspan><tspan class="cls-90" x="35.75" y="0">z</tspan><tspan class="cls-85" x="39.31" y="0">o</tspan><tspan class="cls-103" x="43.33" y="0">n</tspan><tspan class="cls-76" x="47.33" y="0">e </tspan><tspan class="cls-66" x="53.17" y="0">nu</tspan><tspan class="cls-89" x="61.12" y="0">m</tspan><tspan class="cls-44" x="67.05" y="0">b</tspan><tspan class="cls-83" x="71.07" y="0">e</tspan><tspan x="75.08" y="0">r</tspan></text><text class="cls-24" transform="translate(165.88 221.53)"><tspan class="cls-53" x="0" y="0">M</tspan><tspan class="cls-91" x="5.99" y="0">ul</tspan><tspan class="cls-19" x="11.62" y="0">t</tspan><tspan class="cls-33" x="13.7" y="0">i</tspan><tspan class="cls-75" x="15.36" y="0">p</tspan><tspan class="cls-105" x="19.39" y="0">o</tspan><tspan class="cls-73" x="23.41" y="0">r</tspan><tspan x="26.1" y="0">t </tspan><tspan class="cls-32" x="29.99" y="0">c</tspan><tspan class="cls-91" x="33.71" y="0">a</tspan><tspan class="cls-72" x="37.7" y="0">s</tspan><tspan class="cls-45" x="41.3" y="0">i</tspan><tspan class="cls-67" x="42.95" y="0">n</tspan><tspan x="46.96" y="0">g</tspan></text><text class="cls-24" transform="translate(165.88 271.81)"><tspan class="cls-55" x="0" y="0">S</tspan><tspan class="cls-62" x="4.79" y="0">a</tspan><tspan class="cls-103" x="8.79" y="0">m</tspan><tspan class="cls-87" x="14.72" y="0">pl</tspan><tspan x="20.41" y="0">e </tspan><tspan class="cls-79" x="26.25" y="0">c</tspan><tspan class="cls-105" x="29.97" y="0">o</tspan><tspan class="cls-30" x="33.99" y="0">l</tspan><tspan class="cls-99" x="35.64" y="0">l</tspan><tspan class="cls-93" x="37.32" y="0">e</tspan><tspan class="cls-42" x="41.33" y="0">c</tspan><tspan class="cls-19" x="45.01" y="0">ti</tspan><tspan class="cls-85" x="48.78" y="0">o</tspan><tspan x="52.8" y="0">n </tspan><tspan class="cls-49" x="58.64" y="0">a</tspan><tspan x="62.59" y="0">t </tspan><tspan class="cls-75" x="66.48" y="0">p</tspan><tspan class="cls-65" x="70.51" y="0">o</tspan><tspan class="cls-80" x="74.54" y="0">r</tspan><tspan class="cls-76" x="77.23" y="0">t</tspan></text><text class="cls-24" transform="translate(165.88 208.96)"><tspan class="cls-70" x="0" y="0">W</tspan><tspan class="cls-44" x="6.58" y="0">e</tspan><tspan class="cls-30" x="10.59" y="0">l</tspan><tspan class="cls-76" x="12.24" y="0">l </tspan><tspan class="cls-32" x="15.74" y="0">c</tspan><tspan class="cls-52" x="19.46" y="0">a</tspan><tspan class="cls-48" x="23.45" y="0">si</tspan><tspan class="cls-96" x="28.71" y="0">n</tspan><tspan x="32.71" y="0">g</tspan></text><line class="cls-38" x1="135.23" y1="202.46" x2="135.23" y2="214.96"/><line class="cls-38" x1="149.72" y1="202.46" x2="149.72" y2="214.96"/><rect x="138.94" y="280.41" width="7.09" height="2.65"/><line class="cls-9" x1="146.03" y1="282.57" x2="145.92" y2="202.46"/><line class="cls-9" x1="138.82" y1="202.46" x2="138.94" y2="282.57"/><path class="cls-63" d="M136.34,231.31c0,.76.62,1.38,1.38,1.38h9.52c.76,0,1.38-.62,1.38-1.38s-.62-1.38-1.38-1.38h-9.52c-.76,0-1.38.62-1.38,1.38,0,0,0-.76,0,0Z"/><path class="cls-37" d="M136.34,231.31c0,.76.62,1.38,1.38,1.38h9.52c.76,0,1.38-.62,1.38-1.38s-.62-1.38-1.38-1.38h-9.52c-.76,0-1.38.62-1.38,1.38,0,0,0-.76,0,0Z"/><text class="cls-21" transform="translate(127.83 303.87)"><tspan x="0" y="0">Borehole</tspan></text><line class="cls-4" x1="147.83" y1="335.05" x2="139.74" y2="343.14"/><line class="cls-4" x1="147.83" y1="340.27" x2="144.96" y2="343.14"/><line class="cls-4" x1="142.92" y1="329.52" x2="135.03" y2="337.41"/><line class="cls-4" x1="147.83" y1="329.83" x2="135.03" y2="342.63"/><line class="cls-4" x1="137.7" y1="329.52" x2="135.03" y2="332.19"/><rect class="cls-14" x="135.03" y="329.52" width="12.8" height="13.62"/><text class="cls-24" transform="translate(151.46 338.2)"><tspan class="cls-75" x="0" y="0">B</tspan><tspan class="cls-44" x="4.81" y="0">el</tspan><tspan class="cls-78" x="10.5" y="0">o</tspan><tspan class="cls-76" x="14.47" y="0">w </tspan><tspan class="cls-95" x="21.47" y="0">h</tspan><tspan class="cls-105" x="25.48" y="0">o</tspan><tspan class="cls-99" x="29.51" y="0">l</tspan><tspan class="cls-76" x="31.18" y="0">e </tspan><tspan class="cls-60" x="37.02" y="0">d</tspan><tspan class="cls-97" x="41.01" y="0">e</tspan><tspan class="cls-92" x="45.02" y="0">p</tspan><tspan class="cls-69" x="48.97" y="0">t</tspan><tspan x="51.05" y="0">h</tspan></text><polygon class="cls-17" points="138.4 312.05 141.43 314.9 144.45 312.05 138.4 312.05"/><line class="cls-11" x1="135.03" y1="315.28" x2="136.03" y2="315.28"/><line class="cls-10" x1="138.19" y1="315.28" x2="145.75" y2="315.28"/><line class="cls-11" x1="146.83" y1="315.28" x2="147.83" y2="315.28"/><text class="cls-24" transform="translate(151.46 316.53)"><tspan class="cls-70" x="0" y="0">W</tspan><tspan class="cls-49" x="6.58" y="0">at</tspan><tspan class="cls-83" x="12.54" y="0">e</tspan><tspan x="16.55" y="0">r </tspan><tspan class="cls-99" x="20.83" y="0">l</tspan><tspan class="cls-76" x="22.5" y="0">e</tspan><tspan class="cls-64" x="26.39" y="0">v</tspan><tspan class="cls-55" x="29.9" y="0">e</tspan><tspan x="33.92" y="0">l </tspan><tspan class="cls-87" x="37.42" y="0">m</tspan><tspan class="cls-96" x="43.37" y="0">e</tspan><tspan class="cls-52" x="47.37" y="0">a</tspan><tspan class="cls-66" x="51.36" y="0">s</tspan><tspan class="cls-94" x="54.94" y="0">u</tspan><tspan class="cls-60" x="58.93" y="0">r</tspan><tspan class="cls-31" x="61.36" y="0">e</tspan><tspan x="65.38" y="0">d</tspan><tspan class="cls-82" x="0" y="8.4">o</tspan><tspan class="cls-102" x="4.01" y="8.4">u</tspan><tspan class="cls-88" x="7.99" y="8.4">t</tspan><tspan class="cls-72" x="10.08" y="8.4">s</tspan><tspan class="cls-19" x="13.68" y="8.4">i</tspan><tspan class="cls-60" x="15.37" y="8.4">d</tspan><tspan x="19.37" y="8.4">e </tspan><tspan class="cls-30" x="25.21" y="8.4">mul</tspan><tspan class="cls-19" x="36.77" y="8.4">t</tspan><tspan class="cls-45" x="38.85" y="8.4">i</tspan><tspan class="cls-75" x="40.5" y="8.4">p</tspan><tspan class="cls-65" x="44.53" y="8.4">o</tspan><tspan class="cls-80" x="48.56" y="8.4">r</tspan><tspan class="cls-76" x="51.25" y="8.4">t </tspan><tspan class="cls-32" x="55.13" y="8.4">c</tspan><tspan class="cls-52" x="58.86" y="8.4">a</tspan><tspan class="cls-48" x="62.84" y="8.4">si</tspan><tspan class="cls-96" x="68.1" y="8.4">n</tspan><tspan x="72.1" y="8.4">g</tspan></text><text class="cls-24" transform="translate(165.88 284.38)"><tspan class="cls-53" x="0" y="0">M</tspan><tspan class="cls-91" x="5.99" y="0">ul</tspan><tspan class="cls-19" x="11.62" y="0">t</tspan><tspan class="cls-33" x="13.7" y="0">i</tspan><tspan class="cls-75" x="15.36" y="0">p</tspan><tspan class="cls-105" x="19.39" y="0">o</tspan><tspan class="cls-73" x="23.41" y="0">r</tspan><tspan class="cls-46" x="26.1" y="0">t</tspan><tspan class="cls-74" x="28.14" y="0">-</tspan><tspan class="cls-32" x="30.79" y="0">c</tspan><tspan class="cls-94" x="34.51" y="0">a</tspan><tspan class="cls-72" x="38.49" y="0">s</tspan><tspan class="cls-45" x="42.1" y="0">i</tspan><tspan class="cls-96" x="43.75" y="0">n</tspan><tspan class="cls-76" x="47.75" y="0">g </tspan><tspan class="cls-97" x="53.59" y="0">en</tspan><tspan class="cls-76" x="61.6" y="0">d </tspan><tspan class="cls-32" x="67.44" y="0">c</tspan><tspan class="cls-45" x="71.16" y="0">a</tspan><tspan x="75.15" y="0">p</tspan></text><line class="cls-36" x1="145.97" y1="281.92" x2="163.89" y2="281.92"/><line class="cls-36" x1="163.89" y1="269.35" x2="152.3" y2="269.35"/><polygon class="cls-39" points="150.25 266.98 146.6 269.35 150.25 271.72 150.25 266.98"/></g><g id="Grid"><text class="cls-22" transform="translate(9.42 394.03) rotate(-90) scale(1.26 1)"><tspan x="0" y="0">Depth, in feet below land surface</tspan></text><text class="cls-27" transform="translate(51.33 52.08) rotate(-90) scale(1.16 1)"><tspan x="0" y="0">LITHOLOGY</tspan></text><text class="cls-20" transform="translate(63.14 52.54) scale(.93 1)"><tspan x="0" y="0">Zone</tspan></text><text class="cls-20" transform="translate(94.11 52.54) scale(.93 1)"><tspan x="0" y="0">Port</tspan></text><polyline class="cls-11" points="38.23 57.23 108.44 57.23 38.23 57.23"/><line class="cls-11" x1="58" y1="6.97" x2="58" y2="637.82"/><polygon class="cls-11" points="108.44 637.82 108.44 6.97 38.23 6.97 38.23 6.97 38.23 637.82 108.44 637.82"/></g></svg>