<?xml version="1.0" encoding="UTF-8"?><svg xmlns="http://www.w3.org/2000/svg" viewBox="0 0 252 645"><defs><style>.cls-1{letter-spacing:.02em;}.cls-2,.cls-3,.cls-4,.cls-5,.cls-6,.cls-7,.cls-8,.cls-9,.cls-10,.cls-11,.cls-12{stroke-linejoin:round;}.cls-2,.cls-3,.cls-4,.cls-5,.cls-7,.cls-9,.cls-10,.cls-11,.cls-12{stroke-linecap:round;}.cls-2,.cls-4,.cls-13,.cls-7,.cls-9,.cls-14,.cls-10,.cls-11,.cls-15,.cls-12,.cls-16{stroke:#000;}.cls-2,.cls-13{fill:#bcbdc0;}.cls-2,.cls-7,.cls-17,.cls-12{stroke-width:.25px;}.cls-18{letter-spacing:-.04em;}.cls-19{letter-spacing:.02em;}.cls-20,.cls-21,.cls-22,.cls-23,.cls-24{fill:#231f20;}.cls-20,.cls-25,.cls-26,.cls-22,.cls-24,.cls-27,.cls-28{font-family:ArialMT, Arial;}.cls-20,.cls-25,.cls-26,.cls-27,.cls-29{font-size:6px;}.cls-30{letter-spacing:.01em;}.cls-21,.cls-23{font-family:Arial-BoldMT, Arial;font-weight:700;}.cls-21,.cls-24{font-size:7px;}.cls-31{letter-spacing:.02em;}.cls-32{letter-spacing:.03em;}.cls-33{letter-spacing:.01em;}.cls-34{letter-spacing:.01em;}.cls-35{letter-spacing:.02em;}.cls-36,.cls-3,.cls-4,.cls-5,.cls-6,.cls-13,.cls-15,.cls-16{stroke-width:.35px;}.cls-36,.cls-3,.cls-4,.cls-5,.cls-6,.cls-8,.cls-37,.cls-9,.cls-14,.cls-10,.cls-11,.cls-38{fill:none;}.cls-36,.cls-3,.cls-39,.cls-8,.cls-37,.cls-40{stroke:#241f20;}.cls-36,.cls-13,.cls-14,.cls-15,.cls-16{stroke-miterlimit:90;}.cls-41{letter-spacing:.03em;}.cls-42{letter-spacing:.02em;}.cls-43{letter-spacing:.01em;}.cls-44{letter-spacing:.02em;}.cls-45{letter-spacing:.01em;}.cls-46{letter-spacing:.01em;}.cls-47{letter-spacing:.01em;}.cls-48{letter-spacing:0em;}.cls-25{fill:#212121;}.cls-5,.cls-6,.cls-38{stroke:#231f20;}.cls-49{letter-spacing:.01em;}.cls-50{letter-spacing:.01em;}.cls-26,.cls-28{fill:#241f20;}.cls-51{letter-spacing:.02em;}.cls-52{font-size:5px;}.cls-53{letter-spacing:.02em;}.cls-39{fill:red;}.cls-39,.cls-40{stroke-width:.53px;}.cls-54{letter-spacing:.01em;}.cls-55{letter-spacing:-.07em;}.cls-56{letter-spacing:.01em;}.cls-7,.cls-15{fill:#fbb041;}.cls-57{letter-spacing:-.02em;}.cls-8,.cls-37,.cls-14,.cls-10,.cls-11{stroke-width:.5px;}.cls-58{letter-spacing:.02em;}.cls-37{stroke-miterlimit:10;}.cls-59{letter-spacing:.01em;}.cls-60{letter-spacing:.01em;}.cls-61{fill:#1072ba;}.cls-62{letter-spacing:0em;}.cls-63{letter-spacing:.02em;}.cls-64{letter-spacing:.01em;}.cls-65{letter-spacing:.02em;}.cls-66{letter-spacing:0em;}.cls-67{letter-spacing:.02em;}.cls-68{letter-spacing:-.07em;}.cls-69{letter-spacing:0em;}.cls-70{letter-spacing:.01em;}.cls-71{letter-spacing:.01em;}.cls-22,.cls-23{font-size:8px;}.cls-72{letter-spacing:.05em;}.cls-73{letter-spacing:.05em;}.cls-74{letter-spacing:.02em;}.cls-75{letter-spacing:0em;}.cls-76{letter-spacing:.03em;}.cls-10{stroke-dasharray:2.16 2.16;}.cls-77{letter-spacing:.01em;}.cls-78{letter-spacing:.03em;}.cls-79{letter-spacing:.05em;}.cls-80{letter-spacing:.03em;}.cls-81{letter-spacing:.02em;}.cls-82{letter-spacing:.02em;}.cls-83{letter-spacing:0em;}.cls-17{fill:#70cddd;stroke:#70cddd;}.cls-84{letter-spacing:.02em;}.cls-85{letter-spacing:.02em;}.cls-86{letter-spacing:.02em;}.cls-87{letter-spacing:.02em;}.cls-88{letter-spacing:0em;}.cls-89{letter-spacing:.01em;}.cls-90{letter-spacing:0em;}.cls-91{letter-spacing:.02em;}.cls-38{stroke-width:2px;}.cls-92{letter-spacing:.01em;}.cls-12,.cls-16{fill:#f5eb12;}.cls-93{letter-spacing:.02em;}.cls-40{fill:#fff;}.cls-94{letter-spacing:.02em;}.cls-95{letter-spacing:.02em;}.cls-96{letter-spacing:0em;}.cls-97{letter-spacing:.02em;}.cls-98{letter-spacing:0em;}.cls-99{letter-spacing:.01em;}.cls-100{letter-spacing:.01em;}.cls-101{letter-spacing:.02em;}.cls-102{letter-spacing:-.07em;}.cls-103{letter-spacing:.02em;}</style></defs><g id="Completions"><g id="USGS_105"><text class="cls-20" transform="translate(64.82 536.73) scale(.92 1)"><tspan x="0" y="0">Z3</tspan></text><text class="cls-26" transform="translate(64.82 536.73) scale(.92 1)"><tspan x="0" y="0">Z3</tspan></text><text class="cls-20" transform="translate(64.82 593.87) scale(.92 1)"><tspan x="0" y="0">Z2</tspan></text><text class="cls-26" transform="translate(64.82 593.87) scale(.92 1)"><tspan x="0" y="0">Z2</tspan></text><text class="cls-20" transform="translate(64.82 629.84) scale(.92 1)"><tspan x="0" y="0">Z1</tspan></text><text class="cls-26" transform="translate(64.82 629.84) scale(.92 1)"><tspan x="0" y="0">Z1</tspan></text><text class="cls-20" transform="translate(64.82 481.57) scale(.92 1)"><tspan x="0" y="0">Z4</tspan></text><text class="cls-26" transform="translate(64.82 481.57) scale(.92 1)"><tspan x="0" y="0">Z4</tspan></text><text class="cls-20" transform="translate(64.82 416.51) scale(.92 1)"><tspan x="0" y="0">Z5</tspan></text><text class="cls-26" transform="translate(64.82 416.51) scale(.92 1)"><tspan x="0" y="0">Z5</tspan></text><text class="cls-20" transform="translate(64.82 365.57) scale(.92 1)"><tspan x="0" y="0">Z6</tspan></text><text class="cls-26" transform="translate(64.82 365.57) scale(.92 1)"><tspan x="0" y="0">Z6</tspan></text><text class="cls-20" transform="translate(64.82 342.14) scale(.92 1)"><tspan x="0" y="0">Z7</tspan></text><text class="cls-26" transform="translate(64.82 342.14) scale(.92 1)"><tspan x="0" y="0">Z7</tspan></text><text class="cls-20" transform="translate(64.82 304.72) scale(.92 1)"><tspan x="0" y="0">Z8</tspan></text><text class="cls-26" transform="translate(64.82 304.72) scale(.92 1)"><tspan x="0" y="0">Z8</tspan></text><text class="cls-20" transform="translate(64.82 269.93) scale(.92 1)"><tspan x="0" y="0">Z9</tspan></text><text class="cls-26" transform="translate(64.82 269.93) scale(.92 1)"><tspan x="0" y="0">Z9</tspan></text><text class="cls-20" transform="translate(61.76 239.47) scale(.92 1)"><tspan x="0" y="0">Z10</tspan></text><text class="cls-26" transform="translate(61.76 239.47) scale(.92 1)"><tspan x="0" y="0">Z10</tspan></text><text class="cls-20" transform="translate(62.17 201.65) scale(.92 1)"><tspan x="0" y="0">Z</tspan><tspan class="cls-68" x="3.66" y="0">1</tspan><tspan x="6.56" y="0">1</tspan></text><text class="cls-26" transform="translate(62.17 201.65) scale(.92 1)"><tspan x="0" y="0">Z</tspan><tspan class="cls-68" x="3.66" y="0">1</tspan><tspan x="6.56" y="0">1</tspan></text><text class="cls-20" transform="translate(61.76 148.12) scale(.92 1)"><tspan x="0" y="0">Z12</tspan></text><text class="cls-26" transform="translate(61.76 148.12) scale(.92 1)"><tspan x="0" y="0">Z12</tspan></text><text class="cls-20" transform="translate(61.76 87.03) scale(.92 1)"><tspan x="0" y="0">Z13</tspan></text><text class="cls-26" transform="translate(61.76 87.03) scale(.92 1)"><tspan x="0" y="0">Z13</tspan></text><text class="cls-25" transform="translate(19.6 108.22) scale(.92 1)"><tspan x="0" y="0">750</tspan></text><text class="cls-25" transform="translate(19.6 156.55) scale(.92 1)"><tspan x="0" y="0">800</tspan></text><text class="cls-25" transform="translate(19.6 204.89) scale(.92 1)"><tspan x="0" y="0">850</tspan></text><text class="cls-25" transform="translate(19.6 253.23) scale(.92 1)"><tspan x="0" y="0">900</tspan></text><text class="cls-25" transform="translate(19.6 301.57) scale(.92 1)"><tspan x="0" y="0">950</tspan></text><text class="cls-25" transform="translate(15.01 349.91) scale(.92 1)"><tspan x="0" y="0">1,000</tspan></text><text class="cls-25" transform="translate(15.01 398.25) scale(.92 1)"><tspan x="0" y="0">1,050</tspan></text><text class="cls-25" transform="translate(15.01 446.59) scale(.92 1)"><tspan x="0" y="0">1,100</tspan></text><text class="cls-25" transform="translate(15.01 494.93) scale(.92 1)"><tspan x="0" y="0">1,150</tspan></text><text class="cls-25" transform="translate(15.01 543.27) scale(.92 1)"><tspan x="0" y="0">1,200</tspan></text><text class="cls-25" transform="translate(15.01 591.61) scale(.92 1)"><tspan x="0" y="0">1,250</tspan></text><text class="cls-25" transform="translate(19.6 59.88) scale(.92 1)"><tspan x="0" y="0">700</tspan></text><text class="cls-25" transform="translate(15.01 637.72) scale(.92 1)"><tspan x="0" y="0">1,300</tspan></text><rect class="cls-2" x="41.73" y="57.47" width="12.8" height="10.49"/><rect class="cls-7" x="41.73" y="67.96" width="12.8" height="89.87"/><rect class="cls-2" x="41.73" y="157.83" width="12.8" height="7.16"/><rect class="cls-7" x="41.73" y="178.79" width="12.8" height=".33"/><rect class="cls-2" x="41.73" y="179.97" width="12.8" height="20.24"/><rect class="cls-7" x="41.73" y="200.33" width="12.8" height="7.59"/><rect class="cls-12" x="41.73" y="170.63" width="12.8" height="1.8"/><rect class="cls-7" x="41.73" y="416.54" width="12.8" height="19.91"/><rect class="cls-12" x="41.73" y="341.51" width="12.8" height="3.59"/><rect class="cls-7" x="41.73" y="459.42" width="12.8" height="10.68"/><rect class="cls-2" x="41.73" y="481.88" width="12.8" height="7.94"/><rect class="cls-7" x="41.73" y="488.96" width="12.8" height="9.79"/><rect class="cls-2" x="41.73" y="498.62" width="12.8" height="15.82"/><rect class="cls-7" x="41.73" y="514.5" width="12.8" height="25.15"/><rect class="cls-2" x="41.73" y="539.86" width="12.8" height="6.78"/><rect class="cls-7" x="41.73" y="546.21" width="12.8" height="6.45"/><rect class="cls-7" x="41.73" y="554.63" width="12.8" height="4.4"/><rect class="cls-2" x="41.73" y="559.32" width="12.8" height="12.02"/><rect class="cls-7" x="41.73" y="570.81" width="12.8" height="4.61"/><rect class="cls-2" x="41.73" y="575.08" width="12.8" height="5.26"/><rect class="cls-7" x="41.73" y="580.75" width="12.8" height="7.44"/><rect class="cls-2" x="41.73" y="587.59" width="12.8" height="6.34"/><rect class="cls-7" x="41.73" y="593.96" width="12.8" height="7.86"/><rect class="cls-2" x="41.73" y="601.49" width="12.8" height="3.91"/><rect class="cls-7" x="41.73" y="605.29" width="12.8" height="11.21"/><rect class="cls-2" x="41.73" y="617.29" width="12.8" height="4.28"/><rect class="cls-7" x="41.73" y="621.59" width="12.8" height="7.33"/><rect class="cls-2" x="41.73" y="628.45" width="12.8" height="6.65"/><rect class="cls-7" x="41.73" y="634.58" width="12.8" height="3.23"/><rect class="cls-12" x="41.73" y="593.41" width="12.8" height="2.42"/><rect class="cls-2" x="41.73" y="552.33" width="12.8" height="2.74"/><rect class="cls-12" x="41.73" y="478.47" width="12.8" height="4.53"/><rect class="cls-2" x="41.73" y="468.02" width="12.8" height="10.78"/><rect class="cls-2" x="41.73" y="436.54" width="12.8" height="22.85"/><rect class="cls-2" x="41.73" y="410.45" width="12.8" height="6.57"/><rect class="cls-2" x="41.73" y="379.11" width="12.8" height="6.54"/><rect class="cls-7" x="41.73" y="385.15" width="12.8" height="25.4"/><rect class="cls-7" x="41.73" y="368.92" width="12.8" height="10.61"/><rect class="cls-7" x="41.73" y="365.04" width="12.8" height="1.57"/><rect class="cls-2" x="41.73" y="367.27" width="12.8" height="2.36"/><rect class="cls-2" x="41.73" y="344.55" width="12.8" height="20.21"/><rect class="cls-2" x="41.73" y="322.93" width="12.8" height="18.01"/><rect class="cls-7" x="41.73" y="314.96" width="12.8" height="7.56"/><rect class="cls-7" x="41.73" y="296.73" width="12.8" height="11.1"/><rect class="cls-7" x="41.73" y="283.99" width="12.8" height="3.91"/><rect class="cls-7" x="41.73" y="260.68" width="12.8" height="3.51"/><rect class="cls-2" x="41.73" y="307.63" width="12.8" height="7.02"/><rect class="cls-2" x="41.73" y="287.43" width="12.8" height="8.82"/><rect class="cls-2" x="41.73" y="264.35" width="12.8" height="19.16"/><rect class="cls-2" x="41.73" y="247.72" width="12.8" height="12.68"/><rect class="cls-12" x="41.73" y="232.25" width="12.8" height="3.51"/><rect class="cls-2" x="41.73" y="235.78" width="12.8" height="5.04"/><rect class="cls-7" x="41.73" y="240.29" width="12.8" height="8.36"/><rect class="cls-7" x="41.73" y="229.81" width="12.8" height="3.01"/><rect class="cls-12" x="41.73" y="225.85" width="12.8" height="4.06"/><rect class="cls-2" x="41.73" y="207.7" width="12.8" height="18.48"/><rect class="cls-2" x="41.73" y="172.82" width="12.8" height="5.99"/><rect class="cls-7" x="41.73" y="164.17" width="12.8" height="6.13"/><line class="cls-11" x1="31.04" y1="57.23" x2="38.24" y2="57.23"/><line class="cls-11" x1="31.04" y1="105.49" x2="38.24" y2="105.49"/><line class="cls-11" x1="31.04" y1="154.02" x2="38.24" y2="154.02"/><line class="cls-11" x1="31.04" y1="202.28" x2="38.24" y2="202.28"/><line class="cls-11" x1="31.04" y1="250.81" x2="38.24" y2="250.81"/><line class="cls-11" x1="31.04" y1="299.13" x2="38.24" y2="299.13"/><line class="cls-11" x1="31.04" y1="347.39" x2="38.24" y2="347.39"/><line class="cls-11" x1="31.04" y1="395.92" x2="38.24" y2="395.92"/><line class="cls-11" x1="31.04" y1="444.19" x2="38.24" y2="444.19"/><line class="cls-11" x1="31.04" y1="492.45" x2="38.24" y2="492.45"/><line class="cls-11" x1="31.04" y1="540.98" x2="38.24" y2="540.98"/><line class="cls-11" x1="31.04" y1="589.29" x2="38.24" y2="589.29"/><line class="cls-11" x1="31.04" y1="637.82" x2="38.24" y2="637.82"/><polyline class="cls-5" points="75.8 618.46 73.64 618.46 73.64 627.07 73.64 628.01 73.64 637.81 75.8 637.81"/><polyline class="cls-5" points="75.8 615.61 73.64 615.61 73.64 615.23 73.64 613.79 73.64 611.84 73.64 606.98 73.64 604.34 73.64 601.51 73.64 601.36 73.64 601.08 73.64 599.43 73.64 599.34 73.64 598.2 73.64 596.88 73.64 590.49 73.64 588.14 73.64 587.85 73.64 585.31 73.64 584.51 73.64 584.11 73.64 581.88 73.63 575.94 73.63 573.2 73.63 571.65 73.63 566.18 73.63 564.22 75.79 564.22"/><polyline class="cls-5" points="75.8 561.71 73.64 561.71 73.64 560.03 73.64 559.93 73.64 557.52 73.64 557.18 73.64 554.82 73.64 552.41 73.64 549.47 73.64 549.24 73.64 546.58 73.64 543.45 73.64 540.62 73.64 540.37 73.64 537.99 73.64 536.33 73.64 534.3 73.64 533.23 73.64 533.03 73.64 531.73 73.64 530.77 73.64 529.42 73.64 527.03 73.64 524.13 73.64 521.62 73.64 516.97 73.64 514.87 73.64 512.66 73.64 512.49 73.64 512.45 73.64 510.08 73.64 509.22 75.8 509.22"/><polyline class="cls-5" points="75.8 506.37 73.64 506.37 73.64 504.89 73.64 504.83 73.64 504.34 73.64 503.42 73.64 503.36 73.64 501.49 73.64 499.29 73.64 491.59 73.64 488.91 73.64 473.92 73.64 473.11 73.64 471.81 73.64 471.31 73.64 470.85 73.64 469.34 73.64 462.81 73.64 461.29 73.64 461.17 73.64 460.91 73.64 459.9 73.64 459.16 73.64 458.39 73.64 457.96 73.64 450.58 75.8 450.58"/><polyline class="cls-5" points="75.8 380.63 73.64 380.63 73.64 381.63 73.64 382.06 73.64 382.92 73.64 384.6 73.64 385.89 73.64 386.72 73.64 390.73 73.64 392.94 73.64 393.62 73.64 395.67 73.64 402.43 73.64 404.29 73.64 405.83 73.64 407.3 73.64 409.02 73.64 411.87 73.64 417.24 73.64 417.91 73.64 419.52 73.64 419.68 73.64 420.81 73.64 421.63 73.64 423.38 73.64 424.83 73.64 425.34 73.64 427.8 73.64 440.41 73.64 441.21 73.64 443.4 73.64 443.95 73.64 447.74 75.8 447.74"/><polyline class="cls-6" points="75.8 353.69 73.64 353.69 73.64 354.29 73.64 362.1 73.64 364.79 73.64 369.11 73.64 370.79 73.64 371.98 73.64 374.19 73.64 375.82 73.64 377.79 75.8 377.79"/><polyline class="cls-6" points="75.8 277.34 73.64 277.34 73.64 278.12 73.64 278.8 73.64 280.27 73.64 280.62 73.64 282.78 73.64 288.22 73.64 291.42 73.64 295.25 73.64 296.85 73.64 298.6 73.64 298.71 73.64 299.84 73.64 301.65 73.64 301.76 73.64 304.08 73.64 306.17 73.64 309.17 73.64 311.51 73.64 313.8 73.64 317.12 73.64 318.27 73.64 318.46 73.64 319.47 73.64 320.5 73.64 321.69 73.64 321.95 73.64 322.05 73.64 324.75 73.64 325.59 73.64 329.74 75.8 329.74"/><polyline class="cls-6" points="75.8 218.69 73.64 218.69 73.64 219.72 73.64 220.64 73.64 221.19 73.64 223.14 73.64 223.54 73.64 227.48 73.64 227.97 73.64 228.64 73.64 230.59 73.64 231.87 73.64 231.97 73.64 232.24 73.64 234.86 73.64 235.35 73.64 237.86 73.64 238.26 73.64 239.99 73.64 240.96 73.64 242.39 73.64 244.86 73.64 245.43 73.64 246.87 73.64 248.09 73.64 248.12 73.64 248.29 73.64 249.84 73.64 249.89 73.64 254.98 73.64 256.94 73.64 257.56 75.8 257.56"/><polyline class="cls-6" points="75.8 111.57 73.64 111.57 73.64 112.61 73.64 114.1 73.64 114.11 73.64 119.91 73.64 123.04 73.64 125.08 73.64 126.35 73.64 127.99 73.64 129.82 73.64 131.81 73.64 132.26 73.64 133.57 73.64 134.76 73.64 136.34 73.64 141.14 73.64 143.77 73.64 145.22 73.64 148.22 73.64 159.54 73.64 161.48 73.64 161.58 73.64 162.57 73.64 162.91 73.64 164.7 73.64 169.87 73.64 172.36 73.64 172.98 73.64 173.4 73.64 174.75 73.64 175.89 73.64 176.62 73.64 178.31 73.64 182.32 75.8 182.32"/><polyline class="cls-6" points="75.8 65.83 73.64 65.83 73.64 67.91 73.64 68.58 73.64 69.53 73.64 70.24 73.64 75.33 73.64 79.27 73.64 89.51 73.64 94.77 73.64 95.69 73.64 97.81 73.64 98.22 73.64 108.72 75.8 108.72"/><polyline class="cls-6" points="75.8 260.41 73.64 260.41 73.64 262.8 73.64 264.57 73.64 265.79 73.64 268.81 73.64 270.92 73.64 271.15 73.64 273.62 73.64 274.05 73.64 274.15 73.64 274.5 75.8 274.5"/><polyline class="cls-6" points="75.8 332.58 73.64 332.58 73.64 333.85 73.64 336.77 73.64 337.72 73.64 338.92 73.64 341.03 73.64 342.35 73.64 345.19 73.64 349.6 73.64 350.84 75.8 350.84"/><polyline class="cls-6" points="75.8 185.16 73.64 185.16 73.64 185.88 73.64 188.7 73.64 199.38 73.64 200.75 73.64 202.09 73.64 204.72 73.64 212.1 73.64 215.07 73.64 215.84 75.8 215.84"/><line class="cls-9" x1="87.44" y1="628.27" x2="87.44" y2="57.47"/><line class="cls-9" x1="80.23" y1="57.47" x2="80.23" y2="628.27"/><rect x="79.96" y="625.56" width="7.34" height="3.21"/><path class="cls-61" d="M77.88,617.03c0,.79.64,1.42,1.42,1.42h9.42c.79,0,1.42-.64,1.42-1.42s-.64-1.42-1.42-1.42h-9.42c-.79,0-1.42.64-1.42,1.42,0,0,0-.79,0,0Z"/><path class="cls-8" d="M77.88,617.03c0,.79.64,1.42,1.42,1.42h9.42c.79,0,1.42-.64,1.42-1.42s-.64-1.42-1.42-1.42h-9.42c-.79,0-1.42.64-1.42,1.42,0,0,0-.79,0,0Z"/><path class="cls-61" d="M77.88,563.13c0,.78.64,1.42,1.42,1.42h9.43c.78,0,1.42-.64,1.42-1.42s-.64-1.42-1.42-1.42h-9.43c-.78,0-1.42.64-1.42,1.42,0,0,0-.78,0,0Z"/><path class="cls-8" d="M77.88,563.13c0,.78.64,1.42,1.42,1.42h9.43c.78,0,1.42-.64,1.42-1.42s-.64-1.42-1.42-1.42h-9.43c-.78,0-1.42.64-1.42,1.42,0,0,0-.78,0,0Z"/><path class="cls-61" d="M77.88,507.79c0,.79.64,1.42,1.42,1.42h9.42c.79,0,1.42-.64,1.42-1.42s-.64-1.42-1.42-1.42h-9.42c-.79,0-1.42.64-1.42,1.42,0,0,0-.79,0,0Z"/><path class="cls-8" d="M77.88,507.79c0,.79.64,1.42,1.42,1.42h9.42c.79,0,1.42-.64,1.42-1.42s-.64-1.42-1.42-1.42h-9.42c-.79,0-1.42.64-1.42,1.42,0,0,0-.79,0,0Z"/><path class="cls-61" d="M77.88,449.16c0,.78.64,1.42,1.42,1.42h9.43c.78,0,1.42-.64,1.42-1.42s-.64-1.42-1.42-1.42h-9.43c-.78,0-1.42.64-1.42,1.42,0,0,0-.78,0,0Z"/><path class="cls-8" d="M77.88,449.16c0,.78.64,1.42,1.42,1.42h9.43c.78,0,1.42-.64,1.42-1.42s-.64-1.42-1.42-1.42h-9.43c-.78,0-1.42.64-1.42,1.42,0,0,0-.78,0,0Z"/><path class="cls-61" d="M77.88,379.21c0,.78.64,1.42,1.42,1.42h9.43c.78,0,1.42-.64,1.42-1.42s-.64-1.42-1.42-1.42h-9.43c-.78,0-1.42.64-1.42,1.42,0,0,0-.78,0,0Z"/><path class="cls-8" d="M77.88,379.21c0,.78.64,1.42,1.42,1.42h9.43c.78,0,1.42-.64,1.42-1.42s-.64-1.42-1.42-1.42h-9.43c-.78,0-1.42.64-1.42,1.42,0,0,0-.78,0,0Z"/><path class="cls-61" d="M77.88,352.26c0,.79.64,1.43,1.43,1.43h9.42c.79,0,1.43-.64,1.43-1.43s-.64-1.43-1.43-1.43h-9.42c-.79,0-1.43.64-1.43,1.43,0,0,0-.79,0,0Z"/><path class="cls-8" d="M77.88,352.26c0,.79.64,1.43,1.43,1.43h9.42c.79,0,1.43-.64,1.43-1.43s-.64-1.43-1.43-1.43h-9.42c-.79,0-1.43.64-1.43,1.43,0,0,0-.79,0,0Z"/><path class="cls-61" d="M77.88,331.16c0,.78.64,1.42,1.42,1.42h9.43c.78,0,1.42-.64,1.42-1.42s-.64-1.42-1.42-1.42h-9.43c-.78,0-1.42.64-1.42,1.42,0,0,0-.78,0,0Z"/><path class="cls-8" d="M77.88,331.16c0,.78.64,1.42,1.42,1.42h9.43c.78,0,1.42-.64,1.42-1.42s-.64-1.42-1.42-1.42h-9.43c-.78,0-1.42.64-1.42,1.42,0,0,0-.78,0,0Z"/><path class="cls-61" d="M77.88,275.92c0,.78.64,1.42,1.42,1.42h9.43c.78,0,1.42-.64,1.42-1.42s-.64-1.42-1.42-1.42h-9.43c-.78,0-1.42.64-1.42,1.42,0,0,0-.78,0,0Z"/><path class="cls-8" d="M77.88,275.92c0,.78.64,1.42,1.42,1.42h9.43c.78,0,1.42-.64,1.42-1.42s-.64-1.42-1.42-1.42h-9.43c-.78,0-1.42.64-1.42,1.42,0,0,0-.78,0,0Z"/><path class="cls-61" d="M77.88,258.98c0,.79.64,1.42,1.42,1.42h9.42c.79,0,1.42-.64,1.42-1.42s-.64-1.42-1.42-1.42h-9.42c-.79,0-1.42.64-1.42,1.42,0,0,0-.79,0,0Z"/><path class="cls-8" d="M77.88,258.98c0,.79.64,1.42,1.42,1.42h9.42c.79,0,1.42-.64,1.42-1.42s-.64-1.42-1.42-1.42h-9.42c-.79,0-1.42.64-1.42,1.42,0,0,0-.79,0,0Z"/><path class="cls-61" d="M77.88,217.26c0,.79.64,1.43,1.43,1.43h9.42c.79,0,1.43-.64,1.43-1.43s-.64-1.43-1.43-1.43h-9.42c-.79,0-1.43.64-1.43,1.43,0,0,0-.79,0,0Z"/><path class="cls-8" d="M77.88,217.26c0,.79.64,1.43,1.43,1.43h9.42c.79,0,1.43-.64,1.43-1.43s-.64-1.43-1.43-1.43h-9.42c-.79,0-1.43.64-1.43,1.43,0,0,0-.79,0,0Z"/><path class="cls-61" d="M77.88,183.74c0,.78.64,1.42,1.42,1.42h9.43c.78,0,1.42-.64,1.42-1.42s-.64-1.42-1.42-1.42h-9.43c-.78,0-1.42.64-1.42,1.42,0,0,0-.78,0,0Z"/><path class="cls-8" d="M77.88,183.74c0,.78.64,1.42,1.42,1.42h9.43c.78,0,1.42-.64,1.42-1.42s-.64-1.42-1.42-1.42h-9.43c-.78,0-1.42.64-1.42,1.42,0,0,0-.78,0,0Z"/><path class="cls-61" d="M77.88,110.14c0,.79.64,1.43,1.43,1.43h9.42c.79,0,1.43-.64,1.43-1.43s-.64-1.43-1.43-1.43h-9.42c-.79,0-1.43.64-1.43,1.43,0,0,0-.79,0,0Z"/><path class="cls-8" d="M77.88,110.14c0,.79.64,1.43,1.43,1.43h9.42c.79,0,1.43-.64,1.43-1.43s-.64-1.43-1.43-1.43h-9.42c-.79,0-1.43.64-1.43,1.43,0,0,0-.79,0,0Z"/><path class="cls-61" d="M77.88,64.4c0,.79.64,1.42,1.42,1.42h9.42c.79,0,1.42-.64,1.42-1.42s-.64-1.42-1.42-1.42h-9.42c-.79,0-1.42.64-1.42,1.42,0,0,0-.79,0,0Z"/><path class="cls-8" d="M77.88,64.4c0,.79.64,1.42,1.42,1.42h9.42c.79,0,1.42-.64,1.42-1.42s-.64-1.42-1.42-1.42h-9.42c-.79,0-1.42.64-1.42,1.42,0,0,0-.79,0,0Z"/><text class="cls-26" transform="translate(94.52 456.18) scale(.92 1)"><tspan x="0" y="0">P5</tspan></text><text class="cls-26" transform="translate(94.52 391.24) scale(.92 1)"><tspan x="0" y="0">P7</tspan></text><text class="cls-26" transform="translate(94.52 358.96) scale(.92 1)"><tspan x="0" y="0">P8</tspan></text><text class="cls-26" transform="translate(94.52 338.04) scale(.92 1)"><tspan x="0" y="0">P9</tspan></text><text class="cls-26" transform="translate(94.52 420.49) scale(.92 1)"><tspan x="0" y="0">P6</tspan></text><text class="cls-26" transform="translate(94.52 623.22) scale(.92 1)"><tspan x="0" y="0">P1</tspan></text><text class="cls-26" transform="translate(94.52 281.94) scale(.92 1)"><tspan x="0" y="0">P</tspan><tspan class="cls-68" x="4" y="0">1</tspan><tspan x="6.89" y="0">1</tspan></text><text class="cls-26" transform="translate(94.52 205.85) scale(.92 1)"><tspan x="0" y="0">P14</tspan></text><text class="cls-26" transform="translate(94.52 305.48) scale(.92 1)"><tspan x="0" y="0">P10</tspan></text><text class="cls-26" transform="translate(94.52 265.42) scale(.92 1)"><tspan x="0" y="0">P12</tspan></text><text class="cls-26" transform="translate(94.52 223.86) scale(.92 1)"><tspan x="0" y="0">P13</tspan></text><text class="cls-26" transform="translate(94.52 190.66) scale(.92 1)"><tspan x="0" y="0">P15</tspan></text><text class="cls-26" transform="translate(94.52 117.07) scale(.92 1)"><tspan x="0" y="0">P16</tspan></text><text class="cls-26" transform="translate(94.52 89.9) scale(.92 1)"><tspan x="0" y="0">P17</tspan></text><text class="cls-26" transform="translate(94.52 71.33) scale(.92 1)"><tspan x="0" y="0">P18</tspan></text><text class="cls-26" transform="translate(94.52 587.28) scale(.92 1)"><tspan x="0" y="0">P2</tspan></text><text class="cls-26" transform="translate(94.52 569.12) scale(.92 1)"><tspan x="0" y="0">P3</tspan></text><text class="cls-26" transform="translate(94.52 515.04) scale(.92 1)"><tspan x="0" y="0">P4</tspan></text><text class="cls-20" transform="translate(67.23 25.97) scale(1.07 1)"><tspan x="0" y="0">USGS 105</tspan><tspan x="-3.67" y="7.01">MU</tspan><tspan class="cls-102" x="5.67" y="7.01">L</tspan><tspan x="8.56" y="7.01">TILEVE</tspan><tspan class="cls-18" x="29.23" y="7.01">L</tspan><tspan x="-5.49" y="14.01">COMPLETION</tspan></text><polygon class="cls-40" points="91.47 112.01 87.82 114.39 91.47 116.76 91.47 112.01"/><polygon class="cls-39" points="91.47 84.85 87.82 87.22 91.47 89.6 91.47 84.85"/><polygon class="cls-40" points="91.47 66.27 87.82 68.65 91.47 71.02 91.47 66.27"/><polygon class="cls-40" points="91.47 260.36 87.82 262.74 91.47 265.11 91.47 260.36"/><polygon class="cls-40" points="91.47 218.81 87.82 221.19 91.47 223.56 91.47 218.81"/><polygon class="cls-39" points="91.47 200.79 87.82 203.17 91.47 205.54 91.47 200.79"/><polygon class="cls-40" points="91.47 185.6 87.82 187.98 91.47 190.35 91.47 185.6"/><polygon class="cls-40" points="91.47 386.19 87.82 388.56 91.47 390.93 91.47 386.19"/><polygon class="cls-40" points="91.47 354.13 87.82 356.51 91.47 358.88 91.47 354.13"/><polygon class="cls-40" points="91.47 333.03 87.82 335.4 91.47 337.77 91.47 333.03"/><polygon class="cls-39" points="91.47 300.42 87.82 302.8 91.47 305.17 91.47 300.42"/><polygon class="cls-40" points="91.47 276.71 87.82 279.08 91.47 281.46 91.47 276.71"/><polygon class="cls-39" points="91.47 582.22 87.82 584.6 91.47 586.97 91.47 582.22"/><polygon class="cls-40" points="91.47 564.07 87.82 566.45 91.47 568.82 91.47 564.07"/><polygon class="cls-40" points="91.47 509.98 87.82 512.36 91.47 514.73 91.47 509.98"/><polygon class="cls-40" points="91.47 451.13 87.82 453.5 91.47 455.87 91.47 451.13"/><polygon class="cls-39" points="91.47 415.43 87.82 417.81 91.47 420.18 91.47 415.43"/><polygon class="cls-40" points="91.47 618.59 87.82 620.96 91.47 623.34 91.47 618.59"/><text class="cls-28" transform="translate(112.5 632.05) scale(.89 1)"><tspan class="cls-29"><tspan x="0" y="0">HOLE DEPTH</tspan></tspan><tspan class="cls-52"><tspan x="0" y="6">1,409 ft</tspan></tspan></text></g></g><g id="Explanation"><text class="cls-23" transform="translate(134.16 104.68)"><tspan x="0" y="0">EXPLAN</tspan><tspan class="cls-55" x="32.45" y="0">A</tspan><tspan x="37.63" y="0">TION</tspan></text><text class="cls-21" transform="translate(127.83 120.81)"><tspan x="0" y="0">Lithology</tspan></text><text class="cls-24" transform="translate(151.46 175.96)"><tspan class="cls-84" x="0" y="0">Se</tspan><tspan class="cls-99" x="8.82" y="0">d</tspan><tspan class="cls-33" x="12.79" y="0">i</tspan><tspan class="cls-85" x="14.44" y="0">m</tspan><tspan class="cls-65" x="20.4" y="0">e</tspan><tspan class="cls-83" x="24.4" y="0">n</tspan><tspan class="cls-66" x="28.34" y="0">t</tspan></text><text class="cls-24" transform="translate(151.46 136.8)"><tspan class="cls-35" x="0" y="0">D</tspan><tspan class="cls-95" x="5.21" y="0">e</tspan><tspan class="cls-50" x="9.21" y="0">n</tspan><tspan class="cls-95" x="13.2" y="0">s</tspan><tspan class="cls-75" x="16.81" y="0">e </tspan><tspan class="cls-46" x="22.65" y="0">ba</tspan><tspan class="cls-103" x="30.62" y="0">s</tspan><tspan class="cls-70" x="34.25" y="0">a</tspan><tspan class="cls-92" x="38.25" y="0">l</tspan><tspan class="cls-66" x="39.89" y="0">t</tspan></text><rect class="cls-13" x="135.03" y="127.47" width="12.8" height="13.62"/><text class="cls-24" transform="translate(151.46 156.38)"><tspan class="cls-57" x="0" y="0">F</tspan><tspan class="cls-84" x="4.17" y="0">r</tspan><tspan class="cls-59" x="6.63" y="0">a</tspan><tspan class="cls-42" x="10.6" y="0">c</tspan><tspan class="cls-54" x="14.27" y="0">t</tspan><tspan class="cls-92" x="16.32" y="0">u</tspan><tspan class="cls-58" x="20.3" y="0">r</tspan><tspan class="cls-31" x="22.74" y="0">e</tspan><tspan class="cls-75" x="26.76" y="0">d </tspan><tspan class="cls-30" x="32.6" y="0">ba</tspan><tspan class="cls-103" x="40.58" y="0">s</tspan><tspan class="cls-34" x="44.21" y="0">a</tspan><tspan class="cls-43" x="48.2" y="0">l</tspan><tspan class="cls-66" x="49.84" y="0">t</tspan></text><rect class="cls-15" x="135.03" y="147.05" width="12.8" height="13.62"/><rect class="cls-16" x="135.03" y="166.63" width="12.8" height="13.62"/><line class="cls-36" x1="145.97" y1="231.31" x2="163.89" y2="231.31"/><text class="cls-21" transform="translate(127.83 196.56)"><tspan x="0" y="0">Completion</tspan></text><line class="cls-36" x1="163.89" y1="244.23" x2="160.3" y2="244.23"/><polyline class="cls-36" points="163.89 256.7 158.64 256.7 134.68 249.75"/><polygon class="cls-40" points="150.25 241.97 146.6 244.34 150.25 246.72 150.25 241.97"/><polyline class="cls-3" points="135.45 287.35 133.29 287.35 133.29 232.69 135.45 232.69"/><text class="cls-20" transform="translate(152.35 246.43) scale(.89 1)"><tspan x="0" y="0">P2</tspan></text><text class="cls-20" transform="translate(125.67 250.93) scale(.89 1)"><tspan x="0" y="0">Z1</tspan></text><text class="cls-26" transform="translate(125.67 250.93) scale(.89 1)"><tspan x="0" y="0">Z1</tspan></text><line class="cls-36" x1="145.97" y1="218.82" x2="163.89" y2="218.82"/><line class="cls-36" x1="150.59" y1="207.2" x2="163.89" y2="207.2"/><text class="cls-24" transform="translate(165.88 234.1)"><tspan class="cls-96" x="0" y="0">P</tspan><tspan class="cls-59" x="4.7" y="0">a</tspan><tspan class="cls-1" x="8.68" y="0">c</tspan><tspan class="cls-98" x="12.34" y="0">k</tspan><tspan class="cls-82" x="15.8" y="0">e</tspan><tspan x="19.81" y="0">r</tspan></text><text class="cls-24" transform="translate(165.88 246.67)"><tspan class="cls-41" x="0" y="0">M</tspan><tspan class="cls-65" x="6.01" y="0">e</tspan><tspan class="cls-89" x="10.02" y="0">a</tspan><tspan class="cls-64" x="14" y="0">s</tspan><tspan class="cls-92" x="17.58" y="0">u</tspan><tspan class="cls-58" x="21.57" y="0">r</tspan><tspan class="cls-65" x="24" y="0">e</tspan><tspan class="cls-85" x="28.01" y="0">m</tspan><tspan class="cls-65" x="33.96" y="0">e</tspan><tspan class="cls-83" x="37.96" y="0">n</tspan><tspan class="cls-66" x="41.91" y="0">t </tspan><tspan class="cls-74" x="45.8" y="0">p</tspan><tspan class="cls-103" x="49.83" y="0">o</tspan><tspan class="cls-72" x="53.85" y="0">r</tspan><tspan x="56.54" y="0">t </tspan><tspan class="cls-56" x="60.43" y="0">nu</tspan><tspan class="cls-101" x="68.38" y="0">m</tspan><tspan class="cls-44" x="74.32" y="0">b</tspan><tspan class="cls-82" x="78.34" y="0">e</tspan><tspan x="82.35" y="0">r</tspan></text><text class="cls-24" transform="translate(165.88 259.24)"><tspan class="cls-80" x="0" y="0">M</tspan><tspan class="cls-31" x="6.02" y="0">o</tspan><tspan class="cls-43" x="10.04" y="0">n</tspan><tspan class="cls-70" x="14.02" y="0">i</tspan><tspan class="cls-49" x="15.68" y="0">t</tspan><tspan class="cls-103" x="17.69" y="0">o</tspan><tspan class="cls-76" x="21.72" y="0">r</tspan><tspan class="cls-45" x="24.25" y="0">i</tspan><tspan class="cls-94" x="25.91" y="0">n</tspan><tspan x="29.91" y="0">g </tspan><tspan class="cls-88" x="35.75" y="0">z</tspan><tspan class="cls-84" x="39.31" y="0">o</tspan><tspan class="cls-101" x="43.33" y="0">n</tspan><tspan class="cls-75" x="47.33" y="0">e </tspan><tspan class="cls-64" x="53.17" y="0">nu</tspan><tspan class="cls-87" x="61.12" y="0">m</tspan><tspan class="cls-44" x="67.05" y="0">b</tspan><tspan class="cls-82" x="71.07" y="0">e</tspan><tspan x="75.08" y="0">r</tspan></text><text class="cls-24" transform="translate(165.88 221.53)"><tspan class="cls-51" x="0" y="0">M</tspan><tspan class="cls-89" x="5.99" y="0">ul</tspan><tspan class="cls-19" x="11.62" y="0">t</tspan><tspan class="cls-33" x="13.7" y="0">i</tspan><tspan class="cls-74" x="15.36" y="0">p</tspan><tspan class="cls-103" x="19.39" y="0">o</tspan><tspan class="cls-72" x="23.41" y="0">r</tspan><tspan x="26.1" y="0">t </tspan><tspan class="cls-32" x="29.99" y="0">c</tspan><tspan class="cls-89" x="33.71" y="0">a</tspan><tspan class="cls-71" x="37.7" y="0">s</tspan><tspan class="cls-45" x="41.3" y="0">i</tspan><tspan class="cls-65" x="42.95" y="0">n</tspan><tspan x="46.96" y="0">g</tspan></text><text class="cls-24" transform="translate(165.88 271.81)"><tspan class="cls-53" x="0" y="0">S</tspan><tspan class="cls-60" x="4.79" y="0">a</tspan><tspan class="cls-101" x="8.79" y="0">m</tspan><tspan class="cls-85" x="14.72" y="0">pl</tspan><tspan x="20.41" y="0">e </tspan><tspan class="cls-78" x="26.25" y="0">c</tspan><tspan class="cls-103" x="29.97" y="0">o</tspan><tspan class="cls-30" x="33.99" y="0">l</tspan><tspan class="cls-97" x="35.64" y="0">l</tspan><tspan class="cls-91" x="37.32" y="0">e</tspan><tspan class="cls-42" x="41.33" y="0">c</tspan><tspan class="cls-19" x="45.01" y="0">ti</tspan><tspan class="cls-84" x="48.78" y="0">o</tspan><tspan x="52.8" y="0">n </tspan><tspan class="cls-48" x="58.64" y="0">a</tspan><tspan x="62.59" y="0">t </tspan><tspan class="cls-74" x="66.48" y="0">p</tspan><tspan class="cls-63" x="70.51" y="0">o</tspan><tspan class="cls-79" x="74.54" y="0">r</tspan><tspan class="cls-75" x="77.23" y="0">t</tspan></text><text class="cls-24" transform="translate(165.88 208.96)"><tspan class="cls-69" x="0" y="0">W</tspan><tspan class="cls-44" x="6.58" y="0">e</tspan><tspan class="cls-30" x="10.59" y="0">l</tspan><tspan class="cls-75" x="12.24" y="0">l </tspan><tspan class="cls-32" x="15.74" y="0">c</tspan><tspan class="cls-50" x="19.46" y="0">a</tspan><tspan class="cls-47" x="23.45" y="0">si</tspan><tspan class="cls-94" x="28.71" y="0">n</tspan><tspan x="32.71" y="0">g</tspan></text><line class="cls-38" x1="135.23" y1="202.46" x2="135.23" y2="214.96"/><line class="cls-38" x1="149.72" y1="202.46" x2="149.72" y2="214.96"/><rect x="138.94" y="280.41" width="7.09" height="2.65"/><line class="cls-9" x1="146.03" y1="282.57" x2="145.92" y2="202.46"/><line class="cls-9" x1="138.82" y1="202.46" x2="138.94" y2="282.57"/><path class="cls-61" d="M136.34,231.31c0,.76.62,1.38,1.38,1.38h9.52c.76,0,1.38-.62,1.38-1.38s-.62-1.38-1.38-1.38h-9.52c-.76,0-1.38.62-1.38,1.38,0,0,0-.76,0,0Z"/><path class="cls-37" d="M136.34,231.31c0,.76.62,1.38,1.38,1.38h9.52c.76,0,1.38-.62,1.38-1.38s-.62-1.38-1.38-1.38h-9.52c-.76,0-1.38.62-1.38,1.38,0,0,0-.76,0,0Z"/><text class="cls-21" transform="translate(127.83 303.87)"><tspan x="0" y="0">Borehole</tspan></text><line class="cls-4" x1="147.83" y1="335.05" x2="139.74" y2="343.14"/><line class="cls-4" x1="147.83" y1="340.27" x2="144.96" y2="343.14"/><line class="cls-4" x1="142.92" y1="329.52" x2="135.03" y2="337.41"/><line class="cls-4" x1="147.83" y1="329.83" x2="135.03" y2="342.63"/><line class="cls-4" x1="137.7" y1="329.52" x2="135.03" y2="332.19"/><rect class="cls-14" x="135.03" y="329.52" width="12.8" height="13.62"/><text class="cls-24" transform="translate(151.46 338.2)"><tspan class="cls-74" x="0" y="0">B</tspan><tspan class="cls-44" x="4.81" y="0">el</tspan><tspan class="cls-77" x="10.5" y="0">o</tspan><tspan class="cls-75" x="14.47" y="0">w </tspan><tspan class="cls-93" x="21.47" y="0">h</tspan><tspan class="cls-103" x="25.48" y="0">o</tspan><tspan class="cls-97" x="29.51" y="0">l</tspan><tspan class="cls-75" x="31.18" y="0">e </tspan><tspan class="cls-58" x="37.02" y="0">d</tspan><tspan class="cls-95" x="41.01" y="0">e</tspan><tspan class="cls-90" x="45.02" y="0">p</tspan><tspan class="cls-67" x="48.97" y="0">t</tspan><tspan x="51.05" y="0">h</tspan></text><polygon class="cls-17" points="138.4 312.05 141.43 314.9 144.45 312.05 138.4 312.05"/><line class="cls-11" x1="135.03" y1="315.28" x2="136.03" y2="315.28"/><line class="cls-10" x1="138.19" y1="315.28" x2="145.75" y2="315.28"/><line class="cls-11" x1="146.83" y1="315.28" x2="147.83" y2="315.28"/><text class="cls-24" transform="translate(151.46 316.53)"><tspan class="cls-69" x="0" y="0">W</tspan><tspan class="cls-48" x="6.58" y="0">at</tspan><tspan class="cls-82" x="12.54" y="0">e</tspan><tspan x="16.55" y="0">r </tspan><tspan class="cls-97" x="20.83" y="0">l</tspan><tspan class="cls-75" x="22.5" y="0">e</tspan><tspan class="cls-62" x="26.39" y="0">v</tspan><tspan class="cls-53" x="29.9" y="0">e</tspan><tspan x="33.92" y="0">l </tspan><tspan class="cls-85" x="37.42" y="0">m</tspan><tspan class="cls-94" x="43.37" y="0">e</tspan><tspan class="cls-50" x="47.37" y="0">a</tspan><tspan class="cls-64" x="51.36" y="0">s</tspan><tspan class="cls-92" x="54.94" y="0">u</tspan><tspan class="cls-58" x="58.93" y="0">r</tspan><tspan class="cls-31" x="61.36" y="0">e</tspan><tspan x="65.38" y="0">d</tspan><tspan class="cls-81" x="0" y="8.4">o</tspan><tspan class="cls-100" x="4.01" y="8.4">u</tspan><tspan class="cls-86" x="7.99" y="8.4">t</tspan><tspan class="cls-71" x="10.08" y="8.4">s</tspan><tspan class="cls-19" x="13.68" y="8.4">i</tspan><tspan class="cls-58" x="15.37" y="8.4">d</tspan><tspan x="19.37" y="8.4">e </tspan><tspan class="cls-30" x="25.21" y="8.4">mul</tspan><tspan class="cls-19" x="36.77" y="8.4">t</tspan><tspan class="cls-45" x="38.85" y="8.4">i</tspan><tspan class="cls-74" x="40.5" y="8.4">p</tspan><tspan class="cls-63" x="44.53" y="8.4">o</tspan><tspan class="cls-79" x="48.56" y="8.4">r</tspan><tspan class="cls-75" x="51.25" y="8.4">t </tspan><tspan class="cls-32" x="55.13" y="8.4">c</tspan><tspan class="cls-50" x="58.86" y="8.4">a</tspan><tspan class="cls-47" x="62.84" y="8.4">si</tspan><tspan class="cls-94" x="68.1" y="8.4">n</tspan><tspan x="72.1" y="8.4">g</tspan></text><text class="cls-24" transform="translate(165.88 284.38)"><tspan class="cls-51" x="0" y="0">M</tspan><tspan class="cls-89" x="5.99" y="0">ul</tspan><tspan class="cls-19" x="11.62" y="0">t</tspan><tspan class="cls-33" x="13.7" y="0">i</tspan><tspan class="cls-74" x="15.36" y="0">p</tspan><tspan class="cls-103" x="19.39" y="0">o</tspan><tspan class="cls-72" x="23.41" y="0">r</tspan><tspan class="cls-46" x="26.1" y="0">t</tspan><tspan class="cls-73" x="28.14" y="0">-</tspan><tspan class="cls-32" x="30.79" y="0">c</tspan><tspan class="cls-92" x="34.51" y="0">a</tspan><tspan class="cls-71" x="38.49" y="0">s</tspan><tspan class="cls-45" x="42.1" y="0">i</tspan><tspan class="cls-94" x="43.75" y="0">n</tspan><tspan class="cls-75" x="47.75" y="0">g </tspan><tspan class="cls-95" x="53.59" y="0">en</tspan><tspan class="cls-75" x="61.6" y="0">d </tspan><tspan class="cls-32" x="67.44" y="0">c</tspan><tspan class="cls-45" x="71.16" y="0">a</tspan><tspan x="75.15" y="0">p</tspan></text><line class="cls-36" x1="145.97" y1="281.92" x2="163.89" y2="281.92"/><line class="cls-36" x1="163.89" y1="269.35" x2="152.3" y2="269.35"/><polygon class="cls-39" points="150.25 266.98 146.6 269.35 150.25 271.72 150.25 266.98"/></g><g id="Grid"><text class="cls-22" transform="translate(9.42 394.03) rotate(-90) scale(1.26 1)"><tspan x="0" y="0">Depth, in feet below land surface</tspan></text><text class="cls-27" transform="translate(51.33 52.08) rotate(-90) scale(1.16 1)"><tspan x="0" y="0">LITHOLOGY</tspan></text><text class="cls-20" transform="translate(63.14 52.54) scale(.93 1)"><tspan x="0" y="0">Zone</tspan></text><text class="cls-20" transform="translate(94.11 52.54) scale(.93 1)"><tspan x="0" y="0">Port</tspan></text><polyline class="cls-11" points="38.23 57.23 108.44 57.23 38.23 57.23"/><line class="cls-11" x1="58" y1="6.97" x2="58" y2="637.82"/><polygon class="cls-11" points="108.44 637.82 108.44 6.97 38.23 6.97 38.23 6.97 38.23 637.82 108.44 637.82"/></g></svg>