<?xml version="1.0" encoding="UTF-8"?><svg xmlns="http://www.w3.org/2000/svg" viewBox="0 0 252 645"><defs><style>.cls-1{letter-spacing:.02em;}.cls-2,.cls-3,.cls-4,.cls-5,.cls-6,.cls-7,.cls-8,.cls-9,.cls-10,.cls-11,.cls-12,.cls-13{stroke-linejoin:round;}.cls-2,.cls-3,.cls-4,.cls-5,.cls-7,.cls-8,.cls-9,.cls-10,.cls-11,.cls-13{stroke-linecap:round;}.cls-2,.cls-4,.cls-14,.cls-7,.cls-8,.cls-15,.cls-9,.cls-10,.cls-11,.cls-16,.cls-13,.cls-17{stroke:#000;}.cls-2,.cls-14{fill:#bcbdc0;}.cls-2,.cls-7,.cls-9,.cls-18,.cls-13{stroke-width:.25px;}.cls-19{letter-spacing:-.04em;}.cls-20{letter-spacing:.02em;}.cls-21,.cls-22,.cls-23,.cls-24,.cls-25{fill:#231f20;}.cls-21,.cls-26,.cls-27,.cls-23,.cls-25,.cls-28,.cls-29{font-family:ArialMT, Arial;}.cls-21,.cls-26,.cls-27,.cls-28,.cls-30{font-size:6px;}.cls-31{letter-spacing:.01em;}.cls-22,.cls-24{font-family:Arial-BoldMT, Arial;font-weight:700;}.cls-22,.cls-25{font-size:7px;}.cls-32{letter-spacing:.02em;}.cls-33{letter-spacing:.03em;}.cls-34{letter-spacing:.01em;}.cls-35{letter-spacing:.01em;}.cls-36{letter-spacing:.02em;}.cls-37,.cls-3,.cls-4,.cls-5,.cls-14,.cls-16,.cls-12,.cls-17{stroke-width:.35px;}.cls-37,.cls-3,.cls-4,.cls-5,.cls-38,.cls-6,.cls-39,.cls-7,.cls-8,.cls-15,.cls-10,.cls-11,.cls-12,.cls-40{fill:none;}.cls-37,.cls-3,.cls-41,.cls-6,.cls-39,.cls-12,.cls-42{stroke:#241f20;}.cls-37,.cls-14,.cls-15,.cls-16,.cls-17{stroke-miterlimit:90;}.cls-43{letter-spacing:.03em;}.cls-44{letter-spacing:.02em;}.cls-45{letter-spacing:.01em;}.cls-46{letter-spacing:.02em;}.cls-47{letter-spacing:.01em;}.cls-48{letter-spacing:.01em;}.cls-49{letter-spacing:.01em;}.cls-50{letter-spacing:0em;}.cls-26{fill:#212121;}.cls-5,.cls-40{stroke:#231f20;}.cls-51{letter-spacing:.01em;}.cls-52{letter-spacing:.01em;}.cls-27,.cls-29{fill:#241f20;}.cls-53{letter-spacing:.02em;}.cls-54{font-size:5px;}.cls-55{letter-spacing:.02em;}.cls-41{fill:red;}.cls-41,.cls-42{stroke-width:.53px;}.cls-56{letter-spacing:.01em;}.cls-57{letter-spacing:-.07em;}.cls-58{letter-spacing:.01em;}.cls-59{letter-spacing:-.02em;}.cls-6,.cls-39,.cls-15,.cls-10,.cls-11{stroke-width:.5px;}.cls-60{letter-spacing:.02em;}.cls-39{stroke-miterlimit:10;}.cls-61{letter-spacing:.01em;}.cls-62{letter-spacing:-.07em;}.cls-63{letter-spacing:.01em;}.cls-64{fill:#1072ba;}.cls-65{letter-spacing:0em;}.cls-66{letter-spacing:.02em;}.cls-67{letter-spacing:.01em;}.cls-68{letter-spacing:.02em;}.cls-69{letter-spacing:0em;}.cls-70{letter-spacing:.02em;}.cls-71{letter-spacing:0em;}.cls-72{letter-spacing:.01em;}.cls-73{letter-spacing:.01em;}.cls-23,.cls-24{font-size:8px;}.cls-74{letter-spacing:.05em;}.cls-75{letter-spacing:.05em;}.cls-76{letter-spacing:.02em;}.cls-77{letter-spacing:0em;}.cls-9{fill:#f2ad47;}.cls-78{letter-spacing:.03em;}.cls-10{stroke-dasharray:2.16 2.16;}.cls-79{letter-spacing:.01em;}.cls-80{letter-spacing:.03em;}.cls-81{letter-spacing:.05em;}.cls-82{letter-spacing:.03em;}.cls-83{letter-spacing:.02em;}.cls-84{letter-spacing:.02em;}.cls-85{letter-spacing:0em;}.cls-18{fill:#70cddd;stroke:#70cddd;}.cls-86{letter-spacing:.02em;}.cls-16{fill:#fbb041;}.cls-87{letter-spacing:.02em;}.cls-88{letter-spacing:.02em;}.cls-89{letter-spacing:.02em;}.cls-90{letter-spacing:0em;}.cls-91{letter-spacing:.01em;}.cls-92{letter-spacing:0em;}.cls-13{fill:#ece340;}.cls-93{letter-spacing:.02em;}.cls-40{stroke-width:2px;}.cls-94{letter-spacing:.01em;}.cls-95{letter-spacing:.02em;}.cls-42{fill:#fff;}.cls-96{letter-spacing:.02em;}.cls-97{letter-spacing:.02em;}.cls-98{letter-spacing:0em;}.cls-99{letter-spacing:.02em;}.cls-100{letter-spacing:0em;}.cls-101{letter-spacing:.01em;}.cls-102{letter-spacing:.01em;}.cls-103{letter-spacing:.02em;}.cls-104{letter-spacing:-.07em;}.cls-105{letter-spacing:.02em;}.cls-17{fill:#f5eb12;}</style></defs><g id="Completions"><g id="USGS_135"><text class="cls-21" transform="translate(67.23 25.97) scale(1.07 1)"><tspan x="0" y="0">USGS 135</tspan><tspan x="-3.67" y="7.01">MU</tspan><tspan class="cls-104" x="5.67" y="7.01">L</tspan><tspan x="8.56" y="7.01">TILEVE</tspan><tspan class="cls-19" x="29.23" y="7.01">L</tspan><tspan x="-5.49" y="14.01">COMPLETION</tspan></text><text class="cls-27" transform="translate(94.52 256.21) scale(.88 1)"><tspan x="0" y="0">P8</tspan></text><text class="cls-27" transform="translate(94.52 549.46) scale(.88 1)"><tspan x="0" y="0">P1</tspan></text><text class="cls-27" transform="translate(94.52 537.04) scale(.88 1)"><tspan x="0" y="0">P2</tspan></text><text class="cls-27" transform="translate(94.52 478.71) scale(.88 1)"><tspan x="0" y="0">P3</tspan></text><text class="cls-27" transform="translate(94.52 425.64) scale(.88 1)"><tspan x="0" y="0">P4</tspan></text><text class="cls-27" transform="translate(94.52 375.16) scale(.88 1)"><tspan x="0" y="0">P6</tspan></text><text class="cls-27" transform="translate(94.52 324.4) scale(.88 1)"><tspan x="0" y="0">P7</tspan></text><text class="cls-27" transform="translate(94.52 398.8) scale(.88 1)"><tspan x="0" y="0">P5</tspan></text><text class="cls-27" transform="translate(94.52 221.3) scale(.88 1)"><tspan x="0" y="0">P9</tspan></text><text class="cls-27" transform="translate(94.52 205.27) scale(.88 1)"><tspan x="0" y="0">P10</tspan></text><text class="cls-27" transform="translate(94.52 167.12) scale(.88 1)"><tspan x="0" y="0">P</tspan><tspan class="cls-62" x="4" y="0">1</tspan><tspan x="6.89" y="0">1</tspan></text><text class="cls-27" transform="translate(94.52 138.23) scale(.88 1)"><tspan x="0" y="0">P12</tspan></text><text class="cls-27" transform="translate(94.52 105.57) scale(.88 1)"><tspan x="0" y="0">P13</tspan></text><text class="cls-27" transform="translate(94.52 93.54) scale(.88 1)"><tspan x="0" y="0">P14</tspan></text><text class="cls-21" transform="translate(65.08 445.96) scale(.88 1)"><tspan x="0" y="0">Z3</tspan></text><text class="cls-27" transform="translate(65.08 445.96) scale(.88 1)"><tspan x="0" y="0">Z3</tspan></text><text class="cls-21" transform="translate(65.08 503.71) scale(.88 1)"><tspan x="0" y="0">Z2</tspan></text><text class="cls-27" transform="translate(65.08 503.71) scale(.88 1)"><tspan x="0" y="0">Z2</tspan></text><text class="cls-21" transform="translate(65.08 587.25) scale(.88 1)"><tspan x="0" y="0">Z1</tspan></text><text class="cls-27" transform="translate(65.08 587.25) scale(.88 1)"><tspan x="0" y="0">Z1</tspan></text><text class="cls-21" transform="translate(65.08 393.66) scale(.88 1)"><tspan x="0" y="0">Z4</tspan></text><text class="cls-27" transform="translate(65.08 393.66) scale(.88 1)"><tspan x="0" y="0">Z4</tspan></text><text class="cls-21" transform="translate(65.08 285.15) scale(.88 1)"><tspan x="0" y="0">Z6</tspan></text><text class="cls-27" transform="translate(65.08 285.15) scale(.88 1)"><tspan x="0" y="0">Z6</tspan></text><text class="cls-21" transform="translate(65.08 225.18) scale(.88 1)"><tspan x="0" y="0">Z7</tspan></text><text class="cls-27" transform="translate(65.08 225.18) scale(.88 1)"><tspan x="0" y="0">Z7</tspan></text><text class="cls-21" transform="translate(65.08 180.67) scale(.88 1)"><tspan x="0" y="0">Z8</tspan></text><text class="cls-27" transform="translate(65.08 180.67) scale(.88 1)"><tspan x="0" y="0">Z8</tspan></text><text class="cls-21" transform="translate(65.08 146.56) scale(.88 1)"><tspan x="0" y="0">Z9</tspan></text><text class="cls-27" transform="translate(65.08 146.56) scale(.88 1)"><tspan x="0" y="0">Z9</tspan></text><text class="cls-21" transform="translate(62.15 112.7) scale(.88 1)"><tspan x="0" y="0">Z10</tspan></text><text class="cls-27" transform="translate(62.15 112.7) scale(.88 1)"><tspan x="0" y="0">Z10</tspan></text><text class="cls-21" transform="translate(65.08 343.04) scale(.88 1)"><tspan x="0" y="0">Z5</tspan></text><text class="cls-27" transform="translate(65.08 343.04) scale(.88 1)"><tspan x="0" y="0">Z5</tspan></text><text class="cls-26" transform="translate(19.97 117.95) scale(.88 1)"><tspan x="0" y="0">750</tspan></text><text class="cls-26" transform="translate(19.97 176.03) scale(.88 1)"><tspan x="0" y="0">800</tspan></text><text class="cls-26" transform="translate(19.97 234.11) scale(.88 1)"><tspan x="0" y="0">850</tspan></text><text class="cls-26" transform="translate(19.97 292.19) scale(.88 1)"><tspan x="0" y="0">900</tspan></text><text class="cls-26" transform="translate(19.97 350.27) scale(.88 1)"><tspan x="0" y="0">950</tspan></text><text class="cls-26" transform="translate(15.58 408.35) scale(.88 1)"><tspan x="0" y="0">1,000</tspan></text><text class="cls-26" transform="translate(15.58 466.42) scale(.88 1)"><tspan x="0" y="0">1,050</tspan></text><text class="cls-26" transform="translate(15.58 524.5) scale(.88 1)"><tspan x="0" y="0">1,100</tspan></text><text class="cls-26" transform="translate(19.97 59.88) scale(.88 1)"><tspan x="0" y="0">700</tspan></text><text class="cls-26" transform="translate(15.58 582.58) scale(.88 1)"><tspan x="0" y="0">1,150</tspan></text><line class="cls-7" x1="44.58" y1="57.82" x2="44.27" y2="57.82"/><rect class="cls-38" x="44.14" y="57.82" width=".59" height=".24"/><line class="cls-7" x1="44.27" y1="57.82" x2="43.99" y2="58.24"/><rect class="cls-38" x="43.86" y="57.82" width=".56" height=".66"/><rect class="cls-2" x="41.73" y="244.75" width="12.26" height="14.94"/><rect class="cls-9" x="41.73" y="96.56" width="12.26" height="12.39"/><rect class="cls-2" x="41.73" y="108.55" width="12.26" height="11.08"/><rect class="cls-9" x="41.73" y="118.81" width="12.26" height="4.57"/><rect class="cls-2" x="41.73" y="123.33" width="12.26" height="5.25"/><rect class="cls-9" x="41.73" y="128.67" width="12.26" height="2.91"/><rect class="cls-2" x="41.73" y="131.7" width="12.26" height="13.59"/><rect class="cls-9" x="41.73" y="145.75" width="12.26" height="10.19"/><rect class="cls-2" x="41.73" y="156.29" width="12.26" height="14.38"/><rect class="cls-9" x="41.73" y="170.31" width="12.26" height="4.57"/><rect class="cls-2" x="41.73" y="174.98" width="12.26" height="12.46"/><rect class="cls-9" x="41.73" y="187.58" width="12.26" height="7.85"/><rect class="cls-2" x="41.73" y="195.1" width="12.26" height="21.57"/><rect class="cls-9" x="41.73" y="216.67" width="12.26" height="6.02"/><rect class="cls-2" x="41.73" y="222.37" width="12.26" height="4.04"/><rect class="cls-9" x="41.73" y="226.32" width="12.26" height="2.91"/><rect class="cls-2" x="41.73" y="228.55" width="12.26" height="2.84"/><rect class="cls-9" x="41.73" y="230.21" width="12.26" height="7.21"/><rect class="cls-13" x="41.73" y="237.74" width="12.26" height="1.83"/><rect class="cls-9" x="41.73" y="239.42" width="12.26" height="1.66"/><rect class="cls-13" x="41.73" y="240.62" width="12.26" height="1.48"/><rect class="cls-9" x="41.73" y="242.12" width="12.26" height="2.85"/><rect class="cls-13" x="41.73" y="259.69" width="12.26" height="4.78"/><rect class="cls-9" x="41.73" y="264.18" width="12.26" height="42.33"/><rect class="cls-2" x="41.73" y="306.51" width="12.26" height="4.01"/><rect class="cls-9" x="41.73" y="310.12" width="12.26" height="3.99"/><rect class="cls-13" x="41.73" y="314.36" width="12.26" height="5.51"/><rect class="cls-9" x="41.73" y="319.65" width="12.26" height="42.15"/><rect class="cls-13" x="41.73" y="362.01" width="12.26" height="1.79"/><rect class="cls-2" x="41.73" y="363.81" width="12.26" height="11.61"/><rect class="cls-9" x="41.73" y="375.42" width="12.26" height="45.26"/><rect class="cls-2" x="41.73" y="420.49" width="12.26" height="17.37"/><rect class="cls-9" x="41.73" y="437.86" width="12.26" height="3.59"/><rect class="cls-2" x="41.73" y="441.66" width="12.26" height="39.48"/><rect class="cls-9" x="41.73" y="481.14" width="12.26" height="8.21"/><rect class="cls-2" x="41.73" y="489.35" width="12.26" height="57.53"/><rect class="cls-9" x="41.73" y="546.88" width="12.26" height="20.95"/><rect class="cls-2" x="41.73" y="567.83" width="12.26" height="8.26"/><rect class="cls-9" x="41.73" y="576.09" width="12.26" height="7.96"/><rect class="cls-2" x="41.73" y="57.23" width="12.26" height="39.57"/><polyline class="cls-5" points="75.8 532.88 73.64 532.88 73.64 533.08 73.64 534.13 73.64 536.13 73.64 537.77 73.64 540.11 73.64 540.36 73.64 543.14 73.64 546.22 73.64 548.84 73.64 549.07 73.64 551.95 73.64 554.33 73.64 556.65 73.64 556.99 73.64 559.36 73.64 559.46 73.64 561.11 73.64 561.97 73.64 562.81 73.64 564.31 73.64 566.26 73.64 571.69 73.64 573.22 73.64 575.95 73.64 581.84 73.64 635.49 75.8 635.49"/><polyline class="cls-5" points="75.8 530.81 73.64 530.81 73.64 529.47 73.64 527.11 73.64 524.25 73.64 521.77 73.64 517.18 73.64 515.11 73.64 512.92 73.64 512.75 73.64 512.71 73.64 510.38 73.64 509.53 73.64 507.67 73.64 506.1 73.64 504.65 73.64 504.6 73.64 504.11 73.64 503.21 73.64 503.15 73.64 501.31 73.64 499.15 73.64 491.58 73.64 488.96 73.64 474.24 73.64 473.44 75.8 473.44"/><polyline class="cls-5" points="75.8 471.37 73.64 471.37 73.64 470.92 73.64 469.44 73.64 463.05 73.64 461.56 73.64 461.45 73.64 461.19 73.64 460.21 73.64 459.48 73.64 458.73 73.64 458.31 73.64 451.09 73.64 447.34 73.64 443.58 73.64 443.04 73.64 440.87 73.64 440.08 73.64 427.6 73.64 425.16 73.64 424.65 73.64 423.22 73.64 421.48 75.8 421.48"/><polyline class="cls-5" points="75.8 419.4 73.64 419.4 73.64 417.8 73.64 417.14 73.64 411.79 73.64 408.95 73.64 407.24 73.64 405.79 73.64 404.26 73.64 402.41 73.64 395.68 73.64 393.64 73.64 392.96 73.64 390.76 73.64 386.77 73.64 385.95 73.64 384.66 73.64 382.99 73.64 382.14 73.64 381.72 73.64 380.72 73.64 379.14 73.64 377.98 73.64 376.01 73.64 374.38 73.64 372.17 73.64 370.98 75.8 370.98"/><polyline class="cls-12" points="75.8 319.27 73.64 319.27 73.64 320.29 73.64 321.47 73.64 321.73 73.64 321.83 73.64 324.49 73.64 325.33 73.64 329.44 73.64 330.43 73.64 331.92 73.64 333.2 73.64 336.13 73.64 337.08 73.64 338.29 73.64 340.4 73.64 341.72 73.64 344.58 73.64 348.99 73.64 350.24 73.64 351.86 73.64 352.25 73.64 353.5 73.64 354.1 73.64 361.9 73.64 364.58 73.64 368.91 75.8 368.91"/><polyline class="cls-12" points="75.8 250.01 73.64 250.01 73.64 255.07 73.64 257.02 73.64 257.64 73.64 257.66 73.64 259.53 73.64 261.01 73.64 263.35 73.64 265.07 73.64 266.26 73.64 269.22 73.64 271.28 73.64 271.5 73.64 273.91 73.64 274.33 73.64 274.43 73.64 274.77 73.64 275.52 73.64 276.99 73.64 277.81 73.64 278.58 73.64 279.26 73.64 280.71 73.64 281.06 73.64 283.2 73.64 288.58 73.64 291.76 73.64 295.54 73.64 297.13 73.64 298.86 73.64 298.97 73.64 300.09 73.64 301.89 73.64 302 73.64 304.29 73.64 306.36 73.64 309.33 73.64 311.65 73.64 313.91 73.64 317.2 75.8 317.2"/><polyline class="cls-12" points="75.8 163.05 73.64 163.05 73.64 164.81 73.64 169.89 73.64 172.35 73.64 172.96 73.64 173.37 73.64 174.7 73.64 175.82 73.64 176.54 73.64 178.21 73.64 182.15 73.64 183.13 73.64 184.14 73.64 184.94 73.64 185.67 73.64 188.5 73.64 199.21 75.8 199.21"/><polyline class="cls-12" points="75.8 134.08 73.64 134.08 73.64 135.23 73.64 136.75 73.64 141.38 73.64 143.91 73.64 145.31 73.64 148.2 73.64 159.11 73.64 160.98 75.8 160.98"/><polyline class="cls-12" points="75.8 88.75 73.64 88.75 73.64 93.96 73.64 94.88 73.64 96.97 73.64 97.38 73.64 107.78 73.64 110.42 73.64 111.14 73.64 111.58 73.64 111.87 73.64 112.9 73.64 114.39 73.64 114.4 73.64 120.16 73.64 123.27 73.64 125.31 73.64 126.57 73.64 128.2 73.64 130.02 73.64 132 75.8 132"/><polyline class="cls-12" points="75.8 201.28 73.64 201.28 73.64 202.61 73.64 205.23 73.64 212.58 73.64 215.54 73.64 216.31 73.64 218.85 73.64 219.03 73.64 220.05 73.64 220.95 73.64 221.49 73.64 223.4 73.64 223.8 73.64 227.66 73.64 228.15 73.64 228.81 73.64 230.72 73.64 231.98 73.64 232.08 73.64 232.34 73.64 234.91 73.64 235.39 73.64 237.86 73.64 238.25 73.64 239.95 73.64 240.91 73.64 242.31 73.64 244.73 73.64 245.3 73.64 246.71 73.64 247.91 73.64 247.94 75.8 247.94"/><line class="cls-8" x1="87.44" y1="564.96" x2="87.44" y2="57.45"/><line class="cls-8" x1="80.23" y1="57.46" x2="80.23" y2="564.96"/><rect x="80.43" y="562.55" width="7" height="2.88"/><path class="cls-64" d="M77.88,531.84c0,.57.46,1.04,1.04,1.04h10.2c.57,0,1.04-.46,1.04-1.04s-.46-1.04-1.04-1.04h-10.2c-.57,0-1.04.46-1.04,1.04,0,0,0-.57,0,0Z"/><path class="cls-6" d="M77.88,531.84c0,.57.46,1.04,1.04,1.04h10.2c.57,0,1.04-.46,1.04-1.04s-.46-1.04-1.04-1.04h-10.2c-.57,0-1.04.46-1.04,1.04,0,0,0-.57,0,0Z"/><path class="cls-64" d="M77.88,472.4c0,.57.46,1.04,1.04,1.04h10.2c.57,0,1.04-.46,1.04-1.04s-.46-1.04-1.04-1.04h-10.2c-.57,0-1.04.46-1.04,1.04,0,0,0-.57,0,0Z"/><path class="cls-6" d="M77.88,472.4c0,.57.46,1.04,1.04,1.04h10.2c.57,0,1.04-.46,1.04-1.04s-.46-1.04-1.04-1.04h-10.2c-.57,0-1.04.46-1.04,1.04,0,0,0-.57,0,0Z"/><path class="cls-64" d="M77.88,420.44c0,.57.47,1.04,1.04,1.04h10.19c.57,0,1.04-.47,1.04-1.04s-.47-1.04-1.04-1.04h-10.19c-.57,0-1.04.47-1.04,1.04,0,0,0-.57,0,0Z"/><path class="cls-6" d="M77.88,420.44c0,.57.47,1.04,1.04,1.04h10.19c.57,0,1.04-.47,1.04-1.04s-.47-1.04-1.04-1.04h-10.19c-.57,0-1.04.47-1.04,1.04,0,0,0-.57,0,0Z"/><path class="cls-64" d="M77.88,369.94c0,.57.46,1.04,1.04,1.04h10.2c.57,0,1.04-.46,1.04-1.04s-.46-1.04-1.04-1.04h-10.2c-.57,0-1.04.46-1.04,1.04,0,0,0-.57,0,0Z"/><path class="cls-6" d="M77.88,369.94c0,.57.46,1.04,1.04,1.04h10.2c.57,0,1.04-.46,1.04-1.04s-.46-1.04-1.04-1.04h-10.2c-.57,0-1.04.46-1.04,1.04,0,0,0-.57,0,0Z"/><path class="cls-64" d="M77.88,318.23c0,.57.46,1.04,1.04,1.04h10.2c.57,0,1.04-.46,1.04-1.04s-.46-1.04-1.04-1.04h-10.2c-.57,0-1.04.46-1.04,1.04,0,0,0-.57,0,0Z"/><path class="cls-6" d="M77.88,318.23c0,.57.46,1.04,1.04,1.04h10.2c.57,0,1.04-.46,1.04-1.04s-.46-1.04-1.04-1.04h-10.2c-.57,0-1.04.46-1.04,1.04,0,0,0-.57,0,0Z"/><path class="cls-64" d="M77.88,248.97c0,.57.46,1.04,1.04,1.04h10.2c.57,0,1.04-.46,1.04-1.04s-.46-1.04-1.04-1.04h-10.2c-.57,0-1.04.46-1.04,1.04,0,0,0-.57,0,0Z"/><path class="cls-6" d="M77.88,248.97c0,.57.46,1.04,1.04,1.04h10.2c.57,0,1.04-.46,1.04-1.04s-.46-1.04-1.04-1.04h-10.2c-.57,0-1.04.46-1.04,1.04,0,0,0-.57,0,0Z"/><path class="cls-64" d="M77.88,200.24c0,.57.46,1.04,1.04,1.04h10.2c.57,0,1.04-.46,1.04-1.04s-.46-1.04-1.04-1.04h-10.2c-.57,0-1.04.46-1.04,1.04,0,0,0-.57,0,0Z"/><path class="cls-6" d="M77.88,200.24c0,.57.46,1.04,1.04,1.04h10.2c.57,0,1.04-.46,1.04-1.04s-.46-1.04-1.04-1.04h-10.2c-.57,0-1.04.46-1.04,1.04,0,0,0-.57,0,0Z"/><path class="cls-64" d="M77.88,162.01c0,.57.46,1.04,1.04,1.04h10.2c.57,0,1.04-.46,1.04-1.04s-.46-1.04-1.04-1.04h-10.2c-.57,0-1.04.46-1.04,1.04,0,0,0-.57,0,0Z"/><path class="cls-6" d="M77.88,162.01c0,.57.46,1.04,1.04,1.04h10.2c.57,0,1.04-.46,1.04-1.04s-.46-1.04-1.04-1.04h-10.2c-.57,0-1.04.46-1.04,1.04,0,0,0-.57,0,0Z"/><path class="cls-64" d="M77.88,133.04c0,.57.47,1.04,1.04,1.04h10.19c.57,0,1.04-.47,1.04-1.04s-.47-1.04-1.04-1.04h-10.19c-.57,0-1.04.47-1.04,1.04,0,0,0-.57,0,0Z"/><path class="cls-6" d="M77.88,133.04c0,.57.47,1.04,1.04,1.04h10.19c.57,0,1.04-.47,1.04-1.04s-.47-1.04-1.04-1.04h-10.19c-.57,0-1.04.47-1.04,1.04,0,0,0-.57,0,0Z"/><path class="cls-64" d="M77.88,87.71c0,.57.47,1.04,1.04,1.04h10.19c.57,0,1.04-.47,1.04-1.04s-.47-1.04-1.04-1.04h-10.19c-.57,0-1.04.47-1.04,1.04,0,0,0-.57,0,0Z"/><path class="cls-6" d="M77.88,87.71c0,.57.47,1.04,1.04,1.04h10.19c.57,0,1.04-.47,1.04-1.04s-.47-1.04-1.04-1.04h-10.19c-.57,0-1.04.47-1.04,1.04,0,0,0-.57,0,0Z"/><text class="cls-26" transform="translate(15.58 637.72) scale(.88 1)"><tspan x="0" y="0">1,200</tspan></text><line class="cls-11" x1="31.04" y1="57.23" x2="38.24" y2="57.23"/><line class="cls-11" x1="31.04" y1="115.29" x2="38.24" y2="115.29"/><line class="cls-11" x1="31.04" y1="173.34" x2="38.24" y2="173.34"/><line class="cls-11" x1="31.04" y1="231.4" x2="38.24" y2="231.4"/><line class="cls-11" x1="31.04" y1="289.46" x2="38.24" y2="289.46"/><line class="cls-11" x1="31.04" y1="347.52" x2="38.24" y2="347.52"/><line class="cls-11" x1="31.04" y1="405.58" x2="38.24" y2="405.58"/><line class="cls-11" x1="31.04" y1="463.64" x2="38.24" y2="463.64"/><line class="cls-11" x1="31.04" y1="521.7" x2="38.24" y2="521.7"/><line class="cls-11" x1="31.04" y1="579.75" x2="38.24" y2="579.75"/><line class="cls-11" x1="31.04" y1="637.81" x2="38.24" y2="637.81"/><line class="cls-11" x1="34.64" y1="86.26" x2="38.24" y2="86.26"/><line class="cls-11" x1="34.64" y1="144.31" x2="38.24" y2="144.31"/><line class="cls-11" x1="34.64" y1="202.37" x2="38.24" y2="202.37"/><line class="cls-11" x1="34.64" y1="260.43" x2="38.24" y2="260.43"/><line class="cls-11" x1="34.64" y1="318.49" x2="38.24" y2="318.49"/><line class="cls-11" x1="34.64" y1="376.55" x2="38.24" y2="376.55"/><line class="cls-11" x1="34.64" y1="434.61" x2="38.24" y2="434.61"/><line class="cls-11" x1="34.64" y1="492.67" x2="38.24" y2="492.67"/><line class="cls-11" x1="34.64" y1="550.73" x2="38.24" y2="550.73"/><line class="cls-11" x1="34.64" y1="608.78" x2="38.24" y2="608.78"/><polygon class="cls-42" points="91.47 89 87.82 91.38 91.47 93.75 91.47 89"/><polygon class="cls-41" points="91.47 101.16 87.82 103.53 91.47 105.9 91.47 101.16"/><polygon class="cls-42" points="91.47 133.82 87.82 136.19 91.47 138.56 91.47 133.82"/><polygon class="cls-42" points="91.47 162.7 87.82 165.08 91.47 167.45 91.47 162.7"/><polygon class="cls-42" points="91.47 200.85 87.82 203.22 91.47 205.6 91.47 200.85"/><polygon class="cls-41" points="91.47 216.88 87.82 219.26 91.47 221.63 91.47 216.88"/><polygon class="cls-42" points="91.47 251.8 87.82 254.17 91.47 256.54 91.47 251.8"/><polygon class="cls-42" points="91.47 319.99 87.82 322.36 91.47 324.73 91.47 319.99"/><polygon class="cls-42" points="91.47 370.74 87.82 373.12 91.47 375.49 91.47 370.74"/><polygon class="cls-41" points="91.47 394.39 87.82 396.76 91.47 399.13 91.47 394.39"/><polygon class="cls-42" points="91.47 421.22 87.82 423.59 91.47 425.97 91.47 421.22"/><polygon class="cls-42" points="91.47 474.29 87.82 476.66 91.47 479.04 91.47 474.29"/><polygon class="cls-42" points="91.47 532.62 87.82 535 91.47 537.37 91.47 532.62"/><polygon class="cls-41" points="91.47 544.66 87.82 547.03 91.47 549.41 91.47 544.66"/><text class="cls-29" transform="translate(112.5 631.05) scale(.89 1)"><tspan class="cls-30"><tspan x="0" y="0">HOLE DEPTH</tspan></tspan><tspan class="cls-54"><tspan x="0" y="6">1,198 ft</tspan></tspan></text><rect class="cls-11" x="38.24" y="635.49" width="70.21" height="2.33"/><line class="cls-4" x1="108.44" y1="637.11" x2="107.73" y2="637.82"/><line class="cls-4" x1="99.62" y1="635.49" x2="97.29" y2="637.82"/><line class="cls-4" x1="104.84" y1="635.49" x2="102.51" y2="637.82"/><line class="cls-4" x1="89.18" y1="635.49" x2="86.85" y2="637.82"/><line class="cls-4" x1="94.4" y1="635.49" x2="92.07" y2="637.82"/><line class="cls-4" x1="78.74" y1="635.49" x2="76.41" y2="637.82"/><line class="cls-4" x1="83.96" y1="635.49" x2="81.63" y2="637.82"/><line class="cls-4" x1="68.3" y1="635.49" x2="65.97" y2="637.82"/><line class="cls-4" x1="73.52" y1="635.49" x2="71.19" y2="637.82"/><line class="cls-4" x1="57.86" y1="635.49" x2="55.53" y2="637.82"/><line class="cls-4" x1="63.08" y1="635.49" x2="60.75" y2="637.82"/><line class="cls-4" x1="47.42" y1="635.49" x2="45.09" y2="637.82"/><line class="cls-4" x1="52.64" y1="635.49" x2="50.31" y2="637.82"/><line class="cls-4" x1="42.2" y1="635.49" x2="39.87" y2="637.82"/></g></g><g id="Explanation"><text class="cls-24" transform="translate(134.16 104.68)"><tspan x="0" y="0">EXPLAN</tspan><tspan class="cls-57" x="32.45" y="0">A</tspan><tspan x="37.63" y="0">TION</tspan></text><text class="cls-22" transform="translate(127.83 120.81)"><tspan x="0" y="0">Lithology</tspan></text><text class="cls-25" transform="translate(151.46 175.96)"><tspan class="cls-86" x="0" y="0">Se</tspan><tspan class="cls-101" x="8.82" y="0">d</tspan><tspan class="cls-34" x="12.79" y="0">i</tspan><tspan class="cls-87" x="14.44" y="0">m</tspan><tspan class="cls-68" x="20.4" y="0">e</tspan><tspan class="cls-85" x="24.4" y="0">n</tspan><tspan class="cls-69" x="28.34" y="0">t</tspan></text><text class="cls-25" transform="translate(151.46 136.8)"><tspan class="cls-36" x="0" y="0">D</tspan><tspan class="cls-97" x="5.21" y="0">e</tspan><tspan class="cls-52" x="9.21" y="0">n</tspan><tspan class="cls-97" x="13.2" y="0">s</tspan><tspan class="cls-77" x="16.81" y="0">e </tspan><tspan class="cls-48" x="22.65" y="0">ba</tspan><tspan class="cls-105" x="30.62" y="0">s</tspan><tspan class="cls-72" x="34.25" y="0">a</tspan><tspan class="cls-94" x="38.25" y="0">l</tspan><tspan class="cls-69" x="39.89" y="0">t</tspan></text><rect class="cls-14" x="135.03" y="127.47" width="12.8" height="13.62"/><text class="cls-25" transform="translate(151.46 156.38)"><tspan class="cls-59" x="0" y="0">F</tspan><tspan class="cls-86" x="4.17" y="0">r</tspan><tspan class="cls-61" x="6.63" y="0">a</tspan><tspan class="cls-44" x="10.6" y="0">c</tspan><tspan class="cls-56" x="14.27" y="0">t</tspan><tspan class="cls-94" x="16.32" y="0">u</tspan><tspan class="cls-60" x="20.3" y="0">r</tspan><tspan class="cls-32" x="22.74" y="0">e</tspan><tspan class="cls-77" x="26.76" y="0">d </tspan><tspan class="cls-31" x="32.6" y="0">ba</tspan><tspan class="cls-105" x="40.58" y="0">s</tspan><tspan class="cls-35" x="44.21" y="0">a</tspan><tspan class="cls-45" x="48.2" y="0">l</tspan><tspan class="cls-69" x="49.84" y="0">t</tspan></text><rect class="cls-16" x="135.03" y="147.05" width="12.8" height="13.62"/><rect class="cls-17" x="135.03" y="166.63" width="12.8" height="13.62"/><line class="cls-37" x1="145.97" y1="231.31" x2="163.89" y2="231.31"/><text class="cls-22" transform="translate(127.83 196.56)"><tspan x="0" y="0">Completion</tspan></text><line class="cls-37" x1="163.89" y1="244.23" x2="160.3" y2="244.23"/><polyline class="cls-37" points="163.89 256.7 158.64 256.7 134.68 249.75"/><polygon class="cls-42" points="150.25 241.97 146.6 244.34 150.25 246.72 150.25 241.97"/><polyline class="cls-3" points="135.45 287.35 133.29 287.35 133.29 232.69 135.45 232.69"/><text class="cls-21" transform="translate(152.35 246.43) scale(.89 1)"><tspan x="0" y="0">P2</tspan></text><text class="cls-21" transform="translate(125.67 250.93) scale(.89 1)"><tspan x="0" y="0">Z1</tspan></text><text class="cls-27" transform="translate(125.67 250.93) scale(.89 1)"><tspan x="0" y="0">Z1</tspan></text><line class="cls-37" x1="145.97" y1="218.82" x2="163.89" y2="218.82"/><line class="cls-37" x1="150.59" y1="207.2" x2="163.89" y2="207.2"/><text class="cls-25" transform="translate(165.88 234.1)"><tspan class="cls-98" x="0" y="0">P</tspan><tspan class="cls-61" x="4.7" y="0">a</tspan><tspan class="cls-1" x="8.68" y="0">c</tspan><tspan class="cls-100" x="12.34" y="0">k</tspan><tspan class="cls-84" x="15.8" y="0">e</tspan><tspan x="19.81" y="0">r</tspan></text><text class="cls-25" transform="translate(165.88 246.67)"><tspan class="cls-43" x="0" y="0">M</tspan><tspan class="cls-68" x="6.01" y="0">e</tspan><tspan class="cls-91" x="10.02" y="0">a</tspan><tspan class="cls-67" x="14" y="0">s</tspan><tspan class="cls-94" x="17.58" y="0">u</tspan><tspan class="cls-60" x="21.57" y="0">r</tspan><tspan class="cls-68" x="24" y="0">e</tspan><tspan class="cls-87" x="28.01" y="0">m</tspan><tspan class="cls-68" x="33.96" y="0">e</tspan><tspan class="cls-85" x="37.96" y="0">n</tspan><tspan class="cls-69" x="41.91" y="0">t </tspan><tspan class="cls-76" x="45.8" y="0">p</tspan><tspan class="cls-105" x="49.83" y="0">o</tspan><tspan class="cls-74" x="53.85" y="0">r</tspan><tspan x="56.54" y="0">t </tspan><tspan class="cls-58" x="60.43" y="0">nu</tspan><tspan class="cls-103" x="68.38" y="0">m</tspan><tspan class="cls-46" x="74.32" y="0">b</tspan><tspan class="cls-84" x="78.34" y="0">e</tspan><tspan x="82.35" y="0">r</tspan></text><text class="cls-25" transform="translate(165.88 259.24)"><tspan class="cls-82" x="0" y="0">M</tspan><tspan class="cls-32" x="6.02" y="0">o</tspan><tspan class="cls-45" x="10.04" y="0">n</tspan><tspan class="cls-72" x="14.02" y="0">i</tspan><tspan class="cls-51" x="15.68" y="0">t</tspan><tspan class="cls-105" x="17.69" y="0">o</tspan><tspan class="cls-78" x="21.72" y="0">r</tspan><tspan class="cls-47" x="24.25" y="0">i</tspan><tspan class="cls-96" x="25.91" y="0">n</tspan><tspan x="29.91" y="0">g </tspan><tspan class="cls-90" x="35.75" y="0">z</tspan><tspan class="cls-86" x="39.31" y="0">o</tspan><tspan class="cls-103" x="43.33" y="0">n</tspan><tspan class="cls-77" x="47.33" y="0">e </tspan><tspan class="cls-67" x="53.17" y="0">nu</tspan><tspan class="cls-89" x="61.12" y="0">m</tspan><tspan class="cls-46" x="67.05" y="0">b</tspan><tspan class="cls-84" x="71.07" y="0">e</tspan><tspan x="75.08" y="0">r</tspan></text><text class="cls-25" transform="translate(165.88 221.53)"><tspan class="cls-53" x="0" y="0">M</tspan><tspan class="cls-91" x="5.99" y="0">ul</tspan><tspan class="cls-20" x="11.62" y="0">t</tspan><tspan class="cls-34" x="13.7" y="0">i</tspan><tspan class="cls-76" x="15.36" y="0">p</tspan><tspan class="cls-105" x="19.39" y="0">o</tspan><tspan class="cls-74" x="23.41" y="0">r</tspan><tspan x="26.1" y="0">t </tspan><tspan class="cls-33" x="29.99" y="0">c</tspan><tspan class="cls-91" x="33.71" y="0">a</tspan><tspan class="cls-73" x="37.7" y="0">s</tspan><tspan class="cls-47" x="41.3" y="0">i</tspan><tspan class="cls-68" x="42.95" y="0">n</tspan><tspan x="46.96" y="0">g</tspan></text><text class="cls-25" transform="translate(165.88 271.81)"><tspan class="cls-55" x="0" y="0">S</tspan><tspan class="cls-63" x="4.79" y="0">a</tspan><tspan class="cls-103" x="8.79" y="0">m</tspan><tspan class="cls-87" x="14.72" y="0">pl</tspan><tspan x="20.41" y="0">e </tspan><tspan class="cls-80" x="26.25" y="0">c</tspan><tspan class="cls-105" x="29.97" y="0">o</tspan><tspan class="cls-31" x="33.99" y="0">l</tspan><tspan class="cls-99" x="35.64" y="0">l</tspan><tspan class="cls-93" x="37.32" y="0">e</tspan><tspan class="cls-44" x="41.33" y="0">c</tspan><tspan class="cls-20" x="45.01" y="0">ti</tspan><tspan class="cls-86" x="48.78" y="0">o</tspan><tspan x="52.8" y="0">n </tspan><tspan class="cls-50" x="58.64" y="0">a</tspan><tspan x="62.59" y="0">t </tspan><tspan class="cls-76" x="66.48" y="0">p</tspan><tspan class="cls-66" x="70.51" y="0">o</tspan><tspan class="cls-81" x="74.54" y="0">r</tspan><tspan class="cls-77" x="77.23" y="0">t</tspan></text><text class="cls-25" transform="translate(165.88 208.96)"><tspan class="cls-71" x="0" y="0">W</tspan><tspan class="cls-46" x="6.58" y="0">e</tspan><tspan class="cls-31" x="10.59" y="0">l</tspan><tspan class="cls-77" x="12.24" y="0">l </tspan><tspan class="cls-33" x="15.74" y="0">c</tspan><tspan class="cls-52" x="19.46" y="0">a</tspan><tspan class="cls-49" x="23.45" y="0">si</tspan><tspan class="cls-96" x="28.71" y="0">n</tspan><tspan x="32.71" y="0">g</tspan></text><line class="cls-40" x1="135.23" y1="202.46" x2="135.23" y2="214.96"/><line class="cls-40" x1="149.72" y1="202.46" x2="149.72" y2="214.96"/><rect x="138.94" y="280.41" width="7.09" height="2.65"/><line class="cls-8" x1="146.03" y1="282.57" x2="145.92" y2="202.46"/><line class="cls-8" x1="138.82" y1="202.46" x2="138.94" y2="282.57"/><path class="cls-64" d="M136.34,231.31c0,.76.62,1.38,1.38,1.38h9.52c.76,0,1.38-.62,1.38-1.38s-.62-1.38-1.38-1.38h-9.52c-.76,0-1.38.62-1.38,1.38,0,0,0-.76,0,0Z"/><path class="cls-39" d="M136.34,231.31c0,.76.62,1.38,1.38,1.38h9.52c.76,0,1.38-.62,1.38-1.38s-.62-1.38-1.38-1.38h-9.52c-.76,0-1.38.62-1.38,1.38,0,0,0-.76,0,0Z"/><text class="cls-22" transform="translate(127.83 303.87)"><tspan x="0" y="0">Borehole</tspan></text><line class="cls-4" x1="147.83" y1="335.05" x2="139.74" y2="343.14"/><line class="cls-4" x1="147.83" y1="340.27" x2="144.96" y2="343.14"/><line class="cls-4" x1="142.92" y1="329.52" x2="135.03" y2="337.41"/><line class="cls-4" x1="147.83" y1="329.83" x2="135.03" y2="342.63"/><line class="cls-4" x1="137.7" y1="329.52" x2="135.03" y2="332.19"/><rect class="cls-15" x="135.03" y="329.52" width="12.8" height="13.62"/><text class="cls-25" transform="translate(151.46 338.2)"><tspan class="cls-76" x="0" y="0">B</tspan><tspan class="cls-46" x="4.81" y="0">el</tspan><tspan class="cls-79" x="10.5" y="0">o</tspan><tspan class="cls-77" x="14.47" y="0">w </tspan><tspan class="cls-95" x="21.47" y="0">h</tspan><tspan class="cls-105" x="25.48" y="0">o</tspan><tspan class="cls-99" x="29.51" y="0">l</tspan><tspan class="cls-77" x="31.18" y="0">e </tspan><tspan class="cls-60" x="37.02" y="0">d</tspan><tspan class="cls-97" x="41.01" y="0">e</tspan><tspan class="cls-92" x="45.02" y="0">p</tspan><tspan class="cls-70" x="48.97" y="0">t</tspan><tspan x="51.05" y="0">h</tspan></text><polygon class="cls-18" points="138.4 312.05 141.43 314.9 144.45 312.05 138.4 312.05"/><line class="cls-11" x1="135.03" y1="315.28" x2="136.03" y2="315.28"/><line class="cls-10" x1="138.19" y1="315.28" x2="145.75" y2="315.28"/><line class="cls-11" x1="146.83" y1="315.28" x2="147.83" y2="315.28"/><text class="cls-25" transform="translate(151.46 316.53)"><tspan class="cls-71" x="0" y="0">W</tspan><tspan class="cls-50" x="6.58" y="0">at</tspan><tspan class="cls-84" x="12.54" y="0">e</tspan><tspan x="16.55" y="0">r </tspan><tspan class="cls-99" x="20.83" y="0">l</tspan><tspan class="cls-77" x="22.5" y="0">e</tspan><tspan class="cls-65" x="26.39" y="0">v</tspan><tspan class="cls-55" x="29.9" y="0">e</tspan><tspan x="33.92" y="0">l </tspan><tspan class="cls-87" x="37.42" y="0">m</tspan><tspan class="cls-96" x="43.37" y="0">e</tspan><tspan class="cls-52" x="47.37" y="0">a</tspan><tspan class="cls-67" x="51.36" y="0">s</tspan><tspan class="cls-94" x="54.94" y="0">u</tspan><tspan class="cls-60" x="58.93" y="0">r</tspan><tspan class="cls-32" x="61.36" y="0">e</tspan><tspan x="65.38" y="0">d</tspan><tspan class="cls-83" x="0" y="8.4">o</tspan><tspan class="cls-102" x="4.01" y="8.4">u</tspan><tspan class="cls-88" x="7.99" y="8.4">t</tspan><tspan class="cls-73" x="10.08" y="8.4">s</tspan><tspan class="cls-20" x="13.68" y="8.4">i</tspan><tspan class="cls-60" x="15.37" y="8.4">d</tspan><tspan x="19.37" y="8.4">e </tspan><tspan class="cls-31" x="25.21" y="8.4">mul</tspan><tspan class="cls-20" x="36.77" y="8.4">t</tspan><tspan class="cls-47" x="38.85" y="8.4">i</tspan><tspan class="cls-76" x="40.5" y="8.4">p</tspan><tspan class="cls-66" x="44.53" y="8.4">o</tspan><tspan class="cls-81" x="48.56" y="8.4">r</tspan><tspan class="cls-77" x="51.25" y="8.4">t </tspan><tspan class="cls-33" x="55.13" y="8.4">c</tspan><tspan class="cls-52" x="58.86" y="8.4">a</tspan><tspan class="cls-49" x="62.84" y="8.4">si</tspan><tspan class="cls-96" x="68.1" y="8.4">n</tspan><tspan x="72.1" y="8.4">g</tspan></text><text class="cls-25" transform="translate(165.88 284.38)"><tspan class="cls-53" x="0" y="0">M</tspan><tspan class="cls-91" x="5.99" y="0">ul</tspan><tspan class="cls-20" x="11.62" y="0">t</tspan><tspan class="cls-34" x="13.7" y="0">i</tspan><tspan class="cls-76" x="15.36" y="0">p</tspan><tspan class="cls-105" x="19.39" y="0">o</tspan><tspan class="cls-74" x="23.41" y="0">r</tspan><tspan class="cls-48" x="26.1" y="0">t</tspan><tspan class="cls-75" x="28.14" y="0">-</tspan><tspan class="cls-33" x="30.79" y="0">c</tspan><tspan class="cls-94" x="34.51" y="0">a</tspan><tspan class="cls-73" x="38.49" y="0">s</tspan><tspan class="cls-47" x="42.1" y="0">i</tspan><tspan class="cls-96" x="43.75" y="0">n</tspan><tspan class="cls-77" x="47.75" y="0">g </tspan><tspan class="cls-97" x="53.59" y="0">en</tspan><tspan class="cls-77" x="61.6" y="0">d </tspan><tspan class="cls-33" x="67.44" y="0">c</tspan><tspan class="cls-47" x="71.16" y="0">a</tspan><tspan x="75.15" y="0">p</tspan></text><line class="cls-37" x1="145.97" y1="281.92" x2="163.89" y2="281.92"/><line class="cls-37" x1="163.89" y1="269.35" x2="152.3" y2="269.35"/><polygon class="cls-41" points="150.25 266.98 146.6 269.35 150.25 271.72 150.25 266.98"/></g><g id="Grid"><text class="cls-23" transform="translate(9.42 394.03) rotate(-90) scale(1.26 1)"><tspan x="0" y="0">Depth, in feet below land surface</tspan></text><text class="cls-28" transform="translate(51.33 52.08) rotate(-90) scale(1.16 1)"><tspan x="0" y="0">LITHOLOGY</tspan></text><text class="cls-21" transform="translate(63.14 52.54) scale(.93 1)"><tspan x="0" y="0">Zone</tspan></text><text class="cls-21" transform="translate(94.11 52.54) scale(.93 1)"><tspan x="0" y="0">Port</tspan></text><polyline class="cls-11" points="38.23 57.23 108.44 57.23 38.23 57.23"/><line class="cls-11" x1="58" y1="6.97" x2="58" y2="637.82"/><polygon class="cls-11" points="108.44 637.82 108.44 6.97 38.23 6.97 38.23 6.97 38.23 637.82 108.44 637.82"/></g></svg>