<?xml version="1.0" encoding="UTF-8"?><svg xmlns="http://www.w3.org/2000/svg" viewBox="0 0 252 645"><defs><style>.cls-1{letter-spacing:.02em;}.cls-2,.cls-3,.cls-4,.cls-5,.cls-6,.cls-7,.cls-8,.cls-9,.cls-10,.cls-11,.cls-12{stroke-linejoin:round;}.cls-2,.cls-3,.cls-4,.cls-5,.cls-7,.cls-9,.cls-10,.cls-11,.cls-12{stroke-linecap:round;}.cls-2,.cls-4,.cls-13,.cls-7,.cls-9,.cls-14,.cls-10,.cls-11,.cls-15,.cls-12,.cls-16{stroke:#000;}.cls-2,.cls-13{fill:#bcbdc0;}.cls-2,.cls-7,.cls-17,.cls-12{stroke-width:.25px;}.cls-18{letter-spacing:-.04em;}.cls-19{letter-spacing:.02em;}.cls-20,.cls-21,.cls-22,.cls-23,.cls-24{fill:#231f20;}.cls-20,.cls-25,.cls-26,.cls-22,.cls-24,.cls-27,.cls-28,.cls-29{font-family:ArialMT, Arial;}.cls-20,.cls-25,.cls-26,.cls-27,.cls-30,.cls-29{font-size:6px;}.cls-31{letter-spacing:.01em;}.cls-21,.cls-23{font-family:Arial-BoldMT, Arial;font-weight:700;}.cls-21,.cls-24{font-size:7px;}.cls-32{letter-spacing:.02em;}.cls-33{letter-spacing:.03em;}.cls-34{letter-spacing:.01em;}.cls-35{letter-spacing:.01em;}.cls-36{letter-spacing:.02em;}.cls-37,.cls-3,.cls-4,.cls-5,.cls-6,.cls-13,.cls-15,.cls-16{stroke-width:.35px;}.cls-37,.cls-3,.cls-4,.cls-5,.cls-6,.cls-8,.cls-38,.cls-9,.cls-14,.cls-10,.cls-11,.cls-39{fill:none;}.cls-37,.cls-3,.cls-40,.cls-8,.cls-38,.cls-41{stroke:#241f20;}.cls-37,.cls-13,.cls-14,.cls-15,.cls-16{stroke-miterlimit:90;}.cls-42{letter-spacing:.03em;}.cls-43{letter-spacing:.02em;}.cls-44{letter-spacing:.01em;}.cls-45{letter-spacing:.02em;}.cls-46{letter-spacing:.01em;}.cls-47{letter-spacing:.01em;}.cls-48{letter-spacing:.01em;}.cls-49{letter-spacing:0em;}.cls-25{fill:#212121;}.cls-5,.cls-6,.cls-39{stroke:#231f20;}.cls-50{letter-spacing:.01em;}.cls-51{letter-spacing:.01em;}.cls-26,.cls-28{fill:#241f20;}.cls-52{letter-spacing:.02em;}.cls-53{font-size:5px;}.cls-54{letter-spacing:.02em;}.cls-40{fill:red;}.cls-40,.cls-41{stroke-width:.53px;}.cls-55{letter-spacing:.01em;}.cls-56{letter-spacing:-.07em;}.cls-57{letter-spacing:.01em;}.cls-7,.cls-15{fill:#fbb041;}.cls-58{letter-spacing:-.02em;}.cls-8,.cls-38,.cls-14,.cls-10,.cls-11{stroke-width:.5px;}.cls-59{letter-spacing:.02em;}.cls-38{stroke-miterlimit:10;}.cls-60{letter-spacing:.01em;}.cls-61{letter-spacing:.01em;}.cls-62{fill:#1072ba;}.cls-63{letter-spacing:0em;}.cls-64{letter-spacing:.02em;}.cls-65{letter-spacing:.01em;}.cls-66{letter-spacing:.02em;}.cls-67{letter-spacing:0em;}.cls-68{letter-spacing:.02em;}.cls-69{letter-spacing:0em;}.cls-70{letter-spacing:.01em;}.cls-71{letter-spacing:.01em;}.cls-22,.cls-23{font-size:8px;}.cls-72{letter-spacing:-.07em;}.cls-73{letter-spacing:.05em;}.cls-74{letter-spacing:.05em;}.cls-75{letter-spacing:.02em;}.cls-76{letter-spacing:0em;}.cls-77{letter-spacing:.03em;}.cls-10{stroke-dasharray:2.16 2.16;}.cls-78{letter-spacing:.01em;}.cls-79{letter-spacing:.03em;}.cls-80{letter-spacing:.05em;}.cls-81{letter-spacing:.03em;}.cls-82{letter-spacing:.02em;}.cls-83{letter-spacing:.02em;}.cls-84{letter-spacing:0em;}.cls-17{fill:#70cddd;stroke:#70cddd;}.cls-85{letter-spacing:.02em;}.cls-86{letter-spacing:.02em;}.cls-87{letter-spacing:.02em;}.cls-88{letter-spacing:.02em;}.cls-89{letter-spacing:0em;}.cls-90{letter-spacing:.01em;}.cls-91{letter-spacing:0em;}.cls-92{letter-spacing:.02em;}.cls-39{stroke-width:2px;}.cls-93{letter-spacing:.01em;}.cls-12,.cls-16{fill:#f5eb12;}.cls-94{letter-spacing:.02em;}.cls-95{letter-spacing:-.07em;}.cls-41,.cls-29{fill:#fff;}.cls-96{letter-spacing:.02em;}.cls-97{letter-spacing:.02em;}.cls-98{letter-spacing:0em;}.cls-99{letter-spacing:.02em;}.cls-100{letter-spacing:0em;}.cls-101{letter-spacing:.01em;}.cls-102{letter-spacing:.01em;}.cls-103{letter-spacing:.02em;}.cls-104{letter-spacing:-.07em;}.cls-105{letter-spacing:.02em;}</style></defs><g id="Completions"><g id="USGS_134"><line class="cls-9" x1="87.44" y1="57.76" x2="87.44" y2="616.9"/><text class="cls-26" transform="translate(94.52 67.37) scale(1.07 1)"><tspan x="0" y="0">P20</tspan></text><text class="cls-26" transform="translate(94.52 108.49) scale(1.07 1)"><tspan x="0" y="0">P19</tspan></text><text class="cls-26" transform="translate(94.52 132.23) scale(1.07 1)"><tspan x="0" y="0">P18</tspan></text><text class="cls-26" transform="translate(94.52 152.25) scale(1.07 1)"><tspan x="0" y="0">P17</tspan></text><text class="cls-26" transform="translate(94.52 208.73) scale(1.07 1)"><tspan x="0" y="0">P16</tspan></text><text class="cls-26" transform="translate(94.52 220.06) scale(1.07 1)"><tspan x="0" y="0">P15</tspan></text><text class="cls-26" transform="translate(94.52 235.42) scale(1.07 1)"><tspan x="0" y="0">P14</tspan></text><text class="cls-26" transform="translate(94.52 252.03) scale(1.07 1)"><tspan x="0" y="0">P13</tspan></text><text class="cls-26" transform="translate(94.52 295.17) scale(1.07 1)"><tspan x="0" y="0">P12</tspan></text><text class="cls-26" transform="translate(94.52 321.08) scale(1.07 1)"><tspan x="0" y="0">P</tspan><tspan class="cls-72" x="4" y="0">1</tspan><tspan x="6.89" y="0">1</tspan></text><text class="cls-26" transform="translate(94.52 348.55) scale(1.07 1)"><tspan x="0" y="0">P10</tspan></text><text class="cls-26" transform="translate(94.52 388.27) scale(1.07 1)"><tspan x="0" y="0">P9</tspan></text><text class="cls-26" transform="translate(94.52 446.62) scale(1.07 1)"><tspan x="0" y="0">P8</tspan></text><text class="cls-26" transform="translate(94.52 487.12) scale(1.07 1)"><tspan x="0" y="0">P7</tspan></text><text class="cls-26" transform="translate(94.52 511.33) scale(1.07 1)"><tspan x="0" y="0">P6</tspan></text><text class="cls-26" transform="translate(94.52 527.93) scale(1.07 1)"><tspan x="0" y="0">P5</tspan></text><text class="cls-26" transform="translate(94.52 552.69) scale(1.07 1)"><tspan x="0" y="0">P4</tspan></text><text class="cls-26" transform="translate(94.52 594.5) scale(1.07 1)"><tspan x="0" y="0">P2</tspan></text><text class="cls-26" transform="translate(94.52 610.95) scale(1.07 1)"><tspan x="0" y="0">P1</tspan></text><text class="cls-20" transform="translate(67.23 25.97) scale(1.07 1)"><tspan x="0" y="0">USGS 134</tspan><tspan x="-3.67" y="7.01">MU</tspan><tspan class="cls-104" x="5.67" y="7.01">L</tspan><tspan x="8.56" y="7.01">TILEVE</tspan><tspan class="cls-18" x="29.23" y="7.01">L</tspan><tspan x="-5.49" y="14.01">COMPLETION</tspan></text><text class="cls-29" transform="translate(63.74 570.73) scale(1.07 1)"><tspan x="0" y="0">Z3</tspan></text><text class="cls-26" transform="translate(63.74 570.73) scale(1.07 1)"><tspan x="0" y="0">Z3</tspan></text><text class="cls-29" transform="translate(63.74 599.42) scale(1.07 1)"><tspan x="0" y="0">Z2</tspan></text><text class="cls-26" transform="translate(63.74 599.42) scale(1.07 1)"><tspan x="0" y="0">Z2</tspan></text><text class="cls-29" transform="translate(63.74 613.25) scale(1.07 1)"><tspan x="0" y="0">Z1</tspan></text><text class="cls-26" transform="translate(63.74 613.25) scale(1.07 1)"><tspan x="0" y="0">Z1</tspan></text><text class="cls-29" transform="translate(63.74 536.56) scale(1.07 1)"><tspan x="0" y="0">Z4</tspan></text><text class="cls-26" transform="translate(63.74 536.56) scale(1.07 1)"><tspan x="0" y="0">Z4</tspan></text><text class="cls-29" transform="translate(63.74 515.51) scale(1.07 1)"><tspan x="0" y="0">Z5</tspan></text><text class="cls-26" transform="translate(63.74 515.51) scale(1.07 1)"><tspan x="0" y="0">Z5</tspan></text><text class="cls-29" transform="translate(63.74 477.01) scale(1.07 1)"><tspan x="0" y="0">Z6</tspan></text><text class="cls-26" transform="translate(63.74 477.01) scale(1.07 1)"><tspan x="0" y="0">Z6</tspan></text><text class="cls-29" transform="translate(63.74 412.62) scale(1.07 1)"><tspan x="0" y="0">Z7</tspan></text><text class="cls-26" transform="translate(63.74 412.62) scale(1.07 1)"><tspan x="0" y="0">Z7</tspan></text><text class="cls-29" transform="translate(63.74 316.7) scale(1.07 1)"><tspan x="0" y="0">Z9</tspan></text><text class="cls-26" transform="translate(63.74 316.7) scale(1.07 1)"><tspan x="0" y="0">Z9</tspan></text><text class="cls-29" transform="translate(60.17 268.27) scale(1.07 1)"><tspan x="0" y="0">Z10</tspan></text><text class="cls-26" transform="translate(60.17 268.27) scale(1.07 1)"><tspan x="0" y="0">Z10</tspan></text><text class="cls-29" transform="translate(60.65 239.38) scale(1.07 1)"><tspan x="0" y="0">Z</tspan><tspan class="cls-95" x="3.67" y="0">1</tspan><tspan x="6.56" y="0">1</tspan></text><text class="cls-26" transform="translate(60.65 239.38) scale(1.07 1)"><tspan x="0" y="0">Z</tspan><tspan class="cls-95" x="3.67" y="0">1</tspan><tspan x="6.56" y="0">1</tspan></text><text class="cls-29" transform="translate(60.17 217.09) scale(1.07 1)"><tspan x="0" y="0">Z12</tspan></text><text class="cls-26" transform="translate(60.17 217.09) scale(1.07 1)"><tspan x="0" y="0">Z12</tspan></text><text class="cls-29" transform="translate(60.17 174.71) scale(1.07 1)"><tspan x="0" y="0">Z13</tspan></text><text class="cls-26" transform="translate(60.17 174.71) scale(1.07 1)"><tspan x="0" y="0">Z13</tspan></text><text class="cls-29" transform="translate(60.17 138.21) scale(1.07 1)"><tspan x="0" y="0">Z14</tspan></text><text class="cls-26" transform="translate(60.17 138.21) scale(1.07 1)"><tspan x="0" y="0">Z14</tspan></text><text class="cls-29" transform="translate(60.17 92.91) scale(1.07 1)"><tspan x="0" y="0">Z15</tspan></text><text class="cls-26" transform="translate(60.17 92.91) scale(1.07 1)"><tspan x="0" y="0">Z15</tspan></text><text class="cls-29" transform="translate(63.74 362.69) scale(1.07 1)"><tspan x="0" y="0">Z8</tspan></text><text class="cls-26" transform="translate(63.74 362.69) scale(1.07 1)"><tspan x="0" y="0">Z8</tspan></text><rect class="cls-2" x="41.73" y="57.23" width="12.8" height="28.2"/><rect class="cls-7" x="41.73" y="85.43" width="12.8" height="24.88"/><rect class="cls-2" x="41.73" y="110.31" width="12.8" height="16.6"/><rect class="cls-7" x="41.73" y="126.89" width="12.8" height="13.28"/><rect class="cls-2" x="41.73" y="140.16" width="12.8" height="14.93"/><rect class="cls-7" x="41.73" y="155.09" width="12.8" height="13.27"/><rect class="cls-12" x="41.73" y="168.36" width="12.8" height="3.32"/><rect class="cls-7" x="41.73" y="171.68" width="12.8" height="11.6"/><rect class="cls-2" x="41.73" y="183.29" width="12.8" height="64.7"/><rect class="cls-7" x="41.73" y="247.99" width="12.8" height="11.6"/><rect class="cls-12" x="41.73" y="259.59" width="12.8" height="6.63"/><rect class="cls-7" x="41.73" y="266.24" width="12.8" height="3.32"/><rect class="cls-2" x="41.73" y="269.56" width="12.8" height="24.88"/><rect class="cls-7" x="41.73" y="294.44" width="12.8" height="41.48"/><rect class="cls-2" x="41.73" y="335.92" width="12.8" height="11.6"/><rect class="cls-7" x="41.73" y="347.52" width="12.8" height="11.6"/><rect class="cls-12" x="41.73" y="359.12" width="12.8" height="1.65"/><rect class="cls-7" x="41.73" y="360.8" width="12.8" height="9.95"/><rect class="cls-2" x="41.73" y="370.74" width="12.8" height="19.9"/><rect class="cls-7" x="41.73" y="390.65" width="12.8" height="44.78"/><rect class="cls-2" x="41.73" y="435.45" width="12.8" height="11.6"/><rect class="cls-7" x="41.73" y="447.05" width="12.8" height="19.9"/><rect class="cls-2" x="41.73" y="466.95" width="12.8" height="11.6"/><rect class="cls-7" x="41.73" y="478.57" width="12.8" height="19.91"/><rect class="cls-2" x="41.73" y="498.48" width="12.8" height="29.85"/><rect class="cls-12" x="41.73" y="528.33" width="12.8" height="3.32"/><rect class="cls-7" x="41.73" y="531.65" width="12.8" height="9.95"/><rect class="cls-2" x="41.73" y="541.61" width="12.8" height="8.29"/><rect class="cls-7" x="41.73" y="549.9" width="12.8" height="31.53"/><rect class="cls-2" x="41.73" y="581.41" width="12.8" height="26.55"/><rect class="cls-7" x="41.73" y="607.96" width="12.8" height="29.85"/><polyline class="cls-5" points="75.8 549.24 73.64 549.24 73.64 549.47 73.64 552.35 73.64 554.72 73.64 557.04 73.64 557.38 73.64 559.74 73.64 559.84 73.64 561.49 73.64 562.35 73.64 563.19 73.64 564.69 73.64 566.63 73.64 572.05 73.64 573.58 73.64 576.31 73.64 582.19 73.64 584.39 73.64 584.79 73.64 585.59 73.64 588.1 75.8 588.1"/><polyline class="cls-6" points="75.8 345.02 73.64 345.02 73.64 349.45 73.64 350.7 73.64 352.32 73.64 352.71 73.64 353.97 73.64 354.57 73.64 362.39 73.64 365.09 73.64 369.43 73.64 371.11 73.64 372.3 73.64 374.52 73.64 376.15 73.64 378.12 73.64 379.28 73.64 380.87 73.64 381.87 75.8 381.87"/><polyline class="cls-5" points="75.8 607.43 73.64 607.43 73.64 625.28 73.64 632.42 73.64 637.72 75.8 637.72"/><polyline class="cls-5" points="75.8 590.98 73.64 590.98 73.64 597.23 73.64 598.53 73.64 599.64 73.64 599.73 73.64 601.35 73.64 601.62 73.64 601.77 73.64 604.54 75.8 604.54"/><polyline class="cls-5" points="75.8 524.41 73.64 524.41 73.64 527.25 73.64 529.58 73.64 530.9 73.64 531.84 73.64 533.11 73.64 533.3 73.64 534.35 73.64 536.34 73.64 537.96 73.64 540.28 73.64 540.53 73.64 543.3 73.64 546.35 75.8 546.35"/><polyline class="cls-5" points="75.8 507.8 73.64 507.8 73.64 509.61 73.64 510.43 73.64 512.71 73.64 512.75 73.64 512.91 73.64 515.04 73.64 517.05 73.64 521.52 75.8 521.52"/><polyline class="cls-5" points="75.8 443.1 73.64 443.1 73.64 443.65 73.64 447.45 73.64 451.24 73.64 458.54 73.64 458.96 73.64 459.73 73.64 460.46 73.64 461.46 73.64 461.72 73.64 461.83 73.64 463.34 73.64 469.8 73.64 471.3 73.64 471.75 73.64 472.24 73.64 473.53 73.64 474.34 73.64 489.17 73.64 491.81 73.64 499.44 73.64 501.61 73.64 503.46 73.64 503.52 73.64 504.43 73.64 504.92 75.8 504.92"/><polyline class="cls-5" points="75.8 384.75 73.64 384.75 73.64 386.04 73.64 386.86 73.64 390.84 73.64 393.04 73.64 393.72 73.64 395.75 73.64 402.47 73.64 404.32 73.64 405.85 73.64 407.3 73.64 409.01 73.64 411.85 73.64 417.19 73.64 417.85 73.64 419.44 73.64 419.6 73.64 420.73 73.64 421.54 73.64 423.29 73.64 424.72 73.64 425.23 73.64 427.68 73.64 440.21 75.8 440.21"/><polyline class="cls-6" points="75.8 291.65 73.64 291.65 73.64 295.46 73.64 297.05 73.64 298.79 73.64 298.9 73.64 300.02 73.64 301.83 73.64 301.94 73.64 304.25 73.64 306.33 73.64 309.31 73.64 311.64 73.64 313.92 73.64 317.23 73.64 318.37 73.64 318.56 73.64 319.57 73.64 320.59 73.64 321.78 73.64 322.04 73.64 322.14 73.64 324.82 73.64 325.66 73.64 329.79 73.64 330.78 73.64 332.29 73.64 333.57 73.64 336.52 73.64 337.47 73.64 338.69 73.64 340.81 73.64 342.14 75.8 342.14"/><polyline class="cls-6" points="75.8 248.51 73.64 248.51 73.64 250.05 73.64 250.1 73.64 255.18 73.64 257.13 73.64 257.75 73.64 257.77 73.64 259.64 73.64 261.13 73.64 263.47 73.64 265.2 73.64 266.39 73.64 269.36 73.64 271.42 73.64 271.64 73.64 274.06 73.64 274.48 73.64 274.58 73.64 274.92 73.64 275.67 73.64 277.15 73.64 277.97 73.64 278.74 73.64 279.42 73.64 280.87 73.64 281.22 73.64 283.36 73.64 288.76 75.8 288.76"/><polyline class="cls-6" points="75.8 231.9 73.64 231.9 73.64 232 73.64 232.27 73.64 234.92 73.64 235.42 73.64 237.96 73.64 238.36 73.64 240.11 73.64 241.1 73.64 242.54 73.64 245.04 73.64 245.62 75.8 245.62"/><polyline class="cls-6" points="75.8 128.71 73.64 128.71 73.64 130.53 73.64 132.5 73.64 132.95 73.64 134.26 73.64 135.44 73.64 137.01 73.64 141.79 73.64 144.39 73.64 145.84 75.8 145.84"/><polyline class="cls-6" points="75.8 63.85 73.64 63.85 73.64 66.16 73.64 68.2 73.64 68.86 73.64 69.8 73.64 70.5 73.64 75.51 73.64 79.4 73.64 89.47 73.64 94.65 73.64 95.56 73.64 97.65 73.64 98.05 73.64 108.4 73.64 111.02 73.64 111.74 73.64 112.18 73.64 112.46 73.64 113.49 73.64 114.97 73.64 114.98 73.64 120.71 73.64 123.8 73.64 125.83 75.8 125.83"/><polyline class="cls-6" points="75.8 205.21 73.64 205.21 73.64 212.63 73.64 215.62 73.64 216.4 73.64 218.97 73.64 219.15 73.64 220.17 73.64 221.08 73.64 221.63 73.64 223.56 73.64 223.96 73.64 227.86 73.64 228.35 73.64 229.02 75.8 229.02"/><polyline class="cls-6" points="75.8 148.73 73.64 148.73 73.64 159.93 73.64 161.85 73.64 161.95 73.64 162.92 73.64 163.26 73.64 165.03 73.64 170.14 73.64 172.61 73.64 173.22 73.64 173.63 73.64 174.97 73.64 176.1 73.64 176.82 73.64 178.49 73.64 182.46 73.64 183.43 73.64 184.45 73.64 185.26 73.64 185.99 73.64 188.83 73.64 199.59 73.64 200.98 73.64 202.33 75.8 202.33"/><text class="cls-25" transform="translate(19.74 142.92) scale(.9 1)"><tspan x="0" y="0">600</tspan></text><text class="cls-25" transform="translate(19.74 225.96) scale(.9 1)"><tspan x="0" y="0">650</tspan></text><text class="cls-25" transform="translate(19.74 309.01) scale(.9 1)"><tspan x="0" y="0">700</tspan></text><text class="cls-25" transform="translate(19.74 392.05) scale(.9 1)"><tspan x="0" y="0">750</tspan></text><text class="cls-25" transform="translate(19.74 475.1) scale(.9 1)"><tspan x="0" y="0">800</tspan></text><text class="cls-25" transform="translate(19.74 558.14) scale(.9 1)"><tspan x="0" y="0">850</tspan></text><text class="cls-25" transform="translate(19.74 637.72) scale(.9 1)"><tspan x="0" y="0">900</tspan></text><text class="cls-25" transform="translate(19.74 59.88) scale(.9 1)"><tspan x="0" y="0">550</tspan></text><line class="cls-9" x1="80.23" y1="57.76" x2="80.23" y2="616.9"/><path class="cls-62" d="M77.88,62.4c0,.8.65,1.45,1.45,1.45h9.38c.8,0,1.45-.65,1.45-1.45s-.65-1.45-1.45-1.45h-9.38c-.8,0-1.45.65-1.45,1.45,0,0,0-.8,0,0Z"/><path class="cls-8" d="M77.88,62.4c0,.8.65,1.45,1.45,1.45h9.38c.8,0,1.45-.65,1.45-1.45s-.65-1.45-1.45-1.45h-9.38c-.8,0-1.45.65-1.45,1.45,0,0,0-.8,0,0Z"/><rect x="80.31" y="614.83" width="7.13" height="2.56"/><path class="cls-62" d="M77.88,547.79c0,.8.65,1.45,1.45,1.45h9.38c.8,0,1.45-.65,1.45-1.45s-.65-1.45-1.45-1.45h-9.38c-.8,0-1.45.65-1.45,1.45,0,0,0-.8,0,0Z"/><path class="cls-8" d="M77.88,547.79c0,.8.65,1.45,1.45,1.45h9.38c.8,0,1.45-.65,1.45-1.45s-.65-1.45-1.45-1.45h-9.38c-.8,0-1.45.65-1.45,1.45,0,0,0-.8,0,0Z"/><path class="cls-62" d="M77.88,343.58c0,.8.64,1.44,1.44,1.44h9.39c.8,0,1.44-.64,1.44-1.44s-.64-1.44-1.44-1.44h-9.39c-.8,0-1.44.64-1.44,1.44,0,0,0-.8,0,0Z"/><path class="cls-8" d="M77.88,343.58c0,.8.64,1.44,1.44,1.44h9.39c.8,0,1.44-.64,1.44-1.44s-.64-1.44-1.44-1.44h-9.39c-.8,0-1.44.64-1.44,1.44,0,0,0-.8,0,0Z"/><path class="cls-62" d="M77.88,605.98c0,.8.65,1.45,1.45,1.45h9.38c.8,0,1.45-.65,1.45-1.45s-.65-1.45-1.45-1.45h-9.38c-.8,0-1.45.65-1.45,1.45,0,0,0-.8,0,0Z"/><path class="cls-8" d="M77.88,605.98c0,.8.65,1.45,1.45,1.45h9.38c.8,0,1.45-.65,1.45-1.45s-.65-1.45-1.45-1.45h-9.38c-.8,0-1.45.65-1.45,1.45,0,0,0-.8,0,0Z"/><path class="cls-62" d="M77.88,589.54c0,.8.64,1.44,1.44,1.44h9.39c.8,0,1.44-.64,1.44-1.44s-.64-1.44-1.44-1.44h-9.39c-.8,0-1.44.64-1.44,1.44,0,0,0-.8,0,0Z"/><path class="cls-8" d="M77.88,589.54c0,.8.64,1.44,1.44,1.44h9.39c.8,0,1.44-.64,1.44-1.44s-.64-1.44-1.44-1.44h-9.39c-.8,0-1.44.64-1.44,1.44,0,0,0-.8,0,0Z"/><path class="cls-62" d="M77.88,547.79c0,.8.65,1.45,1.45,1.45h9.38c.8,0,1.45-.65,1.45-1.45s-.65-1.45-1.45-1.45h-9.38c-.8,0-1.45.65-1.45,1.45,0,0,0-.8,0,0Z"/><path class="cls-8" d="M77.88,547.79c0,.8.65,1.45,1.45,1.45h9.38c.8,0,1.45-.65,1.45-1.45s-.65-1.45-1.45-1.45h-9.38c-.8,0-1.45.65-1.45,1.45,0,0,0-.8,0,0Z"/><path class="cls-62" d="M77.88,522.96c0,.8.65,1.45,1.45,1.45h9.38c.8,0,1.45-.65,1.45-1.45s-.65-1.45-1.45-1.45h-9.38c-.8,0-1.45.65-1.45,1.45,0,0,0-.8,0,0Z"/><path class="cls-8" d="M77.88,522.96c0,.8.65,1.45,1.45,1.45h9.38c.8,0,1.45-.65,1.45-1.45s-.65-1.45-1.45-1.45h-9.38c-.8,0-1.45.65-1.45,1.45,0,0,0-.8,0,0Z"/><path class="cls-62" d="M77.88,506.36c0,.8.64,1.44,1.44,1.44h9.39c.8,0,1.44-.64,1.44-1.44s-.64-1.44-1.44-1.44h-9.39c-.8,0-1.44.64-1.44,1.44,0,0,0-.8,0,0Z"/><path class="cls-8" d="M77.88,506.36c0,.8.64,1.44,1.44,1.44h9.39c.8,0,1.44-.64,1.44-1.44s-.64-1.44-1.44-1.44h-9.39c-.8,0-1.44.64-1.44,1.44,0,0,0-.8,0,0Z"/><path class="cls-62" d="M77.88,441.65c0,.8.65,1.45,1.45,1.45h9.38c.8,0,1.45-.65,1.45-1.45s-.65-1.45-1.45-1.45h-9.38c-.8,0-1.45.65-1.45,1.45,0,0,0-.8,0,0Z"/><path class="cls-8" d="M77.88,441.65c0,.8.65,1.45,1.45,1.45h9.38c.8,0,1.45-.65,1.45-1.45s-.65-1.45-1.45-1.45h-9.38c-.8,0-1.45.65-1.45,1.45,0,0,0-.8,0,0Z"/><path class="cls-62" d="M77.88,383.31c0,.8.64,1.44,1.44,1.44h9.39c.8,0,1.44-.64,1.44-1.44s-.64-1.44-1.44-1.44h-9.39c-.8,0-1.44.64-1.44,1.44,0,0,0-.8,0,0Z"/><path class="cls-8" d="M77.88,383.31c0,.8.64,1.44,1.44,1.44h9.39c.8,0,1.44-.64,1.44-1.44s-.64-1.44-1.44-1.44h-9.39c-.8,0-1.44.64-1.44,1.44,0,0,0-.8,0,0Z"/><path class="cls-62" d="M77.88,343.58c0,.8.64,1.44,1.44,1.44h9.39c.8,0,1.44-.64,1.44-1.44s-.64-1.44-1.44-1.44h-9.39c-.8,0-1.44.64-1.44,1.44,0,0,0-.8,0,0Z"/><path class="cls-8" d="M77.88,343.58c0,.8.64,1.44,1.44,1.44h9.39c.8,0,1.44-.64,1.44-1.44s-.64-1.44-1.44-1.44h-9.39c-.8,0-1.44.64-1.44,1.44,0,0,0-.8,0,0Z"/><path class="cls-62" d="M77.88,290.2c0,.8.65,1.44,1.44,1.44h9.38c.8,0,1.44-.65,1.44-1.44s-.65-1.44-1.44-1.44h-9.38c-.8,0-1.44.65-1.44,1.44,0,0,0-.8,0,0Z"/><path class="cls-8" d="M77.88,290.2c0,.8.65,1.44,1.44,1.44h9.38c.8,0,1.44-.65,1.44-1.44s-.65-1.44-1.44-1.44h-9.38c-.8,0-1.44.65-1.44,1.44,0,0,0-.8,0,0Z"/><path class="cls-62" d="M77.88,247.06c0,.8.65,1.45,1.45,1.45h9.38c.8,0,1.45-.65,1.45-1.45s-.65-1.45-1.45-1.45h-9.38c-.8,0-1.45.65-1.45,1.45,0,0,0-.8,0,0Z"/><path class="cls-8" d="M77.88,247.06c0,.8.65,1.45,1.45,1.45h9.38c.8,0,1.45-.65,1.45-1.45s-.65-1.45-1.45-1.45h-9.38c-.8,0-1.45.65-1.45,1.45,0,0,0-.8,0,0Z"/><path class="cls-62" d="M77.88,230.46c0,.8.64,1.44,1.44,1.44h9.39c.8,0,1.44-.64,1.44-1.44s-.64-1.44-1.44-1.44h-9.39c-.8,0-1.44.64-1.44,1.44,0,0,0-.8,0,0Z"/><path class="cls-8" d="M77.88,230.46c0,.8.64,1.44,1.44,1.44h9.39c.8,0,1.44-.64,1.44-1.44s-.64-1.44-1.44-1.44h-9.39c-.8,0-1.44.64-1.44,1.44,0,0,0-.8,0,0Z"/><path class="cls-62" d="M77.88,203.77c0,.8.64,1.44,1.44,1.44h9.39c.8,0,1.44-.64,1.44-1.44s-.64-1.44-1.44-1.44h-9.39c-.8,0-1.44.64-1.44,1.44,0,0,0-.8,0,0Z"/><path class="cls-8" d="M77.88,203.77c0,.8.64,1.44,1.44,1.44h9.39c.8,0,1.44-.64,1.44-1.44s-.64-1.44-1.44-1.44h-9.39c-.8,0-1.44.64-1.44,1.44,0,0,0-.8,0,0Z"/><path class="cls-62" d="M77.88,147.28c0,.8.65,1.45,1.45,1.45h9.38c.8,0,1.45-.65,1.45-1.45s-.65-1.45-1.45-1.45h-9.38c-.8,0-1.45.65-1.45,1.45,0,0,0-.8,0,0Z"/><path class="cls-8" d="M77.88,147.28c0,.8.65,1.45,1.45,1.45h9.38c.8,0,1.45-.65,1.45-1.45s-.65-1.45-1.45-1.45h-9.38c-.8,0-1.45.65-1.45,1.45,0,0,0-.8,0,0Z"/><path class="cls-62" d="M77.88,127.27c0,.8.64,1.44,1.44,1.44h9.39c.8,0,1.44-.64,1.44-1.44s-.64-1.44-1.44-1.44h-9.39c-.8,0-1.44.64-1.44,1.44,0,0,0-.8,0,0Z"/><path class="cls-8" d="M77.88,127.27c0,.8.64,1.44,1.44,1.44h9.39c.8,0,1.44-.64,1.44-1.44s-.64-1.44-1.44-1.44h-9.39c-.8,0-1.44.64-1.44,1.44,0,0,0-.8,0,0Z"/><line class="cls-11" x1="31.04" y1="57.23" x2="38.24" y2="57.23"/><line class="cls-11" x1="31.04" y1="140.17" x2="38.24" y2="140.17"/><line class="cls-11" x1="31.04" y1="223.11" x2="38.24" y2="223.11"/><line class="cls-11" x1="31.04" y1="306.05" x2="38.24" y2="306.05"/><line class="cls-11" x1="31.04" y1="388.99" x2="38.24" y2="388.99"/><line class="cls-11" x1="31.04" y1="471.93" x2="38.24" y2="471.93"/><line class="cls-11" x1="31.04" y1="554.87" x2="38.24" y2="554.87"/><line class="cls-11" x1="31.04" y1="637.81" x2="38.24" y2="637.81"/><line class="cls-11" x1="34.64" y1="98.7" x2="38.24" y2="98.7"/><line class="cls-11" x1="34.64" y1="181.64" x2="38.24" y2="181.64"/><line class="cls-11" x1="34.64" y1="264.58" x2="38.24" y2="264.58"/><line class="cls-11" x1="34.64" y1="347.52" x2="38.24" y2="347.52"/><line class="cls-11" x1="34.64" y1="430.46" x2="38.24" y2="430.46"/><line class="cls-11" x1="34.64" y1="513.4" x2="38.24" y2="513.4"/><line class="cls-11" x1="34.64" y1="596.34" x2="38.24" y2="596.34"/><text class="cls-28" transform="translate(112.5 632.05) scale(.89 1)"><tspan class="cls-30"><tspan x="0" y="0">HOLE DEPTH</tspan></tspan><tspan class="cls-53"><tspan x="0" y="6">949 ft</tspan></tspan></text><text class="cls-26" transform="translate(94.52 569.52) scale(1.07 1)"><tspan x="0" y="0">P3</tspan></text><polygon class="cls-41" points="91.47 62.15 87.82 64.53 91.47 66.9 91.47 62.15"/><polygon class="cls-40" points="91.47 103.27 87.82 105.65 91.47 108.02 91.47 103.27"/><polygon class="cls-41" points="91.47 127.02 87.82 129.39 91.47 131.76 91.47 127.02"/><polygon class="cls-41" points="91.47 147.03 87.82 149.41 91.47 151.78 91.47 147.03"/><polygon class="cls-41" points="91.47 203.52 87.82 205.89 91.47 208.26 91.47 203.52"/><polygon class="cls-40" points="91.47 214.84 87.82 217.22 91.47 219.59 91.47 214.84"/><polygon class="cls-41" points="91.47 230.21 87.82 232.58 91.47 234.96 91.47 230.21"/><polygon class="cls-41" points="91.47 246.81 87.82 249.19 91.47 251.56 91.47 246.81"/><polygon class="cls-41" points="91.47 289.95 87.82 292.32 91.47 294.7 91.47 289.95"/><polygon class="cls-40" points="91.47 315.86 87.82 318.24 91.47 320.61 91.47 315.86"/><polygon class="cls-41" points="91.47 343.33 87.82 345.7 91.47 348.08 91.47 343.33"/><polygon class="cls-41" points="91.47 383.06 87.82 385.43 91.47 387.8 91.47 383.06"/><polygon class="cls-41" points="91.47 441.4 87.82 443.78 91.47 446.15 91.47 441.4"/><polygon class="cls-40" points="91.47 481.9 87.82 484.28 91.47 486.65 91.47 481.9"/><polygon class="cls-41" points="91.47 506.11 87.82 508.48 91.47 510.86 91.47 506.11"/><polygon class="cls-41" points="91.47 522.71 87.82 525.09 91.47 527.46 91.47 522.71"/><polygon class="cls-40" points="91.47 547.54 87.82 549.92 91.47 552.29 91.47 547.54"/><polygon class="cls-41" points="91.47 589.28 87.82 591.66 91.47 594.03 91.47 589.28"/><polygon class="cls-41" points="91.47 605.73 87.82 608.11 91.47 610.48 91.47 605.73"/><polygon class="cls-41" points="91.47 564.3 87.82 566.67 91.47 569.05 91.47 564.3"/><line class="cls-37" x1="103.97" y1="566.6" x2="112.9" y2="566.6"/><text class="cls-26" transform="translate(114.37 569.2) scale(1.07 1)"><tspan x="0" y="0">Faulty measurement port</tspan></text></g></g><g id="Explanation"><text class="cls-23" transform="translate(134.16 104.68)"><tspan x="0" y="0">EXPLAN</tspan><tspan class="cls-56" x="32.45" y="0">A</tspan><tspan x="37.63" y="0">TION</tspan></text><text class="cls-21" transform="translate(127.83 120.81)"><tspan x="0" y="0">Lithology</tspan></text><text class="cls-24" transform="translate(151.46 175.96)"><tspan class="cls-85" x="0" y="0">Se</tspan><tspan class="cls-101" x="8.82" y="0">d</tspan><tspan class="cls-34" x="12.79" y="0">i</tspan><tspan class="cls-86" x="14.44" y="0">m</tspan><tspan class="cls-66" x="20.4" y="0">e</tspan><tspan class="cls-84" x="24.4" y="0">n</tspan><tspan class="cls-67" x="28.34" y="0">t</tspan></text><text class="cls-24" transform="translate(151.46 136.8)"><tspan class="cls-36" x="0" y="0">D</tspan><tspan class="cls-97" x="5.21" y="0">e</tspan><tspan class="cls-51" x="9.21" y="0">n</tspan><tspan class="cls-97" x="13.2" y="0">s</tspan><tspan class="cls-76" x="16.81" y="0">e </tspan><tspan class="cls-47" x="22.65" y="0">ba</tspan><tspan class="cls-105" x="30.62" y="0">s</tspan><tspan class="cls-70" x="34.25" y="0">a</tspan><tspan class="cls-93" x="38.25" y="0">l</tspan><tspan class="cls-67" x="39.89" y="0">t</tspan></text><rect class="cls-13" x="135.03" y="127.47" width="12.8" height="13.62"/><text class="cls-24" transform="translate(151.46 156.38)"><tspan class="cls-58" x="0" y="0">F</tspan><tspan class="cls-85" x="4.17" y="0">r</tspan><tspan class="cls-60" x="6.63" y="0">a</tspan><tspan class="cls-43" x="10.6" y="0">c</tspan><tspan class="cls-55" x="14.27" y="0">t</tspan><tspan class="cls-93" x="16.32" y="0">u</tspan><tspan class="cls-59" x="20.3" y="0">r</tspan><tspan class="cls-32" x="22.74" y="0">e</tspan><tspan class="cls-76" x="26.76" y="0">d </tspan><tspan class="cls-31" x="32.6" y="0">ba</tspan><tspan class="cls-105" x="40.58" y="0">s</tspan><tspan class="cls-35" x="44.21" y="0">a</tspan><tspan class="cls-44" x="48.2" y="0">l</tspan><tspan class="cls-67" x="49.84" y="0">t</tspan></text><rect class="cls-15" x="135.03" y="147.05" width="12.8" height="13.62"/><rect class="cls-16" x="135.03" y="166.63" width="12.8" height="13.62"/><line class="cls-37" x1="145.97" y1="231.31" x2="163.89" y2="231.31"/><text class="cls-21" transform="translate(127.83 196.56)"><tspan x="0" y="0">Completion</tspan></text><line class="cls-37" x1="163.89" y1="244.23" x2="160.3" y2="244.23"/><polyline class="cls-37" points="163.89 256.7 158.64 256.7 134.68 249.75"/><polygon class="cls-41" points="150.25 241.97 146.6 244.34 150.25 246.72 150.25 241.97"/><polyline class="cls-3" points="135.45 287.35 133.29 287.35 133.29 232.69 135.45 232.69"/><text class="cls-20" transform="translate(152.35 246.43) scale(.89 1)"><tspan x="0" y="0">P2</tspan></text><text class="cls-20" transform="translate(125.67 250.93) scale(.89 1)"><tspan x="0" y="0">Z1</tspan></text><text class="cls-26" transform="translate(125.67 250.93) scale(.89 1)"><tspan x="0" y="0">Z1</tspan></text><line class="cls-37" x1="145.97" y1="218.82" x2="163.89" y2="218.82"/><line class="cls-37" x1="150.59" y1="207.2" x2="163.89" y2="207.2"/><text class="cls-24" transform="translate(165.88 234.1)"><tspan class="cls-98" x="0" y="0">P</tspan><tspan class="cls-60" x="4.7" y="0">a</tspan><tspan class="cls-1" x="8.68" y="0">c</tspan><tspan class="cls-100" x="12.34" y="0">k</tspan><tspan class="cls-83" x="15.8" y="0">e</tspan><tspan x="19.81" y="0">r</tspan></text><text class="cls-24" transform="translate(165.88 246.67)"><tspan class="cls-42" x="0" y="0">M</tspan><tspan class="cls-66" x="6.01" y="0">e</tspan><tspan class="cls-90" x="10.02" y="0">a</tspan><tspan class="cls-65" x="14" y="0">s</tspan><tspan class="cls-93" x="17.58" y="0">u</tspan><tspan class="cls-59" x="21.57" y="0">r</tspan><tspan class="cls-66" x="24" y="0">e</tspan><tspan class="cls-86" x="28.01" y="0">m</tspan><tspan class="cls-66" x="33.96" y="0">e</tspan><tspan class="cls-84" x="37.96" y="0">n</tspan><tspan class="cls-67" x="41.91" y="0">t </tspan><tspan class="cls-75" x="45.8" y="0">p</tspan><tspan class="cls-105" x="49.83" y="0">o</tspan><tspan class="cls-73" x="53.85" y="0">r</tspan><tspan x="56.54" y="0">t </tspan><tspan class="cls-57" x="60.43" y="0">nu</tspan><tspan class="cls-103" x="68.38" y="0">m</tspan><tspan class="cls-45" x="74.32" y="0">b</tspan><tspan class="cls-83" x="78.34" y="0">e</tspan><tspan x="82.35" y="0">r</tspan></text><text class="cls-24" transform="translate(165.88 259.24)"><tspan class="cls-81" x="0" y="0">M</tspan><tspan class="cls-32" x="6.02" y="0">o</tspan><tspan class="cls-44" x="10.04" y="0">n</tspan><tspan class="cls-70" x="14.02" y="0">i</tspan><tspan class="cls-50" x="15.68" y="0">t</tspan><tspan class="cls-105" x="17.69" y="0">o</tspan><tspan class="cls-77" x="21.72" y="0">r</tspan><tspan class="cls-46" x="24.25" y="0">i</tspan><tspan class="cls-96" x="25.91" y="0">n</tspan><tspan x="29.91" y="0">g </tspan><tspan class="cls-89" x="35.75" y="0">z</tspan><tspan class="cls-85" x="39.31" y="0">o</tspan><tspan class="cls-103" x="43.33" y="0">n</tspan><tspan class="cls-76" x="47.33" y="0">e </tspan><tspan class="cls-65" x="53.17" y="0">nu</tspan><tspan class="cls-88" x="61.12" y="0">m</tspan><tspan class="cls-45" x="67.05" y="0">b</tspan><tspan class="cls-83" x="71.07" y="0">e</tspan><tspan x="75.08" y="0">r</tspan></text><text class="cls-24" transform="translate(165.88 221.53)"><tspan class="cls-52" x="0" y="0">M</tspan><tspan class="cls-90" x="5.99" y="0">ul</tspan><tspan class="cls-19" x="11.62" y="0">t</tspan><tspan class="cls-34" x="13.7" y="0">i</tspan><tspan class="cls-75" x="15.36" y="0">p</tspan><tspan class="cls-105" x="19.39" y="0">o</tspan><tspan class="cls-73" x="23.41" y="0">r</tspan><tspan x="26.1" y="0">t </tspan><tspan class="cls-33" x="29.99" y="0">c</tspan><tspan class="cls-90" x="33.71" y="0">a</tspan><tspan class="cls-71" x="37.7" y="0">s</tspan><tspan class="cls-46" x="41.3" y="0">i</tspan><tspan class="cls-66" x="42.95" y="0">n</tspan><tspan x="46.96" y="0">g</tspan></text><text class="cls-24" transform="translate(165.88 271.81)"><tspan class="cls-54" x="0" y="0">S</tspan><tspan class="cls-61" x="4.79" y="0">a</tspan><tspan class="cls-103" x="8.79" y="0">m</tspan><tspan class="cls-86" x="14.72" y="0">pl</tspan><tspan x="20.41" y="0">e </tspan><tspan class="cls-79" x="26.25" y="0">c</tspan><tspan class="cls-105" x="29.97" y="0">o</tspan><tspan class="cls-31" x="33.99" y="0">l</tspan><tspan class="cls-99" x="35.64" y="0">l</tspan><tspan class="cls-92" x="37.32" y="0">e</tspan><tspan class="cls-43" x="41.33" y="0">c</tspan><tspan class="cls-19" x="45.01" y="0">ti</tspan><tspan class="cls-85" x="48.78" y="0">o</tspan><tspan x="52.8" y="0">n </tspan><tspan class="cls-49" x="58.64" y="0">a</tspan><tspan x="62.59" y="0">t </tspan><tspan class="cls-75" x="66.48" y="0">p</tspan><tspan class="cls-64" x="70.51" y="0">o</tspan><tspan class="cls-80" x="74.54" y="0">r</tspan><tspan class="cls-76" x="77.23" y="0">t</tspan></text><text class="cls-24" transform="translate(165.88 208.96)"><tspan class="cls-69" x="0" y="0">W</tspan><tspan class="cls-45" x="6.58" y="0">e</tspan><tspan class="cls-31" x="10.59" y="0">l</tspan><tspan class="cls-76" x="12.24" y="0">l </tspan><tspan class="cls-33" x="15.74" y="0">c</tspan><tspan class="cls-51" x="19.46" y="0">a</tspan><tspan class="cls-48" x="23.45" y="0">si</tspan><tspan class="cls-96" x="28.71" y="0">n</tspan><tspan x="32.71" y="0">g</tspan></text><line class="cls-39" x1="135.23" y1="202.46" x2="135.23" y2="214.96"/><line class="cls-39" x1="149.72" y1="202.46" x2="149.72" y2="214.96"/><rect x="138.94" y="280.41" width="7.09" height="2.65"/><line class="cls-9" x1="146.03" y1="282.57" x2="145.92" y2="202.46"/><line class="cls-9" x1="138.82" y1="202.46" x2="138.94" y2="282.57"/><path class="cls-62" d="M136.34,231.31c0,.76.62,1.38,1.38,1.38h9.52c.76,0,1.38-.62,1.38-1.38s-.62-1.38-1.38-1.38h-9.52c-.76,0-1.38.62-1.38,1.38,0,0,0-.76,0,0Z"/><path class="cls-38" d="M136.34,231.31c0,.76.62,1.38,1.38,1.38h9.52c.76,0,1.38-.62,1.38-1.38s-.62-1.38-1.38-1.38h-9.52c-.76,0-1.38.62-1.38,1.38,0,0,0-.76,0,0Z"/><text class="cls-21" transform="translate(127.83 303.87)"><tspan x="0" y="0">Borehole</tspan></text><line class="cls-4" x1="147.83" y1="335.05" x2="139.74" y2="343.14"/><line class="cls-4" x1="147.83" y1="340.27" x2="144.96" y2="343.14"/><line class="cls-4" x1="142.92" y1="329.52" x2="135.03" y2="337.41"/><line class="cls-4" x1="147.83" y1="329.83" x2="135.03" y2="342.63"/><line class="cls-4" x1="137.7" y1="329.52" x2="135.03" y2="332.19"/><rect class="cls-14" x="135.03" y="329.52" width="12.8" height="13.62"/><text class="cls-24" transform="translate(151.46 338.2)"><tspan class="cls-75" x="0" y="0">B</tspan><tspan class="cls-45" x="4.81" y="0">el</tspan><tspan class="cls-78" x="10.5" y="0">o</tspan><tspan class="cls-76" x="14.47" y="0">w </tspan><tspan class="cls-94" x="21.47" y="0">h</tspan><tspan class="cls-105" x="25.48" y="0">o</tspan><tspan class="cls-99" x="29.51" y="0">l</tspan><tspan class="cls-76" x="31.18" y="0">e </tspan><tspan class="cls-59" x="37.02" y="0">d</tspan><tspan class="cls-97" x="41.01" y="0">e</tspan><tspan class="cls-91" x="45.02" y="0">p</tspan><tspan class="cls-68" x="48.97" y="0">t</tspan><tspan x="51.05" y="0">h</tspan></text><polygon class="cls-17" points="138.4 312.05 141.43 314.9 144.45 312.05 138.4 312.05"/><line class="cls-11" x1="135.03" y1="315.28" x2="136.03" y2="315.28"/><line class="cls-10" x1="138.19" y1="315.28" x2="145.75" y2="315.28"/><line class="cls-11" x1="146.83" y1="315.28" x2="147.83" y2="315.28"/><text class="cls-24" transform="translate(151.46 316.53)"><tspan class="cls-69" x="0" y="0">W</tspan><tspan class="cls-49" x="6.58" y="0">at</tspan><tspan class="cls-83" x="12.54" y="0">e</tspan><tspan x="16.55" y="0">r </tspan><tspan class="cls-99" x="20.83" y="0">l</tspan><tspan class="cls-76" x="22.5" y="0">e</tspan><tspan class="cls-63" x="26.39" y="0">v</tspan><tspan class="cls-54" x="29.9" y="0">e</tspan><tspan x="33.92" y="0">l </tspan><tspan class="cls-86" x="37.42" y="0">m</tspan><tspan class="cls-96" x="43.37" y="0">e</tspan><tspan class="cls-51" x="47.37" y="0">a</tspan><tspan class="cls-65" x="51.36" y="0">s</tspan><tspan class="cls-93" x="54.94" y="0">u</tspan><tspan class="cls-59" x="58.93" y="0">r</tspan><tspan class="cls-32" x="61.36" y="0">e</tspan><tspan x="65.38" y="0">d</tspan><tspan class="cls-82" x="0" y="8.4">o</tspan><tspan class="cls-102" x="4.01" y="8.4">u</tspan><tspan class="cls-87" x="7.99" y="8.4">t</tspan><tspan class="cls-71" x="10.08" y="8.4">s</tspan><tspan class="cls-19" x="13.68" y="8.4">i</tspan><tspan class="cls-59" x="15.37" y="8.4">d</tspan><tspan x="19.37" y="8.4">e </tspan><tspan class="cls-31" x="25.21" y="8.4">mul</tspan><tspan class="cls-19" x="36.77" y="8.4">t</tspan><tspan class="cls-46" x="38.85" y="8.4">i</tspan><tspan class="cls-75" x="40.5" y="8.4">p</tspan><tspan class="cls-64" x="44.53" y="8.4">o</tspan><tspan class="cls-80" x="48.56" y="8.4">r</tspan><tspan class="cls-76" x="51.25" y="8.4">t </tspan><tspan class="cls-33" x="55.13" y="8.4">c</tspan><tspan class="cls-51" x="58.86" y="8.4">a</tspan><tspan class="cls-48" x="62.84" y="8.4">si</tspan><tspan class="cls-96" x="68.1" y="8.4">n</tspan><tspan x="72.1" y="8.4">g</tspan></text><text class="cls-24" transform="translate(165.88 284.38)"><tspan class="cls-52" x="0" y="0">M</tspan><tspan class="cls-90" x="5.99" y="0">ul</tspan><tspan class="cls-19" x="11.62" y="0">t</tspan><tspan class="cls-34" x="13.7" y="0">i</tspan><tspan class="cls-75" x="15.36" y="0">p</tspan><tspan class="cls-105" x="19.39" y="0">o</tspan><tspan class="cls-73" x="23.41" y="0">r</tspan><tspan class="cls-47" x="26.1" y="0">t</tspan><tspan class="cls-74" x="28.14" y="0">-</tspan><tspan class="cls-33" x="30.79" y="0">c</tspan><tspan class="cls-93" x="34.51" y="0">a</tspan><tspan class="cls-71" x="38.49" y="0">s</tspan><tspan class="cls-46" x="42.1" y="0">i</tspan><tspan class="cls-96" x="43.75" y="0">n</tspan><tspan class="cls-76" x="47.75" y="0">g </tspan><tspan class="cls-97" x="53.59" y="0">en</tspan><tspan class="cls-76" x="61.6" y="0">d </tspan><tspan class="cls-33" x="67.44" y="0">c</tspan><tspan class="cls-46" x="71.16" y="0">a</tspan><tspan x="75.15" y="0">p</tspan></text><line class="cls-37" x1="145.97" y1="281.92" x2="163.89" y2="281.92"/><line class="cls-37" x1="163.89" y1="269.35" x2="152.3" y2="269.35"/><polygon class="cls-40" points="150.25 266.98 146.6 269.35 150.25 271.72 150.25 266.98"/></g><g id="Grid"><text class="cls-22" transform="translate(9.42 394.03) rotate(-90) scale(1.26 1)"><tspan x="0" y="0">Depth, in feet below land surface</tspan></text><text class="cls-27" transform="translate(51.33 52.08) rotate(-90) scale(1.16 1)"><tspan x="0" y="0">LITHOLOGY</tspan></text><text class="cls-20" transform="translate(63.14 52.54) scale(.93 1)"><tspan x="0" y="0">Zone</tspan></text><text class="cls-20" transform="translate(94.11 52.54) scale(.93 1)"><tspan x="0" y="0">Port</tspan></text><polyline class="cls-11" points="38.23 57.23 108.44 57.23 38.23 57.23"/><line class="cls-11" x1="58" y1="6.97" x2="58" y2="637.82"/><polygon class="cls-11" points="108.44 637.82 108.44 6.97 38.23 6.97 38.23 6.97 38.23 637.82 108.44 637.82"/></g></svg>
