<?xml version="1.0" encoding="UTF-8"?><svg xmlns="http://www.w3.org/2000/svg" viewBox="0 0 252 645"><defs><style>.cls-1{letter-spacing:.02em;}.cls-2,.cls-3,.cls-4,.cls-5,.cls-6,.cls-7,.cls-8,.cls-9,.cls-10,.cls-11,.cls-12{stroke-linejoin:round;}.cls-2,.cls-3,.cls-4,.cls-5,.cls-7,.cls-8,.cls-9,.cls-10,.cls-12{stroke-linecap:round;}.cls-2,.cls-4,.cls-13,.cls-14,.cls-7,.cls-15,.cls-8,.cls-9,.cls-10,.cls-16,.cls-12,.cls-17{stroke:#000;}.cls-2,.cls-13{fill:#bcbdc0;}.cls-2,.cls-14,.cls-8,.cls-18,.cls-12{stroke-width:.25px;}.cls-19{letter-spacing:-.04em;}.cls-20{letter-spacing:.02em;}.cls-21,.cls-22,.cls-23,.cls-24,.cls-25{fill:#231f20;}.cls-21,.cls-26,.cls-27,.cls-23,.cls-25,.cls-28,.cls-29{font-family:ArialMT, Arial;}.cls-21,.cls-26,.cls-27,.cls-28,.cls-30{font-size:6px;}.cls-31{letter-spacing:.01em;}.cls-22,.cls-24{font-family:Arial-BoldMT, Arial;font-weight:700;}.cls-22,.cls-25{font-size:7px;}.cls-32{letter-spacing:.02em;}.cls-33{letter-spacing:.03em;}.cls-34{letter-spacing:.01em;}.cls-35{letter-spacing:.01em;}.cls-36{letter-spacing:0em;}.cls-37{letter-spacing:.02em;}.cls-38,.cls-3,.cls-4,.cls-5,.cls-13,.cls-16,.cls-11,.cls-17{stroke-width:.35px;}.cls-38,.cls-3,.cls-4,.cls-5,.cls-6,.cls-39,.cls-7,.cls-15,.cls-9,.cls-10,.cls-11,.cls-40{fill:none;}.cls-38,.cls-3,.cls-41,.cls-6,.cls-39,.cls-11,.cls-42{stroke:#241f20;}.cls-38,.cls-13,.cls-15,.cls-16,.cls-17{stroke-miterlimit:90;}.cls-43{letter-spacing:.03em;}.cls-44{letter-spacing:.02em;}.cls-45{letter-spacing:.01em;}.cls-46{letter-spacing:.02em;}.cls-47{letter-spacing:.01em;}.cls-48{letter-spacing:-.07em;}.cls-49{letter-spacing:.01em;}.cls-50{letter-spacing:.01em;}.cls-51{letter-spacing:0em;}.cls-26{fill:#212121;}.cls-5,.cls-40{stroke:#231f20;}.cls-52{letter-spacing:-.06em;}.cls-53{letter-spacing:.01em;}.cls-54{letter-spacing:.01em;}.cls-27,.cls-29{fill:#241f20;}.cls-55{letter-spacing:.02em;}.cls-56{font-size:5px;}.cls-57{letter-spacing:.02em;}.cls-41{fill:red;}.cls-41,.cls-42{stroke-width:.53px;}.cls-58{letter-spacing:.01em;}.cls-59{letter-spacing:-.07em;}.cls-60{letter-spacing:.01em;}.cls-61{letter-spacing:-.02em;}.cls-6,.cls-39,.cls-15,.cls-9,.cls-10{stroke-width:.5px;}.cls-62{letter-spacing:.02em;}.cls-39,.cls-14{stroke-miterlimit:10;}.cls-14,.cls-8{fill:#f2ad47;}.cls-63{letter-spacing:.01em;}.cls-64{letter-spacing:.01em;}.cls-65{fill:#1072ba;}.cls-66{letter-spacing:0em;}.cls-67{letter-spacing:-.07em;}.cls-68{letter-spacing:.02em;}.cls-69{letter-spacing:.01em;}.cls-70{letter-spacing:.02em;}.cls-71{letter-spacing:0em;}.cls-72{letter-spacing:.02em;}.cls-73{letter-spacing:0em;}.cls-74{letter-spacing:.01em;}.cls-75{letter-spacing:.01em;}.cls-23,.cls-24{font-size:8px;}.cls-76{letter-spacing:.05em;}.cls-77{letter-spacing:.05em;}.cls-78{letter-spacing:.02em;}.cls-79{letter-spacing:0em;}.cls-80{letter-spacing:.03em;}.cls-9{stroke-dasharray:2.16 2.16;}.cls-81{letter-spacing:.01em;}.cls-82{letter-spacing:.03em;}.cls-83{letter-spacing:.05em;}.cls-84{letter-spacing:.03em;}.cls-85{letter-spacing:.02em;}.cls-86{letter-spacing:.02em;}.cls-87{letter-spacing:0em;}.cls-18{fill:#70cddd;stroke:#70cddd;}.cls-88{letter-spacing:.02em;}.cls-16{fill:#fbb041;}.cls-89{letter-spacing:.02em;}.cls-90{letter-spacing:.02em;}.cls-91{letter-spacing:.02em;}.cls-92{letter-spacing:0em;}.cls-93{letter-spacing:.01em;}.cls-94{letter-spacing:0em;}.cls-12{fill:#ece340;}.cls-95{letter-spacing:.02em;}.cls-40{stroke-width:2px;}.cls-96{letter-spacing:.01em;}.cls-97{letter-spacing:.02em;}.cls-42{fill:#fff;}.cls-98{letter-spacing:.02em;}.cls-99{letter-spacing:.02em;}.cls-100{letter-spacing:0em;}.cls-101{letter-spacing:0em;}.cls-102{letter-spacing:.02em;}.cls-103{letter-spacing:0em;}.cls-104{letter-spacing:.01em;}.cls-105{letter-spacing:.01em;}.cls-106{letter-spacing:.02em;}.cls-107{letter-spacing:-.07em;}.cls-108{letter-spacing:.02em;}.cls-17{fill:#f5eb12;}</style></defs><g id="Completions"><g id="USGS_131A"><line class="cls-4" x1="108.44" y1="635.47" x2="106.23" y2="637.68"/><line class="cls-4" x1="105.62" y1="627.85" x2="95.79" y2="637.68"/><line class="cls-4" x1="108.44" y1="630.25" x2="101.01" y2="637.68"/><line class="cls-4" x1="95.18" y1="627.85" x2="85.35" y2="637.68"/><line class="cls-4" x1="100.4" y1="627.85" x2="90.57" y2="637.68"/><line class="cls-4" x1="84.74" y1="627.85" x2="74.91" y2="637.68"/><line class="cls-4" x1="89.96" y1="627.85" x2="80.13" y2="637.68"/><line class="cls-4" x1="74.3" y1="627.85" x2="64.47" y2="637.68"/><line class="cls-4" x1="79.52" y1="627.85" x2="69.69" y2="637.68"/><line class="cls-4" x1="63.86" y1="627.85" x2="54.03" y2="637.68"/><line class="cls-4" x1="69.08" y1="627.85" x2="59.25" y2="637.68"/><line class="cls-4" x1="53.42" y1="627.85" x2="43.59" y2="637.68"/><line class="cls-4" x1="58.64" y1="627.85" x2="48.81" y2="637.68"/><line class="cls-4" x1="42.98" y1="627.85" x2="38.23" y2="632.6"/><polyline class="cls-4" points="38.23 637.82 38.37 637.68 48.2 627.85"/><text class="cls-21" transform="translate(65.26 25.97) scale(1.07 1)"><tspan x="0" y="0">USGS 131</tspan><tspan class="cls-52" x="28.68" y="0">A</tspan><tspan x="-1.83" y="7.01">MU</tspan><tspan class="cls-107" x="7.5" y="7.01">L</tspan><tspan x="10.39" y="7.01">TILEVE</tspan><tspan class="cls-19" x="31.07" y="7.01">L</tspan><tspan x="-3.66" y="14.01">COMPLETION</tspan></text><text class="cls-27" transform="translate(94.52 619.94) scale(.88 1)"><tspan x="0" y="0">P1</tspan></text><text class="cls-27" transform="translate(94.52 119.25) scale(.88 1)"><tspan x="0" y="0">P15</tspan></text><text class="cls-27" transform="translate(94.52 445.17) scale(.88 1)"><tspan x="0" y="0">P6</tspan></text><text class="cls-27" transform="translate(94.52 423.52) scale(.88 1)"><tspan x="0" y="0">P7</tspan></text><text class="cls-27" transform="translate(94.52 517.2) scale(.88 1)"><tspan x="0" y="0">P5</tspan></text><text class="cls-27" transform="translate(94.52 399.6) scale(.88 1)"><tspan x="0" y="0">P8</tspan></text><text class="cls-27" transform="translate(94.52 325.1) scale(.88 1)"><tspan x="0" y="0">P9</tspan></text><text class="cls-27" transform="translate(94.52 294.33) scale(.88 1)"><tspan x="0" y="0">P10</tspan></text><text class="cls-27" transform="translate(94.52 281.88) scale(.88 1)"><tspan x="0" y="0">P</tspan><tspan class="cls-48" x="4" y="0">1</tspan><tspan class="cls-100" x="6.89" y="0">1</tspan></text><text class="cls-27" transform="translate(94.52 227.53) scale(.88 1)"><tspan x="0" y="0">P12</tspan></text><text class="cls-27" transform="translate(94.52 190.31) scale(.88 1)"><tspan x="0" y="0">P13</tspan></text><text class="cls-27" transform="translate(94.52 137.82) scale(.88 1)"><tspan x="0" y="0">P14</tspan></text><text class="cls-27" transform="translate(94.52 72.72) scale(.88 1)"><tspan x="0" y="0">P16</tspan></text><text class="cls-27" transform="translate(94.52 606.3) scale(.88 1)"><tspan x="0" y="0">P2</tspan></text><text class="cls-27" transform="translate(94.52 583.44) scale(.88 1)"><tspan x="0" y="0">P3</tspan></text><text class="cls-27" transform="translate(94.52 569.94) scale(.88 1)"><tspan x="0" y="0">P4</tspan></text><text class="cls-21" transform="translate(65.06 584.25) scale(.88 1)"><tspan x="0" y="0">Z3</tspan></text><text class="cls-27" transform="translate(65.06 584.25) scale(.88 1)"><tspan x="0" y="0">Z3</tspan></text><text class="cls-21" transform="translate(65.06 607.78) scale(.88 1)"><tspan x="0" y="0">Z2</tspan></text><text class="cls-27" transform="translate(65.06 607.78) scale(.88 1)"><tspan x="0" y="0">Z2</tspan></text><text class="cls-21" transform="translate(65.06 622.07) scale(.88 1)"><tspan x="0" y="0">Z1</tspan></text><text class="cls-27" transform="translate(65.06 622.07) scale(.88 1)"><tspan x="0" y="0">Z1</tspan></text><text class="cls-21" transform="translate(65.06 539.07) scale(.88 1)"><tspan x="0" y="0">Z4</tspan></text><text class="cls-27" transform="translate(65.06 539.07) scale(.88 1)"><tspan x="0" y="0">Z4</tspan></text><text class="cls-21" transform="translate(65.06 467.32) scale(.88 1)"><tspan x="0" y="0">Z5</tspan></text><text class="cls-27" transform="translate(65.06 467.32) scale(.88 1)"><tspan x="0" y="0">Z5</tspan></text><text class="cls-21" transform="translate(65.06 406.79) scale(.88 1)"><tspan x="0" y="0">Z6</tspan></text><text class="cls-27" transform="translate(65.06 406.79) scale(.88 1)"><tspan x="0" y="0">Z6</tspan></text><text class="cls-21" transform="translate(65.06 298.28) scale(.88 1)"><tspan x="0" y="0">Z8</tspan></text><text class="cls-27" transform="translate(65.06 298.28) scale(.88 1)"><tspan x="0" y="0">Z8</tspan></text><text class="cls-21" transform="translate(65.06 247.35) scale(.88 1)"><tspan x="0" y="0">Z9</tspan></text><text class="cls-27" transform="translate(65.06 247.35) scale(.88 1)"><tspan x="0" y="0">Z9</tspan></text><text class="cls-21" transform="translate(62.12 202.97) scale(.88 1)"><tspan x="0" y="0">Z10</tspan></text><text class="cls-27" transform="translate(62.12 202.97) scale(.88 1)"><tspan x="0" y="0">Z10</tspan></text><text class="cls-21" transform="translate(62.51 158.69) scale(.88 1)"><tspan x="0" y="0">Z</tspan><tspan class="cls-67" x="3.66" y="0">1</tspan><tspan class="cls-36" x="6.56" y="0">1</tspan></text><text class="cls-27" transform="translate(62.51 158.69) scale(.88 1)"><tspan x="0" y="0">Z</tspan><tspan class="cls-67" x="3.66" y="0">1</tspan><tspan class="cls-36" x="6.56" y="0">1</tspan></text><text class="cls-21" transform="translate(62.12 100.75) scale(.88 1)"><tspan x="0" y="0">Z12</tspan></text><text class="cls-27" transform="translate(62.12 100.75) scale(.88 1)"><tspan x="0" y="0">Z12</tspan></text><text class="cls-21" transform="translate(65.06 359.36) scale(.88 1)"><tspan x="0" y="0">Z7</tspan></text><text class="cls-27" transform="translate(65.06 359.36) scale(.88 1)"><tspan x="0" y="0">Z7</tspan></text><rect class="cls-2" x="41.73" y="57.75" width="12.8" height="13.92"/><rect class="cls-8" x="41.73" y="79.84" width="12.8" height="3.98"/><rect class="cls-8" x="41.73" y="96.71" width="12.8" height="3.22"/><rect class="cls-2" x="41.73" y="75.26" width="12.8" height="4.31"/><rect class="cls-2" x="41.73" y="99.56" width="12.8" height="14.28"/><rect class="cls-2" x="41.73" y="119.33" width="12.8" height="16.16"/><rect class="cls-8" x="41.73" y="113.19" width="12.8" height="6.09"/><rect class="cls-8" x="41.73" y="135.05" width="12.8" height="4.96"/><rect class="cls-8" x="41.73" y="153.6" width="12.8" height="4.08"/><rect class="cls-8" x="41.73" y="198.54" width="12.8" height="2.71"/><rect class="cls-2" x="41.73" y="139.64" width="12.8" height="14.62"/><rect class="cls-2" x="41.73" y="157.5" width="12.8" height="39.26"/><rect class="cls-2" x="41.73" y="211.35" width="12.8" height="18.86"/><rect class="cls-8" x="41.73" y="230.37" width="12.8" height="3.07"/><rect class="cls-8" x="41.73" y="268.23" width="12.8" height="3.45"/><rect class="cls-8" x="41.73" y="285.92" width="12.8" height="9.71"/><rect class="cls-2" x="41.73" y="252.48" width="12.8" height="2.29"/><rect class="cls-2" x="41.73" y="271.63" width="12.8" height="14.11"/><rect class="cls-12" x="41.73" y="298.57" width="12.8" height="5.21"/><rect class="cls-2" x="41.73" y="295.63" width="12.8" height="2.95"/><rect class="cls-8" x="41.73" y="303.5" width="12.8" height="7.19"/><rect class="cls-8" x="41.73" y="322.05" width="12.8" height="3.95"/><rect class="cls-2" x="41.73" y="310.32" width="12.8" height="11.97"/><rect class="cls-8" x="41.73" y="336.51" width="12.8" height="8.26"/><rect class="cls-2" x="41.73" y="344.42" width="12.8" height="6.52"/><rect class="cls-14" x="41.73" y="376.82" width="12.8" height=".13"/><rect class="cls-8" x="41.73" y="376.76" width="12.8" height="5.8"/><rect class="cls-2" x="41.73" y="381.97" width="12.8" height="4.42"/><rect class="cls-2" x="41.73" y="414.33" width="12.8" height="13.8"/><rect class="cls-8" x="41.73" y="405.31" width="12.8" height="9.68"/><rect class="cls-8" x="41.73" y="427.38" width="12.8" height="31.26"/><rect class="cls-2" x="41.73" y="458.74" width="12.8" height="6.35"/><rect class="cls-8" x="41.73" y="464.57" width="12.8" height="13.84"/><rect class="cls-2" x="41.73" y="478.04" width="12.8" height="4.81"/><rect class="cls-8" x="41.73" y="482.81" width="12.8" height="7.93"/><rect class="cls-2" x="41.73" y="490.17" width="12.8" height="7.74"/><rect class="cls-8" x="41.73" y="497.58" width="12.8" height="6.24"/><rect class="cls-2" x="41.73" y="503.38" width="12.8" height="4.88"/><rect class="cls-2" x="41.73" y="553.29" width="12.8" height="22.67"/><rect class="cls-8" x="41.73" y="528.41" width="12.8" height="10.69"/><rect class="cls-8" x="41.73" y="595.02" width="12.8" height="4.34"/><rect class="cls-2" x="41.73" y="598.8" width="12.8" height="10.67"/><rect class="cls-8" x="41.73" y="609.32" width="12.8" height="8.89"/><rect class="cls-2" x="41.73" y="618.2" width="12.8" height="9.83"/><rect class="cls-12" x="41.73" y="71.88" width="12.8" height="3.68"/><rect class="cls-2" x="41.73" y="83.73" width="12.8" height="6.17"/><rect class="cls-8" x="41.73" y="89.9" width="12.8" height="1.73"/><rect class="cls-2" x="41.73" y="91.57" width="12.8" height="5.49"/><rect class="cls-12" x="41.73" y="196.77" width="12.8" height="1.74"/><rect class="cls-8" x="41.73" y="207.55" width="12.8" height="3.77"/><rect class="cls-2" x="41.73" y="201.25" width="12.8" height="6.3"/><rect class="cls-2" x="41.73" y="233.48" width="12.8" height="7.1"/><rect class="cls-8" x="41.73" y="240.71" width="12.8" height="2.78"/><rect class="cls-12" x="41.73" y="243.67" width="12.8" height="9.06"/><rect class="cls-8" x="41.73" y="254.76" width="12.8" height="3.46"/><rect class="cls-2" x="41.73" y="257.78" width="12.8" height="6.95"/><rect class="cls-8" x="41.73" y="264.73" width="12.8" height="1.8"/><rect class="cls-2" x="41.73" y="266.42" width="12.8" height="1.82"/><rect class="cls-2" x="41.73" y="325.98" width="12.8" height="2.95"/><rect class="cls-8" x="41.73" y="328.96" width="12.8" height="4.94"/><rect class="cls-2" x="41.73" y="333.9" width="12.8" height="2.95"/><rect class="cls-8" x="41.73" y="350.54" width="12.8" height="5.7"/><rect class="cls-12" x="41.73" y="372.22" width="12.8" height="4.6"/><rect class="cls-8" x="41.73" y="386.32" width="12.8" height="5.66"/><rect class="cls-12" x="41.73" y="401.29" width="12.8" height="4.44"/><rect class="cls-2" x="41.73" y="391.64" width="12.8" height="9.65"/><rect class="cls-8" x="41.73" y="507.36" width="12.8" height="4.87"/><rect class="cls-2" x="41.73" y="511.59" width="12.8" height="11.37"/><rect class="cls-8" x="41.73" y="522.3" width="12.8" height="3.59"/><rect class="cls-2" x="41.73" y="525.48" width="12.8" height="2.93"/><rect class="cls-2" x="41.73" y="539.11" width="12.8" height="2.56"/><rect class="cls-8" x="41.73" y="541.32" width="12.8" height="2.91"/><rect class="cls-12" x="41.73" y="543.77" width="12.8" height="5.81"/><rect class="cls-8" x="41.73" y="549.51" width="12.8" height="4.4"/><rect class="cls-8" x="41.73" y="576.12" width="12.8" height="14.64"/><rect class="cls-2" x="41.73" y="590.6" width="12.8" height="4.86"/><rect class="cls-2" x="41.73" y="355.95" width="12.8" height="16.27"/><polyline class="cls-5" points="75.8 614.84 73.64 614.84 73.64 616.16 73.64 616.51 73.64 619.3 73.64 627.18 73.64 628.03 75.8 628.03"/><polyline class="cls-5" points="75.8 612.55 73.64 612.55 73.64 607.65 73.64 604.99 73.64 602.14 73.64 601.99 75.8 601.99"/><polyline class="cls-5" points="75.8 599.71 73.64 599.71 73.64 599.62 73.64 598.46 73.64 597.1 73.64 590.56 73.64 588.15 73.64 587.85 73.64 585.25 73.64 584.43 73.64 584.02 73.64 581.74 73.64 575.66 73.64 572.85 73.64 571.27 73.64 565.66 75.8 565.66"/><polyline class="cls-5" points="75.8 563.36 73.64 563.36 73.64 562.51 73.64 561.64 73.64 559.97 73.64 559.87 73.64 557.48 73.64 557.14 73.64 554.8 73.64 552.4 73.64 549.48 73.64 549.25 73.64 546.61 73.64 543.5 73.64 540.69 73.64 540.44 73.64 538.08 73.64 536.43 73.64 534.41 73.64 533.34 73.64 533.14 73.64 531.85 73.64 530.9 73.64 529.55 73.64 527.18 73.64 524.3 73.64 521.8 73.64 517.18 73.64 515.1 73.64 512.9 73.64 512.73 73.64 512.69 75.8 512.69"/><polyline class="cls-5" points="75.8 419.35 73.64 419.35 73.64 420.48 73.64 421.29 73.64 423.05 73.64 424.49 73.64 425 73.64 427.46 73.64 440.03 73.64 440.82 73.64 443.01 73.64 443.56 73.64 447.34 73.64 451.12 73.64 458.39 73.64 458.81 73.64 459.57 73.64 460.31 73.64 461.3 73.64 461.56 73.64 461.67 73.64 463.17 73.64 469.6 73.64 471.1 73.64 471.55 73.64 472.04 73.64 473.32 73.64 474.12 73.64 488.89 73.64 491.53 73.64 499.13 73.64 501.29 73.64 503.13 73.64 503.19 73.64 504.1 73.64 504.59 73.64 504.64 73.64 506.1 73.64 507.67 73.64 509.54 73.64 510.39 75.8 510.39"/><polyline class="cls-5" points="75.8 395.44 73.64 395.44 73.64 402.21 73.64 404.08 73.64 405.62 73.64 407.09 73.64 408.81 73.64 411.66 73.64 417.05 75.8 417.05"/><polyline class="cls-11" points="75.8 276.91 73.64 276.91 73.64 277.73 73.64 278.51 73.64 279.19 73.64 280.65 73.64 281 73.64 283.16 73.64 288.58 73.64 291.78 73.64 295.59 73.64 297.19 73.64 298.93 73.64 299.04 73.64 300.17 73.64 301.98 73.64 302.09 73.64 304.4 73.64 306.49 73.64 309.47 73.64 311.81 73.64 314.09 73.64 317.4 73.64 318.55 73.64 318.74 75.8 318.74"/><polyline class="cls-11" points="75.8 132.63 73.64 132.63 73.64 133.95 73.64 135.14 73.64 136.72 73.64 141.55 73.64 144.19 73.64 145.64 73.64 148.66 73.64 160.03 73.64 161.97 73.64 162.08 73.64 163.07 73.64 163.41 73.64 165.21 73.64 170.4 73.64 172.9 73.64 173.53 73.64 173.95 73.64 175.3 73.64 176.45 73.64 177.18 73.64 178.88 73.64 182.91 73.64 183.9 75.8 183.9"/><polyline class="cls-11" points="75.8 68.92 73.64 68.92 73.64 69.63 73.64 74.7 73.64 78.63 73.64 88.82 73.64 94.06 73.64 94.98 73.64 97.09 73.64 97.49 73.64 107.96 73.64 110.61 73.64 111.34 73.64 111.79 73.64 112.07 73.64 113.11 73.64 114.6 73.64 114.61 73.64 120.41 73.64 123.54 73.64 125.59 73.64 126.86 73.64 128.5 73.64 130.33 75.8 130.33"/><polyline class="cls-11" points="75.8 221.64 73.64 221.64 73.64 223.58 73.64 223.98 73.64 227.9 73.64 228.39 73.64 229.07 73.64 231.01 73.64 232.29 73.64 232.39 73.64 232.65 73.64 235.26 73.64 235.75 73.64 238.25 73.64 238.65 73.64 240.37 73.64 241.34 73.64 242.77 73.64 245.23 73.64 245.8 73.64 247.23 73.64 248.45 73.64 248.48 73.64 248.65 73.64 250.19 73.64 250.24 73.64 255.32 73.64 257.27 73.64 257.89 73.64 257.91 73.64 259.78 73.64 261.26 73.64 263.6 73.64 265.33 73.64 266.52 73.64 269.49 73.64 271.55 73.64 271.77 73.64 274.19 73.64 274.61 75.8 274.61"/><polyline class="cls-11" points="75.8 321.05 73.64 321.05 73.64 321.31 73.64 321.41 73.64 324.12 73.64 324.97 73.64 329.13 73.64 330.14 73.64 331.66 73.64 332.95 73.64 335.92 73.64 336.88 73.64 338.11 73.64 340.25 73.64 341.59 73.64 344.49 73.64 348.97 73.64 350.23 73.64 351.87 73.64 352.27 73.64 353.53 73.64 354.14 73.64 362.05 73.64 364.78 73.64 369.16 73.64 370.87 73.64 372.07 73.64 374.31 73.64 375.96 73.64 377.96 73.64 379.13 73.64 380.73 73.64 381.74 73.64 382.17 73.64 383.04 73.64 384.73 73.64 386.04 73.64 386.87 73.64 390.91 73.64 393.14 75.8 393.14"/><polyline class="cls-11" points="75.8 186.19 73.64 186.19 73.64 189.07 73.64 199.95 73.64 201.35 73.64 202.71 73.64 205.4 73.64 212.92 73.64 215.95 73.64 216.74 73.64 219.34 75.8 219.34"/><line class="cls-7" x1="87.44" y1="627.41" x2="87.44" y2="57.75"/><line class="cls-7" x1="80.23" y1="57.75" x2="80.23" y2="627.41"/><rect x="80.37" y="624.68" width="6.87" height="3.23"/><path class="cls-65" d="M77.88,613.69c0,.63.51,1.14,1.14,1.14h9.98c.63,0,1.14-.51,1.14-1.14s-.51-1.14-1.14-1.14h-9.98c-.63,0-1.14.51-1.14,1.14,0,0,0-.63,0,0Z"/><path class="cls-6" d="M77.88,613.69c0,.63.51,1.14,1.14,1.14h9.98c.63,0,1.14-.51,1.14-1.14s-.51-1.14-1.14-1.14h-9.98c-.63,0-1.14.51-1.14,1.14,0,0,0-.63,0,0Z"/><path class="cls-65" d="M77.88,600.86c0,.64.51,1.15,1.15,1.15h9.97c.64,0,1.15-.51,1.15-1.15s-.51-1.15-1.15-1.15h-9.97c-.64,0-1.15.51-1.15,1.15,0,0,0-.64,0,0Z"/><path class="cls-6" d="M77.88,600.86c0,.64.51,1.15,1.15,1.15h9.97c.64,0,1.15-.51,1.15-1.15s-.51-1.15-1.15-1.15h-9.97c-.64,0-1.15.51-1.15,1.15,0,0,0-.64,0,0Z"/><path class="cls-65" d="M77.88,564.51c0,.64.51,1.15,1.15,1.15h9.97c.64,0,1.15-.51,1.15-1.15s-.51-1.15-1.15-1.15h-9.97c-.64,0-1.15.51-1.15,1.15,0,0,0-.64,0,0Z"/><path class="cls-6" d="M77.88,564.51c0,.64.51,1.15,1.15,1.15h9.97c.64,0,1.15-.51,1.15-1.15s-.51-1.15-1.15-1.15h-9.97c-.64,0-1.15.51-1.15,1.15,0,0,0-.64,0,0Z"/><path class="cls-65" d="M77.88,511.54c0,.64.51,1.15,1.15,1.15h9.97c.64,0,1.15-.51,1.15-1.15s-.51-1.15-1.15-1.15h-9.97c-.64,0-1.15.51-1.15,1.15,0,0,0-.64,0,0Z"/><path class="cls-6" d="M77.88,511.54c0,.64.51,1.15,1.15,1.15h9.97c.64,0,1.15-.51,1.15-1.15s-.51-1.15-1.15-1.15h-9.97c-.64,0-1.15.51-1.15,1.15,0,0,0-.64,0,0Z"/><path class="cls-65" d="M77.88,418.2c0,.64.51,1.15,1.15,1.15h9.97c.64,0,1.15-.51,1.15-1.15s-.51-1.15-1.15-1.15h-9.97c-.64,0-1.15.51-1.15,1.15,0,0,0-.64,0,0Z"/><path class="cls-6" d="M77.88,418.2c0,.64.51,1.15,1.15,1.15h9.97c.64,0,1.15-.51,1.15-1.15s-.51-1.15-1.15-1.15h-9.97c-.64,0-1.15.51-1.15,1.15,0,0,0-.64,0,0Z"/><path class="cls-65" d="M77.88,394.29c0,.64.51,1.15,1.15,1.15h9.97c.64,0,1.15-.51,1.15-1.15s-.51-1.15-1.15-1.15h-9.97c-.64,0-1.15.51-1.15,1.15,0,0,0-.64,0,0Z"/><path class="cls-6" d="M77.88,394.29c0,.64.51,1.15,1.15,1.15h9.97c.64,0,1.15-.51,1.15-1.15s-.51-1.15-1.15-1.15h-9.97c-.64,0-1.15.51-1.15,1.15,0,0,0-.64,0,0Z"/><path class="cls-65" d="M77.88,319.89c0,.64.52,1.15,1.15,1.15h9.96c.64,0,1.15-.52,1.15-1.15s-.52-1.15-1.15-1.15h-9.96c-.64,0-1.15.52-1.15,1.15,0,0,0-.64,0,0Z"/><path class="cls-6" d="M77.88,319.89c0,.64.52,1.15,1.15,1.15h9.96c.64,0,1.15-.52,1.15-1.15s-.52-1.15-1.15-1.15h-9.96c-.64,0-1.15.52-1.15,1.15,0,0,0-.64,0,0Z"/><path class="cls-65" d="M77.88,275.76c0,.64.51,1.15,1.15,1.15h9.97c.64,0,1.15-.51,1.15-1.15s-.51-1.15-1.15-1.15h-9.97c-.64,0-1.15.51-1.15,1.15,0,0,0-.64,0,0Z"/><path class="cls-6" d="M77.88,275.76c0,.64.51,1.15,1.15,1.15h9.97c.64,0,1.15-.51,1.15-1.15s-.51-1.15-1.15-1.15h-9.97c-.64,0-1.15.51-1.15,1.15,0,0,0-.64,0,0Z"/><path class="cls-65" d="M77.88,220.49c0,.64.51,1.15,1.15,1.15h9.97c.64,0,1.15-.51,1.15-1.15s-.51-1.15-1.15-1.15h-9.97c-.64,0-1.15.51-1.15,1.15,0,0,0-.64,0,0Z"/><path class="cls-6" d="M77.88,220.49c0,.64.51,1.15,1.15,1.15h9.97c.64,0,1.15-.51,1.15-1.15s-.51-1.15-1.15-1.15h-9.97c-.64,0-1.15.51-1.15,1.15,0,0,0-.64,0,0Z"/><path class="cls-65" d="M77.88,185.04c0,.63.51,1.15,1.15,1.15h9.98c.63,0,1.15-.51,1.15-1.15s-.51-1.15-1.15-1.15h-9.98c-.63,0-1.15.51-1.15,1.15,0,0,0-.63,0,0Z"/><path class="cls-6" d="M77.88,185.04c0,.63.51,1.15,1.15,1.15h9.98c.63,0,1.15-.51,1.15-1.15s-.51-1.15-1.15-1.15h-9.98c-.63,0-1.15.51-1.15,1.15,0,0,0-.63,0,0Z"/><path class="cls-65" d="M77.88,67.77c0,.64.51,1.15,1.15,1.15h9.97c.64,0,1.15-.51,1.15-1.15s-.51-1.15-1.15-1.15h-9.97c-.64,0-1.15.51-1.15,1.15,0,0,0-.64,0,0Z"/><path class="cls-6" d="M77.88,67.77c0,.64.51,1.15,1.15,1.15h9.97c.64,0,1.15-.51,1.15-1.15s-.51-1.15-1.15-1.15h-9.97c-.64,0-1.15.51-1.15,1.15,0,0,0-.64,0,0Z"/><path class="cls-65" d="M77.88,131.48c0,.64.51,1.15,1.15,1.15h9.97c.64,0,1.15-.51,1.15-1.15s-.51-1.15-1.15-1.15h-9.97c-.64,0-1.15.51-1.15,1.15,0,0,0-.64,0,0Z"/><path class="cls-6" d="M77.88,131.48c0,.64.51,1.15,1.15,1.15h9.97c.64,0,1.15-.51,1.15-1.15s-.51-1.15-1.15-1.15h-9.97c-.64,0-1.15.51-1.15,1.15,0,0,0-.64,0,0Z"/><line class="cls-10" x1="31.04" y1="57.23" x2="38.24" y2="57.23"/><line class="cls-10" x1="31.04" y1="101.89" x2="38.24" y2="101.89"/><line class="cls-10" x1="31.04" y1="146.55" x2="38.24" y2="146.55"/><line class="cls-10" x1="31.04" y1="191.21" x2="38.24" y2="191.21"/><line class="cls-10" x1="31.04" y1="235.87" x2="38.24" y2="235.87"/><line class="cls-10" x1="31.04" y1="280.53" x2="38.24" y2="280.53"/><line class="cls-10" x1="31.04" y1="325.19" x2="38.24" y2="325.19"/><line class="cls-10" x1="31.04" y1="369.85" x2="38.24" y2="369.85"/><line class="cls-10" x1="31.04" y1="414.52" x2="38.24" y2="414.52"/><line class="cls-10" x1="31.04" y1="503.84" x2="38.24" y2="503.84"/><line class="cls-10" x1="31.04" y1="459.18" x2="38.24" y2="459.18"/><line class="cls-10" x1="31.04" y1="548.5" x2="38.24" y2="548.5"/><line class="cls-10" x1="31.04" y1="637.82" x2="38.24" y2="637.82"/><line class="cls-10" x1="31.04" y1="593.16" x2="38.24" y2="593.16"/><text class="cls-26" transform="translate(19.66 59.88) scale(.91 1)"><tspan x="0" y="0">550</tspan></text><text class="cls-26" transform="translate(19.66 104.49) scale(.91 1)"><tspan x="0" y="0">600</tspan></text><text class="cls-26" transform="translate(19.66 149.1) scale(.91 1)"><tspan x="0" y="0">650</tspan></text><text class="cls-26" transform="translate(19.66 193.71) scale(.91 1)"><tspan x="0" y="0">700</tspan></text><text class="cls-26" transform="translate(19.66 238.32) scale(.91 1)"><tspan x="0" y="0">750</tspan></text><text class="cls-26" transform="translate(19.66 282.93) scale(.91 1)"><tspan x="0" y="0">800</tspan></text><text class="cls-26" transform="translate(19.66 327.55) scale(.91 1)"><tspan x="0" y="0">850</tspan></text><text class="cls-26" transform="translate(19.66 372.16) scale(.91 1)"><tspan x="0" y="0">900</tspan></text><text class="cls-26" transform="translate(19.66 416.77) scale(.91 1)"><tspan x="0" y="0">950</tspan></text><text class="cls-26" transform="translate(15.1 461.38) scale(.91 1)"><tspan x="0" y="0">1,000</tspan></text><text class="cls-26" transform="translate(15.1 505.99) scale(.91 1)"><tspan x="0" y="0">1,050</tspan></text><text class="cls-26" transform="translate(15.1 550.6) scale(.91 1)"><tspan x="0" y="0">1,100</tspan></text><text class="cls-26" transform="translate(15.1 595.21) scale(.91 1)"><tspan x="0" y="0">1,150</tspan></text><text class="cls-26" transform="translate(15.2 637.72) scale(.9 1)"><tspan x="0" y="0">1,200</tspan></text><polygon class="cls-42" points="91.47 615.3 87.82 617.67 91.47 620.05 91.47 615.3"/><polygon class="cls-42" points="91.47 601.66 87.82 604.04 91.47 606.41 91.47 601.66"/><polygon class="cls-41" points="91.47 578.65 87.82 581.03 91.47 583.4 91.47 578.65"/><polygon class="cls-42" points="91.47 565.55 87.82 567.93 91.47 570.3 91.47 565.55"/><polygon class="cls-42" points="91.47 512.56 87.82 514.94 91.47 517.31 91.47 512.56"/><polygon class="cls-41" points="91.47 440.53 87.82 442.91 91.47 445.28 91.47 440.53"/><polygon class="cls-42" points="91.47 418.85 87.82 421.23 91.47 423.6 91.47 418.85"/><polygon class="cls-42" points="91.47 394.96 87.82 397.34 91.47 399.71 91.47 394.96"/><polygon class="cls-42" points="91.47 320.46 87.82 322.83 91.47 325.21 91.47 320.46"/><polygon class="cls-41" points="91.47 289.7 87.82 292.07 91.47 294.44 91.47 289.7"/><polygon class="cls-42" points="91.47 277.24 87.82 279.62 91.47 281.99 91.47 277.24"/><polygon class="cls-42" points="91.47 222.89 87.82 225.26 91.47 227.63 91.47 222.89"/><polygon class="cls-42" points="91.47 185.67 87.82 188.04 91.47 190.42 91.47 185.67"/><polygon class="cls-42" points="91.47 133.18 87.82 135.55 91.47 137.93 91.47 133.18"/><polygon class="cls-41" points="91.47 114.61 87.82 116.99 91.47 119.36 91.47 114.61"/><polygon class="cls-42" points="91.47 68.09 87.82 70.46 91.47 72.83 91.47 68.09"/><text class="cls-29" transform="translate(112.5 624.05) scale(.89 1)"><tspan class="cls-30"><tspan x="0" y="0">HOLE DEPTH</tspan></tspan><tspan class="cls-56"><tspan x="0" y="6">1,189 ft</tspan></tspan></text><rect class="cls-10" x="38.24" y="627.85" width="70.21" height="9.83"/></g></g><g id="Explanation"><text class="cls-24" transform="translate(134.16 104.68)"><tspan x="0" y="0">EXPLAN</tspan><tspan class="cls-59" x="32.45" y="0">A</tspan><tspan x="37.63" y="0">TION</tspan></text><text class="cls-22" transform="translate(127.83 120.81)"><tspan x="0" y="0">Lithology</tspan></text><text class="cls-25" transform="translate(151.46 175.96)"><tspan class="cls-88" x="0" y="0">Se</tspan><tspan class="cls-104" x="8.82" y="0">d</tspan><tspan class="cls-34" x="12.79" y="0">i</tspan><tspan class="cls-89" x="14.44" y="0">m</tspan><tspan class="cls-70" x="20.4" y="0">e</tspan><tspan class="cls-87" x="24.4" y="0">n</tspan><tspan class="cls-71" x="28.34" y="0">t</tspan></text><text class="cls-25" transform="translate(151.46 136.8)"><tspan class="cls-37" x="0" y="0">D</tspan><tspan class="cls-99" x="5.21" y="0">e</tspan><tspan class="cls-54" x="9.21" y="0">n</tspan><tspan class="cls-99" x="13.2" y="0">s</tspan><tspan class="cls-79" x="16.81" y="0">e </tspan><tspan class="cls-49" x="22.65" y="0">ba</tspan><tspan class="cls-108" x="30.62" y="0">s</tspan><tspan class="cls-74" x="34.25" y="0">a</tspan><tspan class="cls-96" x="38.25" y="0">l</tspan><tspan class="cls-71" x="39.89" y="0">t</tspan></text><rect class="cls-13" x="135.03" y="127.47" width="12.8" height="13.62"/><text class="cls-25" transform="translate(151.46 156.38)"><tspan class="cls-61" x="0" y="0">F</tspan><tspan class="cls-88" x="4.17" y="0">r</tspan><tspan class="cls-63" x="6.63" y="0">a</tspan><tspan class="cls-44" x="10.6" y="0">c</tspan><tspan class="cls-58" x="14.27" y="0">t</tspan><tspan class="cls-96" x="16.32" y="0">u</tspan><tspan class="cls-62" x="20.3" y="0">r</tspan><tspan class="cls-32" x="22.74" y="0">e</tspan><tspan class="cls-79" x="26.76" y="0">d </tspan><tspan class="cls-31" x="32.6" y="0">ba</tspan><tspan class="cls-108" x="40.58" y="0">s</tspan><tspan class="cls-35" x="44.21" y="0">a</tspan><tspan class="cls-45" x="48.2" y="0">l</tspan><tspan class="cls-71" x="49.84" y="0">t</tspan></text><rect class="cls-16" x="135.03" y="147.05" width="12.8" height="13.62"/><rect class="cls-17" x="135.03" y="166.63" width="12.8" height="13.62"/><line class="cls-38" x1="145.97" y1="231.31" x2="163.89" y2="231.31"/><text class="cls-22" transform="translate(127.83 196.56)"><tspan x="0" y="0">Completion</tspan></text><line class="cls-38" x1="163.89" y1="244.23" x2="160.3" y2="244.23"/><polyline class="cls-38" points="163.89 256.7 158.64 256.7 134.68 249.75"/><polygon class="cls-42" points="150.25 241.97 146.6 244.34 150.25 246.72 150.25 241.97"/><polyline class="cls-3" points="135.45 287.35 133.29 287.35 133.29 232.69 135.45 232.69"/><text class="cls-21" transform="translate(152.35 246.43) scale(.89 1)"><tspan x="0" y="0">P2</tspan></text><text class="cls-21" transform="translate(125.67 250.93) scale(.89 1)"><tspan x="0" y="0">Z1</tspan></text><text class="cls-27" transform="translate(125.67 250.93) scale(.89 1)"><tspan x="0" y="0">Z1</tspan></text><line class="cls-38" x1="145.97" y1="218.82" x2="163.89" y2="218.82"/><line class="cls-38" x1="150.59" y1="207.2" x2="163.89" y2="207.2"/><text class="cls-25" transform="translate(165.88 234.1)"><tspan class="cls-101" x="0" y="0">P</tspan><tspan class="cls-63" x="4.7" y="0">a</tspan><tspan class="cls-1" x="8.68" y="0">c</tspan><tspan class="cls-103" x="12.34" y="0">k</tspan><tspan class="cls-86" x="15.8" y="0">e</tspan><tspan x="19.81" y="0">r</tspan></text><text class="cls-25" transform="translate(165.88 246.67)"><tspan class="cls-43" x="0" y="0">M</tspan><tspan class="cls-70" x="6.01" y="0">e</tspan><tspan class="cls-93" x="10.02" y="0">a</tspan><tspan class="cls-69" x="14" y="0">s</tspan><tspan class="cls-96" x="17.58" y="0">u</tspan><tspan class="cls-62" x="21.57" y="0">r</tspan><tspan class="cls-70" x="24" y="0">e</tspan><tspan class="cls-89" x="28.01" y="0">m</tspan><tspan class="cls-70" x="33.96" y="0">e</tspan><tspan class="cls-87" x="37.96" y="0">n</tspan><tspan class="cls-71" x="41.91" y="0">t </tspan><tspan class="cls-78" x="45.8" y="0">p</tspan><tspan class="cls-108" x="49.83" y="0">o</tspan><tspan class="cls-76" x="53.85" y="0">r</tspan><tspan x="56.54" y="0">t </tspan><tspan class="cls-60" x="60.43" y="0">nu</tspan><tspan class="cls-106" x="68.38" y="0">m</tspan><tspan class="cls-46" x="74.32" y="0">b</tspan><tspan class="cls-86" x="78.34" y="0">e</tspan><tspan x="82.35" y="0">r</tspan></text><text class="cls-25" transform="translate(165.88 259.24)"><tspan class="cls-84" x="0" y="0">M</tspan><tspan class="cls-32" x="6.02" y="0">o</tspan><tspan class="cls-45" x="10.04" y="0">n</tspan><tspan class="cls-74" x="14.02" y="0">i</tspan><tspan class="cls-53" x="15.68" y="0">t</tspan><tspan class="cls-108" x="17.69" y="0">o</tspan><tspan class="cls-80" x="21.72" y="0">r</tspan><tspan class="cls-47" x="24.25" y="0">i</tspan><tspan class="cls-98" x="25.91" y="0">n</tspan><tspan x="29.91" y="0">g </tspan><tspan class="cls-92" x="35.75" y="0">z</tspan><tspan class="cls-88" x="39.31" y="0">o</tspan><tspan class="cls-106" x="43.33" y="0">n</tspan><tspan class="cls-79" x="47.33" y="0">e </tspan><tspan class="cls-69" x="53.17" y="0">nu</tspan><tspan class="cls-91" x="61.12" y="0">m</tspan><tspan class="cls-46" x="67.05" y="0">b</tspan><tspan class="cls-86" x="71.07" y="0">e</tspan><tspan x="75.08" y="0">r</tspan></text><text class="cls-25" transform="translate(165.88 221.53)"><tspan class="cls-55" x="0" y="0">M</tspan><tspan class="cls-93" x="5.99" y="0">ul</tspan><tspan class="cls-20" x="11.62" y="0">t</tspan><tspan class="cls-34" x="13.7" y="0">i</tspan><tspan class="cls-78" x="15.36" y="0">p</tspan><tspan class="cls-108" x="19.39" y="0">o</tspan><tspan class="cls-76" x="23.41" y="0">r</tspan><tspan x="26.1" y="0">t </tspan><tspan class="cls-33" x="29.99" y="0">c</tspan><tspan class="cls-93" x="33.71" y="0">a</tspan><tspan class="cls-75" x="37.7" y="0">s</tspan><tspan class="cls-47" x="41.3" y="0">i</tspan><tspan class="cls-70" x="42.95" y="0">n</tspan><tspan x="46.96" y="0">g</tspan></text><text class="cls-25" transform="translate(165.88 271.81)"><tspan class="cls-57" x="0" y="0">S</tspan><tspan class="cls-64" x="4.79" y="0">a</tspan><tspan class="cls-106" x="8.79" y="0">m</tspan><tspan class="cls-89" x="14.72" y="0">pl</tspan><tspan x="20.41" y="0">e </tspan><tspan class="cls-82" x="26.25" y="0">c</tspan><tspan class="cls-108" x="29.97" y="0">o</tspan><tspan class="cls-31" x="33.99" y="0">l</tspan><tspan class="cls-102" x="35.64" y="0">l</tspan><tspan class="cls-95" x="37.32" y="0">e</tspan><tspan class="cls-44" x="41.33" y="0">c</tspan><tspan class="cls-20" x="45.01" y="0">ti</tspan><tspan class="cls-88" x="48.78" y="0">o</tspan><tspan x="52.8" y="0">n </tspan><tspan class="cls-51" x="58.64" y="0">a</tspan><tspan x="62.59" y="0">t </tspan><tspan class="cls-78" x="66.48" y="0">p</tspan><tspan class="cls-68" x="70.51" y="0">o</tspan><tspan class="cls-83" x="74.54" y="0">r</tspan><tspan class="cls-79" x="77.23" y="0">t</tspan></text><text class="cls-25" transform="translate(165.88 208.96)"><tspan class="cls-73" x="0" y="0">W</tspan><tspan class="cls-46" x="6.58" y="0">e</tspan><tspan class="cls-31" x="10.59" y="0">l</tspan><tspan class="cls-79" x="12.24" y="0">l </tspan><tspan class="cls-33" x="15.74" y="0">c</tspan><tspan class="cls-54" x="19.46" y="0">a</tspan><tspan class="cls-50" x="23.45" y="0">si</tspan><tspan class="cls-98" x="28.71" y="0">n</tspan><tspan x="32.71" y="0">g</tspan></text><line class="cls-40" x1="135.23" y1="202.46" x2="135.23" y2="214.96"/><line class="cls-40" x1="149.72" y1="202.46" x2="149.72" y2="214.96"/><rect x="138.94" y="280.41" width="7.09" height="2.65"/><line class="cls-7" x1="146.03" y1="282.57" x2="145.92" y2="202.46"/><line class="cls-7" x1="138.82" y1="202.46" x2="138.94" y2="282.57"/><path class="cls-65" d="M136.34,231.31c0,.76.62,1.38,1.38,1.38h9.52c.76,0,1.38-.62,1.38-1.38s-.62-1.38-1.38-1.38h-9.52c-.76,0-1.38.62-1.38,1.38,0,0,0-.76,0,0Z"/><path class="cls-39" d="M136.34,231.31c0,.76.62,1.38,1.38,1.38h9.52c.76,0,1.38-.62,1.38-1.38s-.62-1.38-1.38-1.38h-9.52c-.76,0-1.38.62-1.38,1.38,0,0,0-.76,0,0Z"/><text class="cls-22" transform="translate(127.83 303.87)"><tspan x="0" y="0">Borehole</tspan></text><line class="cls-4" x1="147.83" y1="335.05" x2="139.74" y2="343.14"/><line class="cls-4" x1="147.83" y1="340.27" x2="144.96" y2="343.14"/><line class="cls-4" x1="142.92" y1="329.52" x2="135.03" y2="337.41"/><line class="cls-4" x1="147.83" y1="329.83" x2="135.03" y2="342.63"/><line class="cls-4" x1="137.7" y1="329.52" x2="135.03" y2="332.19"/><rect class="cls-15" x="135.03" y="329.52" width="12.8" height="13.62"/><text class="cls-25" transform="translate(151.46 338.2)"><tspan class="cls-78" x="0" y="0">B</tspan><tspan class="cls-46" x="4.81" y="0">el</tspan><tspan class="cls-81" x="10.5" y="0">o</tspan><tspan class="cls-79" x="14.47" y="0">w </tspan><tspan class="cls-97" x="21.47" y="0">h</tspan><tspan class="cls-108" x="25.48" y="0">o</tspan><tspan class="cls-102" x="29.51" y="0">l</tspan><tspan class="cls-79" x="31.18" y="0">e </tspan><tspan class="cls-62" x="37.02" y="0">d</tspan><tspan class="cls-99" x="41.01" y="0">e</tspan><tspan class="cls-94" x="45.02" y="0">p</tspan><tspan class="cls-72" x="48.97" y="0">t</tspan><tspan x="51.05" y="0">h</tspan></text><polygon class="cls-18" points="138.4 312.05 141.43 314.9 144.45 312.05 138.4 312.05"/><line class="cls-10" x1="135.03" y1="315.28" x2="136.03" y2="315.28"/><line class="cls-9" x1="138.19" y1="315.28" x2="145.75" y2="315.28"/><line class="cls-10" x1="146.83" y1="315.28" x2="147.83" y2="315.28"/><text class="cls-25" transform="translate(151.46 316.53)"><tspan class="cls-73" x="0" y="0">W</tspan><tspan class="cls-51" x="6.58" y="0">at</tspan><tspan class="cls-86" x="12.54" y="0">e</tspan><tspan x="16.55" y="0">r </tspan><tspan class="cls-102" x="20.83" y="0">l</tspan><tspan class="cls-79" x="22.5" y="0">e</tspan><tspan class="cls-66" x="26.39" y="0">v</tspan><tspan class="cls-57" x="29.9" y="0">e</tspan><tspan x="33.92" y="0">l </tspan><tspan class="cls-89" x="37.42" y="0">m</tspan><tspan class="cls-98" x="43.37" y="0">e</tspan><tspan class="cls-54" x="47.37" y="0">a</tspan><tspan class="cls-69" x="51.36" y="0">s</tspan><tspan class="cls-96" x="54.94" y="0">u</tspan><tspan class="cls-62" x="58.93" y="0">r</tspan><tspan class="cls-32" x="61.36" y="0">e</tspan><tspan x="65.38" y="0">d</tspan><tspan class="cls-85" x="0" y="8.4">o</tspan><tspan class="cls-105" x="4.01" y="8.4">u</tspan><tspan class="cls-90" x="7.99" y="8.4">t</tspan><tspan class="cls-75" x="10.08" y="8.4">s</tspan><tspan class="cls-20" x="13.68" y="8.4">i</tspan><tspan class="cls-62" x="15.37" y="8.4">d</tspan><tspan x="19.37" y="8.4">e </tspan><tspan class="cls-31" x="25.21" y="8.4">mul</tspan><tspan class="cls-20" x="36.77" y="8.4">t</tspan><tspan class="cls-47" x="38.85" y="8.4">i</tspan><tspan class="cls-78" x="40.5" y="8.4">p</tspan><tspan class="cls-68" x="44.53" y="8.4">o</tspan><tspan class="cls-83" x="48.56" y="8.4">r</tspan><tspan class="cls-79" x="51.25" y="8.4">t </tspan><tspan class="cls-33" x="55.13" y="8.4">c</tspan><tspan class="cls-54" x="58.86" y="8.4">a</tspan><tspan class="cls-50" x="62.84" y="8.4">si</tspan><tspan class="cls-98" x="68.1" y="8.4">n</tspan><tspan x="72.1" y="8.4">g</tspan></text><text class="cls-25" transform="translate(165.88 284.38)"><tspan class="cls-55" x="0" y="0">M</tspan><tspan class="cls-93" x="5.99" y="0">ul</tspan><tspan class="cls-20" x="11.62" y="0">t</tspan><tspan class="cls-34" x="13.7" y="0">i</tspan><tspan class="cls-78" x="15.36" y="0">p</tspan><tspan class="cls-108" x="19.39" y="0">o</tspan><tspan class="cls-76" x="23.41" y="0">r</tspan><tspan class="cls-49" x="26.1" y="0">t</tspan><tspan class="cls-77" x="28.14" y="0">-</tspan><tspan class="cls-33" x="30.79" y="0">c</tspan><tspan class="cls-96" x="34.51" y="0">a</tspan><tspan class="cls-75" x="38.49" y="0">s</tspan><tspan class="cls-47" x="42.1" y="0">i</tspan><tspan class="cls-98" x="43.75" y="0">n</tspan><tspan class="cls-79" x="47.75" y="0">g </tspan><tspan class="cls-99" x="53.59" y="0">en</tspan><tspan class="cls-79" x="61.6" y="0">d </tspan><tspan class="cls-33" x="67.44" y="0">c</tspan><tspan class="cls-47" x="71.16" y="0">a</tspan><tspan x="75.15" y="0">p</tspan></text><line class="cls-38" x1="145.97" y1="281.92" x2="163.89" y2="281.92"/><line class="cls-38" x1="163.89" y1="269.35" x2="152.3" y2="269.35"/><polygon class="cls-41" points="150.25 266.98 146.6 269.35 150.25 271.72 150.25 266.98"/></g><g id="Grid"><text class="cls-23" transform="translate(9.42 394.03) rotate(-90) scale(1.26 1)"><tspan x="0" y="0">Depth, in feet below land surface</tspan></text><text class="cls-28" transform="translate(51.33 52.08) rotate(-90) scale(1.16 1)"><tspan x="0" y="0">LITHOLOGY</tspan></text><text class="cls-21" transform="translate(63.14 52.54) scale(.93 1)"><tspan x="0" y="0">Zone</tspan></text><text class="cls-21" transform="translate(94.11 52.54) scale(.93 1)"><tspan x="0" y="0">Port</tspan></text><polyline class="cls-10" points="38.23 57.23 108.44 57.23 38.23 57.23"/><line class="cls-10" x1="58" y1="6.97" x2="58" y2="637.82"/><polygon class="cls-10" points="108.44 637.82 108.44 6.97 38.23 6.97 38.23 6.97 38.23 637.82 108.44 637.82"/></g></svg>