<?xml version="1.0" encoding="UTF-8"?><svg xmlns="http://www.w3.org/2000/svg" viewBox="0 0 252 645"><defs><style>.cls-1{letter-spacing:.02em;}.cls-2,.cls-3,.cls-4,.cls-5,.cls-6,.cls-7,.cls-8,.cls-9,.cls-10,.cls-11,.cls-12,.cls-13{stroke-linejoin:round;}.cls-2,.cls-3,.cls-4,.cls-5,.cls-7,.cls-8,.cls-9,.cls-10,.cls-12,.cls-13{stroke-linecap:round;}.cls-2,.cls-4,.cls-14,.cls-7,.cls-15,.cls-8,.cls-9,.cls-10,.cls-16,.cls-12,.cls-13,.cls-17{stroke:#000;}.cls-2,.cls-14{fill:#bcbdc0;}.cls-2,.cls-8,.cls-18,.cls-12{stroke-width:.25px;}.cls-19{letter-spacing:-.04em;}.cls-20{letter-spacing:.02em;}.cls-21,.cls-22,.cls-23,.cls-24,.cls-25{fill:#231f20;}.cls-21,.cls-26,.cls-27,.cls-23,.cls-25,.cls-28,.cls-29{font-family:ArialMT, Arial;}.cls-21,.cls-26,.cls-27,.cls-28,.cls-30{font-size:6px;}.cls-31{letter-spacing:.01em;}.cls-22,.cls-24{font-family:Arial-BoldMT, Arial;font-weight:700;}.cls-22,.cls-25{font-size:7px;}.cls-32{letter-spacing:.02em;}.cls-33{letter-spacing:.03em;}.cls-34{letter-spacing:.01em;}.cls-35{letter-spacing:.01em;}.cls-36{letter-spacing:.02em;}.cls-37,.cls-3,.cls-4,.cls-5,.cls-14,.cls-16,.cls-11,.cls-17{stroke-width:.35px;}.cls-37,.cls-3,.cls-4,.cls-5,.cls-6,.cls-38,.cls-7,.cls-15,.cls-9,.cls-10,.cls-39,.cls-11,.cls-40,.cls-13{fill:none;}.cls-37,.cls-3,.cls-41,.cls-6,.cls-38,.cls-39,.cls-11,.cls-42{stroke:#241f20;}.cls-37,.cls-14,.cls-15,.cls-16,.cls-17{stroke-miterlimit:90;}.cls-43{letter-spacing:.03em;}.cls-44{letter-spacing:.02em;}.cls-45{letter-spacing:.01em;}.cls-46{letter-spacing:.02em;}.cls-47{letter-spacing:.01em;}.cls-48{letter-spacing:.01em;}.cls-49{letter-spacing:.01em;}.cls-50{letter-spacing:0em;}.cls-26{fill:#212121;}.cls-5,.cls-40{stroke:#231f20;}.cls-51{letter-spacing:.01em;}.cls-52{letter-spacing:.01em;}.cls-27,.cls-29{fill:#241f20;}.cls-53{letter-spacing:.02em;}.cls-54{font-size:5px;}.cls-55{letter-spacing:.02em;}.cls-41{fill:red;}.cls-41,.cls-42{stroke-width:.53px;}.cls-56{letter-spacing:.01em;}.cls-57{letter-spacing:-.07em;}.cls-58{letter-spacing:.01em;}.cls-59{letter-spacing:-.02em;}.cls-6,.cls-38,.cls-15,.cls-9,.cls-10{stroke-width:.5px;}.cls-60{letter-spacing:.02em;}.cls-38{stroke-miterlimit:10;}.cls-61{letter-spacing:.01em;}.cls-62{letter-spacing:.01em;}.cls-63{fill:#1072ba;}.cls-64{letter-spacing:0em;}.cls-65{letter-spacing:.02em;}.cls-66{letter-spacing:.01em;}.cls-67{letter-spacing:.02em;}.cls-68{letter-spacing:0em;}.cls-69{letter-spacing:.02em;}.cls-70{letter-spacing:0em;}.cls-71{letter-spacing:.01em;}.cls-72{letter-spacing:.01em;}.cls-23,.cls-24{font-size:8px;}.cls-73{letter-spacing:.05em;}.cls-74{letter-spacing:.05em;}.cls-75{letter-spacing:.02em;}.cls-76{letter-spacing:0em;}.cls-8{fill:#f2ad47;}.cls-77{letter-spacing:.03em;}.cls-9{stroke-dasharray:2.16 2.16;}.cls-78{letter-spacing:.01em;}.cls-79{letter-spacing:.03em;}.cls-80{letter-spacing:-.07em;}.cls-81{letter-spacing:.05em;}.cls-82{letter-spacing:.03em;}.cls-83{letter-spacing:.02em;}.cls-84{letter-spacing:.02em;}.cls-85{letter-spacing:0em;}.cls-18{fill:#70cddd;stroke:#70cddd;}.cls-39,.cls-40{stroke-width:2px;}.cls-86{letter-spacing:.02em;}.cls-16{fill:#fbb041;}.cls-87{letter-spacing:.02em;}.cls-88{letter-spacing:.02em;}.cls-89{letter-spacing:.02em;}.cls-90{letter-spacing:0em;}.cls-91{letter-spacing:.01em;}.cls-92{letter-spacing:0em;}.cls-12{fill:#ece340;}.cls-93{letter-spacing:.02em;}.cls-94{letter-spacing:.01em;}.cls-95{letter-spacing:.02em;}.cls-42{fill:#fff;}.cls-96{letter-spacing:.02em;}.cls-97{letter-spacing:.02em;}.cls-98{letter-spacing:0em;}.cls-99{letter-spacing:.02em;}.cls-100{letter-spacing:0em;}.cls-13{stroke-width:.06px;}.cls-101{letter-spacing:.01em;}.cls-102{letter-spacing:.01em;}.cls-103{letter-spacing:.02em;}.cls-104{letter-spacing:-.07em;}.cls-105{letter-spacing:.02em;}.cls-17{fill:#f5eb12;}</style></defs><g id="Completions"><g id="USGS_108"><text class="cls-26" transform="translate(19.72 108.2) scale(.9 1)"><tspan x="0" y="0">650</tspan></text><text class="cls-26" transform="translate(19.72 156.53) scale(.9 1)"><tspan x="0" y="0">700</tspan></text><text class="cls-26" transform="translate(19.72 204.86) scale(.9 1)"><tspan x="0" y="0">750</tspan></text><text class="cls-26" transform="translate(19.72 253.18) scale(.9 1)"><tspan x="0" y="0">800</tspan></text><text class="cls-26" transform="translate(19.72 301.51) scale(.9 1)"><tspan x="0" y="0">850</tspan></text><text class="cls-26" transform="translate(19.72 349.84) scale(.9 1)"><tspan x="0" y="0">900</tspan></text><text class="cls-26" transform="translate(19.72 398.16) scale(.9 1)"><tspan x="0" y="0">950</tspan></text><text class="cls-26" transform="translate(15.2 446.49) scale(.9 1)"><tspan x="0" y="0">1,000</tspan></text><text class="cls-26" transform="translate(15.2 494.82) scale(.9 1)"><tspan x="0" y="0">1,050</tspan></text><text class="cls-26" transform="translate(15.2 543.14) scale(.9 1)"><tspan x="0" y="0">1,100</tspan></text><text class="cls-26" transform="translate(15.2 591.47) scale(.9 1)"><tspan x="0" y="0">1,150</tspan></text><text class="cls-26" transform="translate(19.72 59.88) scale(.9 1)"><tspan x="0" y="0">600</tspan></text><text class="cls-26" transform="translate(15.2 637.72) scale(.9 1)"><tspan x="0" y="0">1,200</tspan></text><rect class="cls-2" x="41.73" y="80.84" width="12.8" height="12.8"/><rect class="cls-8" x="41.73" y="57.87" width="12.8" height="22.53"/><rect class="cls-8" x="41.73" y="93.64" width="12.8" height="12.46"/><rect class="cls-8" x="41.73" y="120.53" width="12.8" height="16.7"/><rect class="cls-2" x="41.73" y="106.1" width="12.8" height="14.93"/><rect class="cls-2" x="41.73" y="137.02" width="12.8" height="10.79"/><rect class="cls-2" x="41.73" y="154.74" width="12.8" height="12.02"/><rect class="cls-8" x="41.73" y="147.84" width="12.8" height="6.63"/><rect class="cls-8" x="41.73" y="166.75" width="12.8" height="16.72"/><rect class="cls-8" x="41.73" y="188.39" width="12.8" height="9.6"/><rect class="cls-8" x="41.73" y="207.77" width="12.8" height="12.03"/><rect class="cls-2" x="41.73" y="183.24" width="12.8" height="5.41"/><rect class="cls-2" x="41.73" y="198.23" width="12.8" height="9.83"/><rect class="cls-2" x="41.73" y="219.8" width="12.8" height="31.75"/><rect class="cls-8" x="41.73" y="251.31" width="12.8" height="14.75"/><rect class="cls-8" x="41.73" y="288.17" width="12.8" height="7.59"/><rect class="cls-8" x="41.73" y="307.36" width="12.8" height="2.74"/><rect class="cls-2" x="41.73" y="266.06" width="12.8" height="21.85"/><rect class="cls-2" x="41.73" y="295.79" width="12.8" height="7.88"/><rect class="cls-12" x="41.73" y="303.78" width="12.8" height="3.22"/><rect class="cls-12" x="41.73" y="326.08" width="12.8" height="4.07"/><rect class="cls-12" x="41.73" y="335.9" width="12.8" height="4.87"/><rect class="cls-2" x="41.73" y="310.09" width="12.8" height="11.01"/><rect class="cls-8" x="41.73" y="321.1" width="12.8" height="5.2"/><rect class="cls-8" x="41.73" y="330.16" width="12.8" height="5.98"/><rect class="cls-2" x="41.73" y="340.64" width="12.8" height="20.72"/><rect class="cls-8" x="41.73" y="360.84" width="12.8" height=".82"/><rect class="cls-2" x="41.73" y="362.16" width="12.8" height="12.99"/><rect class="cls-8" x="41.73" y="375.15" width="12.8" height="17.01"/><rect class="cls-2" x="41.73" y="392.22" width="12.8" height="8.01"/><rect class="cls-8" x="41.73" y="400.2" width="12.8" height="17.01"/><rect class="cls-8" x="41.73" y="429.98" width="12.8" height="14.72"/><rect class="cls-2" x="41.73" y="417.21" width="12.8" height="12.57"/><rect class="cls-12" x="41.73" y="444.47" width="12.8" height="6.69"/><rect class="cls-8" x="41.73" y="451.36" width="12.8" height="4.42"/><rect class="cls-2" x="41.73" y="455.99" width="12.8" height="8.63"/><rect class="cls-8" x="41.73" y="429.98" width="12.8" height="14.72"/><rect class="cls-2" x="41.73" y="489.18" width="12.8" height="2.5"/><rect class="cls-8" x="41.73" y="464.63" width="12.8" height="24.3"/><rect class="cls-8" x="41.73" y="491.32" width="12.8" height="11.91"/><rect class="cls-2" x="41.73" y="503.7" width="12.8" height="6.4"/><rect class="cls-8" x="41.73" y="510.1" width="12.8" height="4.68"/><rect class="cls-2" x="41.73" y="514.75" width="12.8" height="5.96"/><rect class="cls-8" x="41.73" y="521.18" width="12.8" height="15.97"/><rect class="cls-2" x="41.73" y="537.15" width="12.8" height="6.86"/><rect class="cls-2" x="41.73" y="551.14" width="12.8" height="29.96"/><rect class="cls-12" x="41.73" y="544.05" width="12.8" height="2.9"/><rect class="cls-8" x="41.73" y="547.19" width="12.8" height="3.72"/><rect class="cls-8" x="41.73" y="581.34" width="12.8" height="5.18"/><rect class="cls-2" x="41.73" y="586.54" width="12.8" height="21.14"/><rect class="cls-12" x="41.73" y="607.92" width="12.8" height="3.72"/><rect class="cls-8" x="41.73" y="611.88" width="12.8" height=".7"/><rect class="cls-2" x="41.73" y="612.84" width="12.8" height="9.36"/><rect class="cls-8" x="41.73" y="622.44" width="12.8" height="10.79"/><rect class="cls-2" x="41.73" y="633.18" width="12.8" height="4.58"/><line class="cls-10" x1="31.04" y1="57.23" x2="38.24" y2="57.23"/><line class="cls-10" x1="31.04" y1="105.45" x2="38.24" y2="105.45"/><line class="cls-10" x1="31.04" y1="153.99" x2="38.24" y2="153.99"/><line class="cls-10" x1="31.04" y1="202.48" x2="38.24" y2="202.48"/><line class="cls-10" x1="31.04" y1="250.76" x2="38.24" y2="250.76"/><line class="cls-10" x1="31.04" y1="298.98" x2="38.24" y2="298.98"/><line class="cls-10" x1="31.04" y1="347.52" x2="38.24" y2="347.52"/><line class="cls-10" x1="31.04" y1="395.74" x2="38.24" y2="395.74"/><line class="cls-10" x1="31.04" y1="444.29" x2="38.24" y2="444.29"/><line class="cls-10" x1="31.04" y1="492.78" x2="38.24" y2="492.78"/><line class="cls-10" x1="31.04" y1="541.05" x2="38.24" y2="541.05"/><line class="cls-10" x1="31.04" y1="589.28" x2="38.24" y2="589.28"/><line class="cls-10" x1="31.04" y1="637.82" x2="38.24" y2="637.82"/><text class="cls-21" transform="translate(67.23 25.97) scale(1.07 1)"><tspan x="0" y="0">USGS 108</tspan><tspan x="-3.67" y="7.01">MU</tspan><tspan class="cls-104" x="5.67" y="7.01">L</tspan><tspan x="8.56" y="7.01">TILEVE</tspan><tspan class="cls-19" x="29.23" y="7.01">L</tspan><tspan x="-5.49" y="14.01">COMPLETION</tspan></text><line class="cls-39" x1="91.25" y1="57.47" x2="91.25" y2="213.17"/><polyline class="cls-5" points="75.8 599.91 73.64 599.91 73.64 600 73.64 601.62 73.64 601.89 73.64 602.04 73.64 604.81 73.64 607.4 73.64 612.16 73.64 614.07 73.64 615.49 73.64 615.86 73.64 618.85 73.64 627.29 73.64 628.2 73.64 637.81 75.8 637.81"/><polyline class="cls-5" points="75.8 597.63 73.64 597.63 73.64 591.12 73.64 588.73 73.64 588.43 73.64 585.85 73.64 585.03 73.64 584.62 73.64 582.35 73.64 576.31 73.64 573.51 73.64 571.94 73.64 566.36 73.64 564.37 73.64 562.83 73.64 561.96 75.8 561.96"/><polyline class="cls-5" points="75.8 559.68 73.64 559.68 73.64 559.58 73.64 557.22 73.64 556.88 73.64 554.57 73.64 552.19 73.64 549.32 73.64 549.09 73.64 546.48 73.64 543.41 73.64 540.63 73.64 540.38 73.64 538.05 73.64 536.42 73.64 534.42 73.64 533.37 73.64 533.17 73.64 531.9 73.64 530.96 73.64 529.63 73.64 527.29 73.64 524.44 73.64 521.98 73.64 517.41 73.64 515.35 73.64 513.18 73.64 513.01 73.64 512.97 73.64 510.65 73.64 509.8 73.64 507.96 73.64 506.4 73.64 504.95 75.8 504.95"/><polyline class="cls-5" points="75.8 502.66 73.64 502.66 73.64 500.85 73.64 498.72 73.64 491.26 73.64 488.67 73.64 474.15 73.64 473.36 73.64 472.1 73.64 471.62 73.64 471.18 73.64 469.71 73.64 463.39 73.64 461.91 73.64 461.8 75.8 461.8"/><polyline class="cls-5" points="75.8 425.44 73.64 425.44 73.64 427.86 73.64 440.25 73.64 441.03 73.64 443.19 73.64 443.73 73.64 447.45 73.64 451.17 73.64 458.34 73.64 458.76 73.64 459.51 75.8 459.51"/><polyline class="cls-5" points="75.8 354.44 73.64 354.44 73.64 362.24 73.64 364.93 73.64 369.25 73.64 370.93 73.64 372.12 73.64 374.32 73.64 375.95 73.64 377.92 73.64 379.08 73.64 380.66 73.64 381.65 73.64 382.07 73.64 382.93 73.64 384.6 73.64 385.89 73.64 386.71 73.64 390.69 73.64 392.89 73.64 393.57 73.64 395.61 73.64 402.33 73.64 404.17 73.64 405.7 73.64 407.16 73.64 408.87 73.64 411.7 73.64 417.05 73.64 417.71 73.64 419.3 73.64 419.46 73.64 420.59 73.64 421.4 73.64 423.15 75.8 423.15"/><polyline class="cls-11" points="75.8 281.19 73.64 281.19 73.64 283.33 73.64 288.71 73.64 291.88 73.64 295.66 73.64 297.25 73.64 298.98 73.64 299.09 73.64 300.2 73.64 302 73.64 302.11 73.64 304.41 73.64 306.47 73.64 309.44 73.64 311.75 73.64 314.02 73.64 317.3 73.64 318.44 75.8 318.44"/><polyline class="cls-11" points="75.8 136.9 73.64 136.9 73.64 141.67 73.64 144.27 73.64 145.72 73.64 148.69 73.64 159.93 73.64 161.86 73.64 161.96 73.64 162.94 73.64 163.28 73.64 165.05 73.64 170.18 73.64 172.66 73.64 173.28 73.64 173.69 73.64 175.03 73.64 176.16 73.64 176.88 73.64 178.57 73.64 182.54 73.64 183.53 73.64 184.55 73.64 185.36 73.64 186.09 73.64 188.95 73.64 199.75 73.64 201.14 73.64 202.49 73.64 205.16 73.64 212.62 73.64 215.62 73.64 216.41 73.64 218.99 73.64 219.17 73.64 220.2 73.64 221.11 73.64 221.67 73.64 223.61 73.64 224.01 73.64 227.94 73.64 228.43 73.64 229.1 73.64 231.04 73.64 232.32 73.64 232.43 73.64 232.69 73.64 235.3 73.64 235.79 73.64 238.3 73.64 238.7 73.64 240.42 75.8 240.42"/><polyline class="cls-11" points="75.8 97.55 73.64 97.55 73.64 97.94 73.64 108.1 73.64 110.67 73.64 111.38 73.64 111.81 73.64 112.09 73.64 113.1 73.64 114.55 73.64 114.56 73.64 120.18 73.64 123.22 73.64 125.21 73.64 126.44 73.64 128.03 73.64 129.81 73.64 131.74 73.64 132.18 73.64 133.45 73.64 134.61 75.8 134.61"/><polyline class="cls-11" points="75.8 242.7 73.64 242.7 73.64 245.12 73.64 245.69 73.64 247.09 73.64 248.3 73.64 248.33 73.64 248.49 73.64 250.01 73.64 250.06 73.64 255.06 73.64 256.98 73.64 257.59 73.64 257.61 73.64 259.45 73.64 260.91 73.64 263.21 73.64 264.92 73.64 266.09 73.64 269.01 73.64 271.04 73.64 271.25 73.64 273.64 73.64 274.05 73.64 274.15 73.64 274.49 73.64 275.22 73.64 276.67 73.64 277.48 73.64 278.24 73.64 278.91 75.8 278.91"/><polyline class="cls-11" points="75.8 320.73 73.64 320.73 73.64 321.89 73.64 322.14 73.64 322.24 73.64 324.86 73.64 325.69 73.64 329.73 73.64 330.7 73.64 332.17 73.64 333.43 73.64 336.31 73.64 337.24 73.64 338.43 73.64 340.51 73.64 341.81 73.64 344.62 73.64 348.96 73.64 350.19 73.64 351.78 73.64 352.16 75.8 352.16"/><line class="cls-39" x1="76.75" y1="57.47" x2="76.75" y2="213.17"/><line class="cls-13" x1="80.33" y1="58.46" x2="80.33" y2="58.46"/><line class="cls-7" x1="87.44" y1="631.67" x2="87.44" y2="57.79"/><line class="cls-7" x1="80.23" y1="57.79" x2="80.23" y2="631.67"/><rect x="80.37" y="629.62" width="6.87" height="2.54"/><path class="cls-63" d="M77.88,598.77c0,.63.51,1.14,1.14,1.14h9.99c.63,0,1.14-.51,1.14-1.14s-.51-1.14-1.14-1.14h-9.99c-.63,0-1.14.51-1.14,1.14,0,0,0-.63,0,0Z"/><path class="cls-6" d="M77.88,598.77c0,.63.51,1.14,1.14,1.14h9.99c.63,0,1.14-.51,1.14-1.14s-.51-1.14-1.14-1.14h-9.99c-.63,0-1.14.51-1.14,1.14,0,0,0-.63,0,0Z"/><path class="cls-63" d="M77.88,560.82c0,.63.51,1.14,1.14,1.14h9.99c.63,0,1.14-.51,1.14-1.14s-.51-1.14-1.14-1.14h-9.99c-.63,0-1.14.51-1.14,1.14,0,0,0-.63,0,0Z"/><path class="cls-6" d="M77.88,560.82c0,.63.51,1.14,1.14,1.14h9.99c.63,0,1.14-.51,1.14-1.14s-.51-1.14-1.14-1.14h-9.99c-.63,0-1.14.51-1.14,1.14,0,0,0-.63,0,0Z"/><path class="cls-63" d="M77.88,503.8c0,.63.51,1.14,1.14,1.14h9.98c.63,0,1.14-.51,1.14-1.14s-.51-1.14-1.14-1.14h-9.98c-.63,0-1.14.51-1.14,1.14,0,0,0-.63,0,0Z"/><path class="cls-6" d="M77.88,503.8c0,.63.51,1.14,1.14,1.14h9.98c.63,0,1.14-.51,1.14-1.14s-.51-1.14-1.14-1.14h-9.98c-.63,0-1.14.51-1.14,1.14,0,0,0-.63,0,0Z"/><path class="cls-63" d="M77.88,460.65c0,.63.51,1.14,1.14,1.14h9.98c.63,0,1.14-.51,1.14-1.14s-.51-1.14-1.14-1.14h-9.98c-.63,0-1.14.51-1.14,1.14,0,0,0-.63,0,0Z"/><path class="cls-6" d="M77.88,460.65c0,.63.51,1.14,1.14,1.14h9.98c.63,0,1.14-.51,1.14-1.14s-.51-1.14-1.14-1.14h-9.98c-.63,0-1.14.51-1.14,1.14,0,0,0-.63,0,0Z"/><path class="cls-63" d="M77.88,424.29c0,.63.51,1.15,1.15,1.15h9.98c.63,0,1.15-.51,1.15-1.15s-.51-1.15-1.15-1.15h-9.98c-.63,0-1.15.51-1.15,1.15,0,0,0-.63,0,0Z"/><path class="cls-6" d="M77.88,424.29c0,.63.51,1.15,1.15,1.15h9.98c.63,0,1.15-.51,1.15-1.15s-.51-1.15-1.15-1.15h-9.98c-.63,0-1.15.51-1.15,1.15,0,0,0-.63,0,0Z"/><path class="cls-63" d="M77.88,353.3c0,.63.51,1.14,1.14,1.14h9.99c.63,0,1.14-.51,1.14-1.14s-.51-1.14-1.14-1.14h-9.99c-.63,0-1.14.51-1.14,1.14,0,0,0-.63,0,0Z"/><path class="cls-6" d="M77.88,353.3c0,.63.51,1.14,1.14,1.14h9.99c.63,0,1.14-.51,1.14-1.14s-.51-1.14-1.14-1.14h-9.99c-.63,0-1.14.51-1.14,1.14,0,0,0-.63,0,0Z"/><path class="cls-63" d="M77.88,319.58c0,.63.51,1.14,1.14,1.14h9.98c.63,0,1.14-.51,1.14-1.14s-.51-1.14-1.14-1.14h-9.98c-.63,0-1.14.51-1.14,1.14,0,0,0-.63,0,0Z"/><path class="cls-6" d="M77.88,319.58c0,.63.51,1.14,1.14,1.14h9.98c.63,0,1.14-.51,1.14-1.14s-.51-1.14-1.14-1.14h-9.98c-.63,0-1.14.51-1.14,1.14,0,0,0-.63,0,0Z"/><path class="cls-63" d="M77.88,280.05c0,.63.51,1.14,1.14,1.14h9.99c.63,0,1.14-.51,1.14-1.14s-.51-1.14-1.14-1.14h-9.99c-.63,0-1.14.51-1.14,1.14,0,0,0-.63,0,0Z"/><path class="cls-6" d="M77.88,280.05c0,.63.51,1.14,1.14,1.14h9.99c.63,0,1.14-.51,1.14-1.14s-.51-1.14-1.14-1.14h-9.99c-.63,0-1.14.51-1.14,1.14,0,0,0-.63,0,0Z"/><path class="cls-63" d="M77.88,241.56c0,.63.51,1.14,1.14,1.14h9.99c.63,0,1.14-.51,1.14-1.14s-.51-1.14-1.14-1.14h-9.99c-.63,0-1.14.51-1.14,1.14,0,0,0-.63,0,0Z"/><path class="cls-6" d="M77.88,241.56c0,.63.51,1.14,1.14,1.14h9.99c.63,0,1.14-.51,1.14-1.14s-.51-1.14-1.14-1.14h-9.99c-.63,0-1.14.51-1.14,1.14,0,0,0-.63,0,0Z"/><path class="cls-63" d="M77.88,135.75c0,.63.51,1.14,1.14,1.14h9.98c.63,0,1.14-.51,1.14-1.14s-.51-1.14-1.14-1.14h-9.98c-.63,0-1.14.51-1.14,1.14,0,0,0-.63,0,0Z"/><path class="cls-6" d="M77.88,135.75c0,.63.51,1.14,1.14,1.14h9.98c.63,0,1.14-.51,1.14-1.14s-.51-1.14-1.14-1.14h-9.98c-.63,0-1.14.51-1.14,1.14,0,0,0-.63,0,0Z"/><path class="cls-63" d="M77.88,96.41c0,.63.51,1.14,1.14,1.14h9.99c.63,0,1.14-.51,1.14-1.14s-.51-1.14-1.14-1.14h-9.99c-.63,0-1.14.51-1.14,1.14,0,0,0-.63,0,0Z"/><path class="cls-6" d="M77.88,96.41c0,.63.51,1.14,1.14,1.14h9.99c.63,0,1.14-.51,1.14-1.14s-.51-1.14-1.14-1.14h-9.99c-.63,0-1.14.51-1.14,1.14,0,0,0-.63,0,0Z"/><text class="cls-21" transform="translate(64.9 534.63) scale(.9 1)"><tspan x="0" y="0">Z3</tspan></text><text class="cls-27" transform="translate(64.9 534.63) scale(.9 1)"><tspan x="0" y="0">Z3</tspan></text><text class="cls-21" transform="translate(64.9 580.72) scale(.9 1)"><tspan x="0" y="0">Z2</tspan></text><text class="cls-27" transform="translate(64.9 580.72) scale(.9 1)"><tspan x="0" y="0">Z2</tspan></text><text class="cls-21" transform="translate(64.9 620.01) scale(.9 1)"><tspan x="0" y="0">Z1</tspan></text><text class="cls-27" transform="translate(64.9 620.01) scale(.9 1)"><tspan x="0" y="0">Z1</tspan></text><text class="cls-21" transform="translate(64.9 483.08) scale(.9 1)"><tspan x="0" y="0">Z4</tspan></text><text class="cls-27" transform="translate(64.9 483.08) scale(.9 1)"><tspan x="0" y="0">Z4</tspan></text><text class="cls-21" transform="translate(64.9 442.5) scale(.9 1)"><tspan x="0" y="0">Z5</tspan></text><text class="cls-27" transform="translate(64.9 442.5) scale(.9 1)"><tspan x="0" y="0">Z5</tspan></text><text class="cls-21" transform="translate(64.9 389.49) scale(.9 1)"><tspan x="0" y="0">Z6</tspan></text><text class="cls-27" transform="translate(64.9 389.49) scale(.9 1)"><tspan x="0" y="0">Z6</tspan></text><text class="cls-21" transform="translate(64.9 300.64) scale(.9 1)"><tspan x="0" y="0">Z8</tspan></text><text class="cls-27" transform="translate(64.9 300.64) scale(.9 1)"><tspan x="0" y="0">Z8</tspan></text><text class="cls-21" transform="translate(64.9 260.95) scale(.9 1)"><tspan x="0" y="0">Z9</tspan></text><text class="cls-27" transform="translate(64.9 260.95) scale(.9 1)"><tspan x="0" y="0">Z9</tspan></text><text class="cls-21" transform="translate(61.89 186.39) scale(.9 1)"><tspan x="0" y="0">Z10</tspan></text><text class="cls-27" transform="translate(61.89 186.39) scale(.9 1)"><tspan x="0" y="0">Z10</tspan></text><text class="cls-21" transform="translate(62.29 116.67) scale(.9 1)"><tspan x="0" y="0">Z</tspan><tspan class="cls-80" x="3.66" y="0">1</tspan><tspan x="6.56" y="0">1</tspan></text><text class="cls-27" transform="translate(62.29 116.67) scale(.9 1)"><tspan x="0" y="0">Z</tspan><tspan class="cls-80" x="3.66" y="0">1</tspan><tspan x="6.56" y="0">1</tspan></text><text class="cls-21" transform="translate(64.9 336.83) scale(.9 1)"><tspan x="0" y="0">Z7</tspan></text><text class="cls-27" transform="translate(64.9 336.83) scale(.9 1)"><tspan x="0" y="0">Z7</tspan></text><text class="cls-27" transform="translate(94.52 613.64) scale(.9 1)"><tspan x="0" y="0">P1</tspan></text><text class="cls-27" transform="translate(94.52 119.41) scale(.9 1)"><tspan x="0" y="0">P15</tspan></text><text class="cls-27" transform="translate(94.52 465.44) scale(.9 1)"><tspan x="0" y="0">P6</tspan></text><text class="cls-27" transform="translate(94.52 429.06) scale(.9 1)"><tspan x="0" y="0">P7</tspan></text><text class="cls-27" transform="translate(94.52 475.27) scale(.9 1)"><tspan x="0" y="0">P5</tspan></text><text class="cls-27" transform="translate(94.52 357.81) scale(.9 1)"><tspan x="0" y="0">P8</tspan></text><text class="cls-27" transform="translate(94.52 338.88) scale(.9 1)"><tspan x="0" y="0">P9</tspan></text><text class="cls-27" transform="translate(94.52 324.25) scale(.9 1)"><tspan x="0" y="0">P10</tspan></text><text class="cls-27" transform="translate(94.52 286.55) scale(.9 1)"><tspan x="0" y="0">P</tspan><tspan class="cls-80" x="4" y="0">1</tspan><tspan x="6.89" y="0">1</tspan></text><text class="cls-27" transform="translate(94.52 262.7) scale(.9 1)"><tspan x="0" y="0">P12</tspan></text><text class="cls-27" transform="translate(94.52 246.49) scale(.9 1)"><tspan x="0" y="0">P13</tspan></text><text class="cls-27" transform="translate(94.52 140.02) scale(.9 1)"><tspan x="0" y="0">P14</tspan></text><text class="cls-27" transform="translate(94.52 101.06) scale(.9 1)"><tspan x="0" y="0">P16</tspan></text><text class="cls-27" transform="translate(94.52 603.55) scale(.9 1)"><tspan x="0" y="0">P2</tspan></text><text class="cls-27" transform="translate(94.52 566.12) scale(.9 1)"><tspan x="0" y="0">P3</tspan></text><text class="cls-27" transform="translate(94.52 508.72) scale(.9 1)"><tspan x="0" y="0">P4</tspan></text><polygon class="cls-42" points="91.47 97.49 87.82 99.87 91.47 102.24 91.47 97.49"/><polygon class="cls-41" points="91.47 114.79 87.82 117.16 91.47 119.53 91.47 114.79"/><polygon class="cls-42" points="91.47 135.94 87.82 138.32 91.47 140.69 91.47 135.94"/><polygon class="cls-42" points="91.47 281.92 87.82 284.3 91.47 286.67 91.47 281.92"/><polygon class="cls-41" points="91.47 258.07 87.82 260.45 91.47 262.82 91.47 258.07"/><polygon class="cls-42" points="91.47 241.87 87.82 244.24 91.47 246.62 91.47 241.87"/><polygon class="cls-42" points="91.47 319.62 87.82 322 91.47 324.37 91.47 319.62"/><polygon class="cls-41" points="91.47 334.25 87.82 336.63 91.47 339 91.47 334.25"/><polygon class="cls-42" points="91.47 353.19 87.82 355.56 91.47 357.94 91.47 353.19"/><polygon class="cls-42" points="91.47 424.43 87.82 426.81 91.47 429.18 91.47 424.43"/><polygon class="cls-42" points="91.47 460.81 87.82 463.19 91.47 465.56 91.47 460.81"/><polygon class="cls-41" points="91.47 470.64 87.82 473.02 91.47 475.39 91.47 470.64"/><polygon class="cls-42" points="91.47 504.09 87.82 506.47 91.47 508.84 91.47 504.09"/><polygon class="cls-41" points="91.47 609.01 87.82 611.39 91.47 613.76 91.47 609.01"/><polygon class="cls-42" points="91.47 598.92 87.82 601.3 91.47 603.67 91.47 598.92"/><polygon class="cls-42" points="91.47 561.1 87.82 563.48 91.47 565.85 91.47 561.1"/><text class="cls-29" transform="translate(112.5 632.05) scale(.89 1)"><tspan class="cls-30"><tspan x="0" y="0">HOLE DEPTH</tspan></tspan><tspan class="cls-54"><tspan x="0" y="6">1,218 ft</tspan></tspan></text></g></g><g id="Explanation"><text class="cls-24" transform="translate(134.16 104.68)"><tspan x="0" y="0">EXPLAN</tspan><tspan class="cls-57" x="32.45" y="0">A</tspan><tspan x="37.63" y="0">TION</tspan></text><text class="cls-22" transform="translate(127.83 120.81)"><tspan x="0" y="0">Lithology</tspan></text><text class="cls-25" transform="translate(151.46 175.96)"><tspan class="cls-86" x="0" y="0">Se</tspan><tspan class="cls-101" x="8.82" y="0">d</tspan><tspan class="cls-34" x="12.79" y="0">i</tspan><tspan class="cls-87" x="14.44" y="0">m</tspan><tspan class="cls-67" x="20.4" y="0">e</tspan><tspan class="cls-85" x="24.4" y="0">n</tspan><tspan class="cls-68" x="28.34" y="0">t</tspan></text><text class="cls-25" transform="translate(151.46 136.8)"><tspan class="cls-36" x="0" y="0">D</tspan><tspan class="cls-97" x="5.21" y="0">e</tspan><tspan class="cls-52" x="9.21" y="0">n</tspan><tspan class="cls-97" x="13.2" y="0">s</tspan><tspan class="cls-76" x="16.81" y="0">e </tspan><tspan class="cls-48" x="22.65" y="0">ba</tspan><tspan class="cls-105" x="30.62" y="0">s</tspan><tspan class="cls-71" x="34.25" y="0">a</tspan><tspan class="cls-94" x="38.25" y="0">l</tspan><tspan class="cls-68" x="39.89" y="0">t</tspan></text><rect class="cls-14" x="135.03" y="127.47" width="12.8" height="13.62"/><text class="cls-25" transform="translate(151.46 156.38)"><tspan class="cls-59" x="0" y="0">F</tspan><tspan class="cls-86" x="4.17" y="0">r</tspan><tspan class="cls-61" x="6.63" y="0">a</tspan><tspan class="cls-44" x="10.6" y="0">c</tspan><tspan class="cls-56" x="14.27" y="0">t</tspan><tspan class="cls-94" x="16.32" y="0">u</tspan><tspan class="cls-60" x="20.3" y="0">r</tspan><tspan class="cls-32" x="22.74" y="0">e</tspan><tspan class="cls-76" x="26.76" y="0">d </tspan><tspan class="cls-31" x="32.6" y="0">ba</tspan><tspan class="cls-105" x="40.58" y="0">s</tspan><tspan class="cls-35" x="44.21" y="0">a</tspan><tspan class="cls-45" x="48.2" y="0">l</tspan><tspan class="cls-68" x="49.84" y="0">t</tspan></text><rect class="cls-16" x="135.03" y="147.05" width="12.8" height="13.62"/><rect class="cls-17" x="135.03" y="166.63" width="12.8" height="13.62"/><line class="cls-37" x1="145.97" y1="231.31" x2="163.89" y2="231.31"/><text class="cls-22" transform="translate(127.83 196.56)"><tspan x="0" y="0">Completion</tspan></text><line class="cls-37" x1="163.89" y1="244.23" x2="160.3" y2="244.23"/><polyline class="cls-37" points="163.89 256.7 158.64 256.7 134.68 249.75"/><polygon class="cls-42" points="150.25 241.97 146.6 244.34 150.25 246.72 150.25 241.97"/><polyline class="cls-3" points="135.45 287.35 133.29 287.35 133.29 232.69 135.45 232.69"/><text class="cls-21" transform="translate(152.35 246.43) scale(.89 1)"><tspan x="0" y="0">P2</tspan></text><text class="cls-21" transform="translate(125.67 250.93) scale(.89 1)"><tspan x="0" y="0">Z1</tspan></text><text class="cls-27" transform="translate(125.67 250.93) scale(.89 1)"><tspan x="0" y="0">Z1</tspan></text><line class="cls-37" x1="145.97" y1="218.82" x2="163.89" y2="218.82"/><line class="cls-37" x1="150.59" y1="207.2" x2="163.89" y2="207.2"/><text class="cls-25" transform="translate(165.88 234.1)"><tspan class="cls-98" x="0" y="0">P</tspan><tspan class="cls-61" x="4.7" y="0">a</tspan><tspan class="cls-1" x="8.68" y="0">c</tspan><tspan class="cls-100" x="12.34" y="0">k</tspan><tspan class="cls-84" x="15.8" y="0">e</tspan><tspan x="19.81" y="0">r</tspan></text><text class="cls-25" transform="translate(165.88 246.67)"><tspan class="cls-43" x="0" y="0">M</tspan><tspan class="cls-67" x="6.01" y="0">e</tspan><tspan class="cls-91" x="10.02" y="0">a</tspan><tspan class="cls-66" x="14" y="0">s</tspan><tspan class="cls-94" x="17.58" y="0">u</tspan><tspan class="cls-60" x="21.57" y="0">r</tspan><tspan class="cls-67" x="24" y="0">e</tspan><tspan class="cls-87" x="28.01" y="0">m</tspan><tspan class="cls-67" x="33.96" y="0">e</tspan><tspan class="cls-85" x="37.96" y="0">n</tspan><tspan class="cls-68" x="41.91" y="0">t </tspan><tspan class="cls-75" x="45.8" y="0">p</tspan><tspan class="cls-105" x="49.83" y="0">o</tspan><tspan class="cls-73" x="53.85" y="0">r</tspan><tspan x="56.54" y="0">t </tspan><tspan class="cls-58" x="60.43" y="0">nu</tspan><tspan class="cls-103" x="68.38" y="0">m</tspan><tspan class="cls-46" x="74.32" y="0">b</tspan><tspan class="cls-84" x="78.34" y="0">e</tspan><tspan x="82.35" y="0">r</tspan></text><text class="cls-25" transform="translate(165.88 259.24)"><tspan class="cls-82" x="0" y="0">M</tspan><tspan class="cls-32" x="6.02" y="0">o</tspan><tspan class="cls-45" x="10.04" y="0">n</tspan><tspan class="cls-71" x="14.02" y="0">i</tspan><tspan class="cls-51" x="15.68" y="0">t</tspan><tspan class="cls-105" x="17.69" y="0">o</tspan><tspan class="cls-77" x="21.72" y="0">r</tspan><tspan class="cls-47" x="24.25" y="0">i</tspan><tspan class="cls-96" x="25.91" y="0">n</tspan><tspan x="29.91" y="0">g </tspan><tspan class="cls-90" x="35.75" y="0">z</tspan><tspan class="cls-86" x="39.31" y="0">o</tspan><tspan class="cls-103" x="43.33" y="0">n</tspan><tspan class="cls-76" x="47.33" y="0">e </tspan><tspan class="cls-66" x="53.17" y="0">nu</tspan><tspan class="cls-89" x="61.12" y="0">m</tspan><tspan class="cls-46" x="67.05" y="0">b</tspan><tspan class="cls-84" x="71.07" y="0">e</tspan><tspan x="75.08" y="0">r</tspan></text><text class="cls-25" transform="translate(165.88 221.53)"><tspan class="cls-53" x="0" y="0">M</tspan><tspan class="cls-91" x="5.99" y="0">ul</tspan><tspan class="cls-20" x="11.62" y="0">t</tspan><tspan class="cls-34" x="13.7" y="0">i</tspan><tspan class="cls-75" x="15.36" y="0">p</tspan><tspan class="cls-105" x="19.39" y="0">o</tspan><tspan class="cls-73" x="23.41" y="0">r</tspan><tspan x="26.1" y="0">t </tspan><tspan class="cls-33" x="29.99" y="0">c</tspan><tspan class="cls-91" x="33.71" y="0">a</tspan><tspan class="cls-72" x="37.7" y="0">s</tspan><tspan class="cls-47" x="41.3" y="0">i</tspan><tspan class="cls-67" x="42.95" y="0">n</tspan><tspan x="46.96" y="0">g</tspan></text><text class="cls-25" transform="translate(165.88 271.81)"><tspan class="cls-55" x="0" y="0">S</tspan><tspan class="cls-62" x="4.79" y="0">a</tspan><tspan class="cls-103" x="8.79" y="0">m</tspan><tspan class="cls-87" x="14.72" y="0">pl</tspan><tspan x="20.41" y="0">e </tspan><tspan class="cls-79" x="26.25" y="0">c</tspan><tspan class="cls-105" x="29.97" y="0">o</tspan><tspan class="cls-31" x="33.99" y="0">l</tspan><tspan class="cls-99" x="35.64" y="0">l</tspan><tspan class="cls-93" x="37.32" y="0">e</tspan><tspan class="cls-44" x="41.33" y="0">c</tspan><tspan class="cls-20" x="45.01" y="0">ti</tspan><tspan class="cls-86" x="48.78" y="0">o</tspan><tspan x="52.8" y="0">n </tspan><tspan class="cls-50" x="58.64" y="0">a</tspan><tspan x="62.59" y="0">t </tspan><tspan class="cls-75" x="66.48" y="0">p</tspan><tspan class="cls-65" x="70.51" y="0">o</tspan><tspan class="cls-81" x="74.54" y="0">r</tspan><tspan class="cls-76" x="77.23" y="0">t</tspan></text><text class="cls-25" transform="translate(165.88 208.96)"><tspan class="cls-70" x="0" y="0">W</tspan><tspan class="cls-46" x="6.58" y="0">e</tspan><tspan class="cls-31" x="10.59" y="0">l</tspan><tspan class="cls-76" x="12.24" y="0">l </tspan><tspan class="cls-33" x="15.74" y="0">c</tspan><tspan class="cls-52" x="19.46" y="0">a</tspan><tspan class="cls-49" x="23.45" y="0">si</tspan><tspan class="cls-96" x="28.71" y="0">n</tspan><tspan x="32.71" y="0">g</tspan></text><line class="cls-40" x1="135.23" y1="202.46" x2="135.23" y2="214.96"/><line class="cls-40" x1="149.72" y1="202.46" x2="149.72" y2="214.96"/><rect x="138.94" y="280.41" width="7.09" height="2.65"/><line class="cls-7" x1="146.03" y1="282.57" x2="145.92" y2="202.46"/><line class="cls-7" x1="138.82" y1="202.46" x2="138.94" y2="282.57"/><path class="cls-63" d="M136.34,231.31c0,.76.62,1.38,1.38,1.38h9.52c.76,0,1.38-.62,1.38-1.38s-.62-1.38-1.38-1.38h-9.52c-.76,0-1.38.62-1.38,1.38,0,0,0-.76,0,0Z"/><path class="cls-38" d="M136.34,231.31c0,.76.62,1.38,1.38,1.38h9.52c.76,0,1.38-.62,1.38-1.38s-.62-1.38-1.38-1.38h-9.52c-.76,0-1.38.62-1.38,1.38,0,0,0-.76,0,0Z"/><text class="cls-22" transform="translate(127.83 303.87)"><tspan x="0" y="0">Borehole</tspan></text><line class="cls-4" x1="147.83" y1="335.05" x2="139.74" y2="343.14"/><line class="cls-4" x1="147.83" y1="340.27" x2="144.96" y2="343.14"/><line class="cls-4" x1="142.92" y1="329.52" x2="135.03" y2="337.41"/><line class="cls-4" x1="147.83" y1="329.83" x2="135.03" y2="342.63"/><line class="cls-4" x1="137.7" y1="329.52" x2="135.03" y2="332.19"/><rect class="cls-15" x="135.03" y="329.52" width="12.8" height="13.62"/><text class="cls-25" transform="translate(151.46 338.2)"><tspan class="cls-75" x="0" y="0">B</tspan><tspan class="cls-46" x="4.81" y="0">el</tspan><tspan class="cls-78" x="10.5" y="0">o</tspan><tspan class="cls-76" x="14.47" y="0">w </tspan><tspan class="cls-95" x="21.47" y="0">h</tspan><tspan class="cls-105" x="25.48" y="0">o</tspan><tspan class="cls-99" x="29.51" y="0">l</tspan><tspan class="cls-76" x="31.18" y="0">e </tspan><tspan class="cls-60" x="37.02" y="0">d</tspan><tspan class="cls-97" x="41.01" y="0">e</tspan><tspan class="cls-92" x="45.02" y="0">p</tspan><tspan class="cls-69" x="48.97" y="0">t</tspan><tspan x="51.05" y="0">h</tspan></text><polygon class="cls-18" points="138.4 312.05 141.43 314.9 144.45 312.05 138.4 312.05"/><line class="cls-10" x1="135.03" y1="315.28" x2="136.03" y2="315.28"/><line class="cls-9" x1="138.19" y1="315.28" x2="145.75" y2="315.28"/><line class="cls-10" x1="146.83" y1="315.28" x2="147.83" y2="315.28"/><text class="cls-25" transform="translate(151.46 316.53)"><tspan class="cls-70" x="0" y="0">W</tspan><tspan class="cls-50" x="6.58" y="0">at</tspan><tspan class="cls-84" x="12.54" y="0">e</tspan><tspan x="16.55" y="0">r </tspan><tspan class="cls-99" x="20.83" y="0">l</tspan><tspan class="cls-76" x="22.5" y="0">e</tspan><tspan class="cls-64" x="26.39" y="0">v</tspan><tspan class="cls-55" x="29.9" y="0">e</tspan><tspan x="33.92" y="0">l </tspan><tspan class="cls-87" x="37.42" y="0">m</tspan><tspan class="cls-96" x="43.37" y="0">e</tspan><tspan class="cls-52" x="47.37" y="0">a</tspan><tspan class="cls-66" x="51.36" y="0">s</tspan><tspan class="cls-94" x="54.94" y="0">u</tspan><tspan class="cls-60" x="58.93" y="0">r</tspan><tspan class="cls-32" x="61.36" y="0">e</tspan><tspan x="65.38" y="0">d</tspan><tspan class="cls-83" x="0" y="8.4">o</tspan><tspan class="cls-102" x="4.01" y="8.4">u</tspan><tspan class="cls-88" x="7.99" y="8.4">t</tspan><tspan class="cls-72" x="10.08" y="8.4">s</tspan><tspan class="cls-20" x="13.68" y="8.4">i</tspan><tspan class="cls-60" x="15.37" y="8.4">d</tspan><tspan x="19.37" y="8.4">e </tspan><tspan class="cls-31" x="25.21" y="8.4">mul</tspan><tspan class="cls-20" x="36.77" y="8.4">t</tspan><tspan class="cls-47" x="38.85" y="8.4">i</tspan><tspan class="cls-75" x="40.5" y="8.4">p</tspan><tspan class="cls-65" x="44.53" y="8.4">o</tspan><tspan class="cls-81" x="48.56" y="8.4">r</tspan><tspan class="cls-76" x="51.25" y="8.4">t </tspan><tspan class="cls-33" x="55.13" y="8.4">c</tspan><tspan class="cls-52" x="58.86" y="8.4">a</tspan><tspan class="cls-49" x="62.84" y="8.4">si</tspan><tspan class="cls-96" x="68.1" y="8.4">n</tspan><tspan x="72.1" y="8.4">g</tspan></text><text class="cls-25" transform="translate(165.88 284.38)"><tspan class="cls-53" x="0" y="0">M</tspan><tspan class="cls-91" x="5.99" y="0">ul</tspan><tspan class="cls-20" x="11.62" y="0">t</tspan><tspan class="cls-34" x="13.7" y="0">i</tspan><tspan class="cls-75" x="15.36" y="0">p</tspan><tspan class="cls-105" x="19.39" y="0">o</tspan><tspan class="cls-73" x="23.41" y="0">r</tspan><tspan class="cls-48" x="26.1" y="0">t</tspan><tspan class="cls-74" x="28.14" y="0">-</tspan><tspan class="cls-33" x="30.79" y="0">c</tspan><tspan class="cls-94" x="34.51" y="0">a</tspan><tspan class="cls-72" x="38.49" y="0">s</tspan><tspan class="cls-47" x="42.1" y="0">i</tspan><tspan class="cls-96" x="43.75" y="0">n</tspan><tspan class="cls-76" x="47.75" y="0">g </tspan><tspan class="cls-97" x="53.59" y="0">en</tspan><tspan class="cls-76" x="61.6" y="0">d </tspan><tspan class="cls-33" x="67.44" y="0">c</tspan><tspan class="cls-47" x="71.16" y="0">a</tspan><tspan x="75.15" y="0">p</tspan></text><line class="cls-37" x1="145.97" y1="281.92" x2="163.89" y2="281.92"/><line class="cls-37" x1="163.89" y1="269.35" x2="152.3" y2="269.35"/><polygon class="cls-41" points="150.25 266.98 146.6 269.35 150.25 271.72 150.25 266.98"/></g><g id="Grid"><text class="cls-23" transform="translate(9.42 394.03) rotate(-90) scale(1.26 1)"><tspan x="0" y="0">Depth, in feet below land surface</tspan></text><text class="cls-28" transform="translate(51.33 52.08) rotate(-90) scale(1.16 1)"><tspan x="0" y="0">LITHOLOGY</tspan></text><text class="cls-21" transform="translate(63.14 52.54) scale(.93 1)"><tspan x="0" y="0">Zone</tspan></text><text class="cls-21" transform="translate(94.11 52.54) scale(.93 1)"><tspan x="0" y="0">Port</tspan></text><polyline class="cls-10" points="38.23 57.23 108.44 57.23 38.23 57.23"/><line class="cls-10" x1="58" y1="6.97" x2="58" y2="637.82"/><polygon class="cls-10" points="108.44 637.82 108.44 6.97 38.23 6.97 38.23 6.97 38.23 637.82 108.44 637.82"/></g></svg>