ply
format ascii 1.0
comment Generated by the CGAL library
element vertex 32
property double x
property double y
property double z
element face 60
property list uchar int vertex_indices
end_header
-0.93417233228683472 -1.6180340051651001 -2.0888729095458984 
-0.57735026329220984 -0.99999998802619861 -0.22052818215594533 
-0.71364416227252869 0 -0.93417237774848361 
-1.8683446645736694 0 2.0888729095458984 
-0.35682208113626435 0.61803399473679566 0.93417237774848361 
-1.1547005265844197 0 0.22052818215594533 
-2.0888729095458984 1.6180340051651001 0.93417233228683472 
-0.35682208113626435 -0.61803399473679566 0.93417237774848361 
0.93417233228683472 -1.6180340051651001 2.0888729095458984 
0.71364416227252869 0 0.93417237774848361 
0 0 2.8025171756744385 
-2.0888729095458984 -1.6180340051651001 0.93417233228683472 
-2.4456949234008789 -1 -0.93417233228683472 
-0.57735026329220984 0.99999998802619861 -0.22052818215594533 
-0.93417233228683472 1.6180340051651001 -2.0888729095458984 
-2.4456949234008789 1 -0.93417233228683472 
0.35682208113626435 -0.61803399473679566 -0.93417237774848361 
0.35682210326194763 -2.6180338859558105 -0.93417233228683472 
-0.35682210326194763 -2.6180338859558105 0.93417233228683472 
0.57735026329220984 0.99999998802619861 0.22052818215594533 
-0.35682210326194763 2.6180338859558105 0.93417233228683472 
0.35682210326194763 2.6180338859558105 -0.93417233228683472 
0.35682208113626435 0.61803399473679566 -0.93417237774848361 
0.57735026329220984 -0.99999998802619861 0.22052818215594533 
2.0888729095458984 1.6180340051651001 -0.93417233228683472 
2.4456949234008789 1 0.93417233228683472 
1.1547005265844197 0 -0.22052818215594533 
1.8683446645736694 0 -2.0888729095458984 
2.4456949234008789 -1 0.93417233228683472 
2.0888729095458984 -1.6180340051651001 -0.93417233228683472 
0.93417233228683472 1.6180340051651001 2.0888729095458984 
0 0 -2.8025171756744385 
3 0 1 2 
3 3 4 5 
3 5 4 6 
3 7 4 3 
3 7 8 9 
3 9 10 7 
3 1 11 5 
3 5 12 1 
3 13 14 2 
3 13 2 15 
3 16 17 1 
3 16 1 0 
3 1 18 7 
3 1 7 11 
3 19 20 4 
3 13 20 19 
3 4 20 13 
3 12 2 1 
3 2 12 5 
3 5 7 3 
3 11 7 5 
3 13 19 21 
3 21 19 22 
3 21 22 13 
3 16 23 17 
3 1 17 23 
3 13 5 6 
3 4 13 6 
3 5 15 2 
3 13 15 5 
3 14 13 22 
3 22 19 24 
3 19 25 26 
3 26 24 19 
3 24 26 22 
3 22 26 27 
3 9 28 26 
3 9 26 25 
3 16 26 29 
3 27 26 16 
3 23 29 26 
3 26 28 23 
3 30 9 19 
3 30 4 9 
3 4 30 19 
3 19 9 25 
3 10 9 4 
3 7 10 4 
3 28 9 23 
3 7 18 23 
3 7 23 8 
3 23 18 1 
3 8 23 9 
3 16 29 23 
3 16 31 22 
3 16 22 27 
3 22 31 2 
3 16 2 31 
3 2 14 22 
3 0 2 16 
