<?xml version="1.0" encoding="UTF-8" standalone="no"?>
<!-- Created with Inkscape (http://www.inkscape.org/) -->

<svg
   xmlns:dc="http://purl.org/dc/elements/1.1/"
   xmlns:cc="http://creativecommons.org/ns#"
   xmlns:rdf="http://www.w3.org/1999/02/22-rdf-syntax-ns#"
   xmlns:svg="http://www.w3.org/2000/svg"
   xmlns="http://www.w3.org/2000/svg"
   xmlns:sodipodi="http://sodipodi.sourceforge.net/DTD/sodipodi-0.dtd"
   xmlns:inkscape="http://www.inkscape.org/namespaces/inkscape"
   width="38"
   height="32"
   viewBox="0 0 10.054166 8.4666671"
   version="1.1"
   id="svg8"
   sodipodi:docname="icon_small.svg"
   inkscape:version="0.92.2 2405546, 2018-03-11">
  <defs
     id="defs2" />
  <sodipodi:namedview
     id="base"
     pagecolor="#ffffff"
     bordercolor="#666666"
     borderopacity="1.0"
     inkscape:pageopacity="0.0"
     inkscape:pageshadow="2"
     inkscape:zoom="25.124386"
     inkscape:cx="18.96051"
     inkscape:cy="15.998746"
     inkscape:document-units="px"
     inkscape:current-layer="layer1"
     showgrid="false"
     units="px"
     inkscape:window-width="2477"
     inkscape:window-height="1369"
     inkscape:window-x="83"
     inkscape:window-y="34"
     inkscape:window-maximized="1"
     inkscape:snap-bbox="true"
     inkscape:bbox-nodes="true"
     inkscape:bbox-paths="true"
     inkscape:snap-intersection-paths="true"
     fit-margin-top="0"
     fit-margin-left="0"
     fit-margin-right="0"
     fit-margin-bottom="0"
     inkscape:snap-bbox-midpoints="true"
     inkscape:snap-bbox-edge-midpoints="false"
     inkscape:snap-object-midpoints="true" />
  <metadata
     id="metadata5">
    <rdf:RDF>
      <cc:Work
         rdf:about="">
        <dc:format>image/svg+xml</dc:format>
        <dc:type
           rdf:resource="http://purl.org/dc/dcmitype/StillImage" />
        <dc:title></dc:title>
      </cc:Work>
    </rdf:RDF>
  </metadata>
  <g
     inkscape:label="Layer 1"
     inkscape:groupmode="layer"
     id="layer1"
     transform="translate(69.020973,-385.32388)">
    <g
       id="g3977">
      <rect
         ry="1.0583333"
         rx="1.0583333"
         y="385.32388"
         x="-69.020973"
         height="8.4666672"
         width="10.054167"
         id="rect3973"
         style="opacity:0.2;fill:#000000;fill-opacity:0;stroke:none;stroke-width:0.26458332;stroke-linecap:round;stroke-linejoin:miter;stroke-miterlimit:4;stroke-dasharray:none;stroke-dashoffset:0;stroke-opacity:1" />
      <path
         sodipodi:nodetypes="ccscscccscccccscscccccscscc"
         inkscape:connector-curvature="0"
         id="path4518-3-3"
         style="font-style:normal;font-variant:normal;font-weight:900;font-stretch:normal;font-size:31.76362038px;line-height:1.25;font-family:Roboto;-inkscape-font-specification:'Roboto Heavy';font-variant-ligatures:normal;font-variant-caps:normal;font-variant-numeric:normal;font-feature-settings:normal;text-align:start;letter-spacing:0px;word-spacing:0px;writing-mode:lr-tb;text-anchor:start;fill:#311b92;fill-opacity:1;stroke:none;stroke-width:0.29772982"
         d="m -67.067122,393.79055 v -8.46666 h 2.994735 c 1.089347,0 1.917016,0.19965 2.483012,0.59895 0.569871,0.39929 0.854806,0.97886 0.854806,1.73869 0,0.43806 -0.100793,0.81216 -0.30238,1.12229 -0.201587,0.31014 -0.498154,0.53886 -0.889698,0.68618 0.441941,0.1163 0.781151,0.33339 1.017628,0.65128 0.236478,0.31788 0.354716,0.70555 0.354716,1.163 0,0.82961 -0.263614,1.45375 -0.790842,1.87243 -0.523351,0.41481 -1.300625,0.62609 -2.33182,0.63384 z m -1.953848,-3.59949 v 2.02944 h 5.285854 c 0.368284,0 0.651282,-0.0833 0.848993,-0.25005 0.19771,-0.17058 0.296565,-0.40899 0.296565,-0.71524 0,-0.70556 -0.350839,-1.06028 -1.052518,-1.06415 z m 0,-1.33746 h 5.012548 c 0.445818,-0.004 0.763706,-0.0853 0.953663,-0.24423 0.189957,-0.15894 0.284935,-0.39348 0.284935,-0.70361 0,-0.35666 -0.102731,-0.61252 -0.308195,-0.76759 -0.205464,-0.15894 -0.536919,-0.23841 -0.994368,-0.23841 h -4.948583 z" />
    </g>
  </g>
</svg>
