<svg width="73" height="73" viewBox="0 0 73 73" fill="none" xmlns="http://www.w3.org/2000/svg">
<path opacity="0.5" d="M17.5384 30.4167L15.1446 31.3748C9.10387 33.7899 6.0835 35.0004 6.0835 36.5C6.0835 37.9995 9.10387 39.2071 15.1446 41.6252L23.6856 45.044C29.7264 47.4591 32.7498 48.6667 36.5002 48.6667C40.2505 48.6667 43.274 47.4591 49.3147 45.044L57.8557 41.6252C63.8965 39.2101 66.9168 37.9995 66.9168 36.5C66.9168 35.0004 63.8965 33.7929 57.8557 31.3748L55.4619 30.4167M17.5384 42.5833L15.1446 43.5414C9.10387 45.9565 6.0835 47.1671 6.0835 48.6667C6.0835 50.1662 9.10387 51.3737 15.1446 53.7919L23.6856 57.2107C29.7264 59.6258 32.7498 60.8333 36.5002 60.8333C40.2505 60.8333 43.274 59.6258 49.3147 57.2077L57.8557 53.7919C63.8965 51.3768 66.9168 50.1692 66.9168 48.6667C66.9168 47.1671 63.8965 45.9596 57.8557 43.5414L55.4619 42.5833" stroke="#5B5B5B" stroke-width="3"/>
<path d="M15.1446 29.4585C9.10387 27.0434 6.0835 25.8359 6.0835 24.3333C6.0835 22.8307 9.10387 21.6262 15.1446 19.2081L23.6856 15.7923C29.7264 13.3742 32.7498 12.1667 36.5002 12.1667C40.2505 12.1667 43.274 13.3742 49.3147 15.7923L57.8557 19.2081C63.8965 21.6232 66.9168 22.8307 66.9168 24.3333C66.9168 25.8359 63.8965 27.0404 57.8557 29.4585L49.3147 32.8774C43.274 35.2924 40.2505 36.5 36.5002 36.5C32.7498 36.5 29.7264 35.2924 23.6856 32.8774L15.1446 29.4585Z" stroke="#9A7400" stroke-width="3"/>
</svg>
