<?xml version="1.0" encoding="UTF-8" standalone="no"?>
<!-- Created with Inkscape (http://www.inkscape.org/) -->

<svg
   width="74.965347mm"
   height="46.017765mm"
   viewBox="0 0 74.965348 46.017765"
   version="1.1"
   id="svg5"
   xml:space="preserve"
   inkscape:export-filename="../2b850fca/ref_book_piglet_logo.png"
   inkscape:export-xdpi="96"
   inkscape:export-ydpi="96"
   inkscape:version="1.2.2 (b0a8486541, 2022-12-01, custom)"
   sodipodi:docname="ref_book_piglet_logo.svg"
   xmlns:inkscape="http://www.inkscape.org/namespaces/inkscape"
   xmlns:sodipodi="http://sodipodi.sourceforge.net/DTD/sodipodi-0.dtd"
   xmlns="http://www.w3.org/2000/svg"
   xmlns:svg="http://www.w3.org/2000/svg"><sodipodi:namedview
     id="namedview7"
     pagecolor="#ffffff"
     bordercolor="#000000"
     borderopacity="0.25"
     inkscape:showpageshadow="2"
     inkscape:pageopacity="0.0"
     inkscape:pagecheckerboard="0"
     inkscape:deskcolor="#d1d1d1"
     inkscape:document-units="mm"
     showgrid="false"
     inkscape:zoom="1.9168935"
     inkscape:cx="334.13437"
     inkscape:cy="-25.301354"
     inkscape:window-width="3366"
     inkscape:window-height="1376"
     inkscape:window-x="74"
     inkscape:window-y="27"
     inkscape:window-maximized="1"
     inkscape:current-layer="g14781" /><defs
     id="defs2" /><g
     inkscape:label="Layer 1"
     inkscape:groupmode="layer"
     id="layer1"
     transform="translate(-115.50312,-247.13981)"><g
       id="g14781"
       transform="matrix(1.8988618,0,0,1.8988618,-30.94761,-203.83537)"><path
         id="path6315"
         style="fill:none;fill-opacity:1;stroke:#ffaaaa;stroke-width:0.0343477;stroke-dasharray:none;stroke-opacity:1"
         d="m 108.74825,243.25606 -0.0481,0.0379 0.0133,-0.0585 c 0.0687,-0.31272 0.28178,-0.47765 0.61511,-0.47078 h 0.086 l -0.0789,0.0377 c -0.158,0.0791 -0.28868,0.19235 -0.42611,0.31272 -0.0516,0.0445 -0.10305,0.0928 -0.16155,0.14093 l 2.5e-4,7e-5 v 0" /><path
         id="path13445"
         style="fill:none;fill-opacity:1;stroke:#ffaaaa;stroke-width:0.0343477;stroke-dasharray:none;stroke-opacity:1"
         d="m 110.40458,243.08765 -0.0618,-0.0275 0.0654,-0.0133 c 0.15467,-0.0308 0.30926,0.0379 0.43296,0.1857 0.15113,0.18216 0.22337,0.44672 0.16487,0.60479 l -0.0111,0.0242 -0.0242,-0.0177 c -0.062,-0.0445 -0.0824,-0.11013 -0.0962,-0.17173 -0.0652,-0.28522 -0.2165,-0.47079 -0.47079,-0.58418 l 8.2e-4,-2.2e-4 v 0" /><path
         id="path13443"
         style="fill:none;fill-opacity:1;stroke:#ffaaaa;stroke-width:0.0343477;stroke-dasharray:none;stroke-opacity:1"
         d="m 109.52829,244.97766 c 0.009,-0.004 0.02,-0.009 0.0275,-0.0111 0.0239,-0.0133 0.0275,-0.0275 0.0275,-0.0651 v -0.002 c 0.009,-0.17861 0.0962,-0.27491 0.27492,-0.27835 0.0756,0 0.13739,0.0275 0.16841,0.0824 0.0308,0.0516 0.0275,0.11346 -0.009,0.17528 -0.0242,0.0412 -0.031,0.0722 -0.0242,0.0926 0.009,0.0177 0.0344,0.0343 0.086,0.0483 0.0789,0.0199 0.14781,0.0651 0.23024,0.12365 l 0.0722,0.0514 -0.086,-0.0133 c -0.0652,-0.0111 -0.12719,-0.0242 -0.18902,-0.0377 -0.16154,-0.0343 -0.3127,-0.0654 -0.46733,-0.0516 h -0.0111 c -0.009,0 -0.0239,0.002 -0.0377,0 -0.0111,-0.002 -0.0239,0.002 -0.0377,0.009 -0.0199,0.009 -0.0448,0.0133 -0.0652,0.002 -0.0133,-0.009 -0.0199,-0.0199 -0.0275,-0.0377 -0.0199,-0.0585 0.0344,-0.0758 0.0652,-0.0858 l 0.002,-0.002 v 0" /><path
         id="path13441"
         style="fill:none;fill-opacity:1;stroke:#ffaaaa;stroke-width:0.0343477;stroke-dasharray:none;stroke-opacity:1"
         d="m 108.55925,247.94324 0.0241,0.0343 h -0.0412 -0.002 c -0.0756,0 -0.13053,-0.0275 -0.17529,-0.0858 -0.28522,-0.378 -0.48796,-0.71133 -0.57044,-1.11338 -0.002,-0.0133 -0.009,-0.0275 -0.009,-0.0412 -0.0242,-0.10305 -0.0483,-0.22337 0.0308,-0.36083 l 0.0242,-0.0445 0.0133,0.0483 c 0.18548,0.63917 0.40894,1.13744 0.7079,1.56357 l -0.002,-5.1e-4 v 0" /><path
         id="path13439"
         style="fill:none;fill-opacity:1;stroke:#ffaaaa;stroke-width:0.0343477;stroke-dasharray:none;stroke-opacity:1"
         d="m 107.50772,244.81614 c 0.17528,-0.25429 0.40893,-0.43985 0.68728,-0.54638 0.0412,-0.0177 0.0756,-0.0239 0.10659,-0.0239 0.0791,0 0.13407,0.0481 0.17174,0.14426 0.0514,0.1272 0.0722,0.26115 0.0687,0.47422 0,0.0133 0,0.0275 -0.002,0.0448 -0.009,0.10992 -0.0133,0.24742 -0.10659,0.36427 -0.0344,0.0445 -0.0722,0.0618 -0.11678,0.0618 -0.31957,-0.0111 -0.56011,-0.0791 -0.75598,-0.21295 -0.055,-0.0379 -0.0858,-0.0824 -0.0962,-0.13407 -0.0111,-0.055 0.009,-0.11346 0.0448,-0.17174 l -0.001,-2.6e-4 v 0" /><path
         id="path13437"
         style="fill:none;fill-opacity:1;stroke:#ffaaaa;stroke-width:0.0343477;stroke-dasharray:none;stroke-opacity:1"
         d="m 107.31537,245.53434 c 0.0344,0.0177 0.0652,0.0652 0.12033,0.158 l 0.002,0.009 c 0.004,0.009 0.009,0.0133 0.0133,0.0199 0.27146,0.44329 0.63572,0.66322 1.07903,0.66322 0.11678,0 0.24054,-0.0177 0.36767,-0.0481 0.27148,-0.0651 0.51203,-0.1959 0.71477,-0.31272 0.062,-0.0343 0.0962,-0.0343 0.14426,0.009 0.0448,0.0377 0.10991,0.0824 0.20963,0.0962 l 0.0483,0.009 -0.0275,-0.0412 c -0.13052,-0.18548 -0.27148,-0.28519 -0.43985,-0.31956 -0.009,0 -0.0133,-0.002 -0.0199,-0.002 -0.0377,-0.0111 -0.11346,-0.0275 -0.13052,0.0445 -0.0133,0.0514 0.0377,0.0652 0.062,0.0722 0.0133,0.002 0.0275,0.009 0.0344,0.0133 0,0 0.002,0 0.002,0.002 -0.24053,0.1272 -0.50857,0.21296 -0.81099,0.26459 -0.13739,0.0239 -0.28176,0.02 -0.42267,-0.0133 -0.35737,-0.0791 -0.56355,-0.33677 -0.73194,-0.59794 -0.0789,-0.12033 -0.10304,-0.23368 -0.0824,-0.34707 0.19944,0.11678 0.43301,0.24055 0.69416,0.25085 0.28522,0.0133 0.45018,0.002 0.50859,-0.36426 0.031,-0.19235 0.0344,-0.37455 0.0111,-0.54981 -0.009,-0.0514 0,-0.0756 0.0448,-0.0926 0.1959,-0.0756 0.35051,-0.2165 0.46733,-0.42952 0.0893,-0.16155 0.16155,-0.33679 0.23024,-0.50172 0.02,-0.0514 0.0412,-0.0997 0.062,-0.15113 0.004,-0.002 0.004,-0.0111 0.009,-0.0133 0.009,-0.0177 0.02,-0.0379 0.0133,-0.062 -0.009,-0.0133 -0.0177,-0.0242 -0.0377,-0.0308 -0.0516,-0.0177 -0.0756,0.0308 -0.0858,0.055 0,0.002 -0.004,0.009 -0.004,0.0111 -0.0177,0.0377 -0.0344,0.072 -0.0516,0.10991 -0.0343,0.0758 -0.0722,0.15467 -0.11346,0.23024 l -0.007,0.0133 c -0.10991,0.20276 -0.22337,0.41578 -0.38831,0.58761 -0.0514,0.0514 -0.0997,0.072 -0.158,0.0618 v -0.002 c 0.002,-0.0177 0.009,-0.031 0.0133,-0.0448 0.0377,-0.0893 0.0241,-0.16487 -0.0448,-0.21296 -0.0618,-0.0445 -0.13053,-0.0481 -0.20964,-0.009 l -0.0177,0.009 c -0.0344,0.0177 -0.0687,0.0379 -0.10305,0.0412 -0.29552,0.0516 -0.54983,0.21295 -0.80755,0.50859 -0.11678,0.13739 -0.20963,0.26459 -0.16841,0.46046 0.0177,0.0758 0.0242,0.20963 -0.10659,0.27491 -0.0583,0.0308 -0.0962,0.0893 -0.10659,0.15468 l -0.004,0.0275 0.0275,-0.002 c 0.10991,-0.0111 0.16154,-0.0199 0.19922,0 l 0.002,-0.008 v 0" /><path
         id="path13435"
         style="fill:none;fill-opacity:1;stroke:#ffaaaa;stroke-width:0.0343477;stroke-dasharray:none;stroke-opacity:1"
         d="m 116.4458,260.40693 c -0.004,-0.0133 -0.0111,-0.0275 -0.02,-0.0412 -0.002,-0.002 -0.007,-0.0111 -0.007,-0.0133 -0.0133,-0.0199 -0.031,-0.055 -0.0756,-0.0448 -0.0177,0.002 -0.0308,0.0133 -0.0343,0.0241 -0.0111,0.0199 -0.002,0.0412 0.004,0.055 0.002,0.009 0.002,0.0111 0.002,0.0133 0.0344,0.23365 0.0133,0.41578 -0.0722,0.57041 -0.0618,0.12033 -0.14781,0.2165 -0.25431,0.29209 0.002,-0.007 0.009,-0.0133 0.009,-0.0199 0.0241,-0.0412 0.0483,-0.0827 0.0379,-0.13739 l -0.004,-0.0242 -0.0242,0.0111 c -0.0722,0.0242 -0.11678,0.0756 -0.1478,0.11346 -0.18216,0.22681 -0.43642,0.27835 -0.68727,0.30242 -0.29552,0.0275 -0.5945,0.009 -0.89346,-0.0618 -0.20963,-0.0481 -0.31959,-0.14781 -0.3677,-0.33678 -0.1272,-0.5017 -0.17528,-0.89001 -0.158,-1.26458 0.004,-0.0481 -0.009,-0.0962 -0.0242,-0.14426 -0.007,-0.0177 -0.0199,-0.0481 -0.055,-0.0481 h -0.0133 c -0.009,0.002 -0.0199,0.009 -0.0308,0.0133 -0.0343,-0.59448 -0.0199,-1.19585 -0.009,-1.7766 0.002,-0.0824 0.002,-0.16154 0.009,-0.24398 0,-0.0412 0.007,-0.062 0.0377,-0.0791 0.10659,-0.0516 0.20964,-0.10659 0.31959,-0.16154 0.0344,-0.0177 0.0654,-0.0344 0.0997,-0.0516 0,0.0177 -0.002,0.0343 -0.002,0.0516 -0.004,0.0583 -0.009,0.11346 -0.0133,0.16841 -0.0514,0.37457 -0.002,0.7457 0.055,1.12712 0.009,0.0756 0.0239,0.15113 0.0377,0.2268 0.0177,0.11346 0.0377,0.23024 0.0514,0.34707 0.031,0.23368 0.13052,0.43985 0.22678,0.64261 l 0.02,0.0448 c 0.0275,0.062 0.0239,0.0893 -0.0242,0.13406 -0.009,0.009 -0.0199,0.0177 -0.0343,0.0242 -0.0308,0.0199 -0.0687,0.0448 -0.0722,0.0791 -0.002,0.0177 0,0.0344 0.0133,0.0514 0.0412,0.0585 0.0997,0.0177 0.13739,-0.0133 0.0133,-0.009 0.0275,-0.0199 0.0412,-0.0275 0.0997,-0.0448 0.19922,-0.0962 0.29552,-0.14427 0.14094,-0.072 0.28522,-0.14426 0.43642,-0.20608 0.17861,-0.0722 0.36424,-0.10991 0.58418,-0.14781 0.0722,-0.0133 0.14093,0.009 0.21982,0.0481 -0.0133,0.0111 -0.0239,0.0199 -0.0275,0.0379 -0.002,0.0275 0.0199,0.0514 0.0412,0.0687 0.0926,0.0722 0.16487,0.13406 0.23368,0.19589 0.0962,0.0893 0.14093,0.20609 0.14093,0.3505 0,0.002 -0.002,0 -0.002,-0.004 l 2e-4,-8.6e-4 v 0" /><path
         id="path13433"
         style="fill:none;fill-opacity:1;stroke:#ffaaaa;stroke-width:0.0343477;stroke-dasharray:none;stroke-opacity:1"
         d="m 111.93729,257.53069 c -0.17174,-0.0379 -0.35739,-0.11013 -0.54983,-0.21982 -0.27148,-0.15468 -0.53607,-0.34709 -0.82816,-0.61168 0.59105,0.10304 1.2474,0.15113 1.86595,-0.0997 l -0.009,0.0722 0.0199,0.009 c 0.0448,0.0199 0.0789,0.004 0.11346,-0.009 l 0.009,-0.004 c 0.62542,-0.26461 1.15118,-0.60138 1.60821,-1.02059 0.0377,-0.0344 0.0722,-0.0756 0.10304,-0.11346 0.0111,-0.0133 0.0199,-0.0239 0.031,-0.0377 0.38146,-0.43642 0.60483,-0.97592 0.7251,-1.75254 l 0.004,-0.0133 c 0.20963,0.28867 0.30582,0.60481 0.37456,0.98281 -0.002,-0.002 -0.002,-0.002 -0.007,-0.009 -0.0199,-0.0275 -0.0412,-0.0549 -0.0824,-0.0651 l -0.0199,-0.009 -0.009,0.0199 c -0.0199,0.0722 -0.002,0.14094 0.0111,0.20277 0.002,0.0177 0.009,0.0343 0.009,0.0481 0.0928,0.51546 -0.0448,0.99655 -0.42268,1.47421 -0.3677,0.46735 -0.81442,0.79722 -1.31957,0.98624 -0.57044,0.21983 -1.12027,0.27146 -1.62884,0.16487 l 10e-4,0.005 v 0" /><path
         id="path13431"
         style="fill:none;fill-opacity:1;stroke:#ffaaaa;stroke-width:0.0343477;stroke-dasharray:none;stroke-opacity:1"
         d="m 113.03006,257.79528 c -0.0758,0.32302 -0.14781,0.65292 -0.22005,0.97248 -0.0448,0.20277 -0.0893,0.40551 -0.13739,0.60825 -0.009,0.0275 -0.0111,0.055 -0.0177,0.0858 -0.0133,0.0722 -0.0308,0.1478 -0.0583,0.22337 -0.004,-0.0199 -0.0177,-0.0412 -0.055,-0.0377 -0.055,0.002 -0.0722,0.0481 -0.086,0.0824 l -0.002,0.0111 c -0.031,0.072 -0.0621,0.14426 -0.0929,0.2165 -0.0926,0.21983 -0.18902,0.45018 -0.28522,0.67009 -0.0926,0.21296 -0.22678,0.41924 -0.39518,0.61168 -0.0652,0.0756 -0.13739,0.12365 -0.21982,0.14781 0.004,-0.002 0.009,-0.002 0.0111,-0.009 0.0275,-0.0199 0.055,-0.0377 0.0722,-0.0756 l 0.002,-0.0133 -0.009,-0.0111 c -0.0133,-0.0177 -0.031,-0.0199 -0.0481,-0.0199 -0.0111,0 -0.0199,0.002 -0.0275,0.002 -0.007,0 -0.009,0.004 -0.0177,0.004 -0.7079,0.072 -1.24397,-0.1374 -1.63914,-0.63918 -0.14094,-0.17861 -0.20276,-0.40892 -0.19235,-0.70101 0.004,-0.0448 0.0275,-0.0827 0.055,-0.12365 0.009,-0.009 0.0111,-0.0177 0.0177,-0.0275 0.004,-0.002 0.009,-0.0111 0.0133,-0.0177 0.0177,-0.0177 0.0483,-0.055 0.0111,-0.0893 -0.0412,-0.0379 -0.0756,-0.009 -0.0926,0.0133 0.0344,-0.0756 0.0926,-0.1272 0.15468,-0.17861 l 0.0133,-0.0133 c 0.0962,-0.0824 0.20964,-0.14093 0.31616,-0.19589 0.0412,-0.0199 0.0858,-0.0412 0.1272,-0.0651 0.0133,-0.009 0.0343,-0.002 0.055,0.002 0.009,0.002 0.0133,0.002 0.0242,0.009 0.20276,0.0412 0.39174,0.13407 0.58074,0.28522 0.10659,0.0858 0.2165,0.17174 0.31957,0.25428 0.0756,0.0585 0.1478,0.12033 0.22337,0.17861 l 0.0111,0.007 c 0.0722,0.0585 0.14426,0.11678 0.25085,0.13052 l 0.0412,0.009 -0.0199,-0.0377 c -0.031,-0.0549 -0.0448,-0.0824 -0.0412,-0.10304 0.004,-0.0199 0.031,-0.0448 0.0756,-0.0893 0.21295,-0.20277 0.38143,-0.45362 0.50859,-0.76631 0.18215,-0.44672 0.30239,-0.85566 0.3608,-1.24397 0.007,-0.055 0.0239,-0.0722 0.0789,-0.0722 0.0893,-0.002 0.18216,-0.0177 0.26805,-0.0275 l 0.0275,-0.002 c 0.0308,-0.004 0.0377,0 0.0377,0 0.009,-0.004 0.009,0.002 0.002,0.0377 l -0.002,-0.002 v 0" /><path
         id="path13429"
         style="fill:none;fill-opacity:1;stroke:#ffaaaa;stroke-width:0.0343477;stroke-dasharray:none;stroke-opacity:1"
         d="m 110.31532,256.4826 -0.0177,-0.0177 c -0.33677,-0.3402 -0.68383,-0.6907 -0.87629,-1.15462 0.0177,0.009 0.0343,0.0177 0.0549,0.0275 0.009,0.009 0.0177,0.009 0.0275,0.0133 0.56014,0.28865 1.17868,0.39174 1.8419,0.30928 0.28866,-0.0343 0.53607,-0.10991 0.75944,-0.2268 0.0412,-0.02 0.086,-0.0275 0.13407,-0.0344 0.0412,-0.009 0.0824,-0.009 0.12365,-0.0308 0.42611,-0.17861 0.80755,-0.47079 1.16838,-0.89346 0.21296,-0.25085 0.38831,-0.52577 0.512,-0.82473 0.004,-0.009 0.009,-0.009 0.009,-0.0177 0.009,-0.0133 0.0177,-0.031 0.0177,-0.0516 -0.004,-0.19921 0.13407,-0.27832 0.27492,-0.36424 0.0242,-0.0133 0.0516,-0.0308 0.0789,-0.0481 0.0448,-0.0275 0.0756,-0.0275 0.11346,0.009 0.0199,0.0177 0.0412,0.0344 0.0583,0.0514 0.29554,0.25428 0.29554,0.25428 0.23024,0.69413 -0.009,0.0412 -0.0133,0.0893 -0.0199,0.14094 -0.0308,0.23368 -0.10659,0.45361 -0.19921,0.71133 -0.009,-0.0111 -0.0199,-0.0199 -0.0343,-0.0199 -0.0308,-0.004 -0.0481,0.0275 -0.0652,0.0549 -0.0377,0.072 -0.0789,0.14094 -0.12033,0.21296 -0.0377,0.0687 -0.0789,0.14094 -0.11678,0.20963 -0.17529,0.31272 -0.45703,0.51887 -0.73194,0.7182 -0.0652,0.0481 -0.16841,0.10659 -0.28865,0.16487 l -0.25431,0.0893 c -0.0652,0.0275 -0.1272,0.055 -0.18902,0.0824 -0.10659,0.0481 -0.21651,0.0962 -0.3299,0.13407 -0.69415,0.23367 -1.39861,0.26458 -2.09618,0.0893 -0.0199,0 -0.0448,-0.0133 -0.0618,-0.0275 l -0.003,-8.6e-4 v 0" /><path
         id="path13427"
         style="fill:none;fill-opacity:1;stroke:#ffaaaa;stroke-width:0.0343477;stroke-dasharray:none;stroke-opacity:1"
         d="m 109.30501,255.029 c -0.009,-0.0377 -0.0275,-0.0824 -0.0652,-0.11678 l -0.009,-0.009 -0.009,0.004 c -0.031,0.007 -0.0412,0.0275 -0.0412,0.0448 -0.0791,-0.23709 -0.14426,-0.47422 -0.20609,-0.70789 0.0199,0.009 0.0412,0.009 0.0585,0.0177 0.0618,0.0177 0.12033,0.031 0.17861,0.0481 0.41926,0.1272 0.88316,0.15468 1.41581,0.0893 0.34707,-0.0448 0.8041,-0.27145 0.78692,-0.24054 l -0.0239,0.0448 0.0481,-0.0133 c 0.42954,-0.12033 0.7457,-0.38831 1.03089,-0.64946 0.31272,-0.28522 0.53953,-0.60481 0.68729,-0.96564 0.004,0.004 0.004,0.009 0.004,0.009 0.11679,0.3677 0.42266,0.55327 0.70101,0.69759 0.086,0.0448 0.086,0.0928 0.055,0.15468 -0.27148,0.57044 -0.61511,1.21303 -1.23363,1.63571 -0.0377,0.0239 -0.0756,0.0481 -0.11346,0.0687 -0.0377,0.0199 -0.0756,0.0412 -0.10992,0.0651 -0.0133,0.0111 -0.0177,0.009 -0.031,-0.009 -0.009,-0.0111 -0.0199,-0.0199 -0.0412,-0.0177 -0.0516,0.009 -0.0962,0.0344 -0.14426,0.0583 l -0.009,0.004 c -0.38831,0.19589 -0.82816,0.27833 -1.42266,0.26115 -0.48453,-0.0133 -0.92781,-0.19589 -1.36079,-0.37113 l -0.0929,-0.0379 c -0.0308,-0.0177 -0.0448,-0.0343 -0.055,-0.0651 l 10e-4,-3.8e-4 v 0" /><path
         id="path13425"
         style="fill:none;fill-opacity:1;stroke:#ffaaaa;stroke-width:0.0343477;stroke-dasharray:none;stroke-opacity:1"
         d="m 108.90984,253.9775 c -0.0239,-0.0893 -0.0481,-0.17861 -0.0756,-0.27148 -0.009,-0.0379 -0.0199,-0.0791 -0.0344,-0.11679 l -0.009,-0.0241 -0.0239,0.0111 c -0.0412,0.0199 -0.055,0.0514 -0.0585,0.0789 -0.0549,-0.2165 -0.0756,-0.42955 -0.0893,-0.67353 0.15468,0.0652 0.29898,0.13052 0.45705,0.14781 l 0.0583,0.009 c 0.35393,0.0448 0.7182,0.0893 1.07559,-0.0275 0.007,-0.002 0.009,-0.002 0.0177,-0.009 0.009,-0.002 0.0133,-0.009 0.0199,-0.009 0,0.009 -0.004,0.0133 -0.0111,0.031 -0.002,0.009 -0.002,0.0199 0.004,0.0275 0.0133,0.0177 0.0412,0.0133 0.0756,0.0111 h 0.004 c 0.15113,-0.0177 0.29553,-0.0756 0.42953,-0.13407 l 0.0133,-0.009 c 0.49483,-0.20609 0.87972,-0.48796 1.17181,-0.86251 v 0.0133 0.0111 l 0.009,0.009 c 0.0377,0.0275 0.0652,-0.002 0.0756,-0.0133 0.0344,-0.0379 0.0689,-0.0756 0.10659,-0.11346 0.18902,-0.19922 0.38142,-0.40205 0.48107,-0.67353 0.0133,-0.0343 0.0199,-0.0379 0.0242,-0.0412 0,0 0.009,0 0.0344,0.0239 0.0514,0.055 0.10991,0.11346 0.17861,0.15467 0.15113,0.0893 0.17861,0.23024 0.20963,0.39174 l 0.009,0.0275 c 0.0549,0.27492 -0.0344,0.5017 -0.18216,0.76288 -0.25772,0.45015 -0.61511,0.84192 -1.0687,1.16835 -0.0516,0.0379 -0.10991,0.0689 -0.16842,0.0997 -0.0308,0.0177 -0.0926,0.0377 -0.0722,-0.0177 l 0.0177,-0.0448 -0.0448,0.0177 c -0.055,0.0199 -0.10659,0.0448 -0.158,0.0652 -0.11346,0.0483 -0.2165,0.0928 -0.32648,0.13407 -0.38144,0.14426 -0.80412,0.18902 -1.29551,0.13739 -0.21296,-0.0239 -0.44328,-0.072 -0.72507,-0.16155 -0.0687,-0.0177 -0.10659,-0.055 -0.1272,-0.13052 l -0.003,7e-5 v 0" /><path
         id="path13423"
         style="fill:none;fill-opacity:1;stroke:#ffaaaa;stroke-width:0.0343477;stroke-dasharray:none;stroke-opacity:1"
         d="m 108.60744,252.78851 c -0.0177,-0.25428 -0.0377,-0.51202 -0.0583,-0.76287 -0.0111,-0.11346 -0.0177,-0.22681 -0.0275,-0.3402 v -0.0412 0 c 0.89001,0.36768 1.6151,0.37798 2.28519,0.0308 l 0.0412,-0.0199 -0.0448,-0.0177 c -0.0242,-0.0111 -0.0412,-0.0241 -0.062,-0.0308 0.41581,-0.14426 0.75255,-0.38833 0.99653,-0.72507 0.0377,-0.0514 0.0687,-0.0652 0.12032,-0.0585 0.10659,0.0177 0.21296,0.0275 0.31614,0.0379 l 0.0412,0.002 c 0.0239,0.002 0.0412,0.0177 0.0618,0.0448 0.0133,0.0177 0.0275,0.0379 0.0412,0.055 0.031,0.0412 0.062,0.0858 0.0997,0.12032 0.0962,0.0858 0.0789,0.16155 0.0199,0.26805 -0.0199,0.0379 -0.0412,0.0758 -0.0618,0.11346 -0.0824,0.15113 -0.16486,0.30239 -0.26461,0.44672 l 0.0652,-0.2165 -0.10991,0.16154 c -0.42268,0.45018 -0.85566,0.91407 -1.49138,1.09964 0.009,-0.004 0.0111,-0.0111 0.0177,-0.0133 0.0377,-0.0275 0.0756,-0.0583 0.10304,-0.10304 l 0.031,-0.0514 -0.055,0.0199 c -0.0199,0.009 -0.0412,0.0133 -0.0585,0.0199 -0.0377,0.0133 -0.0722,0.0275 -0.10659,0.0412 -0.47765,0.21296 -0.96905,0.17861 -1.38486,0.12033 -0.16841,-0.0241 -0.32302,-0.0758 -0.43987,-0.12033 -0.0481,-0.0199 -0.0722,-0.0379 -0.0756,-0.0827 l 3.7e-4,0.002 v 0" /><path
         id="path13421"
         style="fill:none;fill-opacity:1;stroke:#ffaaaa;stroke-width:0.0343477;stroke-dasharray:none;stroke-opacity:1"
         d="m 108.38762,250.71637 c -0.0133,-0.0585 -0.0239,-0.12033 -0.0344,-0.18216 -0.007,-0.0448 -0.002,-0.0549 0,-0.0549 0,0 0.009,-0.009 0.0481,0.0111 0.35396,0.13739 0.69415,0.19589 1.03779,0.18215 h 0.0133 c 0.0239,-0.002 0.0377,-0.002 0.0481,0.0177 0.0377,0.062 0.11346,0.0448 0.13739,0.0377 l 0.062,-0.0133 c 0.28522,-0.062 0.58074,-0.12719 0.82815,-0.30926 0.0377,-0.0275 0.0583,-0.031 0.0789,-0.0111 0.23368,0.20963 0.52577,0.27835 0.80755,0.34709 0.0242,0.009 0.0516,0.0133 0.0756,0.0177 0.0133,0.002 0.0242,0.002 0.0377,0.009 0.0275,0.002 0.055,0.0111 0.0756,0.0242 -0.17528,0.2165 -0.40204,0.40204 -0.67009,0.55667 -0.20608,0.11679 -0.43298,0.19944 -0.65289,0.27494 -0.055,0.0199 -0.10992,0.0377 -0.16487,0.0583 l -0.13407,0.0483 c -0.36424,0.0308 -0.72507,0.002 -1.0687,-0.10659 -0.0133,-0.004 -0.0308,-0.0111 -0.0448,-0.0133 -0.0177,-0.009 -0.0377,-0.0133 -0.055,-0.0199 -0.26461,-0.0791 -0.37457,-0.20608 -0.378,-0.44331 0.0111,-0.14426 -0.0199,-0.28865 -0.0481,-0.42608 l 6.9e-4,-0.005 v 0" /><path
         id="path13419"
         style="fill:none;fill-opacity:1;stroke:#ffaaaa;stroke-width:0.0343477;stroke-dasharray:none;stroke-opacity:1"
         d="m 108.29144,250.22497 c -0.0199,-0.0929 -0.0448,-0.18215 -0.0654,-0.27145 -0.0177,-0.0756 -0.0377,-0.15113 -0.055,-0.22681 0,-0.004 -0.002,-0.0111 -0.002,-0.0133 -0.004,-0.007 -0.009,-0.0275 -0.009,-0.0343 0.002,0 0.009,0 0.0199,0.009 0.25087,0.0962 0.50859,0.0687 0.75603,0.0412 0.0199,-0.002 0.0448,-0.002 0.0652,-0.009 0.47765,-0.0481 0.85907,-0.15113 1.19929,-0.32646 0.30582,-0.158 0.567,-0.3333 0.79378,-0.54293 0.0344,-0.0308 0.0687,-0.0618 0.10992,-0.0962 0.009,-0.0111 0.0241,-0.0199 0.0343,-0.0308 0.002,0.0177 0.009,0.0344 0.009,0.0514 0.0111,0.0585 0.0199,0.11014 0.031,0.16155 0.007,0.0308 0.007,0.0516 0,0.0618 -0.009,0.0133 -0.0275,0.0199 -0.055,0.0275 -0.18548,0.0379 -0.37457,0.0893 -0.50857,0.24052 -0.2165,0.25087 -0.26805,0.54296 -0.15468,0.87629 0.0275,0.0789 0.0177,0.10304 -0.0549,0.158 -0.31959,0.24742 -0.68383,0.25429 -1.09621,0.23368 -0.36426,-0.0177 -0.67009,-0.0893 -0.9347,-0.22337 -0.0481,-0.02 -0.0756,-0.0412 -0.086,-0.0858 l 0.003,-5.6e-4 v 0" /><path
         id="path13417"
         style="fill:none;fill-opacity:1;stroke:#ffaaaa;stroke-width:0.0343477;stroke-dasharray:none;stroke-opacity:1"
         d="m 104.68328,249.25712 c 0.0789,-0.0305 0.12718,0.079 0.12988,0.20738 0,0.17861 -0.0618,0.34364 -0.12033,0.50859 -0.009,0.0275 -0.0199,0.055 -0.0308,0.0824 -0.0722,0.19589 -0.17528,0.38143 -0.27148,0.56357 -0.0481,0.0893 -0.0997,0.1786 -0.14426,0.27148 -0.13407,0.26802 -0.27492,0.59102 -0.27492,0.95185 0,0.0133 0,0.0275 0.004,0.0448 0,0.0111 0,0.0199 0.002,0.031 l 0.004,0.0412 0.0308,-0.0275 c 0.0583,-0.0514 0.0652,-0.10992 0.0722,-0.16155 0.002,-0.0239 0.009,-0.0448 0.0133,-0.0651 0.004,-0.009 0.004,-0.0133 0.009,-0.0199 0.009,-0.0275 0.0111,-0.0377 0.0343,-0.0377 0.37457,-0.0242 0.67353,-0.22679 0.91408,-0.42609 0.0164,-0.0121 0.0255,-0.0214 0.0398,-0.0291 l 2.73136,-1.48132 c 0.23522,-0.12759 0.12793,0.72757 0.16914,1.07464 0.002,0.0199 0.002,0.0448 0.009,0.0687 0.002,0.0481 0.007,0.0997 0.0239,0.14426 0.0275,0.0893 -2.74414,1.47368 -2.82347,1.51822 l -0.004,-3.1e-4 v 0"
         sodipodi:nodetypes="ccccccsccccccccccccccccc" /><path
         id="path14327"
         style="fill:none;fill-opacity:1;stroke:#ffaaaa;stroke-width:0.0343477;stroke-dasharray:none;stroke-opacity:1"
         d="m 105.20119,252.51711 c -0.36081,0.2165 -0.67009,0.35393 -0.97248,0.43296 -0.12366,0.0343 -0.24742,0.0514 -0.37457,0.0514 0.0133,-0.0111 0.0308,-0.0275 0.0275,-0.055 -0.004,-0.0448 -0.0377,-0.0481 -0.0583,-0.0481 h -0.0133 -0.009 c -0.14781,0.004 -0.26116,-0.0133 -0.36081,-0.0618 -0.12365,-0.0585 -0.23368,-0.14094 -0.34707,-0.26113 0.009,0.002 0.0177,0.009 0.0242,0.009 0.0308,0.0177 0.0652,0.031 0.10991,0.0275 l 0.0275,-0.002 -0.009,-0.0241 c -0.0177,-0.0481 -0.0481,-0.0858 -0.0756,-0.12033 -0.0275,-0.0344 -0.055,-0.0687 -0.0687,-0.11013 -0.10326,-0.2749 -0.11346,-0.57044 -0.031,-0.8797 0.10304,-0.37801 0.2165,-0.80755 0.42609,-1.18899 0.13114,-0.23615 0.31366,-0.55295 0.57913,-0.80927"
         sodipodi:nodetypes="ccccscccccscsccccc" /><path
         id="path13415"
         style="fill:none;fill-opacity:1;stroke:#ffaaaa;stroke-width:0.0343477;stroke-dasharray:none;stroke-opacity:1"
         d="m 107.73407,249.48819 c -0.003,0.003 -0.135,0.072 -0.95769,0.59752 l -0.0865,0.0529 0.006,-0.002 c 0.27609,-0.13379 -2.19901,1.17849 -2.49453,1.31251 l -0.0177,0.009 c 0.0997,-0.26804 0.22337,-0.50172 0.35053,-0.73196 0.0177,-0.0275 0.0343,-0.0585 0.0514,-0.086 0.0242,-0.0412 0.0483,-0.0824 0.0687,-0.12365 0.0208,-0.0392 0.0262,-0.0427 0.0262,-0.0427 l 0.0366,-0.0495 0.0228,-0.047"
         sodipodi:nodetypes="cccscccccccc" /><path
         id="path13592"
         style="fill:none;fill-opacity:1;stroke:#ffaaaa;stroke-width:0.0343477;stroke-dasharray:none;stroke-opacity:1"
         d="m 106.83428,247.82041 c -0.004,0.007 0.75903,1.21361 0.76553,1.2242 0.086,0.13052 0.13482,0.19041 0.22767,0.3141 l 0.0244,0.0286 c 0.0213,0.0236 -0.10171,0.068 -0.1098,0.0833"
         sodipodi:nodetypes="ccccc" /><path
         id="path13413"
         style="fill:none;fill-opacity:1;stroke:#ffaaaa;stroke-width:0.0343477;stroke-dasharray:none;stroke-opacity:1"
         d="m 104.51932,249.07441 c -0.01,-5.5e-4 -0.0135,0.003 -0.0239,0.003 -0.12365,0 -0.21245,0.0394 -0.33617,0.11856 -0.0133,0.0111 -0.0776,0.0521 -0.0825,0.0609 0.003,0.006 0.0119,-0.0116 0.0119,-0.0116"
         sodipodi:nodetypes="csccc" /><path
         id="path14334"
         style="fill:none;fill-opacity:1;stroke:#ffaaaa;stroke-width:0.0343477;stroke-dasharray:none;stroke-opacity:1"
         d="m 104.71329,250.4297 c 0.009,-0.0189 0.0873,-0.17265 0.10248,-0.21913 0.0858,-0.22337 0.13407,-0.39861 0.158,-0.57044 0.0199,-0.13407 0.007,-0.25428 -0.0343,-0.36426 -0.0618,-0.16487 -0.27853,-0.22561 -0.34707,-0.1959 v 0"
         sodipodi:nodetypes="ccccsc" /><path
         id="path13582"
         style="fill:none;fill-opacity:1;stroke:#ffaaaa;stroke-width:0.0343477;stroke-dasharray:none;stroke-opacity:1"
         d="m 107.70703,248.85099 c -0.002,-0.004 -0.71333,-1.14469 -0.7319,-1.15196 0.002,-0.0182 -0.003,-0.0306 -0.0165,-0.0468 -0.004,-0.006 -0.0197,-0.0253 -0.0268,-0.0391 -0.20215,-0.40024 -0.41853,-0.85324 -0.53122,-1.36518 l 7.5e-4,-0.002 c -0.14093,-0.64949 -0.0133,-1.2096 0.38144,-1.65975 0.1272,-0.14426 0.29552,-0.23027 0.46048,-0.31272 0.0789,-0.0379 0.158,-0.0756 0.23711,-0.11346 0.17174,-0.0791 0.35394,-0.16155 0.51544,-0.27492 0.13407,-0.0928 0.23713,-0.19589 0.30928,-0.30926 0.0308,-0.0481 0.062,-0.0962 0.0926,-0.14093 0.10305,-0.158 0.21296,-0.32303 0.29896,-0.49827 0.0481,-0.0997 0.14426,-0.16841 0.23368,-0.2337 0.0133,-0.0111 0.0242,-0.0177 0.0379,-0.0275 0.26118,-0.1959 0.567,-0.27148 0.80755,-0.31614 0.46046,-0.0893 0.83505,-0.0824 1.17866,0.0177 0.0583,0.0177 0.0789,0.0343 0.0824,0.0893 0,0.0928 0.0275,0.18215 0.055,0.26802 0.0133,0.0412 0.0239,0.0824 0.0344,0.1272 0.009,0.0481 0.0448,0.0687 0.0722,0.0791 0.17174,0.0791 0.32302,0.20276 0.45707,0.38143 0.17173,0.22681 0.3505,0.4639 0.45702,0.73538 0.0133,0.0377 0.0377,0.0687 0.0962,0.0651 0.0133,0 0.0239,0 0.0344,-0.004 0.055,-0.002 0.0893,-0.007 0.0997,0.009 0.0133,0.0133 0.0177,0.0585 0.0199,0.1272 v 0.0177 0.055 0.0275 c -0.0242,0.42268 -0.11678,0.84535 -0.27148,1.26114 -0.0962,0.2543 -0.19921,0.50859 -0.29895,0.756 -0.14094,0.34707 -0.28866,0.7079 -0.41238,1.06873 -0.12365,0.36767 -0.19921,0.65635 -0.23711,0.92781 -0.0111,0.0651 -0.0343,0.11345 -0.086,0.158 -0.35393,0.31272 -0.71476,0.54983 -1.09963,0.7285 -0.35394,0.16487 -0.7457,0.2165 -1.08245,0.25774 -0.20963,0.0242 -0.41924,0.002 -0.61511,-0.0199 -0.0412,-0.002 -0.0687,-0.02 -0.0928,-0.0481 -0.16154,-0.21296 -0.30928,-0.40892 -0.45704,-0.5945 -0.001,-0.001 -0.002,-0.003 -0.003,-0.004"
         sodipodi:nodetypes="cccccccccccccccccccccccccccccccccccccccsc" /><path
         id="path13409"
         style="fill:none;fill-opacity:1;stroke:#ffaaaa;stroke-width:0.0343477;stroke-dasharray:none;stroke-opacity:1"
         d="m 108.2811,242.24229 c -0.19235,-0.323 -0.28522,-0.68726 -0.37112,-1.04463 l -0.0199,-0.0893 c -0.0344,-0.14093 -0.0722,-0.28178 -0.10991,-0.41924 -0.0177,-0.062 -0.0344,-0.1272 -0.0516,-0.18902 0,-0.002 -0.002,-0.007 -0.002,-0.009 v -0.004 c 0.002,0 0.002,0.004 0.007,0.004 0.009,0.002 0.0133,0.009 0.0177,0.009 l 0.0448,0.0199 -0.0177,-0.0483 c -0.20609,-0.567 -0.57044,-0.79381 -1.14775,-0.71476 -0.17173,0.0242 -0.34363,0.0481 -0.51546,0.0722 -0.0687,0.009 -0.13739,0.0199 -0.20963,0.0275 0.0275,-0.10992 0.0962,-0.19922 0.20963,-0.2749 0.60481,-0.40893 1.27147,-0.5842 1.97936,-0.51546 0.0687,0.009 0.1374,0.0111 0.20609,0.0177 0.031,0.002 0.0654,0.002 0.0962,0.009 l 0.0242,0.002 v -0.0242 c -0.004,-0.0343 -0.0177,-0.055 -0.0344,-0.0687 h 0.0344 c 0.62887,0 1.62197,0.29896 2.02058,1.0034 l 0.031,0.0514 0.0133,-0.10304 c 0.16487,0.29209 0.23711,0.62887 0.2268,1.06185 -0.009,0.35737 -0.0789,0.6907 -0.20963,0.99655 -0.0242,0.0585 -0.0516,0.0756 -0.11346,0.0791 -0.43987,0.0275 -0.78694,0.0929 -1.09966,0.20609 -0.18902,0.0687 -0.3505,0.17528 -0.48109,0.26802 -0.0756,0.055 -0.14426,0.055 -0.22678,0 -0.11678,-0.0756 -0.2165,-0.18548 -0.29898,-0.323 l -0.001,-3.8e-4 v 0" /><path
         id="path13407"
         style="fill:none;fill-opacity:1;stroke:#ffaaaa;stroke-width:0.0343477;stroke-dasharray:none;stroke-opacity:1"
         d="m 111.45631,241.42788 c 0.19589,-0.42609 0.47079,-0.81099 0.83846,-1.18212 0.002,-0.002 0.007,-0.009 0.009,-0.009 v 0.009 c 0,0.0177 -0.002,0.0481 0.0308,0.0585 0.0379,0.0111 0.0585,-0.0199 0.0756,-0.0412 0.002,-0.002 0.009,-0.0111 0.009,-0.0133 0.4433,-0.5292 0.75257,-1.14775 0.945,-1.89686 0.0275,-0.10304 0.0343,-0.20963 0.0448,-0.31272 0.002,-0.0343 0.009,-0.0651 0.009,-0.0962 0.009,-0.0585 0.0241,-0.11014 0.0448,-0.16842 0.0199,-0.0585 0.0481,-0.0928 0.0824,-0.0962 0.031,-0.009 0.0722,0.0177 0.10991,0.062 0.086,0.10658 0.17528,0.2165 0.25431,0.33332 0.23021,0.34707 0.42952,0.72851 0.61165,1.15805 0.13407,0.31272 0.2165,0.65636 0.25087,1.05499 v 0.0275 c 0,0.0275 -0.002,0.0618 0.0177,0.0824 0.0111,0.0111 0.0242,0.0133 0.0412,0.0133 0.0583,0 0.0687,-0.0652 0.0722,-0.10992 0,-0.002 0,-0.0111 0.002,-0.0133 0.10304,0.84535 0.10304,1.73536 -0.54983,2.50167 l -0.0448,0.0514 0.0652,-0.0177 c 0.0962,-0.0242 0.16155,-0.0858 0.22335,-0.14094 0.0111,-0.009 0.02,-0.0199 0.031,-0.0308 -0.0199,0.0343 -0.0448,0.0654 -0.0654,0.0997 -0.28522,0.38831 -0.67007,0.64259 -1.16492,0.90377 -0.29552,0.15467 -0.5773,0.24398 -0.85909,0.26802 -0.055,0.002 -0.10659,0 -0.16154,-0.002 -0.0377,-0.002 -0.0756,-0.009 -0.11346,-0.009 h -0.0177 c -0.0379,0 -0.0448,-0.0177 -0.0585,-0.055 l -0.002,-0.0111 c -0.009,-0.0199 -0.0177,-0.0448 -0.0242,-0.0654 -0.0344,-0.0997 -0.0722,-0.19922 -0.1272,-0.29552 -0.18215,-0.30583 -0.40207,-0.5189 -0.67353,-0.64948 -0.12032,-0.0585 -0.12365,-0.19235 -0.13052,-0.30927 v -0.0133 c -0.0199,-0.37111 0.055,-0.73538 0.21983,-1.08588 l 0.005,8.7e-4 v 0" /><path
         id="path13405"
         style="fill:none;fill-opacity:1;stroke:#ffaaaa;stroke-width:0.0343477;stroke-dasharray:none;stroke-opacity:1"
         d="m 113.07484,250.96724 c -0.0111,0.11678 -0.0199,0.23711 -0.0275,0.3505 -0.004,0.0412 -0.009,0.086 -0.0111,0.1272 v 0 l -0.51546,-0.56357 c 0.0275,-0.004 0.0516,0.002 0.0756,0.009 0.0177,0.002 0.0344,0.009 0.0516,0.009 0.062,0.004 0.12033,0.009 0.18216,0.0133 0.0652,0.002 0.13052,0.009 0.19589,0.0133 0.0177,0 0.0377,0.002 0.0448,0.0111 0.002,0.007 0.002,0.0199 0.002,0.0308 l 0.002,-3.3e-4 v 0" /><path
         id="path13403"
         style="fill:none;fill-opacity:1;stroke:#ffaaaa;stroke-width:0.0343477;stroke-dasharray:none;stroke-opacity:1"
         d="m 111.79651,249.23875 c 0.0412,0.009 0.0824,0.0133 0.1272,0.0177 l 0.158,0.0199 c 0.35739,0.0514 0.7285,0.10304 1.09276,0.16842 l 0.0275,0.004 c 0.323,0.0583 0.65633,0.11678 0.96562,0.24739 0.0239,0.009 0.0481,0.0199 0.0722,0.0343 0.002,0.002 0.0111,0.002 0.0133,0.009 -0.004,0.002 -0.009,0.002 -0.0111,0.007 -0.0177,0.009 -0.0377,0.0177 -0.0448,0.0516 l -0.004,0.0133 0.0133,0.009 c 0.16155,0.0928 0.3024,0.18216 0.37455,0.35396 -0.0177,-0.0177 -0.0344,-0.0308 -0.0687,-0.0275 h -0.009 l -0.004,0.002 c -0.0343,0.0275 -0.0308,0.0756 -0.009,0.10991 0.0926,0.158 0.0651,0.32646 0.0343,0.4914 -0.009,0.0343 -0.0111,0.0687 -0.0177,0.10304 -0.0516,0.378 -0.1786,0.73537 -0.30239,1.06529 -0.0199,0.055 -0.0448,0.11678 -0.055,0.18548 l -0.009,0.0481 0.0412,-0.0275 c 0.0722,-0.0483 0.11346,-0.12033 0.15467,-0.18548 0.009,-0.0111 0.0111,-0.0177 0.0177,-0.0242 0.062,-0.0997 0.1272,-0.20608 0.27148,-0.19921 0.14094,0.004 0.20609,0.0585 0.20963,0.17173 0.0111,0.32301 -0.004,0.69414 -0.27835,0.97936 -0.11345,0.11678 -0.24054,0.2165 -0.42609,0.17861 -0.0177,-0.002 -0.055,-0.0111 -0.0791,0.0275 l -0.007,0.009 0.002,0.0111 c 0.0133,0.0448 0.055,0.062 0.0893,0.0756 0.009,0.004 0.0177,0.009 0.0242,0.0111 -0.0893,0.0199 -0.16841,-0.009 -0.23713,-0.0343 -0.13407,-0.0481 -0.21983,-0.15113 -0.3127,-0.25774 l -0.0133,-0.0177 c -0.002,-0.009 -0.009,-0.02 -0.0133,-0.031 -0.0111,-0.0308 -0.0275,-0.0654 -0.062,-0.0756 -0.009,-0.002 -0.0133,-0.002 -0.0177,-0.002 -0.0177,0 -0.0377,0.009 -0.0583,0.0199 -0.004,-0.009 -0.009,-0.0177 -0.0111,-0.0242 -0.002,-0.002 -0.002,-0.009 -0.009,-0.0133 -0.0893,-0.1959 -0.10304,-0.41238 -0.12033,-0.62199 v -0.0177 c -0.0133,-0.17861 -0.0239,-0.3574 -0.0377,-0.53266 -0.0133,-0.18548 -0.0239,-0.37455 -0.0377,-0.56357 -0.002,-0.0549 0,-0.0687 0.0516,-0.0756 0.0858,-0.0133 0.16155,-0.0481 0.23711,-0.11346 l 0.0377,-0.0308 -0.0481,-0.002 c -0.0377,-0.002 -0.0722,-0.009 -0.10305,-0.0111 -0.0654,-0.009 -0.1272,-0.0133 -0.18548,-0.0177 -0.33332,-0.0177 -0.67352,-0.0481 -1.00341,-0.0756 -0.12366,-0.0111 -0.25085,-0.0242 -0.37457,-0.0344 -0.28522,-0.0241 -0.55327,-0.0858 -0.82129,-0.19235 -0.17861,-0.0687 -0.30928,-0.2165 -0.37113,-0.40891 -0.0583,-0.1959 -0.0377,-0.41581 0.055,-0.54981 0.1272,-0.1857 0.3299,-0.27835 0.61857,-0.28524 0.14426,-0.0199 0.30583,0.009 0.4639,0.031 l 0.009,-0.003 v 0" /><path
         id="path13401"
         style="fill:none;fill-opacity:1;stroke:#ffaaaa;stroke-width:0.0343477;stroke-dasharray:none;stroke-opacity:1"
         d="m 108.21104,251.22816 c 0.003,-0.002 -0.099,-0.072 -0.0978,-0.072 0,0 0.11381,0.078 0.11381,0.10349 0.0177,0.16154 0.0343,0.32302 0.0516,0.48452 0.0242,0.2337 0.0516,0.47422 0.0756,0.71133 0.055,0.54981 0.11346,1.08246 0.27148,1.60136 0.004,0.0177 0.0111,0.0308 0.0133,0.0481 0.0177,0.0585 0.0343,0.12032 0.0687,0.17173 0.0583,0.0893 0.10659,0.18903 0.13739,0.29896 0.18548,0.63229 0.49829,1.18897 0.93127,1.65632 0.28522,0.30928 0.58418,0.60481 0.88659,0.87629 0.3024,0.27489 0.6529,0.46735 1.04121,0.57387 0.20276,0.055 0.41237,0.0926 0.62198,0.11678 h 0.0343 c 0.0242,0 0.055,-0.002 0.0654,0.0111 0.007,0.009 0.007,0.0275 0,0.0514 -0.0343,0.11346 -0.0654,0.23024 -0.0962,0.34022 -0.0756,0.27492 -0.15467,0.56355 -0.27148,0.82816 -0.11678,0.26802 -0.25085,0.54981 -0.46733,0.77318 -0.0242,0.0275 -0.0448,0.0379 -0.0585,0.0379 v 0 c -0.0133,0 -0.0308,-0.0111 -0.0583,-0.0379 -0.0412,-0.0412 -0.0789,-0.0791 -0.12033,-0.12033 -0.158,-0.16155 -0.31956,-0.32644 -0.50513,-0.46389 -0.20963,-0.15468 -0.45361,-0.21651 -0.68726,-0.17174 -0.24744,0.0448 -0.46736,0.20276 -0.61855,0.43985 -0.20609,0.32646 -0.1272,0.69415 -0.0199,0.94844 0.20277,0.48796 0.58418,0.83161 1.10651,0.99311 0.031,0.0111 0.0651,0.0177 0.0962,0.0242 0.055,0.0133 0.10659,0.0241 0.15113,0.0481 0.18548,0.0827 0.38829,0.0962 0.63229,0.0379 0.20963,-0.0481 0.33676,-0.20963 0.45016,-0.3505 0.29208,-0.3677 0.48796,-0.80068 0.67696,-1.21647 0.0343,-0.0756 0.0687,-0.1478 0.0997,-0.22337 0.27148,-0.59107 0.36426,-1.23366 0.43643,-1.8419 0.0239,-0.19235 0.0756,-0.24055 0.26803,-0.24398 0.0275,0 0.0343,0.002 0.0377,0.009 0.009,0.009 0.004,0.0308 0.004,0.0448 -0.0448,0.48453 -0.062,0.85566 -0.0516,1.13058 -0.002,0.89346 0.0926,1.58416 0.32989,2.38484 v 0.007 c 0.0199,0.0722 0.0448,0.14426 0.10659,0.19921 0.19589,0.16487 0.41924,0.25431 0.66322,0.26803 0.0687,0.004 0.13739,0.009 0.20609,0.009 0.30928,0 0.61168,-0.0344 0.90033,-0.0687 0.20276,-0.0241 0.35739,-0.0893 0.48798,-0.20276 0.17861,-0.15467 0.30583,-0.36426 0.39861,-0.65979 0.0585,-0.20608 0.11346,-0.46735 -0.009,-0.74913 l 9e-5,-0.008 c -0.0514,-0.11678 -0.11679,-0.24054 -0.24744,-0.32989 -0.20963,-0.14781 -0.45359,-0.18902 -0.74224,-0.12033 -0.24742,0.055 -0.47079,0.16842 -0.6907,0.27835 -0.0377,0.0177 -0.0722,0.0379 -0.10992,0.055 -0.0242,0.0111 -0.0377,0.0133 -0.0481,0.0133 -0.009,-0.002 -0.0177,-0.0133 -0.0275,-0.0343 -0.0997,-0.20609 -0.20276,-0.42611 -0.25085,-0.67353 -0.10991,-0.5567 -0.23711,-1.19242 -0.158,-1.8316 0.0111,-0.086 0.0483,-0.12719 0.10659,-0.17174 0.38833,-0.28522 0.69759,-0.61854 0.91751,-0.99311 0.29898,-0.5017 0.40206,-1.0687 0.30241,-1.64258 -0.11678,-0.67009 -0.38487,-1.15805 -0.81442,-1.48451 -0.0481,-0.0343 -0.0687,-0.062 -0.0687,-0.0858 0,-0.0242 0.0177,-0.0481 0.0516,-0.0789 0.0308,-0.0275 0.0481,-0.0618 0.0654,-0.0997 0.002,-0.009 0.009,-0.0177 0.009,-0.0242 0.10992,-0.22004 0.16155,-0.45015 0.20964,-0.73196 0.0343,-0.2165 -0.0481,-0.39517 -0.22681,-0.48793 -0.0689,-0.0344 -0.13407,-0.0308 -0.20276,-0.0275 -0.0177,0 -0.0308,0 -0.0448,0.004 -0.0344,0 -0.0448,-0.004 -0.0448,-0.004 0,0 -0.004,-0.009 0.007,-0.0344 0.0824,-0.19922 0.12365,-0.41237 0.16155,-0.61855 0.0199,-0.11678 0.0448,-0.23711 0.0756,-0.35396 0.0516,-0.20276 0.0275,-0.41922 -0.0689,-0.61852 -0.0997,-0.20276 -0.26802,-0.35396 -0.48796,-0.43642 -0.36769,-0.13739 -0.74911,-0.21982 -1.20616,-0.29896 -0.48452,-0.0858 -0.98622,-0.14426 -1.49824,-0.17528 -0.14781,-0.0111 -0.14781,-0.0111 -0.15468,-0.16842 -0.0177,-0.44328 0.0962,-0.86252 0.19922,-1.18211 0.0997,-0.3127 0.23367,-0.62198 0.35737,-0.91751 0.0516,-0.11678 0.10326,-0.24054 0.15113,-0.3608 l 0.0199,-0.0516 c 0.15113,-0.37113 0.30929,-0.75257 0.39864,-1.15463 0.0756,-0.33331 0.10659,-0.65977 0.0962,-0.96905 -0.002,-0.0687 0.0111,-0.0926 0.0789,-0.0997 0.158,-0.0177 0.30241,-0.0448 0.43641,-0.0791 0.38144,-0.0962 0.73881,-0.28866 1.09621,-0.58418 l 0.0242,-0.0199 c 0.19235,-0.158 0.38831,-0.31957 0.5189,-0.54638 0.42611,-0.73883 0.57043,-1.53261 0.43298,-2.35049 -0.158,-0.93811 -0.48798,-1.77314 -0.98625,-2.47417 -0.0199,-0.0275 -0.0377,-0.055 -0.0583,-0.0824 -0.0962,-0.14094 -0.19589,-0.28524 -0.3402,-0.38833 -0.086,-0.062 -0.17174,-0.0858 -0.25428,-0.0722 -0.0824,0.0177 -0.15468,0.0722 -0.20963,0.16487 -0.0483,0.0824 -0.0791,0.16154 -0.086,0.23367 -0.0344,0.29896 -0.12365,0.59105 -0.20609,0.8419 -0.17528,0.52233 -0.40894,0.91407 -0.7354,1.22679 -0.25771,0.244 -0.48795,0.52576 -0.68383,0.83503 -0.28178,0.43985 -0.48452,0.82474 -0.55324,1.2749 -0.009,0.0412 -0.0177,0.0687 -0.0343,0.0756 -0.0177,0.009 -0.0412,0.002 -0.0756,-0.0133 -0.0379,-0.0177 -0.0791,-0.0275 -0.12033,-0.0379 -0.0133,-0.002 -0.0241,-0.007 -0.0379,-0.009 -0.0481,-0.0111 -0.0858,-0.0199 -0.0893,-0.0308 -0.009,-0.0111 0.009,-0.0483 0.0275,-0.086 0.20963,-0.50857 0.2749,-0.98966 0.20609,-1.47419 -0.0583,-0.39863 -0.19922,-0.69072 -0.43644,-0.89346 -0.62196,-0.53265 -1.34703,-0.81785 -2.14771,-0.84879 -0.58761,-0.0199 -1.16494,0.0791 -1.70788,0.29898 -0.32989,0.13052 -0.56357,0.28864 -0.73881,0.4914 -0.0824,0.0928 -0.12719,0.18215 -0.14426,0.27835 -0.0133,0.0722 -0.004,0.12365 0.0275,0.15467 0.0308,0.0308 0.0824,0.0412 0.16487,0.0275 0.0689,-0.009 0.14094,-0.0239 0.20963,-0.0377 0.23709,-0.0448 0.48109,-0.0893 0.72507,-0.0722 l 0.0308,0.004 c 0.158,0.009 0.31959,0.0239 0.41238,0.17174 0.0962,0.15113 0.16154,0.28176 0.20963,0.40891 0.0858,0.22681 0.14426,0.46736 0.19922,0.69757 0.0308,0.1272 0.0618,0.25774 0.0962,0.3849 0.10659,0.38141 0.28522,0.86252 0.7285,1.17866 0.0308,0.0199 0.0239,0.0275 0.007,0.0585 l -0.002,0.009 c -0.0344,0.055 -0.0687,0.10659 -0.0997,0.16155 -0.0687,0.11346 -0.14426,0.23367 -0.21983,0.34363 -0.158,0.23024 -0.35396,0.48109 -0.66322,0.59105 -0.15468,0.0549 -0.30926,0.12365 -0.47422,0.2165 -0.42611,0.23711 -0.69414,0.54981 -0.81442,0.95874 -0.12033,0.39518 -0.1272,0.81099 -0.0275,1.27147 0.0962,0.43985 0.28092,0.87736 0.57303,1.37221 0.0139,0.0338 0.0279,0.0704 0.0344,0.0832"
         sodipodi:nodetypes="cccccccccccccscccccsscccccccccccsccccccccccssccccccccccccccccsccccccccccccccccccccccccscccccccccccccccccccccccccccccccscccccccsccccc" /><path
         id="path13604"
         style="fill:none;fill-opacity:1;stroke:#ffaaaa;stroke-width:0.0343477;stroke-dasharray:none;stroke-opacity:1"
         d="m 103.9944,249.33537 c -0.041,0.0287 -0.0694,0.0639 -0.0899,0.0836 -0.17528,0.17174 -0.33676,0.37455 -0.49483,0.62196 -0.29898,0.46392 -0.47422,0.96907 -0.53609,1.54638 -0.0239,0.2165 -0.0199,0.43298 0.0111,0.63572 0.002,0.0343 -0.004,0.0651 -0.0133,0.0997 -0.0111,0.0412 -0.0199,0.0824 -0.0111,0.1272 0.0344,0.158 0.14094,0.26461 0.22681,0.33676 0.50516,0.41924 1.07901,0.49485 1.70788,0.22337 0.18215,-0.0791 0.34363,-0.18548 0.5017,-0.29209 0.002,-0.004 0.007,-0.009 0.0133,-0.0111 0.003,-0.003 2.78514,-1.51811 2.78913,-1.52033"
         sodipodi:nodetypes="cccccccccccc" /><path
         style="opacity:0.548711;fill:#aa0000;fill-opacity:1;stroke:#ffaaaa;stroke-width:1.75076e-06;stroke-dasharray:none;stroke-opacity:1"
         d="m 109.36244,245.91809 c -8e-5,-1e-5 -8e-5,-1e-5 -1.4e-4,-1.5e-4 -1.4e-4,-1.3e-4 -1.4e-4,-1.3e-4 -1.4e-4,-2.7e-4 0,-10e-6 1e-5,-7e-5 4e-5,-1.4e-4 6e-5,-2.7e-4 3e-5,-2.7e-4 -4e-5,-5.5e-4 -8e-5,-3e-5 -1.4e-4,-3e-5 -2.7e-4,1e-5 -3e-5,0 -5e-5,-2e-5 -1.5e-4,-1.4e-4 -1.3e-4,-2.8e-4 -1.3e-4,-5.6e-4 -1.3e-4,-0.001 0,-2.8e-4 3e-5,-2.8e-4 1.3e-4,-2.8e-4 7e-5,-1.3e-4 1.5e-4,-1.3e-4 5.6e-4,-2.7e-4 2.7e-4,-1.4e-4 2.7e-4,-1.4e-4 5.5e-4,-5.6e-4 7e-5,-1.3e-4 1.4e-4,-1.3e-4 1.4e-4,-2.8e-4 2.8e-4,-1.3e-4 2.8e-4,-1.3e-4 5.6e-4,-1.3e-4 1.3e-4,0 2.7e-4,3e-5 2.7e-4,7e-5 0,1e-5 0,6e-5 4e-5,1.3e-4 1e-5,8e-5 3e-5,8e-5 6e-5,1.4e-4 1.4e-4,7e-5 2.8e-4,2.8e-4 5.6e-4,5.6e-4 6e-5,7e-5 6e-5,7e-5 6e-5,7e-5 h 7e-5 v 6e-5 c 0,1.5e-4 -3e-5,2.8e-4 -7e-5,5.6e-4 -1e-5,7e-5 -1.3e-4,2.7e-4 -1.3e-4,5.5e-4 -1.4e-4,5.5e-4 -2.8e-4,5.5e-4 -2.8e-4,5.5e-4 -1e-5,8e-5 -2e-5,1.5e-4 -3e-5,1.5e-4 -10e-6,3e-5 -1.4e-4,1.3e-4 -2.8e-4,2.7e-4 -2.7e-4,1.4e-4 -5.5e-4,1.4e-4 -5.5e-4,2.8e-4 -1.4e-4,1e-5 -2.8e-4,1e-5 -5.5e-4,1e-5 z m 1.3e-4,-5.6e-4 c 0,0 -2e-5,-3e-5 -6e-5,-6e-5 -8e-5,-1.5e-4 -1.5e-4,-2.8e-4 -2.8e-4,-5.6e-4 -3e-5,-1.4e-4 -8e-5,-1.4e-4 -8e-5,-1.4e-4 -1e-5,-1e-5 -3e-5,7e-5 -3e-5,1.4e-4 0,1.4e-4 8e-5,2.8e-4 1.4e-4,5.6e-4 1.4e-4,1.3e-4 1.4e-4,1.3e-4 1.4e-4,1.3e-4 2e-5,0 3e-5,0 3e-5,-1e-5 z m 1.4e-4,-5.5e-4 c 7e-5,-1e-5 1.4e-4,-7e-5 1.4e-4,-7e-5 l 1.3e-4,-7e-5 8e-5,3e-5 c 3e-5,2e-5 7e-5,4e-5 7e-5,2e-5 3e-5,0 3e-5,0 -1e-5,-6e-5 -1.4e-4,-1.5e-4 -2.8e-4,-1.5e-4 -2.8e-4,-8e-5 0,2e-5 -1e-5,4e-5 -7e-5,8e-5 -2.8e-4,6e-5 -2.8e-4,1.3e-4 -5.5e-4,3e-5 -1.5e-4,-3e-5 -2.8e-4,-2.8e-4 -2.8e-4,-2.8e-4 -1e-5,-3e-5 -1e-5,-3e-5 -1e-5,-3e-5 1e-5,0 8e-5,1e-5 8e-5,3e-5 6e-5,3e-5 1.3e-4,7e-5 1.3e-4,7e-5 1.4e-4,1e-5 2.8e-4,-1e-5 2.8e-4,-7e-5 3e-5,-6e-5 6e-5,-2.8e-4 3e-5,-2.8e-4 v -6e-5 l 7e-5,-5e-5 c 3e-5,-1e-5 6e-5,-6e-5 1.3e-4,-1.3e-4 3e-5,-7e-5 1.4e-4,-1.4e-4 1.4e-4,-2.8e-4 4e-5,-6e-5 4e-5,-6e-5 0,-6e-5 -3e-5,-2e-5 -3e-5,-1e-5 -6e-5,3e-5 -7e-5,2.8e-4 -2.8e-4,5.5e-4 -2.8e-4,5.5e-4 -10e-6,0 -10e-6,-2e-5 -10e-6,-3e-5 10e-6,-3e-5 -3e-5,-8e-5 -1.3e-4,-8e-5 -1.5e-4,5e-5 -2.8e-4,8e-5 -2.8e-4,1.5e-4 -1.4e-4,1.3e-4 -1.4e-4,1.3e-4 -1.4e-4,2.7e-4 0,7e-5 0,7e-5 -4e-5,1.4e-4 -3e-5,4e-5 -6e-5,8e-5 -6e-5,8e-5 0,1e-5 0,1e-5 6e-5,1e-5 7e-5,0 7e-5,0 1.5e-4,7e-5 6e-5,7e-5 1.3e-4,1.4e-4 2.7e-4,2.8e-4 1.4e-4,7e-5 2.8e-4,7e-5 5.6e-4,3e-5 z m 5.5e-4,-5.5e-4 c 0,-1e-5 -3e-5,-4e-5 -7e-5,-7e-5 l -1.3e-4,-4e-5 v -7e-5 c 10e-6,-7e-5 -1e-5,-7e-5 -7e-5,-7e-5 -6e-5,0 -1.3e-4,4e-5 -1.3e-4,7e-5 -1e-5,3e-5 -3e-5,7e-5 -3e-5,7e-5 -2e-5,2e-5 -5e-5,4e-5 -2e-5,4e-5 1e-5,1e-5 3e-5,3e-5 1.4e-4,1e-5 3e-5,0 1.3e-4,1e-5 1.3e-4,2e-5 1.4e-4,1e-5 1.4e-4,4e-5 1.4e-4,0 z m 2.8e-4,-5.6e-4 c 0,-1.4e-4 -1.4e-4,-2.7e-4 -2.8e-4,-2.7e-4 -3e-5,0 -7e-5,0 -7e-5,10e-6 -1e-5,0 -1e-5,1e-5 3e-5,3e-5 6e-5,3e-5 1.3e-4,1.3e-4 1.3e-4,1.3e-4 1e-5,2e-5 3e-5,7e-5 3e-5,1.5e-4 2e-5,6e-5 8e-5,1.3e-4 8e-5,6e-5 0,-1e-5 0,-3e-5 0,-6e-5 z m -0.001,-2.7e-4 c 8e-5,-4e-5 1.4e-4,-7e-5 1.4e-4,-1.5e-4 4e-5,-3e-5 7e-5,-3e-5 7e-5,-7e-5 0,-1e-5 -3e-5,-1e-5 -7e-5,0 -1.4e-4,0 -2.7e-4,4e-5 -2.7e-4,1.4e-4 -4e-5,6e-5 -7e-5,1.4e-4 -4e-5,1.4e-4 0,0 7e-5,-3e-5 1.4e-4,-8e-5 z"
         id="path8020" /><path
         style="opacity:0.548711;fill:#ffaaaa;fill-opacity:1;stroke:#ffaaaa;stroke-width:0.00358553;stroke-dasharray:none;stroke-opacity:1"
         d="m 108.37209,249.47546 c -0.14339,-0.0113 -0.14584,-0.0134 -0.39321,-0.33387 -0.18366,-0.23791 -0.24801,-0.30087 -0.26629,-0.34743 -0.005,-0.0129 -0.0173,-0.0271 -0.0353,-0.053 -0.0354,-0.0509 -0.084,-0.13487 -0.12282,-0.21754 -0.0469,-0.0999 -0.0994,-0.16199 -0.13574,-0.21658 -0.0972,-0.14594 -0.12982,-0.207 -0.19793,-0.29369 -0.0469,-0.0597 -0.0666,-0.0983 -0.0843,-0.12955 -0.0142,-0.025 -0.0388,-0.0452 -0.0487,-0.0687 -0.009,-0.0205 -0.013,-0.0354 -0.0274,-0.0648 -0.007,-0.0147 -0.0176,-0.0372 -0.031,-0.0577 -0.0269,-0.0411 -0.0552,-0.0491 -0.19358,-0.34114 -0.33955,-0.71665 -0.45993,-1.17457 -0.43969,-1.67251 0.016,-0.39281 0.0824,-0.60073 0.28847,-0.903 0.16845,-0.24707 0.26743,-0.31921 0.80063,-0.58354 0.66623,-0.33029 0.73368,-0.39151 1.10015,-0.99867 0.19042,-0.31549 0.2342,-0.36707 0.42287,-0.49814 0.36092,-0.25074 0.912,-0.38024 1.49218,-0.35067 0.36745,0.0187 0.51002,0.0617 0.51002,0.15359 0,0.0351 0.023,0.14594 0.0512,0.24628 0.0408,0.14552 0.0698,0.19236 0.1432,0.23153 0.24465,0.13053 0.63067,0.58711 0.81786,0.96735 0.0915,0.18577 0.10454,0.19873 0.20074,0.19873 h 0.10291 l -1.2e-4,0.17596 c -1.9e-4,0.24689 -0.0768,0.69146 -0.17102,0.99218 -0.0439,0.14018 -0.24242,0.668 -0.44113,1.17294 -0.37483,0.95251 -0.48395,1.2761 -0.5637,1.67156 -0.0259,0.12829 -0.0549,0.2538 -0.0646,0.27893 -0.0228,0.0593 -0.3514,0.32214 -0.61674,0.49326 -0.48546,0.31309 -0.84079,0.44721 -1.38645,0.52331 -0.32939,0.046 -0.40858,0.0487 -0.71055,0.0248 z m 0.2514,-1.48929 c 0,-0.007 -0.0502,-0.0859 -0.11151,-0.17596 -0.16086,-0.23618 -0.3854,-0.71976 -0.52997,-1.14135 -0.069,-0.20107 -0.13083,-0.37105 -0.13751,-0.37773 -0.0283,-0.0283 -0.10847,0.18319 -0.10847,0.28597 0,0.27147 0.16203,0.6888 0.4152,1.06937 0.20375,0.30629 0.25179,0.35193 0.37049,0.35193 0.056,0 0.10177,-0.006 0.10177,-0.0122 z m 0.29195,-1.6258 c 0.10031,-0.0257 0.31406,-0.10945 0.47499,-0.18614 l 0.2926,-0.13941 0.12671,0.066 c 0.0697,0.0363 0.156,0.0616 0.19181,0.0561 0.0634,-0.01 0.0629,-0.0128 -0.0215,-0.12209 -0.22072,-0.28582 -0.64883,-0.403 -0.6156,-0.16848 0.007,0.0495 -0.0254,0.0758 -0.16088,0.13048 -0.41914,0.16931 -0.81492,0.19605 -1.09168,0.0738 -0.24265,-0.10722 -0.58055,-0.48719 -0.63286,-0.71165 -0.0108,-0.0463 -0.014,-0.0842 -0.007,-0.0842 0.007,0 0.10589,0.0437 0.22011,0.0972 0.1608,0.0752 0.26159,0.1003 0.4467,0.11101 0.27756,0.0161 0.40588,-0.024 0.46919,-0.14639 0.0658,-0.1273 0.11709,-0.47955 0.096,-0.65935 l -0.019,-0.16177 0.13255,-0.0777 c 0.0729,-0.0427 0.18225,-0.13269 0.24299,-0.19993 0.11226,-0.12425 0.30569,-0.49927 0.40887,-0.79271 0.05,-0.14226 0.0514,-0.16531 0.011,-0.19076 -0.063,-0.0398 -0.10073,-0.0228 -0.14297,0.0643 -0.22501,0.46388 -0.55049,0.97682 -0.61983,0.97682 -0.0134,0 -0.018,-0.0331 -0.0103,-0.0735 0.0211,-0.11029 -0.0934,-0.21211 -0.21681,-0.19286 -0.33606,0.0524 -0.62579,0.18657 -0.86658,0.40119 -0.26164,0.23319 -0.34686,0.3855 -0.34686,0.61991 0,0.17851 -0.007,0.19937 -0.10711,0.29901 -0.0589,0.0589 -0.10711,0.13691 -0.10711,0.17334 0,0.0583 0.0125,0.0642 0.10448,0.0493 0.12536,-0.0203 0.16006,0.005 0.28937,0.2125 0.1126,0.18058 0.34387,0.40737 0.49646,0.48687 0.26994,0.14063 0.63077,0.17405 0.96236,0.0891 z m 1.47578,-1.1837 c -0.007,-0.0203 -0.0885,-0.0784 -0.18166,-0.129 l -0.16936,-0.0921 0.0153,-0.13588 c 0.0182,-0.1617 -0.0353,-0.21817 -0.20698,-0.21817 -0.14429,0 -0.23278,0.0659 -0.27758,0.20666 -0.0201,0.0631 -0.0659,0.13819 -0.1018,0.16694 -0.0526,0.0421 -0.0587,0.0629 -0.0314,0.1071 0.0278,0.0449 0.0693,0.0535 0.22951,0.0473 0.10757,-0.004 0.27821,0.0117 0.3792,0.0351 0.23865,0.0554 0.36061,0.0597 0.34472,0.012 z m 0.65455,-1.48239 c -0.003,-0.34584 -0.28454,-0.68781 -0.56167,-0.68191 -0.0555,0.001 -0.12852,0.0131 -0.16218,0.0265 -0.0546,0.0217 -0.0494,0.0293 0.0481,0.0705 0.14012,0.0592 0.32422,0.2208 0.38468,0.33771 0.026,0.0502 0.0669,0.15782 0.0911,0.23925 0.0435,0.14656 0.12515,0.23133 0.17523,0.18198 0.0142,-0.014 0.0254,-0.0924 0.0247,-0.17406 z m -2.13605,-0.53666 c 0.12029,-0.10407 0.28413,-0.23007 0.36408,-0.28 0.0799,-0.0499 0.14535,-0.10439 0.14535,-0.12104 0,-0.0185 -0.0723,-0.0237 -0.18565,-0.0135 -0.23605,0.0214 -0.39622,0.12249 -0.48063,0.30332 -0.0688,0.14738 -0.11,0.30039 -0.0809,0.30039 0.0105,0 0.11745,-0.0851 0.23775,-0.18922 z"
         id="path8091"
         sodipodi:nodetypes="ssssssssssssssssssssssscssssssssssssssssssscsssssssssssscssssssssssssssssssscssssssssssssssssssssssssss" /><path
         style="opacity:0.548711;fill:#ffaaaa;fill-opacity:1;stroke:#ffaaaa;stroke-width:0.00358553;stroke-dasharray:none;stroke-opacity:1"
         d="m 107.9735,245.25843 c -0.33448,-0.0824 -0.51047,-0.21386 -0.46752,-0.34918 0.0581,-0.18317 0.42843,-0.5101 0.67163,-0.59296 0.12693,-0.0433 0.14314,-0.0429 0.19685,0.004 0.088,0.0774 0.12663,0.23213 0.12663,0.50786 0,0.33407 -0.0623,0.45912 -0.23295,0.46745 -0.0654,0.003 -0.19803,-0.0137 -0.29464,-0.0375 z"
         id="path8093" /><path
         style="opacity:0.548711;fill:#ffaaaa;fill-opacity:1;stroke:#ffaaaa;stroke-width:0.00358554;stroke-dasharray:none;stroke-opacity:1"
         d="m 103.89762,252.91945 c -0.01,-0.0399 -0.0568,-0.0554 -0.19576,-0.0655 -0.20072,-0.0145 -0.51142,-0.16344 -0.43697,-0.20945 0.0301,-0.0186 0.024,-0.0474 -0.0266,-0.12656 -0.19814,-0.30974 -0.23553,-0.61826 -0.12743,-1.05129 0.16126,-0.64594 0.34041,-1.0756 0.63486,-1.52254 0.30363,-0.46088 0.62608,-0.69976 0.88022,-0.65209 0.27095,0.0509 0.19736,0.39048 -0.2988,1.37912 -0.1436,0.28613 -0.28354,0.59598 -0.31098,0.68855 -0.0632,0.21305 -0.0979,0.59662 -0.0564,0.62227 0.045,0.0278 0.13481,-0.0846 0.15798,-0.19797 0.0185,-0.0904 0.0391,-0.0738 0.19295,-0.10604 0.0632,-0.0132 0.22505,-0.0631 0.37673,-0.15011 0.033,-0.019 0.0691,-0.0331 0.10405,-0.0597 0.36503,-0.27878 0.98051,-0.59403 1.12645,-0.6931 0.10093,-0.0685 1.95218,-1.04395 1.9598,-1.03156 0.004,0.007 0.032,0.061 0.0519,0.14962 0.0188,0.0843 0.007,0.2205 0.009,0.33144 0.0173,0.69616 0.0494,0.76033 0.0111,0.79911 -0.0618,0.0625 -3.33152,1.76693 -3.53464,1.83452 -0.10703,0.0357 -0.26413,0.0758 -0.34909,0.0892 -0.13253,0.0209 -0.1564,0.017 -0.16814,-0.0279 z"
         id="path8821"
         sodipodi:nodetypes="sssssssssssssssssssssss" /><path
         style="opacity:0.548711;fill:#ffaaaa;fill-opacity:1;stroke:#ffaaaa;stroke-width:0.00358553;stroke-dasharray:none;stroke-opacity:1"
         d="m 113.87179,253.08337 c -0.0987,-0.0602 -0.29072,-0.26491 -0.29072,-0.30994 0,-0.0151 -0.0304,-0.0318 -0.0676,-0.0372 -0.0507,-0.007 -0.0777,-0.0442 -0.10768,-0.14749 -0.0382,-0.13147 -0.13061,-1.17372 -0.13068,-1.47419 -3e-5,-0.13396 0.006,-0.14513 0.0994,-0.17696 0.1,-0.0341 0.25621,-0.14598 0.23385,-0.1674 -0.007,-0.006 -0.39069,-0.0413 -0.85355,-0.0777 -1.03003,-0.0811 -1.19976,-0.10368 -1.53012,-0.20377 -0.21591,-0.0654 -0.28156,-0.10109 -0.38628,-0.20994 -0.22486,-0.23373 -0.25212,-0.58719 -0.062,-0.80374 0.25477,-0.29017 0.57912,-0.29581 2.14895,-0.0374 0.83959,0.13823 1.28272,0.26105 1.24995,0.34645 -0.009,0.0234 0.0212,0.0649 0.0698,0.0958 0.0471,0.0299 0.12331,0.0894 0.16928,0.13212 0.0659,0.0613 0.0761,0.0867 0.0482,0.12038 -0.0272,0.0327 -0.0229,0.0775 0.0183,0.1921 0.0473,0.1316 0.0494,0.17796 0.0173,0.38825 -0.0529,0.34654 -0.1066,0.55423 -0.26568,1.02674 -0.0779,0.23139 -0.13362,0.42874 -0.1238,0.43856 0.0376,0.0376 0.14396,-0.054 0.25961,-0.22369 0.10619,-0.15579 0.1338,-0.17769 0.23477,-0.18618 0.18771,-0.0158 0.2118,0.0269 0.19511,0.3459 -0.0154,0.29484 -0.0799,0.48909 -0.22562,0.6802 -0.11076,0.1452 -0.21594,0.20478 -0.39308,0.22262 -0.12338,0.0124 -0.15395,0.0265 -0.15056,0.0692 0.005,0.0685 -0.0419,0.0677 -0.15726,-0.003 z"
         id="path8823" /><path
         style="opacity:0.548711;fill:#ffaaaa;fill-opacity:1;stroke:#ffaaaa;stroke-width:0.00358553;stroke-dasharray:none;stroke-opacity:1"
         d="m 111.55303,261.26133 c -0.0102,-0.0102 -0.18116,-0.0215 -0.37998,-0.0253 -0.41524,-0.008 -0.64955,-0.0717 -0.92406,-0.25193 -0.35974,-0.2362 -0.55978,-0.52675 -0.60138,-0.87345 -0.018,-0.15026 -0.0113,-0.19024 0.0485,-0.28699 0.0565,-0.0914 0.0628,-0.1231 0.0339,-0.16944 -0.0309,-0.0495 -0.0184,-0.0696 0.0945,-0.15194 0.0716,-0.0522 0.19798,-0.12951 0.28089,-0.17181 0.13724,-0.07 0.16188,-0.0736 0.27542,-0.0396 0.21045,0.0629 0.32726,0.13606 0.7539,0.47239 0.34858,0.2748 0.58866,0.41603 0.63256,0.37213 0.006,-0.006 -0.006,-0.046 -0.0254,-0.0893 -0.0333,-0.073 -0.0234,-0.0925 0.13493,-0.26748 0.28863,-0.31894 0.55003,-0.91344 0.71065,-1.61621 0.0399,-0.17451 0.0766,-0.32069 0.0816,-0.32483 0.005,-0.004 0.0832,-0.017 0.17367,-0.0285 0.12866,-0.0164 0.16137,-0.0123 0.15003,0.0188 -0.008,0.0219 -0.10171,0.42929 -0.20829,0.9053 -0.176,0.78606 -0.2005,0.86891 -0.267,0.90277 -0.0549,0.028 -0.12657,0.16343 -0.2868,0.54223 -0.23474,0.55493 -0.31222,0.70131 -0.49814,0.94102 -0.12463,0.16068 -0.14498,0.1768 -0.17961,0.14218 z"
         id="path9551" /><path
         style="opacity:0.548711;fill:#ffaaaa;fill-opacity:1;stroke:#ffaaaa;stroke-width:0.00358553;stroke-dasharray:none;stroke-opacity:1"
         d="m 114.50038,261.46034 c -0.27382,-0.042 -0.44509,-0.1236 -0.50578,-0.24096 -0.0879,-0.17001 -0.17355,-0.6463 -0.19695,-1.09542 -0.0204,-0.39229 -0.0295,-0.44299 -0.0891,-0.49848 -0.065,-0.0606 -0.0663,-0.0785 -0.0663,-0.94423 0,-0.48535 0.009,-0.92628 0.0195,-0.97985 0.0153,-0.0764 0.0532,-0.11676 0.17597,-0.18716 0.0861,-0.0494 0.16441,-0.0899 0.1741,-0.09 0.01,-1.5e-4 0.0187,0.20973 0.02,0.4664 0.003,0.57397 0.13567,1.45411 0.26688,1.76939 0.15568,0.3741 0.15332,0.36148 0.0817,0.43777 -0.0747,0.0795 -0.0844,0.16658 -0.0212,0.19083 0.024,0.009 0.2423,-0.0808 0.48514,-0.19997 0.44133,-0.21662 0.81549,-0.33892 1.03686,-0.33892 0.082,0 0.11752,0.0133 0.11752,0.0442 0,0.0243 0.0698,0.1035 0.15505,0.17597 0.0853,0.0725 0.17437,0.16813 0.19798,0.21258 0.0394,0.0742 0.0379,0.0822 -0.0191,0.0971 -0.0565,0.0148 -0.0602,0.0322 -0.0418,0.19579 0.0238,0.20977 -0.01,0.35352 -0.12904,0.55347 -0.0738,0.1237 -0.0873,0.13426 -0.096,0.0751 -0.009,-0.0603 -0.0184,-0.0645 -0.0769,-0.034 -0.0367,0.0191 -0.13045,0.0938 -0.20832,0.16594 -0.0921,0.0853 -0.19912,0.1485 -0.30602,0.18076 -0.20366,0.0615 -0.71026,0.0842 -0.97416,0.0437 z"
         id="path9553" /><path
         style="opacity:0.548711;fill:#ff55dd;fill-opacity:1;stroke:#ffaaaa;stroke-width:0.00358553;stroke-dasharray:none;stroke-opacity:1"
         d="m 109.03097,250.47696 c -0.20786,-0.0304 -0.55829,-0.13823 -0.6422,-0.19763 -0.0457,-0.0324 -0.0815,-0.11322 -0.11475,-0.25959 -0.0266,-0.11692 -0.0483,-0.22412 -0.0483,-0.23823 0,-0.0141 0.13493,-0.0202 0.29984,-0.0136 0.5988,0.024 1.26146,-0.12341 1.77346,-0.39465 0.25376,-0.13443 0.36042,-0.16125 0.23832,-0.0599 -0.0246,0.0204 -0.0742,0.11506 -0.11013,0.21031 -0.0652,0.17277 -0.068,0.30375 -0.0128,0.61691 0.0177,0.10082 0.011,0.11198 -0.11443,0.18996 -0.19897,0.12368 -0.44972,0.17784 -0.80303,0.17345 -0.16898,-0.002 -0.37864,-0.0143 -0.46591,-0.027 z"
         id="path10421" /><path
         style="opacity:0.548711;fill:#ff55dd;fill-opacity:1;stroke:#ffaaaa;stroke-width:0.00358553;stroke-dasharray:none;stroke-opacity:1"
         d="m 109.17434,251.65541 c -0.27901,-0.0563 -0.52839,-0.1558 -0.61118,-0.24392 -0.0562,-0.0598 -0.0752,-0.12623 -0.0939,-0.32867 -0.0129,-0.13953 -0.0317,-0.29157 -0.0417,-0.33786 -0.0549,-0.25365 -0.0554,-0.24284 0.009,-0.2082 0.12571,0.0673 0.5787,0.15422 0.80456,0.15443 0.12945,1.2e-4 0.24387,0.014 0.25428,0.0308 0.0517,0.0837 0.63365,-0.0521 0.92501,-0.21586 l 0.15996,-0.0899 0.13076,0.0921 c 0.13587,0.0957 0.4944,0.23068 0.70044,0.26363 0.0654,0.0105 0.11888,0.0291 0.11888,0.0415 0,0.0343 -0.27347,0.28175 -0.42843,0.38761 -0.20744,0.1417 -0.43884,0.25161 -0.8047,0.38221 -0.30138,0.10758 -0.35641,0.11767 -0.62735,0.11505 -0.16334,-0.001 -0.3865,-0.0209 -0.4959,-0.043 z"
         id="path10423" /><path
         style="opacity:0.548711;fill:#ff55dd;fill-opacity:1;stroke:#ffaaaa;stroke-width:0.00358553;stroke-dasharray:none;stroke-opacity:1"
         d="m 109.10589,252.95656 c -0.27457,-0.0492 -0.45083,-0.12284 -0.46537,-0.19432 -0.0195,-0.0957 -0.085,-1.03391 -0.073,-1.04514 0.006,-0.005 0.12716,0.0289 0.27026,0.0757 0.55658,0.18217 1.20775,0.20309 1.63895,0.0526 0.29934,-0.10444 0.41244,-0.16691 0.39316,-0.21717 -0.01,-0.026 0.0117,-0.0489 0.0573,-0.0603 0.14338,-0.036 0.53043,-0.31801 0.71098,-0.51805 l 0.18325,-0.20305 0.19891,0.028 c 0.18172,0.0256 0.20874,0.0394 0.31275,0.15942 0.0626,0.0723 0.11426,0.15005 0.11476,0.17284 0.001,0.0713 -0.21885,0.46351 -0.2605,0.46351 -0.0218,0 -0.0688,0.0473 -0.10454,0.10504 -0.16697,0.27017 -0.93466,0.91666 -1.24,1.04424 -0.11143,0.0466 -0.11257,0.0463 -0.0915,-0.0202 0.0181,-0.057 0.0126,-0.0637 -0.0357,-0.0439 -0.45554,0.18674 -0.57164,0.21167 -1.02106,0.21921 -0.24406,0.004 -0.50897,-0.004 -0.58869,-0.0186 z"
         id="path10425" /><path
         style="opacity:0.548711;fill:#ff55dd;fill-opacity:1;stroke:#ffaaaa;stroke-width:0.00358553;stroke-dasharray:none;stroke-opacity:1"
         d="m 109.83229,254.23911 c -0.27336,-0.0261 -0.60366,-0.0967 -0.76252,-0.16311 -0.0948,-0.0396 -0.1119,-0.0668 -0.17803,-0.28355 -0.0531,-0.17391 -0.0866,-0.23868 -0.12211,-0.23592 -0.0509,0.004 -0.0643,-0.0413 -0.10311,-0.34808 -0.0112,-0.0884 -0.0134,-0.16066 -0.005,-0.16066 0.008,0 0.0699,0.0192 0.13659,0.0428 0.287,0.10125 1.02541,0.1486 1.29949,0.0833 0.0699,-0.0166 0.12374,-0.0154 0.14241,0.003 0.0847,0.0847 0.73401,-0.17837 1.15002,-0.46596 0.1252,-0.0866 0.29834,-0.23213 0.38476,-0.3235 0.0864,-0.0914 0.18045,-0.1667 0.20895,-0.1674 0.0696,-0.002 0.45716,-0.44272 0.57357,-0.65278 l 0.0933,-0.16838 0.15595,0.14344 c 0.17789,0.16363 0.23529,0.31094 0.23168,0.59469 -0.005,0.38531 -0.44415,1.05279 -0.99468,1.51148 -0.31418,0.26177 -0.38906,0.30786 -0.41967,0.25834 -0.0147,-0.0237 -0.11612,0.005 -0.32508,0.092 -0.52832,0.22003 -0.95124,0.28926 -1.46664,0.24008 z"
         id="path10427" /><path
         style="opacity:0.548711;fill:#ff55dd;fill-opacity:1;stroke:#ffaaaa;stroke-width:0.00358553;stroke-dasharray:none;stroke-opacity:1"
         d="m 110.52084,255.44592 c -0.20707,-0.0395 -0.56571,-0.14954 -0.85042,-0.26085 -0.25067,-0.098 -0.32235,-0.13953 -0.34537,-0.20007 -0.016,-0.042 -0.0531,-0.0827 -0.0825,-0.0904 -0.0373,-0.01 -0.0782,-0.0984 -0.13568,-0.29452 -0.0453,-0.1543 -0.0778,-0.28502 -0.0724,-0.29049 0.005,-0.005 0.11834,0.0194 0.25082,0.0553 0.1683,0.0456 0.37222,0.0703 0.67685,0.0821 0.49248,0.019 0.79295,-0.0173 1.12037,-0.13534 0.11541,-0.0416 0.25875,-0.0802 0.31853,-0.0858 0.16742,-0.0156 0.57685,-0.23494 0.85414,-0.45767 0.32539,-0.26136 0.55994,-0.52206 0.75311,-0.83708 l 0.15593,-0.25429 0.0435,0.086 c 0.0734,0.14493 0.2863,0.34477 0.50296,0.47207 l 0.20626,0.12118 -0.15596,0.3125 c -0.21876,0.43833 -0.46329,0.79673 -0.71461,1.04735 -0.24879,0.24811 -0.52928,0.44334 -0.63693,0.44334 -0.0411,0 -0.16271,0.0395 -0.27023,0.0878 -0.34137,0.15337 -0.55179,0.19355 -1.06767,0.20386 -0.26089,0.005 -0.50876,0.003 -0.55084,-0.005 z"
         id="path10429" /><path
         style="opacity:0.548711;fill:#ff55dd;fill-opacity:1;stroke:#ffaaaa;stroke-width:0.00358553;stroke-dasharray:none;stroke-opacity:1"
         d="m 110.87276,256.56957 c -0.48958,-0.0639 -0.51188,-0.0743 -0.78192,-0.36414 -0.2319,-0.24888 -0.60329,-0.75745 -0.57431,-0.78643 0.007,-0.007 0.11371,0.0279 0.23675,0.078 0.39725,0.16167 0.77794,0.22169 1.2878,0.20306 0.45562,-0.0167 0.66576,-0.0568 0.97927,-0.18688 0.0926,-0.0384 0.24952,-0.0954 0.34876,-0.12654 0.38473,-0.12083 0.96552,-0.58898 1.3267,-1.0694 0.17446,-0.23206 0.4055,-0.66878 0.4055,-0.7665 0,-0.0909 0.0833,-0.19287 0.2373,-0.29055 l 0.13754,-0.0872 0.14655,0.12357 c 0.21251,0.1792 0.22731,0.23275 0.1703,0.61651 -0.0559,0.37644 -0.18757,0.81786 -0.24391,0.81786 -0.0216,0 -0.11293,0.13427 -0.20304,0.29838 -0.17945,0.32681 -0.48706,0.66422 -0.79592,0.87301 -0.28462,0.19241 -1.14677,0.53105 -1.57362,0.61809 -0.28581,0.0583 -0.8437,0.0831 -1.10375,0.0492 z"
         id="path10431" /><path
         style="opacity:0.548711;fill:#ff55dd;fill-opacity:1;stroke:#ffaaaa;stroke-width:0.00358553;stroke-dasharray:none;stroke-opacity:1"
         d="m 111.97873,257.50095 c -0.34272,-0.0715 -0.78861,-0.31357 -1.17856,-0.63977 l -0.1338,-0.11193 0.1797,0.0237 c 0.34969,0.046 1.04704,0.0211 1.29669,-0.0464 0.13849,-0.0374 0.24105,-0.051 0.25859,-0.0343 0.0535,0.0511 0.12805,0.0289 0.47785,-0.14282 0.60933,-0.29905 1.1766,-0.70753 1.46675,-1.05618 0.28785,-0.34589 0.4929,-0.77453 0.61355,-1.28259 0.038,-0.1599 0.0746,-0.31105 0.0814,-0.3359 0.0189,-0.0685 0.12589,0.1175 0.2066,0.35897 0.10619,0.31774 0.11634,0.37476 0.0667,0.37476 -0.0628,0 -0.0774,0.0948 -0.0431,0.28011 0.0166,0.09 0.0238,0.28072 0.0159,0.42383 -0.0236,0.42936 -0.2069,0.80355 -0.60239,1.23003 -0.41992,0.45281 -0.88769,0.73821 -1.47084,0.89741 -0.36574,0.0999 -0.91834,0.12717 -1.23511,0.0611 z"
         id="path10433" /><path
         style="opacity:0.548711;fill:#ff55dd;fill-opacity:1;stroke:#ffaaaa;stroke-width:0.00358553;stroke-dasharray:none;stroke-opacity:1"
         d="m 112.26291,243.86228 c -0.0265,-0.0226 -0.0859,-0.1324 -0.13194,-0.24399 -0.10204,-0.24712 -0.36066,-0.56843 -0.55375,-0.68799 -0.31587,-0.19559 -0.3068,-0.17917 -0.30525,-0.55251 0.002,-0.38973 0.0665,-0.63827 0.27391,-1.04903 0.23577,-0.46697 0.67598,-1.02941 0.77988,-0.99644 0.0371,0.0118 0.0858,-0.0228 0.16021,-0.11385 0.46084,-0.5636 0.8634,-1.45605 0.94197,-2.08832 0.0353,-0.28377 0.0732,-0.41413 0.12053,-0.41413 0.12613,0 0.61957,0.78923 0.89927,1.43831 0.16076,0.37307 0.22232,0.5947 0.27415,0.98709 0.0334,0.25275 0.0444,0.28391 0.1035,0.29233 0.0606,0.009 0.0679,0.0335 0.0878,0.29824 0.0571,0.76104 -0.11186,1.40725 -0.50246,1.92225 -0.0877,0.1156 -0.15374,0.21582 -0.14684,0.22273 0.007,0.007 0.0489,-0.001 0.0933,-0.0181 0.32829,-0.12481 -0.36533,0.43591 -0.89853,0.72637 -0.43621,0.23762 -1.0699,0.38447 -1.19575,0.27709 z"
         id="path10435" /><path
         style="opacity:0.548711;fill:#ff55dd;fill-opacity:1;stroke:#ffaaaa;stroke-width:0.00358553;stroke-dasharray:none;stroke-opacity:1"
         d="m 108.5755,242.52058 c -0.18566,-0.11898 -0.38714,-0.46759 -0.51303,-0.88768 -0.14383,-0.47998 -0.26729,-1.01619 -0.24798,-1.07703 0.0273,-0.0861 -0.15199,-0.43459 -0.29954,-0.58214 -0.25233,-0.25233 -0.52524,-0.30351 -1.14073,-0.2139 -0.21881,0.0319 -0.40471,0.0519 -0.41313,0.0445 -0.0378,-0.0331 0.29656,-0.28669 0.52657,-0.39934 0.52282,-0.25608 0.88944,-0.32912 1.52549,-0.30394 0.36909,0.0146 0.42673,0.0106 0.42673,-0.0297 0,-0.0393 0.0323,-0.0431 0.20657,-0.0245 0.32199,0.0344 0.64079,0.12639 0.94102,0.27139 0.34195,0.16515 0.55843,0.3349 0.73961,0.57997 0.077,0.1042 0.15101,0.18638 0.16439,0.18264 0.0134,-0.004 0.0542,0.0789 0.0908,0.18361 0.0835,0.23921 0.1159,0.80334 0.0638,1.11123 -0.0377,0.22301 -0.14535,0.58564 -0.19102,0.64366 -0.0149,0.0189 -0.12664,0.044 -0.24839,0.0559 -0.56365,0.0549 -0.99865,0.1854 -1.31262,0.3938 -0.0934,0.062 -0.18212,0.11246 -0.19721,0.11217 -0.0151,-2.7e-4 -0.0697,-0.0276 -0.12133,-0.0607 z"
         id="path10437" /><path
         style="opacity:0.548711;fill:#000000;fill-opacity:1;stroke:none;stroke-width:0.000557058;stroke-dasharray:none;stroke-opacity:1"
         d="m 110.1752,245.13788 c -0.28829,-0.0602 -0.33961,-0.0672 -0.49049,-0.0666 -0.0986,2.9e-4 -0.11268,0.001 -0.1345,0.01 -0.0134,0.005 -0.0293,0.01 -0.0352,0.01 -0.0125,0 -0.0287,-0.0155 -0.0359,-0.0345 -0.009,-0.0236 1.9e-4,-0.0356 0.0412,-0.0537 0.0759,-0.0336 0.0773,-0.0353 0.0827,-0.10423 0.0113,-0.14428 0.0643,-0.21931 0.17528,-0.24797 0.042,-0.0108 0.1134,-0.0111 0.14826,-3e-4 0.0691,0.0211 0.11107,0.0863 0.0985,0.15313 -0.002,0.013 -0.0151,0.0463 -0.0281,0.0739 -0.0182,0.0385 -0.0237,0.0555 -0.0237,0.073 0,0.0437 0.0199,0.0613 0.0981,0.0868 0.0643,0.021 0.11335,0.0454 0.17766,0.0885 0.0275,0.0184 0.0508,0.0342 0.0519,0.0351 0.005,0.004 -0.0174,1e-5 -0.1256,-0.0226 z"
         id="path13771" /><path
         style="opacity:0.548711;fill:#000000;fill-opacity:1;stroke:none;stroke-width:0.000557058;stroke-dasharray:none;stroke-opacity:1"
         d="m 110.11596,245.1237 c -0.22996,-0.0474 -0.27612,-0.0532 -0.42334,-0.0533 -0.10176,-6e-5 -0.12458,0.001 -0.14204,0.008 -0.0371,0.0141 -0.0516,0.01 -0.0669,-0.0199 -0.0116,-0.0224 -0.004,-0.0315 0.0525,-0.0602 0.062,-0.0317 0.0622,-0.032 0.0706,-0.10882 0.0157,-0.14351 0.071,-0.21427 0.18658,-0.23891 0.0712,-0.0152 0.14599,-0.002 0.18721,0.0328 0.02,0.0169 0.04,0.0556 0.0434,0.0835 0.003,0.0266 -5.9e-4,0.04 -0.0299,0.10946 -0.0165,0.039 -0.0208,0.0549 -0.0208,0.0766 0,0.044 0.0172,0.0586 0.10638,0.09 0.0232,0.008 0.0596,0.0236 0.0808,0.0343 0.0362,0.0183 0.12659,0.0742 0.12659,0.0783 0,0.003 -0.008,0.002 -0.17097,-0.0319 z"
         id="path13773" /><path
         style="opacity:0.548711;fill:#000000;fill-opacity:1;stroke:none;stroke-width:0.000557058;stroke-dasharray:none;stroke-opacity:1"
         d="m 108.41842,246.35995 c -0.35126,-0.0333 -0.64272,-0.21243 -0.87794,-0.53946 -0.0319,-0.0444 -0.0751,-0.11152 -0.0878,-0.13657 -0.0191,-0.0376 -0.0788,-0.12465 -0.0982,-0.14317 -0.0128,-0.0123 -0.0254,-0.0194 -0.0375,-0.0214 -0.0256,-0.004 -0.13028,-0.004 -0.17213,5.8e-4 l -0.0351,0.004 0.003,-0.0155 c 0.006,-0.0284 0.0304,-0.0742 0.0512,-0.095 0.0113,-0.0113 0.0332,-0.0277 0.0487,-0.0364 0.063,-0.0355 0.0999,-0.0861 0.11496,-0.1575 0.008,-0.0389 0.007,-0.0769 -0.005,-0.14037 -0.0147,-0.0766 -0.007,-0.1595 0.022,-0.22829 0.0522,-0.12547 0.2585,-0.35501 0.44201,-0.49187 0.15125,-0.11282 0.29613,-0.17861 0.47613,-0.21624 0.0479,-0.01 0.0702,-0.0179 0.12277,-0.0431 0.0718,-0.0345 0.105,-0.0426 0.14395,-0.0352 0.0723,0.0137 0.12128,0.0633 0.1258,0.12728 0.002,0.0273 -1.3e-4,0.0389 -0.0149,0.0835 -0.009,0.0285 -0.0172,0.0578 -0.0172,0.0652 0,0.0116 0.002,0.0138 0.0171,0.0166 0.0526,0.01 0.11137,-0.0103 0.16051,-0.0553 0.0522,-0.0477 0.12782,-0.14187 0.19648,-0.24465 0.0927,-0.13884 0.23227,-0.39419 0.32732,-0.59906 0.0279,-0.0601 0.0561,-0.12067 0.0626,-0.13449 0.007,-0.0138 0.017,-0.0285 0.0234,-0.0327 0.0217,-0.0142 0.059,0.002 0.059,0.0254 0,0.006 -0.006,0.0236 -0.0139,0.0385 -0.008,0.0149 -0.0314,0.0699 -0.0527,0.12223 -0.12246,0.30038 -0.21641,0.49982 -0.28836,0.61217 -0.10341,0.16146 -0.23851,0.27674 -0.40574,0.34619 -0.0667,0.0277 -0.0754,0.0471 -0.0628,0.1395 0.006,0.0433 0.008,0.0949 0.008,0.20962 -3e-5,0.16017 -0.007,0.24171 -0.031,0.35896 -0.0359,0.17603 -0.10608,0.26531 -0.23014,0.29276 -0.0767,0.017 -0.27786,0.013 -0.38442,-0.008 -0.14814,-0.0286 -0.30979,-0.0943 -0.49748,-0.2021 -0.0392,-0.0225 -0.0731,-0.0398 -0.0755,-0.0383 -0.007,0.005 -0.016,0.0933 -0.0128,0.13094 0.007,0.0774 0.0333,0.15577 0.0776,0.22895 0.10293,0.16986 0.24507,0.34148 0.35955,0.43412 0.15188,0.12289 0.32241,0.1931 0.52742,0.21714 0.0768,0.009 0.23365,0.003 0.31872,-0.0117 0.20012,-0.0351 0.39701,-0.0897 0.57088,-0.15821 0.0974,-0.0384 0.24037,-0.1086 0.24037,-0.11807 0,-0.0125 -0.0211,-0.0299 -0.0434,-0.0359 -0.0299,-0.008 -0.0549,-0.0219 -0.0574,-0.0317 -0.007,-0.0286 0.0183,-0.0585 0.05,-0.0585 0.0495,0 0.14661,0.0262 0.21118,0.057 0.0689,0.0329 0.1142,0.0656 0.17759,0.12843 0.0526,0.0521 0.11742,0.13096 0.11207,0.1363 -0.004,0.004 -0.0495,-0.007 -0.0833,-0.0207 -0.04,-0.016 -0.0708,-0.0345 -0.11044,-0.0665 -0.0374,-0.0301 -0.0584,-0.0397 -0.0873,-0.0397 -0.0303,0 -0.0539,0.0103 -0.16186,0.071 -0.29463,0.16545 -0.51753,0.25135 -0.75833,0.29224 -0.12103,0.0205 -0.24448,0.0265 -0.34708,0.0168 z m -0.0357,-1.02115 c 0.0831,-0.0395 0.14413,-0.15765 0.16727,-0.324 0.0104,-0.0747 0.012,-0.32078 0.003,-0.38748 -0.0306,-0.2154 -0.0909,-0.34574 -0.17832,-0.38553 -0.0259,-0.0118 -0.0351,-0.0134 -0.0747,-0.0133 -0.0383,1e-4 -0.052,0.002 -0.09,0.0155 -0.12986,0.0444 -0.29647,0.13778 -0.41398,0.23206 -0.12102,0.0971 -0.27334,0.26845 -0.31868,0.35848 -0.0273,0.0543 -0.0346,0.0842 -0.0323,0.13294 0.004,0.0752 0.0374,0.12479 0.12433,0.18271 0.0604,0.0402 0.16769,0.0932 0.24,0.11856 0.13949,0.0489 0.33168,0.0818 0.48583,0.0832 0.0561,5.9e-4 0.061,-2.2e-4 0.088,-0.013 z"
         id="path13775" /><path
         style="opacity:0.548711;fill:#000000;fill-opacity:1;stroke:none;stroke-width:0.000557058;stroke-dasharray:none;stroke-opacity:1"
         d="m 108.37563,246.35287 c -0.26577,-0.0376 -0.48548,-0.15153 -0.68079,-0.35291 -0.0878,-0.0905 -0.17067,-0.19992 -0.23667,-0.3124 -0.0369,-0.0629 -0.0893,-0.13838 -0.10537,-0.15193 -0.0238,-0.02 -0.0457,-0.023 -0.14558,-0.0202 -0.10545,0.003 -0.10049,0.006 -0.0774,-0.0431 0.0213,-0.045 0.0348,-0.0597 0.0857,-0.0938 0.0497,-0.0332 0.072,-0.0564 0.0921,-0.0962 0.0275,-0.0543 0.0328,-0.10705 0.0192,-0.19031 -0.0269,-0.16421 0.008,-0.26221 0.15696,-0.44121 0.0943,-0.11335 0.24359,-0.25018 0.35435,-0.32484 0.13231,-0.0892 0.22651,-0.13084 0.38924,-0.17211 0.0505,-0.0128 0.10722,-0.03 0.12599,-0.0381 0.11569,-0.0501 0.11324,-0.0493 0.15062,-0.0494 0.059,-1.2e-4 0.11066,0.0302 0.13519,0.0795 0.0169,0.0339 0.0164,0.0691 -0.002,0.13002 -0.0149,0.0495 -0.0178,0.0753 -0.009,0.0807 0.003,0.002 0.0208,0.003 0.0397,0.003 0.0836,-8.8e-4 0.14296,-0.0469 0.25908,-0.20047 0.12129,-0.16043 0.26428,-0.41195 0.40651,-0.71506 0.033,-0.0703 0.0643,-0.13398 0.0697,-0.14144 0.0112,-0.0157 0.0333,-0.0184 0.0507,-0.006 0.0149,0.0105 0.0133,0.024 -0.009,0.0744 -0.0107,0.0243 -0.0408,0.0955 -0.067,0.1583 -0.11139,0.26761 -0.20371,0.46072 -0.26656,0.55756 -0.10251,0.15796 -0.23348,0.27197 -0.39007,0.33957 -0.0805,0.0348 -0.0888,0.0497 -0.0786,0.14095 0.008,0.0744 0.008,0.36477 -2.5e-4,0.4358 -0.0319,0.26762 -0.10006,0.3888 -0.24074,0.42786 -0.0205,0.006 -0.0566,0.009 -0.1287,0.0105 -0.14899,0.004 -0.25042,-0.007 -0.36085,-0.0391 -0.0972,-0.0282 -0.23259,-0.0862 -0.34249,-0.14687 -0.0806,-0.0445 -0.13476,-0.0717 -0.13742,-0.069 -0.005,0.005 -0.0122,0.0668 -0.0122,0.10663 1.1e-4,0.10377 0.0333,0.19186 0.12276,0.32585 0.22686,0.33977 0.43897,0.50126 0.74411,0.56651 0.0594,0.0127 0.0793,0.0146 0.17029,0.0168 0.1221,0.003 0.20088,-0.003 0.30348,-0.023 0.2151,-0.0418 0.42403,-0.10549 0.59669,-0.18194 0.10057,-0.0445 0.15656,-0.0754 0.15833,-0.0872 10e-4,-0.01 -0.0228,-0.0346 -0.0333,-0.0346 -0.003,0 -0.0176,-0.006 -0.033,-0.0126 -0.0193,-0.009 -0.0288,-0.0159 -0.0307,-0.0232 -0.003,-0.0133 0.009,-0.0382 0.0227,-0.0455 0.0301,-0.0161 0.14619,0.009 0.23571,0.0513 0.0827,0.0389 0.17899,0.12034 0.25466,0.21544 0.0378,0.0475 0.0354,0.0506 -0.0237,0.0309 -0.0462,-0.0154 -0.0779,-0.0329 -0.13022,-0.0716 -0.0479,-0.0355 -0.0586,-0.0401 -0.0926,-0.0401 -0.0338,0 -0.0538,0.008 -0.16327,0.0687 -0.3279,0.18048 -0.54242,0.26009 -0.80889,0.30016 -0.0724,0.0109 -0.27236,0.0133 -0.33757,0.004 z m 0.009,-1.01235 c 0.0936,-0.0436 0.15908,-0.19067 0.17261,-0.38752 0.007,-0.10532 0.003,-0.30602 -0.008,-0.3661 -0.0341,-0.19062 -0.09,-0.30482 -0.16897,-0.34482 -0.0344,-0.0174 -0.0899,-0.0213 -0.13801,-0.01 -0.11568,0.0281 -0.31383,0.13511 -0.44841,0.24212 -0.057,0.0453 -0.16221,0.14968 -0.21631,0.21454 -0.10619,0.12735 -0.13638,0.19051 -0.13286,0.27798 0.002,0.0602 0.0185,0.0954 0.0627,0.13669 0.0739,0.0691 0.22588,0.14714 0.36429,0.18697 0.0866,0.0249 0.21118,0.0478 0.31867,0.0584 0.009,8.8e-4 0.0509,0.002 0.0927,0.002 0.0717,5.8e-4 0.0775,4e-5 0.10134,-0.0111 z"
         id="path13777" /><path
         style="opacity:0.548711;fill:#000000;fill-opacity:1;stroke:none;stroke-width:0.000593222;stroke-dasharray:none;stroke-opacity:1"
         d="m 110.95933,243.80511 c -0.0339,-0.0358 -0.0437,-0.0566 -0.0648,-0.13638 -0.026,-0.0984 -0.0409,-0.14138 -0.0714,-0.20596 -0.0546,-0.11585 -0.1325,-0.21276 -0.22995,-0.28617 -0.0468,-0.0352 -0.12971,-0.0847 -0.16599,-0.099 -0.0211,-0.008 -0.0142,-0.0127 0.0271,-0.0172 0.0385,-0.004 0.098,0.004 0.14468,0.0199 0.12874,0.0438 0.24745,0.16145 0.32895,0.32604 0.0517,0.10433 0.0772,0.2065 0.0765,0.3067 -2.9e-4,0.0521 -0.009,0.10828 -0.0175,0.11703 -0.001,0.001 -0.0135,-0.0101 -0.0276,-0.0249 z"
         id="path13779" /><path
         style="opacity:0.548711;fill:#000000;fill-opacity:1;stroke:none;stroke-width:0.000593222;stroke-dasharray:none;stroke-opacity:1"
         d="m 108.73527,243.23347 c 0,-0.0183 0.0275,-0.10102 0.0481,-0.1444 0.0402,-0.0849 0.10315,-0.16142 0.17169,-0.20858 0.0831,-0.0572 0.22037,-0.0965 0.33712,-0.0965 l 0.0328,-10e-6 -0.0514,0.0297 c -0.12392,0.0716 -0.25901,0.17866 -0.52693,0.41761 -0.009,0.008 -0.0114,0.009 -0.0114,0.002 z"
         id="path13781" /><path
         style="opacity:0.548711;fill:#000000;fill-opacity:1;stroke:none;stroke-width:0.000593222;stroke-dasharray:none;stroke-opacity:1"
         d="m 108.48212,247.95032 c -0.0553,-0.0148 -0.0774,-0.036 -0.16878,-0.16149 -0.2521,-0.34629 -0.39384,-0.61588 -0.47118,-0.89617 -0.0163,-0.0591 -0.0459,-0.1917 -0.0539,-0.24182 -0.008,-0.0478 -0.004,-0.14282 0.007,-0.17743 0.0124,-0.0388 0.0346,-0.0853 0.0387,-0.081 0.002,0.002 0.0132,0.0359 0.0249,0.0749 0.16656,0.55903 0.38375,1.0399 0.64402,1.42588 0.0218,0.0324 0.0397,0.0603 0.0397,0.062 0,0.005 -0.0316,0.003 -0.0608,-0.005 z"
         id="path13783" /><path
         style="opacity:0.548711;fill:#000000;fill-opacity:1;stroke:none;stroke-width:0.000593222;stroke-dasharray:none;stroke-opacity:1"
         d="m 108.47959,247.9463 c -0.0507,-0.016 -0.0798,-0.0444 -0.16331,-0.15924 -0.26945,-0.37042 -0.41561,-0.65827 -0.48758,-0.96022 -0.0329,-0.13822 -0.0402,-0.18319 -0.0401,-0.24752 4e-5,-0.0337 0.003,-0.0739 0.007,-0.0892 0.008,-0.0351 0.0341,-0.0929 0.039,-0.0876 0.002,0.002 0.0144,0.0393 0.0275,0.0825 0.16403,0.54219 0.36454,0.98922 0.6177,1.37717 0.0282,0.0432 0.053,0.0813 0.0551,0.0848 0.005,0.008 -0.0273,0.008 -0.0549,-8.7e-4 z"
         id="path13785" /><path
         style="opacity:0.548711;fill:#000000;fill-opacity:1;stroke:none;stroke-width:0.000593222;stroke-dasharray:none;stroke-opacity:1"
         d="m 108.74034,243.2229 c 0,-0.015 0.0341,-0.10758 0.0544,-0.14797 0.0395,-0.0784 0.10376,-0.15256 0.17052,-0.19687 0.0675,-0.0448 0.18242,-0.0806 0.28602,-0.089 0.032,-0.003 0.0589,-0.004 0.0598,-0.003 8.8e-4,8.8e-4 -0.0254,0.0178 -0.0585,0.0375 -0.0994,0.0595 -0.23288,0.16338 -0.41364,0.32214 -0.10337,0.0908 -0.0986,0.0871 -0.0986,0.0773 z"
         id="path13787" /><path
         style="opacity:0.548711;fill:#000000;fill-opacity:1;stroke:none;stroke-width:0.000593222;stroke-dasharray:none;stroke-opacity:1"
         d="m 110.96222,243.80293 c -0.0322,-0.0345 -0.0404,-0.0525 -0.07,-0.1539 -0.0141,-0.0483 -0.0327,-0.10613 -0.0414,-0.12841 -0.0748,-0.1922 -0.20614,-0.33643 -0.3924,-0.43097 l -0.0382,-0.0194 0.017,-0.005 c 0.0222,-0.006 0.095,-8.8e-4 0.13344,0.009 0.0748,0.0196 0.16513,0.0774 0.22803,0.14589 0.044,0.0479 0.0982,0.12915 0.12871,0.1929 0.0536,0.11187 0.0728,0.19142 0.0723,0.29927 -2e-4,0.0439 -0.003,0.0793 -0.007,0.093 l -0.007,0.0221 z"
         id="path13789" /><path
         style="fill:#3a556a;stroke-width:0;stroke-dasharray:none"
         d="m 104.35665,246.0021 c -0.50053,-0.8229 -1.5734,-1.08425 -2.39631,-0.58373 -0.82291,0.50053 -1.08427,1.57339 -0.58376,2.3963 0.46126,0.75835 1.47838,1.00066 2.26821,0.64846 l 0.11092,0.18216 0.31376,-0.18747 -0.11464,-0.1885 c 0.67599,-0.53935 0.86304,-1.50885 0.40179,-2.26721 z m -0.74815,2.12604 c -0.67364,0.40973 -1.5519,0.19578 -1.96164,-0.47785 -0.40972,-0.67364 -0.19578,-1.5519 0.47787,-1.96164 0.67366,-0.40972 1.55188,-0.19576 1.96162,0.47785 0.40973,0.67366 0.19579,1.5519 -0.47785,1.96164 z"
         id="path13995"
         sodipodi:nodetypes="sssccccssssss" /><path
         style="opacity:0.5;fill:#ffffff;stroke-width:0.00981396;enable-background:new"
         d="m 102.48952,247.90334 c -0.31239,-0.51363 -0.15599,-1.17919 0.34936,-1.48655 0.11278,-0.0686 0.23348,-0.11237 0.35636,-0.13497 -0.16847,0.008 -0.33747,0.0562 -0.49195,0.14936 -0.4896,0.29777 -0.64508,0.93607 -0.3473,1.4257 0.1318,0.2168 0.33059,0.36772 0.55348,0.44314 -0.16702,-0.0895 -0.31406,-0.22286 -0.42014,-0.39729 z"
         id="path13993" /><path
         style="fill:#502d16;stroke-width:0.00744666"
         d="m 104.00751,248.28158 -0.42251,0.25696 c -0.0239,0.015 -0.0317,0.0459 -0.017,0.0699 l 0.95408,1.56862 c 0.0664,0.10916 0.57586,-0.20074 0.50948,-0.30988 l -0.95409,-1.56862 c -0.015,-0.0239 -0.0458,-0.0316 -0.0699,-0.017 z"
         id="path13997" /><path
         fill="#000000"
         d="m 102.53664,245.72827 a 0.05405666,0.05405666 0 0 0 -0.0377,0.0928 l 0.24514,0.24514 -0.0437,0.0437 -0.22112,-0.22112 a 0.05405666,0.05405666 0 0 0 -0.0388,-0.0164 0.05405666,0.05405666 0 0 0 -0.0377,0.0928 l 0.28827,0.28827 a 0.05405666,0.05405666 0 1 0 0.0764,-0.0764 l -0.029,-0.029 0.0437,-0.0437 0.0852,0.0852 v 0.84243 a 0.05405666,0.05405666 0 1 0 0.1081,0 v -0.59756 h 0.0841 v 0.59756 a 0.05405666,0.05405666 0 1 0 0.10811,0 v -0.84243 l 0.0852,-0.0852 0.0437,0.0437 -0.029,0.029 a 0.05405666,0.05405666 0 1 0 0.0764,0.0764 l 0.28827,-0.28827 a 0.05405666,0.05405666 0 0 0 -0.0393,-0.0928 0.05405666,0.05405666 0 0 0 -0.0371,0.0163 l -0.22111,0.22112 -0.0437,-0.0437 0.24514,-0.24514 a 0.05405666,0.05405666 0 0 0 -0.0393,-0.0928 0.05405666,0.05405666 0 0 0 -0.0371,0.0164 l -0.40019,0.4002 v 0.23558 h -0.0841 v -0.23558 l -0.40019,-0.40019 a 0.05405666,0.05405666 0 0 0 -0.0388,-0.0164 z"
         id="path20133-1-2"
         style="fill:#ffb380;stroke-width:0.00300281" /><path
         fill="#000000"
         d="m 101.62565,247.44642 a 0.05338371,0.05338371 0 0 1 0.0136,-0.098 l 0.33069,-0.0886 -0.0158,-0.0589 -0.29829,0.0799 a 0.05338371,0.05338371 0 0 1 -0.0413,-0.005 0.05338371,0.05338371 0 0 1 0.0136,-0.098 l 0.38888,-0.10421 a 0.05338371,0.05338371 0 1 1 0.0276,0.10313 l -0.039,0.0105 0.0158,0.0589 0.1149,-0.0308 0.41597,-0.72048 a 0.05338371,0.05338371 0 1 1 0.0924,0.0534 l -0.29506,0.51106 0.0719,0.0415 0.29505,-0.51106 a 0.05338371,0.05338371 0 1 1 0.0924,0.0534 l -0.41596,0.72048 0.0308,0.1149 0.0589,-0.0158 -0.0105,-0.0391 a 0.05338371,0.05338371 0 1 1 0.10312,-0.0276 l 0.1042,0.38888 a 0.05338371,0.05338371 0 0 1 -0.0794,0.06 0.05338371,0.05338371 0 0 1 -0.0237,-0.0324 l -0.0799,-0.29828 -0.0589,0.0158 0.0886,0.3307 a 0.05338371,0.05338371 0 0 1 -0.0794,0.0599 0.05338371,0.05338371 0 0 1 -0.0237,-0.0323 l -0.14465,-0.53986 0.11633,-0.20149 -0.0719,-0.0415 -0.11633,0.20148 -0.53987,0.14466 a 0.05338371,0.05338371 0 0 1 -0.0413,-0.005 z"
         id="path20133-61"
         style="fill:#ff8080;stroke-width:0.00296543" /><path
         fill="#000000"
         d="m 103.5096,246.66305 a 0.04939148,0.04939148 0 0 0 -0.0826,0.0396 l 0.0149,0.31642 -0.0563,0.003 -0.0134,-0.28541 a 0.04939148,0.04939148 0 0 0 -0.016,-0.0349 0.04939148,0.04939148 0 0 0 -0.0825,0.0394 l 0.0175,0.37209 a 0.04941328,0.04941328 0 1 0 0.0987,-0.005 l -0.002,-0.0374 0.0563,-0.003 0.005,0.10989 -0.51812,0.56923 a 0.04944484,0.04944484 0 1 0 0.0731,0.0666 l 0.36753,-0.40374 0.0567,0.0516 -0.36754,0.40374 a 0.04939148,0.04939148 0 1 0 0.073,0.0665 l 0.51812,-0.56924 0.10989,-0.005 0.003,0.0563 -0.0374,0.002 a 0.04941328,0.04941328 0 1 0 0.005,0.0987 l 0.37207,-0.0175 a 0.04939148,0.04939148 0 0 0 0.0306,-0.0868 0.04939148,0.04939148 0 0 0 -0.0352,-0.0118 l -0.28541,0.0134 -0.003,-0.0564 0.31643,-0.0149 a 0.04939148,0.04939148 0 0 0 0.0306,-0.0868 0.04939148,0.04939148 0 0 0 -0.0352,-0.0118 l -0.51654,0.0243 -0.14491,0.15915 -0.0567,-0.0516 0.1449,-0.15914 -0.0243,-0.51656 a 0.04939148,0.04939148 0 0 0 -0.0161,-0.0349 z"
         id="path20133-6-8"
         style="fill:#ff55dd;stroke-width:0.00274366" /></g><text
       xml:space="preserve"
       style="font-size:12.2037px;font-family:FreeSans;-inkscape-font-specification:FreeSans;fill:#000000;stroke:#090909;stroke-width:0.508485"
       x="137.1992"
       y="272.4491"
       id="text20014-7"><tspan
         sodipodi:role="line"
         x="137.1992"
         y="272.4491"
         id="tspan20016-2"
         style="font-style:normal;font-variant:normal;font-weight:normal;font-stretch:normal;font-family:FreeMono;-inkscape-font-specification:FreeMono;text-align:center;text-anchor:middle;stroke-width:0.508485">PIgLET</tspan></text></g></svg>
