<?xml version="1.0" encoding="UTF-8" standalone="no"?>
<!-- Created with Inkscape (http://www.inkscape.org/) -->

<svg
   version="1.1"
   id="svg2"
   width="574.66663"
   height="665.12494"
   viewBox="0 0 574.66663 665.12494"
   sodipodi:docname="mtscr.svg"
   inkscape:version="1.2.2 (b0a8486541, 2022-12-01)"
   xmlns:inkscape="http://www.inkscape.org/namespaces/inkscape"
   xmlns:sodipodi="http://sodipodi.sourceforge.net/DTD/sodipodi-0.dtd"
   xmlns="http://www.w3.org/2000/svg"
   xmlns:svg="http://www.w3.org/2000/svg">
  <defs
     id="defs6">
    <clipPath
       clipPathUnits="userSpaceOnUse"
       id="clipPath24">
      <path
         d="M 826.246,3865.29 80,2431.76 1790.39,1541.39 2536.64,2974.91 Z"
         id="path22" />
    </clipPath>
    <clipPath
       clipPathUnits="userSpaceOnUse"
       id="clipPath34">
      <path
         d="m 2470,3897.23 v -1045.4 h 1618.8 v 1045.4 z"
         id="path32" />
    </clipPath>
  </defs>
  <sodipodi:namedview
     id="namedview4"
     pagecolor="#ffffff"
     bordercolor="#000000"
     borderopacity="0.25"
     inkscape:showpageshadow="2"
     inkscape:pageopacity="0.0"
     inkscape:pagecheckerboard="0"
     inkscape:deskcolor="#d1d1d1"
     showgrid="false"
     inkscape:zoom="1.1475"
     inkscape:cx="260.56645"
     inkscape:cy="336.81917"
     inkscape:window-width="1920"
     inkscape:window-height="1012"
     inkscape:window-x="0"
     inkscape:window-y="0"
     inkscape:window-maximized="1"
     inkscape:current-layer="g10">
    <inkscape:page
       x="0"
       y="0"
       id="page8"
       width="574.66663"
       height="665.12494" />
  </sodipodi:namedview>
  <g
     id="g10"
     inkscape:groupmode="layer"
     inkscape:label="Page 1"
     transform="matrix(1.3333333,0,0,-1.3333333,-45.999999,665.89584)">
    <g
       id="g12"
       transform="scale(0.1)">
      <path
         d="m 395,3718.28 c 0,-812.23 0,-1624.33 0,-2436.56 C 1096.67,875.66 1798.33,469.609 2500,63.5508 3201.67,469.609 3903.33,875.66 4605,1281.72 c 0,812.23 0,1624.34 0,2436.56 C 3903.33,4124.34 3201.67,4530.39 2500,4936.45 1798.33,4530.39 1096.67,4124.34 395,3718.28"
         style="fill:#2c67ac;fill-opacity:1;fill-rule:nonzero;stroke:none"
         id="path14" />
      <path
         d="m 395,3718.28 c 0,-812.23 0,-1624.33 0,-2436.56 C 1096.67,875.66 1798.33,469.609 2500,63.5508 3201.67,469.609 3903.33,875.66 4605,1281.72 c 0,812.23 0,1624.34 0,2436.56 C 3903.33,4124.34 3201.67,4530.39 2500,4936.45 1798.33,4530.39 1096.67,4124.34 395,3718.28 Z"
         style="fill:none;stroke:#58a5df;stroke-width:100;stroke-linecap:butt;stroke-linejoin:miter;stroke-miterlimit:4;stroke-dasharray:none;stroke-opacity:1"
         id="path16" />
      <g
         id="g18">
        <g
           id="g20"
           clip-path="url(#clipPath24)">
          <path
             d="m 832.813,3844.46 c 89.195,-175.78 374.007,-185.12 371.257,-409.13 -0.63,-59.39 -29.07,-126.4 -77.03,-166.37 -19.33,-16.05 -41.62,-27.77 -66.15,-32.76 -10.88,-2.17 -22.23,-3.23 -34.1,-2.97 -147.204,2.82 -226.821,147.5 -240.423,279.23 -12.594,121.27 20.203,247.48 46.446,332 z M 1148.89,2690.94 c 112.11,22.07 211.47,62.78 296.67,124.45 l 372.58,-1080.75 c 19.52,-56.47 25.26,-98.62 -36.16,-137.68 -24.58,-8.09 -46.12,-8.02 -64.57,0.02 -18.45,8.03 -33.73,24.17 -45.97,48.47 z m -106.45,451.63 c 43.87,0.67 114.58,21.48 151.42,65.15 l 227.88,-341.11 c -93.73,-67.68 -193.2,-115.64 -302.55,-129.4 -25.22,156.23 -36.97,248.69 -76.75,405.36 v 0"
             style="fill:#ffffff;fill-opacity:1;fill-rule:evenodd;stroke:none"
             id="path26" />
        </g>
      </g>
      <g
         id="g28">
        <g
           id="g30"
           clip-path="url(#clipPath34)">
          <path
             d="M 2503.71,3890.7 H 4082.27 V 2858.37 H 2476.53 V 3890.7 Z m 180.2,-521.92 c -15.19,-1.04 -28.35,10.42 -29.4,25.61 -1.05,15.2 10.42,28.36 25.61,29.41 1.26,0.09 2.53,0.09 3.79,0 h 326.69 l 44.43,111.2 c 5.79,14.01 21.84,20.67 35.84,14.88 8.47,-3.5 14.63,-10.99 16.43,-19.97 l 67.04,-261.35 95.52,478.4 c 2.95,14.94 17.45,24.65 32.39,21.7 10.97,-2.16 19.54,-10.74 21.71,-21.7 l 78.41,-287.49 62.2,137.21 c 6.25,13.81 22.51,19.93 36.32,13.67 6.42,-2.91 11.48,-8.18 14.12,-14.71 l 66.38,-162.3 h 293.36 c 15.2,1.05 28.36,-10.42 29.41,-25.61 1.05,-15.19 -10.42,-28.36 -25.61,-29.41 -1.26,-0.08 -2.53,-0.08 -3.8,0 h -311.79 c -11.43,-0.19 -21.82,6.66 -26.13,17.25 l -49.26,120.75 -66.52,-148.32 c -6.12,-13.79 -22.25,-20 -36.04,-13.89 -7.56,3.36 -13.19,9.95 -15.31,17.94 l -68.74,250.77 -96.44,-483.5 c -3.06,-14.84 -17.58,-24.39 -32.42,-21.33 -10.25,2.12 -18.41,9.89 -21.02,20.02 l -76.58,298.59 -19.34,-48.61 c -3.62,-11.39 -14.18,-19.15 -26.13,-19.21 z m -153.15,467.69 H 4028.04 V 3050.59 H 2530.76 Z m 676.38,-850.96 h 143.74 c 15.15,-0.01 27.43,-12.31 27.41,-27.47 -0.02,-15.13 -12.28,-27.39 -27.41,-27.41 h -143.74 c -15.16,0.02 -27.43,12.32 -27.41,27.47 0.01,15.14 12.28,27.4 27.41,27.41 z m 248.28,0 h 26.13 c 15.16,-0.01 27.43,-12.31 27.41,-27.47 -0.01,-15.13 -12.27,-27.39 -27.41,-27.41 h -26.13 c -15.16,0.02 -27.43,12.32 -27.41,27.47 0.02,15.14 12.28,27.4 27.41,27.41 z m -377.78,0 h 26.13 c 15.16,-0.01 27.43,-12.31 27.41,-27.47 -0.01,-15.13 -12.28,-27.39 -27.41,-27.41 h -26.13 c -15.16,0.02 -27.43,12.32 -27.41,27.47 0.02,15.14 12.28,27.4 27.41,27.41"
             style="fill:#ffffff;fill-opacity:1;fill-rule:evenodd;stroke:none"
             id="path36" />
        </g>
      </g>
      <path
         d="m 2490,3637.24 c -280,640 -870,61.1 -1140,-471.96"
         style="fill:none;stroke:#ffffff;stroke-width:40;stroke-linecap:round;stroke-linejoin:miter;stroke-miterlimit:4;stroke-dasharray:none;stroke-opacity:1"
         id="path38" />
      <path
         d="M 4050,3175.12 C 4870,3015.28 3660,995.289 1830,1955.29"
         style="fill:none;stroke:#ffffff;stroke-width:40;stroke-linecap:round;stroke-linejoin:miter;stroke-miterlimit:4;stroke-dasharray:none;stroke-opacity:1"
         id="path40" />
      <path
         d="m 2014.29,1159.07 c 0,18.96 -1.64,37.68 -4.92,56.15 -3.29,18.47 -9.22,35.06 -17.79,49.78 -8.59,14.72 -20.58,26.46 -35.97,35.19 -15.4,8.73 -35.47,13.11 -60.2,13.11 -31.3,0 -59.43,-7.13 -84.42,-21.35 -24.99,-14.22 -45.56,-34.8 -61.71,-61.75 -5.05,23.44 -16.79,43.17 -35.21,59.14 -18.43,15.97 -44.04,23.96 -76.85,23.96 -32.82,0 -61.84,-6.88 -87.08,-20.6 -25.24,-13.73 -45.43,-33.32 -60.57,-58.77 v 73.31 h -91.62 V 914.262 h 101.46 v 229.098 c 7.57,24.14 20.32,43.62 38.24,58.41 17.91,14.78 36.72,22.18 56.41,22.18 19.18,0 34.19,-7.22 45.05,-21.64 10.85,-14.43 16.28,-37.31 16.28,-68.65 V 914.262 h 101.46 v 227.608 c 7.57,24.37 20.32,44.14 38.24,59.32 17.91,15.16 36.72,22.76 56.41,22.76 19.18,0 34.19,-7.35 45.05,-22.02 10.85,-14.67 16.28,-37.43 16.28,-68.27 V 914.262 h 101.46 z m 371.78,-144.86 c -6.06,-2.53 -14.14,-5.56 -24.23,-9.08 -10.1,-3.54 -20.44,-5.298 -31.04,-5.298 -10.6,0 -19.44,2.978 -26.5,8.958 -7.08,5.98 -10.86,15.69 -11.36,29.14 v 191.32 h 83.29 v 77.99 h -83.29 v 128.72 h -101.46 v -128.72 h -52.25 v -77.99 h 52.25 v -225.79 c 0,-22.999 4.66,-41.64 14,-55.878 9.34,-14.262 21.83,-24.633 37.48,-31.141 15.65,-6.492 32.81,-9.75 51.49,-9.75 14.13,0 28.14,1.399 42.03,4.168 13.87,2.782 26.88,6.43 38.99,10.981 12.12,4.539 22.46,8.57 31.04,12.109 z m 403.57,-74.73 c 28.77,21.86 43.15,52.168 43.15,90.93 0,23.85 -5.56,42.6 -16.65,56.27 -11.11,13.65 -27.64,25.21 -49.6,34.65 -21.96,9.44 -48.84,18.63 -80.64,27.58 -15.65,4.97 -28.9,9.44 -39.75,13.41 -10.86,3.98 -18.93,8.57 -24.23,13.79 -5.3,5.2 -7.95,12.54 -7.95,21.98 0,10.43 2.9,18.5 8.71,24.21 5.8,5.72 13.37,9.82 22.71,12.31 9.34,2.48 19.31,3.73 29.91,3.73 18.67,0 37.1,-3.67 55.28,-10.98 18.17,-7.33 37.35,-18.81 57.54,-34.45 l 40.89,64.36 c -20.71,19.68 -43.67,33.94 -68.9,42.78 -25.25,8.82 -52,13.25 -80.27,13.25 -32.3,0 -60.45,-5.25 -84.42,-15.7 -23.98,-10.46 -42.66,-25.04 -56.03,-43.73 -13.38,-18.69 -20.07,-40.98 -20.07,-66.89 0,-21.43 4.93,-39 14.77,-52.7 9.84,-13.7 24.61,-25.03 44.29,-34 19.69,-8.97 44.17,-18.19 73.45,-27.66 17.66,-4.98 32.68,-9.46 45.05,-13.45 12.36,-3.99 21.83,-8.6 28.4,-13.83 6.55,-5.23 9.84,-12.58 9.84,-22.04 0,-13.63 -5.94,-23.851 -17.79,-30.671 -11.87,-6.809 -27.64,-10.219 -47.33,-10.219 -21.2,0 -43.29,4.539 -66.25,13.629 -22.98,9.091 -46.32,23.211 -70.04,42.401 l -36.34,-65.87 c 22.2,-21.711 48.7,-38.121 79.5,-49.218 30.78,-11.102 63.09,-16.661 96.92,-16.661 48.46,0 87.07,10.918 115.85,32.789 z m 444.07,-19.539 c 23.47,8.829 43.92,21.071 61.33,36.731 17.42,15.637 30.67,33.308 39.75,52.998 l -99.19,30.29 c -4.04,-9.09 -10.35,-17.17 -18.93,-24.23 -8.59,-7.08 -18.3,-12.63 -29.15,-16.66 -10.86,-4.05 -22.34,-6.058 -34.45,-6.058 -19.19,0 -36.6,5.078 -52.25,15.228 -15.65,10.15 -28.14,24 -37.47,41.58 -9.35,17.58 -14.01,37.76 -14.01,60.54 0,23.27 4.54,43.7 13.63,61.29 9.08,17.58 21.58,31.19 37.48,40.85 15.9,9.65 33.43,14.48 52.62,14.48 17.15,0 32.81,-3.92 46.94,-11.74 14.13,-7.83 25.49,-19.06 34.08,-33.69 l 99.19,30.28 c -15.15,30.29 -38.12,54.77 -68.91,73.45 -30.79,18.67 -67.64,28.02 -110.54,28.02 -42.91,0 -80.01,-9.24 -111.31,-27.71 -31.3,-18.48 -55.4,-43.07 -72.31,-73.77 -16.92,-30.7 -25.36,-64.51 -25.36,-101.45 0,-26.96 4.92,-52.67 14.76,-77.13 9.85,-24.47 23.85,-46.31 42.03,-65.521 18.17,-19.219 40.13,-34.188 65.87,-44.93 25.74,-10.73 54.76,-16.098 87.07,-16.098 29.27,0 55.66,4.43 79.13,13.25 z m 467.55,395.629 c -2.02,0.49 -4.54,0.75 -7.57,0.75 -3.03,0 -7.32,0 -12.87,0 -24.23,-1.51 -47.21,-10.1 -68.91,-25.74 -21.71,-15.65 -39.63,-37.1 -53.76,-64.36 v 81.02 h -93.13 V 914.262 h 101.46 v 240.028 c 10.6,22.21 28.02,39.24 52.25,51.11 24.23,11.85 51.74,17.79 82.53,17.79 v 92.38"
         style="fill:#ffffff;fill-opacity:1;fill-rule:nonzero;stroke:none"
         id="path42" />
    </g>
  </g>
</svg>
