<?xml version="1.0" encoding="UTF-8" standalone="no"?>
<!-- Created with Inkscape (http://www.inkscape.org/) -->

<svg
   version="1.1"
   id="svg2"
   width="789.57861"
   height="644.948"
   viewBox="0 0 789.57861 644.948"
   sodipodi:docname="gov_pe2.svg"
   xmlns:inkscape="http://www.inkscape.org/namespaces/inkscape"
   xmlns:sodipodi="http://sodipodi.sourceforge.net/DTD/sodipodi-0.dtd"
   xmlns="http://www.w3.org/2000/svg"
   xmlns:svg="http://www.w3.org/2000/svg">
  <defs
     id="defs6">
    <clipPath
       clipPathUnits="userSpaceOnUse"
       id="clipPath50">
      <path
         d="M -1488.4506,740.8728 H 431.54937 v -1080 H -1488.4506 Z"
         id="path51"
         style="stroke-width:0.999998" />
    </clipPath>
    <clipPath
       clipPathUnits="userSpaceOnUse"
       id="clipPath51">
      <path
         d="M -1446.8213,775.8413 H 473.17867 v -1080 H -1446.8213 Z"
         id="path53"
         style="stroke-width:0.999998" />
    </clipPath>
    <clipPath
       clipPathUnits="userSpaceOnUse"
       id="clipPath53">
      <path
         d="M -1398.6322,743.276 H 521.36777 v -1080 H -1398.6322 Z"
         id="path54"
         style="stroke-width:0.999998" />
    </clipPath>
    <clipPath
       clipPathUnits="userSpaceOnUse"
       id="clipPath54">
      <path
         d="M -1371.431,740.8728 H 548.56897 v -1080 H -1371.431 Z"
         id="path55"
         style="stroke-width:0.999998" />
    </clipPath>
    <clipPath
       clipPathUnits="userSpaceOnUse"
       id="clipPath55">
      <path
         d="M -1336.3154,767.1237 H 583.68457 v -1080 H -1336.3154 Z"
         id="path57"
         style="stroke-width:0.999998" />
    </clipPath>
    <clipPath
       clipPathUnits="userSpaceOnUse"
       id="clipPath57">
      <path
         d="M -1279.6571,735.9622 H 640.34287 v -1080 H -1279.6571 Z"
         id="path58"
         style="stroke-width:0.999998" />
    </clipPath>
    <clipPath
       clipPathUnits="userSpaceOnUse"
       id="clipPath58">
      <path
         d="M -1266.1823,735.9622 H 653.81767 v -1080 H -1266.1823 Z"
         id="path59"
         style="stroke-width:0.999998" />
    </clipPath>
    <clipPath
       clipPathUnits="userSpaceOnUse"
       id="clipPath59">
      <path
         d="M -1181.2192,735.9622 H 738.78077 v -1080 H -1181.2192 Z"
         id="path61"
         style="stroke-width:0.999998" />
    </clipPath>
    <clipPath
       clipPathUnits="userSpaceOnUse"
       id="clipPath61">
      <path
         d="M -1161.0344,767.1237 H 758.96557 v -1080 H -1161.0344 Z"
         id="path62"
         style="stroke-width:0.999998" />
    </clipPath>
    <clipPath
       clipPathUnits="userSpaceOnUse"
       id="clipPath62">
      <path
         d="M -1103.478,739.6712 H 816.52197 v -1080 H -1103.478 Z"
         id="path63"
         style="stroke-width:0.999998" />
    </clipPath>
    <clipPath
       clipPathUnits="userSpaceOnUse"
       id="clipPath63">
      <path
         d="M -1065.3523,767.1237 H 854.64767 v -1080 H -1065.3523 Z"
         id="path65"
         style="stroke-width:0.999998" />
    </clipPath>
    <clipPath
       clipPathUnits="userSpaceOnUse"
       id="clipPath65">
      <path
         d="M -1025.5774,740.8728 H 894.42257 v -1080 H -1025.5774 Z"
         id="path66"
         style="stroke-width:0.999998" />
    </clipPath>
    <clipPath
       clipPathUnits="userSpaceOnUse"
       id="clipPath66">
      <path
         d="M -991.2618,740.5724 H 928.73817 v -1080 H -991.2618 Z"
         id="path67"
         style="stroke-width:0.999998" />
    </clipPath>
    <clipPath
       clipPathUnits="userSpaceOnUse"
       id="clipPath67">
      <path
         d="M -951.8884,759.9633 H 968.11157 v -1080 H -951.8884 Z"
         id="path69"
         style="stroke-width:0.999998" />
    </clipPath>
    <clipPath
       clipPathUnits="userSpaceOnUse"
       id="clipPath69">
      <path
         d="m -915.8685,735.9622 h 1920 v -1080 h -1920 z"
         id="path70"
         style="stroke-width:0.999998" />
    </clipPath>
    <clipPath
       clipPathUnits="userSpaceOnUse"
       id="clipPath70">
      <path
         d="M -1310.6582,299.4803 H 609.34177 v -1080 H -1310.6582 Z"
         id="path71"
         style="stroke-width:0.999998" />
    </clipPath>
    <clipPath
       clipPathUnits="userSpaceOnUse"
       id="clipPath71">
      <path
         d="M -1285.3514,334.7952 H 634.64857 v -1080 H -1285.3514 Z"
         id="path73"
         style="stroke-width:0.999998" />
    </clipPath>
    <clipPath
       clipPathUnits="userSpaceOnUse"
       id="clipPath73">
      <path
         d="M -1243.7844,329.3909 H 676.21557 v -1080 H -1243.7844 Z"
         id="path74"
         style="stroke-width:0.999998" />
    </clipPath>
    <clipPath
       clipPathUnits="userSpaceOnUse"
       id="clipPath74">
      <path
         d="M -1166.2583,299.4803 H 753.74167 v -1080 H -1166.2583 Z"
         id="path75"
         style="stroke-width:0.999998" />
    </clipPath>
    <clipPath
       clipPathUnits="userSpaceOnUse"
       id="clipPath75">
      <path
         d="M -1130.9481,316.2805 H 789.05187 v -1080 H -1130.9481 Z"
         id="path77"
         style="stroke-width:0.999998" />
    </clipPath>
    <clipPath
       clipPathUnits="userSpaceOnUse"
       id="clipPath77">
      <path
         d="M -1071.347,299.4803 H 848.65297 v -1080 H -1071.347 Z"
         id="path78"
         style="stroke-width:0.999998" />
    </clipPath>
    <clipPath
       clipPathUnits="userSpaceOnUse"
       id="clipPath78">
      <path
         d="M -1020.8921,299.4803 H 899.10787 v -1080 H -1020.8921 Z"
         id="path79"
         style="stroke-width:0.999998" />
    </clipPath>
    <clipPath
       clipPathUnits="userSpaceOnUse"
       id="clipPath79">
      <path
         d="M -996.4449,329.3909 H 923.55507 v -1080 H -996.4449 Z"
         id="path81"
         style="stroke-width:0.999998" />
    </clipPath>
    <clipPath
       clipPathUnits="userSpaceOnUse"
       id="clipPath81">
      <path
         d="M -945.0853,315.9063 H 974.91467 v -1080 H -945.0853 Z"
         id="path82"
         style="stroke-width:0.999998" />
    </clipPath>
    <clipPath
       clipPathUnits="userSpaceOnUse"
       id="clipPath82">
      <path
         d="M -1431.3843,684.4781 H 488.61567 v -1080 H -1431.3843 Z"
         id="path83"
         style="stroke-width:0.999998" />
    </clipPath>
    <clipPath
       clipPathUnits="userSpaceOnUse"
       id="clipPath83">
      <path
         d="M -1352.8134,665.1543 H 567.18657 v -1080 H -1352.8134 Z"
         id="path85"
         style="stroke-width:0.999998" />
    </clipPath>
    <clipPath
       clipPathUnits="userSpaceOnUse"
       id="clipPath85">
      <path
         d="M -1064.3501,596.6558 H 855.64987 v -1080 H -1064.3501 Z"
         id="path86"
         style="stroke-width:0.999998" />
    </clipPath>
    <clipPath
       clipPathUnits="userSpaceOnUse"
       id="clipPath86">
      <path
         d="M -959.2285,681.4931 H 960.77147 v -1080 H -959.2285 Z"
         id="path87"
         style="stroke-width:0.999998" />
    </clipPath>
    <clipPath
       clipPathUnits="userSpaceOnUse"
       id="clipPath87">
      <path
         d="M -1227.645,476.5488 H 692.35497 v -1080 H -1227.645 Z"
         id="path89"
         style="stroke-width:0.999998" />
    </clipPath>
    <clipPath
       clipPathUnits="userSpaceOnUse"
       id="clipPath89">
      <path
         d="M -1155.0502,510.4843 H 764.94977 v -1080 H -1155.0502 Z"
         id="path90"
         style="stroke-width:0.999998" />
    </clipPath>
    <clipPath
       clipPathUnits="userSpaceOnUse"
       id="clipPath90">
      <path
         d="m -915.8685,476.5488 h 1920 v -1080 h -1920 z"
         id="path91"
         style="stroke-width:0.999998" />
    </clipPath>
    <clipPath
       clipPathUnits="userSpaceOnUse"
       id="clipPath91">
      <path
         d="M -1238.7876,407.1528 H 681.21237 v -1080 H -1238.7876 Z"
         id="path93"
         style="stroke-width:0.999998" />
    </clipPath>
    <clipPath
       clipPathUnits="userSpaceOnUse"
       id="clipPath93">
      <path
         d="M -1058.3668,357.8198 H 861.63317 v -1080 H -1058.3668 Z"
         id="path94"
         style="stroke-width:0.999998" />
    </clipPath>
    <clipPath
       clipPathUnits="userSpaceOnUse"
       id="clipPath94">
      <path
         d="M -960.1726,407.7803 H 959.82737 v -1080 H -960.1726 Z"
         id="path95"
         style="stroke-width:0.999998" />
    </clipPath>
  </defs>
  <sodipodi:namedview
     id="namedview4"
     pagecolor="#ffffff"
     bordercolor="#000000"
     borderopacity="0.25"
     inkscape:showpageshadow="2"
     inkscape:pageopacity="0.0"
     inkscape:pagecheckerboard="0"
     inkscape:deskcolor="#d1d1d1">
    <inkscape:page
       x="0"
       y="0"
       width="789.57861"
       height="644.948"
       id="page2"
       margin="0"
       bleed="0" />
  </sodipodi:namedview>
  <g
     id="g8"
     inkscape:groupmode="layer"
     inkscape:label="GovPECMYK"
     transform="matrix(1.3333333,0,0,-1.3333333,-1221.1577,1042.4742)">
    <g
       id="g18"
       transform="translate(960.1726,672.2197)"
       clip-path="url(#clipPath94)">
      <path
         d="m 0,0 h 33.956 c 11.313,0 15.397,3.457 15.397,11.627 0,8.641 -4.084,11.94 -15.397,11.94 H 0 Z m -44.304,49.736 98.424,0.225 c 31.421,0 41.423,-14.14 41.423,-39.12 0,-21.523 -11.313,-38.179 -42.734,-38.179 H 0 v -34.877 l -44.304,-0.224 z"
         style="fill:#00529c;fill-opacity:1;fill-rule:nonzero;stroke:none"
         id="path20" />
    </g>
    <g
       id="g22"
       transform="translate(1058.3668,722.1802)"
       clip-path="url(#clipPath93)">
      <path
         d="M 0,0 H 132.268 V -27.338 H 42.521 v -15.081 h 84.406 V -69.756 H 42.521 v -15.081 h 89.747 v -27.338 H 0 Z"
         style="fill:#0089d0;fill-opacity:1;fill-rule:nonzero;stroke:none"
         id="path24" />
    </g>
    <g
       id="g26"
       transform="translate(1238.7876,672.8472)"
       clip-path="url(#clipPath91)">
      <path
         d="m 0,0 h 31.421 c 8.798,0 12.254,3.457 12.254,10.527 0,8.641 -5.498,10.527 -12.883,10.527 H 0 Z m -44.304,49.333 h 93.322 c 12.725,0 20.423,-1.1 26.55,-4.085 8.327,-4.243 15.239,-14.77 15.239,-27.179 0,-10.686 -4.241,-21.84 -17.281,-25.611 v -0.314 c 6.756,-1.885 11.94,-7.383 12.726,-17.28 l 1.884,-24.508 c 0.472,-5.029 2.515,-9.586 5.5,-13.198 H 45.247 c -1.729,3.299 -1.572,8.169 -2.356,21.209 -0.472,8.328 -3.301,13.354 -11.47,13.354 H 0 v -34.563 h -44.304 z"
         style="fill:#009fdb;fill-opacity:1;fill-rule:nonzero;stroke:none"
         id="path28" />
    </g>
    <g
       id="g30"
       transform="translate(915.8685,603.4512)"
       clip-path="url(#clipPath90)">
      <path
         d="m 0,0 h 78.443 l 44.933,-62.215 h 0.471 V 0 h 42.419 V -112.175 H 117.72 l -47.132,62.842 h -0.314 v -62.842 H 0 Z"
         style="fill:#4eb5be;fill-opacity:1;fill-rule:nonzero;stroke:none"
         id="path32" />
    </g>
    <g
       id="g34"
       transform="translate(1155.0502,569.5157)"
       clip-path="url(#clipPath89)">
      <path
         d="M 0,0 H -0.315 L -13.512,-38.02 H 13.197 Z M -27.338,33.935 H 27.021 L 74.782,-78.24 H 27.65 l -4.714,12.882 h -46.189 l -4.712,-12.882 h -47.133 z"
         style="fill:#3faa72;fill-opacity:1;fill-rule:nonzero;stroke:none"
         id="path36" />
    </g>
    <g
       id="g38"
       transform="translate(1227.645,603.4512)"
       clip-path="url(#clipPath87)">
      <path
         d="m 0,0 h 62.372 l 18.381,-65.2 h 0.313 L 99.449,0 h 62.371 v -112.175 h -40.219 v 80.125 h -0.315 L 97.72,-112.175 H 64.1 L 40.533,-32.05 h -0.314 v -80.125 H 0 Z"
         style="fill:#8cc63f;fill-opacity:1;fill-rule:nonzero;stroke:none"
         id="path40" />
    </g>
    <g
       id="g42"
       transform="translate(959.2285,398.5069)"
       clip-path="url(#clipPath86)">
      <path
         d="m 0,0 h 42.164 c 8.797,0 11.468,3.768 11.468,8.797 0,4.87 -2.671,8.797 -11.468,8.797 H 0 Z m 0,43.046 h 37.766 c 8.955,0 10.996,2.985 10.996,7.384 0,4.243 -2.041,7.069 -10.996,7.069 H 0 Z M -43.36,84.837 H 61.802 c 23.095,0 33.149,-9.899 33.149,-27.965 0,-10.055 -4.712,-18.538 -13.353,-21.837 v -0.317 c 14.453,-3.771 19.165,-17.28 19.165,-25.607 0,-21.996 -10.996,-36.449 -43.832,-36.449 H -43.36 Z"
         style="fill:#ffc20d;fill-opacity:1;fill-rule:nonzero;stroke:none"
         id="path44" />
    </g>
    <g
       id="g46"
       transform="translate(1064.3501,483.3442)"
       clip-path="url(#clipPath85)">
      <path
         d="m 0,0 h 43.786 v -67.871 c 0,-14.453 8.23,-19.01 22.514,-19.01 14.284,0 22.514,4.557 22.514,19.01 V 0 H 132.6 v -69.598 c 0,-35.666 -21.271,-46.503 -66.3,-46.503 -45.029,0 -66.3,10.837 -66.3,46.503 z"
         style="fill:#faa619;fill-opacity:1;fill-rule:nonzero;stroke:none"
         id="path48" />
    </g>
    <g
       id="g50"
       transform="translate(1352.8134,414.8457)"
       clip-path="url(#clipPath83)">
      <path
         d="m 0,0 c -2.985,-14.925 -7.697,-26.71 -18.852,-34.88 -10.841,-8.169 -27.81,-12.723 -54.831,-12.723 -26.866,0 -76.668,1.727 -76.668,60.013 0,58.129 49.802,60.015 76.668,60.015 26.552,0 68.027,-3.299 73.683,-47.917 h -49.961 c -1.255,8.011 -6.597,19.638 -23.722,19.638 -18.224,0 -29.537,-8.955 -29.537,-31.736 0,-22.779 10.999,-31.734 27.338,-31.734 13.981,0 22.309,5.654 25.921,19.324 z"
         style="fill:#f5821f;fill-opacity:1;fill-rule:nonzero;stroke:none"
         id="path52" />
    </g>
    <g
       id="g54"
       transform="translate(1431.3843,395.5219)"
       clip-path="url(#clipPath82)">
      <path
         d="M 0,0 C 18.224,0 29.537,8.955 29.537,31.733 29.537,54.514 18.224,63.47 0,63.47 -18.224,63.47 -29.537,54.514 -29.537,31.733 -29.537,8.955 -18.224,0 0,0 m 0,91.749 c 26.866,0 76.668,-1.886 76.668,-60.016 0,-58.13 -49.802,-60.012 -76.668,-60.012 -26.866,0 -76.668,1.727 -76.668,60.012 0,58.13 49.802,60.016 76.668,60.016"
         style="fill:#dd1a21;fill-opacity:1;fill-rule:nonzero;stroke:none"
         id="path56" />
    </g>
    <g
       id="g58"
       transform="translate(945.0853,764.0937)"
       clip-path="url(#clipPath81)">
      <path
         d="m 0,0 h 21.456 v -21.778 h -6.475 l -1.712,3.476 c -3.905,-3.476 -8.776,-4.812 -17.496,-4.812 -10.596,0 -24.99,2.619 -24.99,20.277 0,16.748 13.378,20.599 24.935,20.599 16.803,0 24.829,-4.599 25.951,-14.446 H 4.654 C 4.225,5.295 3.157,6.527 1.712,7.223 c -1.444,0.696 -3.157,0.91 -5.136,0.91 -6.208,0 -10.061,-3.051 -10.061,-10.809 0,-7.114 3.692,-10.809 11.238,-10.809 4.921,0 7.384,1.871 8.452,4.817 H 0 Z"
         style="fill:#002e6e;fill-opacity:1;fill-rule:nonzero;stroke:none"
         id="path60" />
    </g>
    <g
       id="g62"
       transform="translate(996.4449,750.6091)"
       clip-path="url(#clipPath79)">
      <path
         d="m 0,0 c 6.207,0 10.06,3.05 10.06,10.809 0,7.758 -3.853,10.808 -10.06,10.808 -6.207,0 -10.058,-3.05 -10.058,-10.808 C -10.058,3.05 -6.207,0 0,0 m 0,31.246 c 9.151,0 26.112,-0.639 26.112,-20.437 C 26.112,-8.99 9.151,-9.629 0,-9.629 c -9.148,0 -26.112,0.587 -26.112,20.438 0,19.798 16.964,20.437 26.112,20.437"
         style="fill:#002e6e;fill-opacity:1;fill-rule:nonzero;stroke:none"
         id="path64" />
    </g>
    <g
       id="g66"
       transform="translate(1020.8921,780.5197)"
       clip-path="url(#clipPath78)">
      <path
         d="m 0,0 h 16.587 l 8.4,-24.506 h 0.109 L 33.496,0 H 50.083 L 32.961,-38.204 H 17.122 Z"
         style="fill:#002e6e;fill-opacity:1;fill-rule:nonzero;stroke:none"
         id="path68" />
    </g>
    <g
       id="g70"
       transform="translate(1071.347,780.5197)"
       clip-path="url(#clipPath77)">
      <path
         d="M 0,0 H 40.613 V -9.312 H 15.088 v -5.134 h 23.704 v -9.312 H 15.088 v -5.134 h 25.525 v -9.312 H 0 Z"
         style="fill:#002e6e;fill-opacity:1;fill-rule:nonzero;stroke:none"
         id="path72" />
    </g>
    <g
       id="g74"
       transform="translate(1130.9481,763.7195)"
       clip-path="url(#clipPath75)">
      <path
         d="m 0,0 h 10.702 c 2.996,0 4.173,1.175 4.173,3.586 0,2.941 -1.871,3.585 -4.386,3.585 L 0,7.171 Z m -15.088,16.8 h 31.784 c 4.334,0 6.955,-0.374 9.042,-1.392 2.835,-1.445 5.191,-5.03 5.191,-9.255 0,-3.638 -1.445,-7.437 -5.887,-8.72 v -0.109 c 2.302,-0.644 4.066,-2.515 4.333,-5.887 l 0.645,-8.346 c 0.158,-1.715 0.855,-3.264 1.871,-4.495 H 15.41 c -0.587,1.123 -0.535,2.78 -0.803,7.223 -0.159,2.837 -1.122,4.547 -3.905,4.547 H 0 v -11.77 h -15.088 z"
         style="fill:#002e6e;fill-opacity:1;fill-rule:nonzero;stroke:none"
         id="path76" />
    </g>
    <g
       id="g78"
       transform="translate(1166.2583,780.5197)"
       clip-path="url(#clipPath74)">
      <path
         d="m 0,0 h 17.229 l 15.303,-21.191 h 0.161 V 0 H 47.139 V -38.204 H 30.607 L 14.553,-16.8 H 14.446 V -38.204 H 0 Z"
         style="fill:#002e6e;fill-opacity:1;fill-rule:nonzero;stroke:none"
         id="path80" />
    </g>
    <g
       id="g82"
       transform="translate(1243.7844,750.6091)"
       clip-path="url(#clipPath73)">
      <path
         d="m 0,0 c 6.207,0 10.06,3.05 10.06,10.809 0,7.758 -3.853,10.808 -10.06,10.808 -6.207,0 -10.058,-3.05 -10.058,-10.808 C -10.058,3.05 -6.207,0 0,0 m 0,31.246 c 9.151,0 26.112,-0.639 26.112,-20.437 C 26.112,-8.99 9.151,-9.629 0,-9.629 c -9.148,0 -26.112,0.587 -26.112,20.438 0,19.798 16.964,20.437 26.112,20.437"
         style="fill:#002e6e;fill-opacity:1;fill-rule:nonzero;stroke:none"
         id="path84" />
    </g>
    <g
       id="g86"
       transform="translate(1285.3514,745.2048)"
       clip-path="url(#clipPath71)">
      <path
         d="m 0,0 h 5.565 c 7.491,0 10.648,3.747 10.648,16.161 0,12.57 -3.157,16.265 -10.648,16.265 H 0 Z m -3.424,35.315 h 9.202 c 11.131,0 13.859,-6.636 13.859,-19.102 0,-12.466 -2.728,-19.102 -13.859,-19.102 h -9.202 z"
         style="fill:#002e6e;fill-opacity:1;fill-rule:nonzero;stroke:none"
         id="path88" />
    </g>
    <g
       id="g90"
       transform="translate(1310.6582,780.5197)"
       clip-path="url(#clipPath70)">
      <path
         d="M 0,0 H 18.941 V -2.889 H 3.425 V -16.8 h 14.5 v -2.889 h -14.5 v -15.626 h 15.999 v -2.889 H 0 Z"
         style="fill:#002e6e;fill-opacity:1;fill-rule:nonzero;stroke:none"
         id="path92" />
    </g>
    <g
       id="g94"
       transform="translate(915.8685,344.0378)"
       clip-path="url(#clipPath69)">
      <path
         d="M 0,0 H 28.758 V -4.61 H 5.312 v -10.373 h 22.744 v -4.604 H 5.312 v -11.574 h 23.946 v -4.611 H 0 Z"
         style="fill:#002e6e;fill-opacity:1;fill-rule:nonzero;stroke:none"
         id="path96" />
    </g>
    <g
       id="g98"
       transform="translate(951.8884,320.0367)"
       clip-path="url(#clipPath67)">
      <path
         d="m 0,0 c 0.15,-6.413 6.063,-8.062 11.522,-8.062 5.613,0 9.668,2.201 9.668,6.063 0,3.256 -2.504,4.555 -6.661,5.309 L 6.413,4.659 c -4.258,0.656 -10.622,2.409 -10.622,9.374 0,6.559 5.159,10.869 14.327,10.869 7.216,0 14.68,-2.605 15.232,-11.225 h -5.312 c -0.399,2.759 -2.054,6.615 -10.618,6.615 -3.86,0 -8.316,-1.655 -8.316,-5.861 0,-2.207 1.449,-3.96 5.86,-4.708 l 8.767,-1.502 c 2.805,-0.552 10.771,-1.808 10.771,-9.171 0,-9.067 -8.166,-11.722 -15.381,-11.722 -8.065,0 -16.43,2.857 -16.43,12.672 z"
         style="fill:#002e6e;fill-opacity:1;fill-rule:nonzero;stroke:none"
         id="path100" />
    </g>
    <g
       id="g102"
       transform="translate(991.2618,339.4276)"
       clip-path="url(#clipPath66)">
      <path
         d="M 0,0 H -13.527 V 4.61 H 18.836 V 0 H 5.312 V -31.161 H 0 Z"
         style="fill:#002e6e;fill-opacity:1;fill-rule:nonzero;stroke:none"
         id="path104" />
    </g>
    <g
       id="g106"
       transform="translate(1025.5774,339.1272)"
       clip-path="url(#clipPath65)">
      <path
         d="M 0,0 -6.713,-15.829 H 6.863 Z M 8.816,-20.439 H -8.718 l -4.558,-10.422 h -5.71 L -2.805,4.911 h 6.06 l 16.182,-35.772 h -6.06 z"
         style="fill:#002e6e;fill-opacity:1;fill-rule:nonzero;stroke:none"
         id="path108" />
    </g>
    <g
       id="g110"
       transform="translate(1065.3523,312.8763)"
       clip-path="url(#clipPath63)">
      <path
         d="m 0,0 c 8.718,0 10.272,7.314 10.272,13.677 0,6.259 -2.054,12.874 -11.274,12.874 H -12.874 V 0 Z m -18.186,31.161 h 18.137 c 10.719,0 15.63,-7.013 15.63,-17.386 0,-9.968 -4.359,-18.385 -15.33,-18.385 h -18.437 z"
         style="fill:#002e6e;fill-opacity:1;fill-rule:nonzero;stroke:none"
         id="path112" />
    </g>
    <g
       id="g114"
       transform="translate(1103.478,340.3288)"
       clip-path="url(#clipPath62)">
      <path
         d="m 0,0 c -8.166,0 -14.578,-4.708 -14.578,-14.18 0,-9.465 6.412,-14.174 14.578,-14.174 8.166,0 14.578,4.709 14.578,14.174 C 14.578,-4.708 8.166,0 0,0 m 0,4.61 c 14.428,0 19.887,-9.619 19.887,-18.79 0,-9.165 -5.459,-18.784 -19.887,-18.784 -14.428,0 -19.891,9.619 -19.891,18.784 0,9.171 5.463,18.79 19.891,18.79"
         style="fill:#002e6e;fill-opacity:1;fill-rule:nonzero;stroke:none"
         id="path116" />
    </g>
    <g
       id="g118"
       transform="translate(1161.0344,312.8763)"
       clip-path="url(#clipPath61)">
      <path
         d="m 0,0 c 8.718,0 10.272,7.314 10.272,13.677 0,6.259 -2.054,12.874 -11.274,12.874 H -12.874 V 0 Z m -18.186,31.161 h 18.137 c 10.719,0 15.63,-7.013 15.63,-17.386 0,-9.968 -4.359,-18.385 -15.33,-18.385 h -18.437 z"
         style="fill:#002e6e;fill-opacity:1;fill-rule:nonzero;stroke:none"
         id="path120" />
    </g>
    <g
       id="g122"
       transform="translate(1181.2192,344.0378)"
       clip-path="url(#clipPath59)">
      <path
         d="M 0,0 H 28.758 V -4.61 H 5.312 v -10.373 h 22.744 v -4.604 H 5.312 v -11.574 h 23.946 v -4.611 H 0 Z"
         style="fill:#002e6e;fill-opacity:1;fill-rule:nonzero;stroke:none"
         id="path124" />
    </g>
    <g
       id="g126"
       transform="translate(1266.1823,344.0378)"
       clip-path="url(#clipPath58)">
      <path
         d="M 0,0 H 7.366 V -35.772 H 2.054 v 29.66 H 1.956 l -13.929,-29.66 h -4.708 l -13.877,29.059 h -0.101 v -29.059 h -5.312 V 0 h 7.467 l 14.177,-29.659 z"
         style="fill:#002e6e;fill-opacity:1;fill-rule:nonzero;stroke:none"
         id="path128" />
    </g>
    <g
       id="g130"
       transform="translate(1279.6571,344.0378)"
       clip-path="url(#clipPath57)">
      <path
         d="m 0,0 h 5.309 v -22.898 c 0,-6.461 4.31,-9.165 10.873,-9.165 6.562,0 10.869,2.704 10.869,9.165 V 0 h 5.312 v -22.248 c 0,-9.618 -5.41,-14.425 -16.181,-14.425 C 5.41,-36.673 0,-31.866 0,-22.248 Z"
         style="fill:#002e6e;fill-opacity:1;fill-rule:nonzero;stroke:none"
         id="path132" />
    </g>
    <g
       id="g134"
       transform="translate(1336.3154,312.8763)"
       clip-path="url(#clipPath55)">
      <path
         d="m 0,0 c 8.718,0 10.272,7.314 10.272,13.677 0,6.259 -2.054,12.874 -11.274,12.874 H -12.874 V 0 Z m -18.186,31.161 h 18.137 c 10.719,0 15.63,-7.013 15.63,-17.386 0,-9.968 -4.359,-18.385 -15.33,-18.385 h -18.437 z"
         style="fill:#002e6e;fill-opacity:1;fill-rule:nonzero;stroke:none"
         id="path136" />
    </g>
    <g
       id="g138"
       transform="translate(1371.431,339.1272)"
       clip-path="url(#clipPath54)">
      <path
         d="M 0,0 -6.713,-15.829 H 6.863 Z M 8.816,-20.439 H -8.718 l -4.558,-10.422 h -5.71 L -2.805,4.911 h 6.06 l 16.182,-35.772 h -6.06 z"
         style="fill:#002e6e;fill-opacity:1;fill-rule:nonzero;stroke:none"
         id="path140" />
    </g>
    <g
       id="g142"
       transform="translate(1398.6322,336.724)"
       clip-path="url(#clipPath53)">
      <path
         d="M 0,0 H -0.101 V -28.458 H -5.41 V 7.314 h 6.161 l 22.996,-28.458 h 0.101 V 7.314 h 5.309 v -35.772 h -6.161 z"
         style="fill:#002e6e;fill-opacity:1;fill-rule:nonzero;stroke:none"
         id="path144" />
    </g>
    <g
       id="g146"
       transform="translate(1446.8213,304.1587)"
       clip-path="url(#clipPath51)">
      <path
         d="m 0,0 2.005,3.304 c -1.554,0.154 -3.056,0.454 -4.558,0.902 -6.514,1.955 -12.025,7.516 -12.025,17.888 0,10.416 6.513,18.686 18.738,18.686 7.212,0 16.981,-3.108 17.934,-13.775 h -5.312 c -0.8,5.009 -4.708,9.165 -12.224,9.165 -8.414,0 -13.824,-4.806 -13.824,-14.627 0,-6.762 3.657,-13.727 13.524,-13.727 6.262,0 10.973,2.955 12.524,9.969 h 5.312 C 21.494,11.82 17.435,6.664 11.173,4.359 9.119,3.605 6.915,3.255 4.509,3.206 L 3.356,1.3 c 0.552,0.153 1.052,0.202 1.705,0.202 2.354,0 4.457,-0.999 4.457,-3.255 0,-3.109 -3.155,-4.261 -6.011,-4.261 -1.653,0 -3.507,0.251 -5.309,0.705 l 0.649,2.354 c 0.853,-0.349 2.505,-0.65 3.758,-0.65 1.404,0 2.707,0.546 2.707,1.551 0,0.65 -0.552,1.453 -2.106,1.453 -0.751,0 -1.554,-0.153 -2.305,-0.349 z"
         style="fill:#002e6e;fill-opacity:1;fill-rule:nonzero;stroke:none"
         id="path148" />
    </g>
    <g
       id="g150"
       transform="translate(1488.4506,339.1272)"
       clip-path="url(#clipPath50)">
      <path
         d="M 0,0 -6.713,-15.829 H 6.863 Z M 8.816,-20.439 H -8.718 l -4.558,-10.422 h -5.71 L -2.805,4.911 h 6.06 l 16.182,-35.772 h -6.06 z"
         style="fill:#002e6e;fill-opacity:1;fill-rule:nonzero;stroke:none"
         id="path152" />
    </g>
  </g>
</svg>
