<svg width="1166" height="856" viewBox="0 0 1166 856" fill="none" xmlns="http://www.w3.org/2000/svg">
<path d="M649.29 283.837C810.645 283.837 972 283.837 1138.24 283.837C1138.24 422.2 1138.24 560.563 1138.24 703.118C1087.74 703.118 1037.24 703.118 985.213 703.118C984.802 647.28 984.392 591.443 983.969 533.913C980.274 546.641 976.578 559.368 972.771 572.482C967.717 588.967 967.717 588.967 965.267 596.869C959.064 616.944 953.228 637.131 947.374 657.31C944.417 667.469 941.343 677.591 938.209 687.696C937.865 688.813 937.521 689.93 937.167 691.08C936.864 692.056 936.561 693.033 936.249 694.038C935.411 697.026 934.811 700.076 934.202 703.118C907.926 703.118 881.649 703.118 854.576 703.118C848.985 689.139 848.985 689.139 847.602 683.97C847.283 682.8 846.964 681.629 846.636 680.424C846.305 679.188 845.974 677.953 845.634 676.68C842.39 664.838 838.993 653.054 835.447 641.299C834.976 639.737 834.505 638.174 834.02 636.564C833.059 633.378 832.096 630.193 831.133 627.008C824.313 604.461 817.572 581.894 811.038 559.263C810.603 557.755 810.167 556.247 809.718 554.694C809.34 553.381 808.962 552.068 808.572 550.715C806.933 545.105 805.245 539.51 803.566 533.913C803.155 589.751 802.745 645.588 802.322 703.118C751.821 703.118 701.321 703.118 649.29 703.118C649.29 564.755 649.29 426.393 649.29 283.837Z" fill="white"/>
<path d="M2.32775 285.081C31.8438 284.906 61.3597 284.775 90.8762 284.695C104.584 284.656 118.292 284.604 131.999 284.518C143.96 284.443 155.921 284.395 167.882 284.379C174.203 284.369 180.524 284.347 186.845 284.292C229.604 283.935 267.655 287.039 300.459 317.585C320.972 339.051 327.936 365.832 327.447 394.835C327.073 404.393 325.153 412.881 322.076 421.939C321.64 423.233 321.204 424.527 320.755 425.861C313.255 445.676 299.741 462.079 283.508 475.438C287.621 478.79 291.825 481.899 296.182 484.924C318.439 501.184 335.266 526.073 339.84 553.563C342.448 573.235 343.29 595.758 337.006 614.783C336.554 616.164 336.102 617.545 335.636 618.968C330.376 633.678 322.866 644.601 312.123 655.841C311.464 656.593 310.805 657.345 310.126 658.12C278.907 692.388 223.45 699.175 180.148 701.584C176.508 701.816 176.508 701.816 172.946 702.506C165.843 703.53 158.668 703.281 151.508 703.26C149.881 703.26 148.253 703.26 146.577 703.26C142.135 703.261 137.694 703.253 133.253 703.245C128.603 703.237 123.954 703.236 119.305 703.235C110.51 703.231 101.715 703.221 92.9206 703.208C82.9042 703.194 72.8877 703.187 62.8713 703.181C42.2754 703.168 21.6795 703.146 1.08359 703.119C0.881724 688.324 0.727013 673.529 0.632351 658.733C0.586915 651.863 0.525296 644.993 0.426578 638.123C0.331891 631.492 0.279862 624.861 0.257293 618.23C0.241211 615.701 0.209805 613.172 0.162774 610.643C0.0994602 607.098 0.0908486 603.556 0.0948838 600.011C0.0635721 598.967 0.0322605 597.924 0 596.849C0.0528983 592.548 0.116184 589.777 2.99512 586.442C5.33318 584.473 5.33318 584.473 7.66178 582.83C11.1622 580.138 12.6564 576.637 14.5361 572.715C14.8994 571.96 15.2628 571.204 15.6371 570.426C18.3749 564.538 19.9981 558.968 20.9901 552.575C24.3707 553.036 25.7818 553.634 28.2267 556.084C38.8753 570.14 41.2016 583.246 39.0304 600.709C38.8251 602.069 38.6199 603.429 38.4083 604.83C47.2318 595.418 52.2924 586.487 52.2156 573.352C52.2116 572.137 52.2076 570.922 52.2034 569.67C52.193 568.417 52.1826 567.164 52.1718 565.872C52.1662 564.595 52.1606 563.317 52.1548 562.001C52.1402 558.859 52.1198 555.717 52.0941 552.575C61.5745 553.69 68.2427 558.329 74.5618 565.391C80.9466 574 86.1774 583.936 85.6864 594.877C86.5075 594.877 87.3287 594.877 88.1747 594.877C91.8678 579.972 92.645 565.388 85.0205 551.613C83.7025 549.438 82.3538 547.281 80.9673 545.149C79.4656 542.622 79.4656 542.622 79.4656 540.134C93.3553 539.167 104.535 542.196 115.361 551.147C120.279 556.064 124.153 561.727 127.988 567.505C128.704 554.614 125.095 543.861 116.79 533.913C112.131 529.285 107.326 525.115 101.86 521.471C103.105 517.739 103.105 517.739 106.993 515.639C121.753 510.781 134.203 514.046 147.564 520.567C151.627 522.716 151.627 522.716 155.359 525.204C153.121 515.503 146.822 507.839 138.563 502.498C130.551 498.058 121.792 495.488 113.058 492.856C116.5 484.725 125.094 480.005 132.964 476.682C138.128 475.361 143.043 475.271 148.361 475.282C149.936 475.279 151.511 475.276 153.133 475.272C157.735 475.434 162.021 475.943 166.557 476.682C155.041 465.886 143.198 461.259 127.375 461.582C122.568 461.844 117.832 462.38 113.058 462.996C114.539 453.537 119.567 445.683 126.899 439.59C135.475 433.438 145.413 430.172 155.359 426.915C141.141 422.381 128.324 421.873 114.501 428.009C110.902 429.877 107.668 432.057 104.349 434.38C103.528 434.38 102.706 434.38 101.86 434.38C100.61 420.019 104.108 411.027 112.047 399.233C117.287 394.109 123.21 390.014 129.232 385.858C117.276 384.938 105.946 388.553 96.6457 396.171C93.3959 399.245 90.4761 402.54 87.6061 405.969C85.4454 408.54 83.1317 410.905 80.7097 413.23C74.3806 402.804 74.3508 391.664 76.3212 379.841C78.4034 371.936 82.4676 365.275 86.9305 358.487C74.4545 362.999 66.463 370.186 60.1082 381.849C57.3682 387.975 55.8076 394.207 54.5824 400.788C51.2018 400.327 49.7908 399.729 47.3459 397.279C36.3596 382.778 34.2862 369.302 36.5421 351.255C36.7474 349.946 36.9527 348.638 37.1642 347.289C24.3772 363.335 20.7267 375.843 22.8564 396.122C23.1643 398.432 23.1643 398.432 23.4784 400.788C15.0623 400.356 8.15642 395.419 2.32775 389.591C2.09385 386.255 2.01444 383.05 2.04526 379.715C2.0449 378.695 2.04453 377.675 2.04416 376.624C2.0459 373.245 2.06527 369.866 2.08475 366.486C2.08939 364.147 2.09293 361.807 2.09542 359.467C2.10493 353.303 2.12938 347.138 2.15689 340.973C2.18232 334.685 2.1937 328.397 2.20625 322.11C2.23295 309.767 2.27544 297.424 2.32775 285.081Z" fill="white"/>
<path d="M341.983 285.081C431.898 285.081 521.814 285.081 614.454 285.081C614.454 324.907 614.454 364.732 614.454 405.764C575.039 405.764 535.624 405.764 495.014 405.764C495.014 417.26 495.014 428.756 495.014 440.601C531.145 440.601 567.275 440.601 604.5 440.601C604.5 474.268 604.5 507.935 604.5 542.622C568.37 542.622 532.24 542.622 495.014 542.622C495.014 555.35 495.014 568.077 495.014 581.191C536.482 581.191 577.95 581.191 620.674 581.191C620.674 621.427 620.674 661.663 620.674 703.118C528.706 703.118 436.738 703.118 341.983 703.118C341.983 565.166 341.983 427.214 341.983 285.081Z" fill="white"/>
<path d="M2.32764 6.38965C38.0474 6.38965 73.7672 6.38965 110.569 6.38965C130.947 75.6742 130.947 75.6742 134.208 90.9924C135.03 90.9924 135.851 90.9924 136.697 90.9924C136.839 90.2206 136.982 89.4488 137.129 88.6535C138.497 81.5067 140.212 74.6086 142.373 67.6644C143.032 65.5133 143.689 63.3619 144.346 61.2104C144.708 60.03 145.07 58.8496 145.444 57.6334C146.814 53.1289 148.158 48.6168 149.498 44.1032C150.245 41.5907 150.993 39.0782 151.741 36.5658C152.23 34.9195 152.719 33.2729 153.206 31.6259C153.899 29.2846 154.598 26.9447 155.296 24.6049C155.899 22.5751 155.899 22.5751 156.514 20.5043C158.039 15.7439 159.825 11.0701 161.58 6.38965C196.889 6.38965 232.198 6.38965 268.578 6.38965C268.578 81.5244 268.578 156.659 268.578 234.071C241.069 234.071 213.561 234.071 185.219 234.071C184.808 204.509 184.398 174.948 183.975 144.491C178.344 164.198 178.344 164.198 172.756 183.916C169.218 196.41 165.581 208.862 161.658 221.24C161.291 222.4 160.925 223.561 160.547 224.756C160.21 225.808 159.872 226.859 159.524 227.942C159.229 228.861 158.934 229.779 158.63 230.725C157.847 232.826 157.847 232.826 156.603 234.071C153.376 234.181 150.183 234.214 146.956 234.192C145.991 234.19 145.027 234.189 144.033 234.187C140.939 234.18 137.846 234.164 134.753 234.148C132.661 234.142 130.568 234.136 128.476 234.131C123.337 234.118 118.197 234.096 113.058 234.071C112.72 232.882 112.382 231.693 112.034 230.468C104.398 203.498 104.398 203.498 96.4949 176.606C96.2397 175.756 95.9845 174.907 95.7215 174.031C92.8585 164.579 89.8765 155.163 86.9304 145.735C86.5198 174.886 86.1093 204.037 85.6863 234.071C58.1779 234.071 30.6696 234.071 2.32764 234.071C2.32764 158.936 2.32764 83.8012 2.32764 6.38965Z" fill="white"/>
<path d="M964.062 6.38964C983.565 6.287 1003.07 6.18436 1023.16 6.0786C1029.28 6.03329 1035.4 5.98799 1041.7 5.94131C1049.27 5.91883 1049.27 5.91883 1052.84 5.91465C1055.28 5.9071 1057.73 5.88977 1060.18 5.86423C1086.68 5.60185 1110.67 9.34847 1131.64 27.1758C1147.9 43.3055 1155.46 61.8799 1156.28 84.6161C1156.18 104.384 1147.35 123.098 1134.07 137.493C1131.48 140.056 1128.75 142.347 1125.8 144.491C1126.53 148.845 1127.66 152.434 1129.59 156.398C1130.39 158.046 1130.39 158.046 1131.2 159.727C1131.78 160.909 1132.36 162.091 1132.96 163.309C1133.56 164.552 1134.16 165.795 1134.78 167.076C1136.08 169.755 1137.38 172.433 1138.68 175.11C1142.18 182.313 1145.66 189.53 1149.13 196.746C1149.81 198.165 1150.5 199.583 1151.2 201.045C1158.8 216.847 1158.8 216.847 1162.27 224.195C1162.93 225.595 1163.6 226.995 1164.28 228.438C1165.62 231.582 1165.62 231.582 1165.62 234.071C1138.11 234.071 1110.6 234.071 1082.26 234.071C1059.14 186.636 1059.14 186.636 1052.86 173.496C1052.42 172.569 1051.97 171.642 1051.51 170.688C1048.67 164.691 1048.67 164.691 1048.67 161.909C1047.02 161.909 1045.38 161.909 1043.69 161.909C1043.69 185.723 1043.69 209.536 1043.69 234.071C1017.41 234.071 991.135 234.071 964.062 234.071C964.062 158.936 964.062 83.8012 964.062 6.38964Z" fill="white"/>
<path d="M562.199 728.001C581.496 728.001 600.793 728.001 620.675 728.001C622.497 734.006 624.318 740.011 626.196 746.197C626.769 748.078 627.342 749.959 627.933 751.896C628.61 754.142 628.61 754.142 629.301 756.432C629.764 757.957 630.226 759.482 630.703 761.052C631.773 764.963 632.534 768.783 633.116 772.791C633.937 772.791 634.759 772.791 635.605 772.791C635.725 772.09 635.845 771.388 635.968 770.666C637.686 761.344 640.377 752.428 643.225 743.398C645.611 735.777 645.611 735.777 648.046 728.001C667.343 728.001 686.64 728.001 706.522 728.001C706.522 769.059 706.522 810.116 706.522 852.417C691.741 852.417 676.96 852.417 661.732 852.417C661.321 836.816 660.911 821.214 660.488 805.139C659.384 809.014 658.281 812.889 657.144 816.881C653.76 828.746 650.3 840.586 646.802 852.417C638.591 852.417 630.379 852.417 621.919 852.417C620.368 847.285 618.818 842.151 617.271 837.017C616.746 835.275 616.22 833.532 615.693 831.79C614.931 829.271 614.172 826.75 613.414 824.229C612.958 822.718 612.502 821.206 612.032 819.649C610.65 814.844 609.446 809.99 608.233 805.139C607.823 820.741 607.412 836.343 606.989 852.417C592.208 852.417 577.428 852.417 562.199 852.417C562.199 811.36 562.199 770.303 562.199 728.001Z" fill="white"/>
<path d="M324.565 728.001C340.577 728.001 356.59 728.001 373.087 728.001C379.246 741.961 385.404 755.92 391.75 770.303C392.16 756.343 392.571 742.384 392.994 728.001C408.185 728.001 423.376 728.001 439.028 728.001C439.028 769.059 439.028 810.116 439.028 852.417C423.015 852.417 407.003 852.417 390.505 852.417C384.347 838.458 378.188 824.498 371.843 810.116C371.432 824.075 371.022 838.035 370.599 852.417C355.408 852.417 340.216 852.417 324.565 852.417C324.565 811.36 324.565 770.303 324.565 728.001Z" fill="white"/>
<path d="M824.717 728.001C838.266 728.001 851.814 728.001 865.774 728.001C865.849 733.527 865.925 739.052 866.002 744.744C866.066 749.147 866.13 753.55 866.196 757.953C866.264 762.602 866.331 767.252 866.393 771.901C866.452 776.378 866.517 780.855 866.586 785.332C866.612 787.041 866.635 788.75 866.656 790.459C866.686 792.851 866.724 795.243 866.763 797.635C866.792 799.678 866.792 799.678 866.821 801.762C866.878 805.259 866.878 805.259 868.262 808.872C871.454 811.236 873.049 811.376 877.049 811.049C880.905 810.28 880.905 810.28 884.436 807.628C885.032 804.161 885.032 804.161 884.974 800.036C884.999 798.442 885.023 796.848 885.049 795.205C885.057 793.459 885.065 791.713 885.073 789.966C885.094 788.185 885.116 786.403 885.141 784.621C885.2 779.929 885.237 775.237 885.269 770.545C885.313 764.917 885.384 759.288 885.45 753.66C885.548 745.107 885.611 736.555 885.68 728.001C899.229 728.001 912.778 728.001 926.738 728.001C926.987 751.411 926.987 751.411 927.041 761.448C927.078 768.277 927.122 775.105 927.207 781.933C927.275 787.443 927.312 792.952 927.328 798.462C927.339 800.556 927.362 802.65 927.395 804.744C927.605 818.315 926.454 828.217 918.169 839.417C904.876 852.422 890.022 855.458 872.016 855.448C858.231 855.166 846.005 850.965 835.914 841.22C824.047 828.675 824.185 814.051 824.352 797.742C824.359 795.724 824.364 793.705 824.368 791.687C824.382 786.414 824.419 781.141 824.46 775.868C824.506 769.521 824.522 763.173 824.544 756.825C824.58 747.217 824.652 737.61 824.717 728.001Z" fill="white"/>
<path d="M114.302 728.001C141.4 728.001 168.498 728.001 196.417 728.001C196.417 739.908 196.417 751.815 196.417 764.082C184.51 764.082 172.604 764.082 160.336 764.082C160.336 767.367 160.336 770.651 160.336 774.035C171.011 774.035 181.686 774.035 192.684 774.035C192.684 784.3 192.684 794.564 192.684 805.139C182.009 805.139 171.334 805.139 160.336 805.139C160.336 808.834 160.336 812.53 160.336 816.337C172.653 816.337 184.97 816.337 197.661 816.337C197.661 828.243 197.661 840.15 197.661 852.417C170.153 852.417 142.644 852.417 114.302 852.417C114.302 811.36 114.302 770.303 114.302 728.001Z" fill="white"/>
<path d="M1025.2 731.812C1028.18 734.911 1028.08 737.287 1028.08 741.474C1028.05 742.435 1028.03 743.395 1028 744.385C1027.99 745.373 1027.99 746.362 1027.98 747.381C1027.95 750.538 1027.89 753.694 1027.83 756.85C1027.8 758.991 1027.78 761.132 1027.76 763.273C1027.7 768.52 1027.62 773.766 1027.51 779.012C1026.1 778.091 1026.1 778.091 1024.65 777.151C1023.42 776.354 1022.18 775.557 1020.9 774.735C1019.68 773.941 1018.45 773.148 1017.19 772.33C1010.49 768.286 1004.04 768.458 996.411 769.059C990.49 771.104 987.458 773.843 983.969 779.012C981.518 786.366 981.724 794.724 984.202 802.029C987.602 806.718 990.905 809.525 996.411 811.36C1005.29 812.235 1012.71 811.78 1020.05 806.384C1022.99 803.281 1022.99 803.281 1025.03 800.163C1026.26 798.931 1026.26 798.931 1027.51 797.674C1027.51 814.097 1027.51 830.52 1027.51 847.441C1011.72 855.34 993.835 858.561 976.344 853.715C960.395 847.532 947.334 834.788 940.166 819.316C933.405 803.142 932.394 782.353 937.935 765.637C946.318 746.062 959.942 735.063 978.992 726.757C993.893 722.404 1011.52 725.016 1025.2 731.812Z" fill="white"/>
<path d="M362.001 6.90027C391.619 -4.04959 428.439 -1.8372 456.446 12.6102C457.291 12.9903 458.137 13.371 459.007 13.7626C485.143 25.6998 504.073 49.4745 515.082 75.455C526.396 107.774 525.739 141.879 511.5 173.107C507.052 182.275 501.562 190.168 495.014 197.99C494.224 198.983 493.433 199.976 492.619 200.999C476.237 220.704 449.199 235.728 423.577 238.779C403.416 240.461 382.32 241.203 363.133 234.071C361.624 233.515 360.115 232.958 358.56 232.385C328.58 220.373 306.106 198.308 292.833 168.972C280.409 138.225 279.471 103.106 292.216 72.33C306.147 41.0035 330.257 19.2978 362.001 6.90027ZM425.731 86.0936C413.243 78.3182 399.318 75.3529 385.718 82.1962C376.776 87.8957 371.378 97.2129 368.684 107.307C366.115 123.394 368.547 136.743 376.82 150.712C381.219 156.13 387.446 159.332 394.239 160.666C406.658 161.511 416.483 161.242 426.586 153.2C432.574 145.963 437.313 137.86 437.948 128.349C438.536 112.009 437.284 98.7208 425.731 86.0936Z" fill="white"/>
<path d="M1101.84 725.234C1119.35 725.192 1135.09 732.605 1147.81 744.487C1160.27 757.614 1166.12 774.44 1165.87 792.275C1164.82 809.352 1158.7 826.988 1145.71 838.732C1126.81 854.093 1108.45 856.746 1084.75 854.906C1068.64 852.149 1054.31 840.442 1044.93 827.534C1035.48 810.692 1032.3 793.441 1035.83 774.4C1040.81 756.935 1050.72 743.027 1066.27 733.649C1077.12 727.79 1086.53 725.289 1098.74 725.28C1099.76 725.265 1100.79 725.25 1101.84 725.234ZM1104.65 767.815C1094.33 766.756 1087.58 770.361 1082.41 779.323C1080.25 786.529 1080.04 794.144 1082.26 801.407C1084.86 807.022 1087.9 809.875 1093.46 812.604C1100.48 813.381 1105.55 813.325 1111.42 809.26C1116.19 804.95 1118.15 800.934 1118.75 794.51C1118.71 792.969 1118.68 791.472 1118.65 789.976C1118.59 785.48 1118.52 782.035 1117.09 777.768C1113.62 772.625 1110.5 769.952 1104.65 767.815Z" fill="white"/>
<path d="M632.682 5.99609C661.338 5.78207 686.695 9.86981 708.349 30.4609C724.511 47.458 729.551 66.4479 729.174 89.3984C728.415 110.546 717.729 127.824 702.789 142.003L699.057 144.491C699.968 148.936 701.701 152.769 703.61 156.875C704.622 159.055 704.622 159.055 705.654 161.279C706.384 162.837 707.114 164.395 707.844 165.953C708.59 167.552 709.335 169.152 710.081 170.751C714.176 179.511 718.344 188.226 722.725 196.847C726.559 204.406 730.23 212.042 733.893 219.686C734.814 221.602 734.815 221.602 735.755 223.558C736.321 224.742 736.887 225.926 737.47 227.146C737.98 228.211 738.49 229.276 739.016 230.374C740.114 232.826 740.113 232.826 740.113 234.07H656.755C649.45 220.191 642.303 206.549 635.838 192.313C633.884 188.039 631.925 183.767 629.949 179.502C628.768 176.952 627.601 174.394 626.451 171.829C625.663 170.135 625.663 170.135 624.859 168.407C624.409 167.418 623.959 166.429 623.495 165.409C621.874 162.564 621.874 162.564 616.942 161.909V234.07H537.316V6.38965C556.664 6.31267 576.013 6.23556 595.947 6.15625C605.062 6.10528 605.063 6.10571 614.362 6.05371C621.865 6.03685 621.865 6.03634 625.394 6.0332C627.823 6.02752 630.252 6.01522 632.682 5.99609ZM616.942 100.945C627.667 100.945 634.324 101.223 642.447 94.7246C645.254 89.1109 645.135 83.4754 644.313 77.3066C641.825 73.5745 641.826 73.5738 639.299 71.8486C638.255 71.2984 637.24 70.7645 636.227 70.2305C630.999 67.3535 630.999 67.3535 616.942 67.3535V100.945Z" fill="white"/>
<path d="M894.39 6.38965C901.529 32.0903 901.529 32.0906 903.492 40.8857C903.72 41.8838 903.949 42.8819 904.184 43.9102C904.89 47.0059 905.589 50.1036 906.287 53.2012C907.219 57.3134 908.153 61.4252 909.091 65.5361C909.318 66.5336 909.546 67.5309 909.78 68.5586C911.627 76.6186 913.61 84.6402 915.638 92.6562C917.322 99.3456 918.919 106.055 920.517 112.766C922.551 121.278 924.599 129.784 926.738 138.271C928.799 146.446 930.769 154.642 932.726 162.843C935.841 175.898 939.066 188.923 942.354 201.936C944.125 208.962 945.859 215.996 947.524 223.048C947.834 224.357 948.142 225.667 948.461 227.016C949.132 230.338 949.133 230.338 949.133 234.07H880.704C879.472 227.963 878.241 221.856 876.972 215.563C876.582 213.638 876.193 211.712 875.791 209.728C875.488 208.218 875.184 206.708 874.872 205.153C874.559 203.603 874.246 202.053 873.924 200.455C873.239 196.746 873.239 196.746 873.239 194.258H828.449L827.205 206.699C826.858 208.896 826.479 211.089 826.039 213.27C825.824 214.341 825.609 215.413 825.388 216.517C825.166 217.588 824.945 218.659 824.717 219.763C824.495 220.873 824.274 221.983 824.046 223.126C822.398 231.243 822.398 231.243 820.984 234.07H752.556C758.198 207.27 758.198 207.27 761.188 195.735C763.944 184.913 766.539 174.068 768.948 163.164C770.782 154.92 772.818 146.731 774.879 138.541C777.049 129.909 779.147 121.258 781.249 112.609C781.481 111.654 781.714 110.7 781.953 109.716C786.216 92.183 790.428 74.6378 794.624 57.0889C795.054 55.291 795.053 55.2904 795.492 53.4561C796.326 49.9692 797.16 46.4822 797.992 42.9951C798.255 41.8937 798.518 40.792 798.789 39.6572C800.055 34.3508 801.311 29.042 802.543 23.7275C802.771 22.7446 803 21.7617 803.235 20.749C803.661 18.9129 804.084 17.0757 804.504 15.2383C805.916 9.1534 805.917 9.15345 807.299 6.38965H894.39ZM849.6 86.0156C848.754 90.3423 847.909 94.6696 847.067 98.9971C846.719 100.787 846.371 102.577 846.022 104.367C843.736 116.059 841.546 127.751 839.646 139.515H862.041C861.298 128.993 859.227 118.872 856.982 108.593C856.566 106.687 856.152 104.781 855.74 102.874C854.531 97.2528 853.314 91.6331 852.088 86.0156H849.6Z" fill="white"/>
<path d="M54.3613 727.579C68.9961 727.574 84.0769 730.392 95.1729 740.521C104.693 750.631 108.54 761.769 108.339 775.406C107.454 787.792 101.902 798.008 92.8887 806.48C81.6732 815.591 71.48 817.796 57.3037 817.659C53.5316 817.634 49.7594 817.607 45.873 817.581V852.417H2.32812V728.002C12.4895 727.925 22.6508 727.848 33.1201 727.769C37.8852 727.718 37.8857 727.717 42.7471 727.665C45.3118 727.654 47.8766 727.645 50.4414 727.637C51.7349 727.618 53.0286 727.599 54.3613 727.579ZM58.9375 766.025C54.868 763.482 54.8673 763.482 45.874 764.082V782.744C53.4046 782.744 55.479 782.712 60.8037 777.768C61.6837 772.84 61.5717 770.306 58.9375 766.025Z" fill="white"/>
<path d="M258.403 727.579C273.907 727.574 287.951 730.95 299.726 741.459C307.487 749.616 311.088 758.368 311.501 769.604C310.922 784.561 305.214 793.543 294.705 803.896C300.385 816.849 306.196 829.717 312.378 842.439C312.833 843.384 313.287 844.329 313.756 845.303C314.162 846.137 314.567 846.972 314.985 847.832C315.855 849.929 315.855 849.929 315.855 852.417H271.065L261.112 832.511C257.54 825.476 257.54 825.476 253.959 818.446C252.404 815.093 252.403 815.093 252.403 812.604H249.915V852.417H206.37V728.002C216.531 727.925 226.693 727.848 237.162 727.769C241.927 727.718 241.928 727.717 246.789 727.665C249.354 727.654 251.919 727.645 254.483 727.637C255.777 727.618 257.071 727.599 258.403 727.579ZM249.916 779.012C253.393 779.244 256.437 779.411 259.869 779.012C263.057 777.068 263.057 777.068 264.846 774.035C264.923 769.603 264.923 769.603 263.602 765.326C259.388 761.594 259.387 761.594 249.916 761.594V779.012Z" fill="white"/>
<path d="M770.848 727.72C784.075 727.717 795.609 729.037 805.48 738.558C812.349 746.35 812.832 753.474 812.664 763.528C811.78 773.273 806.337 779.54 799.833 786.478C800.705 786.683 801.579 786.888 802.478 787.1C809.316 790.667 813.18 797.268 815.852 804.362C818.571 813.839 818.323 822.3 813.83 831.146C807.562 841.664 799.72 845.622 788.636 850.24C766.883 855.678 731.265 852.417 715.23 852.417V728.002C726.085 727.951 736.94 727.899 748.123 727.846C751.528 727.823 754.934 727.801 758.442 727.777C761.17 727.77 763.898 727.764 766.625 727.759C768.018 727.746 769.412 727.733 770.848 727.72ZM768.652 804.051C764.323 802.393 760.887 802.381 756.288 802.651V817.581C760.887 817.852 764.323 817.84 768.652 816.182C771.218 813.849 771.218 813.848 771.995 810.116C771.218 806.384 771.218 806.383 768.652 804.051ZM771.218 764.082C766.511 759.946 762.365 759.992 756.288 760.35V775.279C759.083 775.077 761.877 774.874 764.672 774.672C767.99 773.921 769.165 772.977 771.218 770.303C771.84 767.192 771.84 767.192 771.218 764.082Z" fill="white"/>
<path d="M523.63 728.002C529.344 748.002 529.345 748.002 531.377 756.486C531.613 757.456 531.848 758.426 532.091 759.426C532.851 762.558 533.607 765.692 534.361 768.825C535.171 772.172 535.981 775.519 536.791 778.866C537.35 781.176 537.909 783.487 538.468 785.797C540.496 794.181 542.555 802.558 544.625 810.933C545.487 814.429 546.349 817.925 547.21 821.422C547.766 823.674 548.323 825.926 548.883 828.177C549.662 831.313 550.435 834.451 551.206 837.59C551.555 838.982 551.554 838.982 551.91 840.402C552.93 844.581 553.49 848.082 553.49 852.417H516.165C512.433 834.999 512.433 834.999 512.433 831.267H487.55L486.306 842.464L483.817 852.417H446.492C448.073 844.513 449.688 836.652 451.498 828.803C451.848 827.28 451.848 827.28 452.205 825.727C452.696 823.595 453.186 821.463 453.679 819.331C454.417 816.133 455.15 812.934 455.882 809.734C458.396 798.801 461.068 787.945 464.01 777.118C466.199 768.841 468.016 760.479 469.881 752.124C470.183 750.789 470.485 749.454 470.797 748.078C471.058 746.907 471.32 745.736 471.59 744.529C472.991 738.97 474.704 733.493 476.352 728.002H523.63ZM499.991 772.791C496.758 776.024 496.759 776.024 495.015 800.163H506.212C506.212 796.539 505.698 793.26 505.007 789.711C504.752 788.431 504.751 788.431 504.501 787.177C503.539 782.086 502.652 777.314 499.991 772.791Z" fill="white"/>
<path d="M660.488 802.651C660.898 802.651 661.309 802.651 661.732 802.651C661.732 819.074 661.732 835.497 661.732 852.417C661.321 852.417 660.911 852.417 660.488 852.417C660.077 840.1 659.667 827.783 659.244 815.093C658.012 815.709 658.012 815.709 656.755 816.337C657.987 811.821 659.219 807.304 660.488 802.651Z" fill="white"/>
</svg>
