<?xml version="1.0" encoding="UTF-8" standalone="no"?>
<svg
   width="166.03307"
   height="192.11955"
   viewBox="0 0 166.03307 192.11955"
   version="1.1"
   id="svg57"
   sodipodi:docname="logo.svg"
   inkscape:version="1.1.2 (0a00cf5339, 2022-02-04)"
   xmlns:inkscape="http://www.inkscape.org/namespaces/inkscape"
   xmlns:sodipodi="http://sodipodi.sourceforge.net/DTD/sodipodi-0.dtd"
   xmlns="http://www.w3.org/2000/svg"
   xmlns:svg="http://www.w3.org/2000/svg">
  <defs
     id="defs61">
    <inkscape:perspective
       sodipodi:type="inkscape:persp3d"
       inkscape:vp_x="0 : 574.25595 : 1"
       inkscape:vp_y="0 : 999.99999 : 0"
       inkscape:vp_z="1500 : 574.25595 : 1"
       inkscape:persp3d-origin="750.00002 : 280.21049 : 1"
       id="perspective4362" />
    <clipPath
       id="clp12">
      <path
         d="m 45.315,71.927 h 12.92 v 15.867 h -12.92 z"
         id="path184"
         inkscape:connector-curvature="0" />
    </clipPath>
    <clipPath
       id="clp21">
      <path
         d="m 123.91,72.178 h 26.23 v 15.294 h -26.23 z"
         id="path592"
         inkscape:connector-curvature="0" />
    </clipPath>
    <clipPath
       id="clp9">
      <path
         d="m 413.96,49.857 h 31.76 v 8.719 h -31.76 z"
         id="path100"
         inkscape:connector-curvature="0" />
    </clipPath>
    <marker
       style="overflow:visible"
       id="Arrow2Lend"
       orient="auto"
       refY="0"
       refX="0">
      <path
         style="font-size:12px;fill-rule:evenodd;stroke-width:0.625;stroke-linejoin:round"
         id="path3796"
         transform="matrix(-1.1,0,0,-1.1,-1.1,0)"
         d="M 8.7185878,4.0337352 -2.2072895,0.01601326 8.7185884,-4.0017078 c -1.7454984,2.3720609 -1.7354408,5.6174519 -6e-7,8.035443 z"
         inkscape:connector-curvature="0" />
    </marker>
    <filter
       id="filter3086"
       x="-0.0067710145"
       y="-0.052691713"
       width="1.0135421"
       height="1.1053834">
      <feGaussianBlur
         in="SourceGraphic"
         stdDeviation="0.64393666"
         result="blur"
         id="feGaussianBlur3078" />
      <feMerge
         id="feMerge3084">
        <feMergeNode
           in="blur"
           id="feMergeNode3080" />
        <feMergeNode
           in="SourceGraphic"
           id="feMergeNode3082" />
      </feMerge>
    </filter>
    <filter
       id="filter12028"
       x="-0.0019200889"
       y="-0.0068560101"
       width="1.0038402"
       height="1.013712">
      <feGaussianBlur
         in="SourceGraphic"
         stdDeviation="0.095384238"
         result="blur"
         id="feGaussianBlur12020" />
      <feMerge
         id="feMerge12026">
        <feMergeNode
           in="blur"
           id="feMergeNode12022" />
        <feMergeNode
           in="SourceGraphic"
           id="feMergeNode12024" />
      </feMerge>
    </filter>
    <filter
       id="filter12038"
       x="-0.012031623"
       y="-0.02975"
       width="1.0240632"
       height="1.0595">
      <feGaussianBlur
         in="SourceGraphic"
         stdDeviation="0.40625"
         result="blur"
         id="feGaussianBlur12030" />
      <feMerge
         id="feMerge12036">
        <feMergeNode
           in="blur"
           id="feMergeNode12032" />
        <feMergeNode
           in="SourceGraphic"
           id="feMergeNode12034" />
      </feMerge>
    </filter>
    <filter
       id="filter12048"
       x="-0.012031623"
       y="-0.02975"
       width="1.0240632"
       height="1.0595">
      <feGaussianBlur
         in="SourceGraphic"
         stdDeviation="0.40625"
         result="blur"
         id="feGaussianBlur12040" />
      <feMerge
         id="feMerge12046">
        <feMergeNode
           in="blur"
           id="feMergeNode12042" />
        <feMergeNode
           in="SourceGraphic"
           id="feMergeNode12044" />
      </feMerge>
    </filter>
    <filter
       id="filter12058"
       x="-0.012031623"
       y="-0.02975"
       width="1.0240632"
       height="1.0595">
      <feGaussianBlur
         in="SourceGraphic"
         stdDeviation="0.40625"
         result="blur"
         id="feGaussianBlur12050" />
      <feMerge
         id="feMerge12056">
        <feMergeNode
           in="blur"
           id="feMergeNode12052" />
        <feMergeNode
           in="SourceGraphic"
           id="feMergeNode12054" />
      </feMerge>
    </filter>
    <filter
       id="filter12100"
       x="-0.019440291"
       y="-0.0495"
       width="1.0388806"
       height="1.099">
      <feGaussianBlur
         in="SourceGraphic"
         stdDeviation="0.40625"
         result="blur"
         id="feGaussianBlur12092" />
      <feMerge
         id="feMerge12098">
        <feMergeNode
           in="blur"
           id="feMergeNode12094" />
        <feMergeNode
           in="SourceGraphic"
           id="feMergeNode12096" />
      </feMerge>
    </filter>
    <filter
       id="filter12110"
       x="-0.019440291"
       y="-0.0495"
       width="1.0388806"
       height="1.099">
      <feGaussianBlur
         in="SourceGraphic"
         stdDeviation="0.40625"
         result="blur"
         id="feGaussianBlur12102" />
      <feMerge
         id="feMerge12108">
        <feMergeNode
           in="blur"
           id="feMergeNode12104" />
        <feMergeNode
           in="SourceGraphic"
           id="feMergeNode12106" />
      </feMerge>
    </filter>
    <filter
       id="filter12120"
       x="-0.099"
       y="-0.0081439899"
       width="1.198"
       height="1.016288">
      <feGaussianBlur
         in="SourceGraphic"
         stdDeviation="0.40625"
         result="blur"
         id="feGaussianBlur12112" />
      <feMerge
         id="feMerge12118">
        <feMergeNode
           in="blur"
           id="feMergeNode12114" />
        <feMergeNode
           in="SourceGraphic"
           id="feMergeNode12116" />
      </feMerge>
    </filter>
    <filter
       id="filter12130"
       x="-0.099"
       y="-0.0081439899"
       width="1.198"
       height="1.016288">
      <feGaussianBlur
         in="SourceGraphic"
         stdDeviation="0.40625"
         result="blur"
         id="feGaussianBlur12122" />
      <feMerge
         id="feMerge12128">
        <feMergeNode
           in="blur"
           id="feMergeNode12124" />
        <feMergeNode
           in="SourceGraphic"
           id="feMergeNode12126" />
      </feMerge>
    </filter>
    <filter
       id="filter12144"
       x="-0.019440291"
       y="-0.0495"
       width="1.0388806"
       height="1.099">
      <feGaussianBlur
         in="SourceGraphic"
         stdDeviation="0.40625"
         result="blur"
         id="feGaussianBlur12136" />
      <feMerge
         id="feMerge12142">
        <feMergeNode
           in="blur"
           id="feMergeNode12138" />
        <feMergeNode
           in="SourceGraphic"
           id="feMergeNode12140" />
      </feMerge>
    </filter>
    <filter
       id="filter12154"
       x="-0.0595"
       y="-0.0043459932"
       width="1.119"
       height="1.008692">
      <feGaussianBlur
         in="SourceGraphic"
         stdDeviation="0.40625"
         result="blur"
         id="feGaussianBlur12146" />
      <feMerge
         id="feMerge12152">
        <feMergeNode
           in="blur"
           id="feMergeNode12148" />
        <feMergeNode
           in="SourceGraphic"
           id="feMergeNode12150" />
      </feMerge>
    </filter>
    <filter
       id="filter37166"
       x="-0.0016982531"
       y="-0.012849129"
       width="1.0033965"
       height="1.0256983">
      <feGaussianBlur
         in="SourceGraphic"
         stdDeviation="0.13566539"
         result="blur"
         id="feGaussianBlur37158" />
      <feMerge
         id="feMerge37164">
        <feMergeNode
           in="blur"
           id="feMergeNode37160" />
        <feMergeNode
           in="SourceGraphic"
           id="feMergeNode37162" />
      </feMerge>
    </filter>
  </defs>
  <sodipodi:namedview
     id="namedview59"
     pagecolor="#ffffff"
     bordercolor="#000000"
     borderopacity="0.25"
     inkscape:pageshadow="2"
     inkscape:pageopacity="0.0"
     inkscape:pagecheckerboard="0"
     showgrid="false"
     showguides="true"
     inkscape:guide-bbox="true"
     inkscape:zoom="2.7656327"
     inkscape:cx="90.576019"
     inkscape:cy="173.19726"
     inkscape:window-width="1920"
     inkscape:window-height="1131"
     inkscape:window-x="0"
     inkscape:window-y="32"
     inkscape:window-maximized="1"
     inkscape:current-layer="g44879"
     fit-margin-top="0"
     fit-margin-left="0"
     fit-margin-right="0"
     fit-margin-bottom="0">
    <sodipodi:guide
       position="352.03314,192.91338"
       orientation="1,0"
       id="guide855" />
    <sodipodi:guide
       position="2.0331429,142.91338"
       orientation="1,0"
       id="guide1261" />
    <sodipodi:guide
       position="2.0331383,49.206182"
       orientation="0,-1"
       id="guide1427" />
    <sodipodi:guide
       position="2.0331429,142.91338"
       orientation="0,-1"
       id="guide1429" />
    <sodipodi:guide
       position="163.99992,142.91337"
       orientation="1,0"
       id="guide1621" />
    <sodipodi:guide
       position="55.770047,143.16535"
       orientation="1,0"
       id="guide1818" />
    <sodipodi:guide
       position="109.75892,142.91338"
       orientation="1,0"
       id="guide1820" />
    <sodipodi:guide
       position="55.518078,111.92962"
       orientation="0,-1"
       id="guide2017" />
    <sodipodi:guide
       position="55.770047,80.693892"
       orientation="0,-1"
       id="guide2019" />
    <sodipodi:guide
       position="158.01653,114.05978"
       orientation="1,0"
       id="guide32007" />
  </sodipodi:namedview>
  <!-- Background -->
  <!-- Outer Cube in Tron Style -->
  <!-- Inner Cube in Tron Style -->
  <!-- Glowing Grid Background -->
  <!-- Tron Text -->
  <!-- Glow Effect -->
  <filter
     id="neonGlow"
     x="-0.0595"
     y="-0.0043459932"
     width="1.119"
     height="1.008692">
    <feGaussianBlur
       in="SourceGraphic"
       stdDeviation="0.40625"
       result="blur"
       id="feGaussianBlur26" />
    <feMerge
       id="feMerge32">
      <feMergeNode
         in="blur"
         id="feMergeNode28" />
      <feMergeNode
         in="SourceGraphic"
         id="feMergeNode30" />
    </feMerge>
  </filter>
  <path
     transform="matrix(0,0.0550697,-0.05495473,0,71.776879,401.76343)"
     inkscape:transform-center-y="7.9344316e-05"
     inkscape:transform-center-x="1.5731476e-05"
     inkscape:randomized="0"
     inkscape:rounded="0"
     inkscape:flatsided="true"
     sodipodi:arg2="1.5707963"
     sodipodi:arg1="1.0471976"
     sodipodi:r2="1473.6381"
     sodipodi:r1="1701.6108"
     sodipodi:cy="-204.52565"
     sodipodi:cx="-5551.2134"
     sodipodi:sides="6"
     id="path4560"
     style="fill:#ffffff;fill-opacity:1;stroke:#ff8266;stroke-width:73.9932;stroke-miterlimit:4;stroke-dasharray:none;stroke-opacity:1"
     sodipodi:type="star"
     d="m -4700.408,1269.1126 -1701.6109,-10e-5 -850.8053,-1473.63823 850.8055,-1473.63817 1701.6108,10e-5 850.8054,1473.63823 z" />
  <g
     id="g44879"
     transform="translate(0,2.9999945)">
    <rect
       style="fill:#dd7eff;fill-opacity:1;stroke-width:2.71107;stroke-linecap:round;stroke-linejoin:round"
       id="rect997"
       width="30"
       height="30"
       x="8.016531"
       y="78.059776" />
    <rect
       style="fill:#ff8266;fill-opacity:1;stroke-width:2.71107;stroke-linecap:round;stroke-linejoin:round"
       id="rect1159"
       width="30"
       height="30"
       x="38.016529"
       y="108.05978" />
    <rect
       style="fill:#fec27a;fill-opacity:1;stroke-width:2.71107;stroke-linecap:round;stroke-linejoin:round"
       id="rect1161"
       width="30"
       height="30"
       x="68.016533"
       y="78.059776" />
    <rect
       style="fill:#dd7eff;fill-opacity:1;stroke-width:2.71107;stroke-linecap:round;stroke-linejoin:round"
       id="rect1163"
       width="30"
       height="30"
       x="98.016541"
       y="108.05978" />
    <rect
       style="fill:#ff8266;fill-opacity:1;stroke-width:2.71107;stroke-linecap:round;stroke-linejoin:round"
       id="rect1165"
       width="30"
       height="30"
       x="128.01653"
       y="78.059776" />
    <rect
       style="fill:#fec27a;fill-opacity:1;stroke-width:2.71107;stroke-linecap:round;stroke-linejoin:round"
       id="rect27602"
       width="30"
       height="30"
       x="128.01653"
       y="108.05978" />
    <g
       aria-label="tesseract"
       id="text29057"
       style="font-weight:bold;font-size:18.6667px;font-family:Arial;-inkscape-font-specification:'Arial Bold';fill:#ffffff;stroke:#ff8266;stroke-width:2.87244;stroke-linecap:round;stroke-linejoin:round">
      <path
         d="m 76.984047,67.110441 q 0.466667,0 0.896001,-0.09333 0.429335,-0.09333 0.858669,-0.224 v 2.072004 q -0.448001,0.186667 -1.120002,0.317333 -0.653335,0.149334 -1.437336,0.149334 -0.914669,0 -1.64267,-0.298667 -0.709335,-0.298667 -1.138669,-1.026669 -0.410667,-0.746668 -0.410667,-2.053337 v -4.909342 h -1.325336 v -1.176002 l 1.53067,-0.933335 0.802668,-2.146671 h 1.773336 v 2.165338 h 2.856005 v 2.09067 h -2.856005 v 4.909342 q 0,0.578668 0.336001,0.877335 0.336,0.280001 0.877335,0.280001 z"
         style="font-family:'Noto Sans';-inkscape-font-specification:'Noto Sans Bold';fill:#000000;stroke:none"
         id="path45161" />
      <path
         d="m 84.992026,58.766426 q 2.109337,0 3.341339,1.213335 1.232003,1.194669 1.232003,3.416006 v 1.344003 h -6.570679 q 0.03733,1.176002 0.690668,1.848003 0.672001,0.672001 1.848003,0.672001 0.989335,0 1.792003,-0.186667 0.802669,-0.205333 1.661337,-0.616001 v 2.146671 q -0.746668,0.373334 -1.58667,0.541334 -0.821335,0.186667 -1.997337,0.186667 -1.530669,0 -2.706671,-0.560001 -1.176002,-0.578668 -1.848004,-1.736003 -0.672001,-1.157335 -0.672001,-2.912005 0,-1.792004 0.597335,-2.968006 0.616001,-1.194668 1.698669,-1.792003 1.082669,-0.597334 2.520005,-0.597334 z m 0.01867,1.97867 q -0.802669,0 -1.344003,0.522668 -0.522667,0.522667 -0.616001,1.624002 h 3.90134 q -0.01867,-0.933335 -0.485334,-1.530669 -0.466667,-0.616001 -1.456002,-0.616001 z"
         style="font-family:'Noto Sans';-inkscape-font-specification:'Noto Sans Bold';fill:#000000;stroke:none"
         id="path45163" />
      <path
         d="m 98.936044,66.121106 q 0,1.549336 -1.101335,2.389337 -1.082669,0.821335 -3.248006,0.821335 -1.064002,0 -1.829337,-0.149334 -0.765334,-0.130666 -1.530669,-0.448 V 66.43844 q 0.821335,0.373334 1.773336,0.616001 0.952002,0.242667 1.680003,0.242667 0.821335,0 1.157336,-0.242667 0.354667,-0.242667 0.354667,-0.634668 0,-0.261334 -0.149333,-0.466668 -0.130667,-0.205333 -0.597335,-0.466667 -0.466667,-0.261334 -1.456002,-0.672001 -0.952002,-0.410668 -1.568003,-0.802669 -0.616001,-0.410667 -0.914669,-0.970668 -0.298667,-0.578668 -0.298667,-1.437336 0,-1.418669 1.101335,-2.128004 1.101336,-0.709334 2.930672,-0.709334 0.952002,0 1.81067,0.186667 0.858669,0.186667 1.773337,0.616001 l -0.840002,1.997337 q -0.746668,-0.317334 -1.418669,-0.522668 -0.672001,-0.224 -1.362669,-0.224 -1.232002,0 -1.232002,0.672001 0,0.242667 0.149333,0.448001 0.168001,0.186667 0.616002,0.410667 0.466667,0.224001 1.362669,0.597335 0.877335,0.354667 1.512002,0.746668 0.634668,0.373334 0.970669,0.952001 0.354667,0.560001 0.354667,1.47467 z"
         style="font-family:'Noto Sans';-inkscape-font-specification:'Noto Sans Bold';fill:#000000;stroke:none"
         id="path45165" />
      <path
         d="m 108.21339,66.121106 q 0,1.549336 -1.10134,2.389337 -1.08266,0.821335 -3.248,0.821335 -1.064,0 -1.82934,-0.149334 -0.76533,-0.130666 -1.53067,-0.448 V 66.43844 q 0.82134,0.373334 1.77334,0.616001 0.952,0.242667 1.68,0.242667 0.82134,0 1.15734,-0.242667 0.35466,-0.242667 0.35466,-0.634668 0,-0.261334 -0.14933,-0.466668 -0.13067,-0.205333 -0.59733,-0.466667 -0.46667,-0.261334 -1.45601,-0.672001 -0.952,-0.410668 -1.568,-0.802669 -0.616,-0.410667 -0.91467,-0.970668 -0.29866,-0.578668 -0.29866,-1.437336 0,-1.418669 1.10133,-2.128004 1.10134,-0.709334 2.93067,-0.709334 0.952,0 1.81067,0.186667 0.85867,0.186667 1.77334,0.616001 l -0.84,1.997337 q -0.74667,-0.317334 -1.41867,-0.522668 -0.672,-0.224 -1.36267,-0.224 -1.232,0 -1.232,0.672001 0,0.242667 0.14933,0.448001 0.168,0.186667 0.616,0.410667 0.46667,0.224001 1.36267,0.597335 0.87734,0.354667 1.512,0.746668 0.63467,0.373334 0.97067,0.952001 0.35467,0.560001 0.35467,1.47467 z"
         style="font-family:'Noto Sans';-inkscape-font-specification:'Noto Sans Bold';fill:#000000;stroke:none"
         id="path45167" />
      <path
         d="m 114.57873,58.766426 q 2.10934,0 3.34134,1.213335 1.232,1.194669 1.232,3.416006 v 1.344003 h -6.57067 q 0.0373,1.176002 0.69066,1.848003 0.672,0.672001 1.84801,0.672001 0.98933,0 1.792,-0.186667 0.80267,-0.205333 1.66134,-0.616001 v 2.146671 q -0.74667,0.373334 -1.58667,0.541334 -0.82134,0.186667 -1.99734,0.186667 -1.53067,0 -2.70667,-0.560001 -1.176,-0.578668 -1.84801,-1.736003 -0.672,-1.157335 -0.672,-2.912005 0,-1.792004 0.59734,-2.968006 0.616,-1.194668 1.69867,-1.792003 1.08267,-0.597334 2.52,-0.597334 z m 0.0187,1.97867 q -0.80267,0 -1.344,0.522668 -0.52267,0.522667 -0.616,1.624002 h 3.90134 q -0.0187,-0.933335 -0.48534,-1.530669 -0.46667,-0.616001 -1.456,-0.616001 z"
         style="font-family:'Noto Sans';-inkscape-font-specification:'Noto Sans Bold';fill:#000000;stroke:none"
         id="path45169" />
      <path
         d="m 127.10408,58.766426 q 0.20533,0 0.48534,0.01867 0.28,0.01867 0.448,0.056 l -0.20534,2.613339 q -0.13066,-0.03733 -0.392,-0.056 -0.24267,-0.03733 -0.42933,-0.03733 -0.70934,0 -1.36267,0.261334 -0.65334,0.242667 -1.064,0.802668 -0.392,0.560001 -0.392,1.530669 v 5.189343 h -2.78134 V 58.953093 h 2.10933 l 0.41067,1.717336 h 0.13067 q 0.448,-0.784001 1.232,-1.344002 0.784,-0.560001 1.81067,-0.560001 z"
         style="font-family:'Noto Sans';-inkscape-font-specification:'Noto Sans Bold';fill:#000000;stroke:none"
         id="path45171" />
      <path
         d="m 133.69339,58.747759 q 2.05334,0 3.136,0.896002 1.10134,0.877335 1.10134,2.706671 v 6.794679 h -1.94134 l -0.54133,-1.381336 h -0.0747 q -0.65333,0.821335 -1.38133,1.194669 -0.72801,0.373334 -1.99734,0.373334 -1.36267,0 -2.25867,-0.784001 -0.896,-0.802668 -0.896,-2.445338 0,-1.624003 1.13867,-2.389338 1.13866,-0.784001 3.416,-0.858668 l 1.77334,-0.056 v -0.448001 q 0,-0.802668 -0.42934,-1.176002 -0.41066,-0.373334 -1.15733,-0.373334 -0.74667,0 -1.456,0.224 -0.70934,0.205334 -1.41867,0.522668 l -0.91467,-1.885337 q 0.82133,-0.429334 1.81067,-0.672001 1.008,-0.242667 2.09067,-0.242667 z m 0.392,5.71201 q -1.344,0.03733 -1.86667,0.485335 -0.52267,0.448 -0.52267,1.176002 0,0.634667 0.37334,0.914668 0.37333,0.261334 0.97066,0.261334 0.89601,0 1.51201,-0.522668 0.616,-0.541334 0.616,-1.512003 v -0.840001 z"
         style="font-family:'Noto Sans';-inkscape-font-specification:'Noto Sans Bold';fill:#000000;stroke:none"
         id="path45173" />
      <path
         d="m 144.93071,69.331778 q -2.27734,0 -3.52801,-1.250669 -1.232,-1.269335 -1.232,-3.976007 0,-1.86667 0.63467,-3.042672 0.63466,-1.176002 1.75467,-1.736003 1.13866,-0.560001 2.61333,-0.560001 1.04534,0 1.81067,0.205333 0.784,0.205334 1.36267,0.485335 l -0.82133,2.14667 q -0.65334,-0.261334 -1.232,-0.429334 -0.56001,-0.168 -1.12001,-0.168 -2.16533,0 -2.16533,3.080005 0,1.53067 0.56,2.258671 0.57866,0.728001 1.60533,0.728001 0.87734,0 1.54934,-0.224 0.672,-0.242667 1.30667,-0.653335 v 2.370671 q -0.63467,0.410668 -1.344,0.578668 -0.69067,0.186667 -1.75467,0.186667 z"
         style="font-family:'Noto Sans';-inkscape-font-specification:'Noto Sans Bold';fill:#000000;stroke:none"
         id="path45175" />
      <path
         d="m 154.67473,67.110441 q 0.46667,0 0.896,-0.09333 0.42933,-0.09333 0.85867,-0.224 v 2.072004 q -0.448,0.186667 -1.12,0.317333 -0.65334,0.149334 -1.43734,0.149334 -0.91467,0 -1.64267,-0.298667 -0.70933,-0.298667 -1.13867,-1.026669 -0.41067,-0.746668 -0.41067,-2.053337 v -4.909342 h -1.32533 v -1.176002 l 1.53067,-0.933335 0.80267,-2.146671 h 1.77333 v 2.165338 h 2.85601 v 2.09067 h -2.85601 v 4.909342 q 0,0.578668 0.336,0.877335 0.336,0.280001 0.87734,0.280001 z"
         style="font-family:'Noto Sans';-inkscape-font-specification:'Noto Sans Bold';fill:#000000;stroke:none"
         id="path45177" />
    </g>
    <g
       aria-label="cpp11"
       id="text32018"
       style="font-weight:bold;font-size:9.33333px;font-family:Arial;-inkscape-font-specification:'Arial Bold';stroke:#ff8266;stroke-width:2.87244;stroke-linecap:round;stroke-linejoin:round">
      <path
         d="m 46.723156,63.545085 q -1.138666,0 -1.764,-0.625333 -0.615999,-0.634667 -0.615999,-1.987999 0,-0.933333 0.317333,-1.521333 0.317333,-0.588 0.877333,-0.868 0.569333,-0.28 1.306666,-0.28 0.522667,0 0.905333,0.102667 0.392,0.102666 0.681333,0.242666 l -0.410666,1.073333 q -0.326667,-0.130666 -0.616,-0.214666 -0.28,-0.084 -0.56,-0.084 -1.082666,0 -1.082666,1.539999 0,0.765333 0.28,1.129333 0.289333,0.364 0.802666,0.364 0.438667,0 0.774666,-0.112 0.336,-0.121333 0.653334,-0.326666 v 1.185332 q -0.317334,0.205334 -0.672,0.289334 -0.345333,0.09333 -0.877333,0.09333 z"
         style="font-family:'Noto Sans';-inkscape-font-specification:'Noto Sans Bold';stroke:none"
         id="path45150" />
      <path
         d="m 52.28582,58.26242 q 0.858667,0 1.390666,0.672 0.532,0.662666 0.532,1.959999 0,1.297333 -0.550666,1.978666 -0.550667,0.672 -1.409333,0.672 -0.550667,0 -0.877333,-0.196 -0.326667,-0.205333 -0.532,-0.457333 h -0.07467 q 0.07467,0.392 0.07467,0.746666 v 2.053333 h -1.390666 v -7.335998 h 1.129333 l 0.196,0.662667 h 0.06533 q 0.205333,-0.308 0.550666,-0.532 0.345334,-0.224 0.896,-0.224 z m -0.448,1.110666 q -0.541333,0 -0.765333,0.336 -0.214666,0.336 -0.233333,1.026667 v 0.149333 q 0,0.737333 0.214667,1.138666 0.224,0.392 0.802666,0.392 0.476,0 0.7,-0.392 0.233333,-0.401333 0.233333,-1.147999 0,-1.502667 -0.952,-1.502667 z"
         style="font-family:'Noto Sans';-inkscape-font-specification:'Noto Sans Bold';stroke:none"
         id="path45152" />
      <path
         d="m 58.193813,58.26242 q 0.858666,0 1.390666,0.672 0.532,0.662666 0.532,1.959999 0,1.297333 -0.550666,1.978666 -0.550667,0.672 -1.409333,0.672 -0.550667,0 -0.877333,-0.196 -0.326667,-0.205333 -0.532,-0.457333 h -0.07467 q 0.07467,0.392 0.07467,0.746666 v 2.053333 h -1.390666 v -7.335998 h 1.129333 l 0.196,0.662667 h 0.06533 q 0.205333,-0.308 0.550666,-0.532 0.345334,-0.224 0.896,-0.224 z m -0.448,1.110666 q -0.541333,0 -0.765333,0.336 -0.214666,0.336 -0.233333,1.026667 v 0.149333 q 0,0.737333 0.214666,1.138666 0.224,0.392 0.802667,0.392 0.476,0 0.7,-0.392 0.233333,-0.401333 0.233333,-1.147999 0,-1.502667 -0.952,-1.502667 z"
         style="font-family:'Noto Sans';-inkscape-font-specification:'Noto Sans Bold';stroke:none"
         id="path45154" />
      <path
         d="m 64.391138,63.451752 h -1.409333 v -3.854666 q 0,-0.242666 0.0093,-0.634666 0.01867,-0.392 0.028,-0.690667 -0.04667,0.056 -0.205333,0.205334 -0.149333,0.14 -0.28,0.252 l -0.765333,0.615999 -0.681333,-0.849333 2.146666,-1.707999 h 1.157333 z"
         style="font-family:'Noto Sans';-inkscape-font-specification:'Noto Sans Bold';stroke:none"
         id="path45156" />
      <path
         d="m 69.729789,63.451752 h -1.409333 v -3.854666 q 0,-0.242666 0.0093,-0.634666 0.01867,-0.392 0.028,-0.690667 -0.04667,0.056 -0.205333,0.205334 -0.149334,0.14 -0.28,0.252 l -0.765333,0.615999 -0.681334,-0.849333 2.146666,-1.707999 h 1.157333 z"
         style="font-family:'Noto Sans';-inkscape-font-specification:'Noto Sans Bold';stroke:none"
         id="path45158" />
    </g>
    <rect
       style="fill:#dd7eff;fill-opacity:1;stroke-width:2.71107;stroke-linecap:round;stroke-linejoin:round"
       id="rect33856"
       width="30"
       height="30"
       x="68.016533"
       y="18.059776" />
    <rect
       style="fill:#fec27a;fill-opacity:1;stroke-width:2.71107;stroke-linecap:round;stroke-linejoin:round"
       id="rect33938"
       width="30"
       height="30"
       x="68.016525"
       y="138.05978" />
    <rect
       style="fill:#dd7eff;fill-opacity:1;stroke-width:2.71107;stroke-linecap:round;stroke-linejoin:round"
       id="rect33940"
       width="30"
       height="30"
       x="8.016531"
       y="78.059776" />
    <rect
       style="fill:#ff8266;fill-opacity:1;stroke-width:2.71107;stroke-linecap:round;stroke-linejoin:round"
       id="rect44939"
       width="30"
       height="30"
       x="8.016531"
       y="48.059769" />
    <rect
       style="fill:#fec27a;fill-opacity:1;stroke-width:2.71107;stroke-linecap:round;stroke-linejoin:round"
       id="rect45044"
       width="30"
       height="30"
       x="8.016531"
       y="108.05978" />
  </g>
</svg>
