<?xml version="1.0" encoding="UTF-8" standalone="no"?>
<!DOCTYPE svg PUBLIC "-//W3C//DTD SVG 1.1//EN"
 "http://www.w3.org/Graphics/SVG/1.1/DTD/svg11.dtd">
<!-- Generated by graphviz version 2.40.1 (20161225.0304)
 -->
<!-- Title: %0 Pages: 1 -->
<svg width="566pt" height="1494pt"
 viewBox="0.00 0.00 566.00 1494.00" xmlns="http://www.w3.org/2000/svg" xmlns:xlink="http://www.w3.org/1999/xlink">
<g id="graph0" class="graph" transform="scale(1 1) rotate(0) translate(4 1490)">
<title>%0</title>
<g id="a_graph0"><a xlink:title="ERD">
<polygon fill="#ffffff" stroke="transparent" points="-4,4 -4,-1490 562,-1490 562,4 -4,4"/>
</a>
</g>
<!-- background -->
<g id="background" class="node">
<title>background</title>
<polygon fill="#efebdd" stroke="transparent" points="169,-1467 169,-1485 229,-1485 229,-1467 169,-1467"/>
<text text-anchor="start" x="170.6758" y="-1472.2" font-family="Times,serif" font-size="12.00" fill="#000000">background</text>
<polygon fill="#ffffff" stroke="transparent" points="169,-1449 169,-1467 229,-1467 229,-1449 169,-1449"/>
<text text-anchor="start" x="171" y="-1454.2" font-family="Times,serif" font-size="12.00" fill="#444444">parm_nm</text>
<polygon fill="#ffffff" stroke="transparent" points="169,-1431 169,-1449 229,-1449 229,-1431 169,-1431"/>
<text text-anchor="start" x="171" y="-1437.2" font-family="Times,serif" text-decoration="underline" font-size="12.00" fill="#444444">pcode</text>
<polygon fill="#ffffff" stroke="transparent" points="169,-1413 169,-1431 229,-1431 229,-1413 169,-1413"/>
<text text-anchor="start" x="171" y="-1418.2" font-family="Times,serif" font-size="12.00" fill="#444444">bkgrd_min</text>
<polygon fill="#ffffff" stroke="transparent" points="169,-1395 169,-1413 229,-1413 229,-1395 169,-1395"/>
<text text-anchor="start" x="171" y="-1400.2" font-family="Times,serif" font-size="12.00" fill="#444444">bkgrd_max</text>
<polygon fill="#ffffff" stroke="transparent" points="169,-1377 169,-1395 229,-1395 229,-1377 169,-1377"/>
<text text-anchor="start" x="171" y="-1382.2" font-family="Times,serif" font-size="12.00" fill="#444444">reference</text>
<polygon fill="none" stroke="#555555" points="168,-1376 168,-1486 230,-1486 230,-1376 168,-1376"/>
</g>
<!-- parameters -->
<g id="parameters" class="node">
<title>parameters</title>
<polygon fill="#efebdd" stroke="transparent" points="312.5,-1121 312.5,-1139 395.5,-1139 395.5,-1121 312.5,-1121"/>
<text text-anchor="start" x="327.6834" y="-1126.2" font-family="Times,serif" font-size="12.00" fill="#000000">parameters</text>
<polygon fill="#ffffff" stroke="transparent" points="312.5,-1103 312.5,-1121 395.5,-1121 395.5,-1103 312.5,-1103"/>
<text text-anchor="start" x="314.5" y="-1109.2" font-family="Times,serif" text-decoration="underline" font-size="12.00" fill="#444444">pcode</text>
<polygon fill="#ffffff" stroke="transparent" points="312.5,-1085 312.5,-1103 395.5,-1103 395.5,-1085 312.5,-1085"/>
<text text-anchor="start" x="314.5" y="-1090.2" font-family="Times,serif" font-size="12.00" fill="#444444">parm_nm</text>
<polygon fill="#ffffff" stroke="transparent" points="312.5,-1067 312.5,-1085 395.5,-1085 395.5,-1067 312.5,-1067"/>
<text text-anchor="start" x="314.007" y="-1072.2" font-family="Times,serif" font-size="12.00" fill="#444444">parm_group_nm</text>
<polygon fill="#ffffff" stroke="transparent" points="312.5,-1049 312.5,-1067 395.5,-1067 395.5,-1049 312.5,-1049"/>
<text text-anchor="start" x="314.5" y="-1054.2" font-family="Times,serif" font-size="12.00" fill="#444444">casrn</text>
<polygon fill="#ffffff" stroke="transparent" points="312.5,-1031 312.5,-1049 395.5,-1049 395.5,-1031 312.5,-1031"/>
<text text-anchor="start" x="314.5" y="-1036.2" font-family="Times,serif" font-size="12.00" fill="#444444">srsname</text>
<polygon fill="#ffffff" stroke="transparent" points="312.5,-1013 312.5,-1031 395.5,-1031 395.5,-1013 312.5,-1013"/>
<text text-anchor="start" x="314.5" y="-1018.2" font-family="Times,serif" font-size="12.00" fill="#444444">unit_cd</text>
<polygon fill="#ffffff" stroke="transparent" points="312.5,-995 312.5,-1013 395.5,-1013 395.5,-995 312.5,-995"/>
<text text-anchor="start" x="314.5" y="-1000.2" font-family="Times,serif" font-size="12.00" fill="#444444">min_dt</text>
<polygon fill="#ffffff" stroke="transparent" points="312.5,-977 312.5,-995 395.5,-995 395.5,-977 312.5,-977"/>
<text text-anchor="start" x="314.5" y="-982.2" font-family="Times,serif" font-size="12.00" fill="#444444">max_dt</text>
<polygon fill="#ffffff" stroke="transparent" points="312.5,-959 312.5,-977 395.5,-977 395.5,-959 312.5,-959"/>
<text text-anchor="start" x="314.5" y="-964.2" font-family="Times,serif" font-size="12.00" fill="#444444">nrecords</text>
<polygon fill="#ffffff" stroke="transparent" points="312.5,-941 312.5,-959 395.5,-959 395.5,-941 312.5,-941"/>
<text text-anchor="start" x="314.5" y="-946.2" font-family="Times,serif" font-size="12.00" fill="#444444">nsites</text>
<polygon fill="none" stroke="#555555" points="311,-940 311,-1140 396,-1140 396,-940 311,-940"/>
</g>
<!-- background&#45;&gt;parameters -->
<g id="background_1" class="edge">
<title>background:pcode&#45;&gt;parameters:pcode</title>
<path fill="none" stroke="#555555" d="M229,-1440C267.3486,-1440 261.701,-1402.9688 275,-1367 293.5827,-1316.7408 260.0864,-1137.3331 302.5911,-1114.4151"/>
<polygon fill="#555555" stroke="#555555" points="303.6132,-1117.7685 312.5,-1112 301.9556,-1110.9675 303.6132,-1117.7685"/>
</g>
<!-- benchmarks -->
<g id="benchmarks" class="node">
<title>benchmarks</title>
<polygon fill="#efebdd" stroke="transparent" points="154,-1339 154,-1357 245,-1357 245,-1339 154,-1339"/>
<text text-anchor="start" x="170.5116" y="-1344.2" font-family="Times,serif" font-size="12.00" fill="#000000">benchmarks</text>
<polygon fill="#ffffff" stroke="transparent" points="154,-1321 154,-1339 245,-1339 245,-1321 154,-1321"/>
<text text-anchor="start" x="156" y="-1326.2" font-family="Times,serif" font-size="12.00" fill="#444444">parm_nm</text>
<polygon fill="#ffffff" stroke="transparent" points="154,-1303 154,-1321 245,-1321 245,-1303 154,-1303"/>
<text text-anchor="start" x="156" y="-1309.2" font-family="Times,serif" text-decoration="underline" font-size="12.00" fill="#444444">pcode</text>
<polygon fill="#ffffff" stroke="transparent" points="154,-1285 154,-1303 245,-1303 245,-1285 154,-1285"/>
<text text-anchor="start" x="156" y="-1290.2" font-family="Times,serif" font-size="12.00" fill="#444444">mcl</text>
<polygon fill="#ffffff" stroke="transparent" points="154,-1267 154,-1285 245,-1285 245,-1267 154,-1267"/>
<text text-anchor="start" x="156" y="-1272.2" font-family="Times,serif" font-size="12.00" fill="#444444">hhbp_noncancer</text>
<polygon fill="#ffffff" stroke="transparent" points="154,-1249 154,-1267 245,-1267 245,-1249 154,-1249"/>
<text text-anchor="start" x="156" y="-1254.2" font-family="Times,serif" font-size="12.00" fill="#444444">hhbp_cancer_min</text>
<polygon fill="#ffffff" stroke="transparent" points="154,-1231 154,-1249 245,-1249 245,-1231 154,-1231"/>
<text text-anchor="start" x="155.5182" y="-1236.2" font-family="Times,serif" font-size="12.00" fill="#444444">hhbp_cancer_max</text>
<polygon fill="#ffffff" stroke="transparent" points="154,-1213 154,-1231 245,-1231 245,-1213 154,-1213"/>
<text text-anchor="start" x="156" y="-1218.2" font-family="Times,serif" font-size="12.00" fill="#444444">hbsl_noncancer</text>
<polygon fill="#ffffff" stroke="transparent" points="154,-1195 154,-1213 245,-1213 245,-1195 154,-1195"/>
<text text-anchor="start" x="156" y="-1200.2" font-family="Times,serif" font-size="12.00" fill="#444444">hbsl_cancer_min</text>
<polygon fill="#ffffff" stroke="transparent" points="154,-1177 154,-1195 245,-1195 245,-1177 154,-1177"/>
<text text-anchor="start" x="156" y="-1182.2" font-family="Times,serif" font-size="12.00" fill="#444444">hbsl_cancer_max</text>
<polygon fill="#ffffff" stroke="transparent" points="154,-1159 154,-1177 245,-1177 245,-1159 154,-1159"/>
<text text-anchor="start" x="156" y="-1164.2" font-family="Times,serif" font-size="12.00" fill="#444444">remark</text>
<polygon fill="none" stroke="#555555" points="152.5,-1158 152.5,-1358 245.5,-1358 245.5,-1158 152.5,-1158"/>
</g>
<!-- benchmarks&#45;&gt;parameters -->
<g id="benchmarks_1" class="edge">
<title>benchmarks:pcode&#45;&gt;parameters:pcode</title>
<path fill="none" stroke="#555555" d="M245,-1312C288.2428,-1312 269.2573,-1142.0293 302.777,-1115.4714"/>
<polygon fill="#555555" stroke="#555555" points="304.2591,-1118.6587 312.5,-1112 301.9054,-1112.0662 304.2591,-1118.6587"/>
</g>
<!-- cities -->
<g id="cities" class="node">
<title>cities</title>
<polygon fill="#efebdd" stroke="transparent" points="27,-751 27,-769 76,-769 76,-751 27,-751"/>
<text text-anchor="start" x="38.8376" y="-756.2" font-family="Times,serif" font-size="12.00" fill="#000000">cities</text>
<polygon fill="#ffffff" stroke="transparent" points="27,-733 27,-751 76,-751 76,-733 27,-733"/>
<text text-anchor="start" x="29" y="-738.2" font-family="Times,serif" font-size="12.00" fill="#444444">name</text>
<polygon fill="#ffffff" stroke="transparent" points="27,-715 27,-733 76,-733 76,-715 27,-715"/>
<text text-anchor="start" x="29" y="-721.2" font-family="Times,serif" text-decoration="underline" font-size="12.00" fill="#444444">id</text>
<polygon fill="#ffffff" stroke="transparent" points="27,-697 27,-715 76,-715 76,-697 27,-697"/>
<text text-anchor="start" x="28.841" y="-702.2" font-family="Times,serif" font-size="12.00" fill="#444444">geometry</text>
<polygon fill="none" stroke="#555555" points="25.5,-696 25.5,-770 76.5,-770 76.5,-696 25.5,-696"/>
</g>
<!-- counties -->
<g id="counties" class="node">
<title>counties</title>
<polygon fill="#efebdd" stroke="transparent" points="27,-631 27,-649 76,-649 76,-631 27,-631"/>
<text text-anchor="start" x="31.505" y="-636.2" font-family="Times,serif" font-size="12.00" fill="#000000">counties</text>
<polygon fill="#ffffff" stroke="transparent" points="27,-613 27,-631 76,-631 76,-613 27,-613"/>
<text text-anchor="start" x="29" y="-618.2" font-family="Times,serif" font-size="12.00" fill="#444444">name</text>
<polygon fill="#ffffff" stroke="transparent" points="27,-595 27,-613 76,-613 76,-595 27,-595"/>
<text text-anchor="start" x="29" y="-601.2" font-family="Times,serif" text-decoration="underline" font-size="12.00" fill="#444444">id</text>
<polygon fill="#ffffff" stroke="transparent" points="27,-577 27,-595 76,-595 76,-577 27,-577"/>
<text text-anchor="start" x="28.841" y="-582.2" font-family="Times,serif" font-size="12.00" fill="#444444">geometry</text>
<polygon fill="none" stroke="#555555" points="25.5,-576 25.5,-650 76.5,-650 76.5,-576 25.5,-576"/>
</g>
<!-- dl -->
<g id="dl" class="node">
<title>dl</title>
<polygon fill="#efebdd" stroke="transparent" points="160,-1121 160,-1139 238,-1139 238,-1121 160,-1121"/>
<text text-anchor="start" x="194.3326" y="-1126.2" font-family="Times,serif" font-size="12.00" fill="#000000">dl</text>
<polygon fill="#ffffff" stroke="transparent" points="160,-1103 160,-1121 238,-1121 238,-1103 160,-1103"/>
<text text-anchor="start" x="162" y="-1108.2" font-family="Times,serif" font-size="12.00" fill="#444444">parm_nm</text>
<polygon fill="#ffffff" stroke="transparent" points="160,-1085 160,-1103 238,-1103 238,-1085 160,-1085"/>
<text text-anchor="start" x="162" y="-1090.2" font-family="Times,serif" font-size="12.00" fill="#444444">pcode</text>
<polygon fill="#ffffff" stroke="transparent" points="160,-1067 160,-1085 238,-1085 238,-1067 160,-1067"/>
<text text-anchor="start" x="161.6728" y="-1072.2" font-family="Times,serif" font-size="12.00" fill="#444444">lab_det_lim_va</text>
<polygon fill="#ffffff" stroke="transparent" points="160,-1049 160,-1067 238,-1067 238,-1049 160,-1049"/>
<text text-anchor="start" x="162" y="-1054.2" font-family="Times,serif" font-size="12.00" fill="#444444">min_dt</text>
<polygon fill="#ffffff" stroke="transparent" points="160,-1031 160,-1049 238,-1049 238,-1031 160,-1031"/>
<text text-anchor="start" x="162" y="-1036.2" font-family="Times,serif" font-size="12.00" fill="#444444">reference</text>
<polygon fill="#ffffff" stroke="transparent" points="160,-1013 160,-1031 238,-1031 238,-1013 160,-1013"/>
<text text-anchor="start" x="162" y="-1019.2" font-family="Times,serif" text-decoration="underline" font-size="12.00" fill="#444444">pcode, min_dt</text>
<polygon fill="none" stroke="#555555" points="159,-1012 159,-1140 239,-1140 239,-1012 159,-1012"/>
</g>
<!-- dl&#45;&gt;parameters -->
<g id="dl_1" class="edge">
<title>dl:pcode&#45;&gt;parameters:pcode</title>
<path fill="none" stroke="#555555" d="M238,-1094C268.3381,-1094 276.7109,-1108.2778 302.2441,-1111.4011"/>
<polygon fill="#555555" stroke="#555555" points="302.3129,-1114.911 312.5,-1112 302.7211,-1107.9229 302.3129,-1114.911"/>
</g>
<!-- esrp -->
<g id="esrp" class="node">
<title>esrp</title>
<polygon fill="#efebdd" stroke="transparent" points="3,-523 3,-541 52,-541 52,-523 3,-523"/>
<text text-anchor="start" x="17.5058" y="-528.2" font-family="Times,serif" font-size="12.00" fill="#000000">esrp</text>
<polygon fill="#ffffff" stroke="transparent" points="3,-505 3,-523 52,-523 52,-505 3,-505"/>
<text text-anchor="start" x="4.841" y="-510.2" font-family="Times,serif" font-size="12.00" fill="#444444">geometry</text>
<polygon fill="none" stroke="#555555" points="1.5,-504 1.5,-542 52.5,-542 52.5,-504 1.5,-504"/>
</g>
<!-- facilities -->
<g id="facilities" class="node">
<title>facilities</title>
<polygon fill="#efebdd" stroke="transparent" points="459,-859 459,-877 508,-877 508,-859 459,-859"/>
<text text-anchor="start" x="462.842" y="-864.2" font-family="Times,serif" font-size="12.00" fill="#000000">facilities</text>
<polygon fill="#ffffff" stroke="transparent" points="459,-841 459,-859 508,-859 508,-841 459,-841"/>
<text text-anchor="start" x="461" y="-846.2" font-family="Times,serif" font-size="12.00" fill="#444444">name</text>
<polygon fill="#ffffff" stroke="transparent" points="459,-823 459,-841 508,-841 508,-823 459,-823"/>
<text text-anchor="start" x="461" y="-829.2" font-family="Times,serif" text-decoration="underline" font-size="12.00" fill="#444444">id</text>
<polygon fill="#ffffff" stroke="transparent" points="459,-805 459,-823 508,-823 508,-805 459,-805"/>
<text text-anchor="start" x="460.841" y="-810.2" font-family="Times,serif" font-size="12.00" fill="#444444">geometry</text>
<polygon fill="none" stroke="#555555" points="457.5,-804 457.5,-878 508.5,-878 508.5,-804 457.5,-804"/>
</g>
<!-- gwl -->
<g id="gwl" class="node">
<title>gwl</title>
<polygon fill="#efebdd" stroke="transparent" points="128,-487 128,-505 270,-505 270,-487 128,-487"/>
<text text-anchor="start" x="190.0012" y="-492.2" font-family="Times,serif" font-size="12.00" fill="#000000">gwl</text>
<polygon fill="#ffffff" stroke="transparent" points="128,-469 128,-487 270,-487 270,-469 128,-469"/>
<text text-anchor="start" x="130" y="-474.2" font-family="Times,serif" font-size="12.00" fill="#444444">site_nm</text>
<polygon fill="#ffffff" stroke="transparent" points="128,-451 128,-469 270,-469 270,-451 128,-451"/>
<text text-anchor="start" x="130" y="-456.2" font-family="Times,serif" font-size="12.00" fill="#444444">site_no</text>
<polygon fill="#ffffff" stroke="transparent" points="128,-433 128,-451 270,-451 270,-433 128,-433"/>
<text text-anchor="start" x="130" y="-438.2" font-family="Times,serif" font-size="12.00" fill="#444444">lev_dt</text>
<polygon fill="#ffffff" stroke="transparent" points="128,-415 128,-433 270,-433 270,-415 128,-415"/>
<text text-anchor="start" x="130" y="-420.2" font-family="Times,serif" font-size="12.00" fill="#444444">lev_meth_cd</text>
<polygon fill="#ffffff" stroke="transparent" points="128,-397 128,-415 270,-415 270,-397 128,-397"/>
<text text-anchor="start" x="130" y="-402.2" font-family="Times,serif" font-size="12.00" fill="#444444">lev_status_cd</text>
<polygon fill="#ffffff" stroke="transparent" points="128,-379 128,-397 270,-397 270,-379 128,-379"/>
<text text-anchor="start" x="130" y="-384.2" font-family="Times,serif" font-size="12.00" fill="#444444">lev_age_cd</text>
<polygon fill="#ffffff" stroke="transparent" points="128,-361 128,-379 270,-379 270,-361 128,-361"/>
<text text-anchor="start" x="130" y="-366.2" font-family="Times,serif" font-size="12.00" fill="#444444">lev_va</text>
<polygon fill="#ffffff" stroke="transparent" points="128,-343 128,-361 270,-361 270,-343 128,-343"/>
<text text-anchor="start" x="130" y="-348.2" font-family="Times,serif" font-size="12.00" fill="#444444">sl_lev_va</text>
<polygon fill="#ffffff" stroke="transparent" points="128,-325 128,-343 270,-343 270,-325 128,-325"/>
<text text-anchor="start" x="130" y="-330.2" font-family="Times,serif" font-size="12.00" fill="#444444">lev_acy_va</text>
<polygon fill="#ffffff" stroke="transparent" points="128,-307 128,-325 270,-325 270,-307 128,-307"/>
<text text-anchor="start" x="130" y="-312.2" font-family="Times,serif" font-size="12.00" fill="#444444">sl_lev_acy_va</text>
<polygon fill="#ffffff" stroke="transparent" points="128,-289 128,-307 270,-307 270,-289 128,-289"/>
<text text-anchor="start" x="129.6778" y="-295.2" font-family="Times,serif" text-decoration="underline" font-size="12.00" fill="#444444">site_no, lev_dt, lev_meth_cd</text>
<polygon fill="none" stroke="#555555" points="127,-288 127,-506 271,-506 271,-288 127,-288"/>
</g>
<!-- sites -->
<g id="sites" class="node">
<title>sites</title>
<polygon fill="#efebdd" stroke="transparent" points="314.5,-469 314.5,-487 392.5,-487 392.5,-469 314.5,-469"/>
<text text-anchor="start" x="342.835" y="-474.2" font-family="Times,serif" font-size="12.00" fill="#000000">sites</text>
<polygon fill="#ffffff" stroke="transparent" points="314.5,-451 314.5,-469 392.5,-469 392.5,-451 314.5,-451"/>
<text text-anchor="start" x="316.5" y="-457.2" font-family="Times,serif" text-decoration="underline" font-size="12.00" fill="#444444">site_no</text>
<polygon fill="#ffffff" stroke="transparent" points="314.5,-433 314.5,-451 392.5,-451 392.5,-433 314.5,-433"/>
<text text-anchor="start" x="316.5" y="-438.2" font-family="Times,serif" font-size="12.00" fill="#444444">site_nm</text>
<polygon fill="#ffffff" stroke="transparent" points="314.5,-415 314.5,-433 392.5,-433 392.5,-415 314.5,-415"/>
<text text-anchor="start" x="316.5" y="-420.2" font-family="Times,serif" font-size="12.00" fill="#444444">station_nm</text>
<polygon fill="#ffffff" stroke="transparent" points="314.5,-397 314.5,-415 392.5,-415 392.5,-397 314.5,-397"/>
<text text-anchor="start" x="316.1776" y="-402.2" font-family="Times,serif" font-size="12.00" fill="#444444">coord_meth_cd</text>
<polygon fill="#ffffff" stroke="transparent" points="314.5,-379 314.5,-397 392.5,-397 392.5,-379 314.5,-379"/>
<text text-anchor="start" x="316.5" y="-384.2" font-family="Times,serif" font-size="12.00" fill="#444444">coord_acy_va</text>
<polygon fill="#ffffff" stroke="transparent" points="314.5,-361 314.5,-379 392.5,-379 392.5,-361 314.5,-361"/>
<text text-anchor="start" x="316.5" y="-366.2" font-family="Times,serif" font-size="12.00" fill="#444444">alt_va</text>
<polygon fill="#ffffff" stroke="transparent" points="314.5,-343 314.5,-361 392.5,-361 392.5,-343 314.5,-343"/>
<text text-anchor="start" x="316.5" y="-348.2" font-family="Times,serif" font-size="12.00" fill="#444444">alt_meth_cd</text>
<polygon fill="#ffffff" stroke="transparent" points="314.5,-325 314.5,-343 392.5,-343 392.5,-325 314.5,-325"/>
<text text-anchor="start" x="316.5" y="-330.2" font-family="Times,serif" font-size="12.00" fill="#444444">alt_acy_va</text>
<polygon fill="#ffffff" stroke="transparent" points="314.5,-307 314.5,-325 392.5,-325 392.5,-307 314.5,-307"/>
<text text-anchor="start" x="316.5" y="-312.2" font-family="Times,serif" font-size="12.00" fill="#444444">huc_cd</text>
<polygon fill="#ffffff" stroke="transparent" points="314.5,-289 314.5,-307 392.5,-307 392.5,-289 314.5,-289"/>
<text text-anchor="start" x="316.1728" y="-294.2" font-family="Times,serif" font-size="12.00" fill="#444444">construction_dt</text>
<polygon fill="#ffffff" stroke="transparent" points="314.5,-271 314.5,-289 392.5,-289 392.5,-271 314.5,-271"/>
<text text-anchor="start" x="316.5" y="-276.2" font-family="Times,serif" font-size="12.00" fill="#444444">reliability_cd</text>
<polygon fill="#ffffff" stroke="transparent" points="314.5,-253 314.5,-271 392.5,-271 392.5,-253 314.5,-253"/>
<text text-anchor="start" x="316.5" y="-258.2" font-family="Times,serif" font-size="12.00" fill="#444444">nat_aqfr_cd</text>
<polygon fill="#ffffff" stroke="transparent" points="314.5,-235 314.5,-253 392.5,-253 392.5,-235 314.5,-235"/>
<text text-anchor="start" x="316.5" y="-240.2" font-family="Times,serif" font-size="12.00" fill="#444444">aqfr_cd</text>
<polygon fill="#ffffff" stroke="transparent" points="314.5,-217 314.5,-235 392.5,-235 392.5,-217 314.5,-217"/>
<text text-anchor="start" x="316.5" y="-222.2" font-family="Times,serif" font-size="12.00" fill="#444444">aqfr_type_cd</text>
<polygon fill="#ffffff" stroke="transparent" points="314.5,-199 314.5,-217 392.5,-217 392.5,-199 314.5,-199"/>
<text text-anchor="start" x="316.5" y="-204.2" font-family="Times,serif" font-size="12.00" fill="#444444">well_depth_va</text>
<polygon fill="#ffffff" stroke="transparent" points="314.5,-181 314.5,-199 392.5,-199 392.5,-181 314.5,-181"/>
<text text-anchor="start" x="316.5" y="-186.2" font-family="Times,serif" font-size="12.00" fill="#444444">hole_depth_va</text>
<polygon fill="#ffffff" stroke="transparent" points="314.5,-163 314.5,-181 392.5,-181 392.5,-163 314.5,-163"/>
<text text-anchor="start" x="316.5" y="-168.2" font-family="Times,serif" font-size="12.00" fill="#444444">depth_src_cd</text>
<polygon fill="#ffffff" stroke="transparent" points="314.5,-145 314.5,-163 392.5,-163 392.5,-145 314.5,-145"/>
<text text-anchor="start" x="316.5" y="-150.2" font-family="Times,serif" font-size="12.00" fill="#444444">completion_cd</text>
<polygon fill="#ffffff" stroke="transparent" points="314.5,-127 314.5,-145 392.5,-145 392.5,-127 314.5,-127"/>
<text text-anchor="start" x="316.5" y="-132.2" font-family="Times,serif" font-size="12.00" fill="#444444">network_cd</text>
<polygon fill="#ffffff" stroke="transparent" points="314.5,-109 314.5,-127 392.5,-127 392.5,-109 314.5,-109"/>
<text text-anchor="start" x="316.5" y="-114.2" font-family="Times,serif" font-size="12.00" fill="#444444">pos</text>
<polygon fill="#ffffff" stroke="transparent" points="314.5,-91 314.5,-109 392.5,-109 392.5,-91 314.5,-91"/>
<text text-anchor="start" x="316.5" y="-96.2" font-family="Times,serif" font-size="12.00" fill="#444444">min_dt</text>
<polygon fill="#ffffff" stroke="transparent" points="314.5,-73 314.5,-91 392.5,-91 392.5,-73 314.5,-73"/>
<text text-anchor="start" x="316.5" y="-78.2" font-family="Times,serif" font-size="12.00" fill="#444444">max_dt</text>
<polygon fill="#ffffff" stroke="transparent" points="314.5,-55 314.5,-73 392.5,-73 392.5,-55 314.5,-55"/>
<text text-anchor="start" x="316.5" y="-60.2" font-family="Times,serif" font-size="12.00" fill="#444444">nmeas</text>
<polygon fill="#ffffff" stroke="transparent" points="314.5,-37 314.5,-55 392.5,-55 392.5,-37 314.5,-37"/>
<text text-anchor="start" x="316.5" y="-42.2" font-family="Times,serif" font-size="12.00" fill="#444444">nsamples</text>
<polygon fill="#ffffff" stroke="transparent" points="314.5,-19 314.5,-37 392.5,-37 392.5,-19 314.5,-19"/>
<text text-anchor="start" x="316.5" y="-24.2" font-family="Times,serif" font-size="12.00" fill="#444444">nreps</text>
<polygon fill="#ffffff" stroke="transparent" points="314.5,-1 314.5,-19 392.5,-19 392.5,-1 314.5,-1"/>
<text text-anchor="start" x="316.5" y="-6.2" font-family="Times,serif" font-size="12.00" fill="#444444">geometry</text>
<polygon fill="none" stroke="#555555" points="313.5,0 313.5,-488 393.5,-488 393.5,0 313.5,0"/>
</g>
<!-- gwl&#45;&gt;sites -->
<g id="gwl_1" class="edge">
<title>gwl:site_no&#45;&gt;sites:site_no</title>
<path fill="none" stroke="#555555" d="M270,-460C285.9149,-460 292.225,-460 304.388,-460"/>
<polygon fill="#555555" stroke="#555555" points="304.5,-463.5001 314.5,-460 304.5,-456.5001 304.5,-463.5001"/>
</g>
<!-- idaho -->
<g id="idaho" class="node">
<title>idaho</title>
<polygon fill="#efebdd" stroke="transparent" points="459,-763 459,-781 508,-781 508,-763 459,-763"/>
<text text-anchor="start" x="470.1692" y="-768.2" font-family="Times,serif" font-size="12.00" fill="#000000">idaho</text>
<polygon fill="#ffffff" stroke="transparent" points="459,-745 459,-763 508,-763 508,-745 459,-745"/>
<text text-anchor="start" x="460.841" y="-750.2" font-family="Times,serif" font-size="12.00" fill="#444444">geometry</text>
<polygon fill="none" stroke="#555555" points="457.5,-744 457.5,-782 508.5,-782 508.5,-744 457.5,-744"/>
</g>
<!-- inl -->
<g id="inl" class="node">
<title>inl</title>
<polygon fill="#efebdd" stroke="transparent" points="315,-571 315,-589 364,-589 364,-571 315,-571"/>
<text text-anchor="start" x="333.1652" y="-576.2" font-family="Times,serif" font-size="12.00" fill="#000000">inl</text>
<polygon fill="#ffffff" stroke="transparent" points="315,-553 315,-571 364,-571 364,-553 315,-553"/>
<text text-anchor="start" x="316.841" y="-558.2" font-family="Times,serif" font-size="12.00" fill="#444444">geometry</text>
<polygon fill="none" stroke="#555555" points="313.5,-552 313.5,-590 364.5,-590 364.5,-552 313.5,-552"/>
</g>
<!-- iwd -->
<g id="iwd" class="node">
<title>iwd</title>
<polygon fill="#efebdd" stroke="transparent" points="435,-523 435,-541 484,-541 484,-523 435,-523"/>
<text text-anchor="start" x="450.5012" y="-528.2" font-family="Times,serif" font-size="12.00" fill="#000000">iwd</text>
<polygon fill="#ffffff" stroke="transparent" points="435,-505 435,-523 484,-523 484,-505 435,-505"/>
<text text-anchor="start" x="436.841" y="-510.2" font-family="Times,serif" font-size="12.00" fill="#444444">geometry</text>
<polygon fill="none" stroke="#555555" points="433.5,-504 433.5,-542 484.5,-542 484.5,-504 433.5,-504"/>
</g>
<!-- lakes -->
<g id="lakes" class="node">
<title>lakes</title>
<polygon fill="#efebdd" stroke="transparent" points="409,-685 409,-703 461,-703 461,-685 409,-685"/>
<text text-anchor="start" x="422.6724" y="-690.2" font-family="Times,serif" font-size="12.00" fill="#000000">lakes</text>
<polygon fill="#ffffff" stroke="transparent" points="409,-667 409,-685 461,-685 461,-667 409,-667"/>
<text text-anchor="start" x="411" y="-672.2" font-family="Times,serif" font-size="12.00" fill="#444444">gnis_nm</text>
<polygon fill="#ffffff" stroke="transparent" points="409,-649 409,-667 461,-667 461,-649 409,-649"/>
<text text-anchor="start" x="411" y="-655.2" font-family="Times,serif" text-decoration="underline" font-size="12.00" fill="#444444">id</text>
<polygon fill="#ffffff" stroke="transparent" points="409,-631 409,-649 461,-649 461,-631 409,-631"/>
<text text-anchor="start" x="411" y="-636.2" font-family="Times,serif" font-size="12.00" fill="#444444">reach_cd</text>
<polygon fill="#ffffff" stroke="transparent" points="409,-613 409,-631 461,-631 461,-613 409,-613"/>
<text text-anchor="start" x="411" y="-618.2" font-family="Times,serif" font-size="12.00" fill="#444444">gnis_id</text>
<polygon fill="#ffffff" stroke="transparent" points="409,-595 409,-613 461,-613 461,-595 409,-595"/>
<text text-anchor="start" x="410.6802" y="-600.2" font-family="Times,serif" font-size="12.00" fill="#444444">feature_tp</text>
<polygon fill="#ffffff" stroke="transparent" points="409,-577 409,-595 461,-595 461,-577 409,-577"/>
<text text-anchor="start" x="411" y="-582.2" font-family="Times,serif" font-size="12.00" fill="#444444">geometry</text>
<polygon fill="none" stroke="#555555" points="408,-576 408,-704 462,-704 462,-576 408,-576"/>
</g>
<!-- mountains -->
<g id="mountains" class="node">
<title>mountains</title>
<polygon fill="#efebdd" stroke="transparent" points="504.5,-613 504.5,-631 557.5,-631 557.5,-613 504.5,-613"/>
<text text-anchor="start" x="506.001" y="-618.2" font-family="Times,serif" font-size="12.00" fill="#000000">mountains</text>
<polygon fill="#ffffff" stroke="transparent" points="504.5,-595 504.5,-613 557.5,-613 557.5,-595 504.5,-595"/>
<text text-anchor="start" x="506.5" y="-600.2" font-family="Times,serif" font-size="12.00" fill="#444444">name</text>
<polygon fill="#ffffff" stroke="transparent" points="504.5,-577 504.5,-595 557.5,-595 557.5,-577 504.5,-577"/>
<text text-anchor="start" x="506.5" y="-582.2" font-family="Times,serif" font-size="12.00" fill="#444444">geometry</text>
<polygon fill="none" stroke="#555555" points="503,-576 503,-632 558,-632 558,-576 503,-576"/>
</g>
<!-- units -->
<g id="units" class="node">
<title>units</title>
<polygon fill="#efebdd" stroke="transparent" points="440,-976 440,-994 479,-994 479,-976 440,-976"/>
<text text-anchor="start" x="447.8318" y="-981.2" font-family="Times,serif" font-size="12.00" fill="#000000">units</text>
<polygon fill="#ffffff" stroke="transparent" points="440,-958 440,-976 479,-976 479,-958 440,-958"/>
<text text-anchor="start" x="441.5018" y="-964.2" font-family="Times,serif" text-decoration="underline" font-size="12.00" fill="#444444">unit_cd</text>
<polygon fill="#ffffff" stroke="transparent" points="440,-940 440,-958 479,-958 479,-940 440,-940"/>
<text text-anchor="start" x="441.8318" y="-945.2" font-family="Times,serif" font-size="12.00" fill="#444444">unit_ds</text>
<polygon fill="#ffffff" stroke="transparent" points="440,-922 440,-940 479,-940 479,-922 440,-922"/>
<text text-anchor="start" x="442" y="-927.2" font-family="Times,serif" font-size="12.00" fill="#444444">siunitx</text>
<polygon fill="none" stroke="#555555" points="438.5,-921 438.5,-995 479.5,-995 479.5,-921 438.5,-921"/>
</g>
<!-- parameters&#45;&gt;units -->
<g id="parameters_1" class="edge">
<title>parameters:unit_cd&#45;&gt;units:unit_cd</title>
<path fill="none" stroke="#555555" d="M395.5,-1022C422.7674,-1022 412.5616,-980.6392 429.8752,-969.6528"/>
<polygon fill="#555555" stroke="#555555" points="431.2136,-972.9203 440,-967 429.4394,-966.1489 431.2136,-972.9203"/>
</g>
<!-- percponds -->
<g id="percponds" class="node">
<title>percponds</title>
<polygon fill="#efebdd" stroke="transparent" points="366.5,-859 366.5,-877 419.5,-877 419.5,-859 366.5,-859"/>
<text text-anchor="start" x="368.3424" y="-864.2" font-family="Times,serif" font-size="12.00" fill="#000000">percponds</text>
<polygon fill="#ffffff" stroke="transparent" points="366.5,-841 366.5,-859 419.5,-859 419.5,-841 366.5,-841"/>
<text text-anchor="start" x="368.5" y="-846.2" font-family="Times,serif" font-size="12.00" fill="#444444">name</text>
<polygon fill="#ffffff" stroke="transparent" points="366.5,-823 366.5,-841 419.5,-841 419.5,-823 366.5,-823"/>
<text text-anchor="start" x="368.3388" y="-828.2" font-family="Times,serif" font-size="12.00" fill="#444444">facility_id</text>
<polygon fill="#ffffff" stroke="transparent" points="366.5,-805 366.5,-823 419.5,-823 419.5,-805 366.5,-805"/>
<text text-anchor="start" x="368.5" y="-810.2" font-family="Times,serif" font-size="12.00" fill="#444444">min_dt</text>
<polygon fill="#ffffff" stroke="transparent" points="366.5,-787 366.5,-805 419.5,-805 419.5,-787 366.5,-787"/>
<text text-anchor="start" x="368.5" y="-792.2" font-family="Times,serif" font-size="12.00" fill="#444444">max_dt</text>
<polygon fill="#ffffff" stroke="transparent" points="366.5,-769 366.5,-787 419.5,-787 419.5,-769 366.5,-769"/>
<text text-anchor="start" x="368.5" y="-774.2" font-family="Times,serif" font-size="12.00" fill="#444444">geometry</text>
<polygon fill="none" stroke="#555555" points="365,-768 365,-878 420,-878 420,-768 365,-768"/>
</g>
<!-- percponds&#45;&gt;facilities -->
<g id="percponds_1" class="edge">
<title>percponds:facility_id&#45;&gt;facilities:id</title>
<path fill="none" stroke="#555555" d="M419.5,-832C433.0781,-832 438.7799,-832 448.789,-832"/>
<polygon fill="#555555" stroke="#555555" points="449,-835.5001 459,-832 449,-828.5001 449,-835.5001"/>
</g>
<!-- roads -->
<g id="roads" class="node">
<title>roads</title>
<polygon fill="#efebdd" stroke="transparent" points="27,-889 27,-907 76,-907 76,-889 27,-889"/>
<text text-anchor="start" x="38.5058" y="-894.2" font-family="Times,serif" font-size="12.00" fill="#000000">roads</text>
<polygon fill="#ffffff" stroke="transparent" points="27,-871 27,-889 76,-889 76,-871 27,-871"/>
<text text-anchor="start" x="29" y="-876.2" font-family="Times,serif" font-size="12.00" fill="#444444">name</text>
<polygon fill="#ffffff" stroke="transparent" points="27,-853 27,-871 76,-871 76,-853 27,-853"/>
<text text-anchor="start" x="29" y="-859.2" font-family="Times,serif" text-decoration="underline" font-size="12.00" fill="#444444">id</text>
<polygon fill="#ffffff" stroke="transparent" points="27,-835 27,-853 76,-853 76,-835 27,-835"/>
<text text-anchor="start" x="29" y="-840.2" font-family="Times,serif" font-size="12.00" fill="#444444">prisec_fl</text>
<polygon fill="#ffffff" stroke="transparent" points="27,-817 27,-835 76,-835 76,-817 27,-817"/>
<text text-anchor="start" x="28.841" y="-822.2" font-family="Times,serif" font-size="12.00" fill="#444444">geometry</text>
<polygon fill="none" stroke="#555555" points="25.5,-816 25.5,-908 76.5,-908 76.5,-816 25.5,-816"/>
</g>
<!-- samples -->
<g id="samples" class="node">
<title>samples</title>
<polygon fill="#efebdd" stroke="transparent" points="124,-975 124,-993 274,-993 274,-975 124,-975"/>
<text text-anchor="start" x="179.6716" y="-980.2" font-family="Times,serif" font-size="12.00" fill="#000000">samples</text>
<polygon fill="#ffffff" stroke="transparent" points="124,-957 124,-975 274,-975 274,-957 124,-957"/>
<text text-anchor="start" x="126" y="-962.2" font-family="Times,serif" font-size="12.00" fill="#444444">site_nm</text>
<polygon fill="#ffffff" stroke="transparent" points="124,-939 124,-957 274,-957 274,-939 124,-939"/>
<text text-anchor="start" x="126" y="-944.2" font-family="Times,serif" font-size="12.00" fill="#444444">sample_dt</text>
<polygon fill="#ffffff" stroke="transparent" points="124,-921 124,-939 274,-939 274,-921 124,-921"/>
<text text-anchor="start" x="126" y="-926.2" font-family="Times,serif" font-size="12.00" fill="#444444">parm_short_nm</text>
<polygon fill="#ffffff" stroke="transparent" points="124,-903 124,-921 274,-921 274,-903 124,-903"/>
<text text-anchor="start" x="126" y="-908.2" font-family="Times,serif" font-size="12.00" fill="#444444">unit_cd</text>
<polygon fill="#ffffff" stroke="transparent" points="124,-885 124,-903 274,-903 274,-885 124,-885"/>
<text text-anchor="start" x="126" y="-890.2" font-family="Times,serif" font-size="12.00" fill="#444444">remark_cd</text>
<polygon fill="#ffffff" stroke="transparent" points="124,-867 124,-885 274,-885 274,-867 124,-867"/>
<text text-anchor="start" x="126" y="-872.2" font-family="Times,serif" font-size="12.00" fill="#444444">result_va</text>
<polygon fill="#ffffff" stroke="transparent" points="124,-849 124,-867 274,-867 274,-849 124,-849"/>
<text text-anchor="start" x="126" y="-854.2" font-family="Times,serif" font-size="12.00" fill="#444444">lab_sd_va</text>
<polygon fill="#ffffff" stroke="transparent" points="124,-831 124,-849 274,-849 274,-831 124,-831"/>
<text text-anchor="start" x="126" y="-836.2" font-family="Times,serif" font-size="12.00" fill="#444444">lab_li_va</text>
<polygon fill="#ffffff" stroke="transparent" points="124,-813 124,-831 274,-831 274,-813 124,-813"/>
<text text-anchor="start" x="126" y="-818.2" font-family="Times,serif" font-size="12.00" fill="#444444">lab_ui_va</text>
<polygon fill="#ffffff" stroke="transparent" points="124,-795 124,-813 274,-813 274,-795 124,-795"/>
<text text-anchor="start" x="126" y="-800.2" font-family="Times,serif" font-size="12.00" fill="#444444">rpt_lev_va</text>
<polygon fill="#ffffff" stroke="transparent" points="124,-777 124,-795 274,-795 274,-777 124,-777"/>
<text text-anchor="start" x="126" y="-782.2" font-family="Times,serif" font-size="12.00" fill="#444444">rpt_lev_cd</text>
<polygon fill="#ffffff" stroke="transparent" points="124,-759 124,-777 274,-777 274,-759 124,-759"/>
<text text-anchor="start" x="126" y="-764.2" font-family="Times,serif" font-size="12.00" fill="#444444">medium_cd</text>
<polygon fill="#ffffff" stroke="transparent" points="124,-741 124,-759 274,-759 274,-741 124,-741"/>
<text text-anchor="start" x="126" y="-746.2" font-family="Times,serif" font-size="12.00" fill="#444444">anl_ent_cd</text>
<polygon fill="#ffffff" stroke="transparent" points="124,-723 124,-741 274,-741 274,-723 124,-723"/>
<text text-anchor="start" x="126" y="-728.2" font-family="Times,serif" font-size="12.00" fill="#444444">dqi_cd</text>
<polygon fill="#ffffff" stroke="transparent" points="124,-705 124,-723 274,-723 274,-705 124,-705"/>
<text text-anchor="start" x="126" y="-710.2" font-family="Times,serif" font-size="12.00" fill="#444444">meth_cd</text>
<polygon fill="#ffffff" stroke="transparent" points="124,-687 124,-705 274,-705 274,-687 124,-687"/>
<text text-anchor="start" x="126" y="-692.2" font-family="Times,serif" font-size="12.00" fill="#444444">sample_type_cd</text>
<polygon fill="#ffffff" stroke="transparent" points="124,-669 124,-687 274,-687 274,-669 124,-669"/>
<text text-anchor="start" x="126" y="-674.2" font-family="Times,serif" font-size="12.00" fill="#444444">db_no</text>
<polygon fill="#ffffff" stroke="transparent" points="124,-651 124,-669 274,-669 274,-651 124,-651"/>
<text text-anchor="start" x="126" y="-656.2" font-family="Times,serif" font-size="12.00" fill="#444444">sample_id</text>
<polygon fill="#ffffff" stroke="transparent" points="124,-633 124,-651 274,-651 274,-633 124,-633"/>
<text text-anchor="start" x="126" y="-638.2" font-family="Times,serif" font-size="12.00" fill="#444444">site_no</text>
<polygon fill="#ffffff" stroke="transparent" points="124,-615 124,-633 274,-633 274,-615 124,-615"/>
<text text-anchor="start" x="126" y="-620.2" font-family="Times,serif" font-size="12.00" fill="#444444">pcode</text>
<polygon fill="#ffffff" stroke="transparent" points="124,-597 124,-615 274,-615 274,-597 124,-597"/>
<text text-anchor="start" x="126" y="-602.2" font-family="Times,serif" font-size="12.00" fill="#444444">rep_pair_id</text>
<polygon fill="#ffffff" stroke="transparent" points="124,-579 124,-597 274,-597 274,-579 124,-579"/>
<text text-anchor="start" x="126" y="-584.2" font-family="Times,serif" font-size="12.00" fill="#444444">result_tx</text>
<polygon fill="#ffffff" stroke="transparent" points="124,-561 124,-579 274,-579 274,-561 124,-561"/>
<text text-anchor="start" x="126" y="-566.2" font-family="Times,serif" font-size="12.00" fill="#444444">remark</text>
<polygon fill="#ffffff" stroke="transparent" points="124,-543 124,-561 274,-561 274,-543 124,-543"/>
<text text-anchor="start" x="126" y="-548.2" font-family="Times,serif" font-size="12.00" fill="#444444">anl_dt</text>
<polygon fill="#ffffff" stroke="transparent" points="124,-525 124,-543 274,-543 274,-525 124,-525"/>
<text text-anchor="start" x="125.6818" y="-531.2" font-family="Times,serif" text-decoration="underline" font-size="12.00" fill="#444444">sample_id, pcode, medium_cd</text>
<polygon fill="none" stroke="#555555" points="123,-524 123,-994 275,-994 275,-524 123,-524"/>
</g>
<!-- samples&#45;&gt;parameters -->
<g id="samples_1" class="edge">
<title>samples:pcode&#45;&gt;parameters:pcode</title>
<path fill="none" stroke="#555555" d="M274,-624C379.1695,-624 215.2921,-1080.1317 302.5953,-1110.4217"/>
<polygon fill="#555555" stroke="#555555" points="302.0738,-1113.8827 312.5,-1112 303.1754,-1106.9699 302.0738,-1113.8827"/>
</g>
<!-- samples&#45;&gt;sites -->
<g id="samples_2" class="edge">
<title>samples:site_no&#45;&gt;sites:site_no</title>
<path fill="none" stroke="#555555" d="M274,-642C353.1449,-642 242.4642,-475.9843 304.5544,-461.0688"/>
<polygon fill="#555555" stroke="#555555" points="304.9313,-464.5486 314.5,-460 304.1832,-457.5886 304.9313,-464.5486"/>
</g>
<!-- samples&#45;&gt;units -->
<g id="samples_3" class="edge">
<title>samples:unit_cd&#45;&gt;units:unit_cd</title>
<path fill="none" stroke="#555555" d="M274,-912C328.8758,-912 345.896,-908.6181 396,-931 415.4652,-939.6952 415.4192,-959.3462 430.1069,-965.2748"/>
<polygon fill="#555555" stroke="#555555" points="429.5474,-968.73 440,-967 430.75,-961.834 429.5474,-968.73"/>
</g>
<!-- streams -->
<g id="streams" class="node">
<title>streams</title>
<polygon fill="#efebdd" stroke="transparent" points="25,-1069 25,-1087 77,-1087 77,-1069 25,-1069"/>
<text text-anchor="start" x="32.6742" y="-1074.2" font-family="Times,serif" font-size="12.00" fill="#000000">streams</text>
<polygon fill="#ffffff" stroke="transparent" points="25,-1051 25,-1069 77,-1069 77,-1051 25,-1051"/>
<text text-anchor="start" x="27" y="-1056.2" font-family="Times,serif" font-size="12.00" fill="#444444">gnis_nm</text>
<polygon fill="#ffffff" stroke="transparent" points="25,-1033 25,-1051 77,-1051 77,-1033 25,-1033"/>
<text text-anchor="start" x="27" y="-1039.2" font-family="Times,serif" text-decoration="underline" font-size="12.00" fill="#444444">id</text>
<polygon fill="#ffffff" stroke="transparent" points="25,-1015 25,-1033 77,-1033 77,-1015 25,-1015"/>
<text text-anchor="start" x="27" y="-1020.2" font-family="Times,serif" font-size="12.00" fill="#444444">reach_cd</text>
<polygon fill="#ffffff" stroke="transparent" points="25,-997 25,-1015 77,-1015 77,-997 25,-997"/>
<text text-anchor="start" x="27" y="-1002.2" font-family="Times,serif" font-size="12.00" fill="#444444">gnis_id</text>
<polygon fill="#ffffff" stroke="transparent" points="25,-979 25,-997 77,-997 77,-979 25,-979"/>
<text text-anchor="start" x="26.6802" y="-984.2" font-family="Times,serif" font-size="12.00" fill="#444444">feature_tp</text>
<polygon fill="#ffffff" stroke="transparent" points="25,-961 25,-979 77,-979 77,-961 25,-961"/>
<text text-anchor="start" x="27" y="-966.2" font-family="Times,serif" font-size="12.00" fill="#444444">geometry</text>
<polygon fill="none" stroke="#555555" points="24,-960 24,-1088 78,-1088 78,-960 24,-960"/>
</g>
<!-- swm -->
<g id="swm" class="node">
<title>swm</title>
<polygon fill="#efebdd" stroke="transparent" points="157,-251 157,-269 241,-269 241,-251 157,-251"/>
<text text-anchor="start" x="187.6678" y="-256.2" font-family="Times,serif" font-size="12.00" fill="#000000">swm</text>
<polygon fill="#ffffff" stroke="transparent" points="157,-233 157,-251 241,-251 241,-233 157,-233"/>
<text text-anchor="start" x="159" y="-238.2" font-family="Times,serif" font-size="12.00" fill="#444444">site_nm</text>
<polygon fill="#ffffff" stroke="transparent" points="157,-215 157,-233 241,-233 241,-215 157,-215"/>
<text text-anchor="start" x="159" y="-220.2" font-family="Times,serif" font-size="12.00" fill="#444444">site_no</text>
<polygon fill="#ffffff" stroke="transparent" points="157,-197 157,-215 241,-215 241,-197 157,-197"/>
<text text-anchor="start" x="159" y="-202.2" font-family="Times,serif" font-size="12.00" fill="#444444">stage_dt</text>
<polygon fill="#ffffff" stroke="transparent" points="157,-179 157,-197 241,-197 241,-179 157,-179"/>
<text text-anchor="start" x="159" y="-184.2" font-family="Times,serif" font-size="12.00" fill="#444444">stage_va</text>
<polygon fill="#ffffff" stroke="transparent" points="157,-161 157,-179 241,-179 241,-161 157,-161"/>
<text text-anchor="start" x="159" y="-166.2" font-family="Times,serif" font-size="12.00" fill="#444444">disch_va</text>
<polygon fill="#ffffff" stroke="transparent" points="157,-143 157,-161 241,-161 241,-143 157,-143"/>
<text text-anchor="start" x="159" y="-148.2" font-family="Times,serif" font-size="12.00" fill="#444444">stage_acy_va</text>
<polygon fill="#ffffff" stroke="transparent" points="157,-125 157,-143 241,-143 241,-125 157,-125"/>
<text text-anchor="start" x="159" y="-130.2" font-family="Times,serif" font-size="12.00" fill="#444444">disch_acy_va</text>
<polygon fill="#ffffff" stroke="transparent" points="157,-107 157,-125 241,-125 241,-107 157,-107"/>
<text text-anchor="start" x="158.6734" y="-113.2" font-family="Times,serif" text-decoration="underline" font-size="12.00" fill="#444444">site_no, stage_dt</text>
<polygon fill="none" stroke="#555555" points="156,-106 156,-270 242,-270 242,-106 156,-106"/>
</g>
<!-- swm&#45;&gt;sites -->
<g id="swm_1" class="edge">
<title>swm:site_no&#45;&gt;sites:site_no</title>
<path fill="none" stroke="#555555" d="M241,-224C269.7381,-224 264.2265,-252.3578 275,-279 289.047,-313.7375 276.1416,-435.1795 304.7489,-456.7207"/>
<polygon fill="#555555" stroke="#555555" points="303.906,-460.1298 314.5,-460 306.1373,-453.4949 303.906,-460.1298"/>
</g>
</g>
</svg>
