<?xml version="1.0" encoding="utf-8"?>
<!-- Generator: Adobe Illustrator 28.0.0, SVG Export Plug-In . SVG Version: 6.00 Build 0)  -->
<svg version="1.1" xmlns="http://www.w3.org/2000/svg" xmlns:xlink="http://www.w3.org/1999/xlink" x="0px" y="0px"
	 viewBox="0 0 511 590.1" style="enable-background:new 0 0 511 590.1;" xml:space="preserve">
<style type="text/css">
	.st0{fill:#FFFFCC;}
	.st1{opacity:0.5;fill:none;stroke:#000000;stroke-width:17.0079;stroke-miterlimit:11.3386;}
	.st2{fill:none;stroke:#006666;stroke-width:17.0079;stroke-miterlimit:11.3386;}
	.st3{fill:#FFFFFF;stroke:#FFFFFF;stroke-width:4;stroke-miterlimit:11.3386;}
	.st4{fill:#333333;}
	.st5{fill:#FCF9F0;}
	.st6{fill:#CC0033;}
	.st7{fill:#FF9900;}
	.st8{fill:#FFFF33;}
	.st9{fill:#00CC33;}
	.st10{fill:#00CCFF;}
</style>
<g id="Border">
	<path class="st0" d="M255.5,580.3L8.5,437.7V152.5l247-142.7l247,142.6v285.2L255.5,580.3z"/>
	<path class="st1" d="M255.5,578l-245-141.4V153.7l245-141.5l245,141.4v282.9L255.5,578z"/>
	<path class="st2" d="M255.5,580.3L8.5,437.7V152.5l247-142.7l247,142.6v285.2L255.5,580.3z"/>
</g>
<g id="Text_00000041283610292869131430000002032744997821668490_">
	<g>
		<path class="st3" d="M107.4,142.5c0,4.8-3.6,8.7-9.8,8.7c-6,0-9.6-3.9-9.6-8.7c0-4.9,3.6-8.7,9.7-8.7S107.3,137.6,107.4,142.5z
			 M88.2,205.4v-49.2h18.9v49.2H88.2z"/>
		<path class="st3" d="M119.1,173.3c0-7-0.2-12.7-0.4-17.1H135l0.8,6.5h0.4c1.5-2.1,6.3-7.7,15.6-7.7c11.8,0,19.1,7.6,19.1,22v28.4
			H152v-25.6c0-6.4-2.3-9.8-7-9.8c-4.1,0-5.8,2.9-6.6,4.8c-0.4,0.9-0.4,2.2-0.4,3.3v27.3h-18.9V173.3z"/>
		<path class="st3" d="M182.9,133.8h18.9v71.6h-18.9V133.8z"/>
		<path class="st3" d="M267.5,133.8v56.1c0,6.4,0.2,12.9,0.4,15.5H251l-0.7-7.1h-0.2c-3.7,6.2-10.3,8.3-16.4,8.3
			c-11.5,0-22.7-9-22.7-25.4c-0.1-16.4,11.3-26.2,23.9-26.2c5.7,0,10.9,1.3,13.5,4.8h0.2v-26H267.5z M248.6,178.2
			c0-0.7,0-1.5-0.1-2.2c-0.7-3.9-4-7-8.3-7c-6.8,0-9.9,5.3-9.9,11.5c0,7.1,4.1,11.2,9.8,11.2c4.4,0,7.7-3.2,8.3-7
			c0.2-1.1,0.2-2.3,0.2-3.4V178.2z"/>
		<path class="st3" d="M309.5,205.4l-1-4.2h-0.4c-3.6,4-8.8,5.4-14.4,5.4c-10.8,0-17.2-7.5-17.2-15.5c0-13.2,11.8-19.3,30.4-19.3
			v-0.3c0-1.8-1.2-4-8.6-4c-5.5,0-11.7,2.1-14.9,3.9l-3.3-11.8c3.2-1.7,10.5-4.6,21.5-4.6c16.9,0,24.1,8.5,24.1,21.7v16.5
			c0,5.2,0.3,10,0.8,12.2H309.5z M307.5,183.2c-8.3,0-12.3,2.1-12.3,6.1c0,2.8,1.9,4.4,5.4,4.4c2.9,0,5.9-2.2,6.7-5.1
			c0.2-0.8,0.2-1.8,0.2-2.7V183.2z"/>
		<path class="st3" d="M357.1,142v14.2h10.4v14h-10.4v12.3c0,6,1,8.8,6,8.8c2,0,3.6-0.2,4.5-0.4v14.2c-2.1,0.8-6.4,1.5-11.3,1.5
			c-5.7,0-10.4-2.2-13-4.9c-3-3.1-4.5-8.2-4.5-15.5v-16h-6.2v-14h6.2v-10.1L357.1,142z"/>
		<path class="st3" d="M406.6,205.4l-1-4.2h-0.4c-3.6,4-8.8,5.4-14.4,5.4c-10.8,0-17.2-7.5-17.2-15.5c0-13.2,11.8-19.3,30.4-19.3
			v-0.3c0-1.8-1.2-4-8.6-4c-5.5,0-11.7,2.1-14.9,3.9l-3.3-11.8c3.2-1.7,10.5-4.6,21.5-4.6c16.9,0,24.1,8.5,24.1,21.7v16.5
			c0,5.2,0.3,10,0.8,12.2H406.6z M404.6,183.2c-8.3,0-12.3,2.1-12.3,6.1c0,2.8,1.9,4.4,5.4,4.4c2.9,0,5.9-2.2,6.7-5.1
			c0.2-0.8,0.2-1.8,0.2-2.7V183.2z"/>
	</g>
	<g>
		<path class="st4" d="M107.4,142.5c0,4.8-3.6,8.7-9.8,8.7c-6,0-9.6-3.9-9.6-8.7c0-4.9,3.6-8.7,9.7-8.7S107.3,137.6,107.4,142.5z
			 M88.2,205.4v-49.2h18.9v49.2H88.2z"/>
		<path class="st4" d="M119.1,173.3c0-7-0.2-12.7-0.4-17.1H135l0.8,6.5h0.4c1.5-2.1,6.3-7.7,15.6-7.7c11.8,0,19.1,7.6,19.1,22v28.4
			H152v-25.6c0-6.4-2.3-9.8-7-9.8c-4.1,0-5.8,2.9-6.6,4.8c-0.4,0.9-0.4,2.2-0.4,3.3v27.3h-18.9V173.3z"/>
		<path class="st4" d="M182.9,133.8h18.9v71.6h-18.9V133.8z"/>
		<path class="st4" d="M267.5,133.8v56.1c0,6.4,0.2,12.9,0.4,15.5H251l-0.7-7.1h-0.2c-3.7,6.2-10.3,8.3-16.4,8.3
			c-11.5,0-22.7-9-22.7-25.4c-0.1-16.4,11.3-26.2,23.9-26.2c5.7,0,10.9,1.3,13.5,4.8h0.2v-26H267.5z M248.6,178.2
			c0-0.7,0-1.5-0.1-2.2c-0.7-3.9-4-7-8.3-7c-6.8,0-9.9,5.3-9.9,11.5c0,7.1,4.1,11.2,9.8,11.2c4.4,0,7.7-3.2,8.3-7
			c0.2-1.1,0.2-2.3,0.2-3.4V178.2z"/>
		<path class="st4" d="M309.5,205.4l-1-4.2h-0.4c-3.6,4-8.8,5.4-14.4,5.4c-10.8,0-17.2-7.5-17.2-15.5c0-13.2,11.8-19.3,30.4-19.3
			v-0.3c0-1.8-1.2-4-8.6-4c-5.5,0-11.7,2.1-14.9,3.9l-3.3-11.8c3.2-1.7,10.5-4.6,21.5-4.6c16.9,0,24.1,8.5,24.1,21.7v16.5
			c0,5.2,0.3,10,0.8,12.2H309.5z M307.5,183.2c-8.3,0-12.3,2.1-12.3,6.1c0,2.8,1.9,4.4,5.4,4.4c2.9,0,5.9-2.2,6.7-5.1
			c0.2-0.8,0.2-1.8,0.2-2.7V183.2z"/>
		<path class="st4" d="M357.1,142v14.2h10.4v14h-10.4v12.3c0,6,1,8.8,6,8.8c2,0,3.6-0.2,4.5-0.4v14.2c-2.1,0.8-6.4,1.5-11.3,1.5
			c-5.7,0-10.4-2.2-13-4.9c-3-3.1-4.5-8.2-4.5-15.5v-16h-6.2v-14h6.2v-10.1L357.1,142z"/>
		<path class="st4" d="M406.6,205.4l-1-4.2h-0.4c-3.6,4-8.8,5.4-14.4,5.4c-10.8,0-17.2-7.5-17.2-15.5c0-13.2,11.8-19.3,30.4-19.3
			v-0.3c0-1.8-1.2-4-8.6-4c-5.5,0-11.7,2.1-14.9,3.9l-3.3-11.8c3.2-1.7,10.5-4.6,21.5-4.6c16.9,0,24.1,8.5,24.1,21.7v16.5
			c0,5.2,0.3,10,0.8,12.2H406.6z M404.6,183.2c-8.3,0-12.3,2.1-12.3,6.1c0,2.8,1.9,4.4,5.4,4.4c2.9,0,5.9-2.2,6.7-5.1
			c0.2-0.8,0.2-1.8,0.2-2.7V183.2z"/>
	</g>
</g>
<g id="Icon">
	<polygon class="st5" points="168.9,443.7 326.5,443.7 326.5,236.9 205.3,236.9 168.9,264 	"/>
	<g>
		<path class="st3" d="M236.7,415.1h-12.2c-2.8,0-5,2.2-5,5s2.2,5,5,5h12.2c2.8,0,5-2.2,5-5S239.5,415.1,236.7,415.1z"/>
		<path class="st3" d="M236.7,395.1h-12.2c-2.8,0-5,2.2-5,5s2.2,5,5,5h12.2c2.8,0,5-2.2,5-5S239.5,395.1,236.7,395.1z"/>
		<path class="st3" d="M236.7,375.4h-12.2c-2.8,0-5,2.2-5,5s2.2,5,5,5h12.2c2.8,0,5-2.2,5-5S239.5,375.4,236.7,375.4z"/>
		<path class="st3" d="M236.7,355.6h-12.2c-2.8,0-5,2.2-5,5s2.2,5,5,5h12.2c2.8,0,5-2.2,5-5S239.5,355.6,236.7,355.6z"/>
		<path class="st3" d="M236.7,315.9h-12.2c-2.8,0-5,2.2-5,5s2.2,5,5,5h12.2c2.8,0,5-2.2,5-5S239.5,315.9,236.7,315.9z"/>
		<path class="st3" d="M236.7,335.9h-12.2c-2.8,0-5,2.2-5,5s2.2,5,5,5h12.2c2.8,0,5-2.2,5-5S239.5,335.9,236.7,335.9z"/>
		<path class="st3" d="M200.3,355.6h-6.8c-2.8,0-5,2.2-5,5s2.2,5,5,5h6.8c2.8,0,5-2.2,5-5S203.1,355.6,200.3,355.6z"/>
		<path class="st3" d="M200.3,375.4h-6.8c-2.8,0-5,2.2-5,5s2.2,5,5,5h6.8c2.8,0,5-2.2,5-5S203.1,375.4,200.3,375.4z"/>
		<path class="st3" d="M200.3,395.1h-6.8c-2.8,0-5,2.2-5,5s2.2,5,5,5h6.8c2.8,0,5-2.2,5-5S203.1,395.1,200.3,395.1z"/>
		<path class="st3" d="M200.3,296.1h-6.8c-2.8,0-5,2.2-5,5s2.2,5,5,5h6.8c2.8,0,5-2.2,5-5S203.1,296.1,200.3,296.1z"/>
		<path class="st3" d="M200.3,415.1h-6.8c-2.8,0-5,2.2-5,5s2.2,5,5,5h6.8c2.8,0,5-2.2,5-5S203.1,415.1,200.3,415.1z"/>
		<path class="st3" d="M273.4,415.1h-12.2c-2.8,0-5,2.2-5,5s2.2,5,5,5h12.2c2.8,0,5-2.2,5-5S276.1,415.1,273.4,415.1z"/>
		<path class="st3" d="M200.3,335.9h-6.8c-2.8,0-5,2.2-5,5s2.2,5,5,5h6.8c2.8,0,5-2.2,5-5S203.1,335.9,200.3,335.9z"/>
		<path class="st3" d="M200.3,315.9h-6.8c-2.8,0-5,2.2-5,5s2.2,5,5,5h6.8c2.8,0,5-2.2,5-5S203.1,315.9,200.3,315.9z"/>
		<path class="st3" d="M279.8,286.4h6.8c2.8,0,5-2.2,5-5s-2.2-5-5-5h-6.8c-2.8,0-5,2.2-5,5S277.1,286.4,279.8,286.4z"/>
		<path class="st3" d="M297.5,425.1h6.8c2.8,0,5-2.2,5-5s-2.2-5-5-5h-6.8c-2.8,0-5,2.2-5,5S294.8,425.1,297.5,425.1z"/>
		<path class="st3" d="M273.4,395.1h-12.2c-2.8,0-5,2.2-5,5s2.2,5,5,5h12.2c2.8,0,5-2.2,5-5S276.1,395.1,273.4,395.1z"/>
		<path class="st3" d="M256.1,301.1c0,2.8,2.2,5,5,5h12.2c2.8,0,5-2.2,5-5s-2.2-5-5-5h-12.2C258.4,296.1,256.1,298.4,256.1,301.1z"
			/>
		<path class="st3" d="M297.5,385.4h6.8c2.8,0,5-2.2,5-5s-2.2-5-5-5h-6.8c-2.8,0-5,2.2-5,5S294.8,385.4,297.5,385.4z"/>
		<path class="st3" d="M242.7,286.4h12.2c2.8,0,5-2.2,5-5s-2.2-5-5-5h-12.2c-2.8,0-5,2.2-5,5S239.9,286.4,242.7,286.4z"/>
		<path class="st3" d="M206.3,281.4c0,2.8,2.2,5,5,5h6.8c2.8,0,5-2.2,5-5s-2.2-5-5-5h-6.8C208.5,276.4,206.3,278.6,206.3,281.4z"/>
		<path class="st3" d="M219.5,301.1c0,2.8,2.2,5,5,5h12.2c2.8,0,5-2.2,5-5s-2.2-5-5-5h-12.2C221.7,296.1,219.5,298.4,219.5,301.1z"
			/>
		<path class="st3" d="M297.5,405.1h6.8c2.8,0,5-2.2,5-5s-2.2-5-5-5h-6.8c-2.8,0-5,2.2-5,5S294.8,405.1,297.5,405.1z"/>
		<path class="st3" d="M273.4,315.9h-12.2c-2.8,0-5,2.2-5,5s2.2,5,5,5h12.2c2.8,0,5-2.2,5-5S276.1,315.9,273.4,315.9z"/>
		<path class="st3" d="M297.5,365.6h6.8c2.8,0,5-2.2,5-5s-2.2-5-5-5h-6.8c-2.8,0-5,2.2-5,5S294.8,365.6,297.5,365.6z"/>
		<path class="st3" d="M273.4,355.6h-12.2c-2.8,0-5,2.2-5,5s2.2,5,5,5h12.2c2.8,0,5-2.2,5-5S276.1,355.6,273.4,355.6z"/>
		<path class="st3" d="M273.4,375.4h-12.2c-2.8,0-5,2.2-5,5s2.2,5,5,5h12.2c2.8,0,5-2.2,5-5S276.1,375.4,273.4,375.4z"/>
		<path class="st3" d="M273.4,335.9h-12.2c-2.8,0-5,2.2-5,5s2.2,5,5,5h12.2c2.8,0,5-2.2,5-5S276.1,335.9,273.4,335.9z"/>
		<path class="st3" d="M297.5,306.1h6.8c2.8,0,5-2.2,5-5s-2.2-5-5-5h-6.8c-2.8,0-5,2.2-5,5S294.8,306.1,297.5,306.1z"/>
		<path class="st3" d="M297.5,345.9h6.8c2.8,0,5-2.2,5-5s-2.2-5-5-5h-6.8c-2.8,0-5,2.2-5,5S294.8,345.9,297.5,345.9z"/>
		<path class="st3" d="M297.5,325.9h6.8c2.8,0,5-2.2,5-5s-2.2-5-5-5h-6.8c-2.8,0-5,2.2-5,5S294.8,325.9,297.5,325.9z"/>
		<path class="st3" d="M377,369.2c-6.7,0-12.5,4.4-14.5,10.4h-7.4l-7.3-9.9c-0.9-1.3-2.4-2-4-2h-12.7v-22.2h12.7
			c2.1,6,7.8,10.4,14.5,10.4c8.5,0,15.4-6.9,15.4-15.4s-6.9-15.4-15.4-15.4c-6.7,0-12.5,4.4-14.5,10.4h-12.7v-22h12.7
			c1.6,0,3.1-0.8,4.1-2.1l7.3-10.1h7.3c2.1,6,7.8,10.4,14.5,10.4c8.5,0,15.4-6.9,15.4-15.4c0-8.5-6.9-15.4-15.4-15.4
			c-6.7,0-12.5,4.4-14.5,10.4h-9.9c-1.6,0-3.1,0.8-4.1,2.1l-7.3,10.1h-10.1v-18.3h7.9c1.6,0,3-0.7,4-2l12.6-16.5
			c1.5,0.5,3.2,0.8,4.9,0.8c8.5,0,15.4-6.9,15.4-15.4s-6.9-15.4-15.4-15.4S345,243.5,345,252c0,3.2,1,6.1,2.6,8.5l-11.1,14.5h-5.4
			v-36.3c0-2.8-2.2-5-5-5h-119c0,0,0,0,0,0c-1.1,0-2.1,0.4-3,1l-36.8,26.7c-0.2,0.1-0.3,0.2-0.4,0.3c-0.2,0.1-0.3,0.3-0.5,0.5
			c-0.8,0.9-1.2,2-1.2,3.2c0,0,0,0,0,0c0,0,0,0,0,0c0,0,0,0,0,0c0,0,0,0,0,0c0,0,0,0,0,0c0,0,0,0,0,0V443c0,2.8,2.2,5,5,5h128v13.1
			H152.6V288.7c0-2.8-2.2-5-5-5s-5,2.2-5,5v177.5c0,2.8,2.2,5,5,5h155.6c2.8,0,5-2.2,5-5V448h17.9c2.8,0,5-2.2,5-5v-37.4h5.3
			l11.2,14.6c-1.6,2.4-2.6,5.4-2.6,8.5c0,8.5,6.9,15.4,15.4,15.4s15.4-6.9,15.4-15.4c0-8.5-6.9-15.4-15.4-15.4
			c-1.7,0-3.4,0.3-4.9,0.8l-12.7-16.5c-0.9-1.2-2.4-2-4-2h-7.7v-18.1h10.1l7.3,9.9c0.9,1.3,2.4,2,4,2h9.9c2.1,6,7.8,10.4,14.5,10.4
			c8.5,0,15.4-6.9,15.4-15.4C392.4,376.1,385.5,369.2,377,369.2z M358.3,335c3,0,5.4,2.4,5.4,5.4s-2.4,5.4-5.4,5.4s-5.4-2.4-5.4-5.4
			S355.3,335,358.3,335z M377,290.8c3,0,5.4,2.4,5.4,5.4c0,3-2.4,5.4-5.4,5.4s-5.4-2.4-5.4-5.4C371.6,293.2,374,290.8,377,290.8z
			 M360.4,246.6c3,0,5.4,2.4,5.4,5.4c0,3-2.4,5.4-5.4,5.4S355,255,355,252C355,249.1,357.4,246.6,360.4,246.6z M202.1,248.6v12
			h-16.5L202.1,248.6z M321.1,438H175.2V270.5h31.9c2.8,0,5-2.2,5-5v-21.8h109V438z M365.8,428.7c0,3-2.4,5.4-5.4,5.4
			s-5.4-2.4-5.4-5.4s2.4-5.4,5.4-5.4S365.8,425.7,365.8,428.7z M377,389.9c-3,0-5.4-2.4-5.4-5.4s2.4-5.4,5.4-5.4s5.4,2.4,5.4,5.4
			S380,389.9,377,389.9z"/>
	</g>
	<polygon class="st5" points="170.9,441.4 170.9,284 146.9,284 146.9,441.4 146.9,465.4 170.9,465.4 302.7,465.4 302.7,441.4 	"/>
	<polygon class="st5" points="205.3,242.3 205.3,264 175.2,264 	"/>
	<g>
		<path class="st4" d="M236.7,415.1h-12.2c-2.8,0-5,2.2-5,5s2.2,5,5,5h12.2c2.8,0,5-2.2,5-5S239.5,415.1,236.7,415.1z"/>
		<path class="st4" d="M236.7,395.1h-12.2c-2.8,0-5,2.2-5,5s2.2,5,5,5h12.2c2.8,0,5-2.2,5-5S239.5,395.1,236.7,395.1z"/>
		<path class="st4" d="M236.7,375.4h-12.2c-2.8,0-5,2.2-5,5s2.2,5,5,5h12.2c2.8,0,5-2.2,5-5S239.5,375.4,236.7,375.4z"/>
		<path class="st4" d="M236.7,355.6h-12.2c-2.8,0-5,2.2-5,5s2.2,5,5,5h12.2c2.8,0,5-2.2,5-5S239.5,355.6,236.7,355.6z"/>
		<path class="st4" d="M236.7,315.9h-12.2c-2.8,0-5,2.2-5,5s2.2,5,5,5h12.2c2.8,0,5-2.2,5-5S239.5,315.9,236.7,315.9z"/>
		<path class="st4" d="M236.7,335.9h-12.2c-2.8,0-5,2.2-5,5s2.2,5,5,5h12.2c2.8,0,5-2.2,5-5S239.5,335.9,236.7,335.9z"/>
		<path class="st4" d="M200.3,355.6h-6.8c-2.8,0-5,2.2-5,5s2.2,5,5,5h6.8c2.8,0,5-2.2,5-5S203.1,355.6,200.3,355.6z"/>
		<path class="st4" d="M200.3,375.4h-6.8c-2.8,0-5,2.2-5,5s2.2,5,5,5h6.8c2.8,0,5-2.2,5-5S203.1,375.4,200.3,375.4z"/>
		<path class="st4" d="M200.3,395.1h-6.8c-2.8,0-5,2.2-5,5s2.2,5,5,5h6.8c2.8,0,5-2.2,5-5S203.1,395.1,200.3,395.1z"/>
		<path class="st4" d="M200.3,296.1h-6.8c-2.8,0-5,2.2-5,5s2.2,5,5,5h6.8c2.8,0,5-2.2,5-5S203.1,296.1,200.3,296.1z"/>
		<path class="st4" d="M200.3,415.1h-6.8c-2.8,0-5,2.2-5,5s2.2,5,5,5h6.8c2.8,0,5-2.2,5-5S203.1,415.1,200.3,415.1z"/>
		<path class="st4" d="M273.4,415.1h-12.2c-2.8,0-5,2.2-5,5s2.2,5,5,5h12.2c2.8,0,5-2.2,5-5S276.1,415.1,273.4,415.1z"/>
		<path class="st4" d="M200.3,335.9h-6.8c-2.8,0-5,2.2-5,5s2.2,5,5,5h6.8c2.8,0,5-2.2,5-5S203.1,335.9,200.3,335.9z"/>
		<path class="st4" d="M200.3,315.9h-6.8c-2.8,0-5,2.2-5,5s2.2,5,5,5h6.8c2.8,0,5-2.2,5-5S203.1,315.9,200.3,315.9z"/>
		<path class="st4" d="M279.8,286.4h6.8c2.8,0,5-2.2,5-5s-2.2-5-5-5h-6.8c-2.8,0-5,2.2-5,5S277.1,286.4,279.8,286.4z"/>
		<path class="st4" d="M297.5,425.1h6.8c2.8,0,5-2.2,5-5s-2.2-5-5-5h-6.8c-2.8,0-5,2.2-5,5S294.8,425.1,297.5,425.1z"/>
		<path class="st4" d="M273.4,395.1h-12.2c-2.8,0-5,2.2-5,5s2.2,5,5,5h12.2c2.8,0,5-2.2,5-5S276.1,395.1,273.4,395.1z"/>
		<path class="st4" d="M256.1,301.1c0,2.8,2.2,5,5,5h12.2c2.8,0,5-2.2,5-5s-2.2-5-5-5h-12.2C258.4,296.1,256.1,298.4,256.1,301.1z"
			/>
		<path class="st4" d="M297.5,385.4h6.8c2.8,0,5-2.2,5-5s-2.2-5-5-5h-6.8c-2.8,0-5,2.2-5,5S294.8,385.4,297.5,385.4z"/>
		<path class="st4" d="M242.7,286.4h12.2c2.8,0,5-2.2,5-5s-2.2-5-5-5h-12.2c-2.8,0-5,2.2-5,5S239.9,286.4,242.7,286.4z"/>
		<path class="st4" d="M206.3,281.4c0,2.8,2.2,5,5,5h6.8c2.8,0,5-2.2,5-5s-2.2-5-5-5h-6.8C208.5,276.4,206.3,278.6,206.3,281.4z"/>
		<path class="st4" d="M219.5,301.1c0,2.8,2.2,5,5,5h12.2c2.8,0,5-2.2,5-5s-2.2-5-5-5h-12.2C221.7,296.1,219.5,298.4,219.5,301.1z"
			/>
		<path class="st4" d="M297.5,405.1h6.8c2.8,0,5-2.2,5-5s-2.2-5-5-5h-6.8c-2.8,0-5,2.2-5,5S294.8,405.1,297.5,405.1z"/>
		<path class="st4" d="M273.4,315.9h-12.2c-2.8,0-5,2.2-5,5s2.2,5,5,5h12.2c2.8,0,5-2.2,5-5S276.1,315.9,273.4,315.9z"/>
		<path class="st4" d="M297.5,365.6h6.8c2.8,0,5-2.2,5-5s-2.2-5-5-5h-6.8c-2.8,0-5,2.2-5,5S294.8,365.6,297.5,365.6z"/>
		<path class="st4" d="M273.4,355.6h-12.2c-2.8,0-5,2.2-5,5s2.2,5,5,5h12.2c2.8,0,5-2.2,5-5S276.1,355.6,273.4,355.6z"/>
		<path class="st4" d="M273.4,375.4h-12.2c-2.8,0-5,2.2-5,5s2.2,5,5,5h12.2c2.8,0,5-2.2,5-5S276.1,375.4,273.4,375.4z"/>
		<path class="st4" d="M273.4,335.9h-12.2c-2.8,0-5,2.2-5,5s2.2,5,5,5h12.2c2.8,0,5-2.2,5-5S276.1,335.9,273.4,335.9z"/>
		<path class="st4" d="M297.5,306.1h6.8c2.8,0,5-2.2,5-5s-2.2-5-5-5h-6.8c-2.8,0-5,2.2-5,5S294.8,306.1,297.5,306.1z"/>
		<path class="st4" d="M297.5,345.9h6.8c2.8,0,5-2.2,5-5s-2.2-5-5-5h-6.8c-2.8,0-5,2.2-5,5S294.8,345.9,297.5,345.9z"/>
		<path class="st4" d="M297.5,325.9h6.8c2.8,0,5-2.2,5-5s-2.2-5-5-5h-6.8c-2.8,0-5,2.2-5,5S294.8,325.9,297.5,325.9z"/>
		<path class="st4" d="M377,369.2c-6.7,0-12.5,4.4-14.5,10.4h-7.4l-7.3-9.9c-0.9-1.3-2.4-2-4-2h-12.7v-22.2h12.7
			c2.1,6,7.8,10.4,14.5,10.4c8.5,0,15.4-6.9,15.4-15.4s-6.9-15.4-15.4-15.4c-6.7,0-12.5,4.4-14.5,10.4h-12.7v-22h12.7
			c1.6,0,3.1-0.8,4.1-2.1l7.3-10.1h7.3c2.1,6,7.8,10.4,14.5,10.4c8.5,0,15.4-6.9,15.4-15.4c0-8.5-6.9-15.4-15.4-15.4
			c-6.7,0-12.5,4.4-14.5,10.4h-9.9c-1.6,0-3.1,0.8-4.1,2.1l-7.3,10.1h-10.1v-18.3h7.9c1.6,0,3-0.7,4-2l12.6-16.5
			c1.5,0.5,3.2,0.8,4.9,0.8c8.5,0,15.4-6.9,15.4-15.4s-6.9-15.4-15.4-15.4S345,243.5,345,252c0,3.2,1,6.1,2.6,8.5l-11.1,14.5h-5.4
			v-36.3c0-2.8-2.2-5-5-5h-119c0,0,0,0,0,0c-1.1,0-2.1,0.4-3,1l-36.8,26.7c-0.2,0.1-0.3,0.2-0.4,0.3c-0.2,0.1-0.3,0.3-0.5,0.5
			c-0.8,0.9-1.2,2-1.2,3.2c0,0,0,0,0,0c0,0,0,0,0,0c0,0,0,0,0,0c0,0,0,0,0,0c0,0,0,0,0,0c0,0,0,0,0,0V443c0,2.8,2.2,5,5,5h128v13.1
			H152.6V288.7c0-2.8-2.2-5-5-5s-5,2.2-5,5v177.5c0,2.8,2.2,5,5,5h155.6c2.8,0,5-2.2,5-5V448h17.9c2.8,0,5-2.2,5-5v-37.4h5.3
			l11.2,14.6c-1.6,2.4-2.6,5.4-2.6,8.5c0,8.5,6.9,15.4,15.4,15.4s15.4-6.9,15.4-15.4c0-8.5-6.9-15.4-15.4-15.4
			c-1.7,0-3.4,0.3-4.9,0.8l-12.7-16.5c-0.9-1.2-2.4-2-4-2h-7.7v-18.1h10.1l7.3,9.9c0.9,1.3,2.4,2,4,2h9.9c2.1,6,7.8,10.4,14.5,10.4
			c8.5,0,15.4-6.9,15.4-15.4C392.4,376.1,385.5,369.2,377,369.2z M358.3,335c3,0,5.4,2.4,5.4,5.4s-2.4,5.4-5.4,5.4s-5.4-2.4-5.4-5.4
			S355.3,335,358.3,335z M377,290.8c3,0,5.4,2.4,5.4,5.4c0,3-2.4,5.4-5.4,5.4s-5.4-2.4-5.4-5.4C371.6,293.2,374,290.8,377,290.8z
			 M360.4,246.6c3,0,5.4,2.4,5.4,5.4c0,3-2.4,5.4-5.4,5.4S355,255,355,252C355,249.1,357.4,246.6,360.4,246.6z M202.1,248.6v12
			h-16.5L202.1,248.6z M321.1,438H175.2V270.5h31.9c2.8,0,5-2.2,5-5v-21.8h109V438z M365.8,428.7c0,3-2.4,5.4-5.4,5.4
			s-5.4-2.4-5.4-5.4s2.4-5.4,5.4-5.4S365.8,425.7,365.8,428.7z M377,389.9c-3,0-5.4-2.4-5.4-5.4s2.4-5.4,5.4-5.4s5.4,2.4,5.4,5.4
			S380,389.9,377,389.9z"/>
	</g>
	<circle class="st6" cx="360.4" cy="252" r="8.5"/>
	<circle class="st7" cx="377" cy="296.2" r="8.5"/>
	<circle class="st8" cx="358.3" cy="340.4" r="8.5"/>
	<circle class="st9" cx="377" cy="384.5" r="8.5"/>
	<circle class="st10" cx="360.4" cy="428.7" r="8.5"/>
</g>
</svg>
