<?xml version="1.0" standalone="no"?>
<!DOCTYPE svg PUBLIC "-//W3C//DTD SVG 1.1//EN"
"http://www.w3.org/Graphics/SVG/1.1/DTD/svg11.dtd">
<svg xmlns="http://www.w3.org/2000/svg"
width="745" height="545" >
<g>
<line x1="40" y1="40"  x2="40" y2="500" style=" stroke: black;"/>
<line x1="40" y1="500"  x2="700" y2="500" style=" stroke: black;"/>
<line x1="37" y1="454"  x2="40" y2="454" style=" stroke: black;"/>
<text x="8" y="454" style="font-family: monospace; font-size: 10px;">0.01</text>
<line x1="37" y1="408"  x2="40" y2="408" style=" stroke: black;"/>
<text x="8" y="408" style="font-family: monospace; font-size: 10px;">0.02</text>
<line x1="37" y1="362"  x2="40" y2="362" style=" stroke: black;"/>
<text x="8" y="362" style="font-family: monospace; font-size: 10px;">0.04</text>
<line x1="37" y1="316"  x2="40" y2="316" style=" stroke: black;"/>
<text x="8" y="316" style="font-family: monospace; font-size: 10px;">0.05</text>
<line x1="37" y1="270"  x2="40" y2="270" style=" stroke: black;"/>
<text x="8" y="270" style="font-family: monospace; font-size: 10px;">0.06</text>
<line x1="37" y1="224"  x2="40" y2="224" style=" stroke: black;"/>
<text x="8" y="224" style="font-family: monospace; font-size: 10px;">0.07</text>
<line x1="37" y1="178"  x2="40" y2="178" style=" stroke: black;"/>
<text x="8" y="178" style="font-family: monospace; font-size: 10px;">0.09</text>
<line x1="37" y1="132"  x2="40" y2="132" style=" stroke: black;"/>
<text x="8" y="132" style="font-family: monospace; font-size: 10px;">0.10</text>
<line x1="37" y1="86"  x2="40" y2="86" style=" stroke: black;"/>
<text x="8" y="86" style="font-family: monospace; font-size: 10px;">0.11</text>
<line x1="37" y1="40"  x2="40" y2="40" style=" stroke: black;"/>
<text x="8" y="40" style="font-family: monospace; font-size: 10px;">0.12</text>
<line x1="106" y1="500"  x2="106" y2="505" style=" stroke: black;"/>
<text x="106" y="505" transform="rotate(90,106,505)" style="font-family: monospace; font-size: 10px;">6248</text>
<line x1="172" y1="500"  x2="172" y2="505" style=" stroke: black;"/>
<text x="172" y="505" transform="rotate(90,172,505)" style="font-family: monospace; font-size: 10px;">12496</text>
<line x1="238" y1="500"  x2="238" y2="505" style=" stroke: black;"/>
<text x="238" y="505" transform="rotate(90,238,505)" style="font-family: monospace; font-size: 10px;">18744</text>
<line x1="304" y1="500"  x2="304" y2="505" style=" stroke: black;"/>
<text x="304" y="505" transform="rotate(90,304,505)" style="font-family: monospace; font-size: 10px;">24992</text>
<line x1="370" y1="500"  x2="370" y2="505" style=" stroke: black;"/>
<text x="370" y="505" transform="rotate(90,370,505)" style="font-family: monospace; font-size: 10px;">31240</text>
<line x1="436" y1="500"  x2="436" y2="505" style=" stroke: black;"/>
<text x="436" y="505" transform="rotate(90,436,505)" style="font-family: monospace; font-size: 10px;">37488</text>
<line x1="502" y1="500"  x2="502" y2="505" style=" stroke: black;"/>
<text x="502" y="505" transform="rotate(90,502,505)" style="font-family: monospace; font-size: 10px;">43736</text>
<line x1="568" y1="500"  x2="568" y2="505" style=" stroke: black;"/>
<text x="568" y="505" transform="rotate(90,568,505)" style="font-family: monospace; font-size: 10px;">49984</text>
<line x1="634" y1="500"  x2="634" y2="505" style=" stroke: black;"/>
<text x="634" y="505" transform="rotate(90,634,505)" style="font-family: monospace; font-size: 10px;">56232</text>
<line x1="700" y1="500"  x2="700" y2="505" style=" stroke: black;"/>
<text x="700" y="505" transform="rotate(90,700,505)" style="font-family: monospace; font-size: 10px;">62480</text>
<text x="705" y="490" style="font-family: monospace; font-size: 10px;">Rank</text>
<text x="5" y="15" style="font-family: monospace; font-size: 10px;">Dist. value</text>
<polyline style="stroke: #D82424; stroke-width:1;fill: none;"  points="40 494,41 494,42 494,43 494,44 494,45 494,46 494,47 494,48 494,49 494,50 494,51 494,52 494,53 494,54 494,54 493,55 493,56 493,57 493,58 493,59 493,60 493,61 493,61 492,62 492,62 491,62 489,63 489,63 488,64 488,65 488,66 488,67 488,68 488,69 488,70 488,71 488,71 487,72 487,73 487,74 487,75 487,75 486,76 486,77 486,77 485,77 484,77 483,78 483,79 483,80 483,80 482,81 482,82 482,83 482,84 482,85 482,86 482,87 482,87 481,88 481,89 481,90 481,90 480,91 480,91 479,92 479,92 478,92 477,93 477,94 477,94 476,95 476,96 476,96 475,97 475,98 475,98 474,99 474,99 473,99 472,100 472,100 471,101 471,101 470,102 470,102 469,103 469,103 468,103 467,104 467,104 466,104 465,105 465,105 464,106 464,106 463,106 462,106 461,107 461,107 460,107 459,108 459,109 459,110 459,110 458,111 458,112 458,112 457,113 457,114 457,115 457,115 456,116 456,116 455,116 454,117 454,118 454,118 453,119 453,120 453,120 452,121 452,122 452,123 452,123 451,124 451,125 451,126 451,127 451,127 450,128 450,129 450,129 449,129 448,130 448,131 448,131 447,132 447,133 447,133 446,134 446,134 445,135 445,136 445,137 445,138 445,138 444,139 444,139 443,140 443,140 442,141 442,142 442,142 441,143 441,143 440,144 440,144 439,145 439,146 439,147 439,147 438,148 438,148 437,148 436,149 436,149 435,150 435,150 434,150 433,151 433,151 432,152 432,152 431,153 431,153 430,153 429,154 429,154 428,154 427,154 426,154 425,155 425,155 424,155 423,155 422,156 422,156 421,156 420,156 419,157 418,157 417,157 416,158 416,158 415,158 414,158 413,159 413,159 412,159 411,160 411,160 410,160 409,160 408,161 408,161 407,162 407,163 407,163 406,164 406,164 405,165 405,166 405,166 404,167 404,167 403,167 402,168 402,169 402,170 402,171 402,171 401,171 400,172 400,172 399,173 399,173 398,174 398,174 397,175 397,176 397,177 397,177 396,178 396,179 396,179 395,180 395,180 394,181 394,182 394,183 394,183 393,184 393,184 392,185 392,186 392,186 391,187 391,188 391,189 391,189 390,190 390,191 390,192 390,193 390,194 390,194 389,195 389,196 389,197 389,197 388,198 388,199 388,200 388,201 388,201 387,202 387,203 387,204 387,204 386,205 386,206 386,207 386,207 385,208 385,209 385,210 385,211 385,212 385,213 385,213 384,214 384,215 384,216 384,217 384,218 384,219 384,220 384,220 383,221 383,222 383,223 383,224 383,224 382,225 382,226 382,226 381,227 381,228 381,229 381,229 380,230 380,231 380,232 380,233 380,234 380,235 380,235 379,236 379,237 379,238 379,239 379,240 379,241 379,241 378,242 378,243 378,244 378,245 378,246 378,247 378,248 378,248 377,249 377,250 377,251 377,251 376,252 376,253 376,254 376,255 376,256 376,256 375,257 375,258 375,259 375,260 375,260 374,261 374,262 374,263 374,264 374,264 373,265 373,266 373,267 373,268 373,269 373,270 373,271 373,272 373,273 373,274 373,275 373,276 373,277 373,278 373,279 373,279 372,280 372,281 372,282 372,283 372,284 372,284 371,285 371,286 371,287 371,288 371,288 370,289 370,290 370,291 370,292 370,293 370,293 369,294 369,295 369,296 369,297 369,297 368,298 368,299 368,300 368,301 368,302 368,303 368,304 368,304 367,305 367,306 367,307 367,308 367,309 367,310 367,311 367,312 367,313 367,314 367,315 367,315 366,316 366,317 366,318 366,319 366,320 366,320 365,321 365,322 365,323 365,324 365,324 364,325 364,326 364,327 364,328 364,329 364,330 364,330 363,331 363,332 363,333 363,333 362,334 362,335 362,336 362,337 362,338 362,339 362,340 362,341 362,342 362,343 362,343 361,344 361,345 361,346 361,347 361,348 361,349 361,350 361,351 361,352 361,352 360,353 360,354 360,355 360,355 359,356 359,357 359,358 359,358 358,359 358,360 358,361 358,362 358,362 357,363 357,364 357,365 357,366 357,367 357,367 356,368 356,369 356,370 356,371 356,371 355,372 355,373 355,374 355,375 355,376 355,377 355,378 355,379 355,380 355,380 354,381 354,382 354,383 354,383 353,384 353,385 353,386 353,387 353,388 353,388 352,389 352,390 352,391 352,392 352,392 351,393 351,394 351,395 351,396 351,397 351,397 350,398 350,399 350,400 350,401 350,402 350,403 350,404 350,404 349,405 349,406 349,407 349,408 349,409 349,409 348,410 348,411 348,412 348,413 348,414 348,415 348,415 347,416 347,417 347,417 346,418 346,419 346,420 346,420 345,421 345,422 345,423 345,424 345,425 345,426 345,427 345,427 344,428 344,429 344,430 344,430 343,431 343,432 343,433 343,434 343,435 343,435 342,436 342,437 342,438 342,439 342,439 341,440 341,441 341,441 340,442 340,443 340,444 340,444 339,445 339,446 339,447 339,448 339,449 339,449 338,450 338,451 338,452 338,453 338,454 338,454 337,455 337,456 337,457 337,458 337,459 337,459 336,460 336,461 336,462 336,463 336,463 335,464 335,465 335,465 334,466 334,467 334,468 334,469 334,469 333,470 333,471 333,472 333,473 333,474 333,475 333,475 332,476 332,477 332,478 332,479 332,480 332,480 331,481 331,482 331,483 331,484 331,485 331,486 331,487 331,487 330,488 330,489 330,490 330,491 330,492 330,492 329,493 329,494 329,494 328,495 328,496 328,497 328,497 327,498 327,499 327,500 327,501 327,502 327,503 327,503 326,504 326,505 326,506 326,506 325,507 325,508 325,509 325,510 325,511 325,512 325,513 325,513 324,514 324,515 324,516 324,516 323,517 323,518 323,518 322,519 322,520 322,521 322,522 322,522 321,523 321,524 321,525 321,525 320,526 320,527 320,527 319,528 319,529 319,530 319,531 319,531 318,532 318,533 318,534 318,534 317,535 317,536 317,536 316,537 316,538 316,539 316,539 315,540 315,541 315,542 315,542 314,543 314,543 313,544 313,545 313,546 313,547 313,547 312,548 312,549 312,549 311,550 311,550 310,551 310,552 310,553 310,553 309,554 309,555 309,555 308,556 308,556 307,557 307,558 307,559 307,559 306,560 306,560 305,561 305,561 304,562 304,562 303,563 303,564 303,564 302,565 302,565 301,566 301,566 300,567 300,567 299,568 299,568 298,568 297,569 297,569 296,569 295,570 295,570 294,571 294,571 293,572 293,572 292,572 291,573 291,573 290,573 289,574 289,574 288,574 287,575 287,575 286,575 285,576 284,576 283,577 283,577 282,577 281,577 280,577 279,578 279,579 279,579 278,579 277,579 276,580 276,580 275,580 274,581 274,581 273,582 273,582 272,583 272,583 271,583 270,584 270,584 269,585 269,585 268,586 268,586 267,586 266,587 266,588 266,588 265,588 264,589 264,589 263,590 263,590 262,591 262,591 261,592 261,592 260,593 260,593 259,593 258,594 258,594 257,595 257,596 257,596 256,597 256,597 255,597 254,598 254,598 253,599 253,599 252,600 252,600 251,601 251,601 250,601 249,602 249,602 248,603 248,603 247,604 247,604 246,604 245,605 245,605 244,606 244,606 243,607 243,607 242,608 242,608 241,608 240,609 240,609 239,609 238,610 238,610 237,610 236,611 236,612 236,612 235,613 235,613 234,614 234,614 233,615 233,615 232,615 231,616 231,616 230,616 229,617 229,618 229,618 228,619 228,619 227,619 226,620 226,620 225,620 224,621 224,621 223,622 223,622 222,623 222,623 221,623 220,624 220,624 219,625 219,625 218,625 217,625 216,626 216,626 215,626 214,627 214,627 213,627 212,627 211,628 211,628 210,628 209,628 208,628 207,629 207,629 206,629 205,629 204,629 203,630 203,630 202,630 201,630 200,630 199,631 199,631 198,631 197,631 196,632 196,632 195,632 194,632 193,632 192,633 192,633 191,633 190,633 189,633 188,634 188,634 187,634 186,634 185,634 184,634 183,635 183,635 182,635 181,635 180,635 179,635 178,635 177,636 177,636 176,637 176,637 175,637 174,637 173,637 172,638 172,638 171,639 171,639 170,639 169,639 168,640 168,640 167,640 166,641 166,641 165,642 165,643 165,643 164,643 163,643 162,644 162,644 161,645 161,645 160,646 160,646 159,647 159,647 158,647 157,648 157,648 156,649 156,650 155,650 154,651 154,652 154,652 153,653 153,653 152,654 152,654 151,654 150,655 150,655 149,656 149,656 148,657 148,658 148,658 147,658 146,659 146,660 146,660 145,661 145,661 144,662 144,663 144,663 143,664 143,665 143,665 142,666 142,666 141,667 141,667 140,668 140,669 140,670 140,670 139,671 139,671 138,672 138,672 137,673 137,673 136,674 136,674 135,675 135,675 134,676 134,677 134,677 133,678 133,678 132,678 131,679 131,679 130,680 130,680 129,681 129,681 128,682 128,683 128,683 127,684 127,684 126,684 125,685 125,686 125,686 124,686 123,686 122,687 122,688 122,688 121,688 120,689 120,689 119,689 118,689 117,689 116,690 116,690 115,691 115,691 114,691 113,691 112,692 112,692 111,692 110,692 109,692 108,693 108,693 107,693 106,694 106,694 105,694 104,695 104,695 103,695 102,695 101,695 100,695 99,695 98,696 98,696 97,696 96,696 95,697 95,697 94,697 93,697 92,697 91,697 90,698 90,698 89,698 88,698 87,698 85,698 84,698 83,698 82,698 81,699 81,699 79,699 78,699 77,699 74,699 73,699 72,699 71,699 70,699 68,699 67,699 66,699 63,699 61,699 60,699 59,699 56,699 55,699 54,699 53,699 49,699 46,699 42,699 40"/></g>
</svg>
