<svg xmlns="http://www.w3.org/2000/svg"  width="345" height="285" >
<g>
<line x1="40" y1="40"  x2="40" y2="240" style=" stroke: black;"/>
<line x1="40" y1="240"  x2="340" y2="240" style=" stroke: black;"/>
<line x1="37" y1="220"  x2="40" y2="220" style=" stroke: black;"/>
<text x="8" y="220" style="font-family: monospace; font-size: 8px;">0.01</text>
<line x1="37" y1="200"  x2="40" y2="200" style=" stroke: black;"/>
<text x="8" y="200" style="font-family: monospace; font-size: 8px;">0.02</text>
<line x1="37" y1="180"  x2="40" y2="180" style=" stroke: black;"/>
<text x="8" y="180" style="font-family: monospace; font-size: 8px;">0.04</text>
<line x1="37" y1="160"  x2="40" y2="160" style=" stroke: black;"/>
<text x="8" y="160" style="font-family: monospace; font-size: 8px;">0.05</text>
<line x1="37" y1="140"  x2="40" y2="140" style=" stroke: black;"/>
<text x="8" y="140" style="font-family: monospace; font-size: 8px;">0.06</text>
<line x1="37" y1="120"  x2="40" y2="120" style=" stroke: black;"/>
<text x="8" y="120" style="font-family: monospace; font-size: 8px;">0.07</text>
<line x1="37" y1="100"  x2="40" y2="100" style=" stroke: black;"/>
<text x="8" y="100" style="font-family: monospace; font-size: 8px;">0.08</text>
<line x1="37" y1="80"  x2="40" y2="80" style=" stroke: black;"/>
<text x="8" y="80" style="font-family: monospace; font-size: 8px;">0.10</text>
<line x1="37" y1="60"  x2="40" y2="60" style=" stroke: black;"/>
<text x="8" y="60" style="font-family: monospace; font-size: 8px;">0.11</text>
<line x1="37" y1="40"  x2="40" y2="40" style=" stroke: black;"/>
<text x="8" y="40" style="font-family: monospace; font-size: 8px;">0.12</text>
<line x1="70" y1="240"  x2="70" y2="245" style=" stroke: black;"/>
<text x="70" y="245" transform="rotate(90,70,245)" style="font-family: monospace; font-size: 8px;">6248</text>
<line x1="100" y1="240"  x2="100" y2="245" style=" stroke: black;"/>
<text x="100" y="245" transform="rotate(90,100,245)" style="font-family: monospace; font-size: 8px;">12496</text>
<line x1="130" y1="240"  x2="130" y2="245" style=" stroke: black;"/>
<text x="130" y="245" transform="rotate(90,130,245)" style="font-family: monospace; font-size: 8px;">18744</text>
<line x1="160" y1="240"  x2="160" y2="245" style=" stroke: black;"/>
<text x="160" y="245" transform="rotate(90,160,245)" style="font-family: monospace; font-size: 8px;">24992</text>
<line x1="190" y1="240"  x2="190" y2="245" style=" stroke: black;"/>
<text x="190" y="245" transform="rotate(90,190,245)" style="font-family: monospace; font-size: 8px;">31240</text>
<line x1="220" y1="240"  x2="220" y2="245" style=" stroke: black;"/>
<text x="220" y="245" transform="rotate(90,220,245)" style="font-family: monospace; font-size: 8px;">37488</text>
<line x1="250" y1="240"  x2="250" y2="245" style=" stroke: black;"/>
<text x="250" y="245" transform="rotate(90,250,245)" style="font-family: monospace; font-size: 8px;">43736</text>
<line x1="280" y1="240"  x2="280" y2="245" style=" stroke: black;"/>
<text x="280" y="245" transform="rotate(90,280,245)" style="font-family: monospace; font-size: 8px;">49984</text>
<line x1="310" y1="240"  x2="310" y2="245" style=" stroke: black;"/>
<text x="310" y="245" transform="rotate(90,310,245)" style="font-family: monospace; font-size: 8px;">56232</text>
<line x1="340" y1="240"  x2="340" y2="245" style=" stroke: black;"/>
<text x="340" y="245" transform="rotate(90,340,245)" style="font-family: monospace; font-size: 8px;">62480</text>
<text x="5" y="8" style="font-family: monospace; font-size: 10px;">Dist. Dt</text>
<text x="320" y="230" style="font-family: monospace; font-size: 10px;">Rank</text>
<polyline style="stroke: #00a5eb; stroke-width:1;fill: none;"  points="40 240,41 240,42 240,43 240,44 240,45 240,46 240,47 240,48 240,49 240,50 240,50 237,51 237,52 237,53 237,54 237,55 237,56 237,56 236,57 236,57 235,58 235,58 234,59 234,60 234,61 234,62 234,63 234,63 233,63 232,64 232,65 232,66 232,66 231,66 230,67 230,67 229,68 229,69 229,69 228,69 227,69 226,70 226,70 225,70 224,71 224,72 224,73 224,73 223,74 223,74 222,75 222,76 222,76 221,77 221,78 221,79 221,79 220,80 220,80 219,81 219,82 219,83 219,83 218,84 218,85 218,85 217,86 217,86 216,87 216,88 216,88 215,89 215,89 214,90 214,90 213,90 212,91 212,91 211,92 211,92 210,92 209,92 208,92 207,93 207,93 206,93 205,93 204,94 204,94 203,94 202,95 202,95 201,96 201,96 200,97 200,98 200,98 199,99 199,99 198,100 198,100 197,101 197,102 197,102 196,103 196,104 196,104 195,105 195,106 195,106 194,107 194,108 194,109 194,110 194,110 193,111 193,112 193,113 193,114 193,114 192,115 192,116 192,117 192,118 192,118 191,119 191,120 191,121 191,122 191,123 191,124 191,124 190,125 190,126 190,127 190,127 189,128 189,129 189,130 189,131 189,132 189,133 189,134 189,134 188,135 188,136 188,137 188,138 188,138 187,139 187,140 187,141 187,142 187,142 186,143 186,144 186,145 186,146 186,147 186,148 186,149 186,150 186,151 186,151 185,152 185,153 185,154 185,155 185,156 185,157 185,157 184,158 184,159 184,160 184,161 184,162 184,163 184,164 184,165 184,165 183,166 183,167 183,168 183,169 183,169 182,170 182,171 182,172 182,173 182,174 182,174 181,175 181,176 181,177 181,178 181,179 181,180 181,181 181,182 181,183 181,183 180,184 180,185 180,186 180,186 179,187 179,188 179,189 179,190 179,191 179,191 178,192 178,193 178,194 178,195 178,196 178,197 178,197 177,198 177,199 177,200 177,201 177,201 176,202 176,203 176,204 176,205 176,206 176,207 176,208 176,209 176,209 175,210 175,211 175,212 175,212 174,213 174,214 174,215 174,216 174,216 173,217 173,218 173,219 173,220 173,221 173,221 172,222 172,223 172,223 171,224 171,225 171,226 171,227 171,228 171,229 171,229 170,230 170,231 170,232 170,233 170,233 169,234 169,235 169,236 169,237 169,238 169,238 168,239 168,240 168,241 168,242 168,243 168,244 168,244 167,245 167,246 167,247 167,247 166,248 166,249 166,250 166,251 166,251 165,252 165,253 165,254 165,255 165,256 165,256 164,257 164,258 164,259 164,259 163,260 163,261 163,262 163,262 162,263 162,264 162,265 162,265 161,266 161,267 161,268 161,268 160,269 160,270 160,271 160,271 159,272 159,272 158,273 158,274 158,274 157,275 157,276 157,276 156,277 156,278 156,278 155,279 155,279 154,279 153,280 153,280 152,281 152,281 151,282 151,282 150,282 149,283 149,283 148,283 147,284 147,284 146,284 145,285 145,285 144,285 143,285 142,286 142,286 141,287 141,287 140,288 140,288 139,289 139,289 138,290 138,290 137,291 137,291 136,292 136,292 135,293 135,293 134,293 133,294 133,294 132,295 132,295 131,296 131,296 130,297 130,297 129,298 129,298 128,298 127,299 127,299 126,300 126,300 125,301 125,301 124,302 124,302 123,303 123,303 122,303 121,304 121,304 120,305 120,305 119,305 118,306 118,306 117,306 116,307 116,307 115,307 114,307 113,307 112,308 112,308 111,308 110,308 109,309 109,309 108,309 107,309 106,309 105,310 105,310 104,310 103,310 102,310 101,310 100,311 100,311 99,311 98,311 97,312 97,312 96,312 95,313 95,314 95,314 94,314 93,315 93,315 92,316 92,316 91,316 90,317 90,318 90,318 89,319 89,319 88,320 88,320 87,321 87,321 86,322 86,322 85,323 85,324 85,324 84,325 84,326 84,326 83,327 83,327 82,328 82,328 81,329 81,329 80,330 80,330 79,331 79,331 78,332 78,332 77,333 77,333 76,334 76,334 75,335 75,335 74,335 73,335 72,336 72,336 71,336 70,336 69,337 69,337 68,337 67,338 67,338 66,338 65,338 64,338 63,338 62,339 62,339 61,339 60,339 59,339 58,339 57,339 56,339 55,339 54,339 53,339 52,339 51,339 50,339 49,339 48,339 47,339 46,339 45,339 44,339 42,339 41,339 39"/><line id="CutDis10" visibility="hidden" x1="40" y1="229"  x2="340" y2="229" style=" stroke: red;"/>
<line id="CutDis9" visibility="hidden" x1="40" y1="231"  x2="340" y2="231" style=" stroke: red;"/>
<line id="CutDis8" visibility="hidden" x1="40" y1="227"  x2="340" y2="227" style=" stroke: red;"/>
<line id="CutDis7" visibility="hidden" x1="40" y1="236"  x2="340" y2="236" style=" stroke: red;"/>
<line id="CutDis6" visibility="hidden" x1="40" y1="215"  x2="340" y2="215" style=" stroke: red;"/>
<line id="CutDis5" visibility="hidden" x1="40" y1="229"  x2="340" y2="229" style=" stroke: red;"/>
<line id="CutDis4" visibility="hidden" x1="40" y1="226"  x2="340" y2="226" style=" stroke: red;"/>
<line id="CutDis3" visibility="hidden" x1="40" y1="236"  x2="340" y2="236" style=" stroke: red;"/>
<line id="CutDis2" visibility="hidden" x1="40" y1="207"  x2="340" y2="207" style=" stroke: red;"/>
<line id="CutDis1" visibility="hidden" x1="40" y1="212"  x2="340" y2="212" style=" stroke: red;"/>

</g>
</svg>
