<?xml version="1.0" standalone="no"?>
<!DOCTYPE svg PUBLIC "-//W3C//DTD SVG 1.1//EN"
"http://www.w3.org/Graphics/SVG/1.1/DTD/svg11.dtd">
<svg xmlns="http://www.w3.org/2000/svg"
width="765" height="565" >
<g>
<line x1="40" y1="40"  x2="40" y2="500" style=" stroke: black;"/>
<line x1="40" y1="500"  x2="700" y2="500" style=" stroke: black;"/>
<line x1="37" y1="454"  x2="40" y2="454" style=" stroke: black;"/>
<text x="5" y="454" style="font-family: monospace; font-size: 10px;">1229</text>
<line x1="37" y1="408"  x2="40" y2="408" style=" stroke: black;"/>
<text x="5" y="408" style="font-family: monospace; font-size: 10px;">2459</text>
<line x1="37" y1="362"  x2="40" y2="362" style=" stroke: black;"/>
<text x="5" y="362" style="font-family: monospace; font-size: 10px;">3689</text>
<line x1="37" y1="316"  x2="40" y2="316" style=" stroke: black;"/>
<text x="5" y="316" style="font-family: monospace; font-size: 10px;">4918</text>
<line x1="37" y1="270"  x2="40" y2="270" style=" stroke: black;"/>
<text x="5" y="270" style="font-family: monospace; font-size: 10px;">6148</text>
<line x1="37" y1="224"  x2="40" y2="224" style=" stroke: black;"/>
<text x="5" y="224" style="font-family: monospace; font-size: 10px;">7378</text>
<line x1="37" y1="178"  x2="40" y2="178" style=" stroke: black;"/>
<text x="5" y="178" style="font-family: monospace; font-size: 10px;">8607</text>
<line x1="37" y1="132"  x2="40" y2="132" style=" stroke: black;"/>
<text x="5" y="132" style="font-family: monospace; font-size: 10px;">9837</text>
<line x1="37" y1="86"  x2="40" y2="86" style=" stroke: black;"/>
<text x="5" y="86" style="font-family: monospace; font-size: 10px;">11067</text>
<line x1="37" y1="40"  x2="40" y2="40" style=" stroke: black;"/>
<text x="5" y="40" style="font-family: monospace; font-size: 10px;">12297</text>
<text x="5" y="15" style="font-family: monospace; font-size: 10px;">nbr</text>
<rect x="40" y="306" width="33" height="193"  fill= "#EBE448"  style=" stroke: black;" />
<line x1="40" y1="500"  x2="40" y2="505" style=" stroke: black;"/>
<text x="40" y="505" transform="rotate(90,40,505)" style="font-family: monospace; font-size: 10px;">0.00</text>
<rect x="73" y="416" width="33" height="83"  fill= "#EBE448"  style=" stroke: black;" />
<line x1="73" y1="500"  x2="73" y2="505" style=" stroke: black;"/>
<text x="73" y="505" transform="rotate(90,73,505)" style="font-family: monospace; font-size: 10px;">0.01</text>
<rect x="106" y="376" width="33" height="123"  fill= "#EBE448"  style=" stroke: black;" />
<line x1="106" y1="500"  x2="106" y2="505" style=" stroke: black;"/>
<text x="106" y="505" transform="rotate(90,106,505)" style="font-family: monospace; font-size: 10px;">0.01</text>
<rect x="139" y="469" width="33" height="30"  fill= "#EBE448"  style=" stroke: black;" />
<line x1="139" y1="500"  x2="139" y2="505" style=" stroke: black;"/>
<text x="139" y="505" transform="rotate(90,139,505)" style="font-family: monospace; font-size: 10px;">0.02</text>
<rect x="172" y="316" width="33" height="183"  fill= "#EBE448"  style=" stroke: black;" />
<line x1="172" y1="500"  x2="172" y2="505" style=" stroke: black;"/>
<text x="172" y="505" transform="rotate(90,172,505)" style="font-family: monospace; font-size: 10px;">0.02</text>
<rect x="205" y="39" width="33" height="460"  fill= "#EBE448"  style=" stroke: black;" />
<line x1="205" y1="500"  x2="205" y2="505" style=" stroke: black;"/>
<text x="205" y="505" transform="rotate(90,205,505)" style="font-family: monospace; font-size: 10px;">0.03</text>
<rect x="238" y="124" width="33" height="375"  fill= "#EBE448"  style=" stroke: black;" />
<line x1="238" y1="500"  x2="238" y2="505" style=" stroke: black;"/>
<text x="238" y="505" transform="rotate(90,238,505)" style="font-family: monospace; font-size: 10px;">0.04</text>
<rect x="271" y="180" width="33" height="319"  fill= "#EBE448"  style=" stroke: black;" />
<line x1="271" y1="500"  x2="271" y2="505" style=" stroke: black;"/>
<text x="271" y="505" transform="rotate(90,271,505)" style="font-family: monospace; font-size: 10px;">0.04</text>
<rect x="304" y="386" width="33" height="113"  fill= "#EBE448"  style=" stroke: black;" />
<line x1="304" y1="500"  x2="304" y2="505" style=" stroke: black;"/>
<text x="304" y="505" transform="rotate(90,304,505)" style="font-family: monospace; font-size: 10px;">0.05</text>
<rect x="337" y="457" width="33" height="42"  fill= "#EBE448"  style=" stroke: black;" />
<line x1="337" y1="500"  x2="337" y2="505" style=" stroke: black;"/>
<text x="337" y="505" transform="rotate(90,337,505)" style="font-family: monospace; font-size: 10px;">0.06</text>
<rect x="370" y="429" width="33" height="70"  fill= "#EBE448"  style=" stroke: black;" />
<line x1="370" y1="500"  x2="370" y2="505" style=" stroke: black;"/>
<text x="370" y="505" transform="rotate(90,370,505)" style="font-family: monospace; font-size: 10px;">0.06</text>
<rect x="403" y="437" width="33" height="62"  fill= "#EBE448"  style=" stroke: black;" />
<line x1="403" y1="500"  x2="403" y2="505" style=" stroke: black;"/>
<text x="403" y="505" transform="rotate(90,403,505)" style="font-family: monospace; font-size: 10px;">0.07</text>
<rect x="436" y="468" width="33" height="31"  fill= "#EBE448"  style=" stroke: black;" />
<line x1="436" y1="500"  x2="436" y2="505" style=" stroke: black;"/>
<text x="436" y="505" transform="rotate(90,436,505)" style="font-family: monospace; font-size: 10px;">0.07</text>
<rect x="469" y="480" width="33" height="19"  fill= "#EBE448"  style=" stroke: black;" />
<line x1="469" y1="500"  x2="469" y2="505" style=" stroke: black;"/>
<text x="469" y="505" transform="rotate(90,469,505)" style="font-family: monospace; font-size: 10px;">0.08</text>
<rect x="502" y="447" width="33" height="52"  fill= "#EBE448"  style=" stroke: black;" />
<line x1="502" y1="500"  x2="502" y2="505" style=" stroke: black;"/>
<text x="502" y="505" transform="rotate(90,502,505)" style="font-family: monospace; font-size: 10px;">0.09</text>
<rect x="535" y="400" width="33" height="99"  fill= "#EBE448"  style=" stroke: black;" />
<line x1="535" y1="500"  x2="535" y2="505" style=" stroke: black;"/>
<text x="535" y="505" transform="rotate(90,535,505)" style="font-family: monospace; font-size: 10px;">0.09</text>
<rect x="568" y="450" width="33" height="49"  fill= "#EBE448"  style=" stroke: black;" />
<line x1="568" y1="500"  x2="568" y2="505" style=" stroke: black;"/>
<text x="568" y="505" transform="rotate(90,568,505)" style="font-family: monospace; font-size: 10px;">0.10</text>
<rect x="601" y="479" width="33" height="20"  fill= "#EBE448"  style=" stroke: black;" />
<line x1="601" y1="500"  x2="601" y2="505" style=" stroke: black;"/>
<text x="601" y="505" transform="rotate(90,601,505)" style="font-family: monospace; font-size: 10px;">0.10</text>
<rect x="634" y="496" width="33" height="3"  fill= "#EBE448"  style=" stroke: black;" />
<line x1="634" y1="500"  x2="634" y2="505" style=" stroke: black;"/>
<text x="634" y="505" transform="rotate(90,634,505)" style="font-family: monospace; font-size: 10px;">0.11</text>
<rect x="667" y="498" width="33" height="1"  fill= "#EBE448"  style=" stroke: black;" />
<line x1="667" y1="500"  x2="667" y2="505" style=" stroke: black;"/>
<text x="667" y="505" transform="rotate(90,667,505)" style="font-family: monospace; font-size: 10px;">0.12</text>
<text x="685" y="510" style="font-family: monospace; font-size: 10px;">Dist. value</text>
</g>
</svg>
