<svg xmlns="http://www.w3.org/2000/svg"  width="3640" height="7740" >
<rect x="355" y="20" width="2116" height="540" style="fill:lightblue;stroke:lightblue;" />
 <line x1="120" y1="20" x2="120" y2="560" style="stroke:black;stroke-width:1" />
  <text x="120" y="15" style="color:black;font-size :15;font-family = monospace;" >Asap Score</text>
  <text x="70" y="20" style="color:black;font-size :15;font-family = monospace;" >1.0</text>
 <line x1="110" y1="20" x2="120" y2="20" style="stroke:black;stroke-width:1" />
  <text x="70" y="73" style="color:black;font-size :15;font-family = monospace;" >8.1</text>
 <line x1="110" y1="73" x2="120" y2="73" style="stroke:black;stroke-width:1" />
  <text x="70" y="127" style="color:black;font-size :15;font-family = monospace;" >15.2</text>
 <line x1="110" y1="127" x2="120" y2="127" style="stroke:black;stroke-width:1" />
  <text x="70" y="181" style="color:black;font-size :15;font-family = monospace;" >22.3</text>
 <line x1="110" y1="181" x2="120" y2="181" style="stroke:black;stroke-width:1" />
  <text x="70" y="235" style="color:black;font-size :15;font-family = monospace;" >29.4</text>
 <line x1="110" y1="235" x2="120" y2="235" style="stroke:black;stroke-width:1" />
  <text x="70" y="290" style="color:black;font-size :15;font-family = monospace;" >36.5</text>
 <line x1="110" y1="290" x2="120" y2="290" style="stroke:black;stroke-width:1" />
  <text x="70" y="343" style="color:black;font-size :15;font-family = monospace;" >43.6</text>
 <line x1="110" y1="343" x2="120" y2="343" style="stroke:black;stroke-width:1" />
  <text x="70" y="398" style="color:black;font-size :15;font-family = monospace;" >50.7</text>
 <line x1="110" y1="398" x2="120" y2="398" style="stroke:black;stroke-width:1" />
  <text x="70" y="451" style="color:black;font-size :15;font-family = monospace;" >57.8</text>
 <line x1="110" y1="451" x2="120" y2="451" style="stroke:black;stroke-width:1" />
  <text x="70" y="505" style="color:black;font-size :15;font-family = monospace;" >64.9</text>
 <line x1="110" y1="505" x2="120" y2="505" style="stroke:black;stroke-width:1" />
  <text x="690" y="575" style="color:black;font-size :15;font-family = monospace;" >0.012</text>
 <line x1="690" y1="560" x2="690" y2="570" style="stroke:black;stroke-width:1" />
  <text x="1261" y="575" style="color:black;font-size :15;font-family = monospace;" >0.024</text>
 <line x1="1261" y1="560" x2="1261" y2="570" style="stroke:black;stroke-width:1" />
  <text x="1832" y="575" style="color:black;font-size :15;font-family = monospace;" >0.036</text>
 <line x1="1832" y1="560" x2="1832" y2="570" style="stroke:black;stroke-width:1" />
  <text x="2403" y="575" style="color:black;font-size :15;font-family = monospace;" >0.049</text>
 <line x1="2403" y1="560" x2="2403" y2="570" style="stroke:black;stroke-width:1" />
  <text x="2974" y="575" style="color:black;font-size :15;font-family = monospace;" >0.061</text>
 <line x1="2974" y1="560" x2="2974" y2="570" style="stroke:black;stroke-width:1" />
  <text x="3545" y="575" style="color:black;font-size :15;font-family = monospace;" >0.073</text>
 <line x1="3545" y1="560" x2="3545" y2="570" style="stroke:black;stroke-width:1" />
  <text x="4116" y="575" style="color:black;font-size :15;font-family = monospace;" >0.085</text>
 <line x1="4116" y1="560" x2="4116" y2="570" style="stroke:black;stroke-width:1" />
 <line x1="120" y1="560" x2="4116" y2="560" style="stroke:black;stroke-width:1" />
  <text x="4096" y="572" style="color:black;font-size :10;font-family = monospace;" >dist</text>
 <line x1="4266" y1="248" x2="3620" y2="217" style="stroke:black;stroke-width:1" />
 <line x1="3620" y1="217" x2="2101" y2="491" style="stroke:black;stroke-width:1" />
 <line x1="2101" y1="491" x2="1487" y2="502" style="stroke:black;stroke-width:1" />
 <line x1="1487" y1="502" x2="1340" y2="449" style="stroke:black;stroke-width:1" />
 <line x1="1340" y1="449" x2="1240" y2="373" style="stroke:black;stroke-width:1" />
 <line x1="1240" y1="373" x2="1231" y2="354" style="stroke:black;stroke-width:1" />
 <line x1="1231" y1="354" x2="1198" y2="328" style="stroke:black;stroke-width:1" />
 <line x1="1198" y1="328" x2="1150" y2="217" style="stroke:black;stroke-width:1" />
 <line x1="1150" y1="217" x2="1134" y2="297" style="stroke:black;stroke-width:1" />
 <line x1="1134" y1="297" x2="1063" y2="39" style="stroke:black;stroke-width:1" />
    <line   visibility="hidden"  id="bestline2"   x1="1063" y1="39" x2="1063" y2="7725" stroke="green" />
    <line   visibility="hidden"  id="bestlinejump2"    x1="1059" y1="39" x2="1059" y2="7725" stroke="red" stroke-dasharray="5, 10"/>
 <circle id="bestScore59" onmousemove="ShowTooltip(evt, 'inter/intra: 8.02e-06 Nb species: 12 / 12 [11 subsets] dist:0.020062')"   onmouseout="HideTooltip(evt)" onclick="circle_click(2);" cx="1063" cy="39" r="7" style="fill:#FFAF00;stroke:black;" />
 <line x1="1063" y1="39" x2="1056" y2="248" style="stroke:black;stroke-width:1" />
 <line x1="1056" y1="248" x2="987" y2="35" style="stroke:black;stroke-width:1" />
    <line   visibility="hidden"  id="bestline1"   x1="987" y1="35" x2="987" y2="7725" stroke="green" />
    <line   visibility="hidden"  id="bestlinejump1"    x1="914" y1="35" x2="914" y2="7725" stroke="red" stroke-dasharray="5, 10"/>
 <circle id="bestScore57" onmousemove="ShowTooltip(evt, 'inter/intra: 7.33e-06 Nb species: 14 / 14 [13 subsets] dist:0.018433')"   onmouseout="HideTooltip(evt)" onclick="circle_click(1);" cx="987" cy="35" r="7" style="fill:#F00000;stroke:black;" />
 <line x1="987" y1="35" x2="842" y2="118" style="stroke:black;stroke-width:1" />
    <line   visibility="hidden"  id="bestline6"   x1="842" y1="118" x2="842" y2="7725" stroke="green" />
    <line   visibility="hidden"  id="bestlinejump6"    x1="823" y1="118" x2="823" y2="7725" stroke="red" stroke-dasharray="5, 10"/>
 <circle id="bestScore56" onmousemove="ShowTooltip(evt, 'inter/intra: 2.67e-06 Nb species: 15 / 15 [14 subsets] dist:0.015361')"   onmouseout="HideTooltip(evt)" onclick="circle_click(6);" cx="842" cy="118" r="7" style="fill:#F00000;stroke:black;" />
 <line x1="842" y1="118" x2="805" y2="164" style="stroke:black;stroke-width:1" />
 <line x1="805" y1="164" x2="655" y2="350" style="stroke:black;stroke-width:1" />
 <line x1="655" y1="350" x2="507" y2="77" style="stroke:black;stroke-width:1" />
    <line   visibility="hidden"  id="bestline4"   x1="507" y1="77" x2="507" y2="7725" stroke="green" />
    <line   visibility="hidden"  id="bestlinejump4"    x1="504" y1="77" x2="504" y2="7725" stroke="red" stroke-dasharray="5, 10"/>
 <circle id="bestScore53" onmousemove="ShowTooltip(evt, 'inter/intra: 6.22e-06 Nb species: 18 / 18 [17 subsets] dist:0.008230')"   onmouseout="HideTooltip(evt)" onclick="circle_click(4);" cx="507" cy="77" r="7" style="fill:#FFFF00;stroke:black;" />
 <line x1="507" y1="77" x2="502" y2="278" style="stroke:black;stroke-width:1" />
 <line x1="502" y1="278" x2="482" y2="141" style="stroke:black;stroke-width:1" />
    <line   visibility="hidden"  id="bestline8"   x1="482" y1="141" x2="482" y2="7725" stroke="green" />
    <line   visibility="hidden"  id="bestlinejump8"    x1="482" y1="141" x2="482" y2="7725" stroke="red" stroke-dasharray="5, 10"/>
 <circle id="bestScore51" onmousemove="ShowTooltip(evt, 'inter/intra: 6.04e-06 Nb species: 20 / 20 [19 subsets] dist:0.007716')"   onmouseout="HideTooltip(evt)" onclick="circle_click(8);" cx="482" cy="141" r="7" style="fill:#FFFF00;stroke:black;" />
 <line x1="482" y1="141" x2="481" y2="290" style="stroke:black;stroke-width:1" />
 <line x1="481" y1="290" x2="423" y2="149" style="stroke:black;stroke-width:1" />
    <line   visibility="hidden"  id="bestline10"   x1="423" y1="149" x2="423" y2="7725" stroke="green" />
    <line   visibility="hidden"  id="bestlinejump10"    x1="416" y1="149" x2="416" y2="7725" stroke="red" stroke-dasharray="5, 10"/>
 <circle id="bestScore49" onmousemove="ShowTooltip(evt, 'inter/intra: 3.38e-06 Nb species: 23 / 23 [21 subsets] dist:0.006452')"   onmouseout="HideTooltip(evt)" onclick="circle_click(10);" cx="423" cy="149" r="7" style="fill:#FFFF00;stroke:black;" />
 <line x1="423" y1="149" x2="410" y2="172" style="stroke:black;stroke-width:1" />
 <line x1="410" y1="172" x2="409" y2="107" style="stroke:black;stroke-width:1" />
    <line   visibility="hidden"  id="bestline5"   x1="409" y1="107" x2="409" y2="7725" stroke="green" />
    <line   visibility="hidden"  id="bestlinejump5"    x1="407" y1="107" x2="407" y2="7725" stroke="red" stroke-dasharray="5, 10"/>
 <circle id="bestScore47" onmousemove="ShowTooltip(evt, 'inter/intra: 3.03e-06 Nb species: 25 / 25 [24 subsets] dist:0.006144')"   onmouseout="HideTooltip(evt)" onclick="circle_click(5);" cx="409" cy="107" r="7" style="fill:#FFFF00;stroke:black;" />
 <line x1="409" y1="107" x2="405" y2="316" style="stroke:black;stroke-width:1" />
 <line x1="405" y1="316" x2="400" y2="149" style="stroke:black;stroke-width:1" />
    <line   visibility="hidden"  id="bestline9"   x1="400" y1="149" x2="400" y2="7725" stroke="green" />
    <line   visibility="hidden"  id="bestlinejump9"    x1="372" y1="149" x2="372" y2="7725" stroke="red" stroke-dasharray="5, 10"/>
 <circle id="bestScore45" onmousemove="ShowTooltip(evt, 'inter/intra: 2.92e-06 Nb species: 27 / 27 [26 subsets] dist:0.005952')"   onmouseout="HideTooltip(evt)" onclick="circle_click(9);" cx="400" cy="149" r="7" style="fill:#FFFF00;stroke:black;" />
 <line x1="400" y1="149" x2="345" y2="331" style="stroke:black;stroke-width:1" />
 <line x1="345" y1="331" x2="341" y2="354" style="stroke:black;stroke-width:1" />
 <line x1="341" y1="354" x2="340" y2="388" style="stroke:black;stroke-width:1" />
 <line x1="340" y1="388" x2="336" y2="339" style="stroke:black;stroke-width:1" />
 <line x1="336" y1="339" x2="335" y2="278" style="stroke:black;stroke-width:1" />
 <line x1="335" y1="278" x2="324" y2="202" style="stroke:black;stroke-width:1" />
 <line x1="324" y1="202" x2="307" y2="156" style="stroke:black;stroke-width:1" />
 <line x1="307" y1="156" x2="306" y2="221" style="stroke:black;stroke-width:1" />
 <line x1="306" y1="221" x2="288" y2="248" style="stroke:black;stroke-width:1" />
 <line x1="288" y1="248" x2="283" y2="362" style="stroke:black;stroke-width:1" />
 <line x1="283" y1="362" x2="276" y2="293" style="stroke:black;stroke-width:1" />
 <line x1="276" y1="293" x2="276" y2="366" style="stroke:black;stroke-width:1" />
 <line x1="276" y1="366" x2="275" y2="434" style="stroke:black;stroke-width:1" />
 <line x1="275" y1="434" x2="271" y2="350" style="stroke:black;stroke-width:1" />
 <line x1="271" y1="350" x2="270" y2="392" style="stroke:black;stroke-width:1" />
 <line x1="270" y1="392" x2="263" y2="366" style="stroke:black;stroke-width:1" />
 <line x1="263" y1="366" x2="260" y2="286" style="stroke:black;stroke-width:1" />
 <line x1="260" y1="286" x2="258" y2="366" style="stroke:black;stroke-width:1" />
 <line x1="258" y1="366" x2="256" y2="172" style="stroke:black;stroke-width:1" />
 <line x1="256" y1="172" x2="216" y2="58" style="stroke:black;stroke-width:1" />
    <line   visibility="hidden"  id="bestline3"   x1="216" y1="58" x2="216" y2="7725" stroke="green" />
    <line   visibility="hidden"  id="bestlinejump3"    x1="213" y1="58" x2="213" y2="7725" stroke="red" stroke-dasharray="5, 10"/>
 <circle id="bestScore25" onmousemove="ShowTooltip(evt, 'inter/intra: 6.97e-06 Nb species: 50 / 50 [49 subsets] dist:0.002058')"   onmouseout="HideTooltip(evt)" onclick="circle_click(3);" cx="216" cy="58" r="7" style="fill:#FFFF00;stroke:black;" />
 <line x1="216" y1="58" x2="211" y2="126" style="stroke:black;stroke-width:1" />
    <line   visibility="hidden"  id="bestline7"   x1="211" y1="126" x2="211" y2="7725" stroke="green" />
    <line   visibility="hidden"  id="bestlinejump7"    x1="208" y1="126" x2="208" y2="7725" stroke="red" stroke-dasharray="5, 10"/>
 <circle id="bestScore24" onmousemove="ShowTooltip(evt, 'inter/intra: 4.94e-06 Nb species: 51 / 51 [50 subsets] dist:0.001938')"   onmouseout="HideTooltip(evt)" onclick="circle_click(7);" cx="211" cy="126" r="7" style="fill:#FFFF00;stroke:black;" />
 <line x1="211" y1="126" x2="205" y2="301" style="stroke:black;stroke-width:1" />
 <line x1="205" y1="301" x2="200" y2="331" style="stroke:black;stroke-width:1" />
 <line x1="200" y1="331" x2="200" y2="301" style="stroke:black;stroke-width:1" />
 <line x1="200" y1="301" x2="199" y2="388" style="stroke:black;stroke-width:1" />
 <line x1="199" y1="388" x2="197" y2="457" style="stroke:black;stroke-width:1" />
 <line x1="197" y1="457" x2="196" y2="476" style="stroke:black;stroke-width:1" />
 <line x1="196" y1="476" x2="195" y2="362" style="stroke:black;stroke-width:1" />
 <line x1="195" y1="362" x2="195" y2="426" style="stroke:black;stroke-width:1" />
 <line x1="195" y1="426" x2="195" y2="278" style="stroke:black;stroke-width:1" />
 <line x1="195" y1="278" x2="195" y2="373" style="stroke:black;stroke-width:1" />
 <line x1="195" y1="373" x2="194" y2="320" style="stroke:black;stroke-width:1" />
 <line x1="194" y1="320" x2="194" y2="210" style="stroke:black;stroke-width:1" />
 <line x1="194" y1="210" x2="193" y2="278" style="stroke:black;stroke-width:1" />
 <line x1="193" y1="278" x2="192" y2="301" style="stroke:black;stroke-width:1" />
 <line x1="192" y1="301" x2="192" y2="388" style="stroke:black;stroke-width:1" />
 <line x1="192" y1="388" x2="192" y2="388" style="stroke:black;stroke-width:1" />
 <line x1="192" y1="388" x2="192" y2="259" style="stroke:black;stroke-width:1" />
 <line x1="192" y1="259" x2="191" y2="213" style="stroke:black;stroke-width:1" />
 <line x1="191" y1="213" x2="191" y2="358" style="stroke:black;stroke-width:1" />
 <line x1="191" y1="358" x2="190" y2="293" style="stroke:black;stroke-width:1" />
 <line x1="190" y1="293" x2="190" y2="232" style="stroke:black;stroke-width:1" />
 <line x1="190" y1="232" x2="189" y2="324" style="stroke:black;stroke-width:1" />
 <line x1="189" y1="324" x2="188" y2="297" style="stroke:black;stroke-width:1" />
 <line x1="188" y1="297" x2="120" y2="514" style="stroke:black;stroke-width:1" />
  <text x="10" y="622" style="color:black;font-size :12;font-family = monospace;" >Legend:</text>
 <circle cx="80" cy="610" r="6" fill="#320000" />
  <text x="75" y="625" style="color:black;font-size :12;font-family = monospace;" >&lt;0.001</text>
 <circle cx="142" cy="610" r="6" fill="#F00000" />
  <text x="137" y="625" style="color:black;font-size :12;font-family = monospace;" >&lt;0.05</text>
 <circle cx="204" cy="610" r="6" fill="#FFAF00" />
  <text x="199" y="625" style="color:black;font-size :12;font-family = monospace;" >&lt;0.1</text>
 <circle cx="266" cy="610" r="6" fill="#FFFF00" />
  <text x="261" y="625" style="color:black;font-size :12;font-family = monospace;" >&gt;0.1</text>
 <circle cx="328" cy="610" r="6" fill="#CCCCCC" />
  <text x="323" y="625" style="color:black;font-size :12;font-family = monospace;" >N/A</text>
 <line x1="400" y1="625" x2="410" y2="625" style="stroke:#ffb83b;stroke-width:1" />
</svg>
