<svg width="811" height="918" viewBox="0 0 811 918" fill="none" xmlns="http://www.w3.org/2000/svg">
<path d="M18.1331 239.696L405.5 20.116L792.867 239.696V678.304L405.5 897.884L18.1331 678.304V239.696Z" fill="white" stroke="#4D5057" stroke-width="35"/>
<path d="M322.388 478.674C358.844 478.674 388.397 503.119 388.397 533.273C388.397 563.423 358.844 587.868 322.388 587.868C285.931 587.868 256.373 563.423 256.373 533.273C256.373 503.119 285.931 478.674 322.388 478.674ZM370.317 600.836C370.317 585.227 385.615 572.569 404.488 572.569C423.37 572.569 438.674 585.227 438.674 600.836C438.674 616.453 423.37 629.112 404.488 629.112C385.615 629.112 370.317 616.453 370.317 600.836ZM224.022 533.36C224.022 578.339 268.109 614.799 322.49 614.799C334.256 614.799 345.487 613.003 355.951 609.875C356.085 610.204 356.275 610.444 356.459 610.703C361.877 628.409 381.203 641.519 404.286 641.519C431.562 641.519 453.679 623.23 453.679 600.671C453.679 581.218 437.23 564.975 415.223 560.849C415.356 560.412 415.517 559.967 415.666 559.527C416.341 557.875 416.933 556.199 417.488 554.501C418.278 552.382 419.019 550.25 419.44 548.046C419.664 546.92 419.852 545.459 420.012 544.062C420.256 542.51 420.449 540.962 420.586 539.389L420.597 539.391L420.673 539.4C450.741 542.787 481.577 540.044 510.414 531.164C552.427 518.226 587.353 493.139 608.729 460.545L608.71 460.536C611.449 456.362 612.885 451.688 612.886 446.939C612.886 431.186 597.448 418.416 578.403 418.417C565.756 418.418 554.126 424.146 548.096 433.341L548.063 433.326C527.7 464.382 488.418 483.727 445.705 483.732C414.817 483.732 385.195 473.583 363.354 455.518C341.512 437.452 329.242 412.95 329.242 387.402C329.242 361.853 341.512 337.351 363.354 319.286C385.195 301.221 414.817 291.071 445.705 291.071C493.934 291.103 537.15 315.719 554.385 352.977H477.979C458.925 352.977 443.479 365.752 443.479 381.512C443.479 397.272 458.925 410.048 477.979 410.048L596.011 410.05C596.174 410.052 596.337 410.054 596.501 410.054C596.54 410.053 596.58 410.051 596.619 410.05H597.137L597.127 410.029C615.923 409.746 630.986 397.068 631 381.519C630.994 381.071 630.974 380.623 630.943 380.176L630.962 380.174L630.932 379.917C630.889 379.416 630.83 378.916 630.755 378.417C628.153 341.715 609.702 307.006 578.76 280.61C547.818 254.215 506.444 237.889 462.172 234.606C456.783 234.209 451.376 234.006 445.966 234C445.194 233.999 444.421 234.002 443.648 234.009C441.499 234.029 439.351 234.08 437.204 234.161C353.97 237.32 283.5 286.006 264.915 353.185C254.987 389.074 261 426.709 281.831 459.224C247.753 472.033 224.022 500.377 224.022 533.36Z" fill="#1D63B2"/>
<path d="M434.462 569.519L438.351 540.656L413.632 527.483C412.553 518.362 410.635 509.626 407.173 501.363L407.439 501.365L423.319 477.091L405.857 453.923L378.433 462.759L378.403 462.792C371.415 457.231 363.552 453.233 355.107 449.759L349.123 422.001L320.458 418.085L307.339 443.235C298.279 444.317 289.588 446.381 281.381 449.87L281.369 449.664L257.26 433.706L234.249 451.303L243.024 478.922L243.06 478.959C237.534 485.993 231.959 493.697 228.509 502.199L199.341 508.006L195.451 536.869L222.029 550.297C223.104 559.421 225.956 568.278 229.421 576.543L229.616 576.607L213.969 600.908L231.545 624.094L259.026 615.267L259.083 615.237C266.073 620.795 273.771 626.147 282.217 629.625L288.031 658.738L316.695 662.654L329.998 636.153C339.059 635.067 347.838 632.328 356.044 628.843L356.103 628.707L380.237 644.498L403.258 626.814L394.489 599.149L394.459 599.095C399.982 592.058 403.697 584.093 407.15 575.59L434.462 569.519ZM312.278 587.12C285.893 583.516 267.405 559.063 270.985 532.491C274.565 505.926 298.857 487.309 325.242 490.913C351.63 494.518 370.115 518.979 366.535 545.544C362.954 572.115 338.667 590.725 312.278 587.12Z" fill="#B0B2B6"/>
<path d="M435.665 668.966L450.92 659.496L447.214 642.002C451.132 637.901 454.398 633.334 456.967 628.415L457.009 628.442L474.763 626.504L478.904 608.961L463.908 599.208L463.88 599.205C463.774 593.65 462.924 588.073 461.247 582.648L472.445 568.637L463.035 553.29L445.575 557.073C441.499 553.127 436.931 549.867 432.038 547.285L432.051 547.249L430.116 529.39L412.689 525.248L403.002 540.332L402.989 540.368C397.831 540.553 391.876 541.249 386.474 542.935L372.51 531.602L357.251 541.07L361.046 558.714C357.13 562.81 353.901 567.454 351.335 572.364L351.315 572.379L333.571 574.343L329.689 593.461L344.941 604.79L344.969 604.785C344.895 608.375 345.672 614.347 347.339 619.779L336.022 633.005L345.368 647.962L362.799 643.977C366.876 647.916 371.429 651.09 376.317 653.673L376.305 653.655L378.234 671.488L395.671 675.631L405.362 660.53L405.373 660.498C410.887 660.386 416.393 659.469 421.789 657.785L435.665 668.966ZM378.746 616.209C370.089 602.09 374.448 583.571 388.492 574.854C402.531 566.134 420.934 570.515 429.595 584.643C438.256 598.773 433.895 617.285 419.855 626.006C405.808 634.718 387.408 630.333 378.746 616.209Z" fill="#BFBEC4"/>
</svg>
