<?xml version="1.0" encoding="UTF-8" standalone="no"?>
<!-- Created with Inkscape (http://www.inkscape.org/) -->

<svg
   xmlns:osb="http://www.openswatchbook.org/uri/2009/osb"
   xmlns:dc="http://purl.org/dc/elements/1.1/"
   xmlns:cc="http://creativecommons.org/ns#"
   xmlns:rdf="http://www.w3.org/1999/02/22-rdf-syntax-ns#"
   xmlns:svg="http://www.w3.org/2000/svg"
   xmlns="http://www.w3.org/2000/svg"
   xmlns:sodipodi="http://sodipodi.sourceforge.net/DTD/sodipodi-0.dtd"
   xmlns:inkscape="http://www.inkscape.org/namespaces/inkscape"
   width="72.302887mm"
   height="70.83004mm"
   viewBox="0 0 72.302887 70.83004"
   version="1.1"
   id="svg8"
   inkscape:version="0.92.3 (2405546, 2018-03-11)"
   sodipodi:docname="logo.svg">
  <defs
     id="defs2">
    <inkscape:path-effect
       effect="spiro"
       id="path-effect2784"
       is_visible="true" />
    <inkscape:path-effect
       effect="spiro"
       id="path-effect2780"
       is_visible="true" />
    <inkscape:path-effect
       effect="spiro"
       id="path-effect2776"
       is_visible="true" />
    <linearGradient
       id="linearGradient2762"
       osb:paint="gradient">
      <stop
         style="stop-color:#000000;stop-opacity:1;"
         offset="0"
         id="stop2758" />
      <stop
         style="stop-color:#000000;stop-opacity:0;"
         offset="1"
         id="stop2760" />
    </linearGradient>
    <inkscape:path-effect
       effect="spiro"
       id="path-effect1024"
       is_visible="true" />
    <inkscape:path-effect
       effect="spiro"
       id="path-effect1016"
       is_visible="true" />
    <inkscape:perspective
       sodipodi:type="inkscape:persp3d"
       inkscape:vp_x="0 : 560.73062 : 1"
       inkscape:vp_y="0 : 3779.5272 : 0"
       inkscape:vp_z="793.70083 : 560.73062 : 1"
       inkscape:persp3d-origin="396.85041 : 373.64402 : 1"
       id="perspective946" />
    <inkscape:perspective
       sodipodi:type="inkscape:persp3d"
       inkscape:vp_x="0 : 149.02916 : 1"
       inkscape:vp_y="0 : 999.99992 : 0"
       inkscape:vp_z="210.00001 : 149.02916 : 1"
       inkscape:persp3d-origin="105 : 99.529159 : 1"
       id="perspective902" />
  </defs>
  <sodipodi:namedview
     id="base"
     pagecolor="#ffffff"
     bordercolor="#666666"
     borderopacity="1.0"
     inkscape:pageopacity="0.0"
     inkscape:pageshadow="2"
     inkscape:zoom="1.633192"
     inkscape:cx="82.693061"
     inkscape:cy="134.35039"
     inkscape:document-units="mm"
     inkscape:current-layer="layer1"
     showgrid="false"
     inkscape:measure-start="194.834,240.759"
     inkscape:measure-end="347.918,474.56"
     inkscape:window-width="1366"
     inkscape:window-height="713"
     inkscape:window-x="0"
     inkscape:window-y="178"
     inkscape:window-maximized="1" />
  <metadata
     id="metadata5">
    <rdf:RDF>
      <cc:Work
         rdf:about="">
        <dc:format>image/svg+xml</dc:format>
        <dc:type
           rdf:resource="http://purl.org/dc/dcmitype/StillImage" />
        <dc:title></dc:title>
      </cc:Work>
    </rdf:RDF>
  </metadata>
  <g
     inkscape:label="Layer 1"
     inkscape:groupmode="layer"
     id="layer1"
     transform="translate(-64.002481,-111.97587)">
    <circle
       style="opacity:0.625;fill:none;fill-opacity:1;fill-rule:nonzero;stroke:#000100;stroke-width:0.465;stroke-miterlimit:4;stroke-dasharray:none;stroke-dashoffset:2.99999976;stroke-opacity:1"
       id="path1185"
       cx="66.46244"
       cy="144.37572"
       r="0.82847917" />
    <circle
       style="opacity:0.625;fill:none;fill-opacity:1;fill-rule:nonzero;stroke:#000100;stroke-width:0.465;stroke-miterlimit:4;stroke-dasharray:none;stroke-dashoffset:2.99999976;stroke-opacity:1"
       id="path1185-2"
       cx="68.303505"
       cy="138.30022"
       r="0.82847917" />
    <circle
       style="opacity:0.625;fill:none;fill-opacity:1;fill-rule:nonzero;stroke:#000100;stroke-width:0.465;stroke-miterlimit:4;stroke-dasharray:none;stroke-dashoffset:2.99999976;stroke-opacity:1"
       id="path1185-28"
       cx="72.169739"
       cy="137.74789"
       r="0.82847917" />
    <circle
       style="opacity:0.625;fill:none;fill-opacity:1;fill-rule:nonzero;stroke:#000100;stroke-width:0.465;stroke-miterlimit:4;stroke-dasharray:none;stroke-dashoffset:2.99999976;stroke-opacity:1"
       id="path1185-9"
       cx="74.194916"
       cy="132.59291"
       r="0.82847917" />
    <circle
       style="opacity:0.625;fill:none;fill-opacity:1;fill-rule:nonzero;stroke:#000100;stroke-width:0.465;stroke-miterlimit:4;stroke-dasharray:none;stroke-dashoffset:2.99999976;stroke-opacity:1"
       id="path1185-3"
       cx="78.245255"
       cy="130.93596"
       r="0.82847917" />
    <circle
       style="opacity:0.625;fill:none;fill-opacity:1;fill-rule:nonzero;stroke:#000100;stroke-width:0.465;stroke-miterlimit:4;stroke-dasharray:none;stroke-dashoffset:2.99999976;stroke-opacity:1"
       id="path1185-6"
       cx="83.216133"
       cy="129.6472"
       r="0.82847917" />
    <circle
       style="opacity:0.625;fill:none;fill-opacity:1;fill-rule:nonzero;stroke:#000100;stroke-width:0.465;stroke-miterlimit:4;stroke-dasharray:none;stroke-dashoffset:2.99999976;stroke-opacity:1"
       id="path1185-31"
       cx="87.266472"
       cy="129.83131"
       r="0.82847917" />
    <circle
       style="opacity:0.625;fill:none;fill-opacity:1;fill-rule:nonzero;stroke:#000100;stroke-width:0.465;stroke-miterlimit:4;stroke-dasharray:none;stroke-dashoffset:2.99999976;stroke-opacity:1"
       id="path1185-94"
       cx="91.685028"
       cy="127.62203"
       r="0.82847917" />
    <circle
       style="opacity:0.625;fill:none;fill-opacity:1;fill-rule:nonzero;stroke:#000100;stroke-width:0.465;stroke-miterlimit:4;stroke-dasharray:none;stroke-dashoffset:2.99999976;stroke-opacity:1"
       id="path1185-7"
       cx="95.919479"
       cy="129.27899"
       r="0.82847917" />
    <circle
       style="opacity:0.625;fill:none;fill-opacity:1;fill-rule:nonzero;stroke:#000100;stroke-width:0.465;stroke-miterlimit:4;stroke-dasharray:none;stroke-dashoffset:2.99999976;stroke-opacity:1"
       id="path1185-8"
       cx="100.70625"
       cy="130.01541"
       r="0.82847917" />
    <circle
       style="opacity:0.625;fill:none;fill-opacity:1;fill-rule:nonzero;stroke:#000100;stroke-width:0.465;stroke-miterlimit:4;stroke-dasharray:none;stroke-dashoffset:2.99999976;stroke-opacity:1"
       id="path1185-4"
       cx="109.17515"
       cy="129.27899"
       r="0.82847917" />
    <circle
       style="opacity:0.625;fill:none;fill-opacity:1;fill-rule:nonzero;stroke:#000100;stroke-width:0.465;stroke-miterlimit:4;stroke-dasharray:none;stroke-dashoffset:2.99999976;stroke-opacity:1"
       id="path1185-5"
       cx="112.30495"
       cy="130.93596"
       r="0.82847917" />
    <circle
       style="opacity:0.625;fill:none;fill-opacity:1;fill-rule:nonzero;stroke:#000100;stroke-width:0.465;stroke-miterlimit:4;stroke-dasharray:none;stroke-dashoffset:2.99999976;stroke-opacity:1"
       id="path1185-0"
       cx="121.69439"
       cy="127.25382"
       r="0.82847917" />
    <circle
       style="opacity:0.625;fill:none;fill-opacity:1;fill-rule:nonzero;stroke:#000100;stroke-width:0.465;stroke-miterlimit:4;stroke-dasharray:none;stroke-dashoffset:2.99999976;stroke-opacity:1"
       id="path1185-36"
       cx="117.64404"
       cy="130.01541"
       r="0.82847917" />
    <circle
       style="opacity:0.625;fill:none;fill-opacity:1;fill-rule:nonzero;stroke:#000100;stroke-width:0.465;stroke-miterlimit:4;stroke-dasharray:none;stroke-dashoffset:2.99999976;stroke-opacity:1"
       id="path1185-1"
       cx="126.29705"
       cy="127.25382"
       r="0.82847917" />
    <circle
       style="opacity:0.625;fill:none;fill-opacity:1;fill-rule:nonzero;stroke:#000100;stroke-width:0.465;stroke-miterlimit:4;stroke-dasharray:none;stroke-dashoffset:2.99999976;stroke-opacity:1"
       id="path1185-06"
       cx="104.38837"
       cy="126.88561"
       r="0.82847917" />
    <path
       style="fill:none;fill-rule:evenodd;stroke:#29489a;stroke-width:1.04212797;stroke-linecap:butt;stroke-linejoin:miter;stroke-miterlimit:4;stroke-dasharray:none;stroke-opacity:1"
       d="m 65.128447,145.39395 c 2.004272,-4.866 5.400605,-9.14946 9.681499,-12.21034 4.280894,-3.06087 9.432587,-4.88932 14.685283,-5.21212 5.972284,-0.36702 11.880121,1.1641 17.835621,1.74282 2.97775,0.28935 6.00134,0.33857 8.94353,-0.20384 2.9422,-0.54241 5.81123,-1.7015 8.09879,-3.62966 0.50999,-0.42986 0.98937,-0.89602 1.43333,-1.39378"
       id="path1022"
       inkscape:connector-curvature="0"
       inkscape:path-effect="#path-effect1024"
       inkscape:original-d="m 65.128447,145.39395 c 8.122603,-5.808 16.244863,-11.61546 24.366782,-17.42246 8.121917,-5.80697 23.252311,-1.39429 34.877941,-2.09068 11.62563,-0.69639 0.9559,-0.92969 1.43333,-1.39378" />
    <ellipse
       style="opacity:1;fill:#c6b7c7;fill-opacity:0.29302326;fill-rule:nonzero;stroke:#575657;stroke-width:1.60599995;stroke-miterlimit:4;stroke-dasharray:none;stroke-dashoffset:2.99999976;stroke-opacity:1"
       id="path1012"
       cx="100.15392"
       cy="147.39088"
       rx="35.348442"
       ry="34.612019" />
    <text
       xml:space="preserve"
       style="font-style:normal;font-weight:normal;font-size:10.58333302px;line-height:125%;font-family:sans-serif;letter-spacing:0px;word-spacing:0px;fill:#000000;fill-opacity:1;stroke:none;stroke-width:0.26458332px;stroke-linecap:butt;stroke-linejoin:miter;stroke-opacity:1"
       x="35.40976"
       y="199.36279"
       id="text6569"><tspan
         sodipodi:role="line"
         id="tspan6567"
         x="35.40976"
         y="208.72656"
         style="stroke-width:0.26458332px" /></text>
    <g
       transform="matrix(9.629314,0,0,9.629314,-540.50451,-989.76545)"
       style="fill:#000000;fill-opacity:1"
       id="g14">
      <g
         id="use12"
         transform="matrix(0.26458333,0,0,0.26458333,64.718497,119.74189)">
        <path
           inkscape:connector-curvature="0"
           id="path101"
           d="m 0.15625,-0.984375 c -0.015625,0.03125 -0.046875,0.0625 -0.046875,0.09375 0,0.046875 0.0625,0.140625 0.125,0.140625 C 0.28125,-0.75 0.3125,-0.78125 0.59375,-1.0625 0.671875,-1.140625 0.875,-1.328125 0.953125,-1.40625 1.046875,-0.625 1.328125,0.125 2.0625,0.125 c 0.40625,0 0.75,-0.234375 0.953125,-0.390625 C 3.15625,-0.359375 3.625,-0.75 3.625,-0.84375 c 0,-0.03125 -0.03125,-0.125 -0.109375,-0.125 -0.03125,0 -0.046875,0.015625 -0.140625,0.09375 -0.640625,0.625 -1,0.78125 -1.296875,0.78125 -0.4375,0 -0.609375,-0.53125 -0.609375,-1.296875 0,-0.0625 0.03125,-0.515625 0.0625,-0.578125 C 1.546875,-2 1.546875,-2.015625 1.75,-2.21875 2.546875,-3.015625 3.96875,-4.703125 3.96875,-6.25 c 0,-0.171875 0,-0.78125 -0.59375,-0.78125 -0.828125,0 -1.5625,1.640625 -1.65625,1.875 -0.484375,1.09375 -0.796875,2.25 -0.796875,3.4375 z M 1.578125,-2.375 C 1.59375,-2.5 2.03125,-4.703125 2.59375,-5.875 c 0.265625,-0.53125 0.484375,-0.9375 0.796875,-0.9375 0.34375,0 0.34375,0.359375 0.34375,0.515625 0,1.671875 -1.6875,3.421875 -2.15625,3.921875 z m 0,0"
           style="stroke:none" />
      </g>
    </g>
    <g
       transform="matrix(9.629314,0,0,9.629314,-568.02135,-989.76545)"
       style="fill:#000000;fill-opacity:1"
       id="g18">
      <g
         id="use16"
         transform="matrix(0.26458333,0,0,0.26458333,68.867327,119.74189)">
        <path
           inkscape:connector-curvature="0"
           id="path93"
           d="m 1.171875,-2.171875 c 0,-1.625 0.8125,-2.046875 1.34375,-2.046875 0.09375,0 0.71875,0.015625 1.0625,0.375 -0.40625,0.03125 -0.46875,0.328125 -0.46875,0.453125 0,0.265625 0.1875,0.453125 0.453125,0.453125 0.265625,0 0.46875,-0.15625 0.46875,-0.46875 0,-0.671875 -0.765625,-1.0625 -1.53125,-1.0625 -1.25,0 -2.15625,1.078125 -2.15625,2.3125 0,1.28125 0.984375,2.265625 2.140625,2.265625 1.328125,0 1.65625,-1.203125 1.65625,-1.296875 0,-0.09375 -0.109375,-0.09375 -0.140625,-0.09375 -0.078125,0 -0.109375,0.03125 -0.125,0.09375 -0.28125,0.921875 -0.9375,1.046875 -1.296875,1.046875 -0.53125,0 -1.40625,-0.421875 -1.40625,-2.03125 z m 0,0"
           style="stroke:none" />
      </g>
    </g>
    <g
       transform="matrix(9.629314,0,0,9.629314,-597.65487,-989.76545)"
       style="fill:#000000;fill-opacity:1"
       id="g22">
      <g
         id="use20"
         transform="matrix(0.26458333,0,0,0.26458333,73.295327,119.74189)">
        <path
           inkscape:connector-curvature="0"
           id="path97"
           d="m 1.171875,-2.171875 c 0,-1.625 0.8125,-2.046875 1.34375,-2.046875 0.09375,0 0.71875,0.015625 1.0625,0.375 -0.40625,0.03125 -0.46875,0.328125 -0.46875,0.453125 0,0.265625 0.1875,0.453125 0.453125,0.453125 0.265625,0 0.46875,-0.15625 0.46875,-0.46875 0,-0.671875 -0.765625,-1.0625 -1.53125,-1.0625 -1.25,0 -2.15625,1.078125 -2.15625,2.3125 0,1.28125 0.984375,2.265625 2.140625,2.265625 1.328125,0 1.65625,-1.203125 1.65625,-1.296875 0,-0.09375 -0.109375,-0.09375 -0.140625,-0.09375 -0.078125,0 -0.109375,0.03125 -0.125,0.09375 -0.28125,0.921875 -0.9375,1.046875 -1.296875,1.046875 -0.53125,0 -1.40625,-0.421875 -1.40625,-2.03125 z m 0,0"
           style="stroke:none" />
      </g>
    </g>
  </g>
</svg>
