<?xml version="1.0" encoding="UTF-8"?>
<svg width="700pt" height="700pt" version="1.1" viewBox="0 0 700 700" xmlns="http://www.w3.org/2000/svg" xmlns:xlink="http://www.w3.org/1999/xlink">
 <defs>
  <symbol id="v" overflow="visible">
   <path d="m10.656-0.64062c-0.55469 0.29297-1.125 0.50781-1.7188 0.64062-0.59375 0.14453-1.2148 0.21875-1.8594 0.21875-1.9375 0-3.4688-0.53516-4.5938-1.6094-1.125-1.082-1.6875-2.5469-1.6875-4.3906 0-1.8516 0.5625-3.3203 1.6875-4.4062 1.125-1.082 2.6562-1.625 4.5938-1.625 0.64453 0 1.2656 0.074219 1.8594 0.21875 0.59375 0.14844 1.1641 0.36719 1.7188 0.65625v2.3906c-0.55469-0.375-1.1016-0.64844-1.6406-0.82812-0.54297-0.17578-1.1094-0.26562-1.7031-0.26562-1.0625 0-1.9023 0.34375-2.5156 1.0312-0.60547 0.67969-0.90625 1.6211-0.90625 2.8281 0 1.1992 0.30078 2.1406 0.90625 2.8281 0.61328 0.67969 1.4531 1.0156 2.5156 1.0156 0.59375 0 1.1602-0.085938 1.7031-0.26562 0.53906-0.17578 1.0859-0.45312 1.6406-0.82812z"/>
  </symbol>
  <symbol id="b" overflow="visible">
   <path d="m7.7969-6.3281c-0.24219-0.11328-0.48438-0.19531-0.73438-0.25-0.24219-0.050781-0.48047-0.078125-0.71875-0.078125-0.71094 0-1.2617 0.23047-1.6562 0.6875-0.38672 0.44922-0.57812 1.1055-0.57812 1.9688v4h-2.7812v-8.7031h2.7812v1.4375c0.36328-0.57031 0.77344-0.98828 1.2344-1.25 0.46875-0.25781 1.0234-0.39062 1.6719-0.39062 0.09375 0 0.19141 0.007812 0.29688 0.015625 0.11328 0 0.27344 0.015625 0.48438 0.046875z"/>
  </symbol>
  <symbol id="a" overflow="visible">
   <path d="m10.016-4.375v0.79688h-6.5c0.070313 0.64844 0.30469 1.1367 0.70312 1.4688 0.40625 0.32422 0.97266 0.48438 1.7031 0.48438 0.58203 0 1.1797-0.082031 1.7969-0.25 0.61328-0.17578 1.2422-0.44141 1.8906-0.79688v2.1406c-0.65625 0.25-1.3203 0.4375-1.9844 0.5625-0.65625 0.125-1.3125 0.1875-1.9688 0.1875-1.5742 0-2.7969-0.39453-3.6719-1.1875-0.86719-0.80078-1.2969-1.9258-1.2969-3.375 0-1.4141 0.42578-2.5312 1.2812-3.3438 0.85156-0.8125 2.0312-1.2188 3.5312-1.2188 1.375 0 2.4688 0.41406 3.2812 1.2344 0.82031 0.82422 1.2344 1.9219 1.2344 3.2969zm-2.8594-0.92188c0-0.53125-0.15625-0.95703-0.46875-1.2812-0.30469-0.32031-0.70312-0.48438-1.2031-0.48438-0.53125 0-0.96875 0.15234-1.3125 0.45312-0.33594 0.30469-0.54297 0.74219-0.625 1.3125z"/>
  </symbol>
  <symbol id="e" overflow="visible">
   <path d="m5.2344-3.9219c-0.58594 0-1.0234 0.10156-1.3125 0.29688-0.29297 0.19922-0.4375 0.49219-0.4375 0.875 0 0.35547 0.11328 0.63281 0.34375 0.82812 0.23828 0.19922 0.57031 0.29688 1 0.29688 0.51953 0 0.95703-0.1875 1.3125-0.5625 0.35156-0.375 0.53125-0.84375 0.53125-1.4062v-0.32812zm4.25-1.0469v4.9688h-2.8125v-1.2969c-0.36719 0.53125-0.78125 0.91797-1.25 1.1562-0.46875 0.23828-1.0391 0.35938-1.7031 0.35938-0.89844 0-1.625-0.25781-2.1875-0.78125-0.5625-0.51953-0.84375-1.2031-0.84375-2.0469 0-1.0195 0.34766-1.7656 1.0469-2.2344 0.69531-0.47656 1.8008-0.71875 3.3125-0.71875h1.625v-0.21875c0-0.44531-0.17188-0.76953-0.51562-0.96875-0.34375-0.20703-0.88672-0.3125-1.625-0.3125-0.59375 0-1.1484 0.0625-1.6562 0.1875-0.51172 0.11719-0.99219 0.29297-1.4375 0.53125v-2.125c0.60156-0.14453 1.2031-0.25391 1.7969-0.32812 0.60156-0.070313 1.207-0.10938 1.8125-0.10938 1.5625 0 2.6914 0.3125 3.3906 0.9375 0.69531 0.61719 1.0469 1.6172 1.0469 3z"/>
  </symbol>
  <symbol id="d" overflow="visible">
   <path d="m4.375-11.172v2.4688h2.8594v2h-2.8594v3.6875c0 0.39844 0.078125 0.66797 0.23438 0.8125 0.16406 0.14844 0.48438 0.21875 0.95312 0.21875h1.4375v1.9844h-2.3906c-1.0938 0-1.8711-0.22656-2.3281-0.6875-0.46094-0.45703-0.6875-1.2344-0.6875-2.3281v-3.6875h-1.3906v-2h1.3906v-2.4688z"/>
  </symbol>
  <symbol id="f" overflow="visible">
   <path d="m7.25-7.4219v-4.6562h2.7969v12.078h-2.7969v-1.2656c-0.38672 0.52344-0.80859 0.90234-1.2656 1.1406-0.46094 0.22656-0.99219 0.34375-1.5938 0.34375-1.0742 0-1.9531-0.42188-2.6406-1.2656-0.6875-0.85156-1.0312-1.9531-1.0312-3.2969s0.34375-2.4375 1.0312-3.2812c0.6875-0.85156 1.5664-1.2812 2.6406-1.2812 0.60156 0 1.1328 0.12109 1.5938 0.35938 0.45703 0.24219 0.87891 0.61719 1.2656 1.125zm-1.8281 5.625c0.59375 0 1.0469-0.21094 1.3594-0.64062 0.3125-0.4375 0.46875-1.0703 0.46875-1.9062 0-0.82031-0.15625-1.4531-0.46875-1.8906s-0.76562-0.65625-1.3594-0.65625-1.0469 0.21875-1.3594 0.65625-0.46875 1.0703-0.46875 1.8906c0 0.83594 0.15625 1.4688 0.46875 1.9062 0.3125 0.42969 0.76562 0.64062 1.3594 0.64062z"/>
  </symbol>
  <symbol id="m" overflow="visible">
   <path d="m5.9688-1.7969c0.59375 0 1.0469-0.21094 1.3594-0.64062 0.3125-0.4375 0.46875-1.0703 0.46875-1.9062 0-0.82031-0.15625-1.4531-0.46875-1.8906s-0.76562-0.65625-1.3594-0.65625-1.0547 0.21875-1.375 0.65625c-0.32422 0.4375-0.48438 1.0703-0.48438 1.8906 0 0.82422 0.16016 1.4531 0.48438 1.8906 0.32031 0.4375 0.78125 0.65625 1.375 0.65625zm-1.8594-5.625c0.38281-0.50781 0.8125-0.88281 1.2812-1.125 0.46875-0.23828 1.0039-0.35938 1.6094-0.35938 1.0703 0 1.9531 0.42969 2.6406 1.2812 0.6875 0.84375 1.0312 1.9375 1.0312 3.2812s-0.34375 2.4453-1.0312 3.2969c-0.6875 0.84375-1.5703 1.2656-2.6406 1.2656-0.60547 0-1.1406-0.12109-1.6094-0.35938-0.46875-0.23828-0.89844-0.61328-1.2812-1.125v1.2656h-2.7812v-12.078h2.7812z"/>
  </symbol>
  <symbol id="l" overflow="visible">
   <path d="m0.1875-8.7031h2.7812l2.3438 5.9062 1.9844-5.9062h2.7812l-3.6562 9.5312c-0.36719 0.96875-0.79297 1.6445-1.2812 2.0312-0.49219 0.38281-1.1367 0.57812-1.9375 0.57812h-1.6094v-1.8281h0.875c0.46875 0 0.80469-0.078125 1.0156-0.23438 0.21875-0.14844 0.38281-0.41406 0.5-0.79688l0.078125-0.25z"/>
  </symbol>
  <symbol id="k" overflow="visible">
   <path d="m8.125-8.4219v2.1094c-0.59375-0.25-1.168-0.4375-1.7188-0.5625-0.55469-0.125-1.0742-0.1875-1.5625-0.1875-0.53125 0-0.92969 0.070312-1.1875 0.20312-0.25 0.13672-0.375 0.33984-0.375 0.60938 0 0.21875 0.09375 0.39062 0.28125 0.51562 0.19531 0.11719 0.54688 0.20312 1.0469 0.26562l0.5 0.0625c1.4141 0.17969 2.3672 0.47656 2.8594 0.89062 0.5 0.41797 0.75 1.0703 0.75 1.9531 0 0.92969-0.34375 1.625-1.0312 2.0938-0.6875 0.46094-1.7109 0.6875-3.0625 0.6875-0.57422 0-1.168-0.046875-1.7812-0.14062-0.61719-0.082031-1.2461-0.21094-1.8906-0.39062v-2.125c0.55078 0.27344 1.1172 0.47656 1.7031 0.60938 0.58203 0.13672 1.1758 0.20312 1.7812 0.20312 0.53906 0 0.94531-0.070312 1.2188-0.21875 0.28125-0.15625 0.42188-0.37891 0.42188-0.67188 0-0.25-0.10156-0.42969-0.29688-0.54688-0.1875-0.125-0.5625-0.22266-1.125-0.29688l-0.48438-0.0625c-1.2422-0.15625-2.1094-0.44141-2.6094-0.85938-0.49219-0.41406-0.73438-1.0508-0.73438-1.9062 0-0.92578 0.3125-1.6094 0.9375-2.0469 0.63281-0.44531 1.6016-0.67188 2.9062-0.67188 0.50781 0 1.0469 0.042969 1.6094 0.125 0.57031 0.074219 1.1875 0.19531 1.8438 0.35938z"/>
  </symbol>
  <symbol id="j" overflow="visible">
   <path d="m8.3594-8.4219v2.2656c-0.375-0.25781-0.75781-0.45312-1.1406-0.57812-0.375-0.125-0.76562-0.1875-1.1719-0.1875-0.78125 0-1.3906 0.23047-1.8281 0.6875-0.42969 0.44922-0.64062 1.0781-0.64062 1.8906s0.21094 1.4492 0.64062 1.9062c0.4375 0.44922 1.0469 0.67188 1.8281 0.67188 0.42578 0 0.83594-0.0625 1.2344-0.1875 0.39453-0.13281 0.75391-0.32812 1.0781-0.57812v2.2812c-0.42969 0.15625-0.86719 0.26953-1.3125 0.34375-0.44922 0.082031-0.90234 0.125-1.3594 0.125-1.5625 0-2.7891-0.39844-3.6719-1.2031-0.88672-0.80078-1.3281-1.9219-1.3281-3.3594s0.44141-2.5547 1.3281-3.3594c0.88281-0.80078 2.1094-1.2031 3.6719-1.2031 0.45703 0 0.90625 0.042969 1.3438 0.125 0.44531 0.074219 0.89062 0.19531 1.3281 0.35938z"/>
  </symbol>
  <symbol id="i" overflow="visible">
   <path d="m10.078-5.2969v5.2969h-2.7969v-4.0312c0-0.76953-0.015625-1.2969-0.046875-1.5781s-0.089844-0.48828-0.17188-0.625c-0.11719-0.1875-0.26562-0.32812-0.45312-0.42188-0.17969-0.10156-0.38672-0.15625-0.625-0.15625-0.58594 0-1.043 0.22656-1.375 0.67188-0.33594 0.44922-0.5 1.0703-0.5 1.8594v4.2812h-2.7812v-12.078h2.7812v4.6562c0.42578-0.50781 0.875-0.88281 1.3438-1.125 0.46875-0.23828 0.98828-0.35938 1.5625-0.35938 1 0 1.7578 0.30859 2.2812 0.92188 0.51953 0.61719 0.78125 1.5117 0.78125 2.6875z"/>
  </symbol>
  <symbol id="u" overflow="visible">
   <path d="m1.3281-8.7031h2.7812v8.7031h-2.7812zm0-3.375h2.7812v2.2656h-2.7812z"/>
  </symbol>
  <symbol id="h" overflow="visible">
   <path d="m10.078-5.2969v5.2969h-2.7969v-4.0469c0-0.75781-0.015625-1.2812-0.046875-1.5625s-0.089844-0.48828-0.17188-0.625c-0.11719-0.1875-0.26562-0.32812-0.45312-0.42188-0.17969-0.10156-0.38672-0.15625-0.625-0.15625-0.58594 0-1.043 0.22656-1.375 0.67188-0.33594 0.44922-0.5 1.0703-0.5 1.8594v4.2812h-2.7812v-8.7031h2.7812v1.2812c0.42578-0.50781 0.875-0.88281 1.3438-1.125 0.46875-0.23828 0.98828-0.35938 1.5625-0.35938 1 0 1.7578 0.30859 2.2812 0.92188 0.51953 0.61719 0.78125 1.5117 0.78125 2.6875z"/>
  </symbol>
  <symbol id="g" overflow="visible">
   <path d="m9.3906-7.25c0.35156-0.53906 0.76953-0.95312 1.25-1.2344 0.48828-0.28125 1.0234-0.42188 1.6094-0.42188 1 0 1.7578 0.30859 2.2812 0.92188 0.51953 0.61719 0.78125 1.5117 0.78125 2.6875v5.2969h-2.7969v-4.5312c0.007813-0.070312 0.015625-0.14453 0.015625-0.21875v-0.3125c0-0.61328-0.09375-1.0547-0.28125-1.3281-0.17969-0.28125-0.46484-0.42188-0.85938-0.42188-0.53125 0-0.94531 0.21875-1.2344 0.65625-0.28125 0.4375-0.42969 1.0703-0.4375 1.8906v4.2656h-2.7969v-4.5312c0-0.96875-0.085937-1.5859-0.25-1.8594-0.16797-0.28125-0.46484-0.42188-0.89062-0.42188-0.53125 0-0.94531 0.21875-1.2344 0.65625-0.29297 0.4375-0.4375 1.0625-0.4375 1.875v4.2812h-2.7812v-8.7031h2.7812v1.2812c0.34375-0.48828 0.73438-0.85938 1.1719-1.1094 0.44531-0.25 0.9375-0.375 1.4688-0.375 0.60156 0 1.1328 0.14844 1.5938 0.4375 0.46875 0.29297 0.81641 0.69922 1.0469 1.2188z"/>
  </symbol>
  <symbol id="c" overflow="visible">
   <path d="m5.4688-6.9219c-0.61719 0-1.0859 0.22656-1.4062 0.67188-0.32422 0.4375-0.48438 1.0742-0.48438 1.9062 0 0.83594 0.16016 1.4766 0.48438 1.9219 0.32031 0.4375 0.78906 0.65625 1.4062 0.65625 0.61328 0 1.0781-0.21875 1.3906-0.65625 0.32031-0.44531 0.48438-1.0859 0.48438-1.9219 0-0.83203-0.16406-1.4688-0.48438-1.9062-0.3125-0.44531-0.77734-0.67188-1.3906-0.67188zm0-1.9844c1.5 0 2.6719 0.40625 3.5156 1.2188 0.84375 0.80469 1.2656 1.918 1.2656 3.3438 0 1.4297-0.42188 2.5469-1.2656 3.3594-0.84375 0.80469-2.0156 1.2031-3.5156 1.2031s-2.6719-0.39844-3.5156-1.2031c-0.84375-0.8125-1.2656-1.9297-1.2656-3.3594 0-1.4258 0.42188-2.5391 1.2656-3.3438 0.84375-0.8125 2.0156-1.2188 3.5156-1.2188z"/>
  </symbol>
  <symbol id="t" overflow="visible">
   <path d="m7.25-1.4688c-0.38672 0.5-0.80859 0.87109-1.2656 1.1094-0.46094 0.24219-0.99219 0.35938-1.5938 0.35938-1.0625 0-1.9453-0.41406-2.6406-1.25-0.6875-0.84375-1.0312-1.9102-1.0312-3.2031 0-1.3008 0.34375-2.3633 1.0312-3.1875 0.69531-0.83203 1.5781-1.25 2.6406-1.25 0.60156 0 1.1328 0.12109 1.5938 0.35938 0.45703 0.24219 0.87891 0.61719 1.2656 1.125v-1.2969h2.7969v7.8281c0 1.3945-0.44531 2.4609-1.3281 3.2031-0.875 0.73828-2.1523 1.1094-3.8281 1.1094-0.55469 0-1.0859-0.042969-1.5938-0.125-0.5-0.085938-1.0078-0.21484-1.5156-0.39062v-2.1562c0.48828 0.28125 0.96094 0.48828 1.4219 0.625 0.46875 0.13281 0.9375 0.20312 1.4062 0.20312 0.91406 0 1.582-0.20312 2-0.60938 0.42578-0.39844 0.64062-1.0156 0.64062-1.8594zm-1.8281-5.4219c-0.57422 0-1.0234 0.21484-1.3438 0.64062-0.32422 0.42969-0.48438 1.0273-0.48438 1.7969 0 0.80469 0.15625 1.4141 0.46875 1.8281 0.3125 0.40625 0.76562 0.60938 1.3594 0.60938 0.58203 0 1.0312-0.21094 1.3438-0.64062 0.32031-0.42578 0.48438-1.0234 0.48438-1.7969 0-0.76953-0.16406-1.3672-0.48438-1.7969-0.3125-0.42578-0.76172-0.64062-1.3438-0.64062z"/>
  </symbol>
  <symbol id="s" overflow="visible">
   <path d="m1.3281-12.078h2.7812v6.5781l3.2031-3.2031h3.2344l-4.25 4 4.5781 4.7031h-3.3594l-3.4062-3.625v3.625h-2.7812z"/>
  </symbol>
  <symbol id="r" overflow="visible">
   <path d="m7.0625-12.078v1.8125h-1.5469c-0.38672 0-0.65625 0.074219-0.8125 0.21875-0.15625 0.14844-0.23438 0.39844-0.23438 0.75v0.59375h2.375v2h-2.375v6.7031h-2.7812v-6.7031h-1.3906v-2h1.3906v-0.59375c0-0.94531 0.25781-1.6445 0.78125-2.0938 0.53125-0.45703 1.3516-0.6875 2.4688-0.6875z"/>
  </symbol>
  <symbol id="q" overflow="visible">
   <path d="m1.4531-11.594h3.3438l4.2188 7.9531v-7.9531h2.8438v11.594h-3.3438l-4.2188-7.9531v7.9531h-2.8438z"/>
  </symbol>
  <symbol id="p" overflow="visible">
   <path d="m1.25-3.3906v-5.3125h2.7812v0.875c0 0.46875-0.007812 1.0625-0.015625 1.7812v1.4219c0 0.69922 0.015625 1.2031 0.046875 1.5156 0.039062 0.30469 0.10938 0.52344 0.20312 0.65625 0.11328 0.1875 0.25781 0.33594 0.4375 0.4375 0.1875 0.09375 0.39844 0.14062 0.64062 0.14062 0.58203 0 1.0352-0.22266 1.3594-0.67188 0.33203-0.44531 0.5-1.0664 0.5-1.8594v-4.2969h2.7812v8.7031h-2.7812v-1.2656c-0.41797 0.51172-0.85938 0.88672-1.3281 1.125-0.46875 0.23828-0.98438 0.35938-1.5469 0.35938-1.0117 0-1.7773-0.30469-2.2969-0.92188-0.52344-0.61328-0.78125-1.5078-0.78125-2.6875z"/>
  </symbol>
  <symbol id="o" overflow="visible">
   <path d="m1.4531-11.594h4.9688c1.4766 0 2.6094 0.32812 3.3906 0.98438 0.78906 0.65625 1.1875 1.5898 1.1875 2.7969 0 1.2188-0.39844 2.1562-1.1875 2.8125-0.78125 0.65625-1.9141 0.98438-3.3906 0.98438h-1.9688v4.0156h-3zm3 2.1719v3.2344h1.6562c0.57031 0 1.0156-0.14062 1.3281-0.42188 0.32031-0.28125 0.48438-0.67969 0.48438-1.2031 0-0.51953-0.16406-0.91406-0.48438-1.1875-0.3125-0.28125-0.75781-0.42188-1.3281-0.42188z"/>
  </symbol>
  <symbol id="n" overflow="visible">
   <path d="m1.3281-8.7031h2.7812v8.5469c0 1.1641-0.28125 2.0547-0.84375 2.6719-0.55469 0.61328-1.3594 0.92188-2.4219 0.92188h-1.375v-1.8281h0.48438c0.53125 0 0.89062-0.12109 1.0781-0.35938 0.19531-0.24219 0.29688-0.71094 0.29688-1.4062zm0-3.375h2.7812v2.2656h-2.7812z"/>
  </symbol>
 </defs>
 <g>
  <path d="m543.92 321.22h-376.31c-32.34 0-58.551 26.211-58.551 58.551 0 32.34 26.211 58.555 58.551 58.555h376.3c32.336 0 58.555-26.211 58.555-58.555 0-32.336-26.219-58.551-58.551-58.551zm-370.75 99.375c-22.465 0-40.676-18.211-40.676-40.676 0-22.461 18.211-40.672 40.676-40.672s40.676 18.211 40.676 40.672c0 22.465-18.211 40.676-40.676 40.676zm369.53 0c-22.465 0-40.676-18.211-40.676-40.676 0-22.461 18.211-40.672 40.676-40.672s40.676 18.211 40.676 40.672c0 22.465-18.211 40.676-40.676 40.676z" fill="white"/>
  <path d="m180.97 310.3h42.898c12.688 0 22.965-10.281 22.965-22.969v-42.898c0-12.688-10.277-22.969-22.965-22.969h-42.898c-12.684 0-22.969 10.281-22.969 22.969v42.895c0 12.691 10.285 22.973 22.969 22.973z" fill="white"/>
  <path d="m285.87 310.3h42.898c12.688 0 22.969-10.281 22.969-22.969v-42.898c0-12.688-10.281-22.969-22.969-22.969h-42.898c-12.688 0-22.965 10.281-22.965 22.969v42.895c0.003906 12.691 10.281 22.973 22.965 22.973z" fill="white"/>
  <path d="m390.78 310.3h42.902c12.684 0 22.969-10.281 22.969-22.969v-42.898c0-12.688-10.285-22.969-22.969-22.969h-42.902c-12.684 0-22.965 10.281-22.965 22.969v42.895c0 12.691 10.281 22.973 22.965 22.973z" fill="white"/>
  <path d="m495.68 310.3h42.902c12.684 0 22.965-10.281 22.965-22.969v-42.898c0-12.688-10.281-22.969-22.965-22.969h-42.902c-12.684 0-22.969 10.281-22.969 22.969v42.895c0 12.691 10.285 22.973 22.969 22.973z" fill="white"/>
 </g>
</svg>
